<?xml version="1.0" encoding="UTF-8" standalone="no"?>
<svg
   width="694px"
   height="423px"
   viewBox="0 0 694 423"
   style="background-color: #ffffff00"
   version="1.1"
   id="svg102"
   sodipodi:docname="TOC.svg"
   inkscape:version="1.4 (e7c3feb1, 2024-10-09)"
   xmlns:inkscape="http://www.inkscape.org/namespaces/inkscape"
   xmlns:sodipodi="http://sodipodi.sourceforge.net/DTD/sodipodi-0.dtd"
   xmlns="http://www.w3.org/2000/svg"
   xmlns:svg="http://www.w3.org/2000/svg">
  <defs
     id="defs102" />
  <sodipodi:namedview
     id="namedview102"
     pagecolor="#ffffff"
     bordercolor="#cccccc"
     borderopacity="1"
     inkscape:showpageshadow="0"
     inkscape:pageopacity="1"
     inkscape:pagecheckerboard="0"
     inkscape:deskcolor="#d1d1d1"
     inkscape:zoom="1.4860671"
     inkscape:cx="220.71681"
     inkscape:cy="197.83763"
     inkscape:window-width="1104"
     inkscape:window-height="1051"
     inkscape:window-x="61"
     inkscape:window-y="38"
     inkscape:window-maximized="0"
     inkscape:current-layer="svg102" />
  <path
     stroke="#000000"
     stroke-width="77"
     fill="none"
     transform="matrix(0.05 0 0 0.05 -14 -7)"
     d="M 3580.45,3098.44 C 3596.06,3082.82 3596.59,3058.01 3581.63,3043.04 C 3566.66,3028.08 3541.84,3028.61 3526.23,3044.22 C 3510.62,3059.83 3485.8,3060.36 3470.84,3045.4 C 3455.88,3030.43 3456.4,3005.62 3472.02,2990 C 3487.63,2974.39 3488.16,2949.57 3473.19,2934.61 C 3458.23,2919.65 3433.41,2920.17 3417.8,2935.79 C 3402.19,2951.4 3377.37,2951.93 3362.41,2936.96 C 3347.44,2922 3347.97,2897.18 3363.58,2881.57 C 3379.19,2865.96 3379.72,2841.14 3364.76,2826.18 C 3349.8,2811.21 3324.98,2811.74 3309.37,2827.35 C 3293.75,2842.97 3268.94,2843.49 3253.97,2828.53 C 3239.01,2813.57 3239.54,2788.75 3255.15,2773.14 C 3270.76,2757.52 3271.29,2732.71 3256.33,2717.74 C 3241.36,2702.78 3216.55,2703.31 3200.93,2718.92 C 3185.32,2734.53 3160.5,2735.06 3145.54,2720.1 C 3130.58,2705.13 3131.1,2680.32 3146.72,2664.7 C 3162.33,2649.09 3162.86,2624.27 3147.89,2609.31 C 3132.93,2594.35 3108.11,2594.87 3092.5,2610.49 C 3076.89,2626.1 3052.07,2626.63 3037.11,2611.66 C 3022.14,2596.7 3022.67,2571.88 3038.28,2556.27 C 3053.9,2540.66 3054.42,2515.84 3039.46,2500.88 C 3024.5,2485.91 2999.68,2486.44 2984.07,2502.05 C 2968.45,2517.67 2943.64,2518.19 2928.67,2503.23 C 2913.71,2488.27 2914.24,2463.45 2929.85,2447.84 "
     id="path1" />
  <path
     stroke="#ff0000"
     stroke-width="3.85"
     fill="none"
     d="m 174.96515,158.29731 c 0.7945,-0.7665 0.8825,-1.966 0.197,-2.6765 -0.686,-0.711 -1.8875,-0.6655 -2.682,0.101 -0.7945,0.7665 -1.996,0.8115 -2.6815,0.101 -0.686,-0.711 -0.598,-1.91 0.1965,-2.6765 0.7945,-0.7665 0.8825,-1.966 0.197,-2.6765 -0.686,-0.711 -1.8875,-0.6655 -2.682,0.101 -0.7945,0.7665 -1.996,0.8115 -2.6815,0.101 -0.686,-0.711 -0.5975,-1.91 0.1965,-2.6765 0.7945,-0.7665 0.883,-1.966 0.197,-2.6765"
     id="path2" />
  <path
     stroke="#000000"
     stroke-width="77"
     fill="none"
     transform="matrix(0.05 0 0 0.05 -14 -7)"
     d="M 4345.45,3870.04 C 4329.84,3885.65 4329.16,3910.32 4343.94,3925.1 C 4358.72,3939.88 4383.39,3939.2 4399,3923.59 C 4414.62,3907.98 4439.29,3907.3 4454.07,3922.08 C 4468.85,3936.86 4468.17,3961.53 4452.56,3977.15 C 4436.95,3992.76 4436.27,4017.43 4451.05,4032.21 C 4465.83,4046.99 4490.5,4046.31 4506.11,4030.7 C 4521.73,4015.09 4546.39,4014.41 4561.17,4029.19 C 4575.96,4043.97 4575.28,4068.64 4559.67,4084.26 C 4544.06,4099.87 4543.38,4124.54 4558.16,4139.32 C 4572.94,4154.1 4597.61,4153.42 4613.22,4137.81 C 4628.83,4122.2 4653.5,4121.52 4668.28,4136.3 C 4683.06,4151.08 4682.39,4175.75 4666.78,4191.36 C 4651.17,4206.98 4650.49,4231.65 4665.27,4246.43 C 4680.05,4261.21 4704.72,4260.53 4720.33,4244.92 C 4735.94,4229.31 4760.61,4228.63 4775.39,4243.41 C 4790.17,4258.19 4789.5,4282.86 4773.89,4298.47 C 4758.27,4314.09 4757.6,4338.76 4772.38,4353.54 C 4787.16,4368.32 4811.83,4367.64 4827.44,4352.03 "
     id="path3" />
  <path
     stroke="#ff0000"
     stroke-width="3.85"
     fill="none"
     d="m 193.34627,176.22384 c -0.7945,0.7665 -0.8825,1.9655 -0.197,2.676 0.686,0.711 1.8875,0.666 2.682,-0.1005 0.7945,-0.7665 1.996,-0.812 2.6815,-0.101 0.686,0.7105 0.598,1.91 -0.1965,2.6765 -0.7945,0.7665 -0.883,1.9655 -0.197,2.676 0.686,0.711 1.8875,0.666 2.682,-0.1005 0.794,-0.7665 1.9955,-0.812 2.6815,-0.101 0.686,0.7105 0.5975,1.9095 -0.197,2.676 -0.7945,0.767 -0.8825,1.966 -0.1965,2.6765"
     id="path4" />
  <path
     stroke="none"
     fill="#ff0000"
     transform="matrix(0.05 0 0 0.05 -14 -7)"
     d="M 3014.49,3109.07 L 3471.85,3566.44 L 3457.85,3580.44 L 3000.49,3123.07 Z "
     id="path5" />
  <path
     stroke="none"
     fill="#ff0000"
     transform="matrix(0.05 0 0 0.05 -14 -7)"
     d="M 2884.45,2993.04 C 2884.45,2993.04 3062.23,3098.1 3062.23,3098.1 C 3062.23,3098.1 3024.1,3100.87 3008.19,3116.78 C 2992.29,3132.69 2989.52,3170.81 2989.52,3170.81 C 2989.52,3170.81 2884.45,2993.04 2884.45,2993.04 C 2884.45,2993.04 2884.45,2993.04 2884.45,2993.04 "
     id="path6" />
  <path
     stroke="#ff0000"
     stroke-width="1"
     fill="none"
     transform="matrix(0.05 0 0 0.05 -14 -7)"
     d="M 2884.45,2993.04 C 2884.45,2993.04 3062.23,3098.1 3062.23,3098.1 C 3062.23,3098.1 3024.1,3100.87 3008.19,3116.78 C 2992.29,3132.69 2989.52,3170.81 2989.52,3170.81 C 2989.52,3170.81 2884.45,2993.04 2884.45,2993.04 C 2884.45,2993.04 2884.45,2993.04 2884.45,2993.04 "
     id="path7" />
  <path
     stroke="none"
     fill="#ff0000"
     transform="matrix(0.05 0 0 0.05 -14 -7)"
     d="M 4325.01,4447.6 L 3867.65,3990.24 L 3881.65,3976.24 L 4339.01,4433.6 Z "
     id="path8" />
  <path
     stroke="none"
     fill="#ff0000"
     transform="matrix(0.05 0 0 0.05 -14 -7)"
     d="M 4455.05,4563.64 C 4455.05,4563.64 4277.27,4458.57 4277.27,4458.57 C 4277.27,4458.57 4315.4,4455.8 4331.31,4439.89 C 4347.21,4423.99 4349.98,4385.86 4349.98,4385.86 C 4349.98,4385.86 4455.05,4563.64 4455.05,4563.64 C 4455.05,4563.64 4455.05,4563.64 4455.05,4563.64 "
     id="path9" />
  <path
     stroke="#ff0000"
     stroke-width="1"
     fill="none"
     transform="matrix(0.05 0 0 0.05 -14 -7)"
     d="M 4455.05,4563.64 C 4455.05,4563.64 4277.27,4458.57 4277.27,4458.57 C 4277.27,4458.57 4315.4,4455.8 4331.31,4439.89 C 4347.21,4423.99 4349.98,4385.86 4349.98,4385.86 C 4349.98,4385.86 4455.05,4563.64 4455.05,4563.64 C 4455.05,4563.64 4455.05,4563.64 4455.05,4563.64 "
     id="path10" />
  <path
     stroke="#000000"
     stroke-width="20"
     fill="none"
     transform="matrix(0.05 0 0 0.05 -14 -7)"
     d="M 4877.05,4568.24 C 4877.05,4568.24 4877.05,2394.24 4877.05,2394.24 C 4877.05,2394.24 2586.25,2394.24 2586.25,2394.24 C 2586.25,2394.24 2586.25,4568.24 2586.25,4568.24 C 2586.25,4568.24 4877.05,4568.24 4877.05,4568.24 "
     id="path11" />
  <text
     x="0"
     y="0"
     stroke="none"
     fill="#000000"
     transform="matrix(0.05 0 0 0.05 98.6133 242.932)"
     font-style="normal"
     font-weight="normal"
     font-size="320px"
     font-family="Helvetica"
     id="text11">
single-chain </text>
  <text
     x="0"
     y="0"
     stroke="none"
     fill="#000000"
     transform="matrix(0.05 0 0 0.05 188.441 242.932)"
     font-style="normal"
     font-weight="normal"
     font-size="320px"
     font-family="Helvetica"
     id="text12">
scission</text>
  <path
     stroke="#000000"
     stroke-width="77"
     fill="none"
     transform="matrix(0.05 0 0 0.05 -14 -7)"
     d="M 8711.24,3134.03 C 8711.24,3111.96 8693.7,3094.03 8672.09,3094.03 C 8650.49,3094.03 8632.95,3111.96 8632.95,3134.03 C 8632.95,3156.11 8615.42,3174.03 8593.81,3174.03 C 8572.2,3174.03 8554.67,3156.11 8554.67,3134.03 C 8554.67,3111.96 8537.13,3094.03 8515.53,3094.03 C 8493.92,3094.03 8476.38,3111.96 8476.38,3134.03 C 8476.38,3156.11 8458.85,3174.03 8437.24,3174.03 C 8415.64,3174.03 8398.1,3156.11 8398.1,3134.03 C 8398.1,3111.96 8380.56,3094.03 8358.96,3094.03 C 8337.35,3094.03 8319.82,3111.96 8319.82,3134.03 C 8319.82,3156.11 8302.28,3174.03 8280.68,3174.03 C 8259.07,3174.03 8241.53,3156.11 8241.53,3134.03 C 8241.53,3111.96 8224,3094.03 8202.39,3094.03 C 8180.79,3094.03 8163.25,3111.96 8163.25,3134.03 C 8163.25,3156.11 8145.71,3174.03 8124.11,3174.03 C 8102.5,3174.03 8084.97,3156.11 8084.97,3134.03 C 8084.97,3111.96 8067.43,3094.03 8045.83,3094.03 C 8024.22,3094.03 8006.68,3111.96 8006.68,3134.03 C 8006.68,3156.11 7989.15,3174.03 7967.54,3174.03 C 7945.94,3174.03 7928.4,3156.11 7928.4,3134.03 C 7928.4,3111.96 7910.86,3094.03 7889.26,3094.03 C 7867.65,3094.03 7850.12,3111.96 7850.12,3134.03 C 7850.12,3156.11 7832.58,3174.03 7810.98,3174.03 C 7789.37,3174.03 7771.83,3156.11 7771.83,3134.03 C 7771.83,3111.96 7754.3,3094.03 7732.69,3094.03 C 7711.09,3094.03 7693.55,3111.96 7693.55,3134.03 C 7693.55,3156.11 7676.01,3174.03 7654.41,3174.03 C 7632.8,3174.03 7615.27,3156.11 7615.27,3134.03 C 7615.27,3111.96 7597.73,3094.03 7576.13,3094.03 C 7554.52,3094.03 7536.98,3111.96 7536.98,3134.03 C 7536.98,3156.11 7519.45,3174.03 7497.84,3174.03 C 7476.24,3174.03 7458.7,3156.11 7458.7,3134.03 C 7458.7,3111.96 7441.16,3094.03 7419.56,3094.03 C 7397.95,3094.03 7380.42,3111.96 7380.42,3134.03 C 7380.42,3156.11 7362.88,3174.03 7341.27,3174.03 C 7319.67,3174.03 7302.13,3156.11 7302.13,3134.03 C 7302.13,3111.96 7284.6,3094.03 7262.99,3094.03 C 7241.39,3094.03 7223.85,3111.96 7223.85,3134.03 C 7223.85,3156.11 7206.31,3174.03 7184.71,3174.03 C 7163.1,3174.03 7145.57,3156.11 7145.57,3134.03 C 7145.57,3111.96 7128.03,3094.03 7106.42,3094.03 C 7084.82,3094.03 7067.28,3111.96 7067.28,3134.03 C 7067.28,3156.11 7049.75,3174.03 7028.14,3174.03 C 7006.54,3174.03 6989,3156.11 6989,3134.03 C 6989,3111.96 6971.46,3094.03 6949.86,3094.03 C 6928.25,3094.03 6910.72,3111.96 6910.72,3134.03 "
     id="path12" />
  <path
     stroke="#0000ff"
     stroke-width="3.96402"
     fill="none"
     d="m 374.53008,149.66734 c 0,-1.08538 -0.86441,-1.96715 -1.92874,-1.96715 -1.06488,0 -1.92874,0.88177 -1.92874,1.96715 0,1.08587 -0.86386,1.96715 -1.92874,1.96715 -1.06433,0 -1.9282,-0.88128 -1.9282,-1.96715 0,-1.08538 -0.8644,-1.96715 -1.92873,-1.96715 -1.06435,0 -1.92875,0.88177 -1.92875,1.96715 0,1.08587 -0.86385,1.96715 -1.92873,1.96715 -1.06434,0 -1.9282,-0.88128 -1.9282,-1.96715 0,-1.08538 -0.86441,-1.96715 -1.92874,-1.96715"
     id="path13" />
  <path
     stroke="none"
     fill="#0000ff"
     transform="matrix(0.05 0 0 0.05 -14 -7)"
     d="M 8090.04,2928.99 L 7443.44,2928.83 L 7443.44,2908.83 L 8090.04,2908.99 Z "
     id="path14" />
  <path
     stroke="none"
     fill="#0000ff"
     transform="matrix(0.05 0 0 0.05 -14 -7)"
     d="M 8264.04,2919.03 C 8264.04,2919.03 8063.02,2969.99 8063.02,2969.99 C 8063.02,2969.99 8088.59,2941.3 8089.04,2918.99 C 8089.48,2896.68 8065.05,2867.99 8065.05,2867.99 C 8065.05,2867.99 8264.04,2919.03 8264.04,2919.03 C 8264.04,2919.03 8264.04,2919.03 8264.04,2919.03 "
     id="path15" />
  <path
     stroke="#0000ff"
     stroke-width="1"
     fill="none"
     transform="matrix(0.05 0 0 0.05 -14 -7)"
     d="M 8264.04,2919.03 C 8264.04,2919.03 8063.02,2969.99 8063.02,2969.99 C 8063.02,2969.99 8088.59,2941.3 8089.04,2918.99 C 8089.48,2896.68 8065.05,2867.99 8065.05,2867.99 C 8065.05,2867.99 8264.04,2919.03 8264.04,2919.03 C 8264.04,2919.03 8264.04,2919.03 8264.04,2919.03 "
     id="path16" />
  <path
     stroke="#000000"
     stroke-width="77"
     fill="none"
     transform="matrix(0.05 0 0 0.05 -14 -7)"
     d="M 8073.04,4027.43 C 8073.04,4005.36 8055.56,3987.43 8034.03,3987.43 C 8012.5,3987.43 7995.02,4005.36 7995.02,4027.43 C 7995.02,4049.51 7977.55,4067.43 7956.02,4067.43 C 7934.49,4067.43 7917.01,4049.51 7917.01,4027.43 C 7917.01,4005.36 7899.54,3987.43 7878.01,3987.43 C 7856.48,3987.43 7839,4005.36 7839,4027.43 C 7839,4049.51 7821.53,4067.43 7800,4067.43 C 7778.47,4067.43 7760.99,4049.51 7760.99,4027.43 C 7760.99,4005.36 7743.52,3987.43 7721.99,3987.43 C 7700.46,3987.43 7682.98,4005.36 7682.98,4027.43 C 7682.98,4049.51 7665.51,4067.43 7643.98,4067.43 C 7622.45,4067.43 7604.97,4049.51 7604.97,4027.43 C 7604.97,4005.36 7587.49,3987.43 7565.96,3987.43 C 7544.43,3987.43 7526.96,4005.36 7526.96,4027.43 C 7526.96,4049.51 7509.48,4067.43 7487.95,4067.43 C 7466.42,4067.43 7448.95,4049.51 7448.95,4027.43 C 7448.95,4005.36 7431.47,3987.43 7409.94,3987.43 C 7388.41,3987.43 7370.94,4005.36 7370.94,4027.43 C 7370.94,4049.51 7353.46,4067.43 7331.93,4067.43 C 7310.4,4067.43 7292.93,4049.51 7292.93,4027.43 C 7292.93,4005.36 7275.45,3987.43 7253.92,3987.43 C 7232.39,3987.43 7214.92,4005.36 7214.92,4027.43 C 7214.92,4049.51 7197.44,4067.43 7175.91,4067.43 C 7154.38,4067.43 7136.9,4049.51 7136.9,4027.43 C 7136.9,4005.36 7119.43,3987.43 7097.9,3987.43 C 7076.37,3987.43 7058.89,4005.36 7058.89,4027.43 C 7058.89,4049.51 7041.42,4067.43 7019.89,4067.43 C 6998.36,4067.43 6980.88,4049.51 6980.88,4027.43 C 6980.88,4005.36 6963.41,3987.43 6941.88,3987.43 C 6920.35,3987.43 6902.87,4005.36 6902.87,4027.43 C 6902.87,4049.51 6885.4,4067.43 6863.87,4067.43 C 6842.34,4067.43 6824.86,4049.51 6824.86,4027.43 C 6824.86,4005.36 6807.38,3987.43 6785.85,3987.43 C 6764.33,3987.43 6746.85,4005.36 6746.85,4027.43 C 6746.85,4049.51 6729.37,4067.43 6707.84,4067.43 C 6686.31,4067.43 6668.84,4049.51 6668.84,4027.43 C 6668.84,4005.36 6651.36,3987.43 6629.83,3987.43 C 6608.3,3987.43 6590.83,4005.36 6590.83,4027.43 C 6590.83,4049.51 6573.35,4067.43 6551.82,4067.43 C 6530.29,4067.43 6512.82,4049.51 6512.82,4027.43 "
     id="path17" />
  <path
     stroke="#0000ff"
     stroke-width="3.98661"
     fill="none"
     d="m 374.07616,194.3715 c 0,-1.08155 -0.87737,-1.96023 -1.95768,-1.96023 -1.08085,0 -1.95767,0.87868 -1.95767,1.96023 0,1.08204 -0.87683,1.96023 -1.95768,1.96023 -1.0803,0 -1.95713,-0.87819 -1.95713,-1.96023 0,-1.08155 -0.87737,-1.96023 -1.95767,-1.96023 -1.08031,0 -1.95768,0.87868 -1.95768,1.96023 0,1.08204 -0.87682,1.96023 -1.95767,1.96023 -1.0803,0 -1.95713,-0.87819 -1.95713,-1.96023 0,-1.08155 -0.87737,-1.96023 -1.95767,-1.96023"
     id="path18" />
  <path
     stroke="none"
     fill="#0000ff"
     transform="matrix(0.05 0 0 0.05 -14 -7)"
     d="M 6852.04,4294.08 L 7498.64,4294.23 L 7498.64,4314.23 L 6852.04,4314.08 Z "
     id="path19" />
  <path
     stroke="none"
     fill="#0000ff"
     transform="matrix(0.05 0 0 0.05 -14 -7)"
     d="M 6678.04,4304.03 C 6678.04,4304.03 6879.05,4253.08 6879.05,4253.08 C 6879.05,4253.08 6853.48,4281.76 6853.04,4304.08 C 6852.59,4326.39 6877.02,4355.08 6877.02,4355.08 C 6877.02,4355.08 6678.04,4304.03 6678.04,4304.03 C 6678.04,4304.03 6678.04,4304.03 6678.04,4304.03 "
     id="path20" />
  <path
     stroke="#0000ff"
     stroke-width="1"
     fill="none"
     transform="matrix(0.05 0 0 0.05 -14 -7)"
     d="M 6678.04,4304.03 C 6678.04,4304.03 6879.05,4253.08 6879.05,4253.08 C 6879.05,4253.08 6853.48,4281.76 6853.04,4304.08 C 6852.59,4326.39 6877.02,4355.08 6877.02,4355.08 C 6877.02,4355.08 6678.04,4304.03 6678.04,4304.03 C 6678.04,4304.03 6678.04,4304.03 6678.04,4304.03 "
     id="path21" />
  <path
     stroke="#000000"
     stroke-width="20"
     fill="none"
     transform="matrix(0.05 0 0 0.05 -14 -7)"
     d="M 8752.44,4605.03 C 8752.44,4605.03 8752.44,2431.43 8752.44,2431.43 C 8752.44,2431.43 6461.64,2431.43 6461.64,2431.43 C 6461.64,2431.43 6461.64,4605.03 6461.64,4605.03 C 6461.64,4605.03 8752.44,4605.03 8752.44,4605.03 "
     id="path22" />
  <text
     x="0"
     y="0"
     stroke="none"
     fill="#000000"
     transform="matrix(0.05 0 0 0.05 286.709 241.852)"
     font-style="normal"
     font-weight="normal"
     font-size="320px"
     font-family="Helvetica"
     id="text23">
double </text>
  <text
     x="0"
     y="0"
     stroke="none"
     fill="#000000"
     transform="matrix(0.05 0 0 0.05 339.202 241.852)"
     font-style="normal"
     font-weight="normal"
     font-size="320px"
     font-family="Helvetica"
     id="text24">
chain </text>
  <text
     x="0"
     y="0"
     stroke="none"
     fill="#000000"
     transform="matrix(0.05 0 0 0.05 381.897 241.852)"
     font-style="normal"
     font-weight="normal"
     font-size="320px"
     font-family="Helvetica"
     id="text25">
shearing</text>
  <path
     stroke="#000000"
     stroke-width="20"
     fill="none"
     transform="matrix(0.05 0 0 0.05 -14 -7)"
     d="M 4912.66,7753.15 C 4912.66,7753.15 4912.66,5579.55 4912.66,5579.55 C 4912.66,5579.55 2621.86,5579.55 2621.86,5579.55 C 2621.86,5579.55 2621.86,7753.15 2621.86,7753.15 C 2621.86,7753.15 4912.66,7753.15 4912.66,7753.15 "
     id="path25" />
  <path
     stroke="#000000"
     stroke-width="54"
     fill="none"
     transform="matrix(0.05 0 0 0.05 -14 -7)"
     d="M 4483.26,5592.55 C 4483.26,5592.55 4107.66,5746.55 3802.46,6490.55 C 3497.46,7234.75 3673.86,7280.15 3215.06,7734.15 "
     id="path26" />
  <path
     stroke="#000000"
     stroke-width="54"
     fill="none"
     transform="matrix(0.05 0 0 0.05 -14 -7)"
     d="M 3962.06,5579.35 C 3962.06,5579.35 3685.66,5834.55 3749.46,6238.75 C 3813.26,6642.95 3940.86,6940.95 3855.86,7174.95 C 3770.66,7408.95 3536.66,7749.35 3536.66,7749.35 "
     id="path27" />
  <path
     stroke="#0000ff"
     stroke-width="80"
     fill="none"
     transform="matrix(0.05 0 0 0.05 -14 -7)"
     stroke-dasharray="54"
     d="M 3881.66,7074.35 L 3621.66,7004.75 "
     id="path28" />
  <path
     stroke="#0000ff"
     stroke-width="80"
     fill="none"
     transform="matrix(0.05 0 0 0.05 -14 -7)"
     stroke-dasharray="54"
     d="M 3988.06,6138.35 L 3728.06,6068.55 "
     id="path29" />
  <text
     x="0"
     y="0"
     stroke="none"
     fill="#000000"
     transform="matrix(0.05 0 0 0.05 82.5428 399.778)"
     font-style="normal"
     font-weight="normal"
     font-size="320px"
     font-family="Helvetica"
     id="text29">
hydrogen </text>
  <text
     x="0"
     y="0"
     stroke="none"
     fill="#000000"
     transform="matrix(0.05 0 0 0.05 153.707 399.778)"
     font-style="normal"
     font-weight="normal"
     font-size="320px"
     font-family="Helvetica"
     id="text30">
bond </text>
  <text
     x="0"
     y="0"
     stroke="none"
     fill="#000000"
     transform="matrix(0.05 0 0 0.05 193.746 399.778)"
     font-style="normal"
     font-weight="normal"
     font-size="320px"
     font-family="Helvetica"
     id="text31">
numbers</text>
  <path
     stroke="#000000"
     stroke-width="80"
     fill="none"
     transform="matrix(0.05 0 0 0.05 -14 -7)"
     d="M 8665.45,6704.78 C 8665.45,6704.78 8355.85,6479.18 7964.85,6622.98 C 7573.45,6766.78 7301.05,6953.38 7050.65,6914.98 C 6799.85,6876.18 6413.45,6709.78 6413.45,6709.78 "
     id="path31" />
  <path
     stroke="#000000"
     stroke-width="80"
     fill="none"
     transform="matrix(0.05 0 0 0.05 -14 -7)"
     d="M 6438.05,6413.18 C 6438.05,6413.18 6784.45,7207.58 7089.85,7207.58 C 7395.45,7207.58 8291.65,5781.78 8291.65,5577.98 "
     id="path32" />
  <path
     stroke="#000000"
     stroke-width="80"
     fill="none"
     transform="matrix(0.05 0 0 0.05 -14 -7)"
     d="M 6438.05,7248.38 C 6438.05,7248.38 7965.85,6148.38 8699.05,6250.18 "
     id="path33" />
  <path
     stroke="#000000"
     stroke-width="80"
     fill="none"
     transform="matrix(0.05 0 0 0.05 -14 -7)"
     d="M 6438.05,6107.58 C 6438.05,6107.58 8026.85,7085.38 8699.05,7085.38 "
     id="path34" />
  <path
     stroke="#000000"
     stroke-width="80"
     fill="none"
     transform="matrix(0.05 0 0 0.05 -14 -7)"
     d="M 6438.05,5863.18 C 6438.05,5863.18 7415.85,7472.38 8108.45,7309.58 C 8801.05,7146.58 8373.25,6881.78 8719.45,6881.78 "
     id="path35" />
  <path
     stroke="#000000"
     stroke-width="80"
     fill="none"
     transform="matrix(0.05 0 0 0.05 -14 -7)"
     d="M 6438.05,7594.58 C 6438.05,7594.58 7232.45,7166.98 7375.05,6148.38 C 7517.65,5129.98 9228.85,5944.78 8373.25,6026.18 C 7517.65,6107.58 8699.05,6535.38 8699.05,6535.38 "
     id="path36" />
  <path
     stroke="#000000"
     stroke-width="20"
     fill="none"
     transform="matrix(0.05 0 0 0.05 -14 -7)"
     d="M 8718.85,7754.18 C 8718.85,7754.18 8718.85,5580.58 8718.85,5580.58 C 8718.85,5580.58 6428.05,5580.58 6428.05,5580.58 C 6428.05,5580.58 6428.05,7754.18 6428.05,7754.18 C 6428.05,7754.18 8718.85,7754.18 8718.85,7754.18 "
     id="path37" />
  <text
     x="0"
     y="0"
     stroke="none"
     fill="#000000"
     transform="matrix(0.05 0 0 0.05 321.721 398.889)"
     font-style="normal"
     font-weight="normal"
     font-size="320px"
     font-family="Helvetica"
     id="text37">
bulk </text>
  <text
     x="0"
     y="0"
     stroke="none"
     fill="#000000"
     transform="matrix(0.05 0 0 0.05 355.517 398.889)"
     font-style="normal"
     font-weight="normal"
     font-size="320px"
     font-family="Helvetica"
     id="text38">
material</text>
  <path
     stroke="none"
     fill="#b3e7b3"
     transform="matrix(0.05 0 0 0.05 -14 -7)"
     d="M 5119.45,1746.37 L 5119.45,651.219 L 5120.89,632.54 L 5125.09,614.767 L 5131.82,598.121 L 5140.86,582.819 L 5151.99,569.08 L 5165,557.123 L 5179.66,547.166 L 5195.76,539.428 L 5213.08,534.128 L 5231.41,531.485 L 6083.04,531.219 L 6101.77,532.667 L 6119.54,536.864 L 6136.19,543.591 L 6151.49,552.631 L 6165.23,563.764 L 6177.19,576.772 L 6187.15,591.436 L 6194.88,607.537 L 6200.18,624.857 L 6202.83,643.178 L 6203.09,1745.75 L 6201.64,1765.05 L 6197.45,1782.82 L 6190.72,1799.47 L 6181.68,1814.77 L 6170.55,1828.51 L 6157.54,1840.47 L 6142.88,1850.42 L 6126.77,1858.16 L 6109.45,1863.46 L 6091.13,1866.1 L 5239.49,1866.37 L 5220.77,1864.92 L 5202.99,1860.73 L 5186.35,1854 L 5171.05,1844.96 L 5157.31,1833.83 L 5145.35,1820.82 L 5135.39,1806.15 L 5127.66,1790.05 L 5122.36,1772.73 L 5119.71,1754.41 L 5119.45,1746.37 Z "
     id="path38" />
  <path
     stroke="#00af00"
     stroke-width="20"
     fill="none"
     transform="matrix(0.05 0 0 0.05 -14 -7)"
     d="M 5119.45,1746.37 C 5119.45,1746.37 5119.45,651.219 5119.45,651.219 C 5119.45,584.983 5173.21,531.219 5239.45,531.219 C 5239.45,531.219 6083.09,531.219 6083.09,531.219 C 6149.33,531.219 6203.09,584.983 6203.09,651.219 C 6203.09,651.219 6203.09,1746.37 6203.09,1746.37 C 6203.09,1812.61 6149.33,1866.37 6083.09,1866.37 C 6083.09,1866.37 5239.45,1866.37 5239.45,1866.37 C 5173.21,1866.37 5119.45,1812.61 5119.45,1746.37 "
     id="path39" />
  <path
     stroke="none"
     fill="#b3b3ff"
     transform="matrix(0.05 0 0 0.05 -14 -7)"
     d="M 3892.45,1585.43 L 3892.45,646.045 L 3893.9,627.365 L 3898.1,609.593 L 3904.83,592.946 L 3913.87,577.644 L 3925,563.905 L 3938.01,551.948 L 3952.67,541.991 L 3968.77,534.254 L 3986.09,528.954 L 4004.41,526.31 L 4977.12,526.045 L 4995.87,527.492 L 5013.65,531.689 L 5030.29,538.417 L 5045.59,547.456 L 5059.33,558.589 L 5071.29,571.597 L 5081.25,586.261 L 5088.98,602.363 L 5094.28,619.683 L 5096.93,638.003 L 5097.19,1585.43 L 5095.75,1604.11 L 5091.55,1621.88 L 5084.82,1638.53 L 5075.78,1653.83 L 5064.65,1667.57 L 5051.64,1679.52 L 5036.98,1689.48 L 5020.88,1697.22 L 5003.56,1702.52 L 4985.24,1705.16 L 4012.45,1705.43 L 3993.77,1703.98 L 3976,1699.78 L 3959.35,1693.06 L 3944.05,1684.02 L 3930.31,1672.88 L 3918.36,1659.87 L 3908.4,1645.21 L 3900.66,1629.11 L 3895.36,1611.79 L 3892.72,1593.47 L 3892.45,1585.43 Z "
     id="path40" />
  <path
     stroke="#0000ff"
     stroke-width="20"
     fill="none"
     transform="matrix(0.05 0 0 0.05 -14 -7)"
     d="M 3892.45,1585.43 C 3892.45,1585.43 3892.45,646.045 3892.45,646.045 C 3892.45,579.808 3946.22,526.045 4012.45,526.045 C 4012.45,526.045 4977.19,526.045 4977.19,526.045 C 5043.43,526.045 5097.19,579.808 5097.19,646.045 C 5097.19,646.045 5097.19,1585.43 5097.19,1585.43 C 5097.19,1651.66 5043.43,1705.43 4977.19,1705.43 C 4977.19,1705.43 4012.45,1705.43 4012.45,1705.43 C 3946.22,1705.43 3892.45,1651.66 3892.45,1585.43 "
     id="path41" />
  <path
     stroke="none"
     fill="#ffb3b3"
     transform="matrix(0.05 0 0 0.05 -14 -7)"
     d="M 1626.32,1348.93 L 1626.32,760.412 L 1627.77,741.733 L 1631.96,723.96 L 1638.69,707.314 L 1647.73,692.012 L 1658.86,678.273 L 1671.87,666.316 L 1686.54,656.359 L 1702.64,648.621 L 1719.96,643.321 L 1738.28,640.678 L 1746.32,640.412 L 2143.36,640.412 L 2162.04,641.86 L 2179.81,646.057 L 2196.46,652.784 L 2211.76,661.824 L 2225.5,672.957 L 2237.46,685.965 L 2247.42,700.629 L 2255.15,716.73 L 2260.45,734.05 L 2263.1,752.371 L 2263.36,1348.56 L 2261.92,1367.61 L 2257.72,1385.38 L 2250.99,1402.03 L 2241.95,1417.33 L 2230.82,1431.07 L 2217.81,1443.03 L 2203.15,1452.98 L 2187.04,1460.72 L 2169.72,1466.02 L 2151.4,1468.66 L 1746.32,1468.93 L 1727.64,1467.48 L 1709.87,1463.29 L 1693.22,1456.56 L 1677.92,1447.52 L 1664.18,1436.38 L 1652.22,1423.38 L 1642.27,1408.71 L 1634.53,1392.61 L 1629.23,1375.29 L 1626.59,1356.97 L 1626.32,1348.93 Z "
     id="path42" />
  <path
     stroke="#ff0000"
     stroke-width="20"
     fill="none"
     transform="matrix(0.05 0 0 0.05 -14 -7)"
     d="M 1626.32,1348.93 C 1626.32,1348.93 1626.32,760.412 1626.32,760.412 C 1626.32,694.176 1680.08,640.412 1746.32,640.412 C 1746.32,640.412 2143.36,640.412 2143.36,640.412 C 2209.6,640.412 2263.36,694.176 2263.36,760.412 C 2263.36,760.412 2263.36,1348.93 2263.36,1348.93 C 2263.36,1415.17 2209.6,1468.93 2143.36,1468.93 C 2143.36,1468.93 1746.32,1468.93 1746.32,1468.93 C 1680.08,1468.93 1626.32,1415.17 1626.32,1348.93 "
     id="path43" />
  <text
     x="0"
     y="0"
     stroke="none"
     fill="#00af00"
     transform="matrix(0.05 0 0 0.05 270.631 38.5088)"
     font-style="normal"
     font-weight="normal"
     font-size="280px"
     font-family="Arial"
     id="text43">
O</text>
  <path
     stroke="none"
     fill="#00af00"
     transform="matrix(0.05 0 0 0.05 -14 -7)"
     d="M 5731.73,1396.68 L 5726.47,1407.86 L 5714.21,1406.32 L 5541.39,1092.76 L 5546.64,1081.58 L 5558.91,1083.12 L 5731.73,1396.68 Z "
     id="path44" />
  <path
     stroke="none"
     fill="#00af00"
     transform="matrix(0.05 0 0 0.05 -14 -7)"
     d="M 6083.33,1329.29 L 6101.36,1346.2 L 5731.55,1417.07 L 5726.47,1407.86 L 5731.73,1396.68 L 6083.33,1329.29 Z "
     id="path45" />
  <path
     stroke="none"
     fill="#00af00"
     transform="matrix(0.05 0 0 0.05 -14 -7)"
     d="M 6128.09,973.958 L 6149.75,962.021 L 6101.36,1346.2 L 6083.33,1329.29 L 6128.09,973.958 Z "
     id="path46" />
  <path
     stroke="none"
     fill="#00af00"
     transform="matrix(0.05 0 0 0.05 -14 -7)"
     d="M 5924.13,878.39 L 5932.61,860.279 L 6149.75,962.021 L 6128.09,973.958 L 5924.13,878.39 Z "
     id="path47" />
  <path
     stroke="none"
     fill="#00af00"
     transform="matrix(0.05 0 0 0.05 -14 -7)"
     d="M 5558.91,1083.12 L 5546.64,1081.58 L 5541.57,1072.37 L 5695.24,908.558 L 5709.83,922.241 L 5558.91,1083.12 Z "
     id="path48" />
  <text
     x="0"
     y="0"
     stroke="none"
     fill="#00af00"
     transform="matrix(0.05 0 0 0.05 254.135 81.9918)"
     font-style="normal"
     font-weight="normal"
     font-size="280px"
     font-family="Arial"
     id="text48">
O</text>
  <path
     stroke="none"
     fill="#00af00"
     transform="matrix(0.05 0 0 0.05 -14 -7)"
     d="M 5189.78,1159.9 L 5171.76,1142.98 L 5541.57,1072.37 L 5546.64,1081.58 L 5541.39,1092.76 L 5189.78,1159.9 Z "
     id="path49" />
  <path
     stroke="none"
     fill="#00af00"
     transform="matrix(0.05 0 0 0.05 -14 -7)"
     d="M 5145.03,1514.98 L 5123.37,1526.9 L 5171.76,1142.98 L 5189.78,1159.9 L 5145.03,1514.98 Z "
     id="path50" />
  <path
     stroke="none"
     fill="#00af00"
     transform="matrix(0.05 0 0 0.05 -14 -7)"
     d="M 5349.63,1611.16 L 5341.12,1629.26 L 5123.37,1526.9 L 5145.03,1514.98 L 5349.63,1611.16 Z "
     id="path51" />
  <path
     stroke="none"
     fill="#00af00"
     transform="matrix(0.05 0 0 0.05 -14 -7)"
     d="M 5714.21,1406.32 L 5726.47,1407.86 L 5731.55,1417.07 L 5575.56,1583.35 L 5560.98,1569.67 L 5714.21,1406.32 Z "
     id="path52" />
  <text
     x="0"
     y="0"
     stroke="none"
     fill="#00af00"
     transform="matrix(0.05 0 0 0.05 249.298 35.7531)"
     font-style="normal"
     font-weight="normal"
     font-size="280px"
     font-family="Arial"
     id="text52">
H</text>
  <path
     stroke="#00af00"
     stroke-width="20"
     fill="none"
     transform="matrix(0.05 0 0 0.05 -14 -7)"
     d="M 5546.64,1081.58 C 5565.99,1070.95 5574.46,1049.14 5565.54,1032.91 C 5556.62,1016.68 5533.68,1012.13 5514.33,1022.77 C 5494.98,1033.4 5472.03,1028.86 5463.11,1012.62 C 5454.19,996.392 5462.66,974.587 5482.01,963.954 C 5501.36,953.322 5509.83,931.516 5500.91,915.285 C 5491.99,899.053 5469.04,894.508 5449.69,905.141 "
     id="path53" />
  <text
     x="0"
     y="0"
     stroke="none"
     fill="#00af00"
     transform="matrix(0.05 0 0 0.05 276.247 84.7216)"
     font-style="normal"
     font-weight="normal"
     font-size="280px"
     font-family="Arial"
     id="text53">
H</text>
  <path
     stroke="#00af00"
     stroke-width="20"
     fill="none"
     transform="matrix(0.05 0 0 0.05 -14 -7)"
     d="M 5726.47,1407.86 C 5707.13,1418.51 5698.66,1440.29 5707.57,1456.48 C 5716.48,1472.67 5739.42,1477.17 5758.76,1466.52 C 5778.1,1455.88 5801.03,1460.38 5809.94,1476.57 C 5818.85,1492.76 5810.38,1514.54 5791.04,1525.18 C 5771.7,1535.83 5763.23,1557.61 5772.14,1573.8 C 5781.05,1589.99 5803.98,1594.49 5823.33,1583.84 "
     id="path54" />
  <text
     x="0"
     y="0"
     stroke="none"
     fill="#0000ff"
     transform="matrix(0.05 0 0 0.05 223.655 45.9479)"
     font-style="normal"
     font-weight="normal"
     font-size="280px"
     font-family="Arial"
     id="text54">
O</text>
  <path
     stroke="#0000ff"
     stroke-width="20"
     fill="none"
     transform="matrix(0.05 0 0 0.05 -14 -7)"
     d="M 5180.77,1151.44 C 5192.19,1132.55 5188.4,1109.31 5172.31,1099.58 C 5156.21,1089.85 5133.87,1097.28 5122.45,1116.17 C 5111.02,1135.07 5088.68,1142.5 5072.59,1132.77 C 5056.49,1123.03 5052.7,1099.8 5064.12,1080.91 C 5075.55,1062.01 5071.76,1038.78 5055.66,1029.04 C 5039.56,1019.31 5017.22,1026.74 5005.8,1045.64 "
     id="path55" />
  <text
     x="0"
     y="0"
     stroke="none"
     fill="#0000ff"
     transform="matrix(0.05 0 0 0.05 301.112 74.5527)"
     font-style="normal"
     font-weight="normal"
     font-size="280px"
     font-family="Arial"
     id="text55">
O</text>
  <path
     stroke="#0000ff"
     stroke-width="20"
     fill="none"
     transform="matrix(0.05 0 0 0.05 -14 -7)"
     d="M 6092.35,1337.74 C 6080.91,1356.63 6084.71,1379.88 6100.83,1389.64 C 6116.95,1399.4 6139.32,1392 6150.75,1373.11 C 6162.19,1354.22 6184.56,1346.82 6200.68,1356.58 C 6216.79,1366.34 6220.6,1389.59 6209.16,1408.48 C 6197.72,1427.36 6201.53,1450.61 6217.65,1460.38 C 6233.76,1470.14 6256.13,1462.73 6267.57,1443.84 "
     id="path56" />
  <path
     stroke="none"
     fill="#0000ff"
     transform="matrix(0.05 0 0 0.05 -14 -7)"
     d="M 6737.79,1339.2 L 6737.55,1362.16 L 6538.45,1471.97 L 6528.79,1454.46 L 6737.79,1339.2 Z "
     id="path57" />
  <path
     stroke="none"
     fill="#0000ff"
     transform="matrix(0.05 0 0 0.05 -14 -7)"
     d="M 4535.33,1149.72 L 4535.56,1126.77 L 4733.89,1017.71 L 4743.53,1035.23 L 4535.33,1149.72 Z "
     id="path58" />
  <text
     x="0"
     y="0"
     stroke="none"
     fill="#0000ff"
     transform="matrix(0.05 0 0 0.05 333.961 74.8761)"
     font-style="normal"
     font-weight="normal"
     font-size="280px"
     font-family="Arial"
     id="text58">
N</text>
  <text
     x="0"
     y="0"
     stroke="none"
     fill="#0000ff"
     transform="matrix(0.05 0 0 0.05 333.961 86.5428)"
     font-style="normal"
     font-weight="normal"
     font-size="280px"
     font-family="Arial"
     id="text59">
H</text>
  <path
     stroke="none"
     fill="#0000ff"
     transform="matrix(0.05 0 0 0.05 -14 -7)"
     d="M 6926.63,1448.38 L 6916.62,1465.7 L 6737.55,1362.16 L 6737.79,1339.2 L 6926.63,1448.38 Z "
     id="path59" />
  <path
     stroke="none"
     fill="#000000"
     transform="matrix(0.05 0 0 0.05 -14 -7)"
     d="M 7382.99,1339.13 L 7382.99,1362.23 L 7202.88,1466.37 L 7192.87,1449.05 L 7382.99,1339.13 Z "
     id="path60" />
  <path
     stroke="none"
     fill="#000000"
     transform="matrix(0.05 0 0 0.05 -14 -7)"
     d="M 7705.65,1525.69 L 7705.65,1548.79 L 7382.99,1362.23 L 7382.99,1339.13 L 7705.65,1525.69 Z "
     id="path61" />
  <text
     x="0"
     y="0"
     stroke="none"
     fill="#000000"
     transform="matrix(0.05 0 0 0.05 381.971 65.5482)"
     font-style="normal"
     font-weight="normal"
     font-size="280px"
     font-family="Arial"
     id="text61">
O</text>
  <path
     stroke="none"
     fill="#000000"
     transform="matrix(0.05 0 0 0.05 -14 -7)"
     d="M 7901.27,1412.59 L 7911.28,1429.9 L 7705.65,1548.79 L 7705.65,1525.69 L 7901.27,1412.59 Z "
     id="path62" />
  <path
     stroke="none"
     fill="#000000"
     transform="matrix(0.05 0 0 0.05 -14 -7)"
     d="M 8350.98,1525.69 L 8350.98,1548.79 L 8146.31,1430.45 L 8156.32,1413.14 L 8350.98,1525.69 Z "
     id="path63" />
  <path
     stroke="none"
     fill="#000000"
     transform="matrix(0.05 0 0 0.05 -14 -7)"
     d="M 8673.64,1339.13 L 8673.64,1362.23 L 8350.98,1548.79 L 8350.98,1525.69 L 8673.64,1339.13 Z "
     id="path64" />
  <text
     x="0"
     y="0"
     stroke="none"
     fill="#0000ff"
     transform="matrix(0.05 0 0 0.05 191.584 33.9578)"
     font-style="normal"
     font-weight="normal"
     font-size="280px"
     font-family="Arial"
     id="text64">
H</text>
  <text
     x="0"
     y="0"
     stroke="none"
     fill="#0000ff"
     transform="matrix(0.05 0 0 0.05 191.584 45.6244)"
     font-style="normal"
     font-weight="normal"
     font-size="280px"
     font-family="Arial"
     id="text65">
N</text>
  <path
     stroke="none"
     fill="#0000ff"
     transform="matrix(0.05 0 0 0.05 -14 -7)"
     d="M 4343.22,1038.95 L 4353.21,1021.63 L 4535.56,1126.77 L 4535.33,1149.72 L 4343.22,1038.95 Z "
     id="path65" />
  <path
     stroke="none"
     fill="#0000ff"
     transform="matrix(0.05 0 0 0.05 -14 -7)"
     d="M 3890.12,1149.79 L 3890.12,1126.7 L 4069.7,1023.16 L 4079.69,1040.49 L 3890.12,1149.79 Z "
     id="path66" />
  <path
     stroke="none"
     fill="#000000"
     transform="matrix(0.05 0 0 0.05 -14 -7)"
     d="M 3567.46,963.749 L 3567.46,940.662 L 3890.12,1126.7 L 3890.12,1149.79 L 3567.46,963.749 Z "
     id="path67" />
  <text
     x="0"
     y="0"
     stroke="none"
     fill="#000000"
     transform="matrix(0.05 0 0 0.05 142.795 54.9265)"
     font-style="normal"
     font-weight="normal"
     font-size="280px"
     font-family="Arial"
     id="text67">
O</text>
  <path
     stroke="none"
     fill="#000000"
     transform="matrix(0.05 0 0 0.05 -14 -7)"
     d="M 3371.13,1076.95 L 3361.14,1059.62 L 3567.46,940.662 L 3567.46,963.749 L 3371.13,1076.95 Z "
     id="path68" />
  <path
     stroke="none"
     fill="#000000"
     transform="matrix(0.05 0 0 0.05 -14 -7)"
     d="M 2922.14,963.749 L 2922.14,940.662 L 3128.99,1059.93 L 3119,1077.25 L 2922.14,963.749 Z "
     id="path69" />
  <path
     stroke="none"
     fill="#000000"
     transform="matrix(0.05 0 0 0.05 -14 -7)"
     d="M 2599.48,1149.79 L 2599.48,1126.7 L 2922.14,940.662 L 2922.14,963.749 L 2599.48,1149.79 Z "
     id="path70" />
  <text
     x="0"
     y="0"
     stroke="none"
     fill="#0000ff"
     transform="matrix(0.05 0 0 0.05 317.62 46.9182)"
     font-style="normal"
     font-weight="normal"
     font-size="280px"
     font-family="Arial"
     id="text70">
O</text>
  <path
     stroke="none"
     fill="#0000ff"
     transform="matrix(0.05 0 0 0.05 -14 -7)"
     d="M 6704.87,1123.74 L 6724.87,1123.93 L 6722.53,1364.64 L 6702.53,1364.45 L 6704.87,1123.74 Z "
     id="path71" />
  <path
     stroke="none"
     fill="#0000ff"
     transform="matrix(0.05 0 0 0.05 -14 -7)"
     d="M 6754.87,1124.22 L 6774.87,1124.42 L 6772.53,1365.15 L 6752.53,1364.96 L 6754.87,1124.22 Z "
     id="path72" />
  <text
     x="0"
     y="0"
     stroke="none"
     fill="#0000ff"
     transform="matrix(0.05 0 0 0.05 207.146 73.5565)"
     font-style="normal"
     font-weight="normal"
     font-size="280px"
     font-family="Arial"
     id="text72">
O</text>
  <path
     stroke="none"
     fill="#0000ff"
     transform="matrix(0.05 0 0 0.05 -14 -7)"
     d="M 4568.2,1369.21 L 4548.2,1369.01 L 4550.58,1124.33 L 4570.58,1124.52 L 4568.2,1369.21 Z "
     id="path73" />
  <path
     stroke="none"
     fill="#0000ff"
     transform="matrix(0.05 0 0 0.05 -14 -7)"
     d="M 4518.21,1368.72 L 4498.21,1368.53 L 4500.59,1123.81 L 4520.58,1124.01 L 4518.21,1368.72 Z "
     id="path74" />
  <text
     x="0"
     y="0"
     stroke="none"
     fill="#000000"
     transform="matrix(0.05 0 0 0.05 126.662 26.9815)"
     font-style="normal"
     font-weight="normal"
     font-size="280px"
     font-family="Arial"
     id="text74">
O</text>
  <path
     stroke="none"
     fill="#000000"
     transform="matrix(0.05 0 0 0.05 -14 -7)"
     d="M 2887.14,725.354 L 2907.14,725.354 L 2907.14,966.62 L 2887.14,966.62 L 2887.14,725.354 Z "
     id="path75" />
  <path
     stroke="none"
     fill="#000000"
     transform="matrix(0.05 0 0 0.05 -14 -7)"
     d="M 2937.14,725.354 L 2957.14,725.354 L 2957.14,966.62 L 2937.14,966.62 L 2937.14,725.354 Z "
     id="path76" />
  <text
     x="0"
     y="0"
     stroke="none"
     fill="#000000"
     transform="matrix(0.05 0 0 0.05 398.104 93.4932)"
     font-style="normal"
     font-weight="normal"
     font-size="280px"
     font-family="Arial"
     id="text76">
O</text>
  <path
     stroke="none"
     fill="#000000"
     transform="matrix(0.05 0 0 0.05 -14 -7)"
     d="M 8385.98,1767.59 L 8365.98,1767.59 L 8365.98,1522.78 L 8385.98,1522.78 L 8385.98,1767.59 Z "
     id="path77" />
  <path
     stroke="none"
     fill="#000000"
     transform="matrix(0.05 0 0 0.05 -14 -7)"
     d="M 8335.98,1767.59 L 8315.98,1767.59 L 8315.98,1522.78 L 8335.98,1522.78 L 8335.98,1767.59 Z "
     id="path78" />
  <path
     stroke="none"
     fill="#000000"
     transform="matrix(0.05 0 0 0.05 -14 -7)"
     d="M 2276.82,963.749 L 2276.82,940.662 L 2599.48,1126.7 L 2599.48,1149.79 L 2276.82,963.749 Z "
     id="path79" />
  <text
     x="0"
     y="0"
     stroke="none"
     fill="#ff0000"
     transform="matrix(0.05 0 0 0.05 79.0389 54.9265)"
     font-style="normal"
     font-weight="normal"
     font-size="280px"
     font-family="Arial"
     id="text79">
S</text>
  <path
     stroke="none"
     fill="#ff0000"
     transform="matrix(0.05 0 0 0.05 -14 -7)"
     d="M 2072.79,1081.39 L 2062.8,1064.06 L 2276.82,940.662 L 2276.82,963.749 L 2072.79,1081.39 Z "
     id="path80" />
  <path
     stroke="none"
     fill="#ff0000"
     transform="matrix(0.05 0 0 0.05 -14 -7)"
     d="M 1631.49,963.749 L 1631.49,940.662 L 1842.26,1062.19 L 1832.27,1079.51 L 1631.49,963.749 Z "
     id="path81" />
  <path
     stroke="none"
     fill="#000000"
     transform="matrix(0.05 0 0 0.05 -14 -7)"
     d="M 1308.83,1149.79 L 1308.83,1126.7 L 1631.49,940.662 L 1631.49,963.749 L 1308.83,1149.79 Z "
     id="path82" />
  <path
     stroke="none"
     fill="#000000"
     transform="matrix(0.05 0 0 0.05 -14 -7)"
     d="M 986.17,963.748 L 986.174,940.664 L 1308.83,1126.7 L 1308.83,1149.79 L 986.17,963.748 Z "
     id="path83" />
  <path
     stroke="none"
     fill="#000000"
     transform="matrix(0.05 0 0 0.05 -14 -7)"
     d="M 663.25,1149.79 L 663.254,1126.71 L 986.174,940.664 L 986.17,963.748 L 663.25,1149.79 Z "
     id="path84" />
  <path
     stroke="none"
     fill="#000000"
     transform="matrix(0.05 0 0 0.05 -14 -7)"
     d="M 8996.3,1525.69 L 8996.3,1548.79 L 8673.64,1362.23 L 8673.64,1339.13 L 8996.3,1525.69 Z "
     id="path85" />
  <text
     x="0"
     y="0"
     stroke="none"
     fill="#ff0000"
     transform="matrix(0.05 0 0 0.05 447.279 65.5482)"
     font-style="normal"
     font-weight="normal"
     font-size="280px"
     font-family="Arial"
     id="text85">
S</text>
  <path
     stroke="none"
     fill="#ff0000"
     transform="matrix(0.05 0 0 0.05 -14 -7)"
     d="M 9193.42,1411.72 L 9203.43,1429.03 L 8996.3,1548.79 L 8996.3,1525.69 L 9193.42,1411.72 Z "
     id="path86" />
  <path
     stroke="none"
     fill="#ff0000"
     transform="matrix(0.05 0 0 0.05 -14 -7)"
     d="M 9641.62,1525.69 L 9641.62,1548.79 L 9433.73,1428.59 L 9443.74,1411.27 L 9641.62,1525.69 Z "
     id="path87" />
  <path
     stroke="none"
     fill="#000000"
     transform="matrix(0.05 0 0 0.05 -14 -7)"
     d="M 9964.54,1339.13 L 9964.54,1362.23 L 9641.62,1548.79 L 9641.62,1525.69 L 9964.54,1339.13 Z "
     id="path88" />
  <path
     stroke="none"
     fill="#000000"
     transform="matrix(0.05 0 0 0.05 -14 -7)"
     d="M 10287.2,1525.69 L 10287.2,1548.79 L 9964.54,1362.23 L 9964.54,1339.13 L 10287.2,1525.69 Z "
     id="path89" />
  <path
     stroke="none"
     fill="#000000"
     transform="matrix(0.05 0 0 0.05 -14 -7)"
     d="M 10609.9,1339.13 L 10609.9,1362.23 L 10287.2,1548.79 L 10287.2,1525.69 L 10609.9,1339.13 Z "
     id="path90" />
  <path
     stroke="none"
     fill="#000000"
     transform="matrix(0.05 0 0 0.05 -14 -7)"
     d="M 10937.5,1528.58 L 10927.5,1545.9 L 10609.9,1362.23 L 10609.9,1339.13 L 10937.5,1528.58 Z "
     id="path91" />
  <path
     stroke="none"
     fill="#000000"
     transform="matrix(0.05 0 0 0.05 -14 -7)"
     d="M 335.596,960.869 L 345.586,943.543 L 663.254,1126.71 L 663.25,1149.79 L 335.596,960.869 Z "
     id="path92" />
  <path
     stroke="#000000"
     stroke-width="20"
     fill="none"
     transform="matrix(0.05 0 0 0.05 -14 -7)"
     d="M 10704.8,1636.84 A 824.636,824.636 0 0 0 10719.2,812.328"
     id="path93" />
  <text
     x="0"
     y="0"
     stroke="none"
     fill="#000000"
     transform="matrix(0.05 0 0 0.05 685.896 299.22)"
     font-style="normal"
     font-weight="normal"
     font-size="240px"
     font-family="Helvetica"
     id="text93">
n</text>
  <path
     stroke="#000000"
     stroke-width="20"
     fill="none"
     transform="matrix(0.05 0 0 0.05 -14 -7)"
     d="M 607.285,799.802 A 824.636,824.636 0 0 0 607.285,1624.44"
     id="path94" />
  <text
     x="0"
     y="0"
     stroke="none"
     fill="#ff0000"
     transform="matrix(0.05 0 0 0.05 37.094 81.5057)"
     font-style="normal"
     font-weight="normal"
     font-size="280px"
     font-family="Arial"
     id="text94">
dynamic </text>
  <text
     x="0"
     y="0"
     stroke="none"
     fill="#ff0000"
     transform="matrix(0.05 0 0 0.05 93.1145 81.5057)"
     font-style="normal"
     font-weight="normal"
     font-size="280px"
     font-family="Arial"
     id="text95">
bonds</text>
  <text
     x="0"
     y="0"
     stroke="none"
     fill="#0000ff"
     transform="matrix(0.05 0 0 0.05 140.963 91.0858)"
     font-style="normal"
     font-weight="normal"
     font-size="280px"
     font-family="Arial"
     id="text96">
hydrogen </text>
  <text
     x="0"
     y="0"
     stroke="none"
     fill="#0000ff"
     transform="matrix(0.05 0 0 0.05 203.232 91.0858)"
     font-style="normal"
     font-weight="normal"
     font-size="280px"
     font-family="Arial"
     id="text97">
bonds</text>
  <text
     x="0"
     y="0"
     stroke="none"
     fill="#00af00"
     transform="matrix(0.05 0 0 0.05 225.335 12.937)"
     font-style="normal"
     font-weight="normal"
     font-size="280px"
     font-family="Arial"
     id="text98">
stereochemical </text>
  <text
     x="0"
     y="0"
     stroke="none"
     fill="#00af00"
     transform="matrix(0.05 0 0 0.05 323.376 12.937)"
     font-style="normal"
     font-weight="normal"
     font-size="280px"
     font-family="Arial"
     id="text99">
ring</text>
  <text
     x="0"
     y="0"
     stroke="none"
     fill="#000000"
     transform="matrix(0.05 0 0 0.05 289.461 417.284)"
     font-style="normal"
     font-weight="normal"
     font-size="320px"
     font-family="Helvetica"
     id="text100">
mechanical </text>
  <text
     x="0"
     y="0"
     stroke="none"
     fill="#000000"
     transform="matrix(0.05 0 0 0.05 374.836 417.284)"
     font-style="normal"
     font-weight="normal"
     font-size="320px"
     font-family="Helvetica"
     id="text101">
response</text>
  <text
     x="0"
     y="0"
     stroke="none"
     fill="#000000"
     transform="matrix(0.05 0 0 0.05 523.967 78.7096)"
     font-style="normal"
     font-weight="normal"
     font-size="240px"
     font-family="Arial"
     id="text102">
n</text>
  <rect
     style="fill:#0000ff;stroke-width:0.372645"
     id="rect102"
     width="1.7143389"
     height="7.248281"
     x="363.79697"
     y="148.76648" />
  <rect
     style="fill:#0000ff;stroke-width:0.372645"
     id="rect102-8"
     width="1.7143389"
     height="7.248281"
     x="363.78967"
     y="158.17165" />
  <rect
     style="fill:#0000ff;stroke-width:0.372645"
     id="rect102-2"
     width="1.7143389"
     height="7.248281"
     x="363.84195"
     y="167.83533" />
  <rect
     style="fill:#0000ff;stroke-width:0.372645"
     id="rect102-8-7"
     width="1.7143389"
     height="7.248281"
     x="363.83466"
     y="177.24049" />
  <rect
     style="fill:#0000ff;stroke-width:0.372645"
     id="rect102-8-7-0"
     width="1.7143389"
     height="7.248281"
     x="363.89496"
     y="187.11447" />
</svg>
