<?xml version="1.0" encoding="UTF-8" standalone="no"?>
<svg
   width="540"
   height="423"
   viewBox="0 0 540 423"
   version="1.1"
   id="svg102"
   sodipodi:docname="TOC.svg"
   inkscape:version="1.4 (e7c3feb1, 2024-10-09)"
   xmlns:inkscape="http://www.inkscape.org/namespaces/inkscape"
   xmlns:sodipodi="http://sodipodi.sourceforge.net/DTD/sodipodi-0.dtd"
   xmlns="http://www.w3.org/2000/svg"
   xmlns:svg="http://www.w3.org/2000/svg">
  <defs
     id="defs102" />
  <sodipodi:namedview
     id="namedview102"
     pagecolor="#ffffff"
     bordercolor="#cccccc"
     borderopacity="1"
     inkscape:showpageshadow="0"
     inkscape:pageopacity="1"
     inkscape:pagecheckerboard="0"
     inkscape:deskcolor="#d1d1d1"
     inkscape:zoom="1.448111"
     inkscape:cx="271.73331"
     inkscape:cy="247.90917"
     inkscape:window-width="1672"
     inkscape:window-height="1051"
     inkscape:window-x="117"
     inkscape:window-y="196"
     inkscape:window-maximized="0"
     inkscape:current-layer="svg102" />
  <path
     stroke="#000000"
     stroke-width="3.85"
     fill="none"
     d="m 165.0225,147.922 c 0.7805,-0.781 0.807,-2.0215 0.059,-2.77 -0.7485,-0.748 -1.9895,-0.7215 -2.77,0.059 -0.7805,0.7805 -2.0215,0.807 -2.7695,0.059 -0.748,-0.7485 -0.722,-1.989 0.059,-2.77 0.7805,-0.7805 0.807,-2.0215 0.0585,-2.7695 -0.748,-0.748 -1.989,-0.722 -2.7695,0.059 -0.7805,0.7805 -2.0215,0.807 -2.7695,0.0585 -0.7485,-0.748 -0.722,-1.989 0.0585,-2.7695 0.7805,-0.7805 0.807,-2.0215 0.059,-2.7695 -0.748,-0.7485 -1.989,-0.722 -2.7695,0.0585 -0.781,0.781 -2.0215,0.807 -2.77,0.059 -0.748,-0.748 -0.7215,-1.989 0.059,-2.7695 0.7805,-0.781 0.807,-2.0215 0.059,-2.77 -0.7485,-0.748 -1.989,-0.7215 -2.77,0.059 -0.7805,0.7805 -2.0215,0.807 -2.7695,0.059 -0.748,-0.7485 -0.722,-1.989 0.059,-2.77 0.7805,-0.7805 0.807,-2.0215 0.0585,-2.7695 -0.748,-0.748 -1.989,-0.722 -2.7695,0.059 -0.7805,0.7805 -2.0215,0.807 -2.7695,0.0585 -0.7485,-0.748 -0.722,-1.989 0.0585,-2.7695 0.781,-0.7805 0.807,-2.0215 0.059,-2.7695 -0.748,-0.7485 -1.989,-0.722 -2.7695,0.0585 -0.781,0.781 -2.0215,0.807 -2.77,0.059 -0.748,-0.748 -0.7215,-1.989 0.059,-2.7695"
     id="path1" />
  <path
     stroke="#ff0000"
     stroke-width="3.85"
     fill="none"
     d="m 174.96515,158.29731 c 0.7945,-0.7665 0.8825,-1.966 0.197,-2.6765 -0.686,-0.711 -1.8875,-0.6655 -2.682,0.101 -0.7945,0.7665 -1.996,0.8115 -2.6815,0.101 -0.686,-0.711 -0.598,-1.91 0.1965,-2.6765 0.7945,-0.7665 0.8825,-1.966 0.197,-2.6765 -0.686,-0.711 -1.8875,-0.6655 -2.682,0.101 -0.7945,0.7665 -1.996,0.8115 -2.6815,0.101 -0.686,-0.711 -0.5975,-1.91 0.1965,-2.6765 0.7945,-0.7665 0.883,-1.966 0.197,-2.6765"
     id="path2" />
  <path
     stroke="#000000"
     stroke-width="3.85"
     fill="none"
     d="m 203.2725,186.502 c -0.7805,0.7805 -0.8145,2.014 -0.0755,2.753 0.739,0.739 1.9725,0.705 2.753,-0.0755 0.781,-0.7805 2.0145,-0.8145 2.7535,-0.0755 0.739,0.739 0.705,1.9725 -0.0755,2.7535 -0.7805,0.7805 -0.8145,2.014 -0.0755,2.753 0.739,0.739 1.9725,0.705 2.753,-0.0755 0.781,-0.7805 2.014,-0.8145 2.753,-0.0755 0.7395,0.739 0.7055,1.9725 -0.075,2.7535 -0.7805,0.7805 -0.8145,2.014 -0.0755,2.753 0.739,0.739 1.9725,0.705 2.753,-0.0755 0.7805,-0.7805 2.014,-0.8145 2.753,-0.0755 0.739,0.739 0.7055,1.9725 -0.075,2.753 -0.7805,0.781 -0.8145,2.0145 -0.0755,2.7535 0.739,0.739 1.9725,0.705 2.753,-0.0755 0.7805,-0.7805 2.014,-0.8145 2.753,-0.0755 0.739,0.739 0.7055,1.9725 -0.075,2.753 -0.781,0.781 -0.8145,2.0145 -0.0755,2.7535 0.739,0.739 1.9725,0.705 2.753,-0.0755"
     id="path3" />
  <path
     stroke="#ff0000"
     stroke-width="3.85"
     fill="none"
     d="m 193.34627,176.22384 c -0.7945,0.7665 -0.8825,1.9655 -0.197,2.676 0.686,0.711 1.8875,0.666 2.682,-0.1005 0.7945,-0.7665 1.996,-0.812 2.6815,-0.101 0.686,0.7105 0.598,1.91 -0.1965,2.6765 -0.7945,0.7665 -0.883,1.9655 -0.197,2.676 0.686,0.711 1.8875,0.666 2.682,-0.1005 0.794,-0.7665 1.9955,-0.812 2.6815,-0.101 0.686,0.7105 0.5975,1.9095 -0.197,2.676 -0.7945,0.767 -0.8825,1.966 -0.1965,2.6765"
     id="path4" />
  <path
     stroke="none"
     fill="#ff0000"
     d="m 136.7245,148.4535 22.868,22.8685 -0.7,0.7 -22.868,-22.8685 z"
     id="path5"
     style="stroke-width:0.05" />
  <path
     stroke="none"
     fill="#ff0000"
     d="m 130.2225,142.652 c 0,0 8.889,5.253 8.889,5.253 0,0 -1.9065,0.1385 -2.702,0.934 -0.795,0.7955 -0.9335,2.7015 -0.9335,2.7015 0,0 -5.2535,-8.8885 -5.2535,-8.8885 0,0 0,0 0,0"
     id="path6"
     style="stroke-width:0.05" />
  <path
     stroke="#ff0000"
     stroke-width="0.05"
     fill="none"
     d="m 130.2225,142.652 c 0,0 8.889,5.253 8.889,5.253 0,0 -1.9065,0.1385 -2.702,0.934 -0.795,0.7955 -0.9335,2.7015 -0.9335,2.7015 0,0 -5.2535,-8.8885 -5.2535,-8.8885 0,0 0,0 0,0"
     id="path7" />
  <path
     stroke="none"
     fill="#ff0000"
     d="m 202.2505,215.38 -22.868,-22.868 0.7,-0.7 22.868,22.868 z"
     id="path8"
     style="stroke-width:0.05" />
  <path
     stroke="none"
     fill="#ff0000"
     d="m 208.7525,221.182 c 0,0 -8.889,-5.2535 -8.889,-5.2535 0,0 1.9065,-0.1385 2.702,-0.934 0.795,-0.795 0.9335,-2.7015 0.9335,-2.7015 0,0 5.2535,8.889 5.2535,8.889 0,0 0,0 0,0"
     id="path9"
     style="stroke-width:0.05" />
  <path
     stroke="#ff0000"
     stroke-width="0.05"
     fill="none"
     d="m 208.7525,221.182 c 0,0 -8.889,-5.2535 -8.889,-5.2535 0,0 1.9065,-0.1385 2.702,-0.934 0.795,-0.795 0.9335,-2.7015 0.9335,-2.7015 0,0 5.2535,8.889 5.2535,8.889 0,0 0,0 0,0"
     id="path10" />
  <path
     stroke="#000000"
     stroke-width="1"
     fill="none"
     d="m 229.8525,221.412 c 0,0 0,-108.7 0,-108.7 0,0 -114.54,0 -114.54,0 0,0 0,108.7 0,108.7 0,0 114.54,0 114.54,0"
     id="path11" />
  <text
     x="96.613297"
     y="242.93201"
     stroke="none"
     fill="#000000"
     font-style="normal"
     font-weight="normal"
     font-size="16px"
     font-family="Helvetica"
     id="text11"
     style="stroke-width:0.05">single-chain scission</text>
  <text
     x="285.70834"
     y="242.37971"
     stroke="none"
     fill="#000000"
     font-style="normal"
     font-weight="normal"
     font-size="16px"
     font-family="Helvetica"
     id="text11-9"
     style="stroke-width:0.05">double-chain shearing</text>
  <text
     x="188.44099"
     y="242.93201"
     stroke="none"
     fill="#000000"
     font-style="normal"
     font-weight="normal"
     font-size="16px"
     font-family="Helvetica"
     id="text12"
     style="stroke-width:0.05" />
  <path
     stroke="#000000"
     stroke-width="3.85"
     fill="none"
     d="m 421.562,149.7015 c 0,-1.1035 -0.877,-2 -1.9575,-2 -1.08,0 -1.957,0.8965 -1.957,2 0,1.104 -0.8765,2 -1.957,2 -1.0805,0 -1.957,-0.896 -1.957,-2 0,-1.1035 -0.877,-2 -1.957,-2 -1.0805,0 -1.9575,0.8965 -1.9575,2 0,1.104 -0.8765,2 -1.957,2 -1.08,0 -1.957,-0.896 -1.957,-2 0,-1.1035 -0.877,-2 -1.957,-2 -1.0805,0 -1.957,0.8965 -1.957,2 0,1.104 -0.877,2 -1.957,2 -1.0805,0 -1.9575,-0.896 -1.9575,-2 0,-1.1035 -0.8765,-2 -1.957,-2 -1.08,0 -1.957,0.8965 -1.957,2 0,1.104 -0.877,2 -1.957,2 -1.0805,0 -1.957,-0.896 -1.957,-2 0,-1.1035 -0.877,-2 -1.957,-2 -1.0805,0 -1.9575,0.8965 -1.9575,2 0,1.104 -0.8765,2 -1.957,2 -1.08,0 -1.957,-0.896 -1.957,-2 0,-1.1035 -0.877,-2 -1.957,-2 -1.0805,0 -1.957,0.8965 -1.957,2 0,1.104 -0.877,2 -1.957,2 -1.0805,0 -1.9575,-0.896 -1.9575,-2 0,-1.1035 -0.8765,-2 -1.957,-2 -1.08,0 -1.957,0.8965 -1.957,2 0,1.104 -0.877,2 -1.957,2 -1.0805,0 -1.957,-0.896 -1.957,-2 0,-1.1035 -0.877,-2 -1.957,-2 -1.0805,0 -1.9575,0.8965 -1.9575,2 0,1.104 -0.8765,2 -1.957,2 -1.08,0 -1.957,-0.896 -1.957,-2 0,-1.1035 -0.877,-2 -1.957,-2 -1.0805,0 -1.957,0.8965 -1.957,2 0,1.104 -0.877,2 -1.9575,2 -1.08,0 -1.957,-0.896 -1.957,-2 0,-1.1035 -0.8765,-2 -1.957,-2 -1.08,0 -1.957,0.8965 -1.957,2 0,1.104 -0.877,2 -1.957,2 -1.0805,0 -1.957,-0.896 -1.957,-2 0,-1.1035 -0.877,-2 -1.9575,-2 -1.08,0 -1.957,0.8965 -1.957,2 0,1.104 -0.8765,2 -1.957,2 -1.08,0 -1.957,-0.896 -1.957,-2 0,-1.1035 -0.877,-2 -1.957,-2 -1.0805,0 -1.957,0.8965 -1.957,2"
     id="path12" />
  <path
     stroke="#0000ff"
     stroke-width="3.96402"
     fill="none"
     d="m 374.53008,149.66734 c 0,-1.08538 -0.86441,-1.96715 -1.92874,-1.96715 -1.06488,0 -1.92874,0.88177 -1.92874,1.96715 0,1.08587 -0.86386,1.96715 -1.92874,1.96715 -1.06433,0 -1.9282,-0.88128 -1.9282,-1.96715 0,-1.08538 -0.8644,-1.96715 -1.92873,-1.96715 -1.06435,0 -1.92875,0.88177 -1.92875,1.96715 0,1.08587 -0.86385,1.96715 -1.92873,1.96715 -1.06434,0 -1.9282,-0.88128 -1.9282,-1.96715 0,-1.08538 -0.86441,-1.96715 -1.92874,-1.96715"
     id="path13" />
  <path
     stroke="none"
     fill="#0000ff"
     d="m 390.502,139.4495 -32.33,-0.008 v -1 l 32.33,0.008 z"
     id="path14"
     style="stroke-width:0.05" />
  <path
     stroke="none"
     fill="#0000ff"
     d="m 399.202,138.9515 c 0,0 -10.051,2.548 -10.051,2.548 0,0 1.2785,-1.4345 1.301,-2.55 0.022,-1.1155 -1.1995,-2.55 -1.1995,-2.55 0,0 9.9495,2.552 9.9495,2.552 0,0 0,0 0,0"
     id="path15"
     style="stroke-width:0.05" />
  <path
     stroke="#0000ff"
     stroke-width="0.05"
     fill="none"
     d="m 399.202,138.9515 c 0,0 -10.051,2.548 -10.051,2.548 0,0 1.2785,-1.4345 1.301,-2.55 0.022,-1.1155 -1.1995,-2.55 -1.1995,-2.55 0,0 9.9495,2.552 9.9495,2.552 0,0 0,0 0,0"
     id="path16" />
  <path
     stroke="#000000"
     stroke-width="3.85"
     fill="none"
     d="m 389.652,194.3715 c 0,-1.1035 -0.874,-2 -1.9505,-2 -1.0765,0 -1.9505,0.8965 -1.9505,2 0,1.104 -0.8735,2 -1.95,2 -1.0765,0 -1.9505,-0.896 -1.9505,-2 0,-1.1035 -0.8735,-2 -1.95,-2 -1.0765,0 -1.9505,0.8965 -1.9505,2 0,1.104 -0.8735,2 -1.95,2 -1.0765,0 -1.9505,-0.896 -1.9505,-2 0,-1.1035 -0.8735,-2 -1.95,-2 -1.0765,0 -1.9505,0.8965 -1.9505,2 0,1.104 -0.8735,2 -1.95,2 -1.0765,0 -1.9505,-0.896 -1.9505,-2 0,-1.1035 -0.874,-2 -1.9505,-2 -1.0765,0 -1.95,0.8965 -1.95,2 0,1.104 -0.874,2 -1.9505,2 -1.0765,0 -1.95,-0.896 -1.95,-2 0,-1.1035 -0.874,-2 -1.9505,-2 -1.0765,0 -1.95,0.8965 -1.95,2 0,1.104 -0.874,2 -1.9505,2 -1.0765,0 -1.95,-0.896 -1.95,-2 0,-1.1035 -0.874,-2 -1.9505,-2 -1.0765,0 -1.95,0.8965 -1.95,2 0,1.104 -0.874,2 -1.9505,2 -1.0765,0 -1.9505,-0.896 -1.9505,-2 0,-1.1035 -0.8735,-2 -1.95,-2 -1.0765,0 -1.9505,0.8965 -1.9505,2 0,1.104 -0.8735,2 -1.95,2 -1.0765,0 -1.9505,-0.896 -1.9505,-2 0,-1.1035 -0.8735,-2 -1.95,-2 -1.0765,0 -1.9505,0.8965 -1.9505,2 0,1.104 -0.8735,2 -1.95,2 -1.0765,0 -1.9505,-0.896 -1.9505,-2 0,-1.1035 -0.874,-2 -1.9505,-2 -1.076,0 -1.95,0.8965 -1.95,2 0,1.104 -0.874,2 -1.9505,2 -1.0765,0 -1.95,-0.896 -1.95,-2 0,-1.1035 -0.874,-2 -1.9505,-2 -1.0765,0 -1.95,0.8965 -1.95,2 0,1.104 -0.874,2 -1.9505,2 -1.0765,0 -1.95,-0.896 -1.95,-2"
     id="path17" />
  <path
     stroke="#0000ff"
     stroke-width="3.98661"
     fill="none"
     d="m 374.07616,194.3715 c 0,-1.08155 -0.87737,-1.96023 -1.95768,-1.96023 -1.08085,0 -1.95767,0.87868 -1.95767,1.96023 0,1.08204 -0.87683,1.96023 -1.95768,1.96023 -1.0803,0 -1.95713,-0.87819 -1.95713,-1.96023 0,-1.08155 -0.87737,-1.96023 -1.95767,-1.96023 -1.08031,0 -1.95768,0.87868 -1.95768,1.96023 0,1.08204 -0.87682,1.96023 -1.95767,1.96023 -1.0803,0 -1.95713,-0.87819 -1.95713,-1.96023 0,-1.08155 -0.87737,-1.96023 -1.95767,-1.96023"
     id="path18" />
  <path
     stroke="none"
     fill="#0000ff"
     d="m 328.602,207.704 32.33,0.007 v 1 l -32.33,-0.007 z"
     id="path19"
     style="stroke-width:0.05" />
  <path
     stroke="none"
     fill="#0000ff"
     d="m 319.902,208.2015 c 0,0 10.0505,-2.5475 10.0505,-2.5475 0,0 -1.2785,1.434 -1.3005,2.55 -0.0225,1.1155 1.199,2.55 1.199,2.55 0,0 -9.949,-2.5525 -9.949,-2.5525 0,0 0,0 0,0"
     id="path20"
     style="stroke-width:0.05" />
  <path
     stroke="#0000ff"
     stroke-width="0.05"
     fill="none"
     d="m 319.902,208.2015 c 0,0 10.0505,-2.5475 10.0505,-2.5475 0,0 -1.2785,1.434 -1.3005,2.55 -0.0225,1.1155 1.199,2.55 1.199,2.55 0,0 -9.949,-2.5525 -9.949,-2.5525 0,0 0,0 0,0"
     id="path21" />
  <path
     stroke="#000000"
     stroke-width="1"
     fill="none"
     d="m 423.622,223.2515 c 0,0 0,-108.68 0,-108.68 0,0 -114.54,0 -114.54,0 0,0 0,108.68 0,108.68 0,0 114.54,0 114.54,0"
     id="path22" />
  <path
     stroke="#000000"
     stroke-width="1"
     fill="none"
     d="m 231.633,380.6575 c 0,0 0,-108.68 0,-108.68 0,0 -114.54,0 -114.54,0 0,0 0,108.68 0,108.68 0,0 114.54,0 114.54,0"
     id="path25" />
  <path
     stroke="#000000"
     stroke-width="2.7"
     fill="none"
     d="m 210.163,272.6275 c 0,0 -18.78,7.7 -34.04,44.9 -15.25,37.21 -6.43,39.48 -29.37,62.18"
     id="path26" />
  <path
     stroke="#000000"
     stroke-width="2.7"
     fill="none"
     d="m 184.103,271.9675 c 0,0 -13.82,12.76 -10.63,32.97 3.19,20.21 9.57,35.11 5.32,46.81 -4.26,11.7 -15.96,28.72 -15.96,28.72"
     id="path27" />
  <text
     x="82.542801"
     y="399.77802"
     stroke="none"
     fill="#000000"
     font-style="normal"
     font-weight="normal"
     font-size="16px"
     font-family="Helvetica"
     id="text29"
     style="stroke-width:0.05">hydrogen</text>
  <text
     x="148.83028"
     y="399.77802"
     stroke="none"
     fill="#000000"
     font-style="normal"
     font-weight="normal"
     font-size="16px"
     font-family="Helvetica"
     id="text30"
     style="stroke-width:0.05">-bond</text>
  <text
     x="193.746"
     y="399.77802"
     stroke="none"
     fill="#000000"
     font-style="normal"
     font-weight="normal"
     font-size="16px"
     font-family="Helvetica"
     id="text31"
     style="stroke-width:0.05">numbers</text>
  <path
     stroke="#000000"
     stroke-width="4"
     fill="none"
     d="m 419.2725,328.239 c 0,0 -15.48,-11.28 -35.03,-4.09 -19.57,7.19 -33.19,16.52 -45.71,14.6 -12.54,-1.94 -31.86,-10.26 -31.86,-10.26"
     id="path31" />
  <path
     stroke="#000000"
     stroke-width="4"
     fill="none"
     d="m 307.9025,313.659 c 0,0 17.32,39.72 32.59,39.72 15.28,0 60.09,-71.29 60.09,-81.48"
     id="path32" />
  <path
     stroke="#000000"
     stroke-width="4"
     fill="none"
     d="m 307.9025,355.419 c 0,0 76.39,-55 113.05,-49.91"
     id="path33" />
  <path
     stroke="#000000"
     stroke-width="4"
     fill="none"
     d="m 307.9025,298.379 c 0,0 79.44,48.89 113.05,48.89"
     id="path34" />
  <path
     stroke="#000000"
     stroke-width="4"
     fill="none"
     d="m 307.9025,286.159 c 0,0 48.89,80.46 83.52,72.32 34.63,-8.15 13.24,-21.39 30.55,-21.39"
     id="path35" />
  <path
     stroke="#000000"
     stroke-width="4"
     fill="none"
     d="m 307.9025,372.729 c 0,0 39.72,-21.38 46.85,-72.31 7.13,-50.92 92.69,-10.18 49.91,-6.11 -42.78,4.07 16.29,25.46 16.29,25.46"
     id="path36" />
  <path
     stroke="#000000"
     stroke-width="1"
     fill="none"
     d="m 421.9425,380.709 c 0,0 0,-108.68 0,-108.68 0,0 -114.54,0 -114.54,0 0,0 0,108.68 0,108.68 0,0 114.54,0 114.54,0"
     id="path37" />
  <text
     x="321.72101"
     y="398.88901"
     stroke="none"
     fill="#000000"
     font-style="normal"
     font-weight="normal"
     font-size="16px"
     font-family="Helvetica"
     id="text37"
     style="stroke-width:0.05">bulk</text>
  <text
     x="355.517"
     y="398.88901"
     stroke="none"
     fill="#000000"
     font-style="normal"
     font-weight="normal"
     font-size="16px"
     font-family="Helvetica"
     id="text38"
     style="stroke-width:0.05">material</text>
  <path
     stroke="none"
     fill="#b3e7b3"
     d="M 241.9725,80.3185 V 25.56095 l 0.072,-0.93395 0.21,-0.88865 0.3365,-0.8323 0.452,-0.7651 0.5565,-0.68695 0.6505,-0.59785 0.733,-0.49785 0.805,-0.3869 0.866,-0.265 0.9165,-0.13215 42.5815,-0.0133 0.9365,0.0724 0.8885,0.20985 0.8325,0.33635 0.765,0.452 0.687,0.55665 0.598,0.6504 0.498,0.7332 0.3865,0.80505 0.265,0.866 0.1325,0.91605 0.013,55.1286 -0.0725,0.965 -0.2095,0.8885 -0.3365,0.8325 -0.452,0.765 -0.5565,0.687 -0.6505,0.598 -0.733,0.4975 -0.8055,0.387 -0.866,0.265 -0.916,0.132 -42.582,0.0135 -0.936,-0.0725 -0.889,-0.2095 -0.832,-0.3365 -0.765,-0.452 -0.687,-0.5565 -0.598,-0.6505 -0.498,-0.7335 -0.3865,-0.805 -0.265,-0.866 -0.1325,-0.916 z"
     id="path38"
     style="stroke-width:0.05" />
  <path
     stroke="#00af00"
     stroke-width="1"
     fill="none"
     d="m 241.9725,80.3185 c 0,0 0,-54.75755 0,-54.75755 0,-3.3118 2.688,-6 6,-6 0,0 42.182,0 42.182,0 3.312,0 6,2.6882 6,6 0,0 0,54.75755 0,54.75755 0,3.312 -2.688,6 -6,6 0,0 -42.182,0 -42.182,0 -3.312,0 -6,-2.688 -6,-6"
     id="path39" />
  <path
     stroke="none"
     fill="#b3b3ff"
     d="M 180.6225,72.2715 V 25.30225 l 0.0725,-0.934 0.21,-0.8886 0.3365,-0.83235 0.452,-0.7651 0.5565,-0.68695 0.6505,-0.59785 0.733,-0.49785 0.805,-0.38685 0.866,-0.265 0.916,-0.1322 48.6355,-0.01325 0.9375,0.07235 0.889,0.20985 0.832,0.3364 0.765,0.45195 0.687,0.55665 0.598,0.6504 0.498,0.7332 0.3865,0.8051 0.265,0.866 0.1325,0.916 0.013,47.37135 -0.072,0.934 -0.21,0.8885 -0.3365,0.8325 -0.452,0.765 -0.5565,0.687 -0.6505,0.5975 -0.733,0.498 -0.805,0.387 -0.866,0.265 -0.916,0.132 -48.6395,0.0135 -0.934,-0.0725 -0.8885,-0.21 -0.8325,-0.336 -0.765,-0.452 -0.687,-0.557 -0.5975,-0.6505 -0.498,-0.733 -0.387,-0.805 -0.265,-0.866 -0.132,-0.916 z"
     id="path40"
     style="stroke-width:0.05" />
  <path
     stroke="#0000ff"
     stroke-width="1"
     fill="none"
     d="m 180.6225,72.2715 c 0,0 0,-46.96925 0,-46.96925 0,-3.31185 2.6885,-6 6,-6 0,0 48.237,0 48.237,0 3.312,0 6,2.68815 6,6 0,0 0,46.96925 0,46.96925 0,3.3115 -2.688,6 -6,6 0,0 -48.237,0 -48.237,0 -3.3115,0 -6,-2.6885 -6,-6"
     id="path41" />
  <path
     stroke="none"
     fill="#ffb3b3"
     d="M 67.316,60.4465 V 31.0206 l 0.0725,-0.93395 0.2095,-0.88865 0.3365,-0.8323 0.452,-0.7651 0.5565,-0.68695 0.6505,-0.59785 0.7335,-0.49785 0.805,-0.3869 0.866,-0.265 0.916,-0.13215 0.402,-0.0133 h 19.852 l 0.934,0.0724 0.8885,0.20985 0.8325,0.33635 0.765,0.452 0.687,0.55665 0.598,0.6504 0.498,0.7332 0.3865,0.80505 0.265,0.866 0.1325,0.91605 0.013,29.80945 -0.072,0.9525 -0.21,0.8885 -0.3365,0.8325 -0.452,0.765 -0.5565,0.687 -0.6505,0.598 -0.733,0.4975 -0.8055,0.387 -0.866,0.265 -0.916,0.132 -20.254,0.0135 -0.934,-0.0725 -0.8885,-0.2095 -0.8325,-0.3365 -0.765,-0.452 -0.687,-0.557 -0.598,-0.65 -0.4975,-0.7335 -0.387,-0.805 -0.265,-0.866 -0.132,-0.916 z"
     id="path42"
     style="stroke-width:0.05" />
  <path
     stroke="#ff0000"
     stroke-width="1"
     fill="none"
     d="m 67.316,60.4465 c 0,0 0,-29.4259 0,-29.4259 0,-3.3118 2.688,-6 6,-6 0,0 19.852,0 19.852,0 3.312,0 6,2.6882 6,6 0,0 0,29.4259 0,29.4259 0,3.312 -2.688,6 -6,6 0,0 -19.852,0 -19.852,0 -3.312,0 -6,-2.688 -6,-6"
     id="path43" />
  <text
     x="270.63101"
     y="38.508801"
     stroke="none"
     fill="#00af00"
     font-style="normal"
     font-weight="normal"
     font-size="14px"
     font-family="Arial"
     id="text43"
     style="stroke-width:0.05">O</text>
  <path
     stroke="none"
     fill="#00af00"
     d="m 272.5865,62.834 -0.263,0.559 -0.613,-0.077 -8.641,-15.678 0.2625,-0.559 0.6135,0.077 z"
     id="path44"
     style="stroke-width:0.05" />
  <path
     stroke="none"
     fill="#00af00"
     d="m 290.1665,59.4645 0.9015,0.8455 -18.4905,3.5435 -0.254,-0.4605 0.263,-0.559 z"
     id="path45"
     style="stroke-width:0.05" />
  <path
     stroke="none"
     fill="#00af00"
     d="m 292.4045,41.6979 1.083,-0.59685 -2.4195,19.20895 -0.9015,-0.8455 z"
     id="path46"
     style="stroke-width:0.05" />
  <path
     stroke="none"
     fill="#00af00"
     d="m 282.2065,36.9195 0.424,-0.90555 10.857,5.0871 -1.083,0.59685 z"
     id="path47"
     style="stroke-width:0.05" />
  <path
     stroke="none"
     fill="#00af00"
     d="m 263.9455,47.156 -0.6135,-0.077 -0.2535,-0.4605 7.6835,-8.1906 0.7295,0.68415 z"
     id="path48"
     style="stroke-width:0.05" />
  <text
     x="254.13499"
     y="81.991798"
     stroke="none"
     fill="#00af00"
     font-style="normal"
     font-weight="normal"
     font-size="14px"
     font-family="Arial"
     id="text48"
     style="stroke-width:0.05">O</text>
  <path
     stroke="none"
     fill="#00af00"
     d="m 245.489,50.995 -0.901,-0.846 18.4905,-3.5305 0.2535,0.4605 -0.2625,0.559 z"
     id="path49"
     style="stroke-width:0.05" />
  <path
     stroke="none"
     fill="#00af00"
     d="m 243.2515,68.749 -1.083,0.596 2.4195,-19.196 0.901,0.846 z"
     id="path50"
     style="stroke-width:0.05" />
  <path
     stroke="none"
     fill="#00af00"
     d="m 253.4815,73.558 -0.4255,0.905 -10.8875,-5.118 1.083,-0.596 z"
     id="path51"
     style="stroke-width:0.05" />
  <path
     stroke="none"
     fill="#00af00"
     d="m 271.7105,63.316 0.613,0.077 0.254,0.4605 -7.7995,8.314 -0.729,-0.684 z"
     id="path52"
     style="stroke-width:0.05" />
  <text
     x="249.298"
     y="35.753101"
     stroke="none"
     fill="#00af00"
     font-style="normal"
     font-weight="normal"
     font-size="14px"
     font-family="Arial"
     id="text52"
     style="stroke-width:0.05">H</text>
  <path
     stroke="#00af00"
     stroke-width="1"
     fill="none"
     d="m 263.332,47.079 c 0.9675,-0.5315 1.391,-1.622 0.945,-2.4335 -0.446,-0.8115 -1.593,-1.039 -2.5605,-0.507 -0.9675,0.5315 -2.115,0.3045 -2.561,-0.5075 -0.446,-0.8114 -0.0225,-1.90165 0.945,-2.4333 0.9675,-0.5316 1.391,-1.6219 0.945,-2.43345 -0.446,-0.8116 -1.5935,-1.03885 -2.561,-0.5072"
     id="path53" />
  <text
     x="276.24701"
     y="84.721603"
     stroke="none"
     fill="#00af00"
     font-style="normal"
     font-weight="normal"
     font-size="14px"
     font-family="Arial"
     id="text53"
     style="stroke-width:0.05">H</text>
  <path
     stroke="#00af00"
     stroke-width="1"
     fill="none"
     d="m 272.3235,63.393 c -0.967,0.5325 -1.3905,1.6215 -0.945,2.431 0.4455,0.8095 1.5925,1.0345 2.5595,0.502 0.967,-0.532 2.1135,-0.307 2.559,0.5025 0.4455,0.8095 0.022,1.8985 -0.945,2.4305 -0.967,0.5325 -1.3905,1.6215 -0.945,2.431 0.4455,0.8095 1.592,1.0345 2.5595,0.502"
     id="path54" />
  <text
     x="223.655"
     y="45.947899"
     stroke="none"
     fill="#0000ff"
     font-style="normal"
     font-weight="normal"
     font-size="14px"
     font-family="Arial"
     id="text54"
     style="stroke-width:0.05">O</text>
  <path
     stroke="#0000ff"
     stroke-width="1"
     fill="none"
     d="m 245.0385,50.572 c 0.571,-0.9445 0.3815,-2.1065 -0.423,-2.593 -0.805,-0.4865 -1.922,-0.115 -2.493,0.8295 -0.5715,0.945 -1.6885,1.3165 -2.493,0.83 -0.805,-0.487 -0.9945,-1.6485 -0.4235,-2.593 0.5715,-0.945 0.382,-2.1065 -0.423,-2.5935 -0.805,-0.4865 -1.922,-0.115 -2.493,0.83"
     id="path55" />
  <text
     x="301.112"
     y="74.552696"
     stroke="none"
     fill="#0000ff"
     font-style="normal"
     font-weight="normal"
     font-size="14px"
     font-family="Arial"
     id="text55"
     style="stroke-width:0.05">O</text>
  <path
     stroke="#0000ff"
     stroke-width="1"
     fill="none"
     d="m 290.6175,59.887 c -0.572,0.9445 -0.382,2.107 0.424,2.595 0.806,0.488 1.9245,0.118 2.496,-0.8265 0.572,-0.9445 1.6905,-1.3145 2.4965,-0.8265 0.8055,0.488 0.996,1.6505 0.424,2.595 -0.572,0.944 -0.3815,2.1065 0.4245,2.595 0.8055,0.488 1.924,0.1175 2.496,-0.827"
     id="path56" />
  <path
     stroke="none"
     fill="#0000ff"
     d="m 322.8895,59.96 -0.012,1.148 -9.955,5.4905 -0.483,-0.8755 z"
     id="path57"
     style="stroke-width:0.05" />
  <path
     stroke="none"
     fill="#0000ff"
     d="m 212.7665,50.486 0.0115,-1.1475 9.9165,-5.453 0.482,0.876 z"
     id="path58"
     style="stroke-width:0.05" />
  <text
     x="333.961"
     y="74.876099"
     stroke="none"
     fill="#0000ff"
     font-style="normal"
     font-weight="normal"
     font-size="14px"
     font-family="Arial"
     id="text58"
     style="stroke-width:0.05">N</text>
  <text
     x="333.961"
     y="86.542801"
     stroke="none"
     fill="#0000ff"
     font-style="normal"
     font-weight="normal"
     font-size="14px"
     font-family="Arial"
     id="text59"
     style="stroke-width:0.05">H</text>
  <path
     stroke="none"
     fill="#0000ff"
     d="m 332.3315,65.419 -0.5005,0.866 -8.9535,-5.177 0.012,-1.148 z"
     id="path59"
     style="stroke-width:0.05" />
  <path
     stroke="none"
     fill="#000000"
     d="m 355.1495,59.9565 v 1.155 l -9.0055,5.207 -0.5005,-0.866 z"
     id="path60"
     style="stroke-width:0.05" />
  <path
     stroke="none"
     fill="#000000"
     d="m 371.2825,69.2845 v 1.155 l -16.133,-9.328 v -1.155 z"
     id="path61"
     style="stroke-width:0.05" />
  <text
     x="381.97101"
     y="65.548203"
     stroke="none"
     fill="#000000"
     font-style="normal"
     font-weight="normal"
     font-size="14px"
     font-family="Arial"
     id="text61"
     style="stroke-width:0.05">O</text>
  <path
     stroke="none"
     fill="#000000"
     d="m 381.0635,63.6295 0.5005,0.8655 -10.2815,5.9445 v -1.155 z"
     id="path62"
     style="stroke-width:0.05" />
  <path
     stroke="none"
     fill="#000000"
     d="m 403.549,69.2845 v 1.155 l -10.2335,-5.917 0.5005,-0.8655 z"
     id="path63"
     style="stroke-width:0.05" />
  <path
     stroke="none"
     fill="#000000"
     d="m 419.682,59.9565 v 1.155 l -16.133,9.328 v -1.155 z"
     id="path64"
     style="stroke-width:0.05" />
  <text
     x="191.584"
     y="33.957802"
     stroke="none"
     fill="#0000ff"
     font-style="normal"
     font-weight="normal"
     font-size="14px"
     font-family="Arial"
     id="text64"
     style="stroke-width:0.05">H</text>
  <text
     x="191.584"
     y="45.624401"
     stroke="none"
     fill="#0000ff"
     font-style="normal"
     font-weight="normal"
     font-size="14px"
     font-family="Arial"
     id="text65"
     style="stroke-width:0.05">N</text>
  <path
     stroke="none"
     fill="#0000ff"
     d="m 203.161,44.9475 0.4995,-0.866 9.1175,5.257 -0.0115,1.1475 z"
     id="path65"
     style="stroke-width:0.05" />
  <path
     stroke="none"
     fill="#0000ff"
     d="M 180.506,50.4895 V 49.335 l 8.979,-5.177 0.4995,0.8665 z"
     id="path66"
     style="stroke-width:0.05" />
  <path
     stroke="none"
     fill="#000000"
     d="M 164.373,41.18745 V 40.0331 l 16.133,9.3019 v 1.1545 z"
     id="path67"
     style="stroke-width:0.05" />
  <text
     x="142.795"
     y="54.926498"
     stroke="none"
     fill="#000000"
     font-style="normal"
     font-weight="normal"
     font-size="14px"
     font-family="Arial"
     id="text67"
     style="stroke-width:0.05">O</text>
  <path
     stroke="none"
     fill="#000000"
     d="m 154.5565,46.8475 -0.4995,-0.8665 10.316,-5.9479 v 1.15435 z"
     id="path68"
     style="stroke-width:0.05" />
  <path
     stroke="none"
     fill="#000000"
     d="M 132.107,41.18745 V 40.0331 l 10.3425,5.9634 -0.4995,0.866 z"
     id="path69"
     style="stroke-width:0.05" />
  <path
     stroke="none"
     fill="#000000"
     d="M 115.974,50.4895 V 49.335 l 16.133,-9.3019 v 1.15435 z"
     id="path70"
     style="stroke-width:0.05" />
  <text
     x="317.62"
     y="46.918201"
     stroke="none"
     fill="#0000ff"
     font-style="normal"
     font-weight="normal"
     font-size="14px"
     font-family="Arial"
     id="text70"
     style="stroke-width:0.05">O</text>
  <path
     stroke="none"
     fill="#0000ff"
     d="m 321.2435,49.187 1,0.0095 -0.117,12.0355 -1,-0.0095 z"
     id="path71"
     style="stroke-width:0.05" />
  <path
     stroke="none"
     fill="#0000ff"
     d="m 323.7435,49.211 1,0.01 -0.117,12.0365 -1,-0.0095 z"
     id="path72"
     style="stroke-width:0.05" />
  <text
     x="207.146"
     y="73.556503"
     stroke="none"
     fill="#0000ff"
     font-style="normal"
     font-weight="normal"
     font-size="14px"
     font-family="Arial"
     id="text72"
     style="stroke-width:0.05">O</text>
  <path
     stroke="none"
     fill="#0000ff"
     d="m 214.41,61.4605 -1,-0.01 0.119,-12.234 1,0.0095 z"
     id="path73"
     style="stroke-width:0.05" />
  <path
     stroke="none"
     fill="#0000ff"
     d="m 211.9105,61.436 -1,-0.0095 0.119,-12.236 0.9995,0.01 z"
     id="path74"
     style="stroke-width:0.05" />
  <text
     x="126.662"
     y="26.981501"
     stroke="none"
     fill="#000000"
     font-style="normal"
     font-weight="normal"
     font-size="14px"
     font-family="Arial"
     id="text74"
     style="stroke-width:0.05">O</text>
  <path
     stroke="none"
     fill="#000000"
     d="m 130.357,29.2677 h 1 V 41.331 h -1 z"
     id="path75"
     style="stroke-width:0.05" />
  <path
     stroke="none"
     fill="#000000"
     d="m 132.857,29.2677 h 1 V 41.331 h -1 z"
     id="path76"
     style="stroke-width:0.05" />
  <text
     x="398.104"
     y="93.493202"
     stroke="none"
     fill="#000000"
     font-style="normal"
     font-weight="normal"
     font-size="14px"
     font-family="Arial"
     id="text76"
     style="stroke-width:0.05">O</text>
  <path
     stroke="none"
     fill="#000000"
     d="m 405.299,81.3795 h -1 V 69.139 h 1 z"
     id="path77"
     style="stroke-width:0.05" />
  <path
     stroke="none"
     fill="#000000"
     d="m 402.799,81.3795 h -1 V 69.139 h 1 z"
     id="path78"
     style="stroke-width:0.05" />
  <path
     stroke="none"
     fill="#000000"
     d="M 99.841,41.18745 V 40.0331 l 16.133,9.3019 v 1.1545 z"
     id="path79"
     style="stroke-width:0.05" />
  <text
     x="79.038902"
     y="54.926498"
     stroke="none"
     fill="#ff0000"
     font-style="normal"
     font-weight="normal"
     font-size="14px"
     font-family="Arial"
     id="text79"
     style="stroke-width:0.05">S</text>
  <path
     stroke="none"
     fill="#ff0000"
     d="M 89.6395,47.0695 89.14,46.203 99.841,40.0331 v 1.15435 z"
     id="path80"
     style="stroke-width:0.05" />
  <path
     stroke="none"
     fill="#ff0000"
     d="M 67.5745,41.18745 V 40.0331 l 10.5385,6.0764 -0.4995,0.866 z"
     id="path81"
     style="stroke-width:0.05" />
  <path
     stroke="none"
     fill="#000000"
     d="M 51.4415,50.4895 V 49.335 l 16.133,-9.3019 v 1.15435 z"
     id="path82"
     style="stroke-width:0.05" />
  <path
     stroke="none"
     fill="#000000"
     d="m 35.3085,41.1874 2e-4,-1.1542 16.1328,9.3018 v 1.1545 z"
     id="path83"
     style="stroke-width:0.05" />
  <path
     stroke="none"
     fill="#000000"
     d="m 19.1625,50.4895 2e-4,-1.154 16.146,-9.3023 -2e-4,1.1542 z"
     id="path84"
     style="stroke-width:0.05" />
  <path
     stroke="none"
     fill="#000000"
     d="m 435.815,69.2845 v 1.155 l -16.133,-9.328 v -1.155 z"
     id="path85"
     style="stroke-width:0.05" />
  <text
     x="447.27899"
     y="65.548203"
     stroke="none"
     fill="#ff0000"
     font-style="normal"
     font-weight="normal"
     font-size="14px"
     font-family="Arial"
     id="text85"
     style="stroke-width:0.05">S</text>
  <path
     stroke="none"
     fill="#ff0000"
     d="m 445.671,63.586 0.5005,0.8655 -10.3565,5.988 v -1.155 z"
     id="path86"
     style="stroke-width:0.05" />
  <path
     stroke="none"
     fill="#ff0000"
     d="m 468.081,69.2845 v 1.155 l -10.3945,-6.01 0.5005,-0.866 z"
     id="path87"
     style="stroke-width:0.05" />
  <path
     stroke="none"
     fill="#000000"
     d="m 484.227,59.9565 v 1.155 l -16.146,9.328 v -1.155 z"
     id="path88"
     style="stroke-width:0.05" />
  <path
     stroke="none"
     fill="#000000"
     d="m 500.36,69.2845 v 1.155 l -16.133,-9.328 v -1.155 z"
     id="path89"
     style="stroke-width:0.05" />
  <path
     stroke="none"
     fill="#000000"
     d="m 516.495,59.9565 v 1.155 l -16.135,9.328 v -1.155 z"
     id="path90"
     style="stroke-width:0.05" />
  <path
     stroke="none"
     fill="#000000"
     d="m 532.875,69.429 -0.5,0.866 -15.88,-9.1835 v -1.155 z"
     id="path91"
     style="stroke-width:0.05" />
  <path
     stroke="none"
     fill="#000000"
     d="m 2.7798,41.04345 0.4995,-0.8663 15.8834,9.15835 -2e-4,1.154 z"
     id="path92"
     style="stroke-width:0.05" />
  <path
     stroke="#000000"
     stroke-width="1"
     fill="none"
     d="m 521.24,74.842 a 41.2318,41.2318 0 0 0 0.72,-41.2256"
     id="path93" />
  <path
     stroke="#000000"
     stroke-width="1"
     fill="none"
     d="m 16.36425,32.9901 a 41.2318,41.2318 0 0 0 0,41.2319"
     id="path94" />
  <text
     x="37.094002"
     y="81.505699"
     stroke="none"
     fill="#ff0000"
     font-style="normal"
     font-weight="normal"
     font-size="14px"
     font-family="Arial"
     id="text94"
     style="stroke-width:0.05">dynamic</text>
  <text
     x="93.114502"
     y="81.505699"
     stroke="none"
     fill="#ff0000"
     font-style="normal"
     font-weight="normal"
     font-size="14px"
     font-family="Arial"
     id="text95"
     style="stroke-width:0.05">bonds</text>
  <text
     x="140.963"
     y="91.0858"
     stroke="none"
     fill="#0000ff"
     font-style="normal"
     font-weight="normal"
     font-size="14px"
     font-family="Arial"
     id="text96"
     style="stroke-width:0.05">hydrogen</text>
  <text
     x="203.23199"
     y="91.0858"
     stroke="none"
     fill="#0000ff"
     font-style="normal"
     font-weight="normal"
     font-size="14px"
     font-family="Arial"
     id="text97"
     style="stroke-width:0.05">bonds</text>
  <text
     x="225.33501"
     y="12.937"
     stroke="none"
     fill="#00af00"
     font-style="normal"
     font-weight="normal"
     font-size="14px"
     font-family="Arial"
     id="text98"
     style="stroke-width:0.05">stereochemical</text>
  <text
     x="323.37601"
     y="12.937"
     stroke="none"
     fill="#00af00"
     font-style="normal"
     font-weight="normal"
     font-size="14px"
     font-family="Arial"
     id="text99"
     style="stroke-width:0.05">ring</text>
  <text
     x="289.461"
     y="417.284"
     stroke="none"
     fill="#000000"
     font-style="normal"
     font-weight="normal"
     font-size="16px"
     font-family="Helvetica"
     id="text100"
     style="stroke-width:0.05">mechanical</text>
  <text
     x="374.836"
     y="417.284"
     stroke="none"
     fill="#000000"
     font-style="normal"
     font-weight="normal"
     font-size="16px"
     font-family="Helvetica"
     id="text101"
     style="stroke-width:0.05">response</text>
  <text
     x="523.96698"
     y="78.709602"
     stroke="none"
     fill="#000000"
     font-style="normal"
     font-weight="normal"
     font-size="12px"
     font-family="Arial"
     id="text102"
     style="stroke-width:0.05">n</text>
  <rect
     style="fill:#0000ff;stroke-width:0.372645"
     id="rect102"
     width="1.7143389"
     height="7.248281"
     x="363.79697"
     y="148.76648" />
  <rect
     style="fill:#0000ff;stroke-width:0.372645"
     id="rect102-8"
     width="1.7143389"
     height="7.248281"
     x="363.78967"
     y="158.17165" />
  <rect
     style="fill:#0000ff;stroke-width:0.372645"
     id="rect102-2"
     width="1.7143389"
     height="7.248281"
     x="363.84195"
     y="167.83533" />
  <rect
     style="fill:#0000ff;stroke-width:0.235231"
     id="rect102-8-0"
     width="2.3364778"
     height="2.1191888"
     x="-192.38403"
     y="285.32162"
     transform="rotate(-64.265654)" />
  <rect
     style="fill:#0000ff;stroke-width:0.235231"
     id="rect102-2-4"
     width="2.3364778"
     height="2.1191888"
     x="-192.33514"
     y="289.38449"
     transform="rotate(-64.265654)" />
  <rect
     style="fill:#0000ff;stroke-width:0.235231"
     id="rect102-8-0-6"
     width="2.3364778"
     height="2.1191888"
     x="-192.30875"
     y="293.21332"
     transform="rotate(-64.265654)" />
  <rect
     style="fill:#0000ff;stroke-width:0.235231"
     id="rect102-8-0-3"
     width="2.3364778"
     height="2.1191888"
     x="-292.05646"
     y="261.03452"
     transform="rotate(-73.176395)" />
  <rect
     style="fill:#0000ff;stroke-width:0.235231"
     id="rect102-2-4-7"
     width="2.3364778"
     height="2.1191888"
     x="-292.00757"
     y="265.09738"
     transform="rotate(-73.176395)" />
  <rect
     style="fill:#0000ff;stroke-width:0.235231"
     id="rect102-8-0-6-8"
     width="2.3364778"
     height="2.1191888"
     x="-291.98117"
     y="268.92621"
     transform="rotate(-73.176395)" />
  <rect
     style="fill:#0000ff;stroke-width:0.372645"
     id="rect102-8-7"
     width="1.7143389"
     height="7.248281"
     x="363.83466"
     y="177.24049" />
  <rect
     style="fill:#0000ff;stroke-width:0.372645"
     id="rect102-8-7-0"
     width="1.7143389"
     height="7.248281"
     x="363.89496"
     y="187.11447" />
</svg>
