<?xml version="1.0" encoding="utf-8" standalone="no"?>
<!DOCTYPE svg PUBLIC "-//W3C//DTD SVG 1.1//EN"
  "http://www.w3.org/Graphics/SVG/1.1/DTD/svg11.dtd">
<svg xmlns:xlink="http://www.w3.org/1999/xlink" width="529.345621pt" height="412.854312pt" viewBox="0 0 529.345621 412.854312" xmlns="http://www.w3.org/2000/svg" version="1.1">
 <metadata>
  <rdf:RDF xmlns:dc="http://purl.org/dc/elements/1.1/" xmlns:cc="http://creativecommons.org/ns#" xmlns:rdf="http://www.w3.org/1999/02/22-rdf-syntax-ns#">
   <cc:Work>
    <dc:type rdf:resource="http://purl.org/dc/dcmitype/StillImage"/>
    <dc:date>2025-11-12T10:50:59.509981</dc:date>
    <dc:format>image/svg+xml</dc:format>
    <dc:creator>
     <cc:Agent>
      <dc:title>Matplotlib v3.9.0, https://matplotlib.org/</dc:title>
     </cc:Agent>
    </dc:creator>
   </cc:Work>
  </rdf:RDF>
 </metadata>
 <defs>
  <style type="text/css">*{stroke-linejoin: round; stroke-linecap: butt}</style>
 </defs>
 <g id="figure_1">
  <g id="patch_1">
   <path d="M 0 412.854312 
L 529.345621 412.854312 
L 529.345621 0 
L 0 0 
z
" style="fill: #ffffff"/>
  </g>
  <g id="axes_1">
   <g id="patch_2">
    <path d="M 75.130625 361.300875 
L 521.530625 361.300875 
L 521.530625 28.660875 
L 75.130625 28.660875 
z
" style="fill: #ffffff"/>
   </g>
   <g id="PolyCollection_1">
    <path d="M 75.145025 351.431589 
L 75.145025 359.46427 
L 77.672276 357.273107 
L 80.199527 355.193476 
L 82.726778 353.219782 
L 85.254029 351.34659 
L 87.78128 349.568617 
L 90.308531 347.880732 
L 92.835782 346.277958 
L 95.363033 344.755463 
L 97.890285 343.308565 
L 100.417536 341.932724 
L 102.944787 340.623548 
L 105.472038 339.37678 
L 107.999289 338.188309 
L 110.52654 337.054157 
L 113.053791 335.970485 
L 115.581042 334.933584 
L 118.108293 333.939882 
L 120.635545 332.985934 
L 123.162796 332.068423 
L 125.690047 331.18416 
L 128.217298 330.330081 
L 130.744549 329.503243 
L 133.2718 328.700826 
L 135.799051 327.920126 
L 138.326302 327.15856 
L 140.853553 326.413656 
L 143.380805 325.683059 
L 145.908056 324.964524 
L 148.435307 324.255916 
L 150.962558 323.555208 
L 153.489809 322.860477 
L 156.01706 322.169907 
L 158.544311 321.481783 
L 161.071562 320.794489 
L 163.598813 320.106509 
L 166.126065 319.416424 
L 168.653316 318.722908 
L 171.180567 318.024729 
L 173.707818 317.320746 
L 176.235069 316.609907 
L 178.76232 315.891245 
L 181.289571 315.163883 
L 183.816822 314.427023 
L 186.344073 313.679951 
L 188.871324 312.922031 
L 191.398576 312.152708 
L 193.925827 311.371499 
L 196.453078 310.577999 
L 198.980329 309.77187 
L 201.50758 308.952851 
L 204.034831 308.120743 
L 206.562082 307.275419 
L 209.089333 306.416812 
L 211.616584 305.544922 
L 214.143836 304.659807 
L 216.671087 303.761585 
L 219.198338 302.850431 
L 221.725589 301.926576 
L 224.25284 300.990304 
L 226.780091 300.04195 
L 229.307342 299.0819 
L 231.834593 298.110586 
L 234.361844 297.128487 
L 236.889096 296.136126 
L 239.416347 295.134068 
L 241.943598 294.122918 
L 244.470849 293.103319 
L 246.9981 292.075952 
L 249.525351 291.041532 
L 252.052602 290.000805 
L 254.579853 288.95455 
L 257.107104 287.903573 
L 259.634356 286.848709 
L 262.161607 285.790818 
L 264.688858 284.730781 
L 267.216109 283.669503 
L 269.744034 282.607623 
L 272.271285 281.546651 
L 274.798536 280.487258 
L 277.325787 279.430417 
L 279.853038 278.377108 
L 282.38029 277.328326 
L 284.907541 276.285071 
L 287.434792 275.248349 
L 289.962043 274.219173 
L 292.489294 273.198556 
L 295.016545 272.187513 
L 297.543796 271.187057 
L 300.071047 270.198198 
L 302.598298 269.221941 
L 305.125549 268.259285 
L 307.652801 267.311218 
L 310.180052 266.378719 
L 312.707303 265.462753 
L 315.234554 264.564273 
L 317.761805 263.684212 
L 320.289056 262.823487 
L 322.816307 261.982994 
L 325.343558 261.163609 
L 327.870809 260.366179 
L 330.398061 259.591531 
L 332.925312 258.840459 
L 335.452563 258.113732 
L 337.979814 257.412083 
L 340.507065 256.736215 
L 343.034316 256.086793 
L 345.561567 255.464447 
L 348.088818 254.869765 
L 350.616069 254.303297 
L 353.143321 253.765548 
L 355.670572 253.256979 
L 358.197823 252.778003 
L 360.725074 252.328985 
L 363.252325 251.91024 
L 365.779576 251.52203 
L 368.306827 251.164563 
L 370.834078 250.837989 
L 373.361329 250.542401 
L 375.888581 250.277833 
L 378.415832 250.044256 
L 380.943083 249.841575 
L 383.470334 249.669633 
L 385.997585 249.528203 
L 388.524836 249.416987 
L 391.052087 249.335619 
L 393.579338 249.283657 
L 396.106589 249.260585 
L 398.633841 249.265807 
L 401.161092 249.298652 
L 403.688343 249.358364 
L 406.215594 249.444107 
L 408.742845 249.554959 
L 411.270096 249.689909 
L 413.797347 249.847861 
L 416.324598 250.027627 
L 418.851849 250.227924 
L 421.379101 250.447379 
L 423.906352 250.684519 
L 426.433603 250.937773 
L 428.960854 251.205473 
L 431.488105 251.485845 
L 434.015356 251.777013 
L 436.542607 252.076994 
L 439.069858 252.3837 
L 441.597109 252.694929 
L 444.124361 253.008371 
L 446.651612 253.321599 
L 449.178863 253.632074 
L 451.706114 253.937137 
L 454.233365 254.234011 
L 456.760616 254.519797 
L 459.287867 254.791473 
L 461.815118 255.045893 
L 464.342369 255.279782 
L 466.869621 255.489738 
L 469.396872 255.672227 
L 471.924123 255.823582 
L 474.451374 255.940003 
L 476.978625 256.017551 
L 479.505876 256.052151 
L 482.033127 256.039586 
L 484.560378 255.975497 
L 487.087629 255.85538 
L 489.614881 255.674586 
L 492.142132 255.428318 
L 494.669383 255.111628 
L 497.196634 254.719416 
L 499.723885 254.246428 
L 502.251136 253.687257 
L 504.778387 253.036334 
L 507.305638 252.287933 
L 509.832889 251.436165 
L 512.360141 250.47498 
L 514.887392 249.398159 
L 517.414643 248.199319 
L 519.941894 246.871905 
L 522.469145 245.409193 
L 524.996396 243.804284 
L 527.523647 242.050106 
L 530.050898 240.139407 
L 530.050898 229.196477 
L 530.050898 229.196477 
L 527.523647 230.627147 
L 524.996396 231.933107 
L 522.469145 233.120194 
L 519.941894 234.194117 
L 517.414643 235.160452 
L 514.887392 236.024644 
L 512.360141 236.792011 
L 509.832889 237.467741 
L 507.305638 238.056895 
L 504.778387 238.564407 
L 502.251136 238.995088 
L 499.723885 239.353624 
L 497.196634 239.644576 
L 494.669383 239.872386 
L 492.142132 240.041375 
L 489.614881 240.155741 
L 487.087629 240.219567 
L 484.560378 240.236817 
L 482.033127 240.211338 
L 479.505876 240.146863 
L 476.978625 240.04701 
L 474.451374 239.915285 
L 471.924123 239.755081 
L 469.396872 239.569681 
L 466.869621 239.362259 
L 464.342369 239.13588 
L 461.815118 238.893502 
L 459.287867 238.637977 
L 456.760616 238.372053 
L 454.233365 238.098376 
L 451.706114 237.819485 
L 449.178863 237.537824 
L 446.651612 237.255734 
L 444.124361 236.975458 
L 441.597109 236.699142 
L 439.069858 236.428836 
L 436.542607 236.166497 
L 434.015356 235.913986 
L 431.488105 235.673076 
L 428.960854 235.445444 
L 426.433603 235.232684 
L 423.906352 235.036297 
L 421.379101 234.857699 
L 418.851849 234.698223 
L 416.324598 234.559114 
L 413.797347 234.441539 
L 411.270096 234.346581 
L 408.742845 234.275243 
L 406.215594 234.228452 
L 403.688343 234.207057 
L 401.161092 234.211831 
L 398.633841 234.243474 
L 396.106589 234.302612 
L 393.579338 234.389803 
L 391.052087 234.505531 
L 388.524836 234.650215 
L 385.997585 234.824207 
L 383.470334 235.027793 
L 380.943083 235.261195 
L 378.415832 235.524573 
L 375.888581 235.818028 
L 373.361329 236.141601 
L 370.834078 236.495273 
L 368.306827 236.878972 
L 365.779576 237.292571 
L 363.252325 237.735889 
L 360.725074 238.208694 
L 358.197823 238.710704 
L 355.670572 239.241591 
L 353.143321 239.800977 
L 350.616069 240.388441 
L 348.088818 241.00352 
L 345.561567 241.645705 
L 343.034316 242.314452 
L 340.507065 243.009175 
L 337.979814 243.729253 
L 335.452563 244.474029 
L 332.925312 245.242814 
L 330.398061 246.034885 
L 327.870809 246.84949 
L 325.343558 247.685851 
L 322.816307 248.543159 
L 320.289056 249.420584 
L 317.761805 250.317271 
L 315.234554 251.232343 
L 312.707303 252.164906 
L 310.180052 253.114045 
L 307.652801 254.078831 
L 305.125549 255.05832 
L 302.598298 256.051555 
L 300.071047 257.057569 
L 297.543796 258.075386 
L 295.016545 259.104022 
L 292.489294 260.142489 
L 289.962043 261.189795 
L 287.434792 262.244946 
L 284.907541 263.306949 
L 282.38029 264.374812 
L 279.853038 265.447549 
L 277.325787 266.524177 
L 274.798536 267.603724 
L 272.271285 268.685225 
L 269.744034 269.767728 
L 267.216109 270.850583 
L 264.688858 271.932289 
L 262.161607 273.012229 
L 259.634356 274.089516 
L 257.107104 275.163284 
L 254.579853 276.232692 
L 252.052602 277.296923 
L 249.525351 278.355187 
L 246.9981 279.406724 
L 244.470849 280.450804 
L 241.943598 281.486732 
L 239.416347 282.513848 
L 236.889096 283.531527 
L 234.361844 284.539186 
L 231.834593 285.536282 
L 229.307342 286.522317 
L 226.780091 287.496836 
L 224.25284 288.459433 
L 221.725589 289.409753 
L 219.198338 290.347491 
L 216.671087 291.272396 
L 214.143836 292.184274 
L 211.616584 293.082989 
L 209.089333 293.968464 
L 206.562082 294.840685 
L 204.034831 295.699705 
L 201.50758 296.545641 
L 198.980329 297.378678 
L 196.453078 298.199076 
L 193.925827 299.007166 
L 191.398576 299.803353 
L 188.871324 300.588122 
L 186.344073 301.362039 
L 183.816822 302.125748 
L 181.289571 302.879982 
L 178.76232 303.625558 
L 176.235069 304.363382 
L 173.707818 305.094452 
L 171.180567 305.819859 
L 168.653316 306.540791 
L 166.126065 307.258532 
L 163.598813 307.974468 
L 161.071562 308.690087 
L 158.544311 309.406982 
L 156.01706 310.126854 
L 153.489809 310.851512 
L 150.962558 311.582879 
L 148.435307 312.322991 
L 145.908056 313.074002 
L 143.380805 313.838184 
L 140.853553 314.617931 
L 138.326302 315.415761 
L 135.799051 316.234318 
L 133.2718 317.076376 
L 130.744549 317.944839 
L 128.217298 318.842744 
L 125.690047 319.773265 
L 123.162796 320.739716 
L 120.635545 321.745549 
L 118.108293 322.794361 
L 115.581042 323.889895 
L 113.053791 325.036044 
L 110.52654 326.236847 
L 107.999289 327.496503 
L 105.472038 328.819362 
L 102.944787 330.209934 
L 100.417536 331.672891 
L 97.890285 333.213068 
L 95.363033 334.835466 
L 92.835782 336.545254 
L 90.308531 338.347773 
L 87.78128 340.248539 
L 85.254029 342.253243 
L 82.726778 344.367755 
L 80.199527 346.598128 
L 77.672276 348.950598 
L 75.145025 351.431589 
z
" clip-path="url(#pc697a14443)" style="fill: #1f77b4; fill-opacity: 0.2"/>
   </g>
   <g id="PolyCollection_2">
    <path d="M 75.145025 354.381548 
L 75.145025 362.482933 
L 77.993332 358.079556 
L 80.847347 354.254992 
L 83.701363 350.96158 
L 86.555378 348.145769 
L 89.409394 345.757437 
L 92.263409 343.749763 
L 95.117425 342.079103 
L 97.97144 340.704862 
L 100.825456 339.589371 
L 103.679471 338.69777 
L 106.533487 337.997885 
L 109.387502 337.460117 
L 112.241518 337.057327 
L 115.095533 336.764721 
L 117.949549 336.559746 
L 120.803564 336.42198 
L 123.65758 336.333028 
L 126.511595 336.276417 
L 129.36561 336.237502 
L 132.219626 336.203359 
L 135.073641 336.162698 
L 137.927657 336.105763 
L 140.781672 336.024242 
L 143.635688 335.911181 
L 146.489703 335.760891 
L 149.343719 335.568871 
L 152.197734 335.331716 
L 155.05175 335.047046 
L 157.905765 334.713421 
L 160.759781 334.330268 
L 163.613796 333.897807 
L 166.467812 333.41698 
L 169.321827 332.88938 
L 172.175843 332.317187 
L 175.029858 331.703098 
L 177.883873 331.050271 
L 180.737889 330.36226 
L 183.591904 329.642957 
L 186.44592 328.896539 
L 189.299935 328.127411 
L 192.153951 327.340156 
L 195.007966 326.539488 
L 197.861982 325.7302 
L 200.715997 324.917122 
L 203.570013 324.105079 
L 206.424028 323.29885 
L 209.278044 322.503128 
L 212.132059 321.722488 
L 214.986075 320.961348 
L 217.84009 320.223942 
L 220.694106 319.51429 
L 223.548121 318.836168 
L 226.402136 318.193086 
L 229.256152 317.588264 
L 232.110167 317.024613 
L 234.964183 316.504715 
L 237.818198 316.030808 
L 240.672214 315.604772 
L 243.526229 315.228118 
L 246.380245 314.901979 
L 249.23426 314.6271 
L 252.088276 314.403838 
L 254.942291 314.232153 
L 257.796307 314.111615 
L 260.650322 314.041401 
L 263.504338 314.020297 
L 266.358353 314.046711 
L 269.212369 314.118677 
L 272.066384 314.233863 
L 274.9204 314.389593 
L 277.774415 314.58285 
L 280.62843 314.810305 
L 283.482446 315.068328 
L 286.336461 315.353013 
L 289.190477 315.660205 
L 292.044492 315.985518 
L 294.898508 316.324374 
L 297.752523 316.672025 
L 300.606539 317.02359 
L 303.460554 317.374089 
L 306.31457 317.71848 
L 309.168585 318.051699 
L 312.023742 318.368828 
L 314.877758 318.664629 
L 317.731773 318.934364 
L 320.585789 319.173321 
L 323.439804 319.376997 
L 326.29382 319.541153 
L 329.147835 319.661863 
L 332.001851 319.735579 
L 334.855866 319.759185 
L 337.709881 319.73006 
L 340.563897 319.646143 
L 343.417912 319.506 
L 346.271928 319.308888 
L 349.125943 319.054832 
L 351.979959 318.744691 
L 354.833974 318.380239 
L 357.68799 317.964239 
L 360.542005 317.500524 
L 363.396021 316.994075 
L 366.250036 316.451111 
L 369.104052 315.879172 
L 371.958067 315.287207 
L 374.812083 314.685662 
L 377.666098 314.086581 
L 380.520114 313.503693 
L 383.374129 312.952512 
L 386.228144 312.450437 
L 389.08216 312.016853 
L 391.936175 311.673238 
L 394.790191 311.443262 
L 397.644206 311.352903 
L 400.498222 311.430552 
L 403.352237 311.707131 
L 406.206253 312.216203 
L 409.060268 312.994091 
L 411.914284 314.079999 
L 414.768299 315.516133 
L 417.622315 317.347823 
L 417.622315 309.273582 
L 417.622315 309.273582 
L 414.768299 307.121338 
L 411.914284 305.394607 
L 409.060268 304.046213 
L 406.206253 303.032171 
L 403.352237 302.311565 
L 400.498222 301.846429 
L 397.644206 301.601617 
L 394.790191 301.544693 
L 391.936175 301.64581 
L 389.08216 301.877597 
L 386.228144 302.215048 
L 383.374129 302.635408 
L 380.520114 303.118073 
L 377.666098 303.644479 
L 374.812083 304.198001 
L 371.958067 304.76385 
L 369.104052 305.328979 
L 366.250036 305.881983 
L 363.396021 306.413005 
L 360.542005 306.913648 
L 357.68799 307.37688 
L 354.833974 307.796949 
L 351.979959 308.169302 
L 349.125943 308.490493 
L 346.271928 308.758111 
L 343.417912 308.970697 
L 340.563897 309.12767 
L 337.709881 309.229251 
L 334.855866 309.276392 
L 332.001851 309.270709 
L 329.147835 309.214408 
L 326.29382 309.110231 
L 323.439804 308.96138 
L 320.585789 308.771469 
L 317.731773 308.544456 
L 314.877758 308.284592 
L 312.023742 307.996366 
L 309.168585 307.684326 
L 306.31457 307.353533 
L 303.460554 307.00877 
L 300.606539 306.654984 
L 297.752523 306.297124 
L 294.898508 305.9401 
L 292.044492 305.588747 
L 289.190477 305.247786 
L 286.336461 304.921794 
L 283.482446 304.615166 
L 280.62843 304.332095 
L 277.774415 304.076536 
L 274.9204 303.852187 
L 272.066384 303.662464 
L 269.212369 303.510482 
L 266.358353 303.399034 
L 263.504338 303.33058 
L 260.650322 303.307227 
L 257.796307 303.330724 
L 254.942291 303.402448 
L 252.088276 303.523401 
L 249.23426 303.694201 
L 246.380245 303.915084 
L 243.526229 304.185899 
L 240.672214 304.506115 
L 237.818198 304.87482 
L 234.964183 305.290733 
L 232.110167 305.752208 
L 229.256152 306.257247 
L 226.402136 306.803514 
L 223.548121 307.388347 
L 220.694106 308.008782 
L 217.84009 308.661564 
L 214.986075 309.343178 
L 212.132059 310.049866 
L 209.278044 310.777658 
L 206.424028 311.5224 
L 203.570013 312.279785 
L 200.715997 313.045385 
L 197.861982 313.814686 
L 195.007966 314.58313 
L 192.153951 315.346149 
L 189.299935 316.099213 
L 186.44592 316.837869 
L 183.591904 317.557792 
L 180.737889 318.254832 
L 177.883873 318.925064 
L 175.029858 319.564844 
L 172.175843 320.170864 
L 169.321827 320.740206 
L 166.467812 321.270407 
L 163.613796 321.759521 
L 160.759781 322.206179 
L 157.905765 322.609661 
L 155.05175 322.96996 
L 152.197734 323.28786 
L 149.343719 323.565001 
L 146.489703 323.803962 
L 143.635688 324.008334 
L 140.781672 324.182805 
L 137.927657 324.333237 
L 135.073641 324.466753 
L 132.219626 324.591826 
L 129.36561 324.718365 
L 126.511595 324.857808 
L 123.65758 325.023213 
L 120.803564 325.22936 
L 117.949549 325.49284 
L 115.095533 325.832163 
L 112.241518 326.267858 
L 109.387502 326.822575 
L 106.533487 327.521197 
L 103.679471 328.390945 
L 100.825456 329.46149 
L 97.97144 330.76507 
L 95.117425 332.336602 
L 92.263409 334.213801 
L 89.409394 336.437303 
L 86.555378 339.050784 
L 83.701363 342.101087 
L 80.847347 345.638348 
L 77.993332 349.716126 
L 75.145025 354.381548 
z
" clip-path="url(#pc697a14443)" style="fill: #ff7f0e; fill-opacity: 0.2"/>
   </g>
   <g id="PolyCollection_3">
    <path d="M 75.145025 355.227359 
L 75.145025 362.588001 
L 77.281251 359.226597 
L 79.421758 356.232116 
L 81.562266 353.581089 
L 83.702773 351.244641 
L 85.84328 349.195556 
L 87.983788 347.408225 
L 90.124295 345.858582 
L 92.264802 344.524051 
L 94.40531 343.383488 
L 96.545817 342.417125 
L 98.686324 341.60652 
L 100.826832 340.934497 
L 102.967339 340.3851 
L 105.107847 339.94354 
L 107.248354 339.596144 
L 109.388861 339.330303 
L 111.529369 339.134432 
L 113.669876 338.997913 
L 115.810383 338.911056 
L 117.950891 338.86505 
L 120.091398 338.85192 
L 122.231905 338.864481 
L 124.372413 338.896302 
L 126.51292 338.941657 
L 128.653428 338.995491 
L 130.793935 339.053374 
L 132.934442 339.11147 
L 135.07495 339.166495 
L 137.215457 339.215679 
L 139.355964 339.256736 
L 141.496472 339.287825 
L 143.636979 339.307518 
L 145.777486 339.314767 
L 147.917994 339.308874 
L 150.058501 339.289458 
L 152.199009 339.256427 
L 154.339516 339.20995 
L 156.480023 339.150426 
L 158.620531 339.078463 
L 160.761038 338.994848 
L 162.901545 338.900522 
L 165.042053 338.796558 
L 167.18256 338.684141 
L 169.323067 338.564541 
L 171.463575 338.439093 
L 173.604082 338.309183 
L 175.744589 338.176222 
L 177.885097 338.041631 
L 180.025604 337.906827 
L 182.166112 337.773203 
L 184.306619 337.642114 
L 186.447126 337.514866 
L 188.587634 337.392698 
L 190.728141 337.276778 
L 192.868648 337.168181 
L 195.009156 337.06789 
L 197.149663 336.976781 
L 199.29017 336.895616 
L 201.430678 336.825036 
L 203.571185 336.765556 
L 205.711693 336.717559 
L 207.8522 336.681293 
L 209.992707 336.656866 
L 212.133215 336.644245 
L 214.273722 336.643258 
L 216.414229 336.653587 
L 218.554166 336.674768 
L 220.694673 336.706216 
L 222.835181 336.747193 
L 224.975688 336.796833 
L 227.116195 336.854143 
L 229.256703 336.918006 
L 231.39721 336.987191 
L 233.537717 337.06036 
L 235.678225 337.136074 
L 237.818732 337.212808 
L 239.95924 337.288955 
L 242.099747 337.362843 
L 244.240254 337.432746 
L 246.380762 337.496898 
L 248.521269 337.553505 
L 250.661776 337.600766 
L 252.802284 337.636884 
L 254.942791 337.660085 
L 257.083298 337.668641 
L 259.223806 337.660883 
L 261.364313 337.635225 
L 263.50482 337.590187 
L 265.645328 337.524413 
L 267.785835 337.436697 
L 269.926343 337.326011 
L 272.06685 337.191522 
L 274.207357 337.032627 
L 276.347865 336.848975 
L 278.488372 336.640497 
L 280.628879 336.407436 
L 282.769387 336.150376 
L 284.909894 335.870275 
L 287.050401 335.568497 
L 289.190909 335.246842 
L 291.331416 334.907585 
L 293.471924 334.55351 
L 295.612431 334.187943 
L 297.752938 333.814794 
L 299.893446 333.438592 
L 302.033953 333.064524 
L 304.17446 332.698478 
L 306.314968 332.347081 
L 308.455475 332.017743 
L 310.595982 331.718701 
L 312.73649 331.45906 
L 314.876997 331.248839 
L 317.017505 331.099021 
L 319.158012 331.021594 
L 321.298519 331.029604 
L 323.439027 331.1372 
L 325.579534 331.359688 
L 327.720041 331.713579 
L 329.860549 332.216641 
L 332.001056 332.887955 
L 332.001056 324.167033 
L 332.001056 324.167033 
L 329.860549 323.554012 
L 327.720041 323.099076 
L 325.579534 322.783477 
L 323.439027 322.589804 
L 321.298519 322.501932 
L 319.158012 322.504965 
L 317.017505 322.585184 
L 314.876997 322.729991 
L 312.73649 322.927859 
L 310.595982 323.168284 
L 308.455475 323.44173 
L 306.314968 323.739585 
L 304.17446 324.054111 
L 302.033953 324.378399 
L 299.893446 324.706322 
L 297.752938 325.032494 
L 295.612431 325.352224 
L 293.471924 325.661472 
L 291.331416 325.956815 
L 289.190909 326.235399 
L 287.050401 326.494906 
L 284.909894 326.733513 
L 282.769387 326.949855 
L 280.628879 327.142992 
L 278.488372 327.312372 
L 276.347865 327.457798 
L 274.207357 327.579398 
L 272.06685 327.677587 
L 269.926343 327.753045 
L 267.785835 327.806682 
L 265.645328 327.83961 
L 263.50482 327.85312 
L 261.364313 327.848651 
L 259.223806 327.827769 
L 257.083298 327.792139 
L 254.942791 327.743507 
L 252.802284 327.683674 
L 250.661776 327.614477 
L 248.521269 327.537769 
L 246.380762 327.455402 
L 244.240254 327.369205 
L 242.099747 327.280974 
L 239.95924 327.192451 
L 237.818732 327.105313 
L 235.678225 327.021157 
L 233.537717 326.941488 
L 231.39721 326.86771 
L 229.256703 326.801112 
L 227.116195 326.742863 
L 224.975688 326.694001 
L 222.835181 326.65543 
L 220.694673 326.627909 
L 218.554166 326.612051 
L 216.414229 326.608318 
L 214.273722 326.617017 
L 212.133215 326.638306 
L 209.992707 326.672185 
L 207.8522 326.718498 
L 205.711693 326.776939 
L 203.571185 326.84705 
L 201.430678 326.928227 
L 199.29017 327.019725 
L 197.149663 327.120665 
L 195.009156 327.230038 
L 192.868648 327.346717 
L 190.728141 327.469462 
L 188.587634 327.596934 
L 186.447126 327.727703 
L 184.306619 327.860265 
L 182.166112 327.993049 
L 180.025604 328.124439 
L 177.885097 328.252782 
L 175.744589 328.37641 
L 173.604082 328.493658 
L 171.463575 328.602878 
L 169.323067 328.702463 
L 167.18256 328.790867 
L 165.042053 328.866626 
L 162.901545 328.928384 
L 160.761038 328.974912 
L 158.620531 329.005138 
L 156.480023 329.018171 
L 154.339516 329.01333 
L 152.199009 328.99017 
L 150.058501 328.948513 
L 147.917994 328.888479 
L 145.777486 328.810516 
L 143.636979 328.715435 
L 141.496472 328.604441 
L 139.355964 328.479172 
L 137.215457 328.341728 
L 135.07495 328.194717 
L 132.934442 328.041284 
L 130.793935 327.885156 
L 128.653428 327.730683 
L 126.51292 327.582872 
L 124.372413 327.447438 
L 122.231905 327.330843 
L 120.091398 327.240339 
L 117.950891 327.184017 
L 115.810383 327.170852 
L 113.669876 327.21075 
L 111.529369 327.314598 
L 109.388861 327.494315 
L 107.248354 327.762898 
L 105.107847 328.134479 
L 102.967339 328.624376 
L 100.826832 329.249146 
L 98.686324 330.026644 
L 96.545817 330.976074 
L 94.40531 332.118049 
L 92.264802 333.474651 
L 90.124295 335.069488 
L 87.983788 336.927753 
L 85.84328 339.07629 
L 83.702773 341.543654 
L 81.562266 344.360175 
L 79.421758 347.558021 
L 77.281251 351.171268 
L 75.145025 355.227359 
z
" clip-path="url(#pc697a14443)" style="fill: #2ca02c; fill-opacity: 0.2"/>
   </g>
   <g id="matplotlib.axis_1">
    <g id="xtick_1">
     <g id="line2d_1">
      <defs>
       <path id="m34055a87f2" d="M 0 0 
L 0 3.5 
" style="stroke: #000000; stroke-width: 0.8"/>
      </defs>
      <g>
       <use xlink:href="#m34055a87f2" x="75.145025" y="361.300875" style="stroke: #000000; stroke-width: 0.8"/>
      </g>
     </g>
     <g id="text_1">
      <!-- 0 -->
      <g transform="translate(70.140181 381.184937) scale(0.18 -0.18)">
       <defs>
        <path id="ArialMT-30" d="M 266 2259 
Q 266 3072 433 3567 
Q 600 4063 929 4331 
Q 1259 4600 1759 4600 
Q 2128 4600 2406 4451 
Q 2684 4303 2865 4023 
Q 3047 3744 3150 3342 
Q 3253 2941 3253 2259 
Q 3253 1453 3087 958 
Q 2922 463 2592 192 
Q 2263 -78 1759 -78 
Q 1097 -78 719 397 
Q 266 969 266 2259 
z
M 844 2259 
Q 844 1131 1108 757 
Q 1372 384 1759 384 
Q 2147 384 2411 759 
Q 2675 1134 2675 2259 
Q 2675 3391 2411 3762 
Q 2147 4134 1753 4134 
Q 1366 4134 1134 3806 
Q 844 3388 844 2259 
z
" transform="scale(0.015625)"/>
       </defs>
       <use xlink:href="#ArialMT-30"/>
      </g>
     </g>
    </g>
    <g id="xtick_2">
     <g id="line2d_2">
      <g>
       <use xlink:href="#m34055a87f2" x="147.142702" y="361.300875" style="stroke: #000000; stroke-width: 0.8"/>
      </g>
     </g>
     <g id="text_2">
      <!-- 50 -->
      <g transform="translate(137.133015 381.184937) scale(0.18 -0.18)">
       <defs>
        <path id="ArialMT-35" d="M 266 1200 
L 856 1250 
Q 922 819 1161 601 
Q 1400 384 1738 384 
Q 2144 384 2425 690 
Q 2706 997 2706 1503 
Q 2706 1984 2436 2262 
Q 2166 2541 1728 2541 
Q 1456 2541 1237 2417 
Q 1019 2294 894 2097 
L 366 2166 
L 809 4519 
L 3088 4519 
L 3088 3981 
L 1259 3981 
L 1013 2750 
Q 1425 3038 1878 3038 
Q 2478 3038 2890 2622 
Q 3303 2206 3303 1553 
Q 3303 931 2941 478 
Q 2500 -78 1738 -78 
Q 1113 -78 717 272 
Q 322 622 266 1200 
z
" transform="scale(0.015625)"/>
       </defs>
       <use xlink:href="#ArialMT-35"/>
       <use xlink:href="#ArialMT-30" x="55.615234"/>
      </g>
     </g>
    </g>
    <g id="xtick_3">
     <g id="line2d_3">
      <g>
       <use xlink:href="#m34055a87f2" x="219.14038" y="361.300875" style="stroke: #000000; stroke-width: 0.8"/>
      </g>
     </g>
     <g id="text_3">
      <!-- 100 -->
      <g transform="translate(204.125848 381.184937) scale(0.18 -0.18)">
       <defs>
        <path id="ArialMT-31" d="M 2384 0 
L 1822 0 
L 1822 3584 
Q 1619 3391 1289 3197 
Q 959 3003 697 2906 
L 697 3450 
Q 1169 3672 1522 3987 
Q 1875 4303 2022 4600 
L 2384 4600 
L 2384 0 
z
" transform="scale(0.015625)"/>
       </defs>
       <use xlink:href="#ArialMT-31"/>
       <use xlink:href="#ArialMT-30" x="55.615234"/>
       <use xlink:href="#ArialMT-30" x="111.230469"/>
      </g>
     </g>
    </g>
    <g id="xtick_4">
     <g id="line2d_4">
      <g>
       <use xlink:href="#m34055a87f2" x="291.138057" y="361.300875" style="stroke: #000000; stroke-width: 0.8"/>
      </g>
     </g>
     <g id="text_4">
      <!-- 150 -->
      <g transform="translate(276.123526 381.184937) scale(0.18 -0.18)">
       <use xlink:href="#ArialMT-31"/>
       <use xlink:href="#ArialMT-35" x="55.615234"/>
       <use xlink:href="#ArialMT-30" x="111.230469"/>
      </g>
     </g>
    </g>
    <g id="xtick_5">
     <g id="line2d_5">
      <g>
       <use xlink:href="#m34055a87f2" x="363.135735" y="361.300875" style="stroke: #000000; stroke-width: 0.8"/>
      </g>
     </g>
     <g id="text_5">
      <!-- 200 -->
      <g transform="translate(348.121203 381.184937) scale(0.18 -0.18)">
       <defs>
        <path id="ArialMT-32" d="M 3222 541 
L 3222 0 
L 194 0 
Q 188 203 259 391 
Q 375 700 629 1000 
Q 884 1300 1366 1694 
Q 2113 2306 2375 2664 
Q 2638 3022 2638 3341 
Q 2638 3675 2398 3904 
Q 2159 4134 1775 4134 
Q 1369 4134 1125 3890 
Q 881 3647 878 3216 
L 300 3275 
Q 359 3922 746 4261 
Q 1134 4600 1788 4600 
Q 2447 4600 2831 4234 
Q 3216 3869 3216 3328 
Q 3216 3053 3103 2787 
Q 2991 2522 2730 2228 
Q 2469 1934 1863 1422 
Q 1356 997 1212 845 
Q 1069 694 975 541 
L 3222 541 
z
" transform="scale(0.015625)"/>
       </defs>
       <use xlink:href="#ArialMT-32"/>
       <use xlink:href="#ArialMT-30" x="55.615234"/>
       <use xlink:href="#ArialMT-30" x="111.230469"/>
      </g>
     </g>
    </g>
    <g id="xtick_6">
     <g id="line2d_6">
      <g>
       <use xlink:href="#m34055a87f2" x="435.133412" y="361.300875" style="stroke: #000000; stroke-width: 0.8"/>
      </g>
     </g>
     <g id="text_6">
      <!-- 250 -->
      <g transform="translate(420.118881 381.184937) scale(0.18 -0.18)">
       <use xlink:href="#ArialMT-32"/>
       <use xlink:href="#ArialMT-35" x="55.615234"/>
       <use xlink:href="#ArialMT-30" x="111.230469"/>
      </g>
     </g>
    </g>
    <g id="xtick_7">
     <g id="line2d_7">
      <g>
       <use xlink:href="#m34055a87f2" x="507.13109" y="361.300875" style="stroke: #000000; stroke-width: 0.8"/>
      </g>
     </g>
     <g id="text_7">
      <!-- 300 -->
      <g transform="translate(492.116558 381.184937) scale(0.18 -0.18)">
       <defs>
        <path id="ArialMT-33" d="M 269 1209 
L 831 1284 
Q 928 806 1161 595 
Q 1394 384 1728 384 
Q 2125 384 2398 659 
Q 2672 934 2672 1341 
Q 2672 1728 2419 1979 
Q 2166 2231 1775 2231 
Q 1616 2231 1378 2169 
L 1441 2663 
Q 1497 2656 1531 2656 
Q 1891 2656 2178 2843 
Q 2466 3031 2466 3422 
Q 2466 3731 2256 3934 
Q 2047 4138 1716 4138 
Q 1388 4138 1169 3931 
Q 950 3725 888 3313 
L 325 3413 
Q 428 3978 793 4289 
Q 1159 4600 1703 4600 
Q 2078 4600 2393 4439 
Q 2709 4278 2876 4000 
Q 3044 3722 3044 3409 
Q 3044 3113 2884 2869 
Q 2725 2625 2413 2481 
Q 2819 2388 3044 2092 
Q 3269 1797 3269 1353 
Q 3269 753 2831 336 
Q 2394 -81 1725 -81 
Q 1122 -81 723 278 
Q 325 638 269 1209 
z
" transform="scale(0.015625)"/>
       </defs>
       <use xlink:href="#ArialMT-33"/>
       <use xlink:href="#ArialMT-30" x="55.615234"/>
       <use xlink:href="#ArialMT-30" x="111.230469"/>
      </g>
     </g>
    </g>
    <g id="text_8">
     <!-- Strain(%) -->
     <g transform="translate(260.824531 401.865875) scale(0.18 -0.18)">
      <defs>
       <path id="ArialMT-53" d="M 288 1472 
L 859 1522 
Q 900 1178 1048 958 
Q 1197 738 1509 602 
Q 1822 466 2213 466 
Q 2559 466 2825 569 
Q 3091 672 3220 851 
Q 3350 1031 3350 1244 
Q 3350 1459 3225 1620 
Q 3100 1781 2813 1891 
Q 2628 1963 1997 2114 
Q 1366 2266 1113 2400 
Q 784 2572 623 2826 
Q 463 3081 463 3397 
Q 463 3744 659 4045 
Q 856 4347 1234 4503 
Q 1613 4659 2075 4659 
Q 2584 4659 2973 4495 
Q 3363 4331 3572 4012 
Q 3781 3694 3797 3291 
L 3216 3247 
Q 3169 3681 2898 3903 
Q 2628 4125 2100 4125 
Q 1550 4125 1298 3923 
Q 1047 3722 1047 3438 
Q 1047 3191 1225 3031 
Q 1400 2872 2139 2705 
Q 2878 2538 3153 2413 
Q 3553 2228 3743 1945 
Q 3934 1663 3934 1294 
Q 3934 928 3725 604 
Q 3516 281 3123 101 
Q 2731 -78 2241 -78 
Q 1619 -78 1198 103 
Q 778 284 539 648 
Q 300 1013 288 1472 
z
" transform="scale(0.015625)"/>
       <path id="ArialMT-74" d="M 1650 503 
L 1731 6 
Q 1494 -44 1306 -44 
Q 1000 -44 831 53 
Q 663 150 594 308 
Q 525 466 525 972 
L 525 2881 
L 113 2881 
L 113 3319 
L 525 3319 
L 525 4141 
L 1084 4478 
L 1084 3319 
L 1650 3319 
L 1650 2881 
L 1084 2881 
L 1084 941 
Q 1084 700 1114 631 
Q 1144 563 1211 522 
Q 1278 481 1403 481 
Q 1497 481 1650 503 
z
" transform="scale(0.015625)"/>
       <path id="ArialMT-72" d="M 416 0 
L 416 3319 
L 922 3319 
L 922 2816 
Q 1116 3169 1280 3281 
Q 1444 3394 1641 3394 
Q 1925 3394 2219 3213 
L 2025 2691 
Q 1819 2813 1613 2813 
Q 1428 2813 1281 2702 
Q 1134 2591 1072 2394 
Q 978 2094 978 1738 
L 978 0 
L 416 0 
z
" transform="scale(0.015625)"/>
       <path id="ArialMT-61" d="M 2588 409 
Q 2275 144 1986 34 
Q 1697 -75 1366 -75 
Q 819 -75 525 192 
Q 231 459 231 875 
Q 231 1119 342 1320 
Q 453 1522 633 1644 
Q 813 1766 1038 1828 
Q 1203 1872 1538 1913 
Q 2219 1994 2541 2106 
Q 2544 2222 2544 2253 
Q 2544 2597 2384 2738 
Q 2169 2928 1744 2928 
Q 1347 2928 1158 2789 
Q 969 2650 878 2297 
L 328 2372 
Q 403 2725 575 2942 
Q 747 3159 1072 3276 
Q 1397 3394 1825 3394 
Q 2250 3394 2515 3294 
Q 2781 3194 2906 3042 
Q 3031 2891 3081 2659 
Q 3109 2516 3109 2141 
L 3109 1391 
Q 3109 606 3145 398 
Q 3181 191 3288 0 
L 2700 0 
Q 2613 175 2588 409 
z
M 2541 1666 
Q 2234 1541 1622 1453 
Q 1275 1403 1131 1340 
Q 988 1278 909 1158 
Q 831 1038 831 891 
Q 831 666 1001 516 
Q 1172 366 1500 366 
Q 1825 366 2078 508 
Q 2331 650 2450 897 
Q 2541 1088 2541 1459 
L 2541 1666 
z
" transform="scale(0.015625)"/>
       <path id="ArialMT-69" d="M 425 3934 
L 425 4581 
L 988 4581 
L 988 3934 
L 425 3934 
z
M 425 0 
L 425 3319 
L 988 3319 
L 988 0 
L 425 0 
z
" transform="scale(0.015625)"/>
       <path id="ArialMT-6e" d="M 422 0 
L 422 3319 
L 928 3319 
L 928 2847 
Q 1294 3394 1984 3394 
Q 2284 3394 2536 3286 
Q 2788 3178 2913 3003 
Q 3038 2828 3088 2588 
Q 3119 2431 3119 2041 
L 3119 0 
L 2556 0 
L 2556 2019 
Q 2556 2363 2490 2533 
Q 2425 2703 2258 2804 
Q 2091 2906 1866 2906 
Q 1506 2906 1245 2678 
Q 984 2450 984 1813 
L 984 0 
L 422 0 
z
" transform="scale(0.015625)"/>
       <path id="ArialMT-28" d="M 1497 -1347 
Q 1031 -759 709 28 
Q 388 816 388 1659 
Q 388 2403 628 3084 
Q 909 3875 1497 4659 
L 1900 4659 
Q 1522 4009 1400 3731 
Q 1209 3300 1100 2831 
Q 966 2247 966 1656 
Q 966 153 1900 -1347 
L 1497 -1347 
z
" transform="scale(0.015625)"/>
       <path id="ArialMT-25" d="M 372 3481 
Q 372 3972 619 4315 
Q 866 4659 1334 4659 
Q 1766 4659 2048 4351 
Q 2331 4044 2331 3447 
Q 2331 2866 2045 2552 
Q 1759 2238 1341 2238 
Q 925 2238 648 2547 
Q 372 2856 372 3481 
z
M 1350 4272 
Q 1141 4272 1002 4090 
Q 863 3909 863 3425 
Q 863 2984 1003 2804 
Q 1144 2625 1350 2625 
Q 1563 2625 1702 2806 
Q 1841 2988 1841 3469 
Q 1841 3913 1700 4092 
Q 1559 4272 1350 4272 
z
M 1353 -169 
L 3859 4659 
L 4316 4659 
L 1819 -169 
L 1353 -169 
z
M 3334 1075 
Q 3334 1569 3581 1911 
Q 3828 2253 4300 2253 
Q 4731 2253 5014 1945 
Q 5297 1638 5297 1041 
Q 5297 459 5011 145 
Q 4725 -169 4303 -169 
Q 3888 -169 3611 142 
Q 3334 453 3334 1075 
z
M 4316 1866 
Q 4103 1866 3964 1684 
Q 3825 1503 3825 1019 
Q 3825 581 3965 400 
Q 4106 219 4313 219 
Q 4528 219 4667 400 
Q 4806 581 4806 1063 
Q 4806 1506 4665 1686 
Q 4525 1866 4316 1866 
z
" transform="scale(0.015625)"/>
       <path id="ArialMT-29" d="M 791 -1347 
L 388 -1347 
Q 1322 153 1322 1656 
Q 1322 2244 1188 2822 
Q 1081 3291 891 3722 
Q 769 4003 388 4659 
L 791 4659 
Q 1378 3875 1659 3084 
Q 1900 2403 1900 1659 
Q 1900 816 1576 28 
Q 1253 -759 791 -1347 
z
" transform="scale(0.015625)"/>
      </defs>
      <use xlink:href="#ArialMT-53"/>
      <use xlink:href="#ArialMT-74" x="66.699219"/>
      <use xlink:href="#ArialMT-72" x="94.482422"/>
      <use xlink:href="#ArialMT-61" x="127.783203"/>
      <use xlink:href="#ArialMT-69" x="183.398438"/>
      <use xlink:href="#ArialMT-6e" x="205.615234"/>
      <use xlink:href="#ArialMT-28" x="261.230469"/>
      <use xlink:href="#ArialMT-25" x="294.53125"/>
      <use xlink:href="#ArialMT-29" x="383.447266"/>
     </g>
    </g>
   </g>
   <g id="matplotlib.axis_2">
    <g id="ytick_1">
     <g id="line2d_8">
      <defs>
       <path id="m2bcae9320f" d="M 0 0 
L -3.5 0 
" style="stroke: #000000; stroke-width: 0.8"/>
      </defs>
      <g>
       <use xlink:href="#m2bcae9320f" x="75.130625" y="361.300875" style="stroke: #000000; stroke-width: 0.8"/>
      </g>
     </g>
     <g id="text_9">
      <!-- 0 -->
      <g transform="translate(58.120938 367.742906) scale(0.18 -0.18)">
       <use xlink:href="#ArialMT-30"/>
      </g>
     </g>
    </g>
    <g id="ytick_2">
     <g id="line2d_9">
      <g>
       <use xlink:href="#m2bcae9320f" x="75.130625" y="319.720875" style="stroke: #000000; stroke-width: 0.8"/>
      </g>
     </g>
     <g id="text_10">
      <!-- 500 -->
      <g transform="translate(38.101563 326.162906) scale(0.18 -0.18)">
       <use xlink:href="#ArialMT-35"/>
       <use xlink:href="#ArialMT-30" x="55.615234"/>
       <use xlink:href="#ArialMT-30" x="111.230469"/>
      </g>
     </g>
    </g>
    <g id="ytick_3">
     <g id="line2d_10">
      <g>
       <use xlink:href="#m2bcae9320f" x="75.130625" y="278.140875" style="stroke: #000000; stroke-width: 0.8"/>
      </g>
     </g>
     <g id="text_11">
      <!-- 1000 -->
      <g transform="translate(28.091875 284.582906) scale(0.18 -0.18)">
       <use xlink:href="#ArialMT-31"/>
       <use xlink:href="#ArialMT-30" x="55.615234"/>
       <use xlink:href="#ArialMT-30" x="111.230469"/>
       <use xlink:href="#ArialMT-30" x="166.845703"/>
      </g>
     </g>
    </g>
    <g id="ytick_4">
     <g id="line2d_11">
      <g>
       <use xlink:href="#m2bcae9320f" x="75.130625" y="236.560875" style="stroke: #000000; stroke-width: 0.8"/>
      </g>
     </g>
     <g id="text_12">
      <!-- 1500 -->
      <g transform="translate(28.091875 243.002906) scale(0.18 -0.18)">
       <use xlink:href="#ArialMT-31"/>
       <use xlink:href="#ArialMT-35" x="55.615234"/>
       <use xlink:href="#ArialMT-30" x="111.230469"/>
       <use xlink:href="#ArialMT-30" x="166.845703"/>
      </g>
     </g>
    </g>
    <g id="ytick_5">
     <g id="line2d_12">
      <g>
       <use xlink:href="#m2bcae9320f" x="75.130625" y="194.980875" style="stroke: #000000; stroke-width: 0.8"/>
      </g>
     </g>
     <g id="text_13">
      <!-- 2000 -->
      <g transform="translate(28.091875 201.422906) scale(0.18 -0.18)">
       <use xlink:href="#ArialMT-32"/>
       <use xlink:href="#ArialMT-30" x="55.615234"/>
       <use xlink:href="#ArialMT-30" x="111.230469"/>
       <use xlink:href="#ArialMT-30" x="166.845703"/>
      </g>
     </g>
    </g>
    <g id="ytick_6">
     <g id="line2d_13">
      <g>
       <use xlink:href="#m2bcae9320f" x="75.130625" y="153.400875" style="stroke: #000000; stroke-width: 0.8"/>
      </g>
     </g>
     <g id="text_14">
      <!-- 2500 -->
      <g transform="translate(28.091875 159.842906) scale(0.18 -0.18)">
       <use xlink:href="#ArialMT-32"/>
       <use xlink:href="#ArialMT-35" x="55.615234"/>
       <use xlink:href="#ArialMT-30" x="111.230469"/>
       <use xlink:href="#ArialMT-30" x="166.845703"/>
      </g>
     </g>
    </g>
    <g id="ytick_7">
     <g id="line2d_14">
      <g>
       <use xlink:href="#m2bcae9320f" x="75.130625" y="111.820875" style="stroke: #000000; stroke-width: 0.8"/>
      </g>
     </g>
     <g id="text_15">
      <!-- 3000 -->
      <g transform="translate(28.091875 118.262906) scale(0.18 -0.18)">
       <use xlink:href="#ArialMT-33"/>
       <use xlink:href="#ArialMT-30" x="55.615234"/>
       <use xlink:href="#ArialMT-30" x="111.230469"/>
       <use xlink:href="#ArialMT-30" x="166.845703"/>
      </g>
     </g>
    </g>
    <g id="ytick_8">
     <g id="line2d_15">
      <g>
       <use xlink:href="#m2bcae9320f" x="75.130625" y="70.240875" style="stroke: #000000; stroke-width: 0.8"/>
      </g>
     </g>
     <g id="text_16">
      <!-- 3500 -->
      <g transform="translate(28.091875 76.682906) scale(0.18 -0.18)">
       <use xlink:href="#ArialMT-33"/>
       <use xlink:href="#ArialMT-35" x="55.615234"/>
       <use xlink:href="#ArialMT-30" x="111.230469"/>
       <use xlink:href="#ArialMT-30" x="166.845703"/>
      </g>
     </g>
    </g>
    <g id="ytick_9">
     <g id="line2d_16">
      <g>
       <use xlink:href="#m2bcae9320f" x="75.130625" y="28.660875" style="stroke: #000000; stroke-width: 0.8"/>
      </g>
     </g>
     <g id="text_17">
      <!-- 4000 -->
      <g transform="translate(28.091875 35.102906) scale(0.18 -0.18)">
       <defs>
        <path id="ArialMT-34" d="M 2069 0 
L 2069 1097 
L 81 1097 
L 81 1613 
L 2172 4581 
L 2631 4581 
L 2631 1613 
L 3250 1613 
L 3250 1097 
L 2631 1097 
L 2631 0 
L 2069 0 
z
M 2069 1613 
L 2069 3678 
L 634 1613 
L 2069 1613 
z
" transform="scale(0.015625)"/>
       </defs>
       <use xlink:href="#ArialMT-34"/>
       <use xlink:href="#ArialMT-30" x="55.615234"/>
       <use xlink:href="#ArialMT-30" x="111.230469"/>
       <use xlink:href="#ArialMT-30" x="166.845703"/>
      </g>
     </g>
    </g>
    <g id="text_18">
     <!-- Stress(MPa) -->
     <g transform="translate(20.303438 244.984312) rotate(-90) scale(0.18 -0.18)">
      <defs>
       <path id="ArialMT-65" d="M 2694 1069 
L 3275 997 
Q 3138 488 2766 206 
Q 2394 -75 1816 -75 
Q 1088 -75 661 373 
Q 234 822 234 1631 
Q 234 2469 665 2931 
Q 1097 3394 1784 3394 
Q 2450 3394 2872 2941 
Q 3294 2488 3294 1666 
Q 3294 1616 3291 1516 
L 816 1516 
Q 847 969 1125 678 
Q 1403 388 1819 388 
Q 2128 388 2347 550 
Q 2566 713 2694 1069 
z
M 847 1978 
L 2700 1978 
Q 2663 2397 2488 2606 
Q 2219 2931 1791 2931 
Q 1403 2931 1139 2672 
Q 875 2413 847 1978 
z
" transform="scale(0.015625)"/>
       <path id="ArialMT-73" d="M 197 991 
L 753 1078 
Q 800 744 1014 566 
Q 1228 388 1613 388 
Q 2000 388 2187 545 
Q 2375 703 2375 916 
Q 2375 1106 2209 1216 
Q 2094 1291 1634 1406 
Q 1016 1563 777 1677 
Q 538 1791 414 1992 
Q 291 2194 291 2438 
Q 291 2659 392 2848 
Q 494 3038 669 3163 
Q 800 3259 1026 3326 
Q 1253 3394 1513 3394 
Q 1903 3394 2198 3281 
Q 2494 3169 2634 2976 
Q 2775 2784 2828 2463 
L 2278 2388 
Q 2241 2644 2061 2787 
Q 1881 2931 1553 2931 
Q 1166 2931 1000 2803 
Q 834 2675 834 2503 
Q 834 2394 903 2306 
Q 972 2216 1119 2156 
Q 1203 2125 1616 2013 
Q 2213 1853 2448 1751 
Q 2684 1650 2818 1456 
Q 2953 1263 2953 975 
Q 2953 694 2789 445 
Q 2625 197 2315 61 
Q 2006 -75 1616 -75 
Q 969 -75 630 194 
Q 291 463 197 991 
z
" transform="scale(0.015625)"/>
       <path id="ArialMT-4d" d="M 475 0 
L 475 4581 
L 1388 4581 
L 2472 1338 
Q 2622 884 2691 659 
Q 2769 909 2934 1394 
L 4031 4581 
L 4847 4581 
L 4847 0 
L 4263 0 
L 4263 3834 
L 2931 0 
L 2384 0 
L 1059 3900 
L 1059 0 
L 475 0 
z
" transform="scale(0.015625)"/>
       <path id="ArialMT-50" d="M 494 0 
L 494 4581 
L 2222 4581 
Q 2678 4581 2919 4538 
Q 3256 4481 3484 4323 
Q 3713 4166 3852 3881 
Q 3991 3597 3991 3256 
Q 3991 2672 3619 2267 
Q 3247 1863 2275 1863 
L 1100 1863 
L 1100 0 
L 494 0 
z
M 1100 2403 
L 2284 2403 
Q 2872 2403 3119 2622 
Q 3366 2841 3366 3238 
Q 3366 3525 3220 3729 
Q 3075 3934 2838 4000 
Q 2684 4041 2272 4041 
L 1100 4041 
L 1100 2403 
z
" transform="scale(0.015625)"/>
      </defs>
      <use xlink:href="#ArialMT-53"/>
      <use xlink:href="#ArialMT-74" x="66.699219"/>
      <use xlink:href="#ArialMT-72" x="94.482422"/>
      <use xlink:href="#ArialMT-65" x="127.783203"/>
      <use xlink:href="#ArialMT-73" x="183.398438"/>
      <use xlink:href="#ArialMT-73" x="233.398438"/>
      <use xlink:href="#ArialMT-28" x="283.398438"/>
      <use xlink:href="#ArialMT-4d" x="316.699219"/>
      <use xlink:href="#ArialMT-50" x="400"/>
      <use xlink:href="#ArialMT-61" x="466.699219"/>
      <use xlink:href="#ArialMT-29" x="522.314453"/>
     </g>
    </g>
   </g>
   <g id="line2d_17">
    <path d="M 75.145025 353.221609 
L 79.694077 349.610292 
L 84.243129 346.294875 
L 88.792181 343.249394 
L 93.846683 340.152064 
L 98.901185 337.325268 
L 104.461137 334.492026 
L 110.02109 331.911379 
L 116.086493 329.342598 
L 122.657345 326.801968 
L 130.239099 324.120415 
L 138.831753 321.322426 
L 149.951657 317.945257 
L 190.893125 305.732528 
L 202.51848 301.913769 
L 213.638385 298.033124 
L 225.26374 293.735023 
L 237.394546 289.009425 
L 251.547152 283.248776 
L 275.303986 273.285123 
L 292.994744 265.976967 
L 304.620099 261.40135 
L 314.729104 257.655573 
L 323.827208 254.522312 
L 331.914411 251.961459 
L 339.496165 249.777406 
L 347.077918 247.823507 
L 354.154221 246.222784 
L 361.230524 244.849174 
L 368.306827 243.71151 
L 374.87768 242.871455 
L 381.448533 242.241792 
L 388.019386 241.821679 
L 395.095689 241.599051 
L 402.171992 241.6057 
L 409.248295 241.827631 
L 416.830049 242.282388 
L 425.422702 243.030662 
L 435.531707 244.151964 
L 467.880521 247.95765 
L 474.451374 248.406653 
L 480.516777 248.597675 
L 485.571279 248.549148 
L 490.625781 248.272331 
L 495.174833 247.795232 
L 499.218435 247.164056 
L 503.262037 246.31422 
L 507.305638 245.221733 
L 510.84379 244.046995 
L 514.381941 242.649596 
L 517.920093 241.011188 
L 521.458245 239.112687 
L 524.996396 236.934257 
L 528.534548 234.455296 
L 530.050898 233.295615 
L 530.050898 233.295615 
" clip-path="url(#pc697a14443)" style="fill: none; stroke: #1f77b4; stroke-width: 1.5; stroke-linecap: square"/>
   </g>
   <g id="line2d_18">
    <path d="M 75.145025 356.326079 
L 77.422529 352.90852 
L 79.705741 349.849758 
L 81.988954 347.129807 
L 84.272166 344.7211 
L 86.555378 342.597494 
L 88.838591 340.73423 
L 91.121803 339.107888 
L 93.975819 337.374546 
L 96.829834 335.936457 
L 99.68385 334.756102 
L 102.537865 333.798783 
L 105.962684 332.899538 
L 109.387502 332.225119 
L 113.383124 331.66224 
L 117.949549 331.2369 
L 124.228383 330.889507 
L 144.777294 329.951072 
L 151.626931 329.313144 
L 157.905765 328.502089 
L 164.184599 327.467198 
L 171.034236 326.096219 
L 178.454677 324.364204 
L 187.016723 322.126268 
L 204.711619 317.183548 
L 214.986075 314.469409 
L 222.406515 312.725939 
L 229.256152 311.340225 
L 235.534986 310.293021 
L 241.81382 309.481466 
L 247.521851 308.959075 
L 253.229882 308.645107 
L 258.937913 308.53624 
L 265.216747 308.641702 
L 271.495581 308.962204 
L 278.916021 309.577046 
L 287.478068 310.525122 
L 317.731773 314.125942 
L 324.58141 314.581831 
L 330.860244 314.767321 
L 336.568275 314.713411 
L 342.276306 314.430522 
L 347.984337 313.913242 
L 353.692368 313.169322 
L 359.971202 312.117661 
L 367.391642 310.637669 
L 383.374129 307.364321 
L 387.940554 306.687938 
L 391.936175 306.312854 
L 395.360994 306.208537 
L 398.215009 306.312879 
L 401.069025 306.625084 
L 403.92304 307.179855 
L 406.206253 307.823447 
L 408.489465 308.666828 
L 410.772678 309.731829 
L 413.05589 311.041576 
L 415.339102 312.620529 
L 417.622315 314.494528 
L 417.622315 314.494528 
" clip-path="url(#pc697a14443)" style="fill: none; stroke: #ff7f0e; stroke-width: 1.5; stroke-linecap: square"/>
   </g>
   <g id="line2d_19">
    <path d="M 75.145025 357.049094 
L 77.281251 353.484685 
L 79.421758 350.321658 
L 81.562266 347.533875 
L 83.702773 345.089513 
L 85.84328 342.958583 
L 87.983788 341.112858 
L 90.124295 339.525814 
L 92.692904 337.927893 
L 95.261513 336.626705 
L 97.830122 335.585355 
L 100.39873 334.769922 
L 103.395441 334.062793 
L 106.392151 333.576196 
L 109.816963 333.238921 
L 113.669876 333.075916 
L 118.378992 333.097997 
L 125.228616 333.381021 
L 143.208878 334.244332 
L 150.914704 334.333877 
L 158.620531 334.196867 
L 167.18256 333.815967 
L 179.169401 333.036878 
L 196.29346 331.937734 
L 205.711693 331.564589 
L 214.273722 331.439559 
L 223.263282 331.530249 
L 233.965819 331.869836 
L 256.655197 332.663016 
L 264.361023 332.661731 
L 271.210647 332.437964 
L 277.632169 332.005402 
L 284.053691 331.349556 
L 290.903315 330.428073 
L 301.17775 328.787133 
L 309.311678 327.567179 
L 314.020794 327.065526 
L 317.873707 326.860948 
L 321.298519 326.898024 
L 324.29523 327.148119 
L 326.863838 327.559798 
L 329.432447 328.186578 
L 332.001056 329.06267 
L 332.001056 329.06267 
" clip-path="url(#pc697a14443)" style="fill: none; stroke: #2ca02c; stroke-width: 1.5; stroke-linecap: square"/>
   </g>
   <g id="patch_3">
    <path d="M 75.130625 361.300875 
L 75.130625 28.660875 
" style="fill: none; stroke: #000000; stroke-width: 0.8; stroke-linejoin: miter; stroke-linecap: square"/>
   </g>
   <g id="patch_4">
    <path d="M 521.530625 361.300875 
L 521.530625 28.660875 
" style="fill: none; stroke: #000000; stroke-width: 0.8; stroke-linejoin: miter; stroke-linecap: square"/>
   </g>
   <g id="patch_5">
    <path d="M 75.130625 361.300875 
L 521.530625 361.300875 
" style="fill: none; stroke: #000000; stroke-width: 0.8; stroke-linejoin: miter; stroke-linecap: square"/>
   </g>
   <g id="patch_6">
    <path d="M 75.130625 28.660875 
L 521.530625 28.660875 
" style="fill: none; stroke: #000000; stroke-width: 0.8; stroke-linejoin: miter; stroke-linecap: square"/>
   </g>
   <g id="text_19">
    <!-- SS4I Stress-Strain Curve -->
    <g transform="translate(177.694625 22.660875) scale(0.216 -0.216)">
     <defs>
      <path id="ArialMT-49" d="M 597 0 
L 597 4581 
L 1203 4581 
L 1203 0 
L 597 0 
z
" transform="scale(0.015625)"/>
      <path id="ArialMT-20" transform="scale(0.015625)"/>
      <path id="ArialMT-2d" d="M 203 1375 
L 203 1941 
L 1931 1941 
L 1931 1375 
L 203 1375 
z
" transform="scale(0.015625)"/>
      <path id="ArialMT-43" d="M 3763 1606 
L 4369 1453 
Q 4178 706 3683 314 
Q 3188 -78 2472 -78 
Q 1731 -78 1267 223 
Q 803 525 561 1097 
Q 319 1669 319 2325 
Q 319 3041 592 3573 
Q 866 4106 1370 4382 
Q 1875 4659 2481 4659 
Q 3169 4659 3637 4309 
Q 4106 3959 4291 3325 
L 3694 3184 
Q 3534 3684 3231 3912 
Q 2928 4141 2469 4141 
Q 1941 4141 1586 3887 
Q 1231 3634 1087 3207 
Q 944 2781 944 2328 
Q 944 1744 1114 1308 
Q 1284 872 1643 656 
Q 2003 441 2422 441 
Q 2931 441 3284 734 
Q 3638 1028 3763 1606 
z
" transform="scale(0.015625)"/>
      <path id="ArialMT-75" d="M 2597 0 
L 2597 488 
Q 2209 -75 1544 -75 
Q 1250 -75 995 37 
Q 741 150 617 320 
Q 494 491 444 738 
Q 409 903 409 1263 
L 409 3319 
L 972 3319 
L 972 1478 
Q 972 1038 1006 884 
Q 1059 663 1231 536 
Q 1403 409 1656 409 
Q 1909 409 2131 539 
Q 2353 669 2445 892 
Q 2538 1116 2538 1541 
L 2538 3319 
L 3100 3319 
L 3100 0 
L 2597 0 
z
" transform="scale(0.015625)"/>
      <path id="ArialMT-76" d="M 1344 0 
L 81 3319 
L 675 3319 
L 1388 1331 
Q 1503 1009 1600 663 
Q 1675 925 1809 1294 
L 2547 3319 
L 3125 3319 
L 1869 0 
L 1344 0 
z
" transform="scale(0.015625)"/>
     </defs>
     <use xlink:href="#ArialMT-53"/>
     <use xlink:href="#ArialMT-53" x="66.699219"/>
     <use xlink:href="#ArialMT-34" x="133.398438"/>
     <use xlink:href="#ArialMT-49" x="189.013672"/>
     <use xlink:href="#ArialMT-20" x="216.796875"/>
     <use xlink:href="#ArialMT-53" x="244.580078"/>
     <use xlink:href="#ArialMT-74" x="311.279297"/>
     <use xlink:href="#ArialMT-72" x="339.0625"/>
     <use xlink:href="#ArialMT-65" x="372.363281"/>
     <use xlink:href="#ArialMT-73" x="427.978516"/>
     <use xlink:href="#ArialMT-73" x="477.978516"/>
     <use xlink:href="#ArialMT-2d" x="527.978516"/>
     <use xlink:href="#ArialMT-53" x="561.279297"/>
     <use xlink:href="#ArialMT-74" x="627.978516"/>
     <use xlink:href="#ArialMT-72" x="655.761719"/>
     <use xlink:href="#ArialMT-61" x="689.0625"/>
     <use xlink:href="#ArialMT-69" x="744.677734"/>
     <use xlink:href="#ArialMT-6e" x="766.894531"/>
     <use xlink:href="#ArialMT-20" x="822.509766"/>
     <use xlink:href="#ArialMT-43" x="850.292969"/>
     <use xlink:href="#ArialMT-75" x="922.509766"/>
     <use xlink:href="#ArialMT-72" x="978.125"/>
     <use xlink:href="#ArialMT-76" x="1011.425781"/>
     <use xlink:href="#ArialMT-65" x="1061.425781"/>
    </g>
   </g>
   <g id="legend_1">
    <g id="patch_7">
     <path d="M 439.324062 119.445563 
L 508.930625 119.445563 
Q 512.530625 119.445563 512.530625 115.845563 
L 512.530625 41.260875 
Q 512.530625 37.660875 508.930625 37.660875 
L 439.324062 37.660875 
Q 435.724062 37.660875 435.724062 41.260875 
L 435.724062 115.845563 
Q 435.724062 119.445563 439.324062 119.445563 
z
" style="fill: #ffffff; opacity: 0.8; stroke: #cccccc; stroke-linejoin: miter"/>
    </g>
    <g id="line2d_20">
     <path d="M 442.924062 51.444938 
L 460.924062 51.444938 
L 478.924062 51.444938 
" style="fill: none; stroke: #1f77b4; stroke-width: 1.5; stroke-linecap: square"/>
    </g>
    <g id="text_20">
     <!-- X -->
     <g transform="translate(493.324062 57.744938) scale(0.18 -0.18)">
      <defs>
       <path id="ArialMT-58" d="M 28 0 
L 1800 2388 
L 238 4581 
L 959 4581 
L 1791 3406 
Q 2050 3041 2159 2844 
Q 2313 3094 2522 3366 
L 3444 4581 
L 4103 4581 
L 2494 2422 
L 4228 0 
L 3478 0 
L 2325 1634 
Q 2228 1775 2125 1941 
Q 1972 1691 1906 1597 
L 756 0 
L 28 0 
z
" transform="scale(0.015625)"/>
      </defs>
      <use xlink:href="#ArialMT-58"/>
     </g>
    </g>
    <g id="line2d_21">
     <path d="M 442.924062 76.9065 
L 460.924062 76.9065 
L 478.924062 76.9065 
" style="fill: none; stroke: #ff7f0e; stroke-width: 1.5; stroke-linecap: square"/>
    </g>
    <g id="text_21">
     <!-- Y -->
     <g transform="translate(493.324062 83.2065) scale(0.18 -0.18)">
      <defs>
       <path id="ArialMT-59" d="M 1784 0 
L 1784 1941 
L 19 4581 
L 756 4581 
L 1659 3200 
Q 1909 2813 2125 2425 
Q 2331 2784 2625 3234 
L 3513 4581 
L 4219 4581 
L 2391 1941 
L 2391 0 
L 1784 0 
z
" transform="scale(0.015625)"/>
      </defs>
      <use xlink:href="#ArialMT-59"/>
     </g>
    </g>
    <g id="line2d_22">
     <path d="M 442.924062 102.368063 
L 460.924062 102.368063 
L 478.924062 102.368063 
" style="fill: none; stroke: #2ca02c; stroke-width: 1.5; stroke-linecap: square"/>
    </g>
    <g id="text_22">
     <!-- Z -->
     <g transform="translate(493.324062 108.668063) scale(0.18 -0.18)">
      <defs>
       <path id="ArialMT-5a" d="M 128 0 
L 128 563 
L 2475 3497 
Q 2725 3809 2950 4041 
L 394 4041 
L 394 4581 
L 3675 4581 
L 3675 4041 
L 1103 863 
L 825 541 
L 3750 541 
L 3750 0 
L 128 0 
z
" transform="scale(0.015625)"/>
      </defs>
      <use xlink:href="#ArialMT-5a"/>
     </g>
    </g>
   </g>
  </g>
 </g>
 <defs>
  <clipPath id="pc697a14443">
   <rect x="75.130625" y="28.660875" width="446.4" height="332.64"/>
  </clipPath>
 </defs>
</svg>
