<?xml version="1.0" encoding="utf-8" standalone="no"?>
<!DOCTYPE svg PUBLIC "-//W3C//DTD SVG 1.1//EN"
  "http://www.w3.org/Graphics/SVG/1.1/DTD/svg11.dtd">
<svg xmlns:xlink="http://www.w3.org/1999/xlink" width="529.345621pt" height="412.854312pt" viewBox="0 0 529.345621 412.854312" xmlns="http://www.w3.org/2000/svg" version="1.1">
 <metadata>
  <rdf:RDF xmlns:dc="http://purl.org/dc/elements/1.1/" xmlns:cc="http://creativecommons.org/ns#" xmlns:rdf="http://www.w3.org/1999/02/22-rdf-syntax-ns#">
   <cc:Work>
    <dc:type rdf:resource="http://purl.org/dc/dcmitype/StillImage"/>
    <dc:date>2025-11-12T10:49:50.374814</dc:date>
    <dc:format>image/svg+xml</dc:format>
    <dc:creator>
     <cc:Agent>
      <dc:title>Matplotlib v3.9.0, https://matplotlib.org/</dc:title>
     </cc:Agent>
    </dc:creator>
   </cc:Work>
  </rdf:RDF>
 </metadata>
 <defs>
  <style type="text/css">*{stroke-linejoin: round; stroke-linecap: butt}</style>
 </defs>
 <g id="figure_1">
  <g id="patch_1">
   <path d="M 0 412.854312 
L 529.345621 412.854312 
L 529.345621 0 
L 0 0 
z
" style="fill: #ffffff"/>
  </g>
  <g id="axes_1">
   <g id="patch_2">
    <path d="M 75.130625 361.300875 
L 521.530625 361.300875 
L 521.530625 28.660875 
L 75.130625 28.660875 
z
" style="fill: #ffffff"/>
   </g>
   <g id="PolyCollection_1">
    <path d="M 75.145025 354.256961 
L 75.145025 359.369581 
L 77.672276 358.032532 
L 80.199527 356.324557 
L 82.726778 354.369545 
L 85.254029 352.269937 
L 87.78128 350.109199 
L 90.308531 347.95409 
L 92.835782 345.856739 
L 95.363033 343.856549 
L 97.890285 341.981932 
L 100.417536 340.251881 
L 102.944787 338.677402 
L 105.472038 337.262803 
L 107.999289 336.006858 
L 110.52654 334.903846 
L 113.053791 333.94448 
L 115.581042 333.116733 
L 118.108293 332.406566 
L 120.635545 331.798565 
L 123.162796 331.276498 
L 125.690047 330.823795 
L 128.217298 330.423955 
L 130.744549 330.060892 
L 133.2718 329.719224 
L 135.799051 329.384501 
L 138.326302 329.043394 
L 140.853553 328.683833 
L 143.380805 328.29511 
L 145.908056 327.867945 
L 148.435307 327.394517 
L 150.962558 326.86848 
L 153.489809 326.284937 
L 156.01706 325.640408 
L 158.544311 324.932775 
L 161.071562 324.161207 
L 163.598813 323.326079 
L 166.126065 322.428882 
L 168.653316 321.472116 
L 171.180567 320.459187 
L 173.707818 319.394295 
L 176.235069 318.28232 
L 178.76232 317.12871 
L 181.289571 315.939363 
L 183.816822 314.720521 
L 186.344073 313.478656 
L 188.871324 312.22037 
L 191.398576 310.952291 
L 193.925827 309.680982 
L 196.453078 308.41285 
L 198.980329 307.154067 
L 201.50758 305.910492 
L 204.034831 304.687609 
L 206.562082 303.490465 
L 209.089333 302.323617 
L 211.616584 301.191093 
L 214.143836 300.096352 
L 216.671087 299.042261 
L 219.198338 298.031069 
L 221.725589 297.064401 
L 224.25284 296.143253 
L 226.780091 295.267988 
L 229.307342 294.438353 
L 231.834593 293.65349 
L 234.361844 292.911959 
L 236.889096 292.211765 
L 239.416347 291.550393 
L 241.943598 290.924842 
L 244.470849 290.331669 
L 246.9981 289.767036 
L 249.525351 289.226753 
L 252.052602 288.706337 
L 254.579853 288.201061 
L 257.107104 287.706012 
L 259.634356 287.216146 
L 262.161607 286.726348 
L 264.688858 286.231487 
L 267.216109 285.726478 
L 269.744034 285.206192 
L 272.271285 284.666076 
L 274.798536 284.101371 
L 277.325787 283.50772 
L 279.853038 282.881073 
L 282.38029 282.217741 
L 284.907541 281.514433 
L 287.434792 280.768302 
L 289.962043 279.976972 
L 292.489294 279.13858 
L 295.016545 278.251794 
L 297.543796 277.315843 
L 300.071047 276.330527 
L 302.598298 275.296237 
L 305.125549 274.213958 
L 307.652801 273.085272 
L 310.180052 271.912356 
L 312.707303 270.697975 
L 315.234554 269.445466 
L 317.761805 268.158719 
L 320.289056 266.842158 
L 322.816307 265.500706 
L 325.343558 264.139755 
L 327.870809 262.765129 
L 330.398061 261.383039 
L 332.925312 260.000034 
L 335.452563 258.622957 
L 337.979814 257.258883 
L 340.507065 255.915069 
L 343.034316 254.598886 
L 345.561567 253.317762 
L 348.088818 252.079115 
L 350.616069 250.890286 
L 353.143321 249.758473 
L 355.670572 248.690661 
L 358.197823 247.693556 
L 360.725074 246.773512 
L 363.252325 245.936474 
L 365.779576 245.1879 
L 368.306827 244.532708 
L 370.834078 243.975211 
L 373.361329 243.519059 
L 375.888581 243.167184 
L 378.415832 242.921756 
L 380.943083 242.784133 
L 383.470334 242.754823 
L 385.997585 242.833454 
L 388.524836 243.018741 
L 391.052087 243.308473 
L 393.579338 243.699497 
L 396.106589 244.187713 
L 398.633841 244.768079 
L 401.161092 245.434627 
L 403.688343 246.180477 
L 406.215594 246.997876 
L 408.742845 247.878232 
L 411.270096 248.81217 
L 413.797347 249.789587 
L 416.324598 250.799728 
L 418.851849 251.831259 
L 421.379101 252.872364 
L 423.906352 253.910841 
L 426.433603 254.934213 
L 428.960854 255.929845 
L 431.488105 256.88507 
L 434.015356 257.787332 
L 436.542607 258.624318 
L 439.069858 259.384117 
L 441.597109 260.055371 
L 444.124361 260.627439 
L 446.651612 261.090558 
L 449.178863 261.436013 
L 451.706114 261.656307 
L 454.233365 261.745322 
L 456.760616 261.698496 
L 459.287867 261.512972 
L 461.815118 261.187766 
L 464.342369 260.723904 
L 466.869621 260.124564 
L 469.396872 259.3952 
L 471.924123 258.543645 
L 474.451374 257.580198 
L 476.978625 256.517694 
L 479.505876 255.371535 
L 482.033127 254.159705 
L 484.560378 252.902741 
L 487.087629 251.623667 
L 489.614881 250.347896 
L 492.142132 249.103065 
L 494.669383 247.918837 
L 497.196634 246.826634 
L 499.723885 245.859305 
L 502.251136 245.050736 
L 504.778387 244.43537 
L 507.305638 244.047653 
L 509.832889 243.92139 
L 512.360141 244.089002 
L 514.887392 244.580677 
L 517.414643 245.423415 
L 519.941894 246.639947 
L 522.469145 248.247525 
L 524.996396 250.256571 
L 527.523647 252.669188 
L 530.050898 255.477496 
L 530.050898 248.276675 
L 530.050898 248.276675 
L 527.523647 242.707297 
L 524.996396 238.22457 
L 522.469145 234.71393 
L 519.941894 232.066595 
L 517.414643 230.179716 
L 514.887392 228.956467 
L 512.360141 228.306097 
L 509.832889 228.143935 
L 507.305638 228.39136 
L 504.778387 228.975735 
L 502.251136 229.830316 
L 499.723885 230.894122 
L 497.196634 232.111796 
L 494.669383 233.433431 
L 492.142132 234.814386 
L 489.614881 236.215082 
L 487.087629 237.60079 
L 484.560378 238.9414 
L 482.033127 240.21119 
L 479.505876 241.388579 
L 476.978625 242.455884 
L 474.451374 243.399066 
L 471.924123 244.207482 
L 469.396872 244.873632 
L 466.869621 245.392904 
L 464.342369 245.763335 
L 461.815118 245.985357 
L 459.287867 246.061565 
L 456.760616 245.996482 
L 454.233365 245.796329 
L 451.706114 245.468808 
L 449.178863 245.022891 
L 446.651612 244.468615 
L 444.124361 243.816893 
L 441.597109 243.079322 
L 439.069858 242.268018 
L 436.542607 241.395443 
L 434.015356 240.474259 
L 431.488105 239.51718 
L 428.960854 238.536844 
L 426.433603 237.545685 
L 423.906352 236.555827 
L 421.379101 235.578984 
L 418.851849 234.626365 
L 416.324598 233.7086 
L 413.797347 232.835665 
L 411.270096 232.016829 
L 408.742845 231.260597 
L 406.215594 230.574673 
L 403.688343 229.96593 
L 401.161092 229.440383 
L 398.633841 229.003177 
L 396.106589 228.658578 
L 393.579338 228.409976 
L 391.052087 228.259892 
L 388.524836 228.20999 
L 385.997585 228.261101 
L 383.470334 228.413247 
L 380.943083 228.665673 
L 378.415832 229.016882 
L 375.888581 229.464676 
L 373.361329 230.006202 
L 370.834078 230.637996 
L 368.306827 231.356038 
L 365.779576 232.1558 
L 363.252325 233.032302 
L 360.725074 233.980172 
L 358.197823 234.993698 
L 355.670572 236.06689 
L 353.143321 237.193535 
L 350.616069 238.367257 
L 348.088818 239.581574 
L 345.561567 240.829953 
L 343.034316 242.105867 
L 340.507065 243.402848 
L 337.979814 244.714537 
L 335.452563 246.034734 
L 332.925312 247.357446 
L 330.398061 248.676928 
L 327.870809 249.987728 
L 325.343558 251.284718 
L 322.816307 252.563137 
L 320.289056 253.818613 
L 317.761805 255.047194 
L 315.234554 256.245372 
L 312.707303 257.410099 
L 310.180052 258.538803 
L 307.652801 259.6294 
L 305.125549 260.680298 
L 302.598298 261.690403 
L 300.071047 262.659116 
L 297.543796 263.586325 
L 295.016545 264.472402 
L 292.489294 265.318183 
L 289.962043 266.124956 
L 287.434792 266.894436 
L 284.907541 267.628745 
L 282.38029 268.330383 
L 279.853038 269.002199 
L 277.325787 269.647355 
L 274.798536 270.269294 
L 272.271285 270.8717 
L 269.744034 271.458459 
L 267.216109 272.033768 
L 264.688858 272.601483 
L 262.161607 273.165995 
L 259.634356 273.731567 
L 257.107104 274.302443 
L 254.579853 274.882805 
L 252.052602 275.476726 
L 249.525351 276.088126 
L 246.9981 276.72073 
L 244.470849 277.37802 
L 241.943598 278.063203 
L 239.416347 278.779167 
L 236.889096 279.528443 
L 234.361844 280.313181 
L 231.834593 281.13511 
L 229.307342 281.995518 
L 226.780091 282.895226 
L 224.25284 283.834573 
L 221.725589 284.813399 
L 219.198338 285.831038 
L 216.671087 286.886314 
L 214.143836 287.977539 
L 211.616584 289.102525 
L 209.089333 290.25859 
L 206.562082 291.442582 
L 204.034831 292.650899 
L 201.50758 293.87952 
L 198.980329 295.124042 
L 196.453078 296.37972 
L 193.925827 297.641517 
L 191.398576 298.904154 
L 188.871324 300.162174 
L 186.344073 301.410002 
L 183.816822 302.642019 
L 181.289571 303.852633 
L 178.76232 305.03636 
L 176.235069 306.187906 
L 173.707818 307.302254 
L 171.180567 308.37475 
L 168.653316 309.401199 
L 166.126065 310.377949 
L 163.598813 311.301991 
L 161.071562 312.171045 
L 158.544311 312.983651 
L 156.01706 313.739254 
L 153.489809 314.438288 
L 150.962558 315.08225 
L 148.435307 315.673767 
L 145.908056 316.216659 
L 143.380805 316.715986 
L 140.853553 317.178081 
L 138.326302 317.610576 
L 135.799051 318.022399 
L 133.2718 318.423765 
L 130.744549 318.826135 
L 128.217298 319.242154 
L 125.690047 319.685561 
L 123.162796 320.171071 
L 120.635545 320.71422 
L 118.108293 321.331175 
L 115.581042 322.038504 
L 113.053791 322.852901 
L 110.52654 323.790861 
L 107.999289 324.86831 
L 105.472038 326.100171 
L 102.944787 327.499873 
L 100.417536 329.07879 
L 97.890285 330.845621 
L 95.363033 332.805679 
L 92.835782 334.960108 
L 90.308531 337.305015 
L 87.78128 339.830501 
L 85.254029 342.519603 
L 82.726778 345.347121 
L 80.199527 348.278344 
L 77.672276 351.267645 
L 75.145025 354.256961 
z
" clip-path="url(#pf4c7c7a91f)" style="fill: #1f77b4; fill-opacity: 0.2"/>
   </g>
   <g id="matplotlib.axis_1">
    <g id="xtick_1">
     <g id="line2d_1">
      <defs>
       <path id="ma0ca5da13c" d="M 0 0 
L 0 3.5 
" style="stroke: #000000; stroke-width: 0.8"/>
      </defs>
      <g>
       <use xlink:href="#ma0ca5da13c" x="75.145025" y="361.300875" style="stroke: #000000; stroke-width: 0.8"/>
      </g>
     </g>
     <g id="text_1">
      <!-- 0 -->
      <g transform="translate(70.140181 381.184937) scale(0.18 -0.18)">
       <defs>
        <path id="ArialMT-30" d="M 266 2259 
Q 266 3072 433 3567 
Q 600 4063 929 4331 
Q 1259 4600 1759 4600 
Q 2128 4600 2406 4451 
Q 2684 4303 2865 4023 
Q 3047 3744 3150 3342 
Q 3253 2941 3253 2259 
Q 3253 1453 3087 958 
Q 2922 463 2592 192 
Q 2263 -78 1759 -78 
Q 1097 -78 719 397 
Q 266 969 266 2259 
z
M 844 2259 
Q 844 1131 1108 757 
Q 1372 384 1759 384 
Q 2147 384 2411 759 
Q 2675 1134 2675 2259 
Q 2675 3391 2411 3762 
Q 2147 4134 1753 4134 
Q 1366 4134 1134 3806 
Q 844 3388 844 2259 
z
" transform="scale(0.015625)"/>
       </defs>
       <use xlink:href="#ArialMT-30"/>
      </g>
     </g>
    </g>
    <g id="xtick_2">
     <g id="line2d_2">
      <g>
       <use xlink:href="#ma0ca5da13c" x="147.142702" y="361.300875" style="stroke: #000000; stroke-width: 0.8"/>
      </g>
     </g>
     <g id="text_2">
      <!-- 50 -->
      <g transform="translate(137.133015 381.184937) scale(0.18 -0.18)">
       <defs>
        <path id="ArialMT-35" d="M 266 1200 
L 856 1250 
Q 922 819 1161 601 
Q 1400 384 1738 384 
Q 2144 384 2425 690 
Q 2706 997 2706 1503 
Q 2706 1984 2436 2262 
Q 2166 2541 1728 2541 
Q 1456 2541 1237 2417 
Q 1019 2294 894 2097 
L 366 2166 
L 809 4519 
L 3088 4519 
L 3088 3981 
L 1259 3981 
L 1013 2750 
Q 1425 3038 1878 3038 
Q 2478 3038 2890 2622 
Q 3303 2206 3303 1553 
Q 3303 931 2941 478 
Q 2500 -78 1738 -78 
Q 1113 -78 717 272 
Q 322 622 266 1200 
z
" transform="scale(0.015625)"/>
       </defs>
       <use xlink:href="#ArialMT-35"/>
       <use xlink:href="#ArialMT-30" x="55.615234"/>
      </g>
     </g>
    </g>
    <g id="xtick_3">
     <g id="line2d_3">
      <g>
       <use xlink:href="#ma0ca5da13c" x="219.14038" y="361.300875" style="stroke: #000000; stroke-width: 0.8"/>
      </g>
     </g>
     <g id="text_3">
      <!-- 100 -->
      <g transform="translate(204.125848 381.184937) scale(0.18 -0.18)">
       <defs>
        <path id="ArialMT-31" d="M 2384 0 
L 1822 0 
L 1822 3584 
Q 1619 3391 1289 3197 
Q 959 3003 697 2906 
L 697 3450 
Q 1169 3672 1522 3987 
Q 1875 4303 2022 4600 
L 2384 4600 
L 2384 0 
z
" transform="scale(0.015625)"/>
       </defs>
       <use xlink:href="#ArialMT-31"/>
       <use xlink:href="#ArialMT-30" x="55.615234"/>
       <use xlink:href="#ArialMT-30" x="111.230469"/>
      </g>
     </g>
    </g>
    <g id="xtick_4">
     <g id="line2d_4">
      <g>
       <use xlink:href="#ma0ca5da13c" x="291.138057" y="361.300875" style="stroke: #000000; stroke-width: 0.8"/>
      </g>
     </g>
     <g id="text_4">
      <!-- 150 -->
      <g transform="translate(276.123526 381.184937) scale(0.18 -0.18)">
       <use xlink:href="#ArialMT-31"/>
       <use xlink:href="#ArialMT-35" x="55.615234"/>
       <use xlink:href="#ArialMT-30" x="111.230469"/>
      </g>
     </g>
    </g>
    <g id="xtick_5">
     <g id="line2d_5">
      <g>
       <use xlink:href="#ma0ca5da13c" x="363.135735" y="361.300875" style="stroke: #000000; stroke-width: 0.8"/>
      </g>
     </g>
     <g id="text_5">
      <!-- 200 -->
      <g transform="translate(348.121203 381.184937) scale(0.18 -0.18)">
       <defs>
        <path id="ArialMT-32" d="M 3222 541 
L 3222 0 
L 194 0 
Q 188 203 259 391 
Q 375 700 629 1000 
Q 884 1300 1366 1694 
Q 2113 2306 2375 2664 
Q 2638 3022 2638 3341 
Q 2638 3675 2398 3904 
Q 2159 4134 1775 4134 
Q 1369 4134 1125 3890 
Q 881 3647 878 3216 
L 300 3275 
Q 359 3922 746 4261 
Q 1134 4600 1788 4600 
Q 2447 4600 2831 4234 
Q 3216 3869 3216 3328 
Q 3216 3053 3103 2787 
Q 2991 2522 2730 2228 
Q 2469 1934 1863 1422 
Q 1356 997 1212 845 
Q 1069 694 975 541 
L 3222 541 
z
" transform="scale(0.015625)"/>
       </defs>
       <use xlink:href="#ArialMT-32"/>
       <use xlink:href="#ArialMT-30" x="55.615234"/>
       <use xlink:href="#ArialMT-30" x="111.230469"/>
      </g>
     </g>
    </g>
    <g id="xtick_6">
     <g id="line2d_6">
      <g>
       <use xlink:href="#ma0ca5da13c" x="435.133412" y="361.300875" style="stroke: #000000; stroke-width: 0.8"/>
      </g>
     </g>
     <g id="text_6">
      <!-- 250 -->
      <g transform="translate(420.118881 381.184937) scale(0.18 -0.18)">
       <use xlink:href="#ArialMT-32"/>
       <use xlink:href="#ArialMT-35" x="55.615234"/>
       <use xlink:href="#ArialMT-30" x="111.230469"/>
      </g>
     </g>
    </g>
    <g id="xtick_7">
     <g id="line2d_7">
      <g>
       <use xlink:href="#ma0ca5da13c" x="507.13109" y="361.300875" style="stroke: #000000; stroke-width: 0.8"/>
      </g>
     </g>
     <g id="text_7">
      <!-- 300 -->
      <g transform="translate(492.116558 381.184937) scale(0.18 -0.18)">
       <defs>
        <path id="ArialMT-33" d="M 269 1209 
L 831 1284 
Q 928 806 1161 595 
Q 1394 384 1728 384 
Q 2125 384 2398 659 
Q 2672 934 2672 1341 
Q 2672 1728 2419 1979 
Q 2166 2231 1775 2231 
Q 1616 2231 1378 2169 
L 1441 2663 
Q 1497 2656 1531 2656 
Q 1891 2656 2178 2843 
Q 2466 3031 2466 3422 
Q 2466 3731 2256 3934 
Q 2047 4138 1716 4138 
Q 1388 4138 1169 3931 
Q 950 3725 888 3313 
L 325 3413 
Q 428 3978 793 4289 
Q 1159 4600 1703 4600 
Q 2078 4600 2393 4439 
Q 2709 4278 2876 4000 
Q 3044 3722 3044 3409 
Q 3044 3113 2884 2869 
Q 2725 2625 2413 2481 
Q 2819 2388 3044 2092 
Q 3269 1797 3269 1353 
Q 3269 753 2831 336 
Q 2394 -81 1725 -81 
Q 1122 -81 723 278 
Q 325 638 269 1209 
z
" transform="scale(0.015625)"/>
       </defs>
       <use xlink:href="#ArialMT-33"/>
       <use xlink:href="#ArialMT-30" x="55.615234"/>
       <use xlink:href="#ArialMT-30" x="111.230469"/>
      </g>
     </g>
    </g>
    <g id="text_8">
     <!-- Strain(%) -->
     <g transform="translate(260.824531 401.865875) scale(0.18 -0.18)">
      <defs>
       <path id="ArialMT-53" d="M 288 1472 
L 859 1522 
Q 900 1178 1048 958 
Q 1197 738 1509 602 
Q 1822 466 2213 466 
Q 2559 466 2825 569 
Q 3091 672 3220 851 
Q 3350 1031 3350 1244 
Q 3350 1459 3225 1620 
Q 3100 1781 2813 1891 
Q 2628 1963 1997 2114 
Q 1366 2266 1113 2400 
Q 784 2572 623 2826 
Q 463 3081 463 3397 
Q 463 3744 659 4045 
Q 856 4347 1234 4503 
Q 1613 4659 2075 4659 
Q 2584 4659 2973 4495 
Q 3363 4331 3572 4012 
Q 3781 3694 3797 3291 
L 3216 3247 
Q 3169 3681 2898 3903 
Q 2628 4125 2100 4125 
Q 1550 4125 1298 3923 
Q 1047 3722 1047 3438 
Q 1047 3191 1225 3031 
Q 1400 2872 2139 2705 
Q 2878 2538 3153 2413 
Q 3553 2228 3743 1945 
Q 3934 1663 3934 1294 
Q 3934 928 3725 604 
Q 3516 281 3123 101 
Q 2731 -78 2241 -78 
Q 1619 -78 1198 103 
Q 778 284 539 648 
Q 300 1013 288 1472 
z
" transform="scale(0.015625)"/>
       <path id="ArialMT-74" d="M 1650 503 
L 1731 6 
Q 1494 -44 1306 -44 
Q 1000 -44 831 53 
Q 663 150 594 308 
Q 525 466 525 972 
L 525 2881 
L 113 2881 
L 113 3319 
L 525 3319 
L 525 4141 
L 1084 4478 
L 1084 3319 
L 1650 3319 
L 1650 2881 
L 1084 2881 
L 1084 941 
Q 1084 700 1114 631 
Q 1144 563 1211 522 
Q 1278 481 1403 481 
Q 1497 481 1650 503 
z
" transform="scale(0.015625)"/>
       <path id="ArialMT-72" d="M 416 0 
L 416 3319 
L 922 3319 
L 922 2816 
Q 1116 3169 1280 3281 
Q 1444 3394 1641 3394 
Q 1925 3394 2219 3213 
L 2025 2691 
Q 1819 2813 1613 2813 
Q 1428 2813 1281 2702 
Q 1134 2591 1072 2394 
Q 978 2094 978 1738 
L 978 0 
L 416 0 
z
" transform="scale(0.015625)"/>
       <path id="ArialMT-61" d="M 2588 409 
Q 2275 144 1986 34 
Q 1697 -75 1366 -75 
Q 819 -75 525 192 
Q 231 459 231 875 
Q 231 1119 342 1320 
Q 453 1522 633 1644 
Q 813 1766 1038 1828 
Q 1203 1872 1538 1913 
Q 2219 1994 2541 2106 
Q 2544 2222 2544 2253 
Q 2544 2597 2384 2738 
Q 2169 2928 1744 2928 
Q 1347 2928 1158 2789 
Q 969 2650 878 2297 
L 328 2372 
Q 403 2725 575 2942 
Q 747 3159 1072 3276 
Q 1397 3394 1825 3394 
Q 2250 3394 2515 3294 
Q 2781 3194 2906 3042 
Q 3031 2891 3081 2659 
Q 3109 2516 3109 2141 
L 3109 1391 
Q 3109 606 3145 398 
Q 3181 191 3288 0 
L 2700 0 
Q 2613 175 2588 409 
z
M 2541 1666 
Q 2234 1541 1622 1453 
Q 1275 1403 1131 1340 
Q 988 1278 909 1158 
Q 831 1038 831 891 
Q 831 666 1001 516 
Q 1172 366 1500 366 
Q 1825 366 2078 508 
Q 2331 650 2450 897 
Q 2541 1088 2541 1459 
L 2541 1666 
z
" transform="scale(0.015625)"/>
       <path id="ArialMT-69" d="M 425 3934 
L 425 4581 
L 988 4581 
L 988 3934 
L 425 3934 
z
M 425 0 
L 425 3319 
L 988 3319 
L 988 0 
L 425 0 
z
" transform="scale(0.015625)"/>
       <path id="ArialMT-6e" d="M 422 0 
L 422 3319 
L 928 3319 
L 928 2847 
Q 1294 3394 1984 3394 
Q 2284 3394 2536 3286 
Q 2788 3178 2913 3003 
Q 3038 2828 3088 2588 
Q 3119 2431 3119 2041 
L 3119 0 
L 2556 0 
L 2556 2019 
Q 2556 2363 2490 2533 
Q 2425 2703 2258 2804 
Q 2091 2906 1866 2906 
Q 1506 2906 1245 2678 
Q 984 2450 984 1813 
L 984 0 
L 422 0 
z
" transform="scale(0.015625)"/>
       <path id="ArialMT-28" d="M 1497 -1347 
Q 1031 -759 709 28 
Q 388 816 388 1659 
Q 388 2403 628 3084 
Q 909 3875 1497 4659 
L 1900 4659 
Q 1522 4009 1400 3731 
Q 1209 3300 1100 2831 
Q 966 2247 966 1656 
Q 966 153 1900 -1347 
L 1497 -1347 
z
" transform="scale(0.015625)"/>
       <path id="ArialMT-25" d="M 372 3481 
Q 372 3972 619 4315 
Q 866 4659 1334 4659 
Q 1766 4659 2048 4351 
Q 2331 4044 2331 3447 
Q 2331 2866 2045 2552 
Q 1759 2238 1341 2238 
Q 925 2238 648 2547 
Q 372 2856 372 3481 
z
M 1350 4272 
Q 1141 4272 1002 4090 
Q 863 3909 863 3425 
Q 863 2984 1003 2804 
Q 1144 2625 1350 2625 
Q 1563 2625 1702 2806 
Q 1841 2988 1841 3469 
Q 1841 3913 1700 4092 
Q 1559 4272 1350 4272 
z
M 1353 -169 
L 3859 4659 
L 4316 4659 
L 1819 -169 
L 1353 -169 
z
M 3334 1075 
Q 3334 1569 3581 1911 
Q 3828 2253 4300 2253 
Q 4731 2253 5014 1945 
Q 5297 1638 5297 1041 
Q 5297 459 5011 145 
Q 4725 -169 4303 -169 
Q 3888 -169 3611 142 
Q 3334 453 3334 1075 
z
M 4316 1866 
Q 4103 1866 3964 1684 
Q 3825 1503 3825 1019 
Q 3825 581 3965 400 
Q 4106 219 4313 219 
Q 4528 219 4667 400 
Q 4806 581 4806 1063 
Q 4806 1506 4665 1686 
Q 4525 1866 4316 1866 
z
" transform="scale(0.015625)"/>
       <path id="ArialMT-29" d="M 791 -1347 
L 388 -1347 
Q 1322 153 1322 1656 
Q 1322 2244 1188 2822 
Q 1081 3291 891 3722 
Q 769 4003 388 4659 
L 791 4659 
Q 1378 3875 1659 3084 
Q 1900 2403 1900 1659 
Q 1900 816 1576 28 
Q 1253 -759 791 -1347 
z
" transform="scale(0.015625)"/>
      </defs>
      <use xlink:href="#ArialMT-53"/>
      <use xlink:href="#ArialMT-74" x="66.699219"/>
      <use xlink:href="#ArialMT-72" x="94.482422"/>
      <use xlink:href="#ArialMT-61" x="127.783203"/>
      <use xlink:href="#ArialMT-69" x="183.398438"/>
      <use xlink:href="#ArialMT-6e" x="205.615234"/>
      <use xlink:href="#ArialMT-28" x="261.230469"/>
      <use xlink:href="#ArialMT-25" x="294.53125"/>
      <use xlink:href="#ArialMT-29" x="383.447266"/>
     </g>
    </g>
   </g>
   <g id="matplotlib.axis_2">
    <g id="ytick_1">
     <g id="line2d_8">
      <defs>
       <path id="m2b86234624" d="M 0 0 
L -3.5 0 
" style="stroke: #000000; stroke-width: 0.8"/>
      </defs>
      <g>
       <use xlink:href="#m2b86234624" x="75.130625" y="361.300875" style="stroke: #000000; stroke-width: 0.8"/>
      </g>
     </g>
     <g id="text_9">
      <!-- 0 -->
      <g transform="translate(58.120938 367.742906) scale(0.18 -0.18)">
       <use xlink:href="#ArialMT-30"/>
      </g>
     </g>
    </g>
    <g id="ytick_2">
     <g id="line2d_9">
      <g>
       <use xlink:href="#m2b86234624" x="75.130625" y="319.720875" style="stroke: #000000; stroke-width: 0.8"/>
      </g>
     </g>
     <g id="text_10">
      <!-- 500 -->
      <g transform="translate(38.101563 326.162906) scale(0.18 -0.18)">
       <use xlink:href="#ArialMT-35"/>
       <use xlink:href="#ArialMT-30" x="55.615234"/>
       <use xlink:href="#ArialMT-30" x="111.230469"/>
      </g>
     </g>
    </g>
    <g id="ytick_3">
     <g id="line2d_10">
      <g>
       <use xlink:href="#m2b86234624" x="75.130625" y="278.140875" style="stroke: #000000; stroke-width: 0.8"/>
      </g>
     </g>
     <g id="text_11">
      <!-- 1000 -->
      <g transform="translate(28.091875 284.582906) scale(0.18 -0.18)">
       <use xlink:href="#ArialMT-31"/>
       <use xlink:href="#ArialMT-30" x="55.615234"/>
       <use xlink:href="#ArialMT-30" x="111.230469"/>
       <use xlink:href="#ArialMT-30" x="166.845703"/>
      </g>
     </g>
    </g>
    <g id="ytick_4">
     <g id="line2d_11">
      <g>
       <use xlink:href="#m2b86234624" x="75.130625" y="236.560875" style="stroke: #000000; stroke-width: 0.8"/>
      </g>
     </g>
     <g id="text_12">
      <!-- 1500 -->
      <g transform="translate(28.091875 243.002906) scale(0.18 -0.18)">
       <use xlink:href="#ArialMT-31"/>
       <use xlink:href="#ArialMT-35" x="55.615234"/>
       <use xlink:href="#ArialMT-30" x="111.230469"/>
       <use xlink:href="#ArialMT-30" x="166.845703"/>
      </g>
     </g>
    </g>
    <g id="ytick_5">
     <g id="line2d_12">
      <g>
       <use xlink:href="#m2b86234624" x="75.130625" y="194.980875" style="stroke: #000000; stroke-width: 0.8"/>
      </g>
     </g>
     <g id="text_13">
      <!-- 2000 -->
      <g transform="translate(28.091875 201.422906) scale(0.18 -0.18)">
       <use xlink:href="#ArialMT-32"/>
       <use xlink:href="#ArialMT-30" x="55.615234"/>
       <use xlink:href="#ArialMT-30" x="111.230469"/>
       <use xlink:href="#ArialMT-30" x="166.845703"/>
      </g>
     </g>
    </g>
    <g id="ytick_6">
     <g id="line2d_13">
      <g>
       <use xlink:href="#m2b86234624" x="75.130625" y="153.400875" style="stroke: #000000; stroke-width: 0.8"/>
      </g>
     </g>
     <g id="text_14">
      <!-- 2500 -->
      <g transform="translate(28.091875 159.842906) scale(0.18 -0.18)">
       <use xlink:href="#ArialMT-32"/>
       <use xlink:href="#ArialMT-35" x="55.615234"/>
       <use xlink:href="#ArialMT-30" x="111.230469"/>
       <use xlink:href="#ArialMT-30" x="166.845703"/>
      </g>
     </g>
    </g>
    <g id="ytick_7">
     <g id="line2d_14">
      <g>
       <use xlink:href="#m2b86234624" x="75.130625" y="111.820875" style="stroke: #000000; stroke-width: 0.8"/>
      </g>
     </g>
     <g id="text_15">
      <!-- 3000 -->
      <g transform="translate(28.091875 118.262906) scale(0.18 -0.18)">
       <use xlink:href="#ArialMT-33"/>
       <use xlink:href="#ArialMT-30" x="55.615234"/>
       <use xlink:href="#ArialMT-30" x="111.230469"/>
       <use xlink:href="#ArialMT-30" x="166.845703"/>
      </g>
     </g>
    </g>
    <g id="ytick_8">
     <g id="line2d_15">
      <g>
       <use xlink:href="#m2b86234624" x="75.130625" y="70.240875" style="stroke: #000000; stroke-width: 0.8"/>
      </g>
     </g>
     <g id="text_16">
      <!-- 3500 -->
      <g transform="translate(28.091875 76.682906) scale(0.18 -0.18)">
       <use xlink:href="#ArialMT-33"/>
       <use xlink:href="#ArialMT-35" x="55.615234"/>
       <use xlink:href="#ArialMT-30" x="111.230469"/>
       <use xlink:href="#ArialMT-30" x="166.845703"/>
      </g>
     </g>
    </g>
    <g id="ytick_9">
     <g id="line2d_16">
      <g>
       <use xlink:href="#m2b86234624" x="75.130625" y="28.660875" style="stroke: #000000; stroke-width: 0.8"/>
      </g>
     </g>
     <g id="text_17">
      <!-- 4000 -->
      <g transform="translate(28.091875 35.102906) scale(0.18 -0.18)">
       <defs>
        <path id="ArialMT-34" d="M 2069 0 
L 2069 1097 
L 81 1097 
L 81 1613 
L 2172 4581 
L 2631 4581 
L 2631 1613 
L 3250 1613 
L 3250 1097 
L 2631 1097 
L 2631 0 
L 2069 0 
z
M 2069 1613 
L 2069 3678 
L 634 1613 
L 2069 1613 
z
" transform="scale(0.015625)"/>
       </defs>
       <use xlink:href="#ArialMT-34"/>
       <use xlink:href="#ArialMT-30" x="55.615234"/>
       <use xlink:href="#ArialMT-30" x="111.230469"/>
       <use xlink:href="#ArialMT-30" x="166.845703"/>
      </g>
     </g>
    </g>
    <g id="text_18">
     <!-- Stress(MPa) -->
     <g transform="translate(20.303438 244.984312) rotate(-90) scale(0.18 -0.18)">
      <defs>
       <path id="ArialMT-65" d="M 2694 1069 
L 3275 997 
Q 3138 488 2766 206 
Q 2394 -75 1816 -75 
Q 1088 -75 661 373 
Q 234 822 234 1631 
Q 234 2469 665 2931 
Q 1097 3394 1784 3394 
Q 2450 3394 2872 2941 
Q 3294 2488 3294 1666 
Q 3294 1616 3291 1516 
L 816 1516 
Q 847 969 1125 678 
Q 1403 388 1819 388 
Q 2128 388 2347 550 
Q 2566 713 2694 1069 
z
M 847 1978 
L 2700 1978 
Q 2663 2397 2488 2606 
Q 2219 2931 1791 2931 
Q 1403 2931 1139 2672 
Q 875 2413 847 1978 
z
" transform="scale(0.015625)"/>
       <path id="ArialMT-73" d="M 197 991 
L 753 1078 
Q 800 744 1014 566 
Q 1228 388 1613 388 
Q 2000 388 2187 545 
Q 2375 703 2375 916 
Q 2375 1106 2209 1216 
Q 2094 1291 1634 1406 
Q 1016 1563 777 1677 
Q 538 1791 414 1992 
Q 291 2194 291 2438 
Q 291 2659 392 2848 
Q 494 3038 669 3163 
Q 800 3259 1026 3326 
Q 1253 3394 1513 3394 
Q 1903 3394 2198 3281 
Q 2494 3169 2634 2976 
Q 2775 2784 2828 2463 
L 2278 2388 
Q 2241 2644 2061 2787 
Q 1881 2931 1553 2931 
Q 1166 2931 1000 2803 
Q 834 2675 834 2503 
Q 834 2394 903 2306 
Q 972 2216 1119 2156 
Q 1203 2125 1616 2013 
Q 2213 1853 2448 1751 
Q 2684 1650 2818 1456 
Q 2953 1263 2953 975 
Q 2953 694 2789 445 
Q 2625 197 2315 61 
Q 2006 -75 1616 -75 
Q 969 -75 630 194 
Q 291 463 197 991 
z
" transform="scale(0.015625)"/>
       <path id="ArialMT-4d" d="M 475 0 
L 475 4581 
L 1388 4581 
L 2472 1338 
Q 2622 884 2691 659 
Q 2769 909 2934 1394 
L 4031 4581 
L 4847 4581 
L 4847 0 
L 4263 0 
L 4263 3834 
L 2931 0 
L 2384 0 
L 1059 3900 
L 1059 0 
L 475 0 
z
" transform="scale(0.015625)"/>
       <path id="ArialMT-50" d="M 494 0 
L 494 4581 
L 2222 4581 
Q 2678 4581 2919 4538 
Q 3256 4481 3484 4323 
Q 3713 4166 3852 3881 
Q 3991 3597 3991 3256 
Q 3991 2672 3619 2267 
Q 3247 1863 2275 1863 
L 1100 1863 
L 1100 0 
L 494 0 
z
M 1100 2403 
L 2284 2403 
Q 2872 2403 3119 2622 
Q 3366 2841 3366 3238 
Q 3366 3525 3220 3729 
Q 3075 3934 2838 4000 
Q 2684 4041 2272 4041 
L 1100 4041 
L 1100 2403 
z
" transform="scale(0.015625)"/>
      </defs>
      <use xlink:href="#ArialMT-53"/>
      <use xlink:href="#ArialMT-74" x="66.699219"/>
      <use xlink:href="#ArialMT-72" x="94.482422"/>
      <use xlink:href="#ArialMT-65" x="127.783203"/>
      <use xlink:href="#ArialMT-73" x="183.398438"/>
      <use xlink:href="#ArialMT-73" x="233.398438"/>
      <use xlink:href="#ArialMT-28" x="283.398438"/>
      <use xlink:href="#ArialMT-4d" x="316.699219"/>
      <use xlink:href="#ArialMT-50" x="400"/>
      <use xlink:href="#ArialMT-61" x="466.699219"/>
      <use xlink:href="#ArialMT-29" x="522.314453"/>
     </g>
    </g>
   </g>
   <g id="line2d_17">
    <path d="M 75.145025 353.888691 
L 77.166825 352.746329 
L 79.694077 351.01166 
L 82.726778 348.632516 
L 88.792181 343.49205 
L 93.846683 339.334387 
L 97.384834 336.675889 
L 100.922986 334.292147 
L 104.461137 332.208919 
L 107.493839 330.665139 
L 111.03199 329.134263 
L 114.570142 327.869561 
L 118.108293 326.83627 
L 122.151895 325.886671 
L 127.206397 324.95166 
L 134.788151 323.816153 
L 143.886255 322.407842 
L 149.446207 321.32325 
L 154.500709 320.113328 
L 159.555212 318.660077 
L 164.609714 316.955319 
L 169.664216 315.008846 
L 175.224168 312.618496 
L 181.795021 309.523364 
L 190.387675 305.197199 
L 206.562082 297.010423 
L 213.638385 293.713932 
L 219.703788 291.125281 
L 225.769191 288.787282 
L 231.329143 286.872885 
L 237.394546 285.025608 
L 243.965399 283.277923 
L 251.041702 281.62959 
L 261.656156 279.417168 
L 274.293086 276.752079 
L 281.369389 275.039336 
L 287.434792 273.360279 
L 293.500194 271.443995 
L 299.060147 269.457903 
L 304.620099 267.245843 
L 310.685502 264.583656 
L 317.256355 261.438023 
L 324.838108 257.547145 
L 349.099719 244.869653 
L 354.659671 242.341356 
L 359.714173 240.299778 
L 364.263225 238.715329 
L 368.306827 237.53603 
L 372.350429 236.593037 
L 376.394031 235.90223 
L 379.932182 235.513748 
L 383.470334 235.331736 
L 387.008485 235.35763 
L 390.546637 235.58956 
L 394.084789 236.02221 
L 398.12839 236.75094 
L 402.171992 237.711282 
L 406.721044 239.037324 
L 411.775546 240.763463 
L 417.840949 243.085531 
L 435.026257 249.842481 
L 439.575309 251.326097 
L 443.61891 252.424152 
L 447.157062 253.177215 
L 450.695213 253.708099 
L 454.233365 253.994109 
L 457.266066 254.030897 
L 460.298768 253.867266 
L 463.331469 253.499446 
L 466.36417 252.927848 
L 469.902322 252.010393 
L 473.440473 250.839219 
L 476.978625 249.440978 
L 481.022227 247.613391 
L 486.582179 244.83548 
L 495.174833 240.513555 
L 498.712985 238.971796 
L 501.745686 237.877647 
L 504.272937 237.181508 
L 506.800188 236.728732 
L 508.821989 236.572711 
L 510.84379 236.626213 
L 512.865591 236.91384 
L 514.887392 237.460361 
L 516.909193 238.290503 
L 518.930993 239.428713 
L 520.952794 240.898896 
L 522.974595 242.724122 
L 524.996396 244.926313 
L 527.018197 247.525883 
L 529.039998 250.541361 
L 530.050898 252.210237 
L 530.050898 252.210237 
" clip-path="url(#pf4c7c7a91f)" style="fill: none; stroke: #1f77b4; stroke-width: 1.5; stroke-linecap: square"/>
   </g>
   <g id="patch_3">
    <path d="M 75.130625 361.300875 
L 75.130625 28.660875 
" style="fill: none; stroke: #000000; stroke-width: 0.8; stroke-linejoin: miter; stroke-linecap: square"/>
   </g>
   <g id="patch_4">
    <path d="M 521.530625 361.300875 
L 521.530625 28.660875 
" style="fill: none; stroke: #000000; stroke-width: 0.8; stroke-linejoin: miter; stroke-linecap: square"/>
   </g>
   <g id="patch_5">
    <path d="M 75.130625 361.300875 
L 521.530625 361.300875 
" style="fill: none; stroke: #000000; stroke-width: 0.8; stroke-linejoin: miter; stroke-linecap: square"/>
   </g>
   <g id="patch_6">
    <path d="M 75.130625 28.660875 
L 521.530625 28.660875 
" style="fill: none; stroke: #000000; stroke-width: 0.8; stroke-linejoin: miter; stroke-linecap: square"/>
   </g>
   <g id="text_19">
    <!-- SS4I Stress-Strain Curve -->
    <g transform="translate(177.694625 22.660875) scale(0.216 -0.216)">
     <defs>
      <path id="ArialMT-49" d="M 597 0 
L 597 4581 
L 1203 4581 
L 1203 0 
L 597 0 
z
" transform="scale(0.015625)"/>
      <path id="ArialMT-20" transform="scale(0.015625)"/>
      <path id="ArialMT-2d" d="M 203 1375 
L 203 1941 
L 1931 1941 
L 1931 1375 
L 203 1375 
z
" transform="scale(0.015625)"/>
      <path id="ArialMT-43" d="M 3763 1606 
L 4369 1453 
Q 4178 706 3683 314 
Q 3188 -78 2472 -78 
Q 1731 -78 1267 223 
Q 803 525 561 1097 
Q 319 1669 319 2325 
Q 319 3041 592 3573 
Q 866 4106 1370 4382 
Q 1875 4659 2481 4659 
Q 3169 4659 3637 4309 
Q 4106 3959 4291 3325 
L 3694 3184 
Q 3534 3684 3231 3912 
Q 2928 4141 2469 4141 
Q 1941 4141 1586 3887 
Q 1231 3634 1087 3207 
Q 944 2781 944 2328 
Q 944 1744 1114 1308 
Q 1284 872 1643 656 
Q 2003 441 2422 441 
Q 2931 441 3284 734 
Q 3638 1028 3763 1606 
z
" transform="scale(0.015625)"/>
      <path id="ArialMT-75" d="M 2597 0 
L 2597 488 
Q 2209 -75 1544 -75 
Q 1250 -75 995 37 
Q 741 150 617 320 
Q 494 491 444 738 
Q 409 903 409 1263 
L 409 3319 
L 972 3319 
L 972 1478 
Q 972 1038 1006 884 
Q 1059 663 1231 536 
Q 1403 409 1656 409 
Q 1909 409 2131 539 
Q 2353 669 2445 892 
Q 2538 1116 2538 1541 
L 2538 3319 
L 3100 3319 
L 3100 0 
L 2597 0 
z
" transform="scale(0.015625)"/>
      <path id="ArialMT-76" d="M 1344 0 
L 81 3319 
L 675 3319 
L 1388 1331 
Q 1503 1009 1600 663 
Q 1675 925 1809 1294 
L 2547 3319 
L 3125 3319 
L 1869 0 
L 1344 0 
z
" transform="scale(0.015625)"/>
     </defs>
     <use xlink:href="#ArialMT-53"/>
     <use xlink:href="#ArialMT-53" x="66.699219"/>
     <use xlink:href="#ArialMT-34" x="133.398438"/>
     <use xlink:href="#ArialMT-49" x="189.013672"/>
     <use xlink:href="#ArialMT-20" x="216.796875"/>
     <use xlink:href="#ArialMT-53" x="244.580078"/>
     <use xlink:href="#ArialMT-74" x="311.279297"/>
     <use xlink:href="#ArialMT-72" x="339.0625"/>
     <use xlink:href="#ArialMT-65" x="372.363281"/>
     <use xlink:href="#ArialMT-73" x="427.978516"/>
     <use xlink:href="#ArialMT-73" x="477.978516"/>
     <use xlink:href="#ArialMT-2d" x="527.978516"/>
     <use xlink:href="#ArialMT-53" x="561.279297"/>
     <use xlink:href="#ArialMT-74" x="627.978516"/>
     <use xlink:href="#ArialMT-72" x="655.761719"/>
     <use xlink:href="#ArialMT-61" x="689.0625"/>
     <use xlink:href="#ArialMT-69" x="744.677734"/>
     <use xlink:href="#ArialMT-6e" x="766.894531"/>
     <use xlink:href="#ArialMT-20" x="822.509766"/>
     <use xlink:href="#ArialMT-43" x="850.292969"/>
     <use xlink:href="#ArialMT-75" x="922.509766"/>
     <use xlink:href="#ArialMT-72" x="978.125"/>
     <use xlink:href="#ArialMT-76" x="1011.425781"/>
     <use xlink:href="#ArialMT-65" x="1061.425781"/>
    </g>
   </g>
  </g>
 </g>
 <defs>
  <clipPath id="pf4c7c7a91f">
   <rect x="75.130625" y="28.660875" width="446.4" height="332.64"/>
  </clipPath>
 </defs>
</svg>
