<?xml version="1.0" encoding="UTF-8" standalone="no"?>
<svg
   width="429.603594pt"
   height="338.227156pt"
   viewBox="0 0 429.603594 338.227156"
   version="1.1"
   id="svg139"
   sodipodi:docname="N6I2.svg"
   inkscape:version="1.4 (e7c3feb1, 2024-10-09)"
   xmlns:inkscape="http://www.inkscape.org/namespaces/inkscape"
   xmlns:sodipodi="http://sodipodi.sourceforge.net/DTD/sodipodi-0.dtd"
   xmlns:xlink="http://www.w3.org/1999/xlink"
   xmlns="http://www.w3.org/2000/svg"
   xmlns:svg="http://www.w3.org/2000/svg"
   xmlns:rdf="http://www.w3.org/1999/02/22-rdf-syntax-ns#"
   xmlns:cc="http://creativecommons.org/ns#"
   xmlns:dc="http://purl.org/dc/elements/1.1/">
  <sodipodi:namedview
     id="namedview139"
     pagecolor="#ffffff"
     bordercolor="#000000"
     borderopacity="0.25"
     inkscape:showpageshadow="2"
     inkscape:pageopacity="0.0"
     inkscape:pagecheckerboard="0"
     inkscape:deskcolor="#d1d1d1"
     inkscape:document-units="pt"
     inkscape:zoom="2.1550764"
     inkscape:cx="114.61311"
     inkscape:cy="38.281706"
     inkscape:window-width="1104"
     inkscape:window-height="1050"
     inkscape:window-x="123"
     inkscape:window-y="38"
     inkscape:window-maximized="0"
     inkscape:current-layer="svg139" />
  <metadata
     id="metadata1">
    <rdf:RDF>
      <cc:Work>
        <dc:type
           rdf:resource="http://purl.org/dc/dcmitype/StillImage" />
        <dc:date>2025-11-25T21:39:33.702515</dc:date>
        <dc:format>image/svg+xml</dc:format>
        <dc:creator>
          <cc:Agent>
            <dc:title>Matplotlib v3.9.0, https://matplotlib.org/</dc:title>
          </cc:Agent>
        </dc:creator>
      </cc:Work>
    </rdf:RDF>
  </metadata>
  <defs
     id="defs1">
    <style
       type="text/css"
       id="style1">*{stroke-linejoin: round; stroke-linecap: butt}</style>
  </defs>
  <g
     id="figure_1">
    <g
       id="patch_1">
      <path
         d="M 0 338.227156  L 429.603594 338.227156  L 429.603594 0  L 0 0  z "
         style="fill: #ffffff"
         id="path1" />
    </g>
    <g
       id="axes_1">
      <g
         id="patch_2">
        <path
           d="M 65.283594 292.415437  L 422.403594 292.415437  L 422.403594 26.303437  L 65.283594 26.303437  z "
           style="fill: #ffffff"
           id="path2" />
      </g>
      <g
         id="patch_3">
        <path
           d="M 81.516321 292.415437  L 126.296258 292.415437  L 126.296258 70.619956  L 81.516321 70.619956  z "
           clip-path="url(#ped741810b1)"
           style="fill: #1f77b4"
           id="path3" />
      </g>
      <g
         id="patch_4">
        <path
           d="M 137.491243 292.415437  L 182.27118 292.415437  L 182.27118 188.135015  L 137.491243 188.135015  z "
           clip-path="url(#ped741810b1)"
           style="fill: #1f77b4"
           id="path4" />
      </g>
      <g
         id="patch_5">
        <path
           d="M 193.466164 292.415437  L 238.246102 292.415437  L 238.246102 267.684762  L 193.466164 267.684762  z "
           clip-path="url(#ped741810b1)"
           style="fill: #1f77b4"
           id="path5" />
      </g>
      <g
         id="patch_6">
        <path
           d="M 249.441086 292.415437  L 294.221023 292.415437  L 294.221023 288.760833  L 249.441086 288.760833  z "
           clip-path="url(#ped741810b1)"
           style="fill: #1f77b4"
           id="path6" />
      </g>
      <g
         id="patch_7">
        <path
           d="M 305.416008 292.415437  L 350.195945 292.415437  L 350.195945 292.060621  L 305.416008 292.060621  z "
           clip-path="url(#ped741810b1)"
           style="fill: #1f77b4"
           id="path7" />
      </g>
      <g
         id="patch_8">
        <path
           d="M 361.390929 292.415437  L 406.170866 292.415437  L 406.170866 292.415437  L 361.390929 292.415437  z "
           clip-path="url(#ped741810b1)"
           style="fill: #1f77b4"
           id="path8" />
      </g>
      <g
         id="matplotlib.axis_1">
        <g
           id="xtick_1">
          <g
             id="line2d_1">
            <defs
               id="defs8">
              <path
                 id="mde54e76d25"
                 d="M 0 0  L 0 3.5  "
                 style="stroke: #000000; stroke-width: 0.8" />
            </defs>
            <g
               id="g8">
              <use
                 xlink:href="#mde54e76d25"
                 x="103.90629"
                 y="292.415437"
                 style="stroke: #000000; stroke-width: 0.8"
                 id="use8" />
            </g>
          </g>
          <g
             id="text_1">
            <!-- 0 -->
            <g
               transform="translate(99.735587 310.152156) scale(0.15 -0.15)"
               id="g9">
              <defs
                 id="defs9">
                <path
                   id="ArialMT-30"
                   d="M 266 2259  Q 266 3072 433 3567  Q 600 4063 929 4331  Q 1259 4600 1759 4600  Q 2128 4600 2406 4451  Q 2684 4303 2865 4023  Q 3047 3744 3150 3342  Q 3253 2941 3253 2259  Q 3253 1453 3087 958  Q 2922 463 2592 192  Q 2263 -78 1759 -78  Q 1097 -78 719 397  Q 266 969 266 2259  z M 844 2259  Q 844 1131 1108 757  Q 1372 384 1759 384  Q 2147 384 2411 759  Q 2675 1134 2675 2259  Q 2675 3391 2411 3762  Q 2147 4134 1753 4134  Q 1366 4134 1134 3806  Q 844 3388 844 2259  z "
                   transform="scale(0.015625)" />
              </defs>
              <use
                 xlink:href="#ArialMT-30"
                 id="use9" />
            </g>
          </g>
        </g>
        <g
           id="xtick_2">
          <g
             id="line2d_2">
            <g
               id="g10">
              <use
                 xlink:href="#mde54e76d25"
                 x="159.881211"
                 y="292.415437"
                 style="stroke: #000000; stroke-width: 0.8"
                 id="use10" />
            </g>
          </g>
          <g
             id="text_2">
            <!-- 1 -->
            <g
               transform="translate(155.710508 310.152156) scale(0.15 -0.15)"
               id="g11">
              <defs
                 id="defs10">
                <path
                   id="ArialMT-31"
                   d="M 2384 0  L 1822 0  L 1822 3584  Q 1619 3391 1289 3197  Q 959 3003 697 2906  L 697 3450  Q 1169 3672 1522 3987  Q 1875 4303 2022 4600  L 2384 4600  L 2384 0  z "
                   transform="scale(0.015625)" />
              </defs>
              <use
                 xlink:href="#ArialMT-31"
                 id="use11" />
            </g>
          </g>
        </g>
        <g
           id="xtick_3">
          <g
             id="line2d_3">
            <g
               id="g12">
              <use
                 xlink:href="#mde54e76d25"
                 x="215.856133"
                 y="292.415437"
                 style="stroke: #000000; stroke-width: 0.8"
                 id="use12" />
            </g>
          </g>
          <g
             id="text_3">
            <!-- 2 -->
            <g
               transform="translate(211.68543 310.152156) scale(0.15 -0.15)"
               id="g13">
              <defs
                 id="defs12">
                <path
                   id="ArialMT-32"
                   d="M 3222 541  L 3222 0  L 194 0  Q 188 203 259 391  Q 375 700 629 1000  Q 884 1300 1366 1694  Q 2113 2306 2375 2664  Q 2638 3022 2638 3341  Q 2638 3675 2398 3904  Q 2159 4134 1775 4134  Q 1369 4134 1125 3890  Q 881 3647 878 3216  L 300 3275  Q 359 3922 746 4261  Q 1134 4600 1788 4600  Q 2447 4600 2831 4234  Q 3216 3869 3216 3328  Q 3216 3053 3103 2787  Q 2991 2522 2730 2228  Q 2469 1934 1863 1422  Q 1356 997 1212 845  Q 1069 694 975 541  L 3222 541  z "
                   transform="scale(0.015625)" />
              </defs>
              <use
                 xlink:href="#ArialMT-32"
                 id="use13" />
            </g>
          </g>
        </g>
        <g
           id="xtick_4">
          <g
             id="line2d_4">
            <g
               id="g14">
              <use
                 xlink:href="#mde54e76d25"
                 x="271.831055"
                 y="292.415437"
                 style="stroke: #000000; stroke-width: 0.8"
                 id="use14" />
            </g>
          </g>
          <g
             id="text_4">
            <!-- 3 -->
            <g
               transform="translate(267.660351 310.152156) scale(0.15 -0.15)"
               id="g15">
              <defs
                 id="defs14">
                <path
                   id="ArialMT-33"
                   d="M 269 1209  L 831 1284  Q 928 806 1161 595  Q 1394 384 1728 384  Q 2125 384 2398 659  Q 2672 934 2672 1341  Q 2672 1728 2419 1979  Q 2166 2231 1775 2231  Q 1616 2231 1378 2169  L 1441 2663  Q 1497 2656 1531 2656  Q 1891 2656 2178 2843  Q 2466 3031 2466 3422  Q 2466 3731 2256 3934  Q 2047 4138 1716 4138  Q 1388 4138 1169 3931  Q 950 3725 888 3313  L 325 3413  Q 428 3978 793 4289  Q 1159 4600 1703 4600  Q 2078 4600 2393 4439  Q 2709 4278 2876 4000  Q 3044 3722 3044 3409  Q 3044 3113 2884 2869  Q 2725 2625 2413 2481  Q 2819 2388 3044 2092  Q 3269 1797 3269 1353  Q 3269 753 2831 336  Q 2394 -81 1725 -81  Q 1122 -81 723 278  Q 325 638 269 1209  z "
                   transform="scale(0.015625)" />
              </defs>
              <use
                 xlink:href="#ArialMT-33"
                 id="use15" />
            </g>
          </g>
        </g>
        <g
           id="xtick_5">
          <g
             id="line2d_5">
            <g
               id="g16">
              <use
                 xlink:href="#mde54e76d25"
                 x="327.805976"
                 y="292.415437"
                 style="stroke: #000000; stroke-width: 0.8"
                 id="use16" />
            </g>
          </g>
          <g
             id="text_5">
            <!-- 4 -->
            <g
               transform="translate(323.635273 310.152156) scale(0.15 -0.15)"
               id="g17">
              <defs
                 id="defs16">
                <path
                   id="ArialMT-34"
                   d="M 2069 0  L 2069 1097  L 81 1097  L 81 1613  L 2172 4581  L 2631 4581  L 2631 1613  L 3250 1613  L 3250 1097  L 2631 1097  L 2631 0  L 2069 0  z M 2069 1613  L 2069 3678  L 634 1613  L 2069 1613  z "
                   transform="scale(0.015625)" />
              </defs>
              <use
                 xlink:href="#ArialMT-34"
                 id="use17" />
            </g>
          </g>
        </g>
        <g
           id="xtick_6">
          <g
             id="line2d_6">
            <g
               id="g18">
              <use
                 xlink:href="#mde54e76d25"
                 x="383.780898"
                 y="292.415437"
                 style="stroke: #000000; stroke-width: 0.8"
                 id="use18" />
            </g>
          </g>
          <g
             id="text_6">
            <!-- 5 -->
            <g
               transform="translate(379.610195 310.152156) scale(0.15 -0.15)"
               id="g19">
              <defs
                 id="defs18">
                <path
                   id="ArialMT-35"
                   d="M 266 1200  L 856 1250  Q 922 819 1161 601  Q 1400 384 1738 384  Q 2144 384 2425 690  Q 2706 997 2706 1503  Q 2706 1984 2436 2262  Q 2166 2541 1728 2541  Q 1456 2541 1237 2417  Q 1019 2294 894 2097  L 366 2166  L 809 4519  L 3088 4519  L 3088 3981  L 1259 3981  L 1013 2750  Q 1425 3038 1878 3038  Q 2478 3038 2890 2622  Q 3303 2206 3303 1553  Q 3303 931 2941 478  Q 2500 -78 1738 -78  Q 1113 -78 717 272  Q 322 622 266 1200  z "
                   transform="scale(0.015625)" />
              </defs>
              <use
                 xlink:href="#ArialMT-35"
                 id="use19" />
            </g>
          </g>
        </g>
        <g
           id="text_7">
          <!-- Hydrogen Bonds -->
          <g
             transform="translate(187.977969 327.870125) scale(0.15 -0.15)"
             id="g33">
            <defs
               id="defs19">
              <path
                 id="ArialMT-48"
                 d="M 513 0  L 513 4581  L 1119 4581  L 1119 2700  L 3500 2700  L 3500 4581  L 4106 4581  L 4106 0  L 3500 0  L 3500 2159  L 1119 2159  L 1119 0  L 513 0  z "
                 transform="scale(0.015625)" />
              <path
                 id="ArialMT-79"
                 d="M 397 -1278  L 334 -750  Q 519 -800 656 -800  Q 844 -800 956 -737  Q 1069 -675 1141 -563  Q 1194 -478 1313 -144  Q 1328 -97 1363 -6  L 103 3319  L 709 3319  L 1400 1397  Q 1534 1031 1641 628  Q 1738 1016 1872 1384  L 2581 3319  L 3144 3319  L 1881 -56  Q 1678 -603 1566 -809  Q 1416 -1088 1222 -1217  Q 1028 -1347 759 -1347  Q 597 -1347 397 -1278  z "
                 transform="scale(0.015625)" />
              <path
                 id="ArialMT-64"
                 d="M 2575 0  L 2575 419  Q 2259 -75 1647 -75  Q 1250 -75 917 144  Q 584 363 401 755  Q 219 1147 219 1656  Q 219 2153 384 2558  Q 550 2963 881 3178  Q 1213 3394 1622 3394  Q 1922 3394 2156 3267  Q 2391 3141 2538 2938  L 2538 4581  L 3097 4581  L 3097 0  L 2575 0  z M 797 1656  Q 797 1019 1065 703  Q 1334 388 1700 388  Q 2069 388 2326 689  Q 2584 991 2584 1609  Q 2584 2291 2321 2609  Q 2059 2928 1675 2928  Q 1300 2928 1048 2622  Q 797 2316 797 1656  z "
                 transform="scale(0.015625)" />
              <path
                 id="ArialMT-72"
                 d="M 416 0  L 416 3319  L 922 3319  L 922 2816  Q 1116 3169 1280 3281  Q 1444 3394 1641 3394  Q 1925 3394 2219 3213  L 2025 2691  Q 1819 2813 1613 2813  Q 1428 2813 1281 2702  Q 1134 2591 1072 2394  Q 978 2094 978 1738  L 978 0  L 416 0  z "
                 transform="scale(0.015625)" />
              <path
                 id="ArialMT-6f"
                 d="M 213 1659  Q 213 2581 725 3025  Q 1153 3394 1769 3394  Q 2453 3394 2887 2945  Q 3322 2497 3322 1706  Q 3322 1066 3130 698  Q 2938 331 2570 128  Q 2203 -75 1769 -75  Q 1072 -75 642 372  Q 213 819 213 1659  z M 791 1659  Q 791 1022 1069 705  Q 1347 388 1769 388  Q 2188 388 2466 706  Q 2744 1025 2744 1678  Q 2744 2294 2464 2611  Q 2184 2928 1769 2928  Q 1347 2928 1069 2612  Q 791 2297 791 1659  z "
                 transform="scale(0.015625)" />
              <path
                 id="ArialMT-67"
                 d="M 319 -275  L 866 -356  Q 900 -609 1056 -725  Q 1266 -881 1628 -881  Q 2019 -881 2231 -725  Q 2444 -569 2519 -288  Q 2563 -116 2559 434  Q 2191 0 1641 0  Q 956 0 581 494  Q 206 988 206 1678  Q 206 2153 378 2554  Q 550 2956 876 3175  Q 1203 3394 1644 3394  Q 2231 3394 2613 2919  L 2613 3319  L 3131 3319  L 3131 450  Q 3131 -325 2973 -648  Q 2816 -972 2473 -1159  Q 2131 -1347 1631 -1347  Q 1038 -1347 672 -1080  Q 306 -813 319 -275  z M 784 1719  Q 784 1066 1043 766  Q 1303 466 1694 466  Q 2081 466 2343 764  Q 2606 1063 2606 1700  Q 2606 2309 2336 2618  Q 2066 2928 1684 2928  Q 1309 2928 1046 2623  Q 784 2319 784 1719  z "
                 transform="scale(0.015625)" />
              <path
                 id="ArialMT-65"
                 d="M 2694 1069  L 3275 997  Q 3138 488 2766 206  Q 2394 -75 1816 -75  Q 1088 -75 661 373  Q 234 822 234 1631  Q 234 2469 665 2931  Q 1097 3394 1784 3394  Q 2450 3394 2872 2941  Q 3294 2488 3294 1666  Q 3294 1616 3291 1516  L 816 1516  Q 847 969 1125 678  Q 1403 388 1819 388  Q 2128 388 2347 550  Q 2566 713 2694 1069  z M 847 1978  L 2700 1978  Q 2663 2397 2488 2606  Q 2219 2931 1791 2931  Q 1403 2931 1139 2672  Q 875 2413 847 1978  z "
                 transform="scale(0.015625)" />
              <path
                 id="ArialMT-6e"
                 d="M 422 0  L 422 3319  L 928 3319  L 928 2847  Q 1294 3394 1984 3394  Q 2284 3394 2536 3286  Q 2788 3178 2913 3003  Q 3038 2828 3088 2588  Q 3119 2431 3119 2041  L 3119 0  L 2556 0  L 2556 2019  Q 2556 2363 2490 2533  Q 2425 2703 2258 2804  Q 2091 2906 1866 2906  Q 1506 2906 1245 2678  Q 984 2450 984 1813  L 984 0  L 422 0  z "
                 transform="scale(0.015625)" />
              <path
                 id="ArialMT-20"
                 transform="scale(0.015625)" />
              <path
                 id="ArialMT-42"
                 d="M 469 0  L 469 4581  L 2188 4581  Q 2713 4581 3030 4442  Q 3347 4303 3526 4014  Q 3706 3725 3706 3409  Q 3706 3116 3547 2856  Q 3388 2597 3066 2438  Q 3481 2316 3704 2022  Q 3928 1728 3928 1328  Q 3928 1006 3792 729  Q 3656 453 3456 303  Q 3256 153 2954 76  Q 2653 0 2216 0  L 469 0  z M 1075 2656  L 2066 2656  Q 2469 2656 2644 2709  Q 2875 2778 2992 2937  Q 3109 3097 3109 3338  Q 3109 3566 3000 3739  Q 2891 3913 2687 3977  Q 2484 4041 1991 4041  L 1075 4041  L 1075 2656  z M 1075 541  L 2216 541  Q 2509 541 2628 563  Q 2838 600 2978 687  Q 3119 775 3209 942  Q 3300 1109 3300 1328  Q 3300 1584 3169 1773  Q 3038 1963 2805 2039  Q 2572 2116 2134 2116  L 1075 2116  L 1075 541  z "
                 transform="scale(0.015625)" />
              <path
                 id="ArialMT-73"
                 d="M 197 991  L 753 1078  Q 800 744 1014 566  Q 1228 388 1613 388  Q 2000 388 2187 545  Q 2375 703 2375 916  Q 2375 1106 2209 1216  Q 2094 1291 1634 1406  Q 1016 1563 777 1677  Q 538 1791 414 1992  Q 291 2194 291 2438  Q 291 2659 392 2848  Q 494 3038 669 3163  Q 800 3259 1026 3326  Q 1253 3394 1513 3394  Q 1903 3394 2198 3281  Q 2494 3169 2634 2976  Q 2775 2784 2828 2463  L 2278 2388  Q 2241 2644 2061 2787  Q 1881 2931 1553 2931  Q 1166 2931 1000 2803  Q 834 2675 834 2503  Q 834 2394 903 2306  Q 972 2216 1119 2156  Q 1203 2125 1616 2013  Q 2213 1853 2448 1751  Q 2684 1650 2818 1456  Q 2953 1263 2953 975  Q 2953 694 2789 445  Q 2625 197 2315 61  Q 2006 -75 1616 -75  Q 969 -75 630 194  Q 291 463 197 991  z "
                 transform="scale(0.015625)" />
            </defs>
            <use
               xlink:href="#ArialMT-48"
               id="use20" />
            <use
               xlink:href="#ArialMT-79"
               x="72.216797"
               id="use21" />
            <use
               xlink:href="#ArialMT-64"
               x="122.216797"
               id="use22" />
            <use
               xlink:href="#ArialMT-72"
               x="177.832031"
               id="use23" />
            <use
               xlink:href="#ArialMT-6f"
               x="211.132812"
               id="use24" />
            <use
               xlink:href="#ArialMT-67"
               x="266.748047"
               id="use25" />
            <use
               xlink:href="#ArialMT-65"
               x="322.363281"
               id="use26" />
            <use
               xlink:href="#ArialMT-6e"
               x="377.978516"
               id="use27" />
            <use
               xlink:href="#ArialMT-20"
               x="433.59375"
               id="use28" />
            <use
               xlink:href="#ArialMT-42"
               x="461.376953"
               id="use29" />
            <use
               xlink:href="#ArialMT-6f"
               x="528.076172"
               id="use30" />
            <use
               xlink:href="#ArialMT-6e"
               x="583.691406"
               id="use31" />
            <use
               xlink:href="#ArialMT-64"
               x="639.306641"
               id="use32" />
            <use
               xlink:href="#ArialMT-73"
               x="694.921875"
               id="use33" />
          </g>
        </g>
      </g>
      <g
         id="matplotlib.axis_2">
        <g
           id="ytick_1">
          <g
             id="line2d_7">
            <defs
               id="defs33">
              <path
                 id="m1bc1405e89"
                 d="M 0 0  L -3.5 0  "
                 style="stroke: #000000; stroke-width: 0.8" />
            </defs>
            <g
               id="g34">
              <use
                 xlink:href="#m1bc1405e89"
                 x="65.283594"
                 y="292.415437"
                 style="stroke: #000000; stroke-width: 0.8"
                 id="use34" />
            </g>
          </g>
          <g
             id="text_8">
            <!-- 0 -->
            <g
               transform="translate(49.942188 297.783797) scale(0.15 -0.15)"
               id="g35">
              <use
                 xlink:href="#ArialMT-30"
                 id="use35" />
            </g>
          </g>
        </g>
        <g
           id="ytick_2">
          <g
             id="line2d_8">
            <g
               id="g36">
              <use
                 xlink:href="#m1bc1405e89"
                 x="65.283594"
                 y="274.674637"
                 style="stroke: #000000; stroke-width: 0.8"
                 id="use36" />
            </g>
          </g>
          <g
             id="text_9">
            <!-- 100 -->
            <g
               transform="translate(33.259375 280.042997) scale(0.15 -0.15)"
               id="g39">
              <use
                 xlink:href="#ArialMT-31"
                 id="use37" />
              <use
                 xlink:href="#ArialMT-30"
                 x="55.615234"
                 id="use38" />
              <use
                 xlink:href="#ArialMT-30"
                 x="111.230469"
                 id="use39" />
            </g>
          </g>
        </g>
        <g
           id="ytick_3">
          <g
             id="line2d_9">
            <g
               id="g40">
              <use
                 xlink:href="#m1bc1405e89"
                 x="65.283594"
                 y="256.933837"
                 style="stroke: #000000; stroke-width: 0.8"
                 id="use40" />
            </g>
          </g>
          <g
             id="text_10">
            <!-- 200 -->
            <g
               transform="translate(33.259375 262.302197) scale(0.15 -0.15)"
               id="g43">
              <use
                 xlink:href="#ArialMT-32"
                 id="use41" />
              <use
                 xlink:href="#ArialMT-30"
                 x="55.615234"
                 id="use42" />
              <use
                 xlink:href="#ArialMT-30"
                 x="111.230469"
                 id="use43" />
            </g>
          </g>
        </g>
        <g
           id="ytick_4">
          <g
             id="line2d_10">
            <g
               id="g44">
              <use
                 xlink:href="#m1bc1405e89"
                 x="65.283594"
                 y="239.193037"
                 style="stroke: #000000; stroke-width: 0.8"
                 id="use44" />
            </g>
          </g>
          <g
             id="text_11">
            <!-- 300 -->
            <g
               transform="translate(33.259375 244.561397) scale(0.15 -0.15)"
               id="g47">
              <use
                 xlink:href="#ArialMT-33"
                 id="use45" />
              <use
                 xlink:href="#ArialMT-30"
                 x="55.615234"
                 id="use46" />
              <use
                 xlink:href="#ArialMT-30"
                 x="111.230469"
                 id="use47" />
            </g>
          </g>
        </g>
        <g
           id="ytick_5">
          <g
             id="line2d_11">
            <g
               id="g48">
              <use
                 xlink:href="#m1bc1405e89"
                 x="65.283594"
                 y="221.452237"
                 style="stroke: #000000; stroke-width: 0.8"
                 id="use48" />
            </g>
          </g>
          <g
             id="text_12">
            <!-- 400 -->
            <g
               transform="translate(33.259375 226.820597) scale(0.15 -0.15)"
               id="g51">
              <use
                 xlink:href="#ArialMT-34"
                 id="use49" />
              <use
                 xlink:href="#ArialMT-30"
                 x="55.615234"
                 id="use50" />
              <use
                 xlink:href="#ArialMT-30"
                 x="111.230469"
                 id="use51" />
            </g>
          </g>
        </g>
        <g
           id="ytick_6">
          <g
             id="line2d_12">
            <g
               id="g52">
              <use
                 xlink:href="#m1bc1405e89"
                 x="65.283594"
                 y="203.711437"
                 style="stroke: #000000; stroke-width: 0.8"
                 id="use52" />
            </g>
          </g>
          <g
             id="text_13">
            <!-- 500 -->
            <g
               transform="translate(33.259375 209.079797) scale(0.15 -0.15)"
               id="g55">
              <use
                 xlink:href="#ArialMT-35"
                 id="use53" />
              <use
                 xlink:href="#ArialMT-30"
                 x="55.615234"
                 id="use54" />
              <use
                 xlink:href="#ArialMT-30"
                 x="111.230469"
                 id="use55" />
            </g>
          </g>
        </g>
        <g
           id="ytick_7">
          <g
             id="line2d_13">
            <g
               id="g56">
              <use
                 xlink:href="#m1bc1405e89"
                 x="65.283594"
                 y="185.970637"
                 style="stroke: #000000; stroke-width: 0.8"
                 id="use56" />
            </g>
          </g>
          <g
             id="text_14">
            <!-- 600 -->
            <g
               transform="translate(33.259375 191.338997) scale(0.15 -0.15)"
               id="g59">
              <defs
                 id="defs56">
                <path
                   id="ArialMT-36"
                   d="M 3184 3459  L 2625 3416  Q 2550 3747 2413 3897  Q 2184 4138 1850 4138  Q 1581 4138 1378 3988  Q 1113 3794 959 3422  Q 806 3050 800 2363  Q 1003 2672 1297 2822  Q 1591 2972 1913 2972  Q 2475 2972 2870 2558  Q 3266 2144 3266 1488  Q 3266 1056 3080 686  Q 2894 316 2569 119  Q 2244 -78 1831 -78  Q 1128 -78 684 439  Q 241 956 241 2144  Q 241 3472 731 4075  Q 1159 4600 1884 4600  Q 2425 4600 2770 4297  Q 3116 3994 3184 3459  z M 888 1484  Q 888 1194 1011 928  Q 1134 663 1356 523  Q 1578 384 1822 384  Q 2178 384 2434 671  Q 2691 959 2691 1453  Q 2691 1928 2437 2201  Q 2184 2475 1800 2475  Q 1419 2475 1153 2201  Q 888 1928 888 1484  z "
                   transform="scale(0.015625)" />
              </defs>
              <use
                 xlink:href="#ArialMT-36"
                 id="use57" />
              <use
                 xlink:href="#ArialMT-30"
                 x="55.615234"
                 id="use58" />
              <use
                 xlink:href="#ArialMT-30"
                 x="111.230469"
                 id="use59" />
            </g>
          </g>
        </g>
        <g
           id="ytick_8">
          <g
             id="line2d_14">
            <g
               id="g60">
              <use
                 xlink:href="#m1bc1405e89"
                 x="65.283594"
                 y="168.229837"
                 style="stroke: #000000; stroke-width: 0.8"
                 id="use60" />
            </g>
          </g>
          <g
             id="text_15">
            <!-- 700 -->
            <g
               transform="translate(33.259375 173.598197) scale(0.15 -0.15)"
               id="g63">
              <defs
                 id="defs60">
                <path
                   id="ArialMT-37"
                   d="M 303 3981  L 303 4522  L 3269 4522  L 3269 4084  Q 2831 3619 2401 2847  Q 1972 2075 1738 1259  Q 1569 684 1522 0  L 944 0  Q 953 541 1156 1306  Q 1359 2072 1739 2783  Q 2119 3494 2547 3981  L 303 3981  z "
                   transform="scale(0.015625)" />
              </defs>
              <use
                 xlink:href="#ArialMT-37"
                 id="use61" />
              <use
                 xlink:href="#ArialMT-30"
                 x="55.615234"
                 id="use62" />
              <use
                 xlink:href="#ArialMT-30"
                 x="111.230469"
                 id="use63" />
            </g>
          </g>
        </g>
        <g
           id="ytick_9">
          <g
             id="line2d_15">
            <g
               id="g64">
              <use
                 xlink:href="#m1bc1405e89"
                 x="65.283594"
                 y="150.489037"
                 style="stroke: #000000; stroke-width: 0.8"
                 id="use64" />
            </g>
          </g>
          <g
             id="text_16">
            <!-- 800 -->
            <g
               transform="translate(33.259375 155.857397) scale(0.15 -0.15)"
               id="g67">
              <defs
                 id="defs64">
                <path
                   id="ArialMT-38"
                   d="M 1131 2484  Q 781 2613 612 2850  Q 444 3088 444 3419  Q 444 3919 803 4259  Q 1163 4600 1759 4600  Q 2359 4600 2725 4251  Q 3091 3903 3091 3403  Q 3091 3084 2923 2848  Q 2756 2613 2416 2484  Q 2838 2347 3058 2040  Q 3278 1734 3278 1309  Q 3278 722 2862 322  Q 2447 -78 1769 -78  Q 1091 -78 675 323  Q 259 725 259 1325  Q 259 1772 486 2073  Q 713 2375 1131 2484  z M 1019 3438  Q 1019 3113 1228 2906  Q 1438 2700 1772 2700  Q 2097 2700 2305 2904  Q 2513 3109 2513 3406  Q 2513 3716 2298 3927  Q 2084 4138 1766 4138  Q 1444 4138 1231 3931  Q 1019 3725 1019 3438  z M 838 1322  Q 838 1081 952 856  Q 1066 631 1291 507  Q 1516 384 1775 384  Q 2178 384 2440 643  Q 2703 903 2703 1303  Q 2703 1709 2433 1975  Q 2163 2241 1756 2241  Q 1359 2241 1098 1978  Q 838 1716 838 1322  z "
                   transform="scale(0.015625)" />
              </defs>
              <use
                 xlink:href="#ArialMT-38"
                 id="use65" />
              <use
                 xlink:href="#ArialMT-30"
                 x="55.615234"
                 id="use66" />
              <use
                 xlink:href="#ArialMT-30"
                 x="111.230469"
                 id="use67" />
            </g>
          </g>
        </g>
        <g
           id="ytick_10">
          <g
             id="line2d_16">
            <g
               id="g68">
              <use
                 xlink:href="#m1bc1405e89"
                 x="65.283594"
                 y="132.748237"
                 style="stroke: #000000; stroke-width: 0.8"
                 id="use68" />
            </g>
          </g>
          <g
             id="text_17">
            <!-- 900 -->
            <g
               transform="translate(33.259375 138.116597) scale(0.15 -0.15)"
               id="g71">
              <defs
                 id="defs68">
                <path
                   id="ArialMT-39"
                   d="M 350 1059  L 891 1109  Q 959 728 1153 556  Q 1347 384 1650 384  Q 1909 384 2104 503  Q 2300 622 2425 820  Q 2550 1019 2634 1356  Q 2719 1694 2719 2044  Q 2719 2081 2716 2156  Q 2547 1888 2255 1720  Q 1963 1553 1622 1553  Q 1053 1553 659 1965  Q 266 2378 266 3053  Q 266 3750 677 4175  Q 1088 4600 1706 4600  Q 2153 4600 2523 4359  Q 2894 4119 3086 3673  Q 3278 3228 3278 2384  Q 3278 1506 3087 986  Q 2897 466 2520 194  Q 2144 -78 1638 -78  Q 1100 -78 759 220  Q 419 519 350 1059  z M 2653 3081  Q 2653 3566 2395 3850  Q 2138 4134 1775 4134  Q 1400 4134 1122 3828  Q 844 3522 844 3034  Q 844 2597 1108 2323  Q 1372 2050 1759 2050  Q 2150 2050 2401 2323  Q 2653 2597 2653 3081  z "
                   transform="scale(0.015625)" />
              </defs>
              <use
                 xlink:href="#ArialMT-39"
                 id="use69" />
              <use
                 xlink:href="#ArialMT-30"
                 x="55.615234"
                 id="use70" />
              <use
                 xlink:href="#ArialMT-30"
                 x="111.230469"
                 id="use71" />
            </g>
          </g>
        </g>
        <g
           id="ytick_11">
          <g
             id="line2d_17">
            <g
               id="g72">
              <use
                 xlink:href="#m1bc1405e89"
                 x="65.283594"
                 y="115.007437"
                 style="stroke: #000000; stroke-width: 0.8"
                 id="use72" />
            </g>
          </g>
          <g
             id="text_18">
            <!-- 1000 -->
            <g
               transform="translate(24.917969 120.375797) scale(0.15 -0.15)"
               id="g76">
              <use
                 xlink:href="#ArialMT-31"
                 id="use73" />
              <use
                 xlink:href="#ArialMT-30"
                 x="55.615234"
                 id="use74" />
              <use
                 xlink:href="#ArialMT-30"
                 x="111.230469"
                 id="use75" />
              <use
                 xlink:href="#ArialMT-30"
                 x="166.845703"
                 id="use76" />
            </g>
          </g>
        </g>
        <g
           id="ytick_12">
          <g
             id="line2d_18">
            <g
               id="g77">
              <use
                 xlink:href="#m1bc1405e89"
                 x="65.283594"
                 y="97.266637"
                 style="stroke: #000000; stroke-width: 0.8"
                 id="use77" />
            </g>
          </g>
          <g
             id="text_19">
            <!-- 1100 -->
            <g
               transform="translate(26.024219 102.634997) scale(0.15 -0.15)"
               id="g81">
              <use
                 xlink:href="#ArialMT-31"
                 id="use78" />
              <use
                 xlink:href="#ArialMT-31"
                 x="48.240234"
                 id="use79" />
              <use
                 xlink:href="#ArialMT-30"
                 x="103.855469"
                 id="use80" />
              <use
                 xlink:href="#ArialMT-30"
                 x="159.470703"
                 id="use81" />
            </g>
          </g>
        </g>
        <g
           id="ytick_13">
          <g
             id="line2d_19">
            <g
               id="g82">
              <use
                 xlink:href="#m1bc1405e89"
                 x="65.283594"
                 y="79.525837"
                 style="stroke: #000000; stroke-width: 0.8"
                 id="use82" />
            </g>
          </g>
          <g
             id="text_20">
            <!-- 1200 -->
            <g
               transform="translate(24.917969 84.894197) scale(0.15 -0.15)"
               id="g86">
              <use
                 xlink:href="#ArialMT-31"
                 id="use83" />
              <use
                 xlink:href="#ArialMT-32"
                 x="55.615234"
                 id="use84" />
              <use
                 xlink:href="#ArialMT-30"
                 x="111.230469"
                 id="use85" />
              <use
                 xlink:href="#ArialMT-30"
                 x="166.845703"
                 id="use86" />
            </g>
          </g>
        </g>
        <g
           id="ytick_14">
          <g
             id="line2d_20">
            <g
               id="g87">
              <use
                 xlink:href="#m1bc1405e89"
                 x="65.283594"
                 y="61.785037"
                 style="stroke: #000000; stroke-width: 0.8"
                 id="use87" />
            </g>
          </g>
          <g
             id="text_21">
            <!-- 1300 -->
            <g
               transform="translate(24.917969 67.153397) scale(0.15 -0.15)"
               id="g91">
              <use
                 xlink:href="#ArialMT-31"
                 id="use88" />
              <use
                 xlink:href="#ArialMT-33"
                 x="55.615234"
                 id="use89" />
              <use
                 xlink:href="#ArialMT-30"
                 x="111.230469"
                 id="use90" />
              <use
                 xlink:href="#ArialMT-30"
                 x="166.845703"
                 id="use91" />
            </g>
          </g>
        </g>
        <g
           id="ytick_15">
          <g
             id="line2d_21">
            <g
               id="g92">
              <use
                 xlink:href="#m1bc1405e89"
                 x="65.283594"
                 y="44.044237"
                 style="stroke: #000000; stroke-width: 0.8"
                 id="use92" />
            </g>
          </g>
          <g
             id="text_22">
            <!-- 1400 -->
            <g
               transform="translate(24.917969 49.412597) scale(0.15 -0.15)"
               id="g96">
              <use
                 xlink:href="#ArialMT-31"
                 id="use93" />
              <use
                 xlink:href="#ArialMT-34"
                 x="55.615234"
                 id="use94" />
              <use
                 xlink:href="#ArialMT-30"
                 x="111.230469"
                 id="use95" />
              <use
                 xlink:href="#ArialMT-30"
                 x="166.845703"
                 id="use96" />
            </g>
          </g>
        </g>
        <g
           id="ytick_16">
          <g
             id="line2d_22">
            <g
               id="g97">
              <use
                 xlink:href="#m1bc1405e89"
                 x="65.283594"
                 y="26.303437"
                 style="stroke: #000000; stroke-width: 0.8"
                 id="use97" />
            </g>
          </g>
          <g
             id="text_23">
            <!-- 1500 -->
            <g
               transform="translate(24.917969 31.671797) scale(0.15 -0.15)"
               id="g101">
              <use
                 xlink:href="#ArialMT-31"
                 id="use98" />
              <use
                 xlink:href="#ArialMT-35"
                 x="55.615234"
                 id="use99" />
              <use
                 xlink:href="#ArialMT-30"
                 x="111.230469"
                 id="use100" />
              <use
                 xlink:href="#ArialMT-30"
                 x="166.845703"
                 id="use101" />
            </g>
          </g>
        </g>
        <g
           id="text_24">
          <!-- Times -->
          <g
             transform="translate(17.936719 179.493422) rotate(-90) scale(0.15 -0.15)"
             id="g106">
            <defs
               id="defs101">
              <path
                 id="ArialMT-54"
                 d="M 1659 0  L 1659 4041  L 150 4041  L 150 4581  L 3781 4581  L 3781 4041  L 2266 4041  L 2266 0  L 1659 0  z "
                 transform="scale(0.015625)" />
              <path
                 id="ArialMT-69"
                 d="M 425 3934  L 425 4581  L 988 4581  L 988 3934  L 425 3934  z M 425 0  L 425 3319  L 988 3319  L 988 0  L 425 0  z "
                 transform="scale(0.015625)" />
              <path
                 id="ArialMT-6d"
                 d="M 422 0  L 422 3319  L 925 3319  L 925 2853  Q 1081 3097 1340 3245  Q 1600 3394 1931 3394  Q 2300 3394 2536 3241  Q 2772 3088 2869 2813  Q 3263 3394 3894 3394  Q 4388 3394 4653 3120  Q 4919 2847 4919 2278  L 4919 0  L 4359 0  L 4359 2091  Q 4359 2428 4304 2576  Q 4250 2725 4106 2815  Q 3963 2906 3769 2906  Q 3419 2906 3187 2673  Q 2956 2441 2956 1928  L 2956 0  L 2394 0  L 2394 2156  Q 2394 2531 2256 2718  Q 2119 2906 1806 2906  Q 1569 2906 1367 2781  Q 1166 2656 1075 2415  Q 984 2175 984 1722  L 984 0  L 422 0  z "
                 transform="scale(0.015625)" />
            </defs>
            <use
               xlink:href="#ArialMT-54"
               id="use102" />
            <use
               xlink:href="#ArialMT-69"
               x="57.333984"
               id="use103" />
            <use
               xlink:href="#ArialMT-6d"
               x="79.550781"
               id="use104" />
            <use
               xlink:href="#ArialMT-65"
               x="162.851562"
               id="use105" />
            <use
               xlink:href="#ArialMT-73"
               x="218.466797"
               id="use106" />
          </g>
        </g>
      </g>
      <g
         id="LineCollection_1">
        <path
           d="M 103.90629 99.750349  L 103.90629 50.076109  "
           clip-path="url(#ped741810b1)"
           style="fill: none; stroke: #000000; stroke-width: 1.5"
           id="path106" />
        <path
           d="M 159.881211 197.147341  L 159.881211 178.342093  "
           clip-path="url(#ped741810b1)"
           style="fill: none; stroke: #000000; stroke-width: 1.5"
           id="path107" />
        <path
           d="M 215.856133 276.626125  L 215.856133 251.966413  "
           clip-path="url(#ped741810b1)"
           style="fill: none; stroke: #000000; stroke-width: 1.5"
           id="path108" />
        <path
           d="M 271.831055 290.996173  L 271.831055 285.141709  "
           clip-path="url(#ped741810b1)"
           style="fill: none; stroke: #000000; stroke-width: 1.5"
           id="path109" />
        <path
           d="M 327.805976 292.415437  L 327.805976 291.705805  "
           clip-path="url(#ped741810b1)"
           style="fill: none; stroke: #000000; stroke-width: 1.5"
           id="path110" />
        <path
           d="M 383.780898 292.415437  L 383.780898 292.415437  "
           clip-path="url(#ped741810b1)"
           style="fill: none; stroke: #000000; stroke-width: 1.5"
           id="path111" />
      </g>
      <g
         id="patch_9">
        <path
           d="M 65.283594 292.415437  L 65.283594 26.303437  "
           style="fill: none; stroke: #000000; stroke-width: 0.8; stroke-linejoin: miter; stroke-linecap: square"
           id="path112" />
      </g>
      <g
         id="patch_10">
        <path
           d="M 422.403594 292.415437  L 422.403594 26.303437  "
           style="fill: none; stroke: #000000; stroke-width: 0.8; stroke-linejoin: miter; stroke-linecap: square"
           id="path113" />
      </g>
      <g
         id="patch_11">
        <path
           d="M 65.283594 292.415437  L 422.403594 292.415437  "
           style="fill: none; stroke: #000000; stroke-width: 0.8; stroke-linejoin: miter; stroke-linecap: square"
           id="path114" />
      </g>
      <g
         id="patch_12">
        <path
           d="M 65.283594 26.303437  L 422.403594 26.303437  "
           style="fill: none; stroke: #000000; stroke-width: 0.8; stroke-linejoin: miter; stroke-linecap: square"
           id="path115" />
      </g>
      <g
         id="text_25">
        <!-- Numbers of Hydrogen Bonds -->
        <g
           transform="translate(127.791406 20.303437) scale(0.18 -0.18)"
           id="g139">
          <defs
             id="defs115">
            <path
               id="ArialMT-4e"
               d="M 488 0  L 488 4581  L 1109 4581  L 3516 984  L 3516 4581  L 4097 4581  L 4097 0  L 3475 0  L 1069 3600  L 1069 0  L 488 0  z "
               transform="scale(0.015625)" />
            <path
               id="ArialMT-75"
               d="M 2597 0  L 2597 488  Q 2209 -75 1544 -75  Q 1250 -75 995 37  Q 741 150 617 320  Q 494 491 444 738  Q 409 903 409 1263  L 409 3319  L 972 3319  L 972 1478  Q 972 1038 1006 884  Q 1059 663 1231 536  Q 1403 409 1656 409  Q 1909 409 2131 539  Q 2353 669 2445 892  Q 2538 1116 2538 1541  L 2538 3319  L 3100 3319  L 3100 0  L 2597 0  z "
               transform="scale(0.015625)" />
            <path
               id="ArialMT-62"
               d="M 941 0  L 419 0  L 419 4581  L 981 4581  L 981 2947  Q 1338 3394 1891 3394  Q 2197 3394 2470 3270  Q 2744 3147 2920 2923  Q 3097 2700 3197 2384  Q 3297 2069 3297 1709  Q 3297 856 2875 390  Q 2453 -75 1863 -75  Q 1275 -75 941 416  L 941 0  z M 934 1684  Q 934 1088 1097 822  Q 1363 388 1816 388  Q 2184 388 2453 708  Q 2722 1028 2722 1663  Q 2722 2313 2464 2622  Q 2206 2931 1841 2931  Q 1472 2931 1203 2611  Q 934 2291 934 1684  z "
               transform="scale(0.015625)" />
            <path
               id="ArialMT-66"
               d="M 556 0  L 556 2881  L 59 2881  L 59 3319  L 556 3319  L 556 3672  Q 556 4006 616 4169  Q 697 4388 901 4523  Q 1106 4659 1475 4659  Q 1713 4659 2000 4603  L 1916 4113  Q 1741 4144 1584 4144  Q 1328 4144 1222 4034  Q 1116 3925 1116 3625  L 1116 3319  L 1763 3319  L 1763 2881  L 1116 2881  L 1116 0  L 556 0  z "
               transform="scale(0.015625)" />
          </defs>
          <use
             xlink:href="#ArialMT-4e"
             id="use115" />
          <use
             xlink:href="#ArialMT-75"
             x="72.216797"
             id="use116" />
          <use
             xlink:href="#ArialMT-6d"
             x="127.832031"
             id="use117" />
          <use
             xlink:href="#ArialMT-62"
             x="211.132812"
             id="use118" />
          <use
             xlink:href="#ArialMT-65"
             x="266.748047"
             id="use119" />
          <use
             xlink:href="#ArialMT-72"
             x="322.363281"
             id="use120" />
          <use
             xlink:href="#ArialMT-73"
             x="355.664062"
             id="use121" />
          <use
             xlink:href="#ArialMT-20"
             x="405.664062"
             id="use122" />
          <use
             xlink:href="#ArialMT-6f"
             x="433.447266"
             id="use123" />
          <use
             xlink:href="#ArialMT-66"
             x="489.0625"
             id="use124" />
          <use
             xlink:href="#ArialMT-20"
             x="516.845703"
             id="use125" />
          <use
             xlink:href="#ArialMT-48"
             x="544.628906"
             id="use126" />
          <use
             xlink:href="#ArialMT-79"
             x="616.845703"
             id="use127" />
          <use
             xlink:href="#ArialMT-64"
             x="666.845703"
             id="use128" />
          <use
             xlink:href="#ArialMT-72"
             x="722.460938"
             id="use129" />
          <use
             xlink:href="#ArialMT-6f"
             x="755.761719"
             id="use130" />
          <use
             xlink:href="#ArialMT-67"
             x="811.376953"
             id="use131" />
          <use
             xlink:href="#ArialMT-65"
             x="866.992188"
             id="use132" />
          <use
             xlink:href="#ArialMT-6e"
             x="922.607422"
             id="use133" />
          <use
             xlink:href="#ArialMT-20"
             x="978.222656"
             id="use134" />
          <use
             xlink:href="#ArialMT-42"
             x="1006.005859"
             id="use135" />
          <use
             xlink:href="#ArialMT-6f"
             x="1072.705078"
             id="use136" />
          <use
             xlink:href="#ArialMT-6e"
             x="1128.320312"
             id="use137" />
          <use
             xlink:href="#ArialMT-64"
             x="1183.935547"
             id="use138" />
          <use
             xlink:href="#ArialMT-73"
             x="1239.550781"
             id="use139" />
        </g>
      </g>
    </g>
  </g>
  <defs
     id="defs139">
    <clipPath
       id="ped741810b1">
      <rect
         x="65.283594"
         y="26.303437"
         width="357.12"
         height="266.112"
         id="rect139" />
    </clipPath>
  </defs>
  <text
     xml:space="preserve"
     style="font-weight:bold;font-size:18px;font-family:Arial;-inkscape-font-specification:'Arial, Bold';text-align:center;writing-mode:lr-tb;direction:ltr;text-anchor:middle;fill:#1a1a1a;stroke:#b3b3ff;stroke-width:1.125;stroke-linecap:butt;stroke-linejoin:round;stroke-opacity:0;paint-order:stroke fill markers"
     x="7.6480598"
     y="14.997759"
     id="text114"><tspan
       sodipodi:role="line"
       id="tspan114"
       style="font-weight:normal;stroke-width:1.125"
       x="7.6480598"
       y="14.997759">f)</tspan></text>
</svg>
