<?xml version="1.0" encoding="utf-8" standalone="no"?>
<!DOCTYPE svg PUBLIC "-//W3C//DTD SVG 1.1//EN"
  "http://www.w3.org/Graphics/SVG/1.1/DTD/svg11.dtd">
<svg xmlns:xlink="http://www.w3.org/1999/xlink" width="420.829375pt" height="325.986375pt" viewBox="0 0 420.829375 325.986375" xmlns="http://www.w3.org/2000/svg" version="1.1">
 <metadata>
  <rdf:RDF xmlns:dc="http://purl.org/dc/elements/1.1/" xmlns:cc="http://creativecommons.org/ns#" xmlns:rdf="http://www.w3.org/1999/02/22-rdf-syntax-ns#">
   <cc:Work>
    <dc:type rdf:resource="http://purl.org/dc/dcmitype/StillImage"/>
    <dc:date>2025-01-20T16:55:59.661447</dc:date>
    <dc:format>image/svg+xml</dc:format>
    <dc:creator>
     <cc:Agent>
      <dc:title>Matplotlib v3.9.0, https://matplotlib.org/</dc:title>
     </cc:Agent>
    </dc:creator>
   </cc:Work>
  </rdf:RDF>
 </metadata>
 <defs>
  <style type="text/css">*{stroke-linejoin: round; stroke-linecap: butt}</style>
 </defs>
 <g id="figure_1">
  <g id="patch_1">
   <path d="M 0 325.986375 
L 420.829375 325.986375 
L 420.829375 0 
L 0 0 
z
" style="fill: #ffffff"/>
  </g>
  <g id="axes_1">
   <g id="patch_2">
    <path d="M 46.965625 288.430125 
L 404.085625 288.430125 
L 404.085625 22.318125 
L 46.965625 22.318125 
z
" style="fill: #ffffff"/>
   </g>
   <g id="matplotlib.axis_1">
    <g id="xtick_1">
     <g id="line2d_1">
      <defs>
       <path id="m7754a28f12" d="M 0 0 
L 0 3.5 
" style="stroke: #000000; stroke-width: 0.8"/>
      </defs>
      <g>
       <use xlink:href="#m7754a28f12" x="48.15207" y="288.430125" style="stroke: #000000; stroke-width: 0.8"/>
      </g>
     </g>
     <g id="text_1">
      <!-- 100 -->
      <g transform="translate(38.60832 303.028562) scale(0.1 -0.1)">
       <defs>
        <path id="DejaVuSans-31" d="M 794 531 
L 1825 531 
L 1825 4091 
L 703 3866 
L 703 4441 
L 1819 4666 
L 2450 4666 
L 2450 531 
L 3481 531 
L 3481 0 
L 794 0 
L 794 531 
z
" transform="scale(0.015625)"/>
        <path id="DejaVuSans-30" d="M 2034 4250 
Q 1547 4250 1301 3770 
Q 1056 3291 1056 2328 
Q 1056 1369 1301 889 
Q 1547 409 2034 409 
Q 2525 409 2770 889 
Q 3016 1369 3016 2328 
Q 3016 3291 2770 3770 
Q 2525 4250 2034 4250 
z
M 2034 4750 
Q 2819 4750 3233 4129 
Q 3647 3509 3647 2328 
Q 3647 1150 3233 529 
Q 2819 -91 2034 -91 
Q 1250 -91 836 529 
Q 422 1150 422 2328 
Q 422 3509 836 4129 
Q 1250 4750 2034 4750 
z
" transform="scale(0.015625)"/>
       </defs>
       <use xlink:href="#DejaVuSans-31"/>
       <use xlink:href="#DejaVuSans-30" x="63.623047"/>
       <use xlink:href="#DejaVuSans-30" x="127.246094"/>
      </g>
     </g>
    </g>
    <g id="xtick_2">
     <g id="line2d_2">
      <g>
       <use xlink:href="#m7754a28f12" x="107.474329" y="288.430125" style="stroke: #000000; stroke-width: 0.8"/>
      </g>
     </g>
     <g id="text_2">
      <!-- 105 -->
      <g transform="translate(97.930579 303.028562) scale(0.1 -0.1)">
       <defs>
        <path id="DejaVuSans-35" d="M 691 4666 
L 3169 4666 
L 3169 4134 
L 1269 4134 
L 1269 2991 
Q 1406 3038 1543 3061 
Q 1681 3084 1819 3084 
Q 2600 3084 3056 2656 
Q 3513 2228 3513 1497 
Q 3513 744 3044 326 
Q 2575 -91 1722 -91 
Q 1428 -91 1123 -41 
Q 819 9 494 109 
L 494 744 
Q 775 591 1075 516 
Q 1375 441 1709 441 
Q 2250 441 2565 725 
Q 2881 1009 2881 1497 
Q 2881 1984 2565 2268 
Q 2250 2553 1709 2553 
Q 1456 2553 1204 2497 
Q 953 2441 691 2322 
L 691 4666 
z
" transform="scale(0.015625)"/>
       </defs>
       <use xlink:href="#DejaVuSans-31"/>
       <use xlink:href="#DejaVuSans-30" x="63.623047"/>
       <use xlink:href="#DejaVuSans-35" x="127.246094"/>
      </g>
     </g>
    </g>
    <g id="xtick_3">
     <g id="line2d_3">
      <g>
       <use xlink:href="#m7754a28f12" x="166.796588" y="288.430125" style="stroke: #000000; stroke-width: 0.8"/>
      </g>
     </g>
     <g id="text_3">
      <!-- 110 -->
      <g transform="translate(157.252838 303.028562) scale(0.1 -0.1)">
       <use xlink:href="#DejaVuSans-31"/>
       <use xlink:href="#DejaVuSans-31" x="63.623047"/>
       <use xlink:href="#DejaVuSans-30" x="127.246094"/>
      </g>
     </g>
    </g>
    <g id="xtick_4">
     <g id="line2d_4">
      <g>
       <use xlink:href="#m7754a28f12" x="226.118848" y="288.430125" style="stroke: #000000; stroke-width: 0.8"/>
      </g>
     </g>
     <g id="text_4">
      <!-- 115 -->
      <g transform="translate(216.575098 303.028562) scale(0.1 -0.1)">
       <use xlink:href="#DejaVuSans-31"/>
       <use xlink:href="#DejaVuSans-31" x="63.623047"/>
       <use xlink:href="#DejaVuSans-35" x="127.246094"/>
      </g>
     </g>
    </g>
    <g id="xtick_5">
     <g id="line2d_5">
      <g>
       <use xlink:href="#m7754a28f12" x="285.441107" y="288.430125" style="stroke: #000000; stroke-width: 0.8"/>
      </g>
     </g>
     <g id="text_5">
      <!-- 120 -->
      <g transform="translate(275.897357 303.028562) scale(0.1 -0.1)">
       <defs>
        <path id="DejaVuSans-32" d="M 1228 531 
L 3431 531 
L 3431 0 
L 469 0 
L 469 531 
Q 828 903 1448 1529 
Q 2069 2156 2228 2338 
Q 2531 2678 2651 2914 
Q 2772 3150 2772 3378 
Q 2772 3750 2511 3984 
Q 2250 4219 1831 4219 
Q 1534 4219 1204 4116 
Q 875 4013 500 3803 
L 500 4441 
Q 881 4594 1212 4672 
Q 1544 4750 1819 4750 
Q 2544 4750 2975 4387 
Q 3406 4025 3406 3419 
Q 3406 3131 3298 2873 
Q 3191 2616 2906 2266 
Q 2828 2175 2409 1742 
Q 1991 1309 1228 531 
z
" transform="scale(0.015625)"/>
       </defs>
       <use xlink:href="#DejaVuSans-31"/>
       <use xlink:href="#DejaVuSans-32" x="63.623047"/>
       <use xlink:href="#DejaVuSans-30" x="127.246094"/>
      </g>
     </g>
    </g>
    <g id="xtick_6">
     <g id="line2d_6">
      <g>
       <use xlink:href="#m7754a28f12" x="344.763366" y="288.430125" style="stroke: #000000; stroke-width: 0.8"/>
      </g>
     </g>
     <g id="text_6">
      <!-- 125 -->
      <g transform="translate(335.219616 303.028562) scale(0.1 -0.1)">
       <use xlink:href="#DejaVuSans-31"/>
       <use xlink:href="#DejaVuSans-32" x="63.623047"/>
       <use xlink:href="#DejaVuSans-35" x="127.246094"/>
      </g>
     </g>
    </g>
    <g id="xtick_7">
     <g id="line2d_7">
      <g>
       <use xlink:href="#m7754a28f12" x="404.085625" y="288.430125" style="stroke: #000000; stroke-width: 0.8"/>
      </g>
     </g>
     <g id="text_7">
      <!-- 130 -->
      <g transform="translate(394.541875 303.028562) scale(0.1 -0.1)">
       <defs>
        <path id="DejaVuSans-33" d="M 2597 2516 
Q 3050 2419 3304 2112 
Q 3559 1806 3559 1356 
Q 3559 666 3084 287 
Q 2609 -91 1734 -91 
Q 1441 -91 1130 -33 
Q 819 25 488 141 
L 488 750 
Q 750 597 1062 519 
Q 1375 441 1716 441 
Q 2309 441 2620 675 
Q 2931 909 2931 1356 
Q 2931 1769 2642 2001 
Q 2353 2234 1838 2234 
L 1294 2234 
L 1294 2753 
L 1863 2753 
Q 2328 2753 2575 2939 
Q 2822 3125 2822 3475 
Q 2822 3834 2567 4026 
Q 2313 4219 1838 4219 
Q 1578 4219 1281 4162 
Q 984 4106 628 3988 
L 628 4550 
Q 988 4650 1302 4700 
Q 1616 4750 1894 4750 
Q 2613 4750 3031 4423 
Q 3450 4097 3450 3541 
Q 3450 3153 3228 2886 
Q 3006 2619 2597 2516 
z
" transform="scale(0.015625)"/>
       </defs>
       <use xlink:href="#DejaVuSans-31"/>
       <use xlink:href="#DejaVuSans-33" x="63.623047"/>
       <use xlink:href="#DejaVuSans-30" x="127.246094"/>
      </g>
     </g>
    </g>
    <g id="text_8">
     <!-- Strain(%) -->
     <g transform="translate(202.061563 316.706687) scale(0.1 -0.1)">
      <defs>
       <path id="DejaVuSans-53" d="M 3425 4513 
L 3425 3897 
Q 3066 4069 2747 4153 
Q 2428 4238 2131 4238 
Q 1616 4238 1336 4038 
Q 1056 3838 1056 3469 
Q 1056 3159 1242 3001 
Q 1428 2844 1947 2747 
L 2328 2669 
Q 3034 2534 3370 2195 
Q 3706 1856 3706 1288 
Q 3706 609 3251 259 
Q 2797 -91 1919 -91 
Q 1588 -91 1214 -16 
Q 841 59 441 206 
L 441 856 
Q 825 641 1194 531 
Q 1563 422 1919 422 
Q 2459 422 2753 634 
Q 3047 847 3047 1241 
Q 3047 1584 2836 1778 
Q 2625 1972 2144 2069 
L 1759 2144 
Q 1053 2284 737 2584 
Q 422 2884 422 3419 
Q 422 4038 858 4394 
Q 1294 4750 2059 4750 
Q 2388 4750 2728 4690 
Q 3069 4631 3425 4513 
z
" transform="scale(0.015625)"/>
       <path id="DejaVuSans-74" d="M 1172 4494 
L 1172 3500 
L 2356 3500 
L 2356 3053 
L 1172 3053 
L 1172 1153 
Q 1172 725 1289 603 
Q 1406 481 1766 481 
L 2356 481 
L 2356 0 
L 1766 0 
Q 1100 0 847 248 
Q 594 497 594 1153 
L 594 3053 
L 172 3053 
L 172 3500 
L 594 3500 
L 594 4494 
L 1172 4494 
z
" transform="scale(0.015625)"/>
       <path id="DejaVuSans-72" d="M 2631 2963 
Q 2534 3019 2420 3045 
Q 2306 3072 2169 3072 
Q 1681 3072 1420 2755 
Q 1159 2438 1159 1844 
L 1159 0 
L 581 0 
L 581 3500 
L 1159 3500 
L 1159 2956 
Q 1341 3275 1631 3429 
Q 1922 3584 2338 3584 
Q 2397 3584 2469 3576 
Q 2541 3569 2628 3553 
L 2631 2963 
z
" transform="scale(0.015625)"/>
       <path id="DejaVuSans-61" d="M 2194 1759 
Q 1497 1759 1228 1600 
Q 959 1441 959 1056 
Q 959 750 1161 570 
Q 1363 391 1709 391 
Q 2188 391 2477 730 
Q 2766 1069 2766 1631 
L 2766 1759 
L 2194 1759 
z
M 3341 1997 
L 3341 0 
L 2766 0 
L 2766 531 
Q 2569 213 2275 61 
Q 1981 -91 1556 -91 
Q 1019 -91 701 211 
Q 384 513 384 1019 
Q 384 1609 779 1909 
Q 1175 2209 1959 2209 
L 2766 2209 
L 2766 2266 
Q 2766 2663 2505 2880 
Q 2244 3097 1772 3097 
Q 1472 3097 1187 3025 
Q 903 2953 641 2809 
L 641 3341 
Q 956 3463 1253 3523 
Q 1550 3584 1831 3584 
Q 2591 3584 2966 3190 
Q 3341 2797 3341 1997 
z
" transform="scale(0.015625)"/>
       <path id="DejaVuSans-69" d="M 603 3500 
L 1178 3500 
L 1178 0 
L 603 0 
L 603 3500 
z
M 603 4863 
L 1178 4863 
L 1178 4134 
L 603 4134 
L 603 4863 
z
" transform="scale(0.015625)"/>
       <path id="DejaVuSans-6e" d="M 3513 2113 
L 3513 0 
L 2938 0 
L 2938 2094 
Q 2938 2591 2744 2837 
Q 2550 3084 2163 3084 
Q 1697 3084 1428 2787 
Q 1159 2491 1159 1978 
L 1159 0 
L 581 0 
L 581 3500 
L 1159 3500 
L 1159 2956 
Q 1366 3272 1645 3428 
Q 1925 3584 2291 3584 
Q 2894 3584 3203 3211 
Q 3513 2838 3513 2113 
z
" transform="scale(0.015625)"/>
       <path id="DejaVuSans-28" d="M 1984 4856 
Q 1566 4138 1362 3434 
Q 1159 2731 1159 2009 
Q 1159 1288 1364 580 
Q 1569 -128 1984 -844 
L 1484 -844 
Q 1016 -109 783 600 
Q 550 1309 550 2009 
Q 550 2706 781 3412 
Q 1013 4119 1484 4856 
L 1984 4856 
z
" transform="scale(0.015625)"/>
       <path id="DejaVuSans-25" d="M 4653 2053 
Q 4381 2053 4226 1822 
Q 4072 1591 4072 1178 
Q 4072 772 4226 539 
Q 4381 306 4653 306 
Q 4919 306 5073 539 
Q 5228 772 5228 1178 
Q 5228 1588 5073 1820 
Q 4919 2053 4653 2053 
z
M 4653 2450 
Q 5147 2450 5437 2106 
Q 5728 1763 5728 1178 
Q 5728 594 5436 251 
Q 5144 -91 4653 -91 
Q 4153 -91 3862 251 
Q 3572 594 3572 1178 
Q 3572 1766 3864 2108 
Q 4156 2450 4653 2450 
z
M 1428 4353 
Q 1159 4353 1004 4120 
Q 850 3888 850 3481 
Q 850 3069 1003 2837 
Q 1156 2606 1428 2606 
Q 1700 2606 1854 2837 
Q 2009 3069 2009 3481 
Q 2009 3884 1853 4118 
Q 1697 4353 1428 4353 
z
M 4250 4750 
L 4750 4750 
L 1831 -91 
L 1331 -91 
L 4250 4750 
z
M 1428 4750 
Q 1922 4750 2215 4408 
Q 2509 4066 2509 3481 
Q 2509 2891 2217 2550 
Q 1925 2209 1428 2209 
Q 931 2209 642 2551 
Q 353 2894 353 3481 
Q 353 4063 643 4406 
Q 934 4750 1428 4750 
z
" transform="scale(0.015625)"/>
       <path id="DejaVuSans-29" d="M 513 4856 
L 1013 4856 
Q 1481 4119 1714 3412 
Q 1947 2706 1947 2009 
Q 1947 1309 1714 600 
Q 1481 -109 1013 -844 
L 513 -844 
Q 928 -128 1133 580 
Q 1338 1288 1338 2009 
Q 1338 2731 1133 3434 
Q 928 4138 513 4856 
z
" transform="scale(0.015625)"/>
      </defs>
      <use xlink:href="#DejaVuSans-53"/>
      <use xlink:href="#DejaVuSans-74" x="63.476562"/>
      <use xlink:href="#DejaVuSans-72" x="102.685547"/>
      <use xlink:href="#DejaVuSans-61" x="143.798828"/>
      <use xlink:href="#DejaVuSans-69" x="205.078125"/>
      <use xlink:href="#DejaVuSans-6e" x="232.861328"/>
      <use xlink:href="#DejaVuSans-28" x="296.240234"/>
      <use xlink:href="#DejaVuSans-25" x="335.253906"/>
      <use xlink:href="#DejaVuSans-29" x="430.273438"/>
     </g>
    </g>
   </g>
   <g id="matplotlib.axis_2">
    <g id="ytick_1">
     <g id="line2d_8">
      <defs>
       <path id="m968e91fea5" d="M 0 0 
L -3.5 0 
" style="stroke: #000000; stroke-width: 0.8"/>
      </defs>
      <g>
       <use xlink:href="#m968e91fea5" x="46.965625" y="288.430125" style="stroke: #000000; stroke-width: 0.8"/>
      </g>
     </g>
     <g id="text_9">
      <!-- 0 -->
      <g transform="translate(33.603125 292.229344) scale(0.1 -0.1)">
       <use xlink:href="#DejaVuSans-30"/>
      </g>
     </g>
    </g>
    <g id="ytick_2">
     <g id="line2d_9">
      <g>
       <use xlink:href="#m968e91fea5" x="46.965625" y="250.414125" style="stroke: #000000; stroke-width: 0.8"/>
      </g>
     </g>
     <g id="text_10">
      <!-- 100 -->
      <g transform="translate(20.878125 254.213344) scale(0.1 -0.1)">
       <use xlink:href="#DejaVuSans-31"/>
       <use xlink:href="#DejaVuSans-30" x="63.623047"/>
       <use xlink:href="#DejaVuSans-30" x="127.246094"/>
      </g>
     </g>
    </g>
    <g id="ytick_3">
     <g id="line2d_10">
      <g>
       <use xlink:href="#m968e91fea5" x="46.965625" y="212.398125" style="stroke: #000000; stroke-width: 0.8"/>
      </g>
     </g>
     <g id="text_11">
      <!-- 200 -->
      <g transform="translate(20.878125 216.197344) scale(0.1 -0.1)">
       <use xlink:href="#DejaVuSans-32"/>
       <use xlink:href="#DejaVuSans-30" x="63.623047"/>
       <use xlink:href="#DejaVuSans-30" x="127.246094"/>
      </g>
     </g>
    </g>
    <g id="ytick_4">
     <g id="line2d_11">
      <g>
       <use xlink:href="#m968e91fea5" x="46.965625" y="174.382125" style="stroke: #000000; stroke-width: 0.8"/>
      </g>
     </g>
     <g id="text_12">
      <!-- 300 -->
      <g transform="translate(20.878125 178.181344) scale(0.1 -0.1)">
       <use xlink:href="#DejaVuSans-33"/>
       <use xlink:href="#DejaVuSans-30" x="63.623047"/>
       <use xlink:href="#DejaVuSans-30" x="127.246094"/>
      </g>
     </g>
    </g>
    <g id="ytick_5">
     <g id="line2d_12">
      <g>
       <use xlink:href="#m968e91fea5" x="46.965625" y="136.366125" style="stroke: #000000; stroke-width: 0.8"/>
      </g>
     </g>
     <g id="text_13">
      <!-- 400 -->
      <g transform="translate(20.878125 140.165344) scale(0.1 -0.1)">
       <defs>
        <path id="DejaVuSans-34" d="M 2419 4116 
L 825 1625 
L 2419 1625 
L 2419 4116 
z
M 2253 4666 
L 3047 4666 
L 3047 1625 
L 3713 1625 
L 3713 1100 
L 3047 1100 
L 3047 0 
L 2419 0 
L 2419 1100 
L 313 1100 
L 313 1709 
L 2253 4666 
z
" transform="scale(0.015625)"/>
       </defs>
       <use xlink:href="#DejaVuSans-34"/>
       <use xlink:href="#DejaVuSans-30" x="63.623047"/>
       <use xlink:href="#DejaVuSans-30" x="127.246094"/>
      </g>
     </g>
    </g>
    <g id="ytick_6">
     <g id="line2d_13">
      <g>
       <use xlink:href="#m968e91fea5" x="46.965625" y="98.350125" style="stroke: #000000; stroke-width: 0.8"/>
      </g>
     </g>
     <g id="text_14">
      <!-- 500 -->
      <g transform="translate(20.878125 102.149344) scale(0.1 -0.1)">
       <use xlink:href="#DejaVuSans-35"/>
       <use xlink:href="#DejaVuSans-30" x="63.623047"/>
       <use xlink:href="#DejaVuSans-30" x="127.246094"/>
      </g>
     </g>
    </g>
    <g id="ytick_7">
     <g id="line2d_14">
      <g>
       <use xlink:href="#m968e91fea5" x="46.965625" y="60.334125" style="stroke: #000000; stroke-width: 0.8"/>
      </g>
     </g>
     <g id="text_15">
      <!-- 600 -->
      <g transform="translate(20.878125 64.133344) scale(0.1 -0.1)">
       <defs>
        <path id="DejaVuSans-36" d="M 2113 2584 
Q 1688 2584 1439 2293 
Q 1191 2003 1191 1497 
Q 1191 994 1439 701 
Q 1688 409 2113 409 
Q 2538 409 2786 701 
Q 3034 994 3034 1497 
Q 3034 2003 2786 2293 
Q 2538 2584 2113 2584 
z
M 3366 4563 
L 3366 3988 
Q 3128 4100 2886 4159 
Q 2644 4219 2406 4219 
Q 1781 4219 1451 3797 
Q 1122 3375 1075 2522 
Q 1259 2794 1537 2939 
Q 1816 3084 2150 3084 
Q 2853 3084 3261 2657 
Q 3669 2231 3669 1497 
Q 3669 778 3244 343 
Q 2819 -91 2113 -91 
Q 1303 -91 875 529 
Q 447 1150 447 2328 
Q 447 3434 972 4092 
Q 1497 4750 2381 4750 
Q 2619 4750 2861 4703 
Q 3103 4656 3366 4563 
z
" transform="scale(0.015625)"/>
       </defs>
       <use xlink:href="#DejaVuSans-36"/>
       <use xlink:href="#DejaVuSans-30" x="63.623047"/>
       <use xlink:href="#DejaVuSans-30" x="127.246094"/>
      </g>
     </g>
    </g>
    <g id="ytick_8">
     <g id="line2d_15">
      <g>
       <use xlink:href="#m968e91fea5" x="46.965625" y="22.318125" style="stroke: #000000; stroke-width: 0.8"/>
      </g>
     </g>
     <g id="text_16">
      <!-- 700 -->
      <g transform="translate(20.878125 26.117344) scale(0.1 -0.1)">
       <defs>
        <path id="DejaVuSans-37" d="M 525 4666 
L 3525 4666 
L 3525 4397 
L 1831 0 
L 1172 0 
L 2766 4134 
L 525 4134 
L 525 4666 
z
" transform="scale(0.015625)"/>
       </defs>
       <use xlink:href="#DejaVuSans-37"/>
       <use xlink:href="#DejaVuSans-30" x="63.623047"/>
       <use xlink:href="#DejaVuSans-30" x="127.246094"/>
      </g>
     </g>
    </g>
    <g id="text_17">
     <!-- Stress(MPa) -->
     <g transform="translate(14.798438 184.806937) rotate(-90) scale(0.1 -0.1)">
      <defs>
       <path id="DejaVuSans-65" d="M 3597 1894 
L 3597 1613 
L 953 1613 
Q 991 1019 1311 708 
Q 1631 397 2203 397 
Q 2534 397 2845 478 
Q 3156 559 3463 722 
L 3463 178 
Q 3153 47 2828 -22 
Q 2503 -91 2169 -91 
Q 1331 -91 842 396 
Q 353 884 353 1716 
Q 353 2575 817 3079 
Q 1281 3584 2069 3584 
Q 2775 3584 3186 3129 
Q 3597 2675 3597 1894 
z
M 3022 2063 
Q 3016 2534 2758 2815 
Q 2500 3097 2075 3097 
Q 1594 3097 1305 2825 
Q 1016 2553 972 2059 
L 3022 2063 
z
" transform="scale(0.015625)"/>
       <path id="DejaVuSans-73" d="M 2834 3397 
L 2834 2853 
Q 2591 2978 2328 3040 
Q 2066 3103 1784 3103 
Q 1356 3103 1142 2972 
Q 928 2841 928 2578 
Q 928 2378 1081 2264 
Q 1234 2150 1697 2047 
L 1894 2003 
Q 2506 1872 2764 1633 
Q 3022 1394 3022 966 
Q 3022 478 2636 193 
Q 2250 -91 1575 -91 
Q 1294 -91 989 -36 
Q 684 19 347 128 
L 347 722 
Q 666 556 975 473 
Q 1284 391 1588 391 
Q 1994 391 2212 530 
Q 2431 669 2431 922 
Q 2431 1156 2273 1281 
Q 2116 1406 1581 1522 
L 1381 1569 
Q 847 1681 609 1914 
Q 372 2147 372 2553 
Q 372 3047 722 3315 
Q 1072 3584 1716 3584 
Q 2034 3584 2315 3537 
Q 2597 3491 2834 3397 
z
" transform="scale(0.015625)"/>
       <path id="DejaVuSans-4d" d="M 628 4666 
L 1569 4666 
L 2759 1491 
L 3956 4666 
L 4897 4666 
L 4897 0 
L 4281 0 
L 4281 4097 
L 3078 897 
L 2444 897 
L 1241 4097 
L 1241 0 
L 628 0 
L 628 4666 
z
" transform="scale(0.015625)"/>
       <path id="DejaVuSans-50" d="M 1259 4147 
L 1259 2394 
L 2053 2394 
Q 2494 2394 2734 2622 
Q 2975 2850 2975 3272 
Q 2975 3691 2734 3919 
Q 2494 4147 2053 4147 
L 1259 4147 
z
M 628 4666 
L 2053 4666 
Q 2838 4666 3239 4311 
Q 3641 3956 3641 3272 
Q 3641 2581 3239 2228 
Q 2838 1875 2053 1875 
L 1259 1875 
L 1259 0 
L 628 0 
L 628 4666 
z
" transform="scale(0.015625)"/>
      </defs>
      <use xlink:href="#DejaVuSans-53"/>
      <use xlink:href="#DejaVuSans-74" x="63.476562"/>
      <use xlink:href="#DejaVuSans-72" x="102.685547"/>
      <use xlink:href="#DejaVuSans-65" x="141.548828"/>
      <use xlink:href="#DejaVuSans-73" x="203.072266"/>
      <use xlink:href="#DejaVuSans-73" x="255.171875"/>
      <use xlink:href="#DejaVuSans-28" x="307.271484"/>
      <use xlink:href="#DejaVuSans-4d" x="346.285156"/>
      <use xlink:href="#DejaVuSans-50" x="432.564453"/>
      <use xlink:href="#DejaVuSans-61" x="488.367188"/>
      <use xlink:href="#DejaVuSans-29" x="549.646484"/>
     </g>
    </g>
   </g>
   <g id="line2d_16">
    <path d="M 48.15207 288.430125 
L 50.433129 255.210607 
L 52.714375 271.644812 
L 54.995528 250.252718 
L 57.276586 248.002072 
L 59.557739 281.55545 
L 61.838985 301.170772 
L 64.120138 271.180509 
L 66.401197 274.265034 
L 68.682348 250.864937 
L 70.963595 232.429321 
L 73.244655 270.406908 
L 75.525807 225.090974 
L 77.806959 288.64455 
L 80.088207 258.371299 
L 82.369264 248.293291 
L 84.650416 216.226882 
L 86.931571 220.326155 
L 89.212816 221.096016 
L 91.493875 208.021944 
L 93.775028 204.790746 
L 96.05618 242.757704 
L 98.337425 228.729537 
L 100.618484 226.979166 
L 102.899637 172.348698 
L 105.180789 241.133263 
L 107.461849 169.988524 
L 109.743094 171.098733 
L 114.305398 189.971857 
L 116.586458 185.049293 
L 118.867707 239.824589 
L 121.14886 164.843063 
L 123.430012 184.008325 
L 125.711071 175.070379 
L 127.992316 177.081685 
L 130.273464 148.541642 
L 132.554524 213.43428 
L 134.83568 199.40104 
L 137.116926 244.103511 
L 139.398082 189.100333 
L 141.679133 217.248612 
L 143.96029 185.459612 
L 146.241535 235.494928 
L 148.522691 205.521431 
L 150.803751 185.359281 
L 153.084899 191.528345 
L 155.366144 153.270553 
L 157.647301 177.426293 
L 159.92836 158.655548 
L 162.209508 187.154549 
L 164.490753 192.439226 
L 166.771813 196.808827 
L 169.052969 229.564156 
L 171.334117 166.392212 
L 173.615371 159.332319 
L 175.896422 168.741122 
L 178.177578 185.981443 
L 180.458726 183.48984 
L 182.73998 143.637832 
L 185.02104 180.236762 
L 187.302188 150.824137 
L 189.583344 168.062998 
L 191.864492 170.36018 
L 194.145649 123.6556 
L 196.426797 167.980603 
L 198.707953 139.814679 
L 200.98911 186.099685 
L 203.270249 163.5323 
L 205.551406 130.070599 
L 207.832563 136.822444 
L 210.113719 212.367654 
L 212.394858 159.945093 
L 214.676015 149.917806 
L 216.957172 145.913303 
L 219.238328 154.864704 
L 221.519468 130.801881 
L 223.800624 151.539672 
L 226.081693 125.377611 
L 228.362938 122.147582 
L 230.644094 157.778064 
L 232.925233 143.954737 
L 235.206302 135.765217 
L 237.487547 95.07485 
L 239.768704 89.214031 
L 242.049843 134.42392 
L 244.330911 102.131519 
L 246.612156 139.966601 
L 248.893313 76.410449 
L 251.174363 86.17884 
L 253.45552 84.782123 
L 255.736765 89.443091 
L 258.017922 63.799006 
L 260.298972 96.390613 
L 262.580129 106.067607 
L 264.861374 149.103282 
L 267.142531 97.919711 
L 269.423582 120.824608 
L 271.704738 114.312841 
L 273.985983 120.927926 
L 276.26714 112.984738 
L 278.548191 113.041503 
L 280.829348 132.995774 
L 283.110593 139.667335 
L 285.391661 94.527886 
L 287.6728 124.264471 
L 289.953957 168.404286 
L 292.235202 137.50508 
L 294.51627 112.286597 
L 296.797409 152.370235 
L 299.078566 150.014096 
L 301.359811 111.94915 
L 303.640879 132.452095 
L 305.922018 85.947333 
L 308.203175 95.528533 
L 310.484332 141.068792 
L 312.765488 139.954096 
L 315.046645 133.893574 
L 317.327784 112.69154 
L 319.608941 130.912603 
L 321.890098 151.409532 
L 324.171254 134.595002 
L 326.452393 147.335149 
L 328.73355 114.668088 
L 331.014707 145.047423 
L 333.295863 150.714047 
L 335.577003 107.878606 
L 337.858159 126.438069 
L 340.139316 121.411324 
L 342.420473 104.67189 
L 344.701523 147.004684 
L 346.982768 126.115701 
L 349.263943 74.325264 
L 351.545082 123.698434 
L 353.82615 199.117126 
L 356.107395 159.714055 
L 358.388534 155.571659 
L 360.669673 101.337639 
L 362.950742 163.328305 
L 365.231987 76.697216 
L 367.513161 144.046361 
L 369.794194 131.521779 
L 372.075368 166.106008 
L 374.356614 120.880323 
L 376.637753 125.428215 
L 378.918821 144.536339 
L 381.19996 144.833184 
L 383.481205 163.630871 
L 385.762379 110.424228 
L 388.043412 111.930443 
L 390.324587 101.234515 
L 392.605832 173.464638 
L 394.886971 133.916786 
L 397.168039 160.322987 
L 399.449178 132.651026 
L 401.730423 167.916593 
L 404.011492 189.294907 
L 406.292631 168.846325 
L 408.573805 114.601121 
L 410.85505 146.854586 
L 413.136119 136.957686 
L 415.417258 122.933584 
L 417.698397 129.483055 
L 419.979642 124.890189 
L 421.829375 116.433189 
L 421.829375 116.433189 
" clip-path="url(#p5e82066426)" style="fill: none; stroke: #1f77b4; stroke-width: 1.5; stroke-linecap: square"/>
   </g>
   <g id="line2d_17">
    <path d="M 48.15207 288.430125 
L 51.546245 259.36846 
L 54.940534 279.041114 
L 58.334823 254.512217 
L 61.728998 225.239171 
L 65.123288 214.135906 
L 68.517576 218.123784 
L 71.911866 259.616372 
L 75.306041 227.061947 
L 78.700331 215.352783 
L 82.094619 183.21658 
L 85.488794 210.192149 
L 88.883082 195.463813 
L 92.277259 206.325427 
L 95.671547 196.001314 
L 99.065834 183.890137 
L 102.460012 221.946971 
L 105.854414 213.979206 
L 109.248592 184.318259 
L 112.642879 212.393905 
L 116.037052 176.019694 
L 119.431345 143.481143 
L 122.825632 166.962757 
L 126.219805 200.427671 
L 129.614093 190.556635 
L 133.008275 184.01179 
L 136.402562 206.369052 
L 139.79685 160.403351 
L 143.191138 185.684323 
L 146.585426 204.104074 
L 149.979599 202.331563 
L 153.373895 152.890965 
L 156.768068 190.157676 
L 163.556644 172.398232 
L 166.950817 216.239656 
L 170.345113 190.108916 
L 173.739286 171.754178 
L 177.133574 163.934221 
L 180.527977 111.496085 
L 183.922149 163.186292 
L 187.316437 178.172363 
L 190.710619 136.468359 
L 194.104907 155.588457 
L 197.499088 130.587134 
L 200.893376 158.528471 
L 204.287664 201.911148 
L 207.681828 170.105893 
L 211.076116 155.868013 
L 214.470297 158.474704 
L 217.864709 105.329951 
L 221.258997 157.830939 
L 224.653161 207.138784 
L 228.047449 169.681721 
L 231.44163 216.199604 
L 234.835918 219.893613 
L 238.2301 160.861643 
L 241.624388 159.822571 
L 245.018675 195.992156 
L 248.412839 140.305316 
L 251.807251 189.536279 
L 255.201433 166.410926 
L 258.59572 151.391143 
L 261.990008 152.549803 
L 265.384172 156.593705 
L 268.77846 157.726269 
L 272.172642 161.380173 
L 275.566929 174.218814 
L 278.961217 166.398224 
L 282.355399 94.431506 
L 285.749687 132.44666 
L 289.143868 165.449844 
L 292.538262 177.465949 
L 295.932444 160.994565 
L 299.326732 143.548642 
L 302.72102 125.396407 
L 306.115184 132.331467 
L 309.509489 165.206046 
L 312.903653 138.396226 
L 316.297941 175.838957 
L 319.692229 99.579485 
L 323.08641 162.536631 
L 326.480804 166.157904 
L 329.874986 160.536379 
L 333.269274 131.364481 
L 336.663455 120.797443 
L 340.057743 102.472729 
L 343.452031 154.750223 
L 346.846213 125.640661 
L 350.240483 126.413877 
L 353.634682 153.776501 
L 357.028952 96.998514 
L 360.423258 120.481284 
L 363.817528 155.045197 
L 367.211833 158.157962 
L 370.605997 139.11628 
L 374.000303 160.43344 
L 377.394467 194.617511 
L 380.788737 170.032988 
L 384.183042 126.307598 
L 387.577206 145.012279 
L 390.971512 114.362299 
L 394.365676 174.334608 
L 397.759981 81.710417 
L 401.154357 94.261974 
L 404.548557 132.451997 
L 407.942827 110.59492 
L 411.337026 143.460846 
L 414.731296 127.411502 
L 418.12546 84.06805 
L 421.519766 82.553564 
L 421.829375 85.820491 
L 421.829375 85.820491 
" clip-path="url(#p5e82066426)" style="fill: none; stroke: #ff7f0e; stroke-width: 1.5; stroke-linecap: square"/>
   </g>
   <g id="line2d_18">
    <path d="M 48.15207 288.430125 
L 50.97289 326.986375 
M 52.794814 326.986375 
L 56.072583 252.176852 
L 60.032903 260.588369 
L 63.993096 258.180608 
L 67.953291 280.583503 
L 71.913735 231.577057 
L 75.87393 273.737008 
L 79.834249 237.340172 
L 83.794443 276.909192 
L 87.754636 235.53563 
L 91.714956 243.65605 
L 95.675149 267.976159 
L 99.635593 228.377034 
L 103.59579 248.481515 
L 107.555983 192.050408 
L 111.516303 187.059411 
L 115.476496 188.509067 
L 119.436816 179.199777 
L 123.397013 198.510044 
L 127.357325 158.981921 
L 131.317646 186.574019 
L 135.277843 243.086222 
L 139.238163 207.826995 
L 143.198351 210.693287 
L 147.158548 181.793964 
L 151.118869 205.462762 
L 155.079066 188.826152 
L 159.03951 197.395832 
L 162.999698 150.757094 
L 166.959895 185.560738 
L 170.920216 159.077764 
L 174.880412 190.572033 
L 178.840724 146.156515 
L 182.800921 190.952376 
L 186.761242 169.062829 
L 190.721562 149.585739 
L 194.68175 157.569784 
L 198.64208 103.846534 
L 202.602268 158.022486 
L 206.562456 163.49271 
L 210.522786 146.749966 
L 214.483097 145.635268 
L 218.443427 186.410238 
L 222.403615 147.696718 
L 226.363803 140.148294 
L 230.324132 98.033585 
L 234.28432 129.771015 
L 238.244632 144.161915 
L 242.204962 119.383884 
L 246.16515 150.601349 
L 250.125479 133.760695 
L 254.085667 177.521291 
L 258.045979 109.654813 
L 262.006185 131.747159 
L 265.966373 139.212046 
L 269.926826 122.393113 
L 273.887014 137.007322 
L 277.847326 104.040999 
L 281.807532 154.361957 
L 285.76772 123.19571 
L 289.728032 112.743883 
L 293.688237 148.500021 
L 297.648673 164.867302 
L 301.608879 130.833354 
L 305.569067 159.664817 
L 309.529378 155.992317 
L 313.489584 188.940537 
L 317.449896 205.952857 
L 321.410084 155.982862 
L 325.370413 162.137285 
L 329.330725 127.243824 
L 333.290931 151.693038 
L 337.251243 166.193332 
L 341.211431 155.166625 
L 345.171619 118.357272 
L 349.131948 164.987947 
L 353.092136 174.128817 
L 357.052572 127.63054 
L 361.012795 189.451912 
L 364.972983 174.095152 
L 368.933313 212.162364 
L 372.893501 173.196693 
L 376.853795 145.223612 
L 380.814018 169.426164 
L 384.774313 127.307455 
L 388.734642 92.73915 
L 392.69483 160.515622 
L 396.65516 134.213186 
L 400.615348 164.026789 
L 404.575536 151.974801 
L 408.535865 125.893616 
L 412.496195 138.995967 
L 416.456489 92.952432 
L 420.416712 129.409931 
L 421.829375 121.434029 
L 421.829375 121.434029 
" clip-path="url(#p5e82066426)" style="fill: none; stroke: #2ca02c; stroke-width: 1.5; stroke-linecap: square"/>
   </g>
   <g id="patch_3">
    <path d="M 46.965625 288.430125 
L 46.965625 22.318125 
" style="fill: none; stroke: #000000; stroke-width: 0.8; stroke-linejoin: miter; stroke-linecap: square"/>
   </g>
   <g id="patch_4">
    <path d="M 404.085625 288.430125 
L 404.085625 22.318125 
" style="fill: none; stroke: #000000; stroke-width: 0.8; stroke-linejoin: miter; stroke-linecap: square"/>
   </g>
   <g id="patch_5">
    <path d="M 46.965625 288.430125 
L 404.085625 288.430125 
" style="fill: none; stroke: #000000; stroke-width: 0.8; stroke-linejoin: miter; stroke-linecap: square"/>
   </g>
   <g id="patch_6">
    <path d="M 46.965625 22.318125 
L 404.085625 22.318125 
" style="fill: none; stroke: #000000; stroke-width: 0.8; stroke-linejoin: miter; stroke-linecap: square"/>
   </g>
   <g id="text_18">
    <!-- Stress-Strain Curve -->
    <g transform="translate(167.542188 16.318125) scale(0.12 -0.12)">
     <defs>
      <path id="DejaVuSans-2d" d="M 313 2009 
L 1997 2009 
L 1997 1497 
L 313 1497 
L 313 2009 
z
" transform="scale(0.015625)"/>
      <path id="DejaVuSans-20" transform="scale(0.015625)"/>
      <path id="DejaVuSans-43" d="M 4122 4306 
L 4122 3641 
Q 3803 3938 3442 4084 
Q 3081 4231 2675 4231 
Q 1875 4231 1450 3742 
Q 1025 3253 1025 2328 
Q 1025 1406 1450 917 
Q 1875 428 2675 428 
Q 3081 428 3442 575 
Q 3803 722 4122 1019 
L 4122 359 
Q 3791 134 3420 21 
Q 3050 -91 2638 -91 
Q 1578 -91 968 557 
Q 359 1206 359 2328 
Q 359 3453 968 4101 
Q 1578 4750 2638 4750 
Q 3056 4750 3426 4639 
Q 3797 4528 4122 4306 
z
" transform="scale(0.015625)"/>
      <path id="DejaVuSans-75" d="M 544 1381 
L 544 3500 
L 1119 3500 
L 1119 1403 
Q 1119 906 1312 657 
Q 1506 409 1894 409 
Q 2359 409 2629 706 
Q 2900 1003 2900 1516 
L 2900 3500 
L 3475 3500 
L 3475 0 
L 2900 0 
L 2900 538 
Q 2691 219 2414 64 
Q 2138 -91 1772 -91 
Q 1169 -91 856 284 
Q 544 659 544 1381 
z
M 1991 3584 
L 1991 3584 
z
" transform="scale(0.015625)"/>
      <path id="DejaVuSans-76" d="M 191 3500 
L 800 3500 
L 1894 563 
L 2988 3500 
L 3597 3500 
L 2284 0 
L 1503 0 
L 191 3500 
z
" transform="scale(0.015625)"/>
     </defs>
     <use xlink:href="#DejaVuSans-53"/>
     <use xlink:href="#DejaVuSans-74" x="63.476562"/>
     <use xlink:href="#DejaVuSans-72" x="102.685547"/>
     <use xlink:href="#DejaVuSans-65" x="141.548828"/>
     <use xlink:href="#DejaVuSans-73" x="203.072266"/>
     <use xlink:href="#DejaVuSans-73" x="255.171875"/>
     <use xlink:href="#DejaVuSans-2d" x="307.271484"/>
     <use xlink:href="#DejaVuSans-53" x="343.355469"/>
     <use xlink:href="#DejaVuSans-74" x="406.832031"/>
     <use xlink:href="#DejaVuSans-72" x="446.041016"/>
     <use xlink:href="#DejaVuSans-61" x="487.154297"/>
     <use xlink:href="#DejaVuSans-69" x="548.433594"/>
     <use xlink:href="#DejaVuSans-6e" x="576.216797"/>
     <use xlink:href="#DejaVuSans-20" x="639.595703"/>
     <use xlink:href="#DejaVuSans-43" x="671.382812"/>
     <use xlink:href="#DejaVuSans-75" x="741.207031"/>
     <use xlink:href="#DejaVuSans-72" x="804.585938"/>
     <use xlink:href="#DejaVuSans-76" x="845.699219"/>
     <use xlink:href="#DejaVuSans-65" x="904.878906"/>
    </g>
   </g>
   <g id="legend_1">
    <g id="patch_7">
     <path d="M 53.965625 75.186875 
L 119.053125 75.186875 
Q 121.053125 75.186875 121.053125 73.186875 
L 121.053125 29.318125 
Q 121.053125 27.318125 119.053125 27.318125 
L 53.965625 27.318125 
Q 51.965625 27.318125 51.965625 29.318125 
L 51.965625 73.186875 
Q 51.965625 75.186875 53.965625 75.186875 
z
" style="fill: #ffffff; opacity: 0.8; stroke: #cccccc; stroke-linejoin: miter"/>
    </g>
    <g id="line2d_19">
     <path d="M 55.965625 35.416562 
L 65.965625 35.416562 
L 75.965625 35.416562 
" style="fill: none; stroke: #1f77b4; stroke-width: 1.5; stroke-linecap: square"/>
    </g>
    <g id="text_19">
     <!-- FS1I_X -->
     <g transform="translate(83.965625 38.916562) scale(0.1 -0.1)">
      <defs>
       <path id="DejaVuSans-46" d="M 628 4666 
L 3309 4666 
L 3309 4134 
L 1259 4134 
L 1259 2759 
L 3109 2759 
L 3109 2228 
L 1259 2228 
L 1259 0 
L 628 0 
L 628 4666 
z
" transform="scale(0.015625)"/>
       <path id="DejaVuSans-49" d="M 628 4666 
L 1259 4666 
L 1259 0 
L 628 0 
L 628 4666 
z
" transform="scale(0.015625)"/>
       <path id="DejaVuSans-5f" d="M 3263 -1063 
L 3263 -1509 
L -63 -1509 
L -63 -1063 
L 3263 -1063 
z
" transform="scale(0.015625)"/>
       <path id="DejaVuSans-58" d="M 403 4666 
L 1081 4666 
L 2241 2931 
L 3406 4666 
L 4084 4666 
L 2584 2425 
L 4184 0 
L 3506 0 
L 2194 1984 
L 872 0 
L 191 0 
L 1856 2491 
L 403 4666 
z
" transform="scale(0.015625)"/>
      </defs>
      <use xlink:href="#DejaVuSans-46"/>
      <use xlink:href="#DejaVuSans-53" x="55.769531"/>
      <use xlink:href="#DejaVuSans-31" x="119.246094"/>
      <use xlink:href="#DejaVuSans-49" x="182.869141"/>
      <use xlink:href="#DejaVuSans-5f" x="212.361328"/>
      <use xlink:href="#DejaVuSans-58" x="262.361328"/>
     </g>
    </g>
    <g id="line2d_20">
     <path d="M 55.965625 50.372813 
L 65.965625 50.372813 
L 75.965625 50.372813 
" style="fill: none; stroke: #ff7f0e; stroke-width: 1.5; stroke-linecap: square"/>
    </g>
    <g id="text_20">
     <!-- FS1I_Y -->
     <g transform="translate(83.965625 53.872813) scale(0.1 -0.1)">
      <defs>
       <path id="DejaVuSans-59" d="M -13 4666 
L 666 4666 
L 1959 2747 
L 3244 4666 
L 3922 4666 
L 2272 2222 
L 2272 0 
L 1638 0 
L 1638 2222 
L -13 4666 
z
" transform="scale(0.015625)"/>
      </defs>
      <use xlink:href="#DejaVuSans-46"/>
      <use xlink:href="#DejaVuSans-53" x="55.769531"/>
      <use xlink:href="#DejaVuSans-31" x="119.246094"/>
      <use xlink:href="#DejaVuSans-49" x="182.869141"/>
      <use xlink:href="#DejaVuSans-5f" x="212.361328"/>
      <use xlink:href="#DejaVuSans-59" x="262.361328"/>
     </g>
    </g>
    <g id="line2d_21">
     <path d="M 55.965625 65.329063 
L 65.965625 65.329063 
L 75.965625 65.329063 
" style="fill: none; stroke: #2ca02c; stroke-width: 1.5; stroke-linecap: square"/>
    </g>
    <g id="text_21">
     <!-- FS1I_Z -->
     <g transform="translate(83.965625 68.829063) scale(0.1 -0.1)">
      <defs>
       <path id="DejaVuSans-5a" d="M 359 4666 
L 4025 4666 
L 4025 4184 
L 1075 531 
L 4097 531 
L 4097 0 
L 288 0 
L 288 481 
L 3238 4134 
L 359 4134 
L 359 4666 
z
" transform="scale(0.015625)"/>
      </defs>
      <use xlink:href="#DejaVuSans-46"/>
      <use xlink:href="#DejaVuSans-53" x="55.769531"/>
      <use xlink:href="#DejaVuSans-31" x="119.246094"/>
      <use xlink:href="#DejaVuSans-49" x="182.869141"/>
      <use xlink:href="#DejaVuSans-5f" x="212.361328"/>
      <use xlink:href="#DejaVuSans-5a" x="262.361328"/>
     </g>
    </g>
   </g>
  </g>
 </g>
 <defs>
  <clipPath id="p5e82066426">
   <rect x="46.965625" y="22.318125" width="357.12" height="266.112"/>
  </clipPath>
 </defs>
</svg>
