<?xml version="1.0" encoding="utf-8" standalone="no"?>
<!DOCTYPE svg PUBLIC "-//W3C//DTD SVG 1.1//EN"
  "http://www.w3.org/Graphics/SVG/1.1/DTD/svg11.dtd">
<svg xmlns:xlink="http://www.w3.org/1999/xlink" width="411.285625pt" height="325.986375pt" viewBox="0 0 411.285625 325.986375" xmlns="http://www.w3.org/2000/svg" version="1.1">
 <metadata>
  <rdf:RDF xmlns:dc="http://purl.org/dc/elements/1.1/" xmlns:cc="http://creativecommons.org/ns#" xmlns:rdf="http://www.w3.org/1999/02/22-rdf-syntax-ns#">
   <cc:Work>
    <dc:type rdf:resource="http://purl.org/dc/dcmitype/StillImage"/>
    <dc:date>2025-01-20T16:49:10.724174</dc:date>
    <dc:format>image/svg+xml</dc:format>
    <dc:creator>
     <cc:Agent>
      <dc:title>Matplotlib v3.9.0, https://matplotlib.org/</dc:title>
     </cc:Agent>
    </dc:creator>
   </cc:Work>
  </rdf:RDF>
 </metadata>
 <defs>
  <style type="text/css">*{stroke-linejoin: round; stroke-linecap: butt}</style>
 </defs>
 <g id="figure_1">
  <g id="patch_1">
   <path d="M 0 325.986375 
L 411.285625 325.986375 
L 411.285625 0 
L 0 0 
z
" style="fill: #ffffff"/>
  </g>
  <g id="axes_1">
   <g id="patch_2">
    <path d="M 46.965625 288.430125 
L 404.085625 288.430125 
L 404.085625 22.318125 
L 46.965625 22.318125 
z
" style="fill: #ffffff"/>
   </g>
   <g id="matplotlib.axis_1">
    <g id="xtick_1">
     <g id="line2d_1">
      <defs>
       <path id="mf2bd55e532" d="M 0 0 
L 0 3.5 
" style="stroke: #000000; stroke-width: 0.8"/>
      </defs>
      <g>
       <use xlink:href="#mf2bd55e532" x="50.182922" y="288.430125" style="stroke: #000000; stroke-width: 0.8"/>
      </g>
     </g>
     <g id="text_1">
      <!-- 100 -->
      <g transform="translate(40.639172 303.028562) scale(0.1 -0.1)">
       <defs>
        <path id="DejaVuSans-31" d="M 794 531 
L 1825 531 
L 1825 4091 
L 703 3866 
L 703 4441 
L 1819 4666 
L 2450 4666 
L 2450 531 
L 3481 531 
L 3481 0 
L 794 0 
L 794 531 
z
" transform="scale(0.015625)"/>
        <path id="DejaVuSans-30" d="M 2034 4250 
Q 1547 4250 1301 3770 
Q 1056 3291 1056 2328 
Q 1056 1369 1301 889 
Q 1547 409 2034 409 
Q 2525 409 2770 889 
Q 3016 1369 3016 2328 
Q 3016 3291 2770 3770 
Q 2525 4250 2034 4250 
z
M 2034 4750 
Q 2819 4750 3233 4129 
Q 3647 3509 3647 2328 
Q 3647 1150 3233 529 
Q 2819 -91 2034 -91 
Q 1250 -91 836 529 
Q 422 1150 422 2328 
Q 422 3509 836 4129 
Q 1250 4750 2034 4750 
z
" transform="scale(0.015625)"/>
       </defs>
       <use xlink:href="#DejaVuSans-31"/>
       <use xlink:href="#DejaVuSans-30" x="63.623047"/>
       <use xlink:href="#DejaVuSans-30" x="127.246094"/>
      </g>
     </g>
    </g>
    <g id="xtick_2">
     <g id="line2d_2">
      <g>
       <use xlink:href="#mf2bd55e532" x="114.528868" y="288.430125" style="stroke: #000000; stroke-width: 0.8"/>
      </g>
     </g>
     <g id="text_2">
      <!-- 120 -->
      <g transform="translate(104.985118 303.028562) scale(0.1 -0.1)">
       <defs>
        <path id="DejaVuSans-32" d="M 1228 531 
L 3431 531 
L 3431 0 
L 469 0 
L 469 531 
Q 828 903 1448 1529 
Q 2069 2156 2228 2338 
Q 2531 2678 2651 2914 
Q 2772 3150 2772 3378 
Q 2772 3750 2511 3984 
Q 2250 4219 1831 4219 
Q 1534 4219 1204 4116 
Q 875 4013 500 3803 
L 500 4441 
Q 881 4594 1212 4672 
Q 1544 4750 1819 4750 
Q 2544 4750 2975 4387 
Q 3406 4025 3406 3419 
Q 3406 3131 3298 2873 
Q 3191 2616 2906 2266 
Q 2828 2175 2409 1742 
Q 1991 1309 1228 531 
z
" transform="scale(0.015625)"/>
       </defs>
       <use xlink:href="#DejaVuSans-31"/>
       <use xlink:href="#DejaVuSans-32" x="63.623047"/>
       <use xlink:href="#DejaVuSans-30" x="127.246094"/>
      </g>
     </g>
    </g>
    <g id="xtick_3">
     <g id="line2d_3">
      <g>
       <use xlink:href="#mf2bd55e532" x="178.874814" y="288.430125" style="stroke: #000000; stroke-width: 0.8"/>
      </g>
     </g>
     <g id="text_3">
      <!-- 140 -->
      <g transform="translate(169.331064 303.028562) scale(0.1 -0.1)">
       <defs>
        <path id="DejaVuSans-34" d="M 2419 4116 
L 825 1625 
L 2419 1625 
L 2419 4116 
z
M 2253 4666 
L 3047 4666 
L 3047 1625 
L 3713 1625 
L 3713 1100 
L 3047 1100 
L 3047 0 
L 2419 0 
L 2419 1100 
L 313 1100 
L 313 1709 
L 2253 4666 
z
" transform="scale(0.015625)"/>
       </defs>
       <use xlink:href="#DejaVuSans-31"/>
       <use xlink:href="#DejaVuSans-34" x="63.623047"/>
       <use xlink:href="#DejaVuSans-30" x="127.246094"/>
      </g>
     </g>
    </g>
    <g id="xtick_4">
     <g id="line2d_4">
      <g>
       <use xlink:href="#mf2bd55e532" x="243.22076" y="288.430125" style="stroke: #000000; stroke-width: 0.8"/>
      </g>
     </g>
     <g id="text_4">
      <!-- 160 -->
      <g transform="translate(233.67701 303.028562) scale(0.1 -0.1)">
       <defs>
        <path id="DejaVuSans-36" d="M 2113 2584 
Q 1688 2584 1439 2293 
Q 1191 2003 1191 1497 
Q 1191 994 1439 701 
Q 1688 409 2113 409 
Q 2538 409 2786 701 
Q 3034 994 3034 1497 
Q 3034 2003 2786 2293 
Q 2538 2584 2113 2584 
z
M 3366 4563 
L 3366 3988 
Q 3128 4100 2886 4159 
Q 2644 4219 2406 4219 
Q 1781 4219 1451 3797 
Q 1122 3375 1075 2522 
Q 1259 2794 1537 2939 
Q 1816 3084 2150 3084 
Q 2853 3084 3261 2657 
Q 3669 2231 3669 1497 
Q 3669 778 3244 343 
Q 2819 -91 2113 -91 
Q 1303 -91 875 529 
Q 447 1150 447 2328 
Q 447 3434 972 4092 
Q 1497 4750 2381 4750 
Q 2619 4750 2861 4703 
Q 3103 4656 3366 4563 
z
" transform="scale(0.015625)"/>
       </defs>
       <use xlink:href="#DejaVuSans-31"/>
       <use xlink:href="#DejaVuSans-36" x="63.623047"/>
       <use xlink:href="#DejaVuSans-30" x="127.246094"/>
      </g>
     </g>
    </g>
    <g id="xtick_5">
     <g id="line2d_5">
      <g>
       <use xlink:href="#mf2bd55e532" x="307.566706" y="288.430125" style="stroke: #000000; stroke-width: 0.8"/>
      </g>
     </g>
     <g id="text_5">
      <!-- 180 -->
      <g transform="translate(298.022956 303.028562) scale(0.1 -0.1)">
       <defs>
        <path id="DejaVuSans-38" d="M 2034 2216 
Q 1584 2216 1326 1975 
Q 1069 1734 1069 1313 
Q 1069 891 1326 650 
Q 1584 409 2034 409 
Q 2484 409 2743 651 
Q 3003 894 3003 1313 
Q 3003 1734 2745 1975 
Q 2488 2216 2034 2216 
z
M 1403 2484 
Q 997 2584 770 2862 
Q 544 3141 544 3541 
Q 544 4100 942 4425 
Q 1341 4750 2034 4750 
Q 2731 4750 3128 4425 
Q 3525 4100 3525 3541 
Q 3525 3141 3298 2862 
Q 3072 2584 2669 2484 
Q 3125 2378 3379 2068 
Q 3634 1759 3634 1313 
Q 3634 634 3220 271 
Q 2806 -91 2034 -91 
Q 1263 -91 848 271 
Q 434 634 434 1313 
Q 434 1759 690 2068 
Q 947 2378 1403 2484 
z
M 1172 3481 
Q 1172 3119 1398 2916 
Q 1625 2713 2034 2713 
Q 2441 2713 2670 2916 
Q 2900 3119 2900 3481 
Q 2900 3844 2670 4047 
Q 2441 4250 2034 4250 
Q 1625 4250 1398 4047 
Q 1172 3844 1172 3481 
z
" transform="scale(0.015625)"/>
       </defs>
       <use xlink:href="#DejaVuSans-31"/>
       <use xlink:href="#DejaVuSans-38" x="63.623047"/>
       <use xlink:href="#DejaVuSans-30" x="127.246094"/>
      </g>
     </g>
    </g>
    <g id="xtick_6">
     <g id="line2d_6">
      <g>
       <use xlink:href="#mf2bd55e532" x="371.912652" y="288.430125" style="stroke: #000000; stroke-width: 0.8"/>
      </g>
     </g>
     <g id="text_6">
      <!-- 200 -->
      <g transform="translate(362.368902 303.028562) scale(0.1 -0.1)">
       <use xlink:href="#DejaVuSans-32"/>
       <use xlink:href="#DejaVuSans-30" x="63.623047"/>
       <use xlink:href="#DejaVuSans-30" x="127.246094"/>
      </g>
     </g>
    </g>
    <g id="text_7">
     <!-- Strain(%) -->
     <g transform="translate(202.061563 316.706687) scale(0.1 -0.1)">
      <defs>
       <path id="DejaVuSans-53" d="M 3425 4513 
L 3425 3897 
Q 3066 4069 2747 4153 
Q 2428 4238 2131 4238 
Q 1616 4238 1336 4038 
Q 1056 3838 1056 3469 
Q 1056 3159 1242 3001 
Q 1428 2844 1947 2747 
L 2328 2669 
Q 3034 2534 3370 2195 
Q 3706 1856 3706 1288 
Q 3706 609 3251 259 
Q 2797 -91 1919 -91 
Q 1588 -91 1214 -16 
Q 841 59 441 206 
L 441 856 
Q 825 641 1194 531 
Q 1563 422 1919 422 
Q 2459 422 2753 634 
Q 3047 847 3047 1241 
Q 3047 1584 2836 1778 
Q 2625 1972 2144 2069 
L 1759 2144 
Q 1053 2284 737 2584 
Q 422 2884 422 3419 
Q 422 4038 858 4394 
Q 1294 4750 2059 4750 
Q 2388 4750 2728 4690 
Q 3069 4631 3425 4513 
z
" transform="scale(0.015625)"/>
       <path id="DejaVuSans-74" d="M 1172 4494 
L 1172 3500 
L 2356 3500 
L 2356 3053 
L 1172 3053 
L 1172 1153 
Q 1172 725 1289 603 
Q 1406 481 1766 481 
L 2356 481 
L 2356 0 
L 1766 0 
Q 1100 0 847 248 
Q 594 497 594 1153 
L 594 3053 
L 172 3053 
L 172 3500 
L 594 3500 
L 594 4494 
L 1172 4494 
z
" transform="scale(0.015625)"/>
       <path id="DejaVuSans-72" d="M 2631 2963 
Q 2534 3019 2420 3045 
Q 2306 3072 2169 3072 
Q 1681 3072 1420 2755 
Q 1159 2438 1159 1844 
L 1159 0 
L 581 0 
L 581 3500 
L 1159 3500 
L 1159 2956 
Q 1341 3275 1631 3429 
Q 1922 3584 2338 3584 
Q 2397 3584 2469 3576 
Q 2541 3569 2628 3553 
L 2631 2963 
z
" transform="scale(0.015625)"/>
       <path id="DejaVuSans-61" d="M 2194 1759 
Q 1497 1759 1228 1600 
Q 959 1441 959 1056 
Q 959 750 1161 570 
Q 1363 391 1709 391 
Q 2188 391 2477 730 
Q 2766 1069 2766 1631 
L 2766 1759 
L 2194 1759 
z
M 3341 1997 
L 3341 0 
L 2766 0 
L 2766 531 
Q 2569 213 2275 61 
Q 1981 -91 1556 -91 
Q 1019 -91 701 211 
Q 384 513 384 1019 
Q 384 1609 779 1909 
Q 1175 2209 1959 2209 
L 2766 2209 
L 2766 2266 
Q 2766 2663 2505 2880 
Q 2244 3097 1772 3097 
Q 1472 3097 1187 3025 
Q 903 2953 641 2809 
L 641 3341 
Q 956 3463 1253 3523 
Q 1550 3584 1831 3584 
Q 2591 3584 2966 3190 
Q 3341 2797 3341 1997 
z
" transform="scale(0.015625)"/>
       <path id="DejaVuSans-69" d="M 603 3500 
L 1178 3500 
L 1178 0 
L 603 0 
L 603 3500 
z
M 603 4863 
L 1178 4863 
L 1178 4134 
L 603 4134 
L 603 4863 
z
" transform="scale(0.015625)"/>
       <path id="DejaVuSans-6e" d="M 3513 2113 
L 3513 0 
L 2938 0 
L 2938 2094 
Q 2938 2591 2744 2837 
Q 2550 3084 2163 3084 
Q 1697 3084 1428 2787 
Q 1159 2491 1159 1978 
L 1159 0 
L 581 0 
L 581 3500 
L 1159 3500 
L 1159 2956 
Q 1366 3272 1645 3428 
Q 1925 3584 2291 3584 
Q 2894 3584 3203 3211 
Q 3513 2838 3513 2113 
z
" transform="scale(0.015625)"/>
       <path id="DejaVuSans-28" d="M 1984 4856 
Q 1566 4138 1362 3434 
Q 1159 2731 1159 2009 
Q 1159 1288 1364 580 
Q 1569 -128 1984 -844 
L 1484 -844 
Q 1016 -109 783 600 
Q 550 1309 550 2009 
Q 550 2706 781 3412 
Q 1013 4119 1484 4856 
L 1984 4856 
z
" transform="scale(0.015625)"/>
       <path id="DejaVuSans-25" d="M 4653 2053 
Q 4381 2053 4226 1822 
Q 4072 1591 4072 1178 
Q 4072 772 4226 539 
Q 4381 306 4653 306 
Q 4919 306 5073 539 
Q 5228 772 5228 1178 
Q 5228 1588 5073 1820 
Q 4919 2053 4653 2053 
z
M 4653 2450 
Q 5147 2450 5437 2106 
Q 5728 1763 5728 1178 
Q 5728 594 5436 251 
Q 5144 -91 4653 -91 
Q 4153 -91 3862 251 
Q 3572 594 3572 1178 
Q 3572 1766 3864 2108 
Q 4156 2450 4653 2450 
z
M 1428 4353 
Q 1159 4353 1004 4120 
Q 850 3888 850 3481 
Q 850 3069 1003 2837 
Q 1156 2606 1428 2606 
Q 1700 2606 1854 2837 
Q 2009 3069 2009 3481 
Q 2009 3884 1853 4118 
Q 1697 4353 1428 4353 
z
M 4250 4750 
L 4750 4750 
L 1831 -91 
L 1331 -91 
L 4250 4750 
z
M 1428 4750 
Q 1922 4750 2215 4408 
Q 2509 4066 2509 3481 
Q 2509 2891 2217 2550 
Q 1925 2209 1428 2209 
Q 931 2209 642 2551 
Q 353 2894 353 3481 
Q 353 4063 643 4406 
Q 934 4750 1428 4750 
z
" transform="scale(0.015625)"/>
       <path id="DejaVuSans-29" d="M 513 4856 
L 1013 4856 
Q 1481 4119 1714 3412 
Q 1947 2706 1947 2009 
Q 1947 1309 1714 600 
Q 1481 -109 1013 -844 
L 513 -844 
Q 928 -128 1133 580 
Q 1338 1288 1338 2009 
Q 1338 2731 1133 3434 
Q 928 4138 513 4856 
z
" transform="scale(0.015625)"/>
      </defs>
      <use xlink:href="#DejaVuSans-53"/>
      <use xlink:href="#DejaVuSans-74" x="63.476562"/>
      <use xlink:href="#DejaVuSans-72" x="102.685547"/>
      <use xlink:href="#DejaVuSans-61" x="143.798828"/>
      <use xlink:href="#DejaVuSans-69" x="205.078125"/>
      <use xlink:href="#DejaVuSans-6e" x="232.861328"/>
      <use xlink:href="#DejaVuSans-28" x="296.240234"/>
      <use xlink:href="#DejaVuSans-25" x="335.253906"/>
      <use xlink:href="#DejaVuSans-29" x="430.273438"/>
     </g>
    </g>
   </g>
   <g id="matplotlib.axis_2">
    <g id="ytick_1">
     <g id="line2d_7">
      <defs>
       <path id="mf7bf92e296" d="M 0 0 
L -3.5 0 
" style="stroke: #000000; stroke-width: 0.8"/>
      </defs>
      <g>
       <use xlink:href="#mf7bf92e296" x="46.965625" y="288.430125" style="stroke: #000000; stroke-width: 0.8"/>
      </g>
     </g>
     <g id="text_8">
      <!-- 0 -->
      <g transform="translate(33.603125 292.229344) scale(0.1 -0.1)">
       <use xlink:href="#DejaVuSans-30"/>
      </g>
     </g>
    </g>
    <g id="ytick_2">
     <g id="line2d_8">
      <g>
       <use xlink:href="#mf7bf92e296" x="46.965625" y="255.166125" style="stroke: #000000; stroke-width: 0.8"/>
      </g>
     </g>
     <g id="text_9">
      <!-- 100 -->
      <g transform="translate(20.878125 258.965344) scale(0.1 -0.1)">
       <use xlink:href="#DejaVuSans-31"/>
       <use xlink:href="#DejaVuSans-30" x="63.623047"/>
       <use xlink:href="#DejaVuSans-30" x="127.246094"/>
      </g>
     </g>
    </g>
    <g id="ytick_3">
     <g id="line2d_9">
      <g>
       <use xlink:href="#mf7bf92e296" x="46.965625" y="221.902125" style="stroke: #000000; stroke-width: 0.8"/>
      </g>
     </g>
     <g id="text_10">
      <!-- 200 -->
      <g transform="translate(20.878125 225.701344) scale(0.1 -0.1)">
       <use xlink:href="#DejaVuSans-32"/>
       <use xlink:href="#DejaVuSans-30" x="63.623047"/>
       <use xlink:href="#DejaVuSans-30" x="127.246094"/>
      </g>
     </g>
    </g>
    <g id="ytick_4">
     <g id="line2d_10">
      <g>
       <use xlink:href="#mf7bf92e296" x="46.965625" y="188.638125" style="stroke: #000000; stroke-width: 0.8"/>
      </g>
     </g>
     <g id="text_11">
      <!-- 300 -->
      <g transform="translate(20.878125 192.437344) scale(0.1 -0.1)">
       <defs>
        <path id="DejaVuSans-33" d="M 2597 2516 
Q 3050 2419 3304 2112 
Q 3559 1806 3559 1356 
Q 3559 666 3084 287 
Q 2609 -91 1734 -91 
Q 1441 -91 1130 -33 
Q 819 25 488 141 
L 488 750 
Q 750 597 1062 519 
Q 1375 441 1716 441 
Q 2309 441 2620 675 
Q 2931 909 2931 1356 
Q 2931 1769 2642 2001 
Q 2353 2234 1838 2234 
L 1294 2234 
L 1294 2753 
L 1863 2753 
Q 2328 2753 2575 2939 
Q 2822 3125 2822 3475 
Q 2822 3834 2567 4026 
Q 2313 4219 1838 4219 
Q 1578 4219 1281 4162 
Q 984 4106 628 3988 
L 628 4550 
Q 988 4650 1302 4700 
Q 1616 4750 1894 4750 
Q 2613 4750 3031 4423 
Q 3450 4097 3450 3541 
Q 3450 3153 3228 2886 
Q 3006 2619 2597 2516 
z
" transform="scale(0.015625)"/>
       </defs>
       <use xlink:href="#DejaVuSans-33"/>
       <use xlink:href="#DejaVuSans-30" x="63.623047"/>
       <use xlink:href="#DejaVuSans-30" x="127.246094"/>
      </g>
     </g>
    </g>
    <g id="ytick_5">
     <g id="line2d_11">
      <g>
       <use xlink:href="#mf7bf92e296" x="46.965625" y="155.374125" style="stroke: #000000; stroke-width: 0.8"/>
      </g>
     </g>
     <g id="text_12">
      <!-- 400 -->
      <g transform="translate(20.878125 159.173344) scale(0.1 -0.1)">
       <use xlink:href="#DejaVuSans-34"/>
       <use xlink:href="#DejaVuSans-30" x="63.623047"/>
       <use xlink:href="#DejaVuSans-30" x="127.246094"/>
      </g>
     </g>
    </g>
    <g id="ytick_6">
     <g id="line2d_12">
      <g>
       <use xlink:href="#mf7bf92e296" x="46.965625" y="122.110125" style="stroke: #000000; stroke-width: 0.8"/>
      </g>
     </g>
     <g id="text_13">
      <!-- 500 -->
      <g transform="translate(20.878125 125.909344) scale(0.1 -0.1)">
       <defs>
        <path id="DejaVuSans-35" d="M 691 4666 
L 3169 4666 
L 3169 4134 
L 1269 4134 
L 1269 2991 
Q 1406 3038 1543 3061 
Q 1681 3084 1819 3084 
Q 2600 3084 3056 2656 
Q 3513 2228 3513 1497 
Q 3513 744 3044 326 
Q 2575 -91 1722 -91 
Q 1428 -91 1123 -41 
Q 819 9 494 109 
L 494 744 
Q 775 591 1075 516 
Q 1375 441 1709 441 
Q 2250 441 2565 725 
Q 2881 1009 2881 1497 
Q 2881 1984 2565 2268 
Q 2250 2553 1709 2553 
Q 1456 2553 1204 2497 
Q 953 2441 691 2322 
L 691 4666 
z
" transform="scale(0.015625)"/>
       </defs>
       <use xlink:href="#DejaVuSans-35"/>
       <use xlink:href="#DejaVuSans-30" x="63.623047"/>
       <use xlink:href="#DejaVuSans-30" x="127.246094"/>
      </g>
     </g>
    </g>
    <g id="ytick_7">
     <g id="line2d_13">
      <g>
       <use xlink:href="#mf7bf92e296" x="46.965625" y="88.846125" style="stroke: #000000; stroke-width: 0.8"/>
      </g>
     </g>
     <g id="text_14">
      <!-- 600 -->
      <g transform="translate(20.878125 92.645344) scale(0.1 -0.1)">
       <use xlink:href="#DejaVuSans-36"/>
       <use xlink:href="#DejaVuSans-30" x="63.623047"/>
       <use xlink:href="#DejaVuSans-30" x="127.246094"/>
      </g>
     </g>
    </g>
    <g id="ytick_8">
     <g id="line2d_14">
      <g>
       <use xlink:href="#mf7bf92e296" x="46.965625" y="55.582125" style="stroke: #000000; stroke-width: 0.8"/>
      </g>
     </g>
     <g id="text_15">
      <!-- 700 -->
      <g transform="translate(20.878125 59.381344) scale(0.1 -0.1)">
       <defs>
        <path id="DejaVuSans-37" d="M 525 4666 
L 3525 4666 
L 3525 4397 
L 1831 0 
L 1172 0 
L 2766 4134 
L 525 4134 
L 525 4666 
z
" transform="scale(0.015625)"/>
       </defs>
       <use xlink:href="#DejaVuSans-37"/>
       <use xlink:href="#DejaVuSans-30" x="63.623047"/>
       <use xlink:href="#DejaVuSans-30" x="127.246094"/>
      </g>
     </g>
    </g>
    <g id="ytick_9">
     <g id="line2d_15">
      <g>
       <use xlink:href="#mf7bf92e296" x="46.965625" y="22.318125" style="stroke: #000000; stroke-width: 0.8"/>
      </g>
     </g>
     <g id="text_16">
      <!-- 800 -->
      <g transform="translate(20.878125 26.117344) scale(0.1 -0.1)">
       <use xlink:href="#DejaVuSans-38"/>
       <use xlink:href="#DejaVuSans-30" x="63.623047"/>
       <use xlink:href="#DejaVuSans-30" x="127.246094"/>
      </g>
     </g>
    </g>
    <g id="text_17">
     <!-- Stress(MPa) -->
     <g transform="translate(14.798438 184.806937) rotate(-90) scale(0.1 -0.1)">
      <defs>
       <path id="DejaVuSans-65" d="M 3597 1894 
L 3597 1613 
L 953 1613 
Q 991 1019 1311 708 
Q 1631 397 2203 397 
Q 2534 397 2845 478 
Q 3156 559 3463 722 
L 3463 178 
Q 3153 47 2828 -22 
Q 2503 -91 2169 -91 
Q 1331 -91 842 396 
Q 353 884 353 1716 
Q 353 2575 817 3079 
Q 1281 3584 2069 3584 
Q 2775 3584 3186 3129 
Q 3597 2675 3597 1894 
z
M 3022 2063 
Q 3016 2534 2758 2815 
Q 2500 3097 2075 3097 
Q 1594 3097 1305 2825 
Q 1016 2553 972 2059 
L 3022 2063 
z
" transform="scale(0.015625)"/>
       <path id="DejaVuSans-73" d="M 2834 3397 
L 2834 2853 
Q 2591 2978 2328 3040 
Q 2066 3103 1784 3103 
Q 1356 3103 1142 2972 
Q 928 2841 928 2578 
Q 928 2378 1081 2264 
Q 1234 2150 1697 2047 
L 1894 2003 
Q 2506 1872 2764 1633 
Q 3022 1394 3022 966 
Q 3022 478 2636 193 
Q 2250 -91 1575 -91 
Q 1294 -91 989 -36 
Q 684 19 347 128 
L 347 722 
Q 666 556 975 473 
Q 1284 391 1588 391 
Q 1994 391 2212 530 
Q 2431 669 2431 922 
Q 2431 1156 2273 1281 
Q 2116 1406 1581 1522 
L 1381 1569 
Q 847 1681 609 1914 
Q 372 2147 372 2553 
Q 372 3047 722 3315 
Q 1072 3584 1716 3584 
Q 2034 3584 2315 3537 
Q 2597 3491 2834 3397 
z
" transform="scale(0.015625)"/>
       <path id="DejaVuSans-4d" d="M 628 4666 
L 1569 4666 
L 2759 1491 
L 3956 4666 
L 4897 4666 
L 4897 0 
L 4281 0 
L 4281 4097 
L 3078 897 
L 2444 897 
L 1241 4097 
L 1241 0 
L 628 0 
L 628 4666 
z
" transform="scale(0.015625)"/>
       <path id="DejaVuSans-50" d="M 1259 4147 
L 1259 2394 
L 2053 2394 
Q 2494 2394 2734 2622 
Q 2975 2850 2975 3272 
Q 2975 3691 2734 3919 
Q 2494 4147 2053 4147 
L 1259 4147 
z
M 628 4666 
L 2053 4666 
Q 2838 4666 3239 4311 
Q 3641 3956 3641 3272 
Q 3641 2581 3239 2228 
Q 2838 1875 2053 1875 
L 1259 1875 
L 1259 0 
L 628 0 
L 628 4666 
z
" transform="scale(0.015625)"/>
      </defs>
      <use xlink:href="#DejaVuSans-53"/>
      <use xlink:href="#DejaVuSans-74" x="63.476562"/>
      <use xlink:href="#DejaVuSans-72" x="102.685547"/>
      <use xlink:href="#DejaVuSans-65" x="141.548828"/>
      <use xlink:href="#DejaVuSans-73" x="203.072266"/>
      <use xlink:href="#DejaVuSans-73" x="255.171875"/>
      <use xlink:href="#DejaVuSans-28" x="307.271484"/>
      <use xlink:href="#DejaVuSans-4d" x="346.285156"/>
      <use xlink:href="#DejaVuSans-50" x="432.564453"/>
      <use xlink:href="#DejaVuSans-61" x="488.367188"/>
      <use xlink:href="#DejaVuSans-29" x="549.646484"/>
     </g>
    </g>
   </g>
   <g id="line2d_16">
    <path d="M 50.182922 288.430125 
L 51.420088 266.553011 
L 52.657228 254.040236 
L 53.894419 290.996488 
L 55.131559 274.686191 
L 56.36875 247.495004 
L 57.605891 252.834089 
L 58.843082 275.373199 
L 60.080222 239.281341 
L 61.317413 229.175965 
L 62.554553 216.659317 
L 63.791744 242.329434 
L 65.028884 210.759706 
L 66.266024 215.919547 
L 67.503215 189.89011 
L 68.740355 200.125519 
L 69.977547 213.095864 
L 71.214687 193.150699 
L 72.451877 178.513971 
L 73.689018 216.669218 
L 74.92621 225.580447 
L 76.163349 212.238614 
L 77.400541 228.998423 
L 78.63768 200.942102 
L 79.874872 180.733636 
L 81.112011 187.345683 
L 82.349177 206.349788 
L 83.586342 209.284677 
L 84.823508 179.585896 
L 86.060673 197.697452 
L 87.297841 177.748901 
L 88.535007 175.566887 
L 89.772172 164.68567 
L 91.009337 170.714202 
L 92.246501 189.017759 
L 93.483668 152.819472 
L 94.720832 198.940593 
L 95.957999 165.479876 
L 97.195162 161.032896 
L 98.432306 157.205077 
L 99.669498 158.521236 
L 100.906637 158.431246 
L 102.143829 116.680151 
L 103.380968 139.54677 
L 104.61816 130.718725 
L 105.855299 110.849187 
L 107.092491 103.097183 
L 108.32963 124.629237 
L 109.566822 144.126325 
L 110.803961 138.926399 
L 112.041153 138.390556 
L 113.278292 143.695074 
L 114.51546 138.514175 
L 115.752623 164.096347 
L 116.989791 145.337624 
L 118.226954 168.346911 
L 120.701285 115.449457 
L 121.938453 159.001279 
L 123.175616 143.934753 
L 124.412784 159.5697 
L 125.649947 159.398207 
L 126.887115 149.679302 
L 128.124278 149.188052 
L 129.361446 144.487875 
L 130.598585 146.162267 
L 131.835781 123.746688 
L 133.072921 177.285573 
L 134.310108 173.991266 
L 135.547247 151.845116 
L 136.784443 132.629081 
L 138.021582 166.265922 
L 139.25877 143.813751 
L 140.495909 162.652932 
L 141.733105 155.952872 
L 142.970244 129.313435 
L 144.207431 170.533139 
L 145.444571 164.229896 
L 146.681738 192.333797 
L 147.918906 160.062023 
L 149.156074 160.221635 
L 150.393232 146.486045 
L 151.6304 140.769964 
L 152.867568 147.22588 
L 154.104736 157.555618 
L 155.341894 142.113686 
L 156.579062 168.188639 
L 157.81623 135.377446 
L 159.053398 142.120624 
L 160.290556 166.357703 
L 161.527724 171.83687 
L 162.764892 119.088316 
L 164.00206 111.011909 
L 165.239218 152.590707 
L 167.713554 178.453509 
L 168.950722 139.270953 
L 170.18789 136.791666 
L 171.425048 149.135625 
L 172.662216 143.023012 
L 173.899384 145.352477 
L 175.136552 163.115431 
L 176.37371 138.671838 
L 177.610878 164.244325 
L 178.847998 133.572496 
L 180.085213 146.121321 
L 181.322324 126.521903 
L 182.55954 149.196851 
L 183.796707 128.525941 
L 185.033818 165.245437 
L 186.270986 160.449108 
L 187.508202 193.53063 
L 188.745369 152.803062 
L 189.98248 191.09568 
L 191.219648 155.089484 
L 192.456863 170.410005 
L 193.694031 173.423941 
L 194.931151 183.01861 
L 196.16831 158.580255 
L 197.405525 160.02305 
L 198.642645 207.954301 
L 199.879813 190.222696 
L 201.116971 139.811408 
L 202.354187 176.002594 
L 203.591307 153.753205 
L 204.828475 162.379541 
L 206.065633 139.590478 
L 207.302859 128.984921 
L 208.539969 177.002021 
L 209.777137 143.711806 
L 211.014295 137.733958 
L 213.488641 161.12611 
L 214.725799 129.917862 
L 215.962957 78.875667 
L 217.200135 123.742344 
L 218.437293 126.148307 
L 219.674451 135.207517 
L 220.911629 137.611391 
L 222.148787 117.405207 
L 223.385964 122.778243 
L 224.623123 129.835231 
L 225.860281 152.78018 
L 227.097458 147.091111 
L 228.334617 164.690057 
L 229.571775 134.665754 
L 230.808895 147.298824 
L 232.046111 130.637437 
L 233.283288 157.880433 
L 234.520447 126.444032 
L 235.757566 116.815169 
L 236.994782 147.470808 
L 238.231941 172.05585 
L 239.469118 131.527504 
L 240.706219 131.028793 
L 241.943435 170.758414 
L 243.180612 156.322421 
L 244.417713 190.730618 
L 245.65489 168.047704 
L 246.892106 180.087596 
L 248.129264 168.097086 
L 249.366384 174.580737 
L 250.603543 158.384214 
L 253.077936 144.265529 
L 254.315037 123.538325 
L 255.552214 147.713336 
L 256.78943 138.872427 
L 258.026588 151.990277 
L 259.263708 172.740518 
L 260.500866 139.509872 
L 261.738082 148.105294 
L 262.975202 133.448772 
L 264.21238 123.851478 
L 265.449538 151.246476 
L 266.686754 145.010412 
L 267.923874 159.456022 
L 269.161032 150.833156 
L 270.39819 126.149753 
L 271.635406 138.40527 
L 272.872526 138.121387 
L 274.109703 102.585266 
L 275.346862 124.129239 
L 276.58402 126.7894 
L 277.821197 125.747872 
L 279.058356 155.502015 
L 280.295514 150.137395 
L 281.532691 150.478726 
L 282.76985 117.897443 
L 284.007027 145.488676 
L 285.244186 147.626312 
L 286.481344 122.515502 
L 287.718521 126.990658 
L 288.95568 146.473842 
L 290.192857 96.018979 
L 291.430015 110.727098 
L 292.667174 134.807131 
L 293.904351 121.088309 
L 295.141452 131.108484 
L 296.378668 138.419278 
L 297.615845 132.231256 
L 297.615845 132.231256 
" clip-path="url(#p78f01fb4fa)" style="fill: none; stroke: #1f77b4; stroke-width: 1.5; stroke-linecap: square"/>
   </g>
   <g id="line2d_17">
    <path d="M 50.182922 288.430125 
L 52.023758 271.607954 
L 53.864594 245.944998 
L 55.70546 225.16738 
L 57.546296 248.97553 
L 59.387163 210.427862 
L 61.227998 213.528249 
L 63.068834 212.071715 
L 64.90967 213.6075 
L 66.750538 210.308907 
L 68.591372 205.984715 
L 70.43224 171.872972 
L 72.273074 207.1094 
L 74.113912 206.845384 
L 75.954778 187.467123 
L 77.795612 213.869357 
L 79.63645 186.137546 
L 81.477316 190.764388 
L 83.318153 213.831266 
L 85.158988 182.91744 
L 86.999854 156.227306 
L 88.840691 173.709082 
L 90.681528 161.255587 
L 92.522394 193.746099 
L 94.363227 178.667349 
L 96.204097 151.468303 
L 98.04493 195.728019 
L 99.885767 204.876845 
L 101.726604 202.63419 
L 105.408336 180.359464 
L 107.249173 175.092171 
L 109.090006 171.30405 
L 110.930843 175.662834 
L 112.771709 185.07372 
L 114.612546 135.312964 
L 116.453412 186.079425 
L 118.294249 169.291419 
L 120.135082 148.809711 
L 121.975919 168.87976 
L 123.816785 156.549334 
L 125.657651 179.857625 
L 127.498488 163.760392 
L 129.339326 133.734466 
L 131.180163 158.724778 
L 133.021 158.637056 
L 134.861866 131.201177 
L 136.702732 173.080148 
L 138.543569 167.106768 
L 140.384397 195.588359 
L 142.225234 154.756212 
L 144.066071 162.358662 
L 145.906966 113.041687 
L 147.747803 142.386792 
L 149.58864 154.560418 
L 151.429478 108.950722 
L 153.270315 134.597935 
L 155.111152 161.848436 
L 156.952047 148.207494 
L 158.792884 164.063759 
L 160.633721 178.161091 
L 162.474558 146.405255 
L 164.315386 160.002114 
L 166.156252 179.245762 
L 167.997128 143.213493 
L 169.837955 178.816994 
L 171.678793 195.411061 
L 173.51963 188.10601 
L 175.360467 169.129153 
L 179.042199 178.380017 
L 180.883036 190.076687 
L 182.723873 142.753437 
L 184.564711 180.787326 
L 186.405577 165.265478 
L 188.246414 163.457086 
L 190.08728 166.430865 
L 191.928117 153.37811 
L 193.768945 155.650212 
L 195.609782 145.685534 
L 197.450648 154.072052 
L 199.291485 167.094659 
L 201.132351 176.225003 
L 202.973188 138.071658 
L 204.814026 156.756302 
L 206.654891 129.633112 
L 208.495729 161.883987 
L 210.336566 143.269733 
L 212.177422 134.778464 
L 214.01826 151.974658 
L 215.859135 133.662764 
L 217.699972 141.641169 
L 219.54081 139.665218 
L 221.381647 159.113719 
L 223.222503 165.266678 
L 225.06334 167.862695 
L 226.904216 143.207733 
L 228.745053 157.708592 
L 230.585871 159.413396 
L 232.426708 162.136627 
L 234.267584 134.982924 
L 236.10844 167.725328 
L 237.949278 139.967857 
L 239.790115 123.786311 
L 241.630952 125.040341 
L 243.471789 119.440558 
L 245.312665 127.127066 
L 247.153521 149.455932 
L 248.994359 138.175428 
L 250.835157 127.799019 
L 252.676033 122.1216 
L 254.516909 173.68251 
L 256.357765 130.158234 
L 258.198564 130.354869 
L 260.039439 184.613739 
L 261.880296 142.412394 
L 263.721114 136.554552 
L 265.56197 194.917182 
L 267.402846 163.244245 
L 269.243645 154.039891 
L 271.08452 150.228113 
L 272.925377 158.804895 
L 274.766195 155.660675 
L 276.607051 155.547552 
L 278.447927 145.04419 
L 280.288726 139.054942 
L 282.129582 147.270463 
L 283.970457 101.027058 
L 285.811256 136.060037 
L 287.652132 157.37409 
L 289.492931 157.380308 
L 291.333864 123.579194 
L 293.174663 160.409777 
L 295.015538 162.906893 
L 296.856395 161.221089 
L 298.697213 143.574289 
L 300.538069 131.672974 
L 302.378868 121.458622 
L 304.219744 113.468307 
L 306.060619 106.38604 
L 307.901418 105.055148 
L 309.742274 111.627593 
L 311.58315 125.025601 
L 313.424026 113.589059 
L 315.264824 150.310504 
L 317.105681 120.616247 
L 318.946556 106.579529 
L 320.787355 122.145846 
L 322.628231 63.796251 
L 324.46903 88.274237 
L 326.309905 65.416513 
L 328.150762 120.83299 
L 329.991561 114.442454 
L 331.832494 107.082134 
L 333.673312 101.127833 
L 335.514168 97.032909 
L 337.354967 93.260705 
L 339.195843 72.508807 
L 341.036699 82.783735 
L 342.877517 96.25048 
L 344.718373 95.94937 
L 346.559191 82.495162 
L 348.400048 73.118821 
L 350.240923 84.713309 
L 352.08178 104.046291 
L 353.922655 110.43634 
L 355.763454 83.040978 
L 357.60433 89.15833 
L 359.445129 90.146744 
L 361.285985 103.93652 
L 363.126861 42.01214 
L 364.96766 67.722474 
L 366.808535 87.760967 
L 368.649334 81.838248 
L 370.49021 71.108451 
L 372.331123 85.667012 
L 374.171922 93.693008 
L 376.012798 128.00207 
L 377.853597 117.349052 
L 379.694472 116.386889 
L 381.535271 107.151942 
L 383.376147 102.320481 
L 385.217022 90.302405 
L 387.057821 112.518587 
L 388.898697 114.122402 
L 390.739496 87.764902 
L 392.58041 134.933091 
L 394.421285 125.132109 
L 396.262084 130.813403 
L 398.10296 122.083532 
L 399.943759 113.993729 
L 401.784634 102.258129 
L 403.625433 115.458965 
L 405.466309 114.959941 
L 407.307184 112.876837 
L 409.147983 109.103185 
L 410.98882 100.890525 
L 412.285625 117.417659 
L 412.285625 117.417659 
" clip-path="url(#p78f01fb4fa)" style="fill: none; stroke: #ff7f0e; stroke-width: 1.5; stroke-linecap: square"/>
   </g>
   <g id="line2d_18">
    <path d="M 50.182922 288.430125 
L 52.330737 296.251824 
L 54.478552 263.015193 
L 56.626401 260.124011 
L 58.774216 259.650032 
L 60.921996 260.248375 
L 63.069811 259.892857 
L 65.217661 244.679381 
L 67.365476 201.914311 
L 69.51329 196.926385 
L 71.661104 192.456501 
L 73.80892 224.030121 
L 75.956734 219.156389 
L 78.10455 205.478583 
L 80.252399 205.025884 
L 82.400179 183.192817 
L 84.547995 189.025552 
L 86.695809 183.538906 
L 88.843658 175.462514 
L 90.991474 150.423405 
L 93.139252 176.716664 
L 95.287102 163.972306 
L 97.434918 182.225559 
L 99.582734 140.258338 
L 101.730545 155.899422 
L 103.878361 154.172305 
L 106.026177 172.239635 
L 108.173993 141.667128 
L 110.321843 150.506022 
L 112.469654 141.512406 
L 114.617436 157.485245 
L 116.765252 150.347974 
L 118.913102 165.422803 
L 121.060913 174.153762 
L 123.208729 208.819625 
L 125.356545 175.23133 
L 127.504361 158.088643 
L 129.652172 176.648746 
L 131.799988 160.017299 
L 133.947833 168.073484 
L 136.09562 195.105606 
L 138.243436 204.648353 
L 140.391252 173.713042 
L 142.539097 132.324155 
L 144.686913 164.997619 
L 146.834691 174.304461 
L 148.982545 151.942958 
L 151.130361 133.337299 
L 153.278168 135.7964 
L 155.425984 140.551501 
L 157.5738 146.86764 
L 159.721616 151.494202 
L 161.869432 141.55131 
L 164.017276 178.520117 
L 168.31288 157.153135 
L 170.460686 160.078163 
L 172.608541 162.173098 
L 174.756357 143.707116 
L 176.904173 145.037271 
L 179.05195 143.492482 
L 181.199795 187.237276 
L 183.347611 144.91159 
L 185.495427 151.994457 
L 187.643281 134.441353 
L 189.791059 131.290787 
L 191.938875 157.040413 
L 194.086691 162.393998 
L 196.234536 172.733091 
L 198.382352 171.950245 
L 200.53013 170.418379 
L 202.677984 179.792717 
L 204.8258 154.922826 
L 206.973616 165.101919 
L 209.121422 195.632239 
L 211.269238 155.988524 
L 213.417054 163.09908 
L 215.56487 191.461391 
L 217.712725 157.340902 
L 219.860541 171.024669 
L 222.008318 153.992391 
L 224.156134 159.70911 
L 226.30397 153.925729 
L 228.451786 167.248737 
L 230.599602 172.99709 
L 232.747399 123.202464 
L 234.895234 185.632934 
L 237.04305 185.132234 
L 239.190866 175.337065 
L 241.33872 183.156017 
L 243.486498 178.406784 
L 245.634314 210.79902 
L 247.78213 152.507314 
L 249.929984 142.66286 
L 252.0778 155.224302 
L 254.225578 163.391031 
L 256.373413 148.760905 
L 258.521229 150.585967 
L 260.669045 155.393072 
L 262.816861 144.664519 
L 264.964677 131.806929 
L 267.112493 145.937618 
L 269.260309 155.840432 
L 271.408163 133.867595 
L 273.555979 122.561932 
L 275.703757 139.670302 
L 277.851573 164.804714 
L 279.999428 151.999084 
L 282.147224 154.897263 
L 284.29504 167.908904 
L 286.442837 129.710285 
L 288.590672 164.090301 
L 290.738488 162.627166 
L 292.886304 144.933732 
L 295.034159 134.168787 
L 297.181936 188.327373 
L 299.329791 158.204421 
L 301.477568 144.973401 
L 303.625423 166.829982 
L 305.773258 131.23266 
L 307.921055 172.842844 
L 310.068833 131.296234 
L 312.216668 139.103652 
L 314.364522 151.124773 
L 316.5123 110.786165 
L 318.660077 127.175432 
L 320.807932 135.978293 
L 322.955786 168.982079 
L 325.103564 116.421615 
L 327.251418 135.269257 
L 329.399196 160.150907 
L 331.54705 135.897557 
L 333.694828 124.783375 
L 335.842606 148.152364 
L 337.990517 149.097592 
L 340.138295 128.945427 
L 342.286149 141.902387 
L 344.433927 124.64927 
L 346.581705 148.746479 
L 348.729559 125.869209 
L 350.877337 153.022727 
L 353.025268 116.33766 
L 355.173046 135.7481 
L 357.320823 149.931687 
L 359.468678 146.341463 
L 361.616455 135.32626 
L 363.76431 130.749293 
L 365.912087 153.027282 
L 368.059922 135.921498 
L 370.207777 168.199806 
L 372.355554 164.147777 
L 374.503409 147.766668 
L 376.651186 129.027317 
L 378.798964 122.232682 
L 380.946819 126.875484 
L 383.094673 137.521152 
L 385.242527 137.707306 
L 387.390305 124.634894 
L 389.538083 125.444103 
L 391.685937 112.47033 
L 393.833715 121.541897 
L 395.981569 127.500783 
L 398.129423 144.847664 
L 400.277201 131.302966 
L 402.425017 93.965824 
L 404.572833 107.092768 
L 406.720649 135.772132 
L 408.868465 121.349995 
L 411.016243 107.785696 
L 412.285625 117.350551 
L 412.285625 117.350551 
" clip-path="url(#p78f01fb4fa)" style="fill: none; stroke: #2ca02c; stroke-width: 1.5; stroke-linecap: square"/>
   </g>
   <g id="patch_3">
    <path d="M 46.965625 288.430125 
L 46.965625 22.318125 
" style="fill: none; stroke: #000000; stroke-width: 0.8; stroke-linejoin: miter; stroke-linecap: square"/>
   </g>
   <g id="patch_4">
    <path d="M 404.085625 288.430125 
L 404.085625 22.318125 
" style="fill: none; stroke: #000000; stroke-width: 0.8; stroke-linejoin: miter; stroke-linecap: square"/>
   </g>
   <g id="patch_5">
    <path d="M 46.965625 288.430125 
L 404.085625 288.430125 
" style="fill: none; stroke: #000000; stroke-width: 0.8; stroke-linejoin: miter; stroke-linecap: square"/>
   </g>
   <g id="patch_6">
    <path d="M 46.965625 22.318125 
L 404.085625 22.318125 
" style="fill: none; stroke: #000000; stroke-width: 0.8; stroke-linejoin: miter; stroke-linecap: square"/>
   </g>
   <g id="text_18">
    <!-- Stress-Strain Curve -->
    <g transform="translate(167.542188 16.318125) scale(0.12 -0.12)">
     <defs>
      <path id="DejaVuSans-2d" d="M 313 2009 
L 1997 2009 
L 1997 1497 
L 313 1497 
L 313 2009 
z
" transform="scale(0.015625)"/>
      <path id="DejaVuSans-20" transform="scale(0.015625)"/>
      <path id="DejaVuSans-43" d="M 4122 4306 
L 4122 3641 
Q 3803 3938 3442 4084 
Q 3081 4231 2675 4231 
Q 1875 4231 1450 3742 
Q 1025 3253 1025 2328 
Q 1025 1406 1450 917 
Q 1875 428 2675 428 
Q 3081 428 3442 575 
Q 3803 722 4122 1019 
L 4122 359 
Q 3791 134 3420 21 
Q 3050 -91 2638 -91 
Q 1578 -91 968 557 
Q 359 1206 359 2328 
Q 359 3453 968 4101 
Q 1578 4750 2638 4750 
Q 3056 4750 3426 4639 
Q 3797 4528 4122 4306 
z
" transform="scale(0.015625)"/>
      <path id="DejaVuSans-75" d="M 544 1381 
L 544 3500 
L 1119 3500 
L 1119 1403 
Q 1119 906 1312 657 
Q 1506 409 1894 409 
Q 2359 409 2629 706 
Q 2900 1003 2900 1516 
L 2900 3500 
L 3475 3500 
L 3475 0 
L 2900 0 
L 2900 538 
Q 2691 219 2414 64 
Q 2138 -91 1772 -91 
Q 1169 -91 856 284 
Q 544 659 544 1381 
z
M 1991 3584 
L 1991 3584 
z
" transform="scale(0.015625)"/>
      <path id="DejaVuSans-76" d="M 191 3500 
L 800 3500 
L 1894 563 
L 2988 3500 
L 3597 3500 
L 2284 0 
L 1503 0 
L 191 3500 
z
" transform="scale(0.015625)"/>
     </defs>
     <use xlink:href="#DejaVuSans-53"/>
     <use xlink:href="#DejaVuSans-74" x="63.476562"/>
     <use xlink:href="#DejaVuSans-72" x="102.685547"/>
     <use xlink:href="#DejaVuSans-65" x="141.548828"/>
     <use xlink:href="#DejaVuSans-73" x="203.072266"/>
     <use xlink:href="#DejaVuSans-73" x="255.171875"/>
     <use xlink:href="#DejaVuSans-2d" x="307.271484"/>
     <use xlink:href="#DejaVuSans-53" x="343.355469"/>
     <use xlink:href="#DejaVuSans-74" x="406.832031"/>
     <use xlink:href="#DejaVuSans-72" x="446.041016"/>
     <use xlink:href="#DejaVuSans-61" x="487.154297"/>
     <use xlink:href="#DejaVuSans-69" x="548.433594"/>
     <use xlink:href="#DejaVuSans-6e" x="576.216797"/>
     <use xlink:href="#DejaVuSans-20" x="639.595703"/>
     <use xlink:href="#DejaVuSans-43" x="671.382812"/>
     <use xlink:href="#DejaVuSans-75" x="741.207031"/>
     <use xlink:href="#DejaVuSans-72" x="804.585938"/>
     <use xlink:href="#DejaVuSans-76" x="845.699219"/>
     <use xlink:href="#DejaVuSans-65" x="904.878906"/>
    </g>
   </g>
   <g id="legend_1">
    <g id="patch_7">
     <path d="M 53.965625 75.186875 
L 119.053125 75.186875 
Q 121.053125 75.186875 121.053125 73.186875 
L 121.053125 29.318125 
Q 121.053125 27.318125 119.053125 27.318125 
L 53.965625 27.318125 
Q 51.965625 27.318125 51.965625 29.318125 
L 51.965625 73.186875 
Q 51.965625 75.186875 53.965625 75.186875 
z
" style="fill: #ffffff; opacity: 0.8; stroke: #cccccc; stroke-linejoin: miter"/>
    </g>
    <g id="line2d_19">
     <path d="M 55.965625 35.416562 
L 65.965625 35.416562 
L 75.965625 35.416562 
" style="fill: none; stroke: #1f77b4; stroke-width: 1.5; stroke-linecap: square"/>
    </g>
    <g id="text_19">
     <!-- FS1I_X -->
     <g transform="translate(83.965625 38.916562) scale(0.1 -0.1)">
      <defs>
       <path id="DejaVuSans-46" d="M 628 4666 
L 3309 4666 
L 3309 4134 
L 1259 4134 
L 1259 2759 
L 3109 2759 
L 3109 2228 
L 1259 2228 
L 1259 0 
L 628 0 
L 628 4666 
z
" transform="scale(0.015625)"/>
       <path id="DejaVuSans-49" d="M 628 4666 
L 1259 4666 
L 1259 0 
L 628 0 
L 628 4666 
z
" transform="scale(0.015625)"/>
       <path id="DejaVuSans-5f" d="M 3263 -1063 
L 3263 -1509 
L -63 -1509 
L -63 -1063 
L 3263 -1063 
z
" transform="scale(0.015625)"/>
       <path id="DejaVuSans-58" d="M 403 4666 
L 1081 4666 
L 2241 2931 
L 3406 4666 
L 4084 4666 
L 2584 2425 
L 4184 0 
L 3506 0 
L 2194 1984 
L 872 0 
L 191 0 
L 1856 2491 
L 403 4666 
z
" transform="scale(0.015625)"/>
      </defs>
      <use xlink:href="#DejaVuSans-46"/>
      <use xlink:href="#DejaVuSans-53" x="55.769531"/>
      <use xlink:href="#DejaVuSans-31" x="119.246094"/>
      <use xlink:href="#DejaVuSans-49" x="182.869141"/>
      <use xlink:href="#DejaVuSans-5f" x="212.361328"/>
      <use xlink:href="#DejaVuSans-58" x="262.361328"/>
     </g>
    </g>
    <g id="line2d_20">
     <path d="M 55.965625 50.372813 
L 65.965625 50.372813 
L 75.965625 50.372813 
" style="fill: none; stroke: #ff7f0e; stroke-width: 1.5; stroke-linecap: square"/>
    </g>
    <g id="text_20">
     <!-- FS1I_Y -->
     <g transform="translate(83.965625 53.872813) scale(0.1 -0.1)">
      <defs>
       <path id="DejaVuSans-59" d="M -13 4666 
L 666 4666 
L 1959 2747 
L 3244 4666 
L 3922 4666 
L 2272 2222 
L 2272 0 
L 1638 0 
L 1638 2222 
L -13 4666 
z
" transform="scale(0.015625)"/>
      </defs>
      <use xlink:href="#DejaVuSans-46"/>
      <use xlink:href="#DejaVuSans-53" x="55.769531"/>
      <use xlink:href="#DejaVuSans-31" x="119.246094"/>
      <use xlink:href="#DejaVuSans-49" x="182.869141"/>
      <use xlink:href="#DejaVuSans-5f" x="212.361328"/>
      <use xlink:href="#DejaVuSans-59" x="262.361328"/>
     </g>
    </g>
    <g id="line2d_21">
     <path d="M 55.965625 65.329063 
L 65.965625 65.329063 
L 75.965625 65.329063 
" style="fill: none; stroke: #2ca02c; stroke-width: 1.5; stroke-linecap: square"/>
    </g>
    <g id="text_21">
     <!-- FS1I_Z -->
     <g transform="translate(83.965625 68.829063) scale(0.1 -0.1)">
      <defs>
       <path id="DejaVuSans-5a" d="M 359 4666 
L 4025 4666 
L 4025 4184 
L 1075 531 
L 4097 531 
L 4097 0 
L 288 0 
L 288 481 
L 3238 4134 
L 359 4134 
L 359 4666 
z
" transform="scale(0.015625)"/>
      </defs>
      <use xlink:href="#DejaVuSans-46"/>
      <use xlink:href="#DejaVuSans-53" x="55.769531"/>
      <use xlink:href="#DejaVuSans-31" x="119.246094"/>
      <use xlink:href="#DejaVuSans-49" x="182.869141"/>
      <use xlink:href="#DejaVuSans-5f" x="212.361328"/>
      <use xlink:href="#DejaVuSans-5a" x="262.361328"/>
     </g>
    </g>
   </g>
  </g>
 </g>
 <defs>
  <clipPath id="p78f01fb4fa">
   <rect x="46.965625" y="22.318125" width="357.12" height="266.112"/>
  </clipPath>
 </defs>
</svg>
