<?xml version="1.0" encoding="utf-8" standalone="no"?>
<!DOCTYPE svg PUBLIC "-//W3C//DTD SVG 1.1//EN"
  "http://www.w3.org/Graphics/SVG/1.1/DTD/svg11.dtd">
<svg xmlns:xlink="http://www.w3.org/1999/xlink" width="411.285625pt" height="310.86825pt" viewBox="0 0 411.285625 310.86825" xmlns="http://www.w3.org/2000/svg" version="1.1">
 <metadata>
  <rdf:RDF xmlns:dc="http://purl.org/dc/elements/1.1/" xmlns:cc="http://creativecommons.org/ns#" xmlns:rdf="http://www.w3.org/1999/02/22-rdf-syntax-ns#">
   <cc:Work>
    <dc:type rdf:resource="http://purl.org/dc/dcmitype/StillImage"/>
    <dc:date>2025-01-20T16:49:47.399781</dc:date>
    <dc:format>image/svg+xml</dc:format>
    <dc:creator>
     <cc:Agent>
      <dc:title>Matplotlib v3.9.0, https://matplotlib.org/</dc:title>
     </cc:Agent>
    </dc:creator>
   </cc:Work>
  </rdf:RDF>
 </metadata>
 <defs>
  <style type="text/css">*{stroke-linejoin: round; stroke-linecap: butt}</style>
 </defs>
 <g id="figure_1">
  <g id="patch_1">
   <path d="M 0 310.86825 
L 411.285625 310.86825 
L 411.285625 0 
L 0 0 
z
" style="fill: #ffffff"/>
  </g>
  <g id="axes_1">
   <g id="patch_2">
    <path d="M 46.965625 273.312 
L 404.085625 273.312 
L 404.085625 7.2 
L 46.965625 7.2 
z
" style="fill: #ffffff"/>
   </g>
   <g id="matplotlib.axis_1">
    <g id="xtick_1">
     <g id="line2d_1">
      <defs>
       <path id="maac32acf9b" d="M 0 0 
L 0 3.5 
" style="stroke: #000000; stroke-width: 0.8"/>
      </defs>
      <g>
       <use xlink:href="#maac32acf9b" x="50.182922" y="273.312" style="stroke: #000000; stroke-width: 0.8"/>
      </g>
     </g>
     <g id="text_1">
      <!-- 100 -->
      <g transform="translate(40.639172 287.910437) scale(0.1 -0.1)">
       <defs>
        <path id="DejaVuSans-31" d="M 794 531 
L 1825 531 
L 1825 4091 
L 703 3866 
L 703 4441 
L 1819 4666 
L 2450 4666 
L 2450 531 
L 3481 531 
L 3481 0 
L 794 0 
L 794 531 
z
" transform="scale(0.015625)"/>
        <path id="DejaVuSans-30" d="M 2034 4250 
Q 1547 4250 1301 3770 
Q 1056 3291 1056 2328 
Q 1056 1369 1301 889 
Q 1547 409 2034 409 
Q 2525 409 2770 889 
Q 3016 1369 3016 2328 
Q 3016 3291 2770 3770 
Q 2525 4250 2034 4250 
z
M 2034 4750 
Q 2819 4750 3233 4129 
Q 3647 3509 3647 2328 
Q 3647 1150 3233 529 
Q 2819 -91 2034 -91 
Q 1250 -91 836 529 
Q 422 1150 422 2328 
Q 422 3509 836 4129 
Q 1250 4750 2034 4750 
z
" transform="scale(0.015625)"/>
       </defs>
       <use xlink:href="#DejaVuSans-31"/>
       <use xlink:href="#DejaVuSans-30" x="63.623047"/>
       <use xlink:href="#DejaVuSans-30" x="127.246094"/>
      </g>
     </g>
    </g>
    <g id="xtick_2">
     <g id="line2d_2">
      <g>
       <use xlink:href="#maac32acf9b" x="114.528868" y="273.312" style="stroke: #000000; stroke-width: 0.8"/>
      </g>
     </g>
     <g id="text_2">
      <!-- 120 -->
      <g transform="translate(104.985118 287.910437) scale(0.1 -0.1)">
       <defs>
        <path id="DejaVuSans-32" d="M 1228 531 
L 3431 531 
L 3431 0 
L 469 0 
L 469 531 
Q 828 903 1448 1529 
Q 2069 2156 2228 2338 
Q 2531 2678 2651 2914 
Q 2772 3150 2772 3378 
Q 2772 3750 2511 3984 
Q 2250 4219 1831 4219 
Q 1534 4219 1204 4116 
Q 875 4013 500 3803 
L 500 4441 
Q 881 4594 1212 4672 
Q 1544 4750 1819 4750 
Q 2544 4750 2975 4387 
Q 3406 4025 3406 3419 
Q 3406 3131 3298 2873 
Q 3191 2616 2906 2266 
Q 2828 2175 2409 1742 
Q 1991 1309 1228 531 
z
" transform="scale(0.015625)"/>
       </defs>
       <use xlink:href="#DejaVuSans-31"/>
       <use xlink:href="#DejaVuSans-32" x="63.623047"/>
       <use xlink:href="#DejaVuSans-30" x="127.246094"/>
      </g>
     </g>
    </g>
    <g id="xtick_3">
     <g id="line2d_3">
      <g>
       <use xlink:href="#maac32acf9b" x="178.874814" y="273.312" style="stroke: #000000; stroke-width: 0.8"/>
      </g>
     </g>
     <g id="text_3">
      <!-- 140 -->
      <g transform="translate(169.331064 287.910437) scale(0.1 -0.1)">
       <defs>
        <path id="DejaVuSans-34" d="M 2419 4116 
L 825 1625 
L 2419 1625 
L 2419 4116 
z
M 2253 4666 
L 3047 4666 
L 3047 1625 
L 3713 1625 
L 3713 1100 
L 3047 1100 
L 3047 0 
L 2419 0 
L 2419 1100 
L 313 1100 
L 313 1709 
L 2253 4666 
z
" transform="scale(0.015625)"/>
       </defs>
       <use xlink:href="#DejaVuSans-31"/>
       <use xlink:href="#DejaVuSans-34" x="63.623047"/>
       <use xlink:href="#DejaVuSans-30" x="127.246094"/>
      </g>
     </g>
    </g>
    <g id="xtick_4">
     <g id="line2d_4">
      <g>
       <use xlink:href="#maac32acf9b" x="243.22076" y="273.312" style="stroke: #000000; stroke-width: 0.8"/>
      </g>
     </g>
     <g id="text_4">
      <!-- 160 -->
      <g transform="translate(233.67701 287.910437) scale(0.1 -0.1)">
       <defs>
        <path id="DejaVuSans-36" d="M 2113 2584 
Q 1688 2584 1439 2293 
Q 1191 2003 1191 1497 
Q 1191 994 1439 701 
Q 1688 409 2113 409 
Q 2538 409 2786 701 
Q 3034 994 3034 1497 
Q 3034 2003 2786 2293 
Q 2538 2584 2113 2584 
z
M 3366 4563 
L 3366 3988 
Q 3128 4100 2886 4159 
Q 2644 4219 2406 4219 
Q 1781 4219 1451 3797 
Q 1122 3375 1075 2522 
Q 1259 2794 1537 2939 
Q 1816 3084 2150 3084 
Q 2853 3084 3261 2657 
Q 3669 2231 3669 1497 
Q 3669 778 3244 343 
Q 2819 -91 2113 -91 
Q 1303 -91 875 529 
Q 447 1150 447 2328 
Q 447 3434 972 4092 
Q 1497 4750 2381 4750 
Q 2619 4750 2861 4703 
Q 3103 4656 3366 4563 
z
" transform="scale(0.015625)"/>
       </defs>
       <use xlink:href="#DejaVuSans-31"/>
       <use xlink:href="#DejaVuSans-36" x="63.623047"/>
       <use xlink:href="#DejaVuSans-30" x="127.246094"/>
      </g>
     </g>
    </g>
    <g id="xtick_5">
     <g id="line2d_5">
      <g>
       <use xlink:href="#maac32acf9b" x="307.566706" y="273.312" style="stroke: #000000; stroke-width: 0.8"/>
      </g>
     </g>
     <g id="text_5">
      <!-- 180 -->
      <g transform="translate(298.022956 287.910437) scale(0.1 -0.1)">
       <defs>
        <path id="DejaVuSans-38" d="M 2034 2216 
Q 1584 2216 1326 1975 
Q 1069 1734 1069 1313 
Q 1069 891 1326 650 
Q 1584 409 2034 409 
Q 2484 409 2743 651 
Q 3003 894 3003 1313 
Q 3003 1734 2745 1975 
Q 2488 2216 2034 2216 
z
M 1403 2484 
Q 997 2584 770 2862 
Q 544 3141 544 3541 
Q 544 4100 942 4425 
Q 1341 4750 2034 4750 
Q 2731 4750 3128 4425 
Q 3525 4100 3525 3541 
Q 3525 3141 3298 2862 
Q 3072 2584 2669 2484 
Q 3125 2378 3379 2068 
Q 3634 1759 3634 1313 
Q 3634 634 3220 271 
Q 2806 -91 2034 -91 
Q 1263 -91 848 271 
Q 434 634 434 1313 
Q 434 1759 690 2068 
Q 947 2378 1403 2484 
z
M 1172 3481 
Q 1172 3119 1398 2916 
Q 1625 2713 2034 2713 
Q 2441 2713 2670 2916 
Q 2900 3119 2900 3481 
Q 2900 3844 2670 4047 
Q 2441 4250 2034 4250 
Q 1625 4250 1398 4047 
Q 1172 3844 1172 3481 
z
" transform="scale(0.015625)"/>
       </defs>
       <use xlink:href="#DejaVuSans-31"/>
       <use xlink:href="#DejaVuSans-38" x="63.623047"/>
       <use xlink:href="#DejaVuSans-30" x="127.246094"/>
      </g>
     </g>
    </g>
    <g id="xtick_6">
     <g id="line2d_6">
      <g>
       <use xlink:href="#maac32acf9b" x="371.912652" y="273.312" style="stroke: #000000; stroke-width: 0.8"/>
      </g>
     </g>
     <g id="text_6">
      <!-- 200 -->
      <g transform="translate(362.368902 287.910437) scale(0.1 -0.1)">
       <use xlink:href="#DejaVuSans-32"/>
       <use xlink:href="#DejaVuSans-30" x="63.623047"/>
       <use xlink:href="#DejaVuSans-30" x="127.246094"/>
      </g>
     </g>
    </g>
    <g id="text_7">
     <!-- Strain(%) -->
     <g transform="translate(202.061563 301.588562) scale(0.1 -0.1)">
      <defs>
       <path id="DejaVuSans-53" d="M 3425 4513 
L 3425 3897 
Q 3066 4069 2747 4153 
Q 2428 4238 2131 4238 
Q 1616 4238 1336 4038 
Q 1056 3838 1056 3469 
Q 1056 3159 1242 3001 
Q 1428 2844 1947 2747 
L 2328 2669 
Q 3034 2534 3370 2195 
Q 3706 1856 3706 1288 
Q 3706 609 3251 259 
Q 2797 -91 1919 -91 
Q 1588 -91 1214 -16 
Q 841 59 441 206 
L 441 856 
Q 825 641 1194 531 
Q 1563 422 1919 422 
Q 2459 422 2753 634 
Q 3047 847 3047 1241 
Q 3047 1584 2836 1778 
Q 2625 1972 2144 2069 
L 1759 2144 
Q 1053 2284 737 2584 
Q 422 2884 422 3419 
Q 422 4038 858 4394 
Q 1294 4750 2059 4750 
Q 2388 4750 2728 4690 
Q 3069 4631 3425 4513 
z
" transform="scale(0.015625)"/>
       <path id="DejaVuSans-74" d="M 1172 4494 
L 1172 3500 
L 2356 3500 
L 2356 3053 
L 1172 3053 
L 1172 1153 
Q 1172 725 1289 603 
Q 1406 481 1766 481 
L 2356 481 
L 2356 0 
L 1766 0 
Q 1100 0 847 248 
Q 594 497 594 1153 
L 594 3053 
L 172 3053 
L 172 3500 
L 594 3500 
L 594 4494 
L 1172 4494 
z
" transform="scale(0.015625)"/>
       <path id="DejaVuSans-72" d="M 2631 2963 
Q 2534 3019 2420 3045 
Q 2306 3072 2169 3072 
Q 1681 3072 1420 2755 
Q 1159 2438 1159 1844 
L 1159 0 
L 581 0 
L 581 3500 
L 1159 3500 
L 1159 2956 
Q 1341 3275 1631 3429 
Q 1922 3584 2338 3584 
Q 2397 3584 2469 3576 
Q 2541 3569 2628 3553 
L 2631 2963 
z
" transform="scale(0.015625)"/>
       <path id="DejaVuSans-61" d="M 2194 1759 
Q 1497 1759 1228 1600 
Q 959 1441 959 1056 
Q 959 750 1161 570 
Q 1363 391 1709 391 
Q 2188 391 2477 730 
Q 2766 1069 2766 1631 
L 2766 1759 
L 2194 1759 
z
M 3341 1997 
L 3341 0 
L 2766 0 
L 2766 531 
Q 2569 213 2275 61 
Q 1981 -91 1556 -91 
Q 1019 -91 701 211 
Q 384 513 384 1019 
Q 384 1609 779 1909 
Q 1175 2209 1959 2209 
L 2766 2209 
L 2766 2266 
Q 2766 2663 2505 2880 
Q 2244 3097 1772 3097 
Q 1472 3097 1187 3025 
Q 903 2953 641 2809 
L 641 3341 
Q 956 3463 1253 3523 
Q 1550 3584 1831 3584 
Q 2591 3584 2966 3190 
Q 3341 2797 3341 1997 
z
" transform="scale(0.015625)"/>
       <path id="DejaVuSans-69" d="M 603 3500 
L 1178 3500 
L 1178 0 
L 603 0 
L 603 3500 
z
M 603 4863 
L 1178 4863 
L 1178 4134 
L 603 4134 
L 603 4863 
z
" transform="scale(0.015625)"/>
       <path id="DejaVuSans-6e" d="M 3513 2113 
L 3513 0 
L 2938 0 
L 2938 2094 
Q 2938 2591 2744 2837 
Q 2550 3084 2163 3084 
Q 1697 3084 1428 2787 
Q 1159 2491 1159 1978 
L 1159 0 
L 581 0 
L 581 3500 
L 1159 3500 
L 1159 2956 
Q 1366 3272 1645 3428 
Q 1925 3584 2291 3584 
Q 2894 3584 3203 3211 
Q 3513 2838 3513 2113 
z
" transform="scale(0.015625)"/>
       <path id="DejaVuSans-28" d="M 1984 4856 
Q 1566 4138 1362 3434 
Q 1159 2731 1159 2009 
Q 1159 1288 1364 580 
Q 1569 -128 1984 -844 
L 1484 -844 
Q 1016 -109 783 600 
Q 550 1309 550 2009 
Q 550 2706 781 3412 
Q 1013 4119 1484 4856 
L 1984 4856 
z
" transform="scale(0.015625)"/>
       <path id="DejaVuSans-25" d="M 4653 2053 
Q 4381 2053 4226 1822 
Q 4072 1591 4072 1178 
Q 4072 772 4226 539 
Q 4381 306 4653 306 
Q 4919 306 5073 539 
Q 5228 772 5228 1178 
Q 5228 1588 5073 1820 
Q 4919 2053 4653 2053 
z
M 4653 2450 
Q 5147 2450 5437 2106 
Q 5728 1763 5728 1178 
Q 5728 594 5436 251 
Q 5144 -91 4653 -91 
Q 4153 -91 3862 251 
Q 3572 594 3572 1178 
Q 3572 1766 3864 2108 
Q 4156 2450 4653 2450 
z
M 1428 4353 
Q 1159 4353 1004 4120 
Q 850 3888 850 3481 
Q 850 3069 1003 2837 
Q 1156 2606 1428 2606 
Q 1700 2606 1854 2837 
Q 2009 3069 2009 3481 
Q 2009 3884 1853 4118 
Q 1697 4353 1428 4353 
z
M 4250 4750 
L 4750 4750 
L 1831 -91 
L 1331 -91 
L 4250 4750 
z
M 1428 4750 
Q 1922 4750 2215 4408 
Q 2509 4066 2509 3481 
Q 2509 2891 2217 2550 
Q 1925 2209 1428 2209 
Q 931 2209 642 2551 
Q 353 2894 353 3481 
Q 353 4063 643 4406 
Q 934 4750 1428 4750 
z
" transform="scale(0.015625)"/>
       <path id="DejaVuSans-29" d="M 513 4856 
L 1013 4856 
Q 1481 4119 1714 3412 
Q 1947 2706 1947 2009 
Q 1947 1309 1714 600 
Q 1481 -109 1013 -844 
L 513 -844 
Q 928 -128 1133 580 
Q 1338 1288 1338 2009 
Q 1338 2731 1133 3434 
Q 928 4138 513 4856 
z
" transform="scale(0.015625)"/>
      </defs>
      <use xlink:href="#DejaVuSans-53"/>
      <use xlink:href="#DejaVuSans-74" x="63.476562"/>
      <use xlink:href="#DejaVuSans-72" x="102.685547"/>
      <use xlink:href="#DejaVuSans-61" x="143.798828"/>
      <use xlink:href="#DejaVuSans-69" x="205.078125"/>
      <use xlink:href="#DejaVuSans-6e" x="232.861328"/>
      <use xlink:href="#DejaVuSans-28" x="296.240234"/>
      <use xlink:href="#DejaVuSans-25" x="335.253906"/>
      <use xlink:href="#DejaVuSans-29" x="430.273438"/>
     </g>
    </g>
   </g>
   <g id="matplotlib.axis_2">
    <g id="ytick_1">
     <g id="line2d_7">
      <defs>
       <path id="m9245c66c06" d="M 0 0 
L -3.5 0 
" style="stroke: #000000; stroke-width: 0.8"/>
      </defs>
      <g>
       <use xlink:href="#m9245c66c06" x="46.965625" y="255.168" style="stroke: #000000; stroke-width: 0.8"/>
      </g>
     </g>
     <g id="text_8">
      <!-- 75 -->
      <g transform="translate(27.240625 258.967219) scale(0.1 -0.1)">
       <defs>
        <path id="DejaVuSans-37" d="M 525 4666 
L 3525 4666 
L 3525 4397 
L 1831 0 
L 1172 0 
L 2766 4134 
L 525 4134 
L 525 4666 
z
" transform="scale(0.015625)"/>
        <path id="DejaVuSans-35" d="M 691 4666 
L 3169 4666 
L 3169 4134 
L 1269 4134 
L 1269 2991 
Q 1406 3038 1543 3061 
Q 1681 3084 1819 3084 
Q 2600 3084 3056 2656 
Q 3513 2228 3513 1497 
Q 3513 744 3044 326 
Q 2575 -91 1722 -91 
Q 1428 -91 1123 -41 
Q 819 9 494 109 
L 494 744 
Q 775 591 1075 516 
Q 1375 441 1709 441 
Q 2250 441 2565 725 
Q 2881 1009 2881 1497 
Q 2881 1984 2565 2268 
Q 2250 2553 1709 2553 
Q 1456 2553 1204 2497 
Q 953 2441 691 2322 
L 691 4666 
z
" transform="scale(0.015625)"/>
       </defs>
       <use xlink:href="#DejaVuSans-37"/>
       <use xlink:href="#DejaVuSans-35" x="63.623047"/>
      </g>
     </g>
    </g>
    <g id="ytick_2">
     <g id="line2d_8">
      <g>
       <use xlink:href="#m9245c66c06" x="46.965625" y="224.928" style="stroke: #000000; stroke-width: 0.8"/>
      </g>
     </g>
     <g id="text_9">
      <!-- 80 -->
      <g transform="translate(27.240625 228.727219) scale(0.1 -0.1)">
       <use xlink:href="#DejaVuSans-38"/>
       <use xlink:href="#DejaVuSans-30" x="63.623047"/>
      </g>
     </g>
    </g>
    <g id="ytick_3">
     <g id="line2d_9">
      <g>
       <use xlink:href="#m9245c66c06" x="46.965625" y="194.688" style="stroke: #000000; stroke-width: 0.8"/>
      </g>
     </g>
     <g id="text_10">
      <!-- 85 -->
      <g transform="translate(27.240625 198.487219) scale(0.1 -0.1)">
       <use xlink:href="#DejaVuSans-38"/>
       <use xlink:href="#DejaVuSans-35" x="63.623047"/>
      </g>
     </g>
    </g>
    <g id="ytick_4">
     <g id="line2d_10">
      <g>
       <use xlink:href="#m9245c66c06" x="46.965625" y="164.448" style="stroke: #000000; stroke-width: 0.8"/>
      </g>
     </g>
     <g id="text_11">
      <!-- 90 -->
      <g transform="translate(27.240625 168.247219) scale(0.1 -0.1)">
       <defs>
        <path id="DejaVuSans-39" d="M 703 97 
L 703 672 
Q 941 559 1184 500 
Q 1428 441 1663 441 
Q 2288 441 2617 861 
Q 2947 1281 2994 2138 
Q 2813 1869 2534 1725 
Q 2256 1581 1919 1581 
Q 1219 1581 811 2004 
Q 403 2428 403 3163 
Q 403 3881 828 4315 
Q 1253 4750 1959 4750 
Q 2769 4750 3195 4129 
Q 3622 3509 3622 2328 
Q 3622 1225 3098 567 
Q 2575 -91 1691 -91 
Q 1453 -91 1209 -44 
Q 966 3 703 97 
z
M 1959 2075 
Q 2384 2075 2632 2365 
Q 2881 2656 2881 3163 
Q 2881 3666 2632 3958 
Q 2384 4250 1959 4250 
Q 1534 4250 1286 3958 
Q 1038 3666 1038 3163 
Q 1038 2656 1286 2365 
Q 1534 2075 1959 2075 
z
" transform="scale(0.015625)"/>
       </defs>
       <use xlink:href="#DejaVuSans-39"/>
       <use xlink:href="#DejaVuSans-30" x="63.623047"/>
      </g>
     </g>
    </g>
    <g id="ytick_5">
     <g id="line2d_11">
      <g>
       <use xlink:href="#m9245c66c06" x="46.965625" y="134.208" style="stroke: #000000; stroke-width: 0.8"/>
      </g>
     </g>
     <g id="text_12">
      <!-- 95 -->
      <g transform="translate(27.240625 138.007219) scale(0.1 -0.1)">
       <use xlink:href="#DejaVuSans-39"/>
       <use xlink:href="#DejaVuSans-35" x="63.623047"/>
      </g>
     </g>
    </g>
    <g id="ytick_6">
     <g id="line2d_12">
      <g>
       <use xlink:href="#m9245c66c06" x="46.965625" y="103.968" style="stroke: #000000; stroke-width: 0.8"/>
      </g>
     </g>
     <g id="text_13">
      <!-- 100 -->
      <g transform="translate(20.878125 107.767219) scale(0.1 -0.1)">
       <use xlink:href="#DejaVuSans-31"/>
       <use xlink:href="#DejaVuSans-30" x="63.623047"/>
       <use xlink:href="#DejaVuSans-30" x="127.246094"/>
      </g>
     </g>
    </g>
    <g id="ytick_7">
     <g id="line2d_13">
      <g>
       <use xlink:href="#m9245c66c06" x="46.965625" y="73.728" style="stroke: #000000; stroke-width: 0.8"/>
      </g>
     </g>
     <g id="text_14">
      <!-- 105 -->
      <g transform="translate(20.878125 77.527219) scale(0.1 -0.1)">
       <use xlink:href="#DejaVuSans-31"/>
       <use xlink:href="#DejaVuSans-30" x="63.623047"/>
       <use xlink:href="#DejaVuSans-35" x="127.246094"/>
      </g>
     </g>
    </g>
    <g id="ytick_8">
     <g id="line2d_14">
      <g>
       <use xlink:href="#m9245c66c06" x="46.965625" y="43.488" style="stroke: #000000; stroke-width: 0.8"/>
      </g>
     </g>
     <g id="text_15">
      <!-- 110 -->
      <g transform="translate(20.878125 47.287219) scale(0.1 -0.1)">
       <use xlink:href="#DejaVuSans-31"/>
       <use xlink:href="#DejaVuSans-31" x="63.623047"/>
       <use xlink:href="#DejaVuSans-30" x="127.246094"/>
      </g>
     </g>
    </g>
    <g id="ytick_9">
     <g id="line2d_15">
      <g>
       <use xlink:href="#m9245c66c06" x="46.965625" y="13.248" style="stroke: #000000; stroke-width: 0.8"/>
      </g>
     </g>
     <g id="text_16">
      <!-- 115 -->
      <g transform="translate(20.878125 17.047219) scale(0.1 -0.1)">
       <use xlink:href="#DejaVuSans-31"/>
       <use xlink:href="#DejaVuSans-31" x="63.623047"/>
       <use xlink:href="#DejaVuSans-35" x="127.246094"/>
      </g>
     </g>
    </g>
    <g id="text_17">
     <!-- Hydrogen Bonds -->
     <g transform="translate(14.798438 181.598187) rotate(-90) scale(0.1 -0.1)">
      <defs>
       <path id="DejaVuSans-48" d="M 628 4666 
L 1259 4666 
L 1259 2753 
L 3553 2753 
L 3553 4666 
L 4184 4666 
L 4184 0 
L 3553 0 
L 3553 2222 
L 1259 2222 
L 1259 0 
L 628 0 
L 628 4666 
z
" transform="scale(0.015625)"/>
       <path id="DejaVuSans-79" d="M 2059 -325 
Q 1816 -950 1584 -1140 
Q 1353 -1331 966 -1331 
L 506 -1331 
L 506 -850 
L 844 -850 
Q 1081 -850 1212 -737 
Q 1344 -625 1503 -206 
L 1606 56 
L 191 3500 
L 800 3500 
L 1894 763 
L 2988 3500 
L 3597 3500 
L 2059 -325 
z
" transform="scale(0.015625)"/>
       <path id="DejaVuSans-64" d="M 2906 2969 
L 2906 4863 
L 3481 4863 
L 3481 0 
L 2906 0 
L 2906 525 
Q 2725 213 2448 61 
Q 2172 -91 1784 -91 
Q 1150 -91 751 415 
Q 353 922 353 1747 
Q 353 2572 751 3078 
Q 1150 3584 1784 3584 
Q 2172 3584 2448 3432 
Q 2725 3281 2906 2969 
z
M 947 1747 
Q 947 1113 1208 752 
Q 1469 391 1925 391 
Q 2381 391 2643 752 
Q 2906 1113 2906 1747 
Q 2906 2381 2643 2742 
Q 2381 3103 1925 3103 
Q 1469 3103 1208 2742 
Q 947 2381 947 1747 
z
" transform="scale(0.015625)"/>
       <path id="DejaVuSans-6f" d="M 1959 3097 
Q 1497 3097 1228 2736 
Q 959 2375 959 1747 
Q 959 1119 1226 758 
Q 1494 397 1959 397 
Q 2419 397 2687 759 
Q 2956 1122 2956 1747 
Q 2956 2369 2687 2733 
Q 2419 3097 1959 3097 
z
M 1959 3584 
Q 2709 3584 3137 3096 
Q 3566 2609 3566 1747 
Q 3566 888 3137 398 
Q 2709 -91 1959 -91 
Q 1206 -91 779 398 
Q 353 888 353 1747 
Q 353 2609 779 3096 
Q 1206 3584 1959 3584 
z
" transform="scale(0.015625)"/>
       <path id="DejaVuSans-67" d="M 2906 1791 
Q 2906 2416 2648 2759 
Q 2391 3103 1925 3103 
Q 1463 3103 1205 2759 
Q 947 2416 947 1791 
Q 947 1169 1205 825 
Q 1463 481 1925 481 
Q 2391 481 2648 825 
Q 2906 1169 2906 1791 
z
M 3481 434 
Q 3481 -459 3084 -895 
Q 2688 -1331 1869 -1331 
Q 1566 -1331 1297 -1286 
Q 1028 -1241 775 -1147 
L 775 -588 
Q 1028 -725 1275 -790 
Q 1522 -856 1778 -856 
Q 2344 -856 2625 -561 
Q 2906 -266 2906 331 
L 2906 616 
Q 2728 306 2450 153 
Q 2172 0 1784 0 
Q 1141 0 747 490 
Q 353 981 353 1791 
Q 353 2603 747 3093 
Q 1141 3584 1784 3584 
Q 2172 3584 2450 3431 
Q 2728 3278 2906 2969 
L 2906 3500 
L 3481 3500 
L 3481 434 
z
" transform="scale(0.015625)"/>
       <path id="DejaVuSans-65" d="M 3597 1894 
L 3597 1613 
L 953 1613 
Q 991 1019 1311 708 
Q 1631 397 2203 397 
Q 2534 397 2845 478 
Q 3156 559 3463 722 
L 3463 178 
Q 3153 47 2828 -22 
Q 2503 -91 2169 -91 
Q 1331 -91 842 396 
Q 353 884 353 1716 
Q 353 2575 817 3079 
Q 1281 3584 2069 3584 
Q 2775 3584 3186 3129 
Q 3597 2675 3597 1894 
z
M 3022 2063 
Q 3016 2534 2758 2815 
Q 2500 3097 2075 3097 
Q 1594 3097 1305 2825 
Q 1016 2553 972 2059 
L 3022 2063 
z
" transform="scale(0.015625)"/>
       <path id="DejaVuSans-20" transform="scale(0.015625)"/>
       <path id="DejaVuSans-42" d="M 1259 2228 
L 1259 519 
L 2272 519 
Q 2781 519 3026 730 
Q 3272 941 3272 1375 
Q 3272 1813 3026 2020 
Q 2781 2228 2272 2228 
L 1259 2228 
z
M 1259 4147 
L 1259 2741 
L 2194 2741 
Q 2656 2741 2882 2914 
Q 3109 3088 3109 3444 
Q 3109 3797 2882 3972 
Q 2656 4147 2194 4147 
L 1259 4147 
z
M 628 4666 
L 2241 4666 
Q 2963 4666 3353 4366 
Q 3744 4066 3744 3513 
Q 3744 3084 3544 2831 
Q 3344 2578 2956 2516 
Q 3422 2416 3680 2098 
Q 3938 1781 3938 1306 
Q 3938 681 3513 340 
Q 3088 0 2303 0 
L 628 0 
L 628 4666 
z
" transform="scale(0.015625)"/>
       <path id="DejaVuSans-73" d="M 2834 3397 
L 2834 2853 
Q 2591 2978 2328 3040 
Q 2066 3103 1784 3103 
Q 1356 3103 1142 2972 
Q 928 2841 928 2578 
Q 928 2378 1081 2264 
Q 1234 2150 1697 2047 
L 1894 2003 
Q 2506 1872 2764 1633 
Q 3022 1394 3022 966 
Q 3022 478 2636 193 
Q 2250 -91 1575 -91 
Q 1294 -91 989 -36 
Q 684 19 347 128 
L 347 722 
Q 666 556 975 473 
Q 1284 391 1588 391 
Q 1994 391 2212 530 
Q 2431 669 2431 922 
Q 2431 1156 2273 1281 
Q 2116 1406 1581 1522 
L 1381 1569 
Q 847 1681 609 1914 
Q 372 2147 372 2553 
Q 372 3047 722 3315 
Q 1072 3584 1716 3584 
Q 2034 3584 2315 3537 
Q 2597 3491 2834 3397 
z
" transform="scale(0.015625)"/>
      </defs>
      <use xlink:href="#DejaVuSans-48"/>
      <use xlink:href="#DejaVuSans-79" x="75.195312"/>
      <use xlink:href="#DejaVuSans-64" x="134.375"/>
      <use xlink:href="#DejaVuSans-72" x="197.851562"/>
      <use xlink:href="#DejaVuSans-6f" x="236.714844"/>
      <use xlink:href="#DejaVuSans-67" x="297.896484"/>
      <use xlink:href="#DejaVuSans-65" x="361.373047"/>
      <use xlink:href="#DejaVuSans-6e" x="422.896484"/>
      <use xlink:href="#DejaVuSans-20" x="486.275391"/>
      <use xlink:href="#DejaVuSans-42" x="518.0625"/>
      <use xlink:href="#DejaVuSans-6f" x="586.666016"/>
      <use xlink:href="#DejaVuSans-6e" x="647.847656"/>
      <use xlink:href="#DejaVuSans-64" x="711.226562"/>
      <use xlink:href="#DejaVuSans-73" x="774.703125"/>
     </g>
    </g>
   </g>
   <g id="line2d_16">
    <path d="M 50.182922 128.16 
L 51.420081 164.448 
L 52.657239 91.872 
L 53.894398 140.256 
L 55.131557 146.304 
L 56.368715 182.592 
L 58.843032 146.304 
L 60.080258 188.64 
L 61.317416 140.256 
L 62.554575 134.208 
L 63.791734 158.4 
L 65.028892 152.352 
L 66.266051 158.4 
L 67.503209 158.4 
L 68.740368 103.968 
L 69.977526 182.592 
L 71.214685 176.544 
L 72.451844 128.16 
L 73.689069 134.208 
L 74.926228 122.112 
L 76.163386 146.304 
L 77.400545 134.208 
L 78.637703 110.016 
L 79.874862 158.4 
L 81.112021 110.016 
L 82.349179 140.256 
L 83.586338 176.544 
L 86.060655 128.16 
L 87.29788 110.016 
L 88.535039 134.208 
L 89.772198 116.064 
L 91.009356 152.352 
L 92.246515 128.16 
L 93.483673 97.92 
L 94.720832 103.968 
L 95.95799 140.256 
L 97.195149 67.68 
L 98.432308 67.68 
L 99.669466 79.776 
L 100.906692 128.16 
L 102.14385 85.824 
L 103.381009 85.824 
L 104.618167 116.064 
L 105.855326 73.728 
L 107.092485 110.016 
L 108.329643 110.016 
L 109.566802 140.256 
L 110.80396 91.872 
L 112.041119 73.728 
L 113.278277 67.68 
L 114.515503 103.968 
L 115.752662 73.728 
L 116.98982 97.92 
L 118.226979 110.016 
L 119.464137 79.776 
L 120.701296 110.016 
L 121.938454 116.064 
L 123.175613 73.728 
L 124.412772 116.064 
L 125.64993 103.968 
L 126.887089 61.632 
L 128.124314 103.968 
L 129.361473 97.92 
L 130.598631 134.208 
L 131.83579 97.92 
L 133.072949 67.68 
L 134.310107 110.016 
L 135.547266 61.632 
L 136.784424 116.064 
L 138.021583 140.256 
L 139.258741 85.824 
L 140.4959 158.4 
L 141.733126 128.16 
L 142.970284 122.112 
L 144.207443 134.208 
L 145.444601 140.256 
L 146.68176 116.064 
L 147.918918 176.544 
L 149.156077 152.352 
L 151.630394 152.352 
L 152.867553 97.92 
L 154.104711 146.304 
L 155.341937 79.776 
L 156.579095 134.208 
L 157.816254 152.352 
L 159.053413 128.16 
L 160.290571 134.208 
L 161.52773 146.304 
L 162.764888 116.064 
L 164.002047 110.016 
L 165.239205 67.68 
L 166.476364 103.968 
L 167.713523 146.304 
L 168.950748 158.4 
L 170.187907 116.064 
L 171.425065 140.256 
L 172.662224 158.4 
L 173.899382 128.16 
L 175.136541 158.4 
L 176.3737 140.256 
L 177.610858 176.544 
L 178.848017 116.064 
L 180.085175 182.592 
L 181.322334 122.112 
L 182.559559 164.448 
L 183.796718 158.4 
L 185.033877 164.448 
L 186.271035 122.112 
L 187.508194 170.496 
L 188.745352 152.352 
L 189.982511 140.256 
L 191.219669 134.208 
L 192.456828 164.448 
L 193.693987 218.88 
L 194.931145 152.352 
L 196.168371 194.688 
L 197.405529 134.208 
L 198.642688 128.16 
L 199.879846 128.16 
L 201.117005 146.304 
L 202.354164 122.112 
L 203.591322 91.872 
L 204.828481 116.064 
L 206.065639 164.448 
L 207.302798 67.68 
L 208.539956 134.208 
L 209.777182 140.256 
L 211.01434 91.872 
L 212.251499 55.584 
L 213.488658 97.92 
L 214.725816 152.352 
L 215.962975 79.776 
L 217.200133 146.304 
L 218.437292 73.728 
L 219.674451 128.16 
L 220.911609 116.064 
L 222.148768 91.872 
L 223.385993 110.016 
L 224.623152 79.776 
L 225.86031 110.016 
L 227.097469 110.016 
L 228.334627 73.728 
L 230.808945 97.92 
L 232.046103 61.632 
L 233.283262 103.968 
L 234.52042 61.632 
L 235.757579 73.728 
L 236.994738 103.968 
L 238.231963 73.728 
L 239.469122 85.824 
L 240.70628 85.824 
L 241.943439 49.536 
L 243.180597 43.488 
L 244.417756 91.872 
L 245.654914 31.392 
L 246.892073 97.92 
L 248.129232 85.824 
L 249.36639 55.584 
L 250.603549 122.112 
L 251.840774 79.776 
L 253.077933 79.776 
L 254.315091 73.728 
L 255.55225 79.776 
L 256.789409 103.968 
L 258.026567 91.872 
L 259.263726 55.584 
L 260.500884 73.728 
L 261.738043 49.536 
L 262.975201 73.728 
L 264.21236 67.68 
L 265.449586 79.776 
L 266.686744 55.584 
L 267.923903 67.68 
L 269.161061 61.632 
L 270.39822 61.632 
L 271.635378 97.92 
L 272.872537 31.392 
L 274.109696 31.392 
L 275.346854 49.536 
L 276.584013 103.968 
L 277.821171 19.296 
L 279.058397 25.344 
L 280.295555 19.296 
L 281.532714 25.344 
L 282.769873 49.536 
L 284.007031 79.776 
L 286.481348 103.968 
L 287.718507 43.488 
L 288.955665 110.016 
L 290.192824 55.584 
L 291.429983 103.968 
L 292.667208 79.776 
L 293.904367 49.536 
L 295.141525 79.776 
L 296.378684 55.584 
L 297.615842 97.92 
L 297.615842 97.92 
" clip-path="url(#pf999b81b73)" style="fill: none; stroke: #1f77b4; stroke-width: 1.5; stroke-linecap: square"/>
   </g>
   <g id="line2d_17">
    <path d="M 50.182922 128.16 
L 52.023735 110.016 
L 53.864548 140.256 
L 55.705441 152.352 
L 57.546254 116.064 
L 59.387148 146.304 
L 61.22796 103.968 
L 63.068854 134.208 
L 64.909667 134.208 
L 66.750479 188.64 
L 68.591373 110.016 
L 70.432186 152.352 
L 72.27308 164.448 
L 74.113892 158.4 
L 75.954705 170.496 
L 77.795599 158.4 
L 79.636411 122.112 
L 81.477305 128.16 
L 83.318118 152.352 
L 85.159011 146.304 
L 86.999824 158.4 
L 88.840637 79.776 
L 90.68153 140.256 
L 92.522343 110.016 
L 94.363237 140.256 
L 96.204049 128.16 
L 98.044862 110.016 
L 99.885756 140.256 
L 101.726568 176.544 
L 103.567462 152.352 
L 105.408275 152.352 
L 107.249169 97.92 
L 109.089981 103.968 
L 110.930794 103.968 
L 112.771688 152.352 
L 114.6125 103.968 
L 116.453394 158.4 
L 118.294207 170.496 
L 120.135019 146.304 
L 121.975913 116.064 
L 123.816726 116.064 
L 125.657619 146.304 
L 127.498432 158.4 
L 129.339326 122.112 
L 131.180138 158.4 
L 133.020951 146.304 
L 134.861845 140.256 
L 136.702657 218.88 
L 138.543551 122.112 
L 140.384364 146.304 
L 142.225258 146.304 
L 144.06607 116.064 
L 145.906883 176.544 
L 147.747777 152.352 
L 149.588589 73.728 
L 153.270296 206.784 
L 155.111108 170.496 
L 156.952002 158.4 
L 158.792815 128.16 
L 160.633708 188.64 
L 162.474521 218.88 
L 164.315415 182.592 
L 166.156227 152.352 
L 167.99704 182.592 
L 169.837934 122.112 
L 171.678747 158.4 
L 173.51964 164.448 
L 175.360453 182.592 
L 177.201266 146.304 
L 179.042159 103.968 
L 180.882972 152.352 
L 184.564678 140.256 
L 186.405572 128.16 
L 188.246385 122.112 
L 190.087197 146.304 
L 191.928091 176.544 
L 193.768904 164.448 
L 195.609798 140.256 
L 197.45061 176.544 
L 199.291423 170.496 
L 201.132317 140.256 
L 202.973129 224.928 
L 204.814023 176.544 
L 206.654836 194.688 
L 208.495729 206.784 
L 210.336542 128.16 
L 212.177355 152.352 
L 214.018248 116.064 
L 215.859061 164.448 
L 217.699955 140.256 
L 219.540767 164.448 
L 221.38158 116.064 
L 223.222474 164.448 
L 226.90418 164.448 
L 228.744993 188.64 
L 230.585887 97.92 
L 232.426699 188.64 
L 234.267512 206.784 
L 236.108406 122.112 
L 237.949218 206.784 
L 239.790112 158.4 
L 241.630925 218.88 
L 243.471737 176.544 
L 245.312631 170.496 
L 247.153444 194.688 
L 248.994337 152.352 
L 250.83515 194.688 
L 252.676044 158.4 
L 254.516856 158.4 
L 256.357669 140.256 
L 258.198563 164.448 
L 260.039375 176.544 
L 261.880269 128.16 
L 263.721082 164.448 
L 265.561894 158.4 
L 267.402788 164.448 
L 269.243601 164.448 
L 271.084495 170.496 
L 272.925307 152.352 
L 274.766201 170.496 
L 276.607014 134.208 
L 278.447826 140.256 
L 280.28872 194.688 
L 282.129533 140.256 
L 283.970426 152.352 
L 285.811239 170.496 
L 287.652052 182.592 
L 289.492945 188.64 
L 291.333758 122.112 
L 293.174652 194.688 
L 295.015465 146.304 
L 296.856358 134.208 
L 298.697171 188.64 
L 300.537984 164.448 
L 302.378877 218.88 
L 304.21969 164.448 
L 306.060584 146.304 
L 307.901396 218.88 
L 309.742209 188.64 
L 313.423915 188.64 
L 315.264809 194.688 
L 317.105622 243.072 
L 318.946516 164.448 
L 320.787328 200.736 
L 322.628141 188.64 
L 324.469035 170.496 
L 326.309847 212.832 
L 328.150741 134.208 
L 329.991554 134.208 
L 331.832447 110.016 
L 333.67326 152.352 
L 335.514073 140.256 
L 337.354966 110.016 
L 339.195779 110.016 
L 341.036673 170.496 
L 342.877485 188.64 
L 344.718298 170.496 
L 346.559192 110.016 
L 348.400004 116.064 
L 350.240898 134.208 
L 352.081711 170.496 
L 353.922605 182.592 
L 355.763417 152.352 
L 357.60423 116.064 
L 359.445124 134.208 
L 361.285936 170.496 
L 363.12683 176.544 
L 364.967643 170.496 
L 366.808455 206.784 
L 368.649349 182.592 
L 370.490162 164.448 
L 372.331055 164.448 
L 374.171868 200.736 
L 376.012762 158.4 
L 377.853574 194.688 
L 379.694387 200.736 
L 381.535281 218.88 
L 383.376093 182.592 
L 385.216987 188.64 
L 387.0578 218.88 
L 388.898612 194.688 
L 390.739506 176.544 
L 392.580319 170.496 
L 394.421213 176.544 
L 396.262025 146.304 
L 398.102919 206.784 
L 399.943732 152.352 
L 401.784544 164.448 
L 403.625438 158.4 
L 405.466251 200.736 
L 407.307144 164.448 
L 409.147957 188.64 
L 410.98877 146.304 
L 412.285625 154.825275 
L 412.285625 154.825275 
" clip-path="url(#pf999b81b73)" style="fill: none; stroke: #ff7f0e; stroke-width: 1.5; stroke-linecap: square"/>
   </g>
   <g id="line2d_18">
    <path d="M 50.182922 128.16 
L 52.330737 164.448 
L 56.626366 103.968 
L 58.774181 146.304 
L 60.921996 194.688 
L 63.06981 140.256 
L 65.217625 170.496 
L 67.365439 103.968 
L 69.513343 188.64 
L 71.661157 122.112 
L 73.808972 152.352 
L 75.956786 152.352 
L 78.104601 128.16 
L 80.252416 146.304 
L 82.40023 176.544 
L 84.548045 188.64 
L 86.69586 176.544 
L 88.843674 122.112 
L 90.991489 170.496 
L 93.139304 164.448 
L 95.287118 170.496 
L 97.434933 146.304 
L 99.582748 170.496 
L 101.730562 152.352 
L 103.878377 188.64 
L 106.026192 182.592 
L 108.174006 194.688 
L 110.321821 176.544 
L 112.469635 152.352 
L 114.61745 134.208 
L 116.765265 182.592 
L 118.913079 212.832 
L 121.060894 164.448 
L 123.208709 182.592 
L 125.356523 140.256 
L 127.504338 164.448 
L 129.652241 122.112 
L 131.800056 158.4 
L 136.095685 158.4 
L 138.2435 152.352 
L 140.391314 158.4 
L 142.539129 194.688 
L 144.686944 182.592 
L 146.834758 188.64 
L 148.982573 146.304 
L 151.130388 188.64 
L 153.278202 128.16 
L 155.426017 182.592 
L 157.573831 200.736 
L 159.721646 176.544 
L 161.869461 188.64 
L 164.017275 176.544 
L 166.16509 122.112 
L 168.312905 164.448 
L 170.460719 134.208 
L 172.608534 85.824 
L 174.756349 140.256 
L 176.904163 140.256 
L 179.051978 134.208 
L 181.199793 146.304 
L 183.347607 97.92 
L 185.495422 128.16 
L 187.643237 134.208 
L 189.791051 158.4 
L 191.938954 152.352 
L 194.086769 116.064 
L 196.234584 140.256 
L 198.382398 116.064 
L 200.530213 103.968 
L 202.678027 85.824 
L 204.825842 122.112 
L 206.973657 55.584 
L 209.121471 164.448 
L 211.269286 110.016 
L 213.417101 128.16 
L 215.564915 122.112 
L 217.71273 97.92 
L 219.860545 116.064 
L 222.008359 116.064 
L 224.156174 140.256 
L 226.303989 146.304 
L 228.451803 146.304 
L 230.599618 103.968 
L 232.747433 140.256 
L 234.895247 182.592 
L 237.043062 152.352 
L 239.190876 140.256 
L 241.338691 194.688 
L 243.486506 188.64 
L 245.63432 116.064 
L 247.782135 176.544 
L 249.92995 158.4 
L 252.077853 146.304 
L 254.225667 170.496 
L 256.373482 146.304 
L 258.521297 128.16 
L 260.669111 176.544 
L 262.816926 116.064 
L 264.964741 170.496 
L 267.112555 128.16 
L 269.26037 206.784 
L 271.408185 122.112 
L 273.555999 164.448 
L 275.703814 194.688 
L 277.851629 158.4 
L 279.999443 158.4 
L 282.147258 200.736 
L 284.295072 188.64 
L 286.442887 116.064 
L 288.590702 140.256 
L 290.738516 140.256 
L 295.034146 152.352 
L 297.18196 164.448 
L 299.329775 134.208 
L 301.47759 140.256 
L 303.625404 158.4 
L 305.773219 182.592 
L 307.921034 146.304 
L 310.068848 152.352 
L 312.216663 140.256 
L 314.364566 110.016 
L 316.512381 103.968 
L 318.660195 146.304 
L 320.80801 140.256 
L 322.955825 158.4 
L 325.103639 182.592 
L 327.251454 146.304 
L 329.399268 164.448 
L 331.547083 146.304 
L 333.694898 164.448 
L 335.842712 164.448 
L 337.990527 158.4 
L 342.286156 170.496 
L 344.433971 212.832 
L 346.581786 200.736 
L 348.7296 164.448 
L 350.877415 152.352 
L 353.02523 261.216 
L 355.173044 200.736 
L 357.320859 188.64 
L 359.468674 146.304 
L 361.616488 194.688 
L 363.764303 212.832 
L 365.912118 182.592 
L 368.059932 194.688 
L 370.207747 188.64 
L 372.355561 128.16 
L 374.503376 176.544 
L 376.651279 206.784 
L 378.799094 230.976 
L 380.946908 200.736 
L 383.094723 176.544 
L 385.242538 224.928 
L 387.390352 224.928 
L 389.538167 212.832 
L 391.685982 194.688 
L 393.833796 255.168 
L 395.981611 206.784 
L 398.129426 224.928 
L 400.27724 224.928 
L 402.425055 206.784 
L 406.720684 230.976 
L 408.868499 164.448 
L 411.016314 218.88 
L 412.285625 204.583057 
L 412.285625 204.583057 
" clip-path="url(#pf999b81b73)" style="fill: none; stroke: #2ca02c; stroke-width: 1.5; stroke-linecap: square"/>
   </g>
   <g id="patch_3">
    <path d="M 46.965625 273.312 
L 46.965625 7.2 
" style="fill: none; stroke: #000000; stroke-width: 0.8; stroke-linejoin: miter; stroke-linecap: square"/>
   </g>
   <g id="patch_4">
    <path d="M 404.085625 273.312 
L 404.085625 7.2 
" style="fill: none; stroke: #000000; stroke-width: 0.8; stroke-linejoin: miter; stroke-linecap: square"/>
   </g>
   <g id="patch_5">
    <path d="M 46.965625 273.312 
L 404.085625 273.312 
" style="fill: none; stroke: #000000; stroke-width: 0.8; stroke-linejoin: miter; stroke-linecap: square"/>
   </g>
   <g id="patch_6">
    <path d="M 46.965625 7.2 
L 404.085625 7.2 
" style="fill: none; stroke: #000000; stroke-width: 0.8; stroke-linejoin: miter; stroke-linecap: square"/>
   </g>
   <g id="legend_1">
    <g id="patch_7">
     <path d="M 320.309063 59.234375 
L 397.085625 59.234375 
Q 399.085625 59.234375 399.085625 57.234375 
L 399.085625 14.2 
Q 399.085625 12.2 397.085625 12.2 
L 320.309063 12.2 
Q 318.309063 12.2 318.309063 14.2 
L 318.309063 57.234375 
Q 318.309063 59.234375 320.309063 59.234375 
z
" style="fill: #ffffff; opacity: 0.8; stroke: #cccccc; stroke-linejoin: miter"/>
    </g>
    <g id="line2d_19">
     <path d="M 322.309063 20.298437 
L 332.309063 20.298437 
L 342.309063 20.298437 
" style="fill: none; stroke: #1f77b4; stroke-width: 1.5; stroke-linecap: square"/>
    </g>
    <g id="text_18">
     <!-- X-Length -->
     <g transform="translate(350.309063 23.798437) scale(0.1 -0.1)">
      <defs>
       <path id="DejaVuSans-58" d="M 403 4666 
L 1081 4666 
L 2241 2931 
L 3406 4666 
L 4084 4666 
L 2584 2425 
L 4184 0 
L 3506 0 
L 2194 1984 
L 872 0 
L 191 0 
L 1856 2491 
L 403 4666 
z
" transform="scale(0.015625)"/>
       <path id="DejaVuSans-2d" d="M 313 2009 
L 1997 2009 
L 1997 1497 
L 313 1497 
L 313 2009 
z
" transform="scale(0.015625)"/>
       <path id="DejaVuSans-4c" d="M 628 4666 
L 1259 4666 
L 1259 531 
L 3531 531 
L 3531 0 
L 628 0 
L 628 4666 
z
" transform="scale(0.015625)"/>
       <path id="DejaVuSans-68" d="M 3513 2113 
L 3513 0 
L 2938 0 
L 2938 2094 
Q 2938 2591 2744 2837 
Q 2550 3084 2163 3084 
Q 1697 3084 1428 2787 
Q 1159 2491 1159 1978 
L 1159 0 
L 581 0 
L 581 4863 
L 1159 4863 
L 1159 2956 
Q 1366 3272 1645 3428 
Q 1925 3584 2291 3584 
Q 2894 3584 3203 3211 
Q 3513 2838 3513 2113 
z
" transform="scale(0.015625)"/>
      </defs>
      <use xlink:href="#DejaVuSans-58"/>
      <use xlink:href="#DejaVuSans-2d" x="63.505859"/>
      <use xlink:href="#DejaVuSans-4c" x="99.589844"/>
      <use xlink:href="#DejaVuSans-65" x="153.552734"/>
      <use xlink:href="#DejaVuSans-6e" x="215.076172"/>
      <use xlink:href="#DejaVuSans-67" x="278.455078"/>
      <use xlink:href="#DejaVuSans-74" x="341.931641"/>
      <use xlink:href="#DejaVuSans-68" x="381.140625"/>
     </g>
    </g>
    <g id="line2d_20">
     <path d="M 322.309063 34.976562 
L 332.309063 34.976562 
L 342.309063 34.976562 
" style="fill: none; stroke: #ff7f0e; stroke-width: 1.5; stroke-linecap: square"/>
    </g>
    <g id="text_19">
     <!-- Y-Length -->
     <g transform="translate(350.309063 38.476562) scale(0.1 -0.1)">
      <defs>
       <path id="DejaVuSans-59" d="M -13 4666 
L 666 4666 
L 1959 2747 
L 3244 4666 
L 3922 4666 
L 2272 2222 
L 2272 0 
L 1638 0 
L 1638 2222 
L -13 4666 
z
" transform="scale(0.015625)"/>
      </defs>
      <use xlink:href="#DejaVuSans-59"/>
      <use xlink:href="#DejaVuSans-2d" x="49.208984"/>
      <use xlink:href="#DejaVuSans-4c" x="85.292969"/>
      <use xlink:href="#DejaVuSans-65" x="139.255859"/>
      <use xlink:href="#DejaVuSans-6e" x="200.779297"/>
      <use xlink:href="#DejaVuSans-67" x="264.158203"/>
      <use xlink:href="#DejaVuSans-74" x="327.634766"/>
      <use xlink:href="#DejaVuSans-68" x="366.84375"/>
     </g>
    </g>
    <g id="line2d_21">
     <path d="M 322.309063 49.654687 
L 332.309063 49.654687 
L 342.309063 49.654687 
" style="fill: none; stroke: #2ca02c; stroke-width: 1.5; stroke-linecap: square"/>
    </g>
    <g id="text_20">
     <!-- Z-Length -->
     <g transform="translate(350.309063 53.154687) scale(0.1 -0.1)">
      <defs>
       <path id="DejaVuSans-5a" d="M 359 4666 
L 4025 4666 
L 4025 4184 
L 1075 531 
L 4097 531 
L 4097 0 
L 288 0 
L 288 481 
L 3238 4134 
L 359 4134 
L 359 4666 
z
" transform="scale(0.015625)"/>
      </defs>
      <use xlink:href="#DejaVuSans-5a"/>
      <use xlink:href="#DejaVuSans-2d" x="66.755859"/>
      <use xlink:href="#DejaVuSans-4c" x="102.839844"/>
      <use xlink:href="#DejaVuSans-65" x="156.802734"/>
      <use xlink:href="#DejaVuSans-6e" x="218.326172"/>
      <use xlink:href="#DejaVuSans-67" x="281.705078"/>
      <use xlink:href="#DejaVuSans-74" x="345.181641"/>
      <use xlink:href="#DejaVuSans-68" x="384.390625"/>
     </g>
    </g>
   </g>
  </g>
 </g>
 <defs>
  <clipPath id="pf999b81b73">
   <rect x="46.965625" y="7.2" width="357.12" height="266.112"/>
  </clipPath>
 </defs>
</svg>
