<?xml version="1.0" encoding="utf-8" standalone="no"?>
<!DOCTYPE svg PUBLIC "-//W3C//DTD SVG 1.1//EN"
  "http://www.w3.org/Graphics/SVG/1.1/DTD/svg11.dtd">
<svg xmlns:xlink="http://www.w3.org/1999/xlink" width="411.285625pt" height="310.86825pt" viewBox="0 0 411.285625 310.86825" xmlns="http://www.w3.org/2000/svg" version="1.1">
 <metadata>
  <rdf:RDF xmlns:dc="http://purl.org/dc/elements/1.1/" xmlns:cc="http://creativecommons.org/ns#" xmlns:rdf="http://www.w3.org/1999/02/22-rdf-syntax-ns#">
   <cc:Work>
    <dc:type rdf:resource="http://purl.org/dc/dcmitype/StillImage"/>
    <dc:date>2025-01-20T16:50:01.623357</dc:date>
    <dc:format>image/svg+xml</dc:format>
    <dc:creator>
     <cc:Agent>
      <dc:title>Matplotlib v3.9.0, https://matplotlib.org/</dc:title>
     </cc:Agent>
    </dc:creator>
   </cc:Work>
  </rdf:RDF>
 </metadata>
 <defs>
  <style type="text/css">*{stroke-linejoin: round; stroke-linecap: butt}</style>
 </defs>
 <g id="figure_1">
  <g id="patch_1">
   <path d="M 0 310.86825 
L 411.285625 310.86825 
L 411.285625 0 
L 0 0 
z
" style="fill: #ffffff"/>
  </g>
  <g id="axes_1">
   <g id="patch_2">
    <path d="M 46.965625 273.312 
L 404.085625 273.312 
L 404.085625 7.2 
L 46.965625 7.2 
z
" style="fill: #ffffff"/>
   </g>
   <g id="matplotlib.axis_1">
    <g id="xtick_1">
     <g id="line2d_1">
      <defs>
       <path id="m446fa82f8b" d="M 0 0 
L 0 3.5 
" style="stroke: #000000; stroke-width: 0.8"/>
      </defs>
      <g>
       <use xlink:href="#m446fa82f8b" x="50.182922" y="273.312" style="stroke: #000000; stroke-width: 0.8"/>
      </g>
     </g>
     <g id="text_1">
      <!-- 100 -->
      <g transform="translate(40.639172 287.910437) scale(0.1 -0.1)">
       <defs>
        <path id="DejaVuSans-31" d="M 794 531 
L 1825 531 
L 1825 4091 
L 703 3866 
L 703 4441 
L 1819 4666 
L 2450 4666 
L 2450 531 
L 3481 531 
L 3481 0 
L 794 0 
L 794 531 
z
" transform="scale(0.015625)"/>
        <path id="DejaVuSans-30" d="M 2034 4250 
Q 1547 4250 1301 3770 
Q 1056 3291 1056 2328 
Q 1056 1369 1301 889 
Q 1547 409 2034 409 
Q 2525 409 2770 889 
Q 3016 1369 3016 2328 
Q 3016 3291 2770 3770 
Q 2525 4250 2034 4250 
z
M 2034 4750 
Q 2819 4750 3233 4129 
Q 3647 3509 3647 2328 
Q 3647 1150 3233 529 
Q 2819 -91 2034 -91 
Q 1250 -91 836 529 
Q 422 1150 422 2328 
Q 422 3509 836 4129 
Q 1250 4750 2034 4750 
z
" transform="scale(0.015625)"/>
       </defs>
       <use xlink:href="#DejaVuSans-31"/>
       <use xlink:href="#DejaVuSans-30" x="63.623047"/>
       <use xlink:href="#DejaVuSans-30" x="127.246094"/>
      </g>
     </g>
    </g>
    <g id="xtick_2">
     <g id="line2d_2">
      <g>
       <use xlink:href="#m446fa82f8b" x="114.528868" y="273.312" style="stroke: #000000; stroke-width: 0.8"/>
      </g>
     </g>
     <g id="text_2">
      <!-- 120 -->
      <g transform="translate(104.985118 287.910437) scale(0.1 -0.1)">
       <defs>
        <path id="DejaVuSans-32" d="M 1228 531 
L 3431 531 
L 3431 0 
L 469 0 
L 469 531 
Q 828 903 1448 1529 
Q 2069 2156 2228 2338 
Q 2531 2678 2651 2914 
Q 2772 3150 2772 3378 
Q 2772 3750 2511 3984 
Q 2250 4219 1831 4219 
Q 1534 4219 1204 4116 
Q 875 4013 500 3803 
L 500 4441 
Q 881 4594 1212 4672 
Q 1544 4750 1819 4750 
Q 2544 4750 2975 4387 
Q 3406 4025 3406 3419 
Q 3406 3131 3298 2873 
Q 3191 2616 2906 2266 
Q 2828 2175 2409 1742 
Q 1991 1309 1228 531 
z
" transform="scale(0.015625)"/>
       </defs>
       <use xlink:href="#DejaVuSans-31"/>
       <use xlink:href="#DejaVuSans-32" x="63.623047"/>
       <use xlink:href="#DejaVuSans-30" x="127.246094"/>
      </g>
     </g>
    </g>
    <g id="xtick_3">
     <g id="line2d_3">
      <g>
       <use xlink:href="#m446fa82f8b" x="178.874814" y="273.312" style="stroke: #000000; stroke-width: 0.8"/>
      </g>
     </g>
     <g id="text_3">
      <!-- 140 -->
      <g transform="translate(169.331064 287.910437) scale(0.1 -0.1)">
       <defs>
        <path id="DejaVuSans-34" d="M 2419 4116 
L 825 1625 
L 2419 1625 
L 2419 4116 
z
M 2253 4666 
L 3047 4666 
L 3047 1625 
L 3713 1625 
L 3713 1100 
L 3047 1100 
L 3047 0 
L 2419 0 
L 2419 1100 
L 313 1100 
L 313 1709 
L 2253 4666 
z
" transform="scale(0.015625)"/>
       </defs>
       <use xlink:href="#DejaVuSans-31"/>
       <use xlink:href="#DejaVuSans-34" x="63.623047"/>
       <use xlink:href="#DejaVuSans-30" x="127.246094"/>
      </g>
     </g>
    </g>
    <g id="xtick_4">
     <g id="line2d_4">
      <g>
       <use xlink:href="#m446fa82f8b" x="243.22076" y="273.312" style="stroke: #000000; stroke-width: 0.8"/>
      </g>
     </g>
     <g id="text_4">
      <!-- 160 -->
      <g transform="translate(233.67701 287.910437) scale(0.1 -0.1)">
       <defs>
        <path id="DejaVuSans-36" d="M 2113 2584 
Q 1688 2584 1439 2293 
Q 1191 2003 1191 1497 
Q 1191 994 1439 701 
Q 1688 409 2113 409 
Q 2538 409 2786 701 
Q 3034 994 3034 1497 
Q 3034 2003 2786 2293 
Q 2538 2584 2113 2584 
z
M 3366 4563 
L 3366 3988 
Q 3128 4100 2886 4159 
Q 2644 4219 2406 4219 
Q 1781 4219 1451 3797 
Q 1122 3375 1075 2522 
Q 1259 2794 1537 2939 
Q 1816 3084 2150 3084 
Q 2853 3084 3261 2657 
Q 3669 2231 3669 1497 
Q 3669 778 3244 343 
Q 2819 -91 2113 -91 
Q 1303 -91 875 529 
Q 447 1150 447 2328 
Q 447 3434 972 4092 
Q 1497 4750 2381 4750 
Q 2619 4750 2861 4703 
Q 3103 4656 3366 4563 
z
" transform="scale(0.015625)"/>
       </defs>
       <use xlink:href="#DejaVuSans-31"/>
       <use xlink:href="#DejaVuSans-36" x="63.623047"/>
       <use xlink:href="#DejaVuSans-30" x="127.246094"/>
      </g>
     </g>
    </g>
    <g id="xtick_5">
     <g id="line2d_5">
      <g>
       <use xlink:href="#m446fa82f8b" x="307.566706" y="273.312" style="stroke: #000000; stroke-width: 0.8"/>
      </g>
     </g>
     <g id="text_5">
      <!-- 180 -->
      <g transform="translate(298.022956 287.910437) scale(0.1 -0.1)">
       <defs>
        <path id="DejaVuSans-38" d="M 2034 2216 
Q 1584 2216 1326 1975 
Q 1069 1734 1069 1313 
Q 1069 891 1326 650 
Q 1584 409 2034 409 
Q 2484 409 2743 651 
Q 3003 894 3003 1313 
Q 3003 1734 2745 1975 
Q 2488 2216 2034 2216 
z
M 1403 2484 
Q 997 2584 770 2862 
Q 544 3141 544 3541 
Q 544 4100 942 4425 
Q 1341 4750 2034 4750 
Q 2731 4750 3128 4425 
Q 3525 4100 3525 3541 
Q 3525 3141 3298 2862 
Q 3072 2584 2669 2484 
Q 3125 2378 3379 2068 
Q 3634 1759 3634 1313 
Q 3634 634 3220 271 
Q 2806 -91 2034 -91 
Q 1263 -91 848 271 
Q 434 634 434 1313 
Q 434 1759 690 2068 
Q 947 2378 1403 2484 
z
M 1172 3481 
Q 1172 3119 1398 2916 
Q 1625 2713 2034 2713 
Q 2441 2713 2670 2916 
Q 2900 3119 2900 3481 
Q 2900 3844 2670 4047 
Q 2441 4250 2034 4250 
Q 1625 4250 1398 4047 
Q 1172 3844 1172 3481 
z
" transform="scale(0.015625)"/>
       </defs>
       <use xlink:href="#DejaVuSans-31"/>
       <use xlink:href="#DejaVuSans-38" x="63.623047"/>
       <use xlink:href="#DejaVuSans-30" x="127.246094"/>
      </g>
     </g>
    </g>
    <g id="xtick_6">
     <g id="line2d_6">
      <g>
       <use xlink:href="#m446fa82f8b" x="371.912652" y="273.312" style="stroke: #000000; stroke-width: 0.8"/>
      </g>
     </g>
     <g id="text_6">
      <!-- 200 -->
      <g transform="translate(362.368902 287.910437) scale(0.1 -0.1)">
       <use xlink:href="#DejaVuSans-32"/>
       <use xlink:href="#DejaVuSans-30" x="63.623047"/>
       <use xlink:href="#DejaVuSans-30" x="127.246094"/>
      </g>
     </g>
    </g>
    <g id="text_7">
     <!-- Strain(%) -->
     <g transform="translate(202.061563 301.588562) scale(0.1 -0.1)">
      <defs>
       <path id="DejaVuSans-53" d="M 3425 4513 
L 3425 3897 
Q 3066 4069 2747 4153 
Q 2428 4238 2131 4238 
Q 1616 4238 1336 4038 
Q 1056 3838 1056 3469 
Q 1056 3159 1242 3001 
Q 1428 2844 1947 2747 
L 2328 2669 
Q 3034 2534 3370 2195 
Q 3706 1856 3706 1288 
Q 3706 609 3251 259 
Q 2797 -91 1919 -91 
Q 1588 -91 1214 -16 
Q 841 59 441 206 
L 441 856 
Q 825 641 1194 531 
Q 1563 422 1919 422 
Q 2459 422 2753 634 
Q 3047 847 3047 1241 
Q 3047 1584 2836 1778 
Q 2625 1972 2144 2069 
L 1759 2144 
Q 1053 2284 737 2584 
Q 422 2884 422 3419 
Q 422 4038 858 4394 
Q 1294 4750 2059 4750 
Q 2388 4750 2728 4690 
Q 3069 4631 3425 4513 
z
" transform="scale(0.015625)"/>
       <path id="DejaVuSans-74" d="M 1172 4494 
L 1172 3500 
L 2356 3500 
L 2356 3053 
L 1172 3053 
L 1172 1153 
Q 1172 725 1289 603 
Q 1406 481 1766 481 
L 2356 481 
L 2356 0 
L 1766 0 
Q 1100 0 847 248 
Q 594 497 594 1153 
L 594 3053 
L 172 3053 
L 172 3500 
L 594 3500 
L 594 4494 
L 1172 4494 
z
" transform="scale(0.015625)"/>
       <path id="DejaVuSans-72" d="M 2631 2963 
Q 2534 3019 2420 3045 
Q 2306 3072 2169 3072 
Q 1681 3072 1420 2755 
Q 1159 2438 1159 1844 
L 1159 0 
L 581 0 
L 581 3500 
L 1159 3500 
L 1159 2956 
Q 1341 3275 1631 3429 
Q 1922 3584 2338 3584 
Q 2397 3584 2469 3576 
Q 2541 3569 2628 3553 
L 2631 2963 
z
" transform="scale(0.015625)"/>
       <path id="DejaVuSans-61" d="M 2194 1759 
Q 1497 1759 1228 1600 
Q 959 1441 959 1056 
Q 959 750 1161 570 
Q 1363 391 1709 391 
Q 2188 391 2477 730 
Q 2766 1069 2766 1631 
L 2766 1759 
L 2194 1759 
z
M 3341 1997 
L 3341 0 
L 2766 0 
L 2766 531 
Q 2569 213 2275 61 
Q 1981 -91 1556 -91 
Q 1019 -91 701 211 
Q 384 513 384 1019 
Q 384 1609 779 1909 
Q 1175 2209 1959 2209 
L 2766 2209 
L 2766 2266 
Q 2766 2663 2505 2880 
Q 2244 3097 1772 3097 
Q 1472 3097 1187 3025 
Q 903 2953 641 2809 
L 641 3341 
Q 956 3463 1253 3523 
Q 1550 3584 1831 3584 
Q 2591 3584 2966 3190 
Q 3341 2797 3341 1997 
z
" transform="scale(0.015625)"/>
       <path id="DejaVuSans-69" d="M 603 3500 
L 1178 3500 
L 1178 0 
L 603 0 
L 603 3500 
z
M 603 4863 
L 1178 4863 
L 1178 4134 
L 603 4134 
L 603 4863 
z
" transform="scale(0.015625)"/>
       <path id="DejaVuSans-6e" d="M 3513 2113 
L 3513 0 
L 2938 0 
L 2938 2094 
Q 2938 2591 2744 2837 
Q 2550 3084 2163 3084 
Q 1697 3084 1428 2787 
Q 1159 2491 1159 1978 
L 1159 0 
L 581 0 
L 581 3500 
L 1159 3500 
L 1159 2956 
Q 1366 3272 1645 3428 
Q 1925 3584 2291 3584 
Q 2894 3584 3203 3211 
Q 3513 2838 3513 2113 
z
" transform="scale(0.015625)"/>
       <path id="DejaVuSans-28" d="M 1984 4856 
Q 1566 4138 1362 3434 
Q 1159 2731 1159 2009 
Q 1159 1288 1364 580 
Q 1569 -128 1984 -844 
L 1484 -844 
Q 1016 -109 783 600 
Q 550 1309 550 2009 
Q 550 2706 781 3412 
Q 1013 4119 1484 4856 
L 1984 4856 
z
" transform="scale(0.015625)"/>
       <path id="DejaVuSans-25" d="M 4653 2053 
Q 4381 2053 4226 1822 
Q 4072 1591 4072 1178 
Q 4072 772 4226 539 
Q 4381 306 4653 306 
Q 4919 306 5073 539 
Q 5228 772 5228 1178 
Q 5228 1588 5073 1820 
Q 4919 2053 4653 2053 
z
M 4653 2450 
Q 5147 2450 5437 2106 
Q 5728 1763 5728 1178 
Q 5728 594 5436 251 
Q 5144 -91 4653 -91 
Q 4153 -91 3862 251 
Q 3572 594 3572 1178 
Q 3572 1766 3864 2108 
Q 4156 2450 4653 2450 
z
M 1428 4353 
Q 1159 4353 1004 4120 
Q 850 3888 850 3481 
Q 850 3069 1003 2837 
Q 1156 2606 1428 2606 
Q 1700 2606 1854 2837 
Q 2009 3069 2009 3481 
Q 2009 3884 1853 4118 
Q 1697 4353 1428 4353 
z
M 4250 4750 
L 4750 4750 
L 1831 -91 
L 1331 -91 
L 4250 4750 
z
M 1428 4750 
Q 1922 4750 2215 4408 
Q 2509 4066 2509 3481 
Q 2509 2891 2217 2550 
Q 1925 2209 1428 2209 
Q 931 2209 642 2551 
Q 353 2894 353 3481 
Q 353 4063 643 4406 
Q 934 4750 1428 4750 
z
" transform="scale(0.015625)"/>
       <path id="DejaVuSans-29" d="M 513 4856 
L 1013 4856 
Q 1481 4119 1714 3412 
Q 1947 2706 1947 2009 
Q 1947 1309 1714 600 
Q 1481 -109 1013 -844 
L 513 -844 
Q 928 -128 1133 580 
Q 1338 1288 1338 2009 
Q 1338 2731 1133 3434 
Q 928 4138 513 4856 
z
" transform="scale(0.015625)"/>
      </defs>
      <use xlink:href="#DejaVuSans-53"/>
      <use xlink:href="#DejaVuSans-74" x="63.476562"/>
      <use xlink:href="#DejaVuSans-72" x="102.685547"/>
      <use xlink:href="#DejaVuSans-61" x="143.798828"/>
      <use xlink:href="#DejaVuSans-69" x="205.078125"/>
      <use xlink:href="#DejaVuSans-6e" x="232.861328"/>
      <use xlink:href="#DejaVuSans-28" x="296.240234"/>
      <use xlink:href="#DejaVuSans-25" x="335.253906"/>
      <use xlink:href="#DejaVuSans-29" x="430.273438"/>
     </g>
    </g>
   </g>
   <g id="matplotlib.axis_2">
    <g id="ytick_1">
     <g id="line2d_7">
      <defs>
       <path id="m544623947f" d="M 0 0 
L -3.5 0 
" style="stroke: #000000; stroke-width: 0.8"/>
      </defs>
      <g>
       <use xlink:href="#m544623947f" x="46.965625" y="244.531862" style="stroke: #000000; stroke-width: 0.8"/>
      </g>
     </g>
     <g id="text_8">
      <!-- 80 -->
      <g transform="translate(27.240625 248.331081) scale(0.1 -0.1)">
       <use xlink:href="#DejaVuSans-38"/>
       <use xlink:href="#DejaVuSans-30" x="63.623047"/>
      </g>
     </g>
    </g>
    <g id="ytick_2">
     <g id="line2d_8">
      <g>
       <use xlink:href="#m544623947f" x="46.965625" y="202.821517" style="stroke: #000000; stroke-width: 0.8"/>
      </g>
     </g>
     <g id="text_9">
      <!-- 85 -->
      <g transform="translate(27.240625 206.620736) scale(0.1 -0.1)">
       <defs>
        <path id="DejaVuSans-35" d="M 691 4666 
L 3169 4666 
L 3169 4134 
L 1269 4134 
L 1269 2991 
Q 1406 3038 1543 3061 
Q 1681 3084 1819 3084 
Q 2600 3084 3056 2656 
Q 3513 2228 3513 1497 
Q 3513 744 3044 326 
Q 2575 -91 1722 -91 
Q 1428 -91 1123 -41 
Q 819 9 494 109 
L 494 744 
Q 775 591 1075 516 
Q 1375 441 1709 441 
Q 2250 441 2565 725 
Q 2881 1009 2881 1497 
Q 2881 1984 2565 2268 
Q 2250 2553 1709 2553 
Q 1456 2553 1204 2497 
Q 953 2441 691 2322 
L 691 4666 
z
" transform="scale(0.015625)"/>
       </defs>
       <use xlink:href="#DejaVuSans-38"/>
       <use xlink:href="#DejaVuSans-35" x="63.623047"/>
      </g>
     </g>
    </g>
    <g id="ytick_3">
     <g id="line2d_9">
      <g>
       <use xlink:href="#m544623947f" x="46.965625" y="161.111172" style="stroke: #000000; stroke-width: 0.8"/>
      </g>
     </g>
     <g id="text_10">
      <!-- 90 -->
      <g transform="translate(27.240625 164.910391) scale(0.1 -0.1)">
       <defs>
        <path id="DejaVuSans-39" d="M 703 97 
L 703 672 
Q 941 559 1184 500 
Q 1428 441 1663 441 
Q 2288 441 2617 861 
Q 2947 1281 2994 2138 
Q 2813 1869 2534 1725 
Q 2256 1581 1919 1581 
Q 1219 1581 811 2004 
Q 403 2428 403 3163 
Q 403 3881 828 4315 
Q 1253 4750 1959 4750 
Q 2769 4750 3195 4129 
Q 3622 3509 3622 2328 
Q 3622 1225 3098 567 
Q 2575 -91 1691 -91 
Q 1453 -91 1209 -44 
Q 966 3 703 97 
z
M 1959 2075 
Q 2384 2075 2632 2365 
Q 2881 2656 2881 3163 
Q 2881 3666 2632 3958 
Q 2384 4250 1959 4250 
Q 1534 4250 1286 3958 
Q 1038 3666 1038 3163 
Q 1038 2656 1286 2365 
Q 1534 2075 1959 2075 
z
" transform="scale(0.015625)"/>
       </defs>
       <use xlink:href="#DejaVuSans-39"/>
       <use xlink:href="#DejaVuSans-30" x="63.623047"/>
      </g>
     </g>
    </g>
    <g id="ytick_4">
     <g id="line2d_10">
      <g>
       <use xlink:href="#m544623947f" x="46.965625" y="119.400828" style="stroke: #000000; stroke-width: 0.8"/>
      </g>
     </g>
     <g id="text_11">
      <!-- 95 -->
      <g transform="translate(27.240625 123.200046) scale(0.1 -0.1)">
       <use xlink:href="#DejaVuSans-39"/>
       <use xlink:href="#DejaVuSans-35" x="63.623047"/>
      </g>
     </g>
    </g>
    <g id="ytick_5">
     <g id="line2d_11">
      <g>
       <use xlink:href="#m544623947f" x="46.965625" y="77.690483" style="stroke: #000000; stroke-width: 0.8"/>
      </g>
     </g>
     <g id="text_12">
      <!-- 100 -->
      <g transform="translate(20.878125 81.489702) scale(0.1 -0.1)">
       <use xlink:href="#DejaVuSans-31"/>
       <use xlink:href="#DejaVuSans-30" x="63.623047"/>
       <use xlink:href="#DejaVuSans-30" x="127.246094"/>
      </g>
     </g>
    </g>
    <g id="ytick_6">
     <g id="line2d_12">
      <g>
       <use xlink:href="#m544623947f" x="46.965625" y="35.980138" style="stroke: #000000; stroke-width: 0.8"/>
      </g>
     </g>
     <g id="text_13">
      <!-- 105 -->
      <g transform="translate(20.878125 39.779357) scale(0.1 -0.1)">
       <use xlink:href="#DejaVuSans-31"/>
       <use xlink:href="#DejaVuSans-30" x="63.623047"/>
       <use xlink:href="#DejaVuSans-35" x="127.246094"/>
      </g>
     </g>
    </g>
    <g id="text_14">
     <!-- Hydrogen Bonds -->
     <g transform="translate(14.798438 181.598187) rotate(-90) scale(0.1 -0.1)">
      <defs>
       <path id="DejaVuSans-48" d="M 628 4666 
L 1259 4666 
L 1259 2753 
L 3553 2753 
L 3553 4666 
L 4184 4666 
L 4184 0 
L 3553 0 
L 3553 2222 
L 1259 2222 
L 1259 0 
L 628 0 
L 628 4666 
z
" transform="scale(0.015625)"/>
       <path id="DejaVuSans-79" d="M 2059 -325 
Q 1816 -950 1584 -1140 
Q 1353 -1331 966 -1331 
L 506 -1331 
L 506 -850 
L 844 -850 
Q 1081 -850 1212 -737 
Q 1344 -625 1503 -206 
L 1606 56 
L 191 3500 
L 800 3500 
L 1894 763 
L 2988 3500 
L 3597 3500 
L 2059 -325 
z
" transform="scale(0.015625)"/>
       <path id="DejaVuSans-64" d="M 2906 2969 
L 2906 4863 
L 3481 4863 
L 3481 0 
L 2906 0 
L 2906 525 
Q 2725 213 2448 61 
Q 2172 -91 1784 -91 
Q 1150 -91 751 415 
Q 353 922 353 1747 
Q 353 2572 751 3078 
Q 1150 3584 1784 3584 
Q 2172 3584 2448 3432 
Q 2725 3281 2906 2969 
z
M 947 1747 
Q 947 1113 1208 752 
Q 1469 391 1925 391 
Q 2381 391 2643 752 
Q 2906 1113 2906 1747 
Q 2906 2381 2643 2742 
Q 2381 3103 1925 3103 
Q 1469 3103 1208 2742 
Q 947 2381 947 1747 
z
" transform="scale(0.015625)"/>
       <path id="DejaVuSans-6f" d="M 1959 3097 
Q 1497 3097 1228 2736 
Q 959 2375 959 1747 
Q 959 1119 1226 758 
Q 1494 397 1959 397 
Q 2419 397 2687 759 
Q 2956 1122 2956 1747 
Q 2956 2369 2687 2733 
Q 2419 3097 1959 3097 
z
M 1959 3584 
Q 2709 3584 3137 3096 
Q 3566 2609 3566 1747 
Q 3566 888 3137 398 
Q 2709 -91 1959 -91 
Q 1206 -91 779 398 
Q 353 888 353 1747 
Q 353 2609 779 3096 
Q 1206 3584 1959 3584 
z
" transform="scale(0.015625)"/>
       <path id="DejaVuSans-67" d="M 2906 1791 
Q 2906 2416 2648 2759 
Q 2391 3103 1925 3103 
Q 1463 3103 1205 2759 
Q 947 2416 947 1791 
Q 947 1169 1205 825 
Q 1463 481 1925 481 
Q 2391 481 2648 825 
Q 2906 1169 2906 1791 
z
M 3481 434 
Q 3481 -459 3084 -895 
Q 2688 -1331 1869 -1331 
Q 1566 -1331 1297 -1286 
Q 1028 -1241 775 -1147 
L 775 -588 
Q 1028 -725 1275 -790 
Q 1522 -856 1778 -856 
Q 2344 -856 2625 -561 
Q 2906 -266 2906 331 
L 2906 616 
Q 2728 306 2450 153 
Q 2172 0 1784 0 
Q 1141 0 747 490 
Q 353 981 353 1791 
Q 353 2603 747 3093 
Q 1141 3584 1784 3584 
Q 2172 3584 2450 3431 
Q 2728 3278 2906 2969 
L 2906 3500 
L 3481 3500 
L 3481 434 
z
" transform="scale(0.015625)"/>
       <path id="DejaVuSans-65" d="M 3597 1894 
L 3597 1613 
L 953 1613 
Q 991 1019 1311 708 
Q 1631 397 2203 397 
Q 2534 397 2845 478 
Q 3156 559 3463 722 
L 3463 178 
Q 3153 47 2828 -22 
Q 2503 -91 2169 -91 
Q 1331 -91 842 396 
Q 353 884 353 1716 
Q 353 2575 817 3079 
Q 1281 3584 2069 3584 
Q 2775 3584 3186 3129 
Q 3597 2675 3597 1894 
z
M 3022 2063 
Q 3016 2534 2758 2815 
Q 2500 3097 2075 3097 
Q 1594 3097 1305 2825 
Q 1016 2553 972 2059 
L 3022 2063 
z
" transform="scale(0.015625)"/>
       <path id="DejaVuSans-20" transform="scale(0.015625)"/>
       <path id="DejaVuSans-42" d="M 1259 2228 
L 1259 519 
L 2272 519 
Q 2781 519 3026 730 
Q 3272 941 3272 1375 
Q 3272 1813 3026 2020 
Q 2781 2228 2272 2228 
L 1259 2228 
z
M 1259 4147 
L 1259 2741 
L 2194 2741 
Q 2656 2741 2882 2914 
Q 3109 3088 3109 3444 
Q 3109 3797 2882 3972 
Q 2656 4147 2194 4147 
L 1259 4147 
z
M 628 4666 
L 2241 4666 
Q 2963 4666 3353 4366 
Q 3744 4066 3744 3513 
Q 3744 3084 3544 2831 
Q 3344 2578 2956 2516 
Q 3422 2416 3680 2098 
Q 3938 1781 3938 1306 
Q 3938 681 3513 340 
Q 3088 0 2303 0 
L 628 0 
L 628 4666 
z
" transform="scale(0.015625)"/>
       <path id="DejaVuSans-73" d="M 2834 3397 
L 2834 2853 
Q 2591 2978 2328 3040 
Q 2066 3103 1784 3103 
Q 1356 3103 1142 2972 
Q 928 2841 928 2578 
Q 928 2378 1081 2264 
Q 1234 2150 1697 2047 
L 1894 2003 
Q 2506 1872 2764 1633 
Q 3022 1394 3022 966 
Q 3022 478 2636 193 
Q 2250 -91 1575 -91 
Q 1294 -91 989 -36 
Q 684 19 347 128 
L 347 722 
Q 666 556 975 473 
Q 1284 391 1588 391 
Q 1994 391 2212 530 
Q 2431 669 2431 922 
Q 2431 1156 2273 1281 
Q 2116 1406 1581 1522 
L 1381 1569 
Q 847 1681 609 1914 
Q 372 2147 372 2553 
Q 372 3047 722 3315 
Q 1072 3584 1716 3584 
Q 2034 3584 2315 3537 
Q 2597 3491 2834 3397 
z
" transform="scale(0.015625)"/>
      </defs>
      <use xlink:href="#DejaVuSans-48"/>
      <use xlink:href="#DejaVuSans-79" x="75.195312"/>
      <use xlink:href="#DejaVuSans-64" x="134.375"/>
      <use xlink:href="#DejaVuSans-72" x="197.851562"/>
      <use xlink:href="#DejaVuSans-6f" x="236.714844"/>
      <use xlink:href="#DejaVuSans-67" x="297.896484"/>
      <use xlink:href="#DejaVuSans-65" x="361.373047"/>
      <use xlink:href="#DejaVuSans-6e" x="422.896484"/>
      <use xlink:href="#DejaVuSans-20" x="486.275391"/>
      <use xlink:href="#DejaVuSans-42" x="518.0625"/>
      <use xlink:href="#DejaVuSans-6f" x="586.666016"/>
      <use xlink:href="#DejaVuSans-6e" x="647.847656"/>
      <use xlink:href="#DejaVuSans-64" x="711.226562"/>
      <use xlink:href="#DejaVuSans-73" x="774.703125"/>
     </g>
    </g>
   </g>
   <g id="line2d_13">
    <path d="M 50.182922 136.084966 
L 51.949284 227.847724 
L 53.715646 194.479448 
L 55.482007 136.084966 
L 57.248369 102.71669 
L 59.014731 211.163586 
L 60.781093 69.348414 
L 62.547454 144.427034 
L 64.313816 127.742897 
L 66.080178 177.79531 
L 67.84654 177.79531 
L 69.612901 152.769103 
L 71.379263 161.111172 
L 73.145625 144.427034 
L 74.911987 69.348414 
L 76.678348 161.111172 
L 78.44471 69.348414 
L 80.211072 127.742897 
L 81.977433 111.058759 
L 83.743795 136.084966 
L 85.510157 127.742897 
L 87.276519 102.71669 
L 89.04288 152.769103 
L 92.575604 86.032552 
L 94.341966 69.348414 
L 96.108327 102.71669 
L 97.874689 102.71669 
L 99.641051 111.058759 
L 101.407412 94.374621 
L 103.173774 144.427034 
L 104.940136 94.374621 
L 106.706498 152.769103 
L 108.472859 186.137379 
L 110.239221 144.427034 
L 112.005583 144.427034 
L 113.771945 127.742897 
L 115.538306 86.032552 
L 119.07103 186.137379 
L 120.837391 136.084966 
L 122.603753 119.400828 
L 124.370115 127.742897 
L 126.136477 161.111172 
L 127.902838 177.79531 
L 129.6692 186.137379 
L 131.435562 144.427034 
L 133.201924 161.111172 
L 134.968285 169.453241 
L 136.734647 102.71669 
L 138.501009 169.453241 
L 142.033812 136.084966 
L 143.800173 144.427034 
L 145.566535 177.79531 
L 147.332897 144.427034 
L 149.099259 177.79531 
L 150.86562 177.79531 
L 152.631982 144.427034 
L 154.398344 219.505655 
L 156.164705 152.769103 
L 157.931067 111.058759 
L 159.697429 194.479448 
L 161.463791 127.742897 
L 163.230152 194.479448 
L 164.996514 152.769103 
L 166.762876 186.137379 
L 168.529238 152.769103 
L 170.295599 152.769103 
L 172.061961 202.821517 
L 173.828323 127.742897 
L 175.594685 127.742897 
L 177.361046 169.453241 
L 179.127408 219.505655 
L 180.89377 161.111172 
L 182.660131 186.137379 
L 186.192855 186.137379 
L 187.959217 177.79531 
L 189.725578 144.427034 
L 191.49194 202.821517 
L 193.258302 119.400828 
L 195.024664 127.742897 
L 196.791025 161.111172 
L 198.557387 161.111172 
L 200.323749 102.71669 
L 202.09011 136.084966 
L 203.856472 211.163586 
L 205.622834 186.137379 
L 207.389196 202.821517 
L 209.155557 194.479448 
L 210.921919 119.400828 
L 212.688281 169.453241 
L 214.454643 127.742897 
L 216.221004 94.374621 
L 217.987366 161.111172 
L 219.753728 102.71669 
L 221.520089 152.769103 
L 223.286451 77.690483 
L 225.052813 77.690483 
L 226.819175 194.479448 
L 228.585536 61.006345 
L 230.351898 94.374621 
L 232.11826 144.427034 
L 233.884622 111.058759 
L 235.650983 102.71669 
L 237.417345 102.71669 
L 239.183707 161.111172 
L 240.950069 161.111172 
L 242.71651 152.769103 
L 244.482871 102.71669 
L 246.249233 127.742897 
L 248.015595 111.058759 
L 249.781957 169.453241 
L 251.548318 152.769103 
L 253.31468 169.453241 
L 255.081042 136.084966 
L 256.847403 94.374621 
L 258.613765 61.006345 
L 260.380127 127.742897 
L 262.146489 127.742897 
L 263.91285 152.769103 
L 265.679212 52.664276 
L 267.445574 111.058759 
L 269.211936 52.664276 
L 270.978297 194.479448 
L 272.744659 202.821517 
L 274.511021 102.71669 
L 276.277383 127.742897 
L 278.043744 119.400828 
L 279.810106 152.769103 
L 281.576468 127.742897 
L 283.342829 144.427034 
L 285.109191 169.453241 
L 286.875553 169.453241 
L 288.641915 177.79531 
L 290.408276 127.742897 
L 292.174638 161.111172 
L 293.941 144.427034 
L 295.707362 194.479448 
L 297.473723 211.163586 
L 299.240085 202.821517 
L 301.006447 186.137379 
L 302.772808 194.479448 
L 304.53917 186.137379 
L 306.305532 202.821517 
L 308.071894 202.821517 
L 309.838255 102.71669 
L 313.370979 169.453241 
L 315.137341 152.769103 
L 316.903702 219.505655 
L 318.670064 111.058759 
L 320.436426 186.137379 
L 322.202787 111.058759 
L 323.969149 102.71669 
L 325.735511 44.322207 
L 327.501873 152.769103 
L 329.268234 69.348414 
L 331.034596 177.79531 
L 332.800958 144.427034 
L 334.56732 227.847724 
L 336.333681 136.084966 
L 338.100043 136.084966 
L 339.866405 119.400828 
L 341.632766 136.084966 
L 343.399208 102.71669 
L 345.165569 169.453241 
L 346.931931 194.479448 
L 348.698293 144.427034 
L 350.464655 136.084966 
L 352.231016 136.084966 
L 353.997378 152.769103 
L 355.76374 136.084966 
L 357.530101 169.453241 
L 359.296463 169.453241 
L 361.062825 111.058759 
L 362.829187 119.400828 
L 364.595548 102.71669 
L 366.36191 102.71669 
L 368.128272 61.006345 
L 369.894634 61.006345 
L 371.660995 52.664276 
L 373.427357 77.690483 
L 375.193719 152.769103 
L 376.960081 144.427034 
L 378.726442 177.79531 
L 380.492804 144.427034 
L 382.259166 86.032552 
L 384.025527 136.084966 
L 385.791889 227.847724 
L 387.558251 144.427034 
L 389.324613 136.084966 
L 391.090974 161.111172 
L 392.857336 144.427034 
L 394.623698 161.111172 
L 396.39006 111.058759 
L 398.156421 177.79531 
L 399.922783 177.79531 
L 401.689145 127.742897 
L 403.455506 94.374621 
L 403.455506 94.374621 
" clip-path="url(#p0499565add)" style="fill: none; stroke: #1f77b4; stroke-width: 1.5; stroke-linecap: square"/>
   </g>
   <g id="line2d_14">
    <path d="M 50.182922 136.084966 
L 51.871943 152.769103 
L 53.560963 136.084966 
L 55.249983 219.505655 
L 56.938926 111.058759 
L 58.627946 152.769103 
L 60.316966 152.769103 
L 62.005987 169.453241 
L 63.695007 136.084966 
L 65.384027 144.427034 
L 67.07297 136.084966 
L 68.76199 177.79531 
L 70.45101 119.400828 
L 72.140031 202.821517 
L 75.518071 35.980138 
L 77.207014 69.348414 
L 80.585054 86.032552 
L 82.274075 127.742897 
L 83.963095 127.742897 
L 85.652115 94.374621 
L 87.341058 86.032552 
L 89.030078 69.348414 
L 90.719098 94.374621 
L 92.408119 94.374621 
L 94.097139 161.111172 
L 95.786082 136.084966 
L 97.475102 52.664276 
L 99.164122 86.032552 
L 100.853142 86.032552 
L 102.542163 69.348414 
L 104.231183 61.006345 
L 105.920126 111.058759 
L 107.609146 86.032552 
L 109.298166 69.348414 
L 110.987186 69.348414 
L 112.676207 44.322207 
L 114.365227 102.71669 
L 116.05417 102.71669 
L 117.74319 136.084966 
L 119.43221 177.79531 
L 121.12123 52.664276 
L 122.810251 27.638069 
L 124.499271 69.348414 
L 126.188214 152.769103 
L 127.877234 86.032552 
L 129.566254 35.980138 
L 131.255274 152.769103 
L 132.944295 86.032552 
L 134.633315 152.769103 
L 138.011278 86.032552 
L 139.700298 144.427034 
L 141.389318 111.058759 
L 143.078339 52.664276 
L 144.767359 144.427034 
L 146.456302 127.742897 
L 148.145322 94.374621 
L 149.834342 177.79531 
L 151.523362 111.058759 
L 153.212383 136.084966 
L 154.901403 169.453241 
L 156.590346 194.479448 
L 158.279366 136.084966 
L 159.968386 94.374621 
L 161.657407 86.032552 
L 163.346427 152.769103 
L 165.035447 119.400828 
L 166.72439 119.400828 
L 168.41341 161.111172 
L 171.791451 77.690483 
L 173.480471 77.690483 
L 175.169413 144.427034 
L 176.858434 86.032552 
L 178.547454 94.374621 
L 180.236474 119.400828 
L 181.925495 94.374621 
L 183.614515 94.374621 
L 185.303457 194.479448 
L 186.992478 186.137379 
L 188.681498 119.400828 
L 190.370518 186.137379 
L 192.059539 169.453241 
L 193.748559 127.742897 
L 195.437502 102.71669 
L 197.126522 144.427034 
L 198.815542 94.374621 
L 200.504562 136.084966 
L 202.193583 161.111172 
L 208.949586 94.374621 
L 210.638606 94.374621 
L 212.327627 52.664276 
L 214.016647 102.71669 
L 215.70559 127.742897 
L 217.39461 111.058759 
L 219.08363 77.690483 
L 220.77265 119.400828 
L 222.461671 102.71669 
L 224.150691 52.664276 
L 225.839634 77.690483 
L 227.528654 52.664276 
L 229.217674 144.427034 
L 230.906694 52.664276 
L 232.595715 94.374621 
L 234.284735 35.980138 
L 235.973678 102.71669 
L 237.662698 52.664276 
L 239.351718 102.71669 
L 241.040738 94.374621 
L 242.729759 127.742897 
L 244.418779 169.453241 
L 246.107722 119.400828 
L 247.796742 94.374621 
L 249.485762 102.71669 
L 251.174782 61.006345 
L 252.863803 119.400828 
L 254.552823 102.71669 
L 256.241766 111.058759 
L 259.619806 111.058759 
L 261.308826 94.374621 
L 262.997847 161.111172 
L 264.686789 144.427034 
L 266.37581 161.111172 
L 268.06483 77.690483 
L 269.75385 102.71669 
L 271.44287 94.374621 
L 273.131891 35.980138 
L 274.820833 69.348414 
L 276.509854 161.111172 
L 278.198874 136.084966 
L 279.887894 86.032552 
L 281.576914 144.427034 
L 283.265935 136.084966 
L 284.954877 119.400828 
L 288.332918 152.769103 
L 290.021938 102.71669 
L 291.710958 169.453241 
L 293.399979 102.71669 
L 295.088921 152.769103 
L 296.777942 119.400828 
L 300.155982 186.137379 
L 301.845002 144.427034 
L 303.534023 169.453241 
L 305.222965 77.690483 
L 306.911986 194.479448 
L 308.601006 136.084966 
L 310.290026 194.479448 
L 311.979047 127.742897 
L 313.668067 177.79531 
L 315.357009 186.137379 
L 317.04603 169.453241 
L 318.73505 236.189793 
L 320.42407 169.453241 
L 322.113091 152.769103 
L 323.802111 144.427034 
L 325.491053 202.821517 
L 327.180074 136.084966 
L 328.869094 152.769103 
L 330.558114 194.479448 
L 332.247135 169.453241 
L 333.936155 211.163586 
L 337.314118 194.479448 
L 339.003138 219.505655 
L 340.692158 186.137379 
L 342.381179 177.79531 
L 344.070199 186.137379 
L 345.759142 152.769103 
L 347.448162 144.427034 
L 349.137182 102.71669 
L 350.826202 161.111172 
L 352.515223 202.821517 
L 354.204165 202.821517 
L 355.893186 211.163586 
L 357.582206 136.084966 
L 359.271226 194.479448 
L 360.960246 227.847724 
L 362.649267 144.427034 
L 364.338209 219.505655 
L 366.02723 202.821517 
L 367.71625 236.189793 
L 369.40527 211.163586 
L 371.09429 211.163586 
L 372.783311 261.216 
L 374.472253 194.479448 
L 376.161274 161.111172 
L 377.850294 161.111172 
L 379.539314 202.821517 
L 381.228334 227.847724 
L 382.917355 161.111172 
L 384.606297 244.531862 
L 386.295318 252.873931 
L 387.984338 177.79531 
L 387.984338 177.79531 
" clip-path="url(#p0499565add)" style="fill: none; stroke: #ff7f0e; stroke-width: 1.5; stroke-linecap: square"/>
   </g>
   <g id="line2d_15">
    <path d="M 50.182922 136.084966 
L 51.887172 169.453241 
L 53.591499 144.427034 
L 55.295748 152.769103 
L 57.000075 152.769103 
L 58.704325 127.742897 
L 60.408574 136.084966 
L 62.112901 202.821517 
L 63.81715 136.084966 
L 65.521478 102.71669 
L 67.225727 136.084966 
L 68.930054 102.71669 
L 70.634304 102.71669 
L 72.338553 127.742897 
L 74.04288 102.71669 
L 75.747129 169.453241 
L 77.451457 136.084966 
L 79.155706 136.084966 
L 80.859955 111.058759 
L 82.564282 119.400828 
L 84.268532 152.769103 
L 85.972859 86.032552 
L 87.677108 61.006345 
L 89.381436 144.427034 
L 91.085685 169.453241 
L 92.789934 152.769103 
L 94.494261 177.79531 
L 96.198511 111.058759 
L 97.902838 186.137379 
L 99.607087 61.006345 
L 101.311414 144.427034 
L 103.015664 111.058759 
L 104.719913 86.032552 
L 106.42424 69.348414 
L 108.12849 77.690483 
L 109.832817 77.690483 
L 111.537066 119.400828 
L 113.241315 127.742897 
L 114.945643 52.664276 
L 116.649892 136.084966 
L 120.058469 119.400828 
L 121.762796 169.453241 
L 123.467045 136.084966 
L 125.171294 111.058759 
L 126.875622 169.453241 
L 128.579871 136.084966 
L 130.284198 161.111172 
L 131.988447 127.742897 
L 133.692775 127.742897 
L 135.397024 161.111172 
L 137.101273 161.111172 
L 138.8056 236.189793 
L 140.50985 194.479448 
L 142.214177 202.821517 
L 145.622676 186.137379 
L 147.327003 169.453241 
L 149.031252 169.453241 
L 150.735579 211.163586 
L 152.439829 219.505655 
L 154.144156 236.189793 
L 155.848405 177.79531 
L 157.552655 144.427034 
L 159.256982 194.479448 
L 160.961231 152.769103 
L 162.665558 127.742897 
L 164.369808 211.163586 
L 166.074135 219.505655 
L 167.778384 136.084966 
L 169.482633 136.084966 
L 171.186961 152.769103 
L 172.89121 194.479448 
L 174.595537 211.163586 
L 176.299787 202.821517 
L 178.004036 252.873931 
L 179.708363 119.400828 
L 181.412612 219.505655 
L 183.11694 144.427034 
L 184.821189 144.427034 
L 186.525516 177.79531 
L 188.229765 219.505655 
L 189.934015 169.453241 
L 191.638342 111.058759 
L 195.046918 227.847724 
L 196.751168 169.453241 
L 200.159744 119.400828 
L 201.863994 136.084966 
L 205.27257 136.084966 
L 206.976897 169.453241 
L 208.681147 186.137379 
L 210.385396 219.505655 
L 212.089723 194.479448 
L 213.793973 211.163586 
L 215.4983 261.216 
L 217.202549 186.137379 
L 218.906876 186.137379 
L 220.611126 252.873931 
L 222.315375 169.453241 
L 224.019702 236.189793 
L 225.723951 169.453241 
L 227.428279 186.137379 
L 229.132528 177.79531 
L 230.836855 211.163586 
L 232.541105 111.058759 
L 234.245354 186.137379 
L 235.949681 102.71669 
L 237.65393 186.137379 
L 239.358258 219.505655 
L 241.062507 202.821517 
L 242.766756 244.531862 
L 244.471083 169.453241 
L 246.175333 202.821517 
L 247.87966 152.769103 
L 249.583909 186.137379 
L 251.288236 211.163586 
L 252.992486 186.137379 
L 254.696735 177.79531 
L 256.401062 211.163586 
L 258.105312 202.821517 
L 259.809639 211.163586 
L 261.513888 211.163586 
L 263.218215 144.427034 
L 264.922465 186.137379 
L 266.626714 152.769103 
L 268.331041 152.769103 
L 270.035291 202.821517 
L 271.739618 186.137379 
L 273.443867 211.163586 
L 275.148116 144.427034 
L 276.852444 202.821517 
L 278.556693 169.453241 
L 280.26102 144.427034 
L 281.965269 161.111172 
L 283.669597 169.453241 
L 285.373846 136.084966 
L 287.078095 177.79531 
L 288.782423 144.427034 
L 290.486672 152.769103 
L 292.190999 136.084966 
L 293.895248 194.479448 
L 295.599576 152.769103 
L 297.303825 136.084966 
L 299.008074 102.71669 
L 300.712401 119.400828 
L 302.416651 111.058759 
L 304.120978 136.084966 
L 305.825227 136.084966 
L 307.529477 194.479448 
L 309.233804 119.400828 
L 310.938053 186.137379 
L 312.64238 244.531862 
L 314.34663 77.690483 
L 316.050957 152.769103 
L 317.755206 219.505655 
L 319.459455 144.427034 
L 321.163783 177.79531 
L 322.868032 136.084966 
L 324.572359 152.769103 
L 326.276609 102.71669 
L 327.980936 144.427034 
L 329.685185 127.742897 
L 331.389434 202.821517 
L 333.093762 136.084966 
L 334.798011 119.400828 
L 336.502338 227.847724 
L 338.206587 136.084966 
L 339.910837 111.058759 
L 341.615164 127.742897 
L 343.319413 86.032552 
L 345.023741 86.032552 
L 346.72799 136.084966 
L 348.432317 111.058759 
L 350.136566 94.374621 
L 351.840816 111.058759 
L 353.545143 19.296 
L 355.249392 119.400828 
L 356.953719 127.742897 
L 358.657969 94.374621 
L 360.362296 136.084966 
L 362.066545 119.400828 
L 363.770795 111.058759 
L 365.475122 152.769103 
L 367.179371 202.821517 
L 368.883698 169.453241 
L 370.587948 102.71669 
L 372.292197 111.058759 
L 373.996524 94.374621 
L 375.700773 94.374621 
L 377.405101 177.79531 
L 379.10935 177.79531 
L 380.813677 111.058759 
L 382.517927 144.427034 
L 384.222176 94.374621 
L 387.630752 177.79531 
L 389.33508 177.79531 
L 391.039329 127.742897 
L 391.039329 127.742897 
" clip-path="url(#p0499565add)" style="fill: none; stroke: #2ca02c; stroke-width: 1.5; stroke-linecap: square"/>
   </g>
   <g id="patch_3">
    <path d="M 46.965625 273.312 
L 46.965625 7.2 
" style="fill: none; stroke: #000000; stroke-width: 0.8; stroke-linejoin: miter; stroke-linecap: square"/>
   </g>
   <g id="patch_4">
    <path d="M 404.085625 273.312 
L 404.085625 7.2 
" style="fill: none; stroke: #000000; stroke-width: 0.8; stroke-linejoin: miter; stroke-linecap: square"/>
   </g>
   <g id="patch_5">
    <path d="M 46.965625 273.312 
L 404.085625 273.312 
" style="fill: none; stroke: #000000; stroke-width: 0.8; stroke-linejoin: miter; stroke-linecap: square"/>
   </g>
   <g id="patch_6">
    <path d="M 46.965625 7.2 
L 404.085625 7.2 
" style="fill: none; stroke: #000000; stroke-width: 0.8; stroke-linejoin: miter; stroke-linecap: square"/>
   </g>
   <g id="legend_1">
    <g id="patch_7">
     <path d="M 53.965625 268.312 
L 130.742188 268.312 
Q 132.742188 268.312 132.742188 266.312 
L 132.742188 223.277625 
Q 132.742188 221.277625 130.742188 221.277625 
L 53.965625 221.277625 
Q 51.965625 221.277625 51.965625 223.277625 
L 51.965625 266.312 
Q 51.965625 268.312 53.965625 268.312 
z
" style="fill: #ffffff; opacity: 0.8; stroke: #cccccc; stroke-linejoin: miter"/>
    </g>
    <g id="line2d_16">
     <path d="M 55.965625 229.376062 
L 65.965625 229.376062 
L 75.965625 229.376062 
" style="fill: none; stroke: #1f77b4; stroke-width: 1.5; stroke-linecap: square"/>
    </g>
    <g id="text_15">
     <!-- X-Length -->
     <g transform="translate(83.965625 232.876062) scale(0.1 -0.1)">
      <defs>
       <path id="DejaVuSans-58" d="M 403 4666 
L 1081 4666 
L 2241 2931 
L 3406 4666 
L 4084 4666 
L 2584 2425 
L 4184 0 
L 3506 0 
L 2194 1984 
L 872 0 
L 191 0 
L 1856 2491 
L 403 4666 
z
" transform="scale(0.015625)"/>
       <path id="DejaVuSans-2d" d="M 313 2009 
L 1997 2009 
L 1997 1497 
L 313 1497 
L 313 2009 
z
" transform="scale(0.015625)"/>
       <path id="DejaVuSans-4c" d="M 628 4666 
L 1259 4666 
L 1259 531 
L 3531 531 
L 3531 0 
L 628 0 
L 628 4666 
z
" transform="scale(0.015625)"/>
       <path id="DejaVuSans-68" d="M 3513 2113 
L 3513 0 
L 2938 0 
L 2938 2094 
Q 2938 2591 2744 2837 
Q 2550 3084 2163 3084 
Q 1697 3084 1428 2787 
Q 1159 2491 1159 1978 
L 1159 0 
L 581 0 
L 581 4863 
L 1159 4863 
L 1159 2956 
Q 1366 3272 1645 3428 
Q 1925 3584 2291 3584 
Q 2894 3584 3203 3211 
Q 3513 2838 3513 2113 
z
" transform="scale(0.015625)"/>
      </defs>
      <use xlink:href="#DejaVuSans-58"/>
      <use xlink:href="#DejaVuSans-2d" x="63.505859"/>
      <use xlink:href="#DejaVuSans-4c" x="99.589844"/>
      <use xlink:href="#DejaVuSans-65" x="153.552734"/>
      <use xlink:href="#DejaVuSans-6e" x="215.076172"/>
      <use xlink:href="#DejaVuSans-67" x="278.455078"/>
      <use xlink:href="#DejaVuSans-74" x="341.931641"/>
      <use xlink:href="#DejaVuSans-68" x="381.140625"/>
     </g>
    </g>
    <g id="line2d_17">
     <path d="M 55.965625 244.054187 
L 65.965625 244.054187 
L 75.965625 244.054187 
" style="fill: none; stroke: #ff7f0e; stroke-width: 1.5; stroke-linecap: square"/>
    </g>
    <g id="text_16">
     <!-- Y-Length -->
     <g transform="translate(83.965625 247.554187) scale(0.1 -0.1)">
      <defs>
       <path id="DejaVuSans-59" d="M -13 4666 
L 666 4666 
L 1959 2747 
L 3244 4666 
L 3922 4666 
L 2272 2222 
L 2272 0 
L 1638 0 
L 1638 2222 
L -13 4666 
z
" transform="scale(0.015625)"/>
      </defs>
      <use xlink:href="#DejaVuSans-59"/>
      <use xlink:href="#DejaVuSans-2d" x="49.208984"/>
      <use xlink:href="#DejaVuSans-4c" x="85.292969"/>
      <use xlink:href="#DejaVuSans-65" x="139.255859"/>
      <use xlink:href="#DejaVuSans-6e" x="200.779297"/>
      <use xlink:href="#DejaVuSans-67" x="264.158203"/>
      <use xlink:href="#DejaVuSans-74" x="327.634766"/>
      <use xlink:href="#DejaVuSans-68" x="366.84375"/>
     </g>
    </g>
    <g id="line2d_18">
     <path d="M 55.965625 258.732312 
L 65.965625 258.732312 
L 75.965625 258.732312 
" style="fill: none; stroke: #2ca02c; stroke-width: 1.5; stroke-linecap: square"/>
    </g>
    <g id="text_17">
     <!-- Z-Length -->
     <g transform="translate(83.965625 262.232312) scale(0.1 -0.1)">
      <defs>
       <path id="DejaVuSans-5a" d="M 359 4666 
L 4025 4666 
L 4025 4184 
L 1075 531 
L 4097 531 
L 4097 0 
L 288 0 
L 288 481 
L 3238 4134 
L 359 4134 
L 359 4666 
z
" transform="scale(0.015625)"/>
      </defs>
      <use xlink:href="#DejaVuSans-5a"/>
      <use xlink:href="#DejaVuSans-2d" x="66.755859"/>
      <use xlink:href="#DejaVuSans-4c" x="102.839844"/>
      <use xlink:href="#DejaVuSans-65" x="156.802734"/>
      <use xlink:href="#DejaVuSans-6e" x="218.326172"/>
      <use xlink:href="#DejaVuSans-67" x="281.705078"/>
      <use xlink:href="#DejaVuSans-74" x="345.181641"/>
      <use xlink:href="#DejaVuSans-68" x="384.390625"/>
     </g>
    </g>
   </g>
  </g>
 </g>
 <defs>
  <clipPath id="p0499565add">
   <rect x="46.965625" y="7.2" width="357.12" height="266.112"/>
  </clipPath>
 </defs>
</svg>
