<?xml version="1.0" encoding="utf-8" standalone="no"?>
<!DOCTYPE svg PUBLIC "-//W3C//DTD SVG 1.1//EN"
  "http://www.w3.org/Graphics/SVG/1.1/DTD/svg11.dtd">
<svg xmlns:xlink="http://www.w3.org/1999/xlink" width="411.285625pt" height="325.986375pt" viewBox="0 0 411.285625 325.986375" xmlns="http://www.w3.org/2000/svg" version="1.1">
 <metadata>
  <rdf:RDF xmlns:dc="http://purl.org/dc/elements/1.1/" xmlns:cc="http://creativecommons.org/ns#" xmlns:rdf="http://www.w3.org/1999/02/22-rdf-syntax-ns#">
   <cc:Work>
    <dc:type rdf:resource="http://purl.org/dc/dcmitype/StillImage"/>
    <dc:date>2025-01-20T16:48:45.352045</dc:date>
    <dc:format>image/svg+xml</dc:format>
    <dc:creator>
     <cc:Agent>
      <dc:title>Matplotlib v3.9.0, https://matplotlib.org/</dc:title>
     </cc:Agent>
    </dc:creator>
   </cc:Work>
  </rdf:RDF>
 </metadata>
 <defs>
  <style type="text/css">*{stroke-linejoin: round; stroke-linecap: butt}</style>
 </defs>
 <g id="figure_1">
  <g id="patch_1">
   <path d="M 0 325.986375 
L 411.285625 325.986375 
L 411.285625 0 
L 0 0 
z
" style="fill: #ffffff"/>
  </g>
  <g id="axes_1">
   <g id="patch_2">
    <path d="M 46.965625 288.430125 
L 404.085625 288.430125 
L 404.085625 22.318125 
L 46.965625 22.318125 
z
" style="fill: #ffffff"/>
   </g>
   <g id="matplotlib.axis_1">
    <g id="xtick_1">
     <g id="line2d_1">
      <defs>
       <path id="m92ecdf5dd8" d="M 0 0 
L 0 3.5 
" style="stroke: #000000; stroke-width: 0.8"/>
      </defs>
      <g>
       <use xlink:href="#m92ecdf5dd8" x="50.182922" y="288.430125" style="stroke: #000000; stroke-width: 0.8"/>
      </g>
     </g>
     <g id="text_1">
      <!-- 100 -->
      <g transform="translate(40.639172 303.028562) scale(0.1 -0.1)">
       <defs>
        <path id="DejaVuSans-31" d="M 794 531 
L 1825 531 
L 1825 4091 
L 703 3866 
L 703 4441 
L 1819 4666 
L 2450 4666 
L 2450 531 
L 3481 531 
L 3481 0 
L 794 0 
L 794 531 
z
" transform="scale(0.015625)"/>
        <path id="DejaVuSans-30" d="M 2034 4250 
Q 1547 4250 1301 3770 
Q 1056 3291 1056 2328 
Q 1056 1369 1301 889 
Q 1547 409 2034 409 
Q 2525 409 2770 889 
Q 3016 1369 3016 2328 
Q 3016 3291 2770 3770 
Q 2525 4250 2034 4250 
z
M 2034 4750 
Q 2819 4750 3233 4129 
Q 3647 3509 3647 2328 
Q 3647 1150 3233 529 
Q 2819 -91 2034 -91 
Q 1250 -91 836 529 
Q 422 1150 422 2328 
Q 422 3509 836 4129 
Q 1250 4750 2034 4750 
z
" transform="scale(0.015625)"/>
       </defs>
       <use xlink:href="#DejaVuSans-31"/>
       <use xlink:href="#DejaVuSans-30" x="63.623047"/>
       <use xlink:href="#DejaVuSans-30" x="127.246094"/>
      </g>
     </g>
    </g>
    <g id="xtick_2">
     <g id="line2d_2">
      <g>
       <use xlink:href="#m92ecdf5dd8" x="114.528868" y="288.430125" style="stroke: #000000; stroke-width: 0.8"/>
      </g>
     </g>
     <g id="text_2">
      <!-- 120 -->
      <g transform="translate(104.985118 303.028562) scale(0.1 -0.1)">
       <defs>
        <path id="DejaVuSans-32" d="M 1228 531 
L 3431 531 
L 3431 0 
L 469 0 
L 469 531 
Q 828 903 1448 1529 
Q 2069 2156 2228 2338 
Q 2531 2678 2651 2914 
Q 2772 3150 2772 3378 
Q 2772 3750 2511 3984 
Q 2250 4219 1831 4219 
Q 1534 4219 1204 4116 
Q 875 4013 500 3803 
L 500 4441 
Q 881 4594 1212 4672 
Q 1544 4750 1819 4750 
Q 2544 4750 2975 4387 
Q 3406 4025 3406 3419 
Q 3406 3131 3298 2873 
Q 3191 2616 2906 2266 
Q 2828 2175 2409 1742 
Q 1991 1309 1228 531 
z
" transform="scale(0.015625)"/>
       </defs>
       <use xlink:href="#DejaVuSans-31"/>
       <use xlink:href="#DejaVuSans-32" x="63.623047"/>
       <use xlink:href="#DejaVuSans-30" x="127.246094"/>
      </g>
     </g>
    </g>
    <g id="xtick_3">
     <g id="line2d_3">
      <g>
       <use xlink:href="#m92ecdf5dd8" x="178.874814" y="288.430125" style="stroke: #000000; stroke-width: 0.8"/>
      </g>
     </g>
     <g id="text_3">
      <!-- 140 -->
      <g transform="translate(169.331064 303.028562) scale(0.1 -0.1)">
       <defs>
        <path id="DejaVuSans-34" d="M 2419 4116 
L 825 1625 
L 2419 1625 
L 2419 4116 
z
M 2253 4666 
L 3047 4666 
L 3047 1625 
L 3713 1625 
L 3713 1100 
L 3047 1100 
L 3047 0 
L 2419 0 
L 2419 1100 
L 313 1100 
L 313 1709 
L 2253 4666 
z
" transform="scale(0.015625)"/>
       </defs>
       <use xlink:href="#DejaVuSans-31"/>
       <use xlink:href="#DejaVuSans-34" x="63.623047"/>
       <use xlink:href="#DejaVuSans-30" x="127.246094"/>
      </g>
     </g>
    </g>
    <g id="xtick_4">
     <g id="line2d_4">
      <g>
       <use xlink:href="#m92ecdf5dd8" x="243.22076" y="288.430125" style="stroke: #000000; stroke-width: 0.8"/>
      </g>
     </g>
     <g id="text_4">
      <!-- 160 -->
      <g transform="translate(233.67701 303.028562) scale(0.1 -0.1)">
       <defs>
        <path id="DejaVuSans-36" d="M 2113 2584 
Q 1688 2584 1439 2293 
Q 1191 2003 1191 1497 
Q 1191 994 1439 701 
Q 1688 409 2113 409 
Q 2538 409 2786 701 
Q 3034 994 3034 1497 
Q 3034 2003 2786 2293 
Q 2538 2584 2113 2584 
z
M 3366 4563 
L 3366 3988 
Q 3128 4100 2886 4159 
Q 2644 4219 2406 4219 
Q 1781 4219 1451 3797 
Q 1122 3375 1075 2522 
Q 1259 2794 1537 2939 
Q 1816 3084 2150 3084 
Q 2853 3084 3261 2657 
Q 3669 2231 3669 1497 
Q 3669 778 3244 343 
Q 2819 -91 2113 -91 
Q 1303 -91 875 529 
Q 447 1150 447 2328 
Q 447 3434 972 4092 
Q 1497 4750 2381 4750 
Q 2619 4750 2861 4703 
Q 3103 4656 3366 4563 
z
" transform="scale(0.015625)"/>
       </defs>
       <use xlink:href="#DejaVuSans-31"/>
       <use xlink:href="#DejaVuSans-36" x="63.623047"/>
       <use xlink:href="#DejaVuSans-30" x="127.246094"/>
      </g>
     </g>
    </g>
    <g id="xtick_5">
     <g id="line2d_5">
      <g>
       <use xlink:href="#m92ecdf5dd8" x="307.566706" y="288.430125" style="stroke: #000000; stroke-width: 0.8"/>
      </g>
     </g>
     <g id="text_5">
      <!-- 180 -->
      <g transform="translate(298.022956 303.028562) scale(0.1 -0.1)">
       <defs>
        <path id="DejaVuSans-38" d="M 2034 2216 
Q 1584 2216 1326 1975 
Q 1069 1734 1069 1313 
Q 1069 891 1326 650 
Q 1584 409 2034 409 
Q 2484 409 2743 651 
Q 3003 894 3003 1313 
Q 3003 1734 2745 1975 
Q 2488 2216 2034 2216 
z
M 1403 2484 
Q 997 2584 770 2862 
Q 544 3141 544 3541 
Q 544 4100 942 4425 
Q 1341 4750 2034 4750 
Q 2731 4750 3128 4425 
Q 3525 4100 3525 3541 
Q 3525 3141 3298 2862 
Q 3072 2584 2669 2484 
Q 3125 2378 3379 2068 
Q 3634 1759 3634 1313 
Q 3634 634 3220 271 
Q 2806 -91 2034 -91 
Q 1263 -91 848 271 
Q 434 634 434 1313 
Q 434 1759 690 2068 
Q 947 2378 1403 2484 
z
M 1172 3481 
Q 1172 3119 1398 2916 
Q 1625 2713 2034 2713 
Q 2441 2713 2670 2916 
Q 2900 3119 2900 3481 
Q 2900 3844 2670 4047 
Q 2441 4250 2034 4250 
Q 1625 4250 1398 4047 
Q 1172 3844 1172 3481 
z
" transform="scale(0.015625)"/>
       </defs>
       <use xlink:href="#DejaVuSans-31"/>
       <use xlink:href="#DejaVuSans-38" x="63.623047"/>
       <use xlink:href="#DejaVuSans-30" x="127.246094"/>
      </g>
     </g>
    </g>
    <g id="xtick_6">
     <g id="line2d_6">
      <g>
       <use xlink:href="#m92ecdf5dd8" x="371.912652" y="288.430125" style="stroke: #000000; stroke-width: 0.8"/>
      </g>
     </g>
     <g id="text_6">
      <!-- 200 -->
      <g transform="translate(362.368902 303.028562) scale(0.1 -0.1)">
       <use xlink:href="#DejaVuSans-32"/>
       <use xlink:href="#DejaVuSans-30" x="63.623047"/>
       <use xlink:href="#DejaVuSans-30" x="127.246094"/>
      </g>
     </g>
    </g>
    <g id="text_7">
     <!-- Strain(%) -->
     <g transform="translate(202.061563 316.706687) scale(0.1 -0.1)">
      <defs>
       <path id="DejaVuSans-53" d="M 3425 4513 
L 3425 3897 
Q 3066 4069 2747 4153 
Q 2428 4238 2131 4238 
Q 1616 4238 1336 4038 
Q 1056 3838 1056 3469 
Q 1056 3159 1242 3001 
Q 1428 2844 1947 2747 
L 2328 2669 
Q 3034 2534 3370 2195 
Q 3706 1856 3706 1288 
Q 3706 609 3251 259 
Q 2797 -91 1919 -91 
Q 1588 -91 1214 -16 
Q 841 59 441 206 
L 441 856 
Q 825 641 1194 531 
Q 1563 422 1919 422 
Q 2459 422 2753 634 
Q 3047 847 3047 1241 
Q 3047 1584 2836 1778 
Q 2625 1972 2144 2069 
L 1759 2144 
Q 1053 2284 737 2584 
Q 422 2884 422 3419 
Q 422 4038 858 4394 
Q 1294 4750 2059 4750 
Q 2388 4750 2728 4690 
Q 3069 4631 3425 4513 
z
" transform="scale(0.015625)"/>
       <path id="DejaVuSans-74" d="M 1172 4494 
L 1172 3500 
L 2356 3500 
L 2356 3053 
L 1172 3053 
L 1172 1153 
Q 1172 725 1289 603 
Q 1406 481 1766 481 
L 2356 481 
L 2356 0 
L 1766 0 
Q 1100 0 847 248 
Q 594 497 594 1153 
L 594 3053 
L 172 3053 
L 172 3500 
L 594 3500 
L 594 4494 
L 1172 4494 
z
" transform="scale(0.015625)"/>
       <path id="DejaVuSans-72" d="M 2631 2963 
Q 2534 3019 2420 3045 
Q 2306 3072 2169 3072 
Q 1681 3072 1420 2755 
Q 1159 2438 1159 1844 
L 1159 0 
L 581 0 
L 581 3500 
L 1159 3500 
L 1159 2956 
Q 1341 3275 1631 3429 
Q 1922 3584 2338 3584 
Q 2397 3584 2469 3576 
Q 2541 3569 2628 3553 
L 2631 2963 
z
" transform="scale(0.015625)"/>
       <path id="DejaVuSans-61" d="M 2194 1759 
Q 1497 1759 1228 1600 
Q 959 1441 959 1056 
Q 959 750 1161 570 
Q 1363 391 1709 391 
Q 2188 391 2477 730 
Q 2766 1069 2766 1631 
L 2766 1759 
L 2194 1759 
z
M 3341 1997 
L 3341 0 
L 2766 0 
L 2766 531 
Q 2569 213 2275 61 
Q 1981 -91 1556 -91 
Q 1019 -91 701 211 
Q 384 513 384 1019 
Q 384 1609 779 1909 
Q 1175 2209 1959 2209 
L 2766 2209 
L 2766 2266 
Q 2766 2663 2505 2880 
Q 2244 3097 1772 3097 
Q 1472 3097 1187 3025 
Q 903 2953 641 2809 
L 641 3341 
Q 956 3463 1253 3523 
Q 1550 3584 1831 3584 
Q 2591 3584 2966 3190 
Q 3341 2797 3341 1997 
z
" transform="scale(0.015625)"/>
       <path id="DejaVuSans-69" d="M 603 3500 
L 1178 3500 
L 1178 0 
L 603 0 
L 603 3500 
z
M 603 4863 
L 1178 4863 
L 1178 4134 
L 603 4134 
L 603 4863 
z
" transform="scale(0.015625)"/>
       <path id="DejaVuSans-6e" d="M 3513 2113 
L 3513 0 
L 2938 0 
L 2938 2094 
Q 2938 2591 2744 2837 
Q 2550 3084 2163 3084 
Q 1697 3084 1428 2787 
Q 1159 2491 1159 1978 
L 1159 0 
L 581 0 
L 581 3500 
L 1159 3500 
L 1159 2956 
Q 1366 3272 1645 3428 
Q 1925 3584 2291 3584 
Q 2894 3584 3203 3211 
Q 3513 2838 3513 2113 
z
" transform="scale(0.015625)"/>
       <path id="DejaVuSans-28" d="M 1984 4856 
Q 1566 4138 1362 3434 
Q 1159 2731 1159 2009 
Q 1159 1288 1364 580 
Q 1569 -128 1984 -844 
L 1484 -844 
Q 1016 -109 783 600 
Q 550 1309 550 2009 
Q 550 2706 781 3412 
Q 1013 4119 1484 4856 
L 1984 4856 
z
" transform="scale(0.015625)"/>
       <path id="DejaVuSans-25" d="M 4653 2053 
Q 4381 2053 4226 1822 
Q 4072 1591 4072 1178 
Q 4072 772 4226 539 
Q 4381 306 4653 306 
Q 4919 306 5073 539 
Q 5228 772 5228 1178 
Q 5228 1588 5073 1820 
Q 4919 2053 4653 2053 
z
M 4653 2450 
Q 5147 2450 5437 2106 
Q 5728 1763 5728 1178 
Q 5728 594 5436 251 
Q 5144 -91 4653 -91 
Q 4153 -91 3862 251 
Q 3572 594 3572 1178 
Q 3572 1766 3864 2108 
Q 4156 2450 4653 2450 
z
M 1428 4353 
Q 1159 4353 1004 4120 
Q 850 3888 850 3481 
Q 850 3069 1003 2837 
Q 1156 2606 1428 2606 
Q 1700 2606 1854 2837 
Q 2009 3069 2009 3481 
Q 2009 3884 1853 4118 
Q 1697 4353 1428 4353 
z
M 4250 4750 
L 4750 4750 
L 1831 -91 
L 1331 -91 
L 4250 4750 
z
M 1428 4750 
Q 1922 4750 2215 4408 
Q 2509 4066 2509 3481 
Q 2509 2891 2217 2550 
Q 1925 2209 1428 2209 
Q 931 2209 642 2551 
Q 353 2894 353 3481 
Q 353 4063 643 4406 
Q 934 4750 1428 4750 
z
" transform="scale(0.015625)"/>
       <path id="DejaVuSans-29" d="M 513 4856 
L 1013 4856 
Q 1481 4119 1714 3412 
Q 1947 2706 1947 2009 
Q 1947 1309 1714 600 
Q 1481 -109 1013 -844 
L 513 -844 
Q 928 -128 1133 580 
Q 1338 1288 1338 2009 
Q 1338 2731 1133 3434 
Q 928 4138 513 4856 
z
" transform="scale(0.015625)"/>
      </defs>
      <use xlink:href="#DejaVuSans-53"/>
      <use xlink:href="#DejaVuSans-74" x="63.476562"/>
      <use xlink:href="#DejaVuSans-72" x="102.685547"/>
      <use xlink:href="#DejaVuSans-61" x="143.798828"/>
      <use xlink:href="#DejaVuSans-69" x="205.078125"/>
      <use xlink:href="#DejaVuSans-6e" x="232.861328"/>
      <use xlink:href="#DejaVuSans-28" x="296.240234"/>
      <use xlink:href="#DejaVuSans-25" x="335.253906"/>
      <use xlink:href="#DejaVuSans-29" x="430.273438"/>
     </g>
    </g>
   </g>
   <g id="matplotlib.axis_2">
    <g id="ytick_1">
     <g id="line2d_7">
      <defs>
       <path id="mf293d75147" d="M 0 0 
L -3.5 0 
" style="stroke: #000000; stroke-width: 0.8"/>
      </defs>
      <g>
       <use xlink:href="#mf293d75147" x="46.965625" y="288.430125" style="stroke: #000000; stroke-width: 0.8"/>
      </g>
     </g>
     <g id="text_8">
      <!-- 0 -->
      <g transform="translate(33.603125 292.229344) scale(0.1 -0.1)">
       <use xlink:href="#DejaVuSans-30"/>
      </g>
     </g>
    </g>
    <g id="ytick_2">
     <g id="line2d_8">
      <g>
       <use xlink:href="#mf293d75147" x="46.965625" y="255.166125" style="stroke: #000000; stroke-width: 0.8"/>
      </g>
     </g>
     <g id="text_9">
      <!-- 100 -->
      <g transform="translate(20.878125 258.965344) scale(0.1 -0.1)">
       <use xlink:href="#DejaVuSans-31"/>
       <use xlink:href="#DejaVuSans-30" x="63.623047"/>
       <use xlink:href="#DejaVuSans-30" x="127.246094"/>
      </g>
     </g>
    </g>
    <g id="ytick_3">
     <g id="line2d_9">
      <g>
       <use xlink:href="#mf293d75147" x="46.965625" y="221.902125" style="stroke: #000000; stroke-width: 0.8"/>
      </g>
     </g>
     <g id="text_10">
      <!-- 200 -->
      <g transform="translate(20.878125 225.701344) scale(0.1 -0.1)">
       <use xlink:href="#DejaVuSans-32"/>
       <use xlink:href="#DejaVuSans-30" x="63.623047"/>
       <use xlink:href="#DejaVuSans-30" x="127.246094"/>
      </g>
     </g>
    </g>
    <g id="ytick_4">
     <g id="line2d_10">
      <g>
       <use xlink:href="#mf293d75147" x="46.965625" y="188.638125" style="stroke: #000000; stroke-width: 0.8"/>
      </g>
     </g>
     <g id="text_11">
      <!-- 300 -->
      <g transform="translate(20.878125 192.437344) scale(0.1 -0.1)">
       <defs>
        <path id="DejaVuSans-33" d="M 2597 2516 
Q 3050 2419 3304 2112 
Q 3559 1806 3559 1356 
Q 3559 666 3084 287 
Q 2609 -91 1734 -91 
Q 1441 -91 1130 -33 
Q 819 25 488 141 
L 488 750 
Q 750 597 1062 519 
Q 1375 441 1716 441 
Q 2309 441 2620 675 
Q 2931 909 2931 1356 
Q 2931 1769 2642 2001 
Q 2353 2234 1838 2234 
L 1294 2234 
L 1294 2753 
L 1863 2753 
Q 2328 2753 2575 2939 
Q 2822 3125 2822 3475 
Q 2822 3834 2567 4026 
Q 2313 4219 1838 4219 
Q 1578 4219 1281 4162 
Q 984 4106 628 3988 
L 628 4550 
Q 988 4650 1302 4700 
Q 1616 4750 1894 4750 
Q 2613 4750 3031 4423 
Q 3450 4097 3450 3541 
Q 3450 3153 3228 2886 
Q 3006 2619 2597 2516 
z
" transform="scale(0.015625)"/>
       </defs>
       <use xlink:href="#DejaVuSans-33"/>
       <use xlink:href="#DejaVuSans-30" x="63.623047"/>
       <use xlink:href="#DejaVuSans-30" x="127.246094"/>
      </g>
     </g>
    </g>
    <g id="ytick_5">
     <g id="line2d_11">
      <g>
       <use xlink:href="#mf293d75147" x="46.965625" y="155.374125" style="stroke: #000000; stroke-width: 0.8"/>
      </g>
     </g>
     <g id="text_12">
      <!-- 400 -->
      <g transform="translate(20.878125 159.173344) scale(0.1 -0.1)">
       <use xlink:href="#DejaVuSans-34"/>
       <use xlink:href="#DejaVuSans-30" x="63.623047"/>
       <use xlink:href="#DejaVuSans-30" x="127.246094"/>
      </g>
     </g>
    </g>
    <g id="ytick_6">
     <g id="line2d_12">
      <g>
       <use xlink:href="#mf293d75147" x="46.965625" y="122.110125" style="stroke: #000000; stroke-width: 0.8"/>
      </g>
     </g>
     <g id="text_13">
      <!-- 500 -->
      <g transform="translate(20.878125 125.909344) scale(0.1 -0.1)">
       <defs>
        <path id="DejaVuSans-35" d="M 691 4666 
L 3169 4666 
L 3169 4134 
L 1269 4134 
L 1269 2991 
Q 1406 3038 1543 3061 
Q 1681 3084 1819 3084 
Q 2600 3084 3056 2656 
Q 3513 2228 3513 1497 
Q 3513 744 3044 326 
Q 2575 -91 1722 -91 
Q 1428 -91 1123 -41 
Q 819 9 494 109 
L 494 744 
Q 775 591 1075 516 
Q 1375 441 1709 441 
Q 2250 441 2565 725 
Q 2881 1009 2881 1497 
Q 2881 1984 2565 2268 
Q 2250 2553 1709 2553 
Q 1456 2553 1204 2497 
Q 953 2441 691 2322 
L 691 4666 
z
" transform="scale(0.015625)"/>
       </defs>
       <use xlink:href="#DejaVuSans-35"/>
       <use xlink:href="#DejaVuSans-30" x="63.623047"/>
       <use xlink:href="#DejaVuSans-30" x="127.246094"/>
      </g>
     </g>
    </g>
    <g id="ytick_7">
     <g id="line2d_13">
      <g>
       <use xlink:href="#mf293d75147" x="46.965625" y="88.846125" style="stroke: #000000; stroke-width: 0.8"/>
      </g>
     </g>
     <g id="text_14">
      <!-- 600 -->
      <g transform="translate(20.878125 92.645344) scale(0.1 -0.1)">
       <use xlink:href="#DejaVuSans-36"/>
       <use xlink:href="#DejaVuSans-30" x="63.623047"/>
       <use xlink:href="#DejaVuSans-30" x="127.246094"/>
      </g>
     </g>
    </g>
    <g id="ytick_8">
     <g id="line2d_14">
      <g>
       <use xlink:href="#mf293d75147" x="46.965625" y="55.582125" style="stroke: #000000; stroke-width: 0.8"/>
      </g>
     </g>
     <g id="text_15">
      <!-- 700 -->
      <g transform="translate(20.878125 59.381344) scale(0.1 -0.1)">
       <defs>
        <path id="DejaVuSans-37" d="M 525 4666 
L 3525 4666 
L 3525 4397 
L 1831 0 
L 1172 0 
L 2766 4134 
L 525 4134 
L 525 4666 
z
" transform="scale(0.015625)"/>
       </defs>
       <use xlink:href="#DejaVuSans-37"/>
       <use xlink:href="#DejaVuSans-30" x="63.623047"/>
       <use xlink:href="#DejaVuSans-30" x="127.246094"/>
      </g>
     </g>
    </g>
    <g id="ytick_9">
     <g id="line2d_15">
      <g>
       <use xlink:href="#mf293d75147" x="46.965625" y="22.318125" style="stroke: #000000; stroke-width: 0.8"/>
      </g>
     </g>
     <g id="text_16">
      <!-- 800 -->
      <g transform="translate(20.878125 26.117344) scale(0.1 -0.1)">
       <use xlink:href="#DejaVuSans-38"/>
       <use xlink:href="#DejaVuSans-30" x="63.623047"/>
       <use xlink:href="#DejaVuSans-30" x="127.246094"/>
      </g>
     </g>
    </g>
    <g id="text_17">
     <!-- Stress(MPa) -->
     <g transform="translate(14.798438 184.806937) rotate(-90) scale(0.1 -0.1)">
      <defs>
       <path id="DejaVuSans-65" d="M 3597 1894 
L 3597 1613 
L 953 1613 
Q 991 1019 1311 708 
Q 1631 397 2203 397 
Q 2534 397 2845 478 
Q 3156 559 3463 722 
L 3463 178 
Q 3153 47 2828 -22 
Q 2503 -91 2169 -91 
Q 1331 -91 842 396 
Q 353 884 353 1716 
Q 353 2575 817 3079 
Q 1281 3584 2069 3584 
Q 2775 3584 3186 3129 
Q 3597 2675 3597 1894 
z
M 3022 2063 
Q 3016 2534 2758 2815 
Q 2500 3097 2075 3097 
Q 1594 3097 1305 2825 
Q 1016 2553 972 2059 
L 3022 2063 
z
" transform="scale(0.015625)"/>
       <path id="DejaVuSans-73" d="M 2834 3397 
L 2834 2853 
Q 2591 2978 2328 3040 
Q 2066 3103 1784 3103 
Q 1356 3103 1142 2972 
Q 928 2841 928 2578 
Q 928 2378 1081 2264 
Q 1234 2150 1697 2047 
L 1894 2003 
Q 2506 1872 2764 1633 
Q 3022 1394 3022 966 
Q 3022 478 2636 193 
Q 2250 -91 1575 -91 
Q 1294 -91 989 -36 
Q 684 19 347 128 
L 347 722 
Q 666 556 975 473 
Q 1284 391 1588 391 
Q 1994 391 2212 530 
Q 2431 669 2431 922 
Q 2431 1156 2273 1281 
Q 2116 1406 1581 1522 
L 1381 1569 
Q 847 1681 609 1914 
Q 372 2147 372 2553 
Q 372 3047 722 3315 
Q 1072 3584 1716 3584 
Q 2034 3584 2315 3537 
Q 2597 3491 2834 3397 
z
" transform="scale(0.015625)"/>
       <path id="DejaVuSans-4d" d="M 628 4666 
L 1569 4666 
L 2759 1491 
L 3956 4666 
L 4897 4666 
L 4897 0 
L 4281 0 
L 4281 4097 
L 3078 897 
L 2444 897 
L 1241 4097 
L 1241 0 
L 628 0 
L 628 4666 
z
" transform="scale(0.015625)"/>
       <path id="DejaVuSans-50" d="M 1259 4147 
L 1259 2394 
L 2053 2394 
Q 2494 2394 2734 2622 
Q 2975 2850 2975 3272 
Q 2975 3691 2734 3919 
Q 2494 4147 2053 4147 
L 1259 4147 
z
M 628 4666 
L 2053 4666 
Q 2838 4666 3239 4311 
Q 3641 3956 3641 3272 
Q 3641 2581 3239 2228 
Q 2838 1875 2053 1875 
L 1259 1875 
L 1259 0 
L 628 0 
L 628 4666 
z
" transform="scale(0.015625)"/>
      </defs>
      <use xlink:href="#DejaVuSans-53"/>
      <use xlink:href="#DejaVuSans-74" x="63.476562"/>
      <use xlink:href="#DejaVuSans-72" x="102.685547"/>
      <use xlink:href="#DejaVuSans-65" x="141.548828"/>
      <use xlink:href="#DejaVuSans-73" x="203.072266"/>
      <use xlink:href="#DejaVuSans-73" x="255.171875"/>
      <use xlink:href="#DejaVuSans-28" x="307.271484"/>
      <use xlink:href="#DejaVuSans-4d" x="346.285156"/>
      <use xlink:href="#DejaVuSans-50" x="432.564453"/>
      <use xlink:href="#DejaVuSans-61" x="488.367188"/>
      <use xlink:href="#DejaVuSans-29" x="549.646484"/>
     </g>
    </g>
   </g>
   <g id="line2d_16">
    <path d="M 50.182922 288.430125 
L 51.949263 290.561954 
L 53.715635 280.438438 
L 55.481975 233.386944 
L 57.248347 255.183109 
L 59.014718 262.881797 
L 60.781089 231.869244 
L 62.54746 259.981219 
L 64.313801 212.500565 
L 66.080173 237.860235 
L 67.846544 208.350089 
L 69.612915 215.823251 
L 71.379256 209.831106 
L 73.145628 193.047359 
L 74.911998 192.357603 
L 76.67837 186.279574 
L 78.444711 201.746334 
L 80.211083 208.889497 
L 81.977424 192.790717 
L 83.743794 201.839 
L 85.510166 185.627657 
L 87.276507 197.700644 
L 89.042877 196.295194 
L 90.809249 196.344308 
L 92.575619 199.094257 
L 94.34196 213.930865 
L 96.108334 214.028148 
L 99.641074 196.759307 
L 101.407415 221.136201 
L 103.173789 160.572625 
L 104.940159 174.649644 
L 106.706529 159.222171 
L 110.239244 189.742887 
L 113.771984 170.493826 
L 115.538353 183.201204 
L 117.304694 162.833797 
L 119.071069 203.531196 
L 120.837439 166.533077 
L 122.603808 144.869096 
L 124.370149 142.124348 
L 126.136524 180.050218 
L 127.902894 153.205286 
L 129.669263 164.81306 
L 131.435604 170.064511 
L 133.20195 169.57902 
L 134.968315 192.687761 
L 136.73469 167.63706 
L 138.501064 166.980166 
L 140.2674 156.277745 
L 142.033775 138.102354 
L 143.80014 177.803111 
L 145.566514 160.654879 
L 147.332889 158.177883 
L 149.099225 163.154391 
L 150.8656 157.243778 
L 152.631974 137.300779 
L 154.398339 128.421235 
L 156.164685 166.648896 
L 157.93105 144.803662 
L 159.697424 163.564992 
L 161.463799 138.383321 
L 164.99651 142.243537 
L 166.762884 131.584169 
L 168.529249 152.511099 
L 170.295624 126.703984 
L 172.06196 170.456191 
L 173.828334 112.221675 
L 175.594709 114.118732 
L 177.361074 148.436486 
L 179.127391 133.206168 
L 180.893756 133.749466 
L 182.66013 107.103958 
L 184.426505 127.402191 
L 186.192841 149.9917 
L 187.959216 169.129272 
L 189.725581 148.46039 
L 191.491955 157.103542 
L 193.25833 127.156348 
L 195.024666 139.987634 
L 196.79104 157.179939 
L 198.557415 142.375117 
L 200.32378 174.77196 
L 202.090126 150.174583 
L 203.856491 176.632453 
L 205.622865 131.727025 
L 207.38924 164.070305 
L 209.155576 144.400277 
L 210.92195 134.488029 
L 212.688325 149.635003 
L 214.454699 142.08023 
L 216.221055 150.507844 
L 217.98741 142.106346 
L 219.753766 135.621554 
L 221.52014 178.666224 
L 223.286515 156.050814 
L 225.052832 147.563279 
L 226.819206 114.814299 
L 228.585562 111.616423 
L 230.351936 139.063793 
L 232.118311 143.695669 
L 233.884647 136.813613 
L 235.651021 162.417493 
L 237.417434 144.164745 
L 239.18377 168.069968 
L 240.950107 140.283438 
L 242.716519 124.375292 
L 244.482856 129.631048 
L 246.249249 145.243195 
L 248.015528 128.101676 
L 249.781941 157.599078 
L 251.548277 118.781177 
L 253.314671 127.491091 
L 255.081026 118.87092 
L 256.847362 145.162101 
L 258.613756 130.232282 
L 260.380092 133.239743 
L 262.146505 141.353522 
L 263.912841 96.220832 
L 265.679178 142.756065 
L 267.44559 140.515285 
L 269.211927 120.626217 
L 270.97832 149.216476 
L 272.744676 141.048158 
L 274.511069 122.601987 
L 276.277348 157.388884 
L 278.043761 112.038245 
L 279.810097 153.522864 
L 281.576491 133.750955 
L 283.342846 162.639754 
L 285.10924 126.430684 
L 286.875576 127.490254 
L 288.641989 127.794686 
L 290.408268 137.522793 
L 292.174661 142.343409 
L 293.940997 125.385002 
L 295.707353 118.690584 
L 299.240083 128.148889 
L 301.006496 102.58855 
L 302.772832 150.681471 
L 304.539226 129.977704 
L 306.305504 129.904077 
L 308.071917 130.867388 
L 309.838253 132.169642 
L 311.604647 132.8585 
L 313.371002 129.485785 
L 315.137396 169.535805 
L 316.903732 148.578287 
L 318.670145 156.218008 
L 320.436481 134.961253 
L 322.202817 132.41793 
L 323.969173 130.395471 
L 325.735567 149.714758 
L 327.501903 140.748773 
L 329.268316 149.60085 
L 331.034652 123.171038 
L 332.801046 155.935014 
L 334.567382 137.333399 
L 336.333737 125.414831 
L 338.100073 126.714222 
L 339.866467 138.444556 
L 341.632822 131.326423 
L 343.399159 128.633044 
L 345.165552 124.571554 
L 346.931908 133.269428 
L 348.698301 132.100882 
L 350.464637 158.642829 
L 352.230974 108.41679 
L 353.997329 142.226269 
L 355.763723 161.360483 
L 357.530059 120.551763 
L 359.296472 156.958061 
L 361.062808 133.395047 
L 362.829202 155.330654 
L 364.595557 128.669058 
L 366.361951 140.205725 
L 368.128229 157.794556 
L 369.894642 163.256362 
L 371.660979 107.435481 
L 373.427372 123.94763 
L 375.193728 127.43224 
L 376.960121 130.487461 
L 378.726477 115.938033 
L 380.49287 97.869325 
L 382.259187 88.954191 
L 384.025543 94.227448 
L 385.791898 105.429931 
L 387.558292 102.323568 
L 389.324609 105.01702 
L 391.090964 69.862136 
L 392.857358 70.679597 
L 394.623713 72.367552 
L 396.390107 77.755147 
L 398.156386 101.18714 
L 399.922779 67.983715 
L 401.689135 87.956128 
L 403.455528 75.118213 
L 403.455528 75.118213 
" clip-path="url(#pe2e459a96a)" style="fill: none; stroke: #1f77b4; stroke-width: 1.5; stroke-linecap: square"/>
   </g>
   <g id="line2d_17">
    <path d="M 50.182922 288.430125 
L 51.871898 272.323465 
L 53.560903 264.316194 
L 55.249938 263.754078 
L 56.938943 258.852451 
L 60.316924 211.313435 
L 62.005959 215.305744 
L 63.694964 230.419093 
L 65.38397 231.73143 
L 68.761979 194.352334 
L 70.450985 181.788879 
L 72.139991 227.033402 
L 73.828996 213.242365 
L 75.518 236.29673 
L 77.207006 236.813112 
L 78.896011 201.107447 
L 80.585046 191.198502 
L 82.274021 221.597512 
L 83.963028 209.965715 
L 85.652061 191.494438 
L 87.341067 205.924806 
L 89.030043 235.308034 
L 90.719047 190.254548 
L 92.408082 189.914772 
L 94.097089 176.09206 
L 97.475097 185.075216 
L 99.164104 179.994786 
L 100.853111 186.496574 
L 102.542112 165.32707 
L 104.231119 161.179143 
L 105.920126 177.850725 
L 107.609127 173.418502 
L 109.298163 199.142654 
L 110.987169 154.132416 
L 112.676147 166.974769 
L 114.365149 138.153625 
L 116.054184 173.730208 
L 117.743191 180.897421 
L 119.432198 157.452456 
L 121.121171 183.103795 
L 122.810206 202.164392 
L 124.499213 173.627917 
L 126.188214 196.324759 
L 127.877221 175.793995 
L 129.566228 126.401034 
L 131.255229 179.718647 
L 132.944236 137.856145 
L 134.633271 160.682667 
L 136.322249 152.608791 
L 138.011256 136.522438 
L 139.700291 159.32401 
L 141.389298 151.511781 
L 143.078266 173.620233 
L 144.767273 147.365994 
L 146.456308 162.181368 
L 148.145315 165.957579 
L 149.834321 151.202948 
L 151.523299 153.749133 
L 153.212334 151.521651 
L 154.901331 139.97447 
L 156.590338 126.028362 
L 158.279345 135.331326 
L 159.968351 147.596996 
L 161.657358 147.374977 
L 163.346364 175.561362 
L 165.0354 154.490014 
L 166.724368 172.975395 
L 168.413375 164.757223 
L 170.10241 179.7241 
L 171.791417 153.81529 
L 173.480394 184.671774 
L 175.169401 167.860694 
L 176.858436 153.366357 
L 178.547433 166.993151 
L 180.23644 146.089547 
L 181.925447 153.486242 
L 183.614453 140.420258 
L 185.30346 194.177423 
L 186.992466 169.313119 
L 188.681473 156.983998 
L 190.37047 185.403414 
L 192.059477 159.854614 
L 193.748512 158.11299 
L 195.437519 156.181978 
L 197.126496 166.675723 
L 198.815503 155.809977 
L 200.504538 185.111745 
L 202.193545 146.203549 
L 203.882513 163.620761 
L 205.57152 169.501149 
L 207.260555 193.762482 
L 208.949562 188.345066 
L 210.638568 178.979468 
L 212.327575 186.846209 
L 214.016572 160.784559 
L 215.705588 146.873815 
L 217.394585 159.124598 
L 219.083601 158.906457 
L 220.772598 132.22835 
L 222.461595 179.169197 
L 224.150631 146.869258 
L 225.839609 162.382144 
L 227.528644 159.630448 
L 229.217622 160.125164 
L 230.906657 132.781245 
L 232.595635 139.244717 
L 234.28467 136.099873 
L 235.973648 159.946028 
L 237.662684 126.28761 
L 239.351719 107.6749 
L 241.040697 121.756095 
L 242.729675 148.620884 
L 244.41871 142.888685 
L 246.107726 110.212137 
L 247.796704 103.650052 
L 249.485682 146.49101 
L 251.174717 134.97164 
L 252.863753 126.600292 
L 254.55273 133.659585 
L 256.241766 114.550342 
L 257.930744 128.100101 
L 259.619779 152.619406 
L 261.308757 120.569888 
L 262.997735 155.61496 
L 264.686828 135.785995 
L 266.375805 129.187846 
L 268.064783 136.658007 
L 269.753799 106.56865 
L 271.442777 124.912349 
L 273.131813 104.629413 
L 274.82079 153.17393 
L 276.509826 133.259312 
L 278.198861 129.816707 
L 279.887839 106.421722 
L 281.576874 111.020028 
L 283.265852 122.401161 
L 284.95483 139.124859 
L 286.643865 112.977386 
L 288.332901 164.676878 
L 290.021936 141.76559 
L 291.710914 114.421471 
L 293.399873 114.994023 
L 295.088908 152.272355 
L 296.777886 129.270287 
L 298.466864 134.435401 
L 300.155957 116.559944 
L 301.844934 125.336952 
L 303.53397 124.649986 
L 305.222948 176.70719 
L 306.911925 172.350102 
L 308.600961 161.805071 
L 310.289939 146.910175 
L 311.979031 170.673659 
L 313.668009 167.395352 
L 315.356987 156.596892 
L 317.046023 165.732218 
L 318.734981 148.011928 
L 320.424017 172.213425 
L 322.112994 167.260092 
L 323.80203 153.029736 
L 325.491065 128.405896 
L 327.180043 128.244366 
L 328.869021 164.056614 
L 330.558056 136.852606 
L 332.247034 147.561505 
L 333.936069 173.056536 
L 335.625105 163.566017 
L 337.314083 136.408874 
L 339.003118 167.507921 
L 340.692096 157.413034 
L 342.381131 160.021349 
L 344.07009 178.663735 
L 345.759068 155.519288 
L 347.44816 148.395533 
L 349.137138 152.344293 
L 350.826174 147.596645 
L 352.515151 157.112614 
L 354.204129 153.187624 
L 355.893165 147.473971 
L 357.582143 140.17255 
L 359.27112 152.080408 
L 362.649191 107.272952 
L 364.338226 119.178675 
L 366.027204 139.537894 
L 367.716163 131.280119 
L 369.405198 144.66224 
L 371.094176 135.982958 
L 372.783269 154.217014 
L 374.472266 113.48119 
L 376.161225 125.276832 
L 377.85026 127.753706 
L 379.539219 137.815753 
L 381.228254 133.491094 
L 382.917251 130.747444 
L 384.606286 126.794286 
L 386.295322 155.017525 
L 387.98428 137.704717 
L 387.98428 137.704717 
" clip-path="url(#pe2e459a96a)" style="fill: none; stroke: #ff7f0e; stroke-width: 1.5; stroke-linecap: square"/>
   </g>
   <g id="line2d_18">
    <path d="M 50.182922 288.430125 
L 51.887155 287.962205 
L 53.591478 283.920977 
L 55.295741 252.637886 
L 57.000033 278.88432 
L 58.704296 244.259428 
L 60.408589 253.291232 
L 62.112882 230.640502 
L 63.817144 224.774853 
L 65.521437 228.786385 
L 67.2257 225.577223 
L 68.929993 232.34783 
L 70.634284 214.402789 
L 72.338577 190.073915 
L 74.042841 209.849102 
L 75.747134 182.602507 
L 77.451426 205.356179 
L 79.155688 198.048505 
L 80.859981 168.047813 
L 82.564245 194.422439 
L 84.268537 173.88416 
L 85.972799 174.11626 
L 87.677123 163.048386 
L 89.381384 166.268148 
L 91.085679 173.693099 
L 92.789941 161.290455 
L 94.494231 174.66497 
L 96.198527 191.451839 
L 97.902788 190.946761 
L 99.607078 175.304005 
L 101.311345 155.370992 
L 103.015635 154.423733 
L 104.719902 175.645922 
L 106.424221 165.371259 
L 108.128482 140.093649 
L 109.832777 153.354397 
L 111.537039 165.159482 
L 113.241334 161.803359 
L 114.945624 147.817032 
L 116.649886 148.275187 
L 118.354181 162.887969 
L 120.058443 136.072786 
L 121.762738 149.043813 
L 123.467028 138.221902 
L 125.171323 123.051626 
L 126.875585 151.668742 
L 128.579875 140.776352 
L 130.284142 151.801229 
L 131.988437 127.721006 
L 133.692727 150.644226 
L 135.396989 153.994075 
L 137.101279 165.722751 
L 138.80554 144.887045 
L 140.509869 167.313841 
L 142.214131 139.457697 
L 143.918421 154.413041 
L 145.622683 157.604375 
L 147.326973 152.321044 
L 149.031273 201.568866 
L 150.735534 210.705003 
L 152.439825 175.910253 
L 154.144086 174.730589 
L 155.848377 199.3244 
L 157.552638 191.219264 
L 159.256967 162.434989 
L 160.961229 154.823805 
L 162.665519 149.806194 
L 164.369781 192.785309 
L 166.07408 153.170142 
L 167.778371 165.224267 
L 169.482632 161.706169 
L 171.186923 149.318295 
L 172.891184 139.296234 
L 174.595484 156.829426 
L 176.299775 189.332559 
L 178.004065 147.098358 
L 179.708326 117.072039 
L 181.412617 132.065998 
L 183.116888 136.415159 
L 184.821178 137.422397 
L 186.525469 153.496602 
L 188.22973 151.999376 
L 189.934021 145.108806 
L 191.638292 144.468882 
L 193.342611 154.611314 
L 195.046872 134.08582 
L 196.751163 150.352175 
L 198.455424 137.697234 
L 200.159724 172.743886 
L 201.863986 165.232241 
L 203.568276 148.87672 
L 205.272566 155.457791 
L 206.976828 152.155237 
L 208.681128 124.712137 
L 210.38539 150.460448 
L 212.089709 141.876251 
L 213.79397 143.051068 
L 215.49827 166.817316 
L 217.202532 136.896957 
L 218.906812 154.010754 
L 220.611074 125.243285 
L 222.315374 130.398705 
L 224.019674 117.79992 
L 225.723935 127.079457 
L 227.428216 92.98411 
L 229.132516 124.039564 
L 230.836816 101.193551 
L 232.541039 137.937491 
L 234.245339 135.882471 
L 235.94962 123.094719 
L 237.65392 135.351191 
L 239.35822 156.351131 
L 241.062501 164.909472 
L 242.7668 145.56516 
L 244.471024 155.193536 
L 246.175324 187.114855 
L 247.879624 147.09718 
L 249.583904 116.194941 
L 251.288147 154.141119 
L 252.992427 161.762956 
L 256.401027 141.79936 
L 258.105308 113.934717 
L 259.809608 117.303485 
L 261.513831 99.924298 
L 263.218131 89.2044 
L 264.922431 163.123219 
L 266.626712 90.940345 
L 268.330954 121.527842 
L 270.035235 127.089362 
L 271.739535 119.914587 
L 273.443892 135.963397 
L 275.148173 140.883397 
L 276.852415 160.957056 
L 278.556696 108.000599 
L 280.260996 154.98219 
L 281.965296 156.610181 
L 283.669519 135.893528 
L 285.373819 154.982776 
L 287.0781 127.520737 
L 288.7824 175.03999 
L 290.486642 165.723291 
L 292.190923 167.426965 
L 293.895223 146.360571 
L 295.599504 139.434238 
L 297.303804 119.365203 
L 299.008046 139.170066 
L 300.712327 138.373704 
L 302.416627 122.036281 
L 304.120907 133.768482 
L 305.82515 147.478639 
L 307.52945 133.852098 
L 309.233788 134.841537 
L 310.938088 156.346479 
L 312.642369 105.149491 
L 314.346611 112.155128 
L 316.050911 83.684676 
L 317.755192 74.969693 
L 319.459492 78.646115 
L 321.163715 106.002493 
L 322.868015 120.152713 
L 324.572315 106.204014 
L 326.276596 133.445655 
L 327.980838 84.300615 
L 329.685119 106.820423 
L 331.389419 105.387959 
L 333.093719 121.955526 
L 334.797999 107.268107 
L 336.502242 55.316214 
L 338.206522 84.210361 
L 339.910822 99.063624 
L 341.615122 93.506416 
L 343.319346 124.63928 
L 345.023703 116.986783 
L 346.727984 77.061101 
L 348.432284 84.660287 
L 350.136584 76.100898 
L 351.840807 70.444726 
L 353.545107 90.928773 
L 355.249388 92.084644 
L 356.953687 109.488889 
L 360.362211 101.254837 
L 362.066511 85.802173 
L 363.770791 125.645164 
L 365.475091 96.257864 
L 367.179334 101.421722 
L 368.883614 123.690128 
L 370.587914 86.277304 
L 372.292195 103.923233 
L 373.996418 79.938569 
L 375.700718 103.624223 
L 377.405018 71.965195 
L 379.109356 84.670246 
L 380.813618 103.884052 
L 382.517918 107.030999 
L 384.222179 92.834425 
L 385.926479 103.851479 
L 387.630779 97.164496 
L 389.335003 76.488609 
L 391.039302 103.865173 
L 391.039302 103.865173 
" clip-path="url(#pe2e459a96a)" style="fill: none; stroke: #2ca02c; stroke-width: 1.5; stroke-linecap: square"/>
   </g>
   <g id="patch_3">
    <path d="M 46.965625 288.430125 
L 46.965625 22.318125 
" style="fill: none; stroke: #000000; stroke-width: 0.8; stroke-linejoin: miter; stroke-linecap: square"/>
   </g>
   <g id="patch_4">
    <path d="M 404.085625 288.430125 
L 404.085625 22.318125 
" style="fill: none; stroke: #000000; stroke-width: 0.8; stroke-linejoin: miter; stroke-linecap: square"/>
   </g>
   <g id="patch_5">
    <path d="M 46.965625 288.430125 
L 404.085625 288.430125 
" style="fill: none; stroke: #000000; stroke-width: 0.8; stroke-linejoin: miter; stroke-linecap: square"/>
   </g>
   <g id="patch_6">
    <path d="M 46.965625 22.318125 
L 404.085625 22.318125 
" style="fill: none; stroke: #000000; stroke-width: 0.8; stroke-linejoin: miter; stroke-linecap: square"/>
   </g>
   <g id="text_18">
    <!-- Stress-Strain Curve -->
    <g transform="translate(167.542188 16.318125) scale(0.12 -0.12)">
     <defs>
      <path id="DejaVuSans-2d" d="M 313 2009 
L 1997 2009 
L 1997 1497 
L 313 1497 
L 313 2009 
z
" transform="scale(0.015625)"/>
      <path id="DejaVuSans-20" transform="scale(0.015625)"/>
      <path id="DejaVuSans-43" d="M 4122 4306 
L 4122 3641 
Q 3803 3938 3442 4084 
Q 3081 4231 2675 4231 
Q 1875 4231 1450 3742 
Q 1025 3253 1025 2328 
Q 1025 1406 1450 917 
Q 1875 428 2675 428 
Q 3081 428 3442 575 
Q 3803 722 4122 1019 
L 4122 359 
Q 3791 134 3420 21 
Q 3050 -91 2638 -91 
Q 1578 -91 968 557 
Q 359 1206 359 2328 
Q 359 3453 968 4101 
Q 1578 4750 2638 4750 
Q 3056 4750 3426 4639 
Q 3797 4528 4122 4306 
z
" transform="scale(0.015625)"/>
      <path id="DejaVuSans-75" d="M 544 1381 
L 544 3500 
L 1119 3500 
L 1119 1403 
Q 1119 906 1312 657 
Q 1506 409 1894 409 
Q 2359 409 2629 706 
Q 2900 1003 2900 1516 
L 2900 3500 
L 3475 3500 
L 3475 0 
L 2900 0 
L 2900 538 
Q 2691 219 2414 64 
Q 2138 -91 1772 -91 
Q 1169 -91 856 284 
Q 544 659 544 1381 
z
M 1991 3584 
L 1991 3584 
z
" transform="scale(0.015625)"/>
      <path id="DejaVuSans-76" d="M 191 3500 
L 800 3500 
L 1894 563 
L 2988 3500 
L 3597 3500 
L 2284 0 
L 1503 0 
L 191 3500 
z
" transform="scale(0.015625)"/>
     </defs>
     <use xlink:href="#DejaVuSans-53"/>
     <use xlink:href="#DejaVuSans-74" x="63.476562"/>
     <use xlink:href="#DejaVuSans-72" x="102.685547"/>
     <use xlink:href="#DejaVuSans-65" x="141.548828"/>
     <use xlink:href="#DejaVuSans-73" x="203.072266"/>
     <use xlink:href="#DejaVuSans-73" x="255.171875"/>
     <use xlink:href="#DejaVuSans-2d" x="307.271484"/>
     <use xlink:href="#DejaVuSans-53" x="343.355469"/>
     <use xlink:href="#DejaVuSans-74" x="406.832031"/>
     <use xlink:href="#DejaVuSans-72" x="446.041016"/>
     <use xlink:href="#DejaVuSans-61" x="487.154297"/>
     <use xlink:href="#DejaVuSans-69" x="548.433594"/>
     <use xlink:href="#DejaVuSans-6e" x="576.216797"/>
     <use xlink:href="#DejaVuSans-20" x="639.595703"/>
     <use xlink:href="#DejaVuSans-43" x="671.382812"/>
     <use xlink:href="#DejaVuSans-75" x="741.207031"/>
     <use xlink:href="#DejaVuSans-72" x="804.585938"/>
     <use xlink:href="#DejaVuSans-76" x="845.699219"/>
     <use xlink:href="#DejaVuSans-65" x="904.878906"/>
    </g>
   </g>
   <g id="legend_1">
    <g id="patch_7">
     <path d="M 53.965625 75.186875 
L 124.73125 75.186875 
Q 126.73125 75.186875 126.73125 73.186875 
L 126.73125 29.318125 
Q 126.73125 27.318125 124.73125 27.318125 
L 53.965625 27.318125 
Q 51.965625 27.318125 51.965625 29.318125 
L 51.965625 73.186875 
Q 51.965625 75.186875 53.965625 75.186875 
z
" style="fill: #ffffff; opacity: 0.8; stroke: #cccccc; stroke-linejoin: miter"/>
    </g>
    <g id="line2d_19">
     <path d="M 55.965625 35.416562 
L 65.965625 35.416562 
L 75.965625 35.416562 
" style="fill: none; stroke: #1f77b4; stroke-width: 1.5; stroke-linecap: square"/>
    </g>
    <g id="text_19">
     <!-- FS1M_X -->
     <g transform="translate(83.965625 38.916562) scale(0.1 -0.1)">
      <defs>
       <path id="DejaVuSans-46" d="M 628 4666 
L 3309 4666 
L 3309 4134 
L 1259 4134 
L 1259 2759 
L 3109 2759 
L 3109 2228 
L 1259 2228 
L 1259 0 
L 628 0 
L 628 4666 
z
" transform="scale(0.015625)"/>
       <path id="DejaVuSans-5f" d="M 3263 -1063 
L 3263 -1509 
L -63 -1509 
L -63 -1063 
L 3263 -1063 
z
" transform="scale(0.015625)"/>
       <path id="DejaVuSans-58" d="M 403 4666 
L 1081 4666 
L 2241 2931 
L 3406 4666 
L 4084 4666 
L 2584 2425 
L 4184 0 
L 3506 0 
L 2194 1984 
L 872 0 
L 191 0 
L 1856 2491 
L 403 4666 
z
" transform="scale(0.015625)"/>
      </defs>
      <use xlink:href="#DejaVuSans-46"/>
      <use xlink:href="#DejaVuSans-53" x="55.769531"/>
      <use xlink:href="#DejaVuSans-31" x="119.246094"/>
      <use xlink:href="#DejaVuSans-4d" x="182.869141"/>
      <use xlink:href="#DejaVuSans-5f" x="269.148438"/>
      <use xlink:href="#DejaVuSans-58" x="319.148438"/>
     </g>
    </g>
    <g id="line2d_20">
     <path d="M 55.965625 50.372813 
L 65.965625 50.372813 
L 75.965625 50.372813 
" style="fill: none; stroke: #ff7f0e; stroke-width: 1.5; stroke-linecap: square"/>
    </g>
    <g id="text_20">
     <!-- FS1M_Y -->
     <g transform="translate(83.965625 53.872813) scale(0.1 -0.1)">
      <defs>
       <path id="DejaVuSans-59" d="M -13 4666 
L 666 4666 
L 1959 2747 
L 3244 4666 
L 3922 4666 
L 2272 2222 
L 2272 0 
L 1638 0 
L 1638 2222 
L -13 4666 
z
" transform="scale(0.015625)"/>
      </defs>
      <use xlink:href="#DejaVuSans-46"/>
      <use xlink:href="#DejaVuSans-53" x="55.769531"/>
      <use xlink:href="#DejaVuSans-31" x="119.246094"/>
      <use xlink:href="#DejaVuSans-4d" x="182.869141"/>
      <use xlink:href="#DejaVuSans-5f" x="269.148438"/>
      <use xlink:href="#DejaVuSans-59" x="319.148438"/>
     </g>
    </g>
    <g id="line2d_21">
     <path d="M 55.965625 65.329063 
L 65.965625 65.329063 
L 75.965625 65.329063 
" style="fill: none; stroke: #2ca02c; stroke-width: 1.5; stroke-linecap: square"/>
    </g>
    <g id="text_21">
     <!-- FS1M_Z -->
     <g transform="translate(83.965625 68.829063) scale(0.1 -0.1)">
      <defs>
       <path id="DejaVuSans-5a" d="M 359 4666 
L 4025 4666 
L 4025 4184 
L 1075 531 
L 4097 531 
L 4097 0 
L 288 0 
L 288 481 
L 3238 4134 
L 359 4134 
L 359 4666 
z
" transform="scale(0.015625)"/>
      </defs>
      <use xlink:href="#DejaVuSans-46"/>
      <use xlink:href="#DejaVuSans-53" x="55.769531"/>
      <use xlink:href="#DejaVuSans-31" x="119.246094"/>
      <use xlink:href="#DejaVuSans-4d" x="182.869141"/>
      <use xlink:href="#DejaVuSans-5f" x="269.148438"/>
      <use xlink:href="#DejaVuSans-5a" x="319.148438"/>
     </g>
    </g>
   </g>
  </g>
 </g>
 <defs>
  <clipPath id="pe2e459a96a">
   <rect x="46.965625" y="22.318125" width="357.12" height="266.112"/>
  </clipPath>
 </defs>
</svg>
