<?xml version="1.0" encoding="utf-8" standalone="no"?>
<!DOCTYPE svg PUBLIC "-//W3C//DTD SVG 1.1//EN"
  "http://www.w3.org/Graphics/SVG/1.1/DTD/svg11.dtd">
<svg xmlns:xlink="http://www.w3.org/1999/xlink" width="420.829375pt" height="325.986375pt" viewBox="0 0 420.829375 325.986375" xmlns="http://www.w3.org/2000/svg" version="1.1">
 <metadata>
  <rdf:RDF xmlns:dc="http://purl.org/dc/elements/1.1/" xmlns:cc="http://creativecommons.org/ns#" xmlns:rdf="http://www.w3.org/1999/02/22-rdf-syntax-ns#">
   <cc:Work>
    <dc:type rdf:resource="http://purl.org/dc/dcmitype/StillImage"/>
    <dc:date>2025-01-20T16:56:23.415096</dc:date>
    <dc:format>image/svg+xml</dc:format>
    <dc:creator>
     <cc:Agent>
      <dc:title>Matplotlib v3.9.0, https://matplotlib.org/</dc:title>
     </cc:Agent>
    </dc:creator>
   </cc:Work>
  </rdf:RDF>
 </metadata>
 <defs>
  <style type="text/css">*{stroke-linejoin: round; stroke-linecap: butt}</style>
 </defs>
 <g id="figure_1">
  <g id="patch_1">
   <path d="M 0 325.986375 
L 420.829375 325.986375 
L 420.829375 0 
L 0 0 
z
" style="fill: #ffffff"/>
  </g>
  <g id="axes_1">
   <g id="patch_2">
    <path d="M 46.965625 288.430125 
L 404.085625 288.430125 
L 404.085625 22.318125 
L 46.965625 22.318125 
z
" style="fill: #ffffff"/>
   </g>
   <g id="matplotlib.axis_1">
    <g id="xtick_1">
     <g id="line2d_1">
      <defs>
       <path id="md94e42addd" d="M 0 0 
L 0 3.5 
" style="stroke: #000000; stroke-width: 0.8"/>
      </defs>
      <g>
       <use xlink:href="#md94e42addd" x="48.15207" y="288.430125" style="stroke: #000000; stroke-width: 0.8"/>
      </g>
     </g>
     <g id="text_1">
      <!-- 100 -->
      <g transform="translate(38.60832 303.028562) scale(0.1 -0.1)">
       <defs>
        <path id="DejaVuSans-31" d="M 794 531 
L 1825 531 
L 1825 4091 
L 703 3866 
L 703 4441 
L 1819 4666 
L 2450 4666 
L 2450 531 
L 3481 531 
L 3481 0 
L 794 0 
L 794 531 
z
" transform="scale(0.015625)"/>
        <path id="DejaVuSans-30" d="M 2034 4250 
Q 1547 4250 1301 3770 
Q 1056 3291 1056 2328 
Q 1056 1369 1301 889 
Q 1547 409 2034 409 
Q 2525 409 2770 889 
Q 3016 1369 3016 2328 
Q 3016 3291 2770 3770 
Q 2525 4250 2034 4250 
z
M 2034 4750 
Q 2819 4750 3233 4129 
Q 3647 3509 3647 2328 
Q 3647 1150 3233 529 
Q 2819 -91 2034 -91 
Q 1250 -91 836 529 
Q 422 1150 422 2328 
Q 422 3509 836 4129 
Q 1250 4750 2034 4750 
z
" transform="scale(0.015625)"/>
       </defs>
       <use xlink:href="#DejaVuSans-31"/>
       <use xlink:href="#DejaVuSans-30" x="63.623047"/>
       <use xlink:href="#DejaVuSans-30" x="127.246094"/>
      </g>
     </g>
    </g>
    <g id="xtick_2">
     <g id="line2d_2">
      <g>
       <use xlink:href="#md94e42addd" x="107.474329" y="288.430125" style="stroke: #000000; stroke-width: 0.8"/>
      </g>
     </g>
     <g id="text_2">
      <!-- 105 -->
      <g transform="translate(97.930579 303.028562) scale(0.1 -0.1)">
       <defs>
        <path id="DejaVuSans-35" d="M 691 4666 
L 3169 4666 
L 3169 4134 
L 1269 4134 
L 1269 2991 
Q 1406 3038 1543 3061 
Q 1681 3084 1819 3084 
Q 2600 3084 3056 2656 
Q 3513 2228 3513 1497 
Q 3513 744 3044 326 
Q 2575 -91 1722 -91 
Q 1428 -91 1123 -41 
Q 819 9 494 109 
L 494 744 
Q 775 591 1075 516 
Q 1375 441 1709 441 
Q 2250 441 2565 725 
Q 2881 1009 2881 1497 
Q 2881 1984 2565 2268 
Q 2250 2553 1709 2553 
Q 1456 2553 1204 2497 
Q 953 2441 691 2322 
L 691 4666 
z
" transform="scale(0.015625)"/>
       </defs>
       <use xlink:href="#DejaVuSans-31"/>
       <use xlink:href="#DejaVuSans-30" x="63.623047"/>
       <use xlink:href="#DejaVuSans-35" x="127.246094"/>
      </g>
     </g>
    </g>
    <g id="xtick_3">
     <g id="line2d_3">
      <g>
       <use xlink:href="#md94e42addd" x="166.796588" y="288.430125" style="stroke: #000000; stroke-width: 0.8"/>
      </g>
     </g>
     <g id="text_3">
      <!-- 110 -->
      <g transform="translate(157.252838 303.028562) scale(0.1 -0.1)">
       <use xlink:href="#DejaVuSans-31"/>
       <use xlink:href="#DejaVuSans-31" x="63.623047"/>
       <use xlink:href="#DejaVuSans-30" x="127.246094"/>
      </g>
     </g>
    </g>
    <g id="xtick_4">
     <g id="line2d_4">
      <g>
       <use xlink:href="#md94e42addd" x="226.118848" y="288.430125" style="stroke: #000000; stroke-width: 0.8"/>
      </g>
     </g>
     <g id="text_4">
      <!-- 115 -->
      <g transform="translate(216.575098 303.028562) scale(0.1 -0.1)">
       <use xlink:href="#DejaVuSans-31"/>
       <use xlink:href="#DejaVuSans-31" x="63.623047"/>
       <use xlink:href="#DejaVuSans-35" x="127.246094"/>
      </g>
     </g>
    </g>
    <g id="xtick_5">
     <g id="line2d_5">
      <g>
       <use xlink:href="#md94e42addd" x="285.441107" y="288.430125" style="stroke: #000000; stroke-width: 0.8"/>
      </g>
     </g>
     <g id="text_5">
      <!-- 120 -->
      <g transform="translate(275.897357 303.028562) scale(0.1 -0.1)">
       <defs>
        <path id="DejaVuSans-32" d="M 1228 531 
L 3431 531 
L 3431 0 
L 469 0 
L 469 531 
Q 828 903 1448 1529 
Q 2069 2156 2228 2338 
Q 2531 2678 2651 2914 
Q 2772 3150 2772 3378 
Q 2772 3750 2511 3984 
Q 2250 4219 1831 4219 
Q 1534 4219 1204 4116 
Q 875 4013 500 3803 
L 500 4441 
Q 881 4594 1212 4672 
Q 1544 4750 1819 4750 
Q 2544 4750 2975 4387 
Q 3406 4025 3406 3419 
Q 3406 3131 3298 2873 
Q 3191 2616 2906 2266 
Q 2828 2175 2409 1742 
Q 1991 1309 1228 531 
z
" transform="scale(0.015625)"/>
       </defs>
       <use xlink:href="#DejaVuSans-31"/>
       <use xlink:href="#DejaVuSans-32" x="63.623047"/>
       <use xlink:href="#DejaVuSans-30" x="127.246094"/>
      </g>
     </g>
    </g>
    <g id="xtick_6">
     <g id="line2d_6">
      <g>
       <use xlink:href="#md94e42addd" x="344.763366" y="288.430125" style="stroke: #000000; stroke-width: 0.8"/>
      </g>
     </g>
     <g id="text_6">
      <!-- 125 -->
      <g transform="translate(335.219616 303.028562) scale(0.1 -0.1)">
       <use xlink:href="#DejaVuSans-31"/>
       <use xlink:href="#DejaVuSans-32" x="63.623047"/>
       <use xlink:href="#DejaVuSans-35" x="127.246094"/>
      </g>
     </g>
    </g>
    <g id="xtick_7">
     <g id="line2d_7">
      <g>
       <use xlink:href="#md94e42addd" x="404.085625" y="288.430125" style="stroke: #000000; stroke-width: 0.8"/>
      </g>
     </g>
     <g id="text_7">
      <!-- 130 -->
      <g transform="translate(394.541875 303.028562) scale(0.1 -0.1)">
       <defs>
        <path id="DejaVuSans-33" d="M 2597 2516 
Q 3050 2419 3304 2112 
Q 3559 1806 3559 1356 
Q 3559 666 3084 287 
Q 2609 -91 1734 -91 
Q 1441 -91 1130 -33 
Q 819 25 488 141 
L 488 750 
Q 750 597 1062 519 
Q 1375 441 1716 441 
Q 2309 441 2620 675 
Q 2931 909 2931 1356 
Q 2931 1769 2642 2001 
Q 2353 2234 1838 2234 
L 1294 2234 
L 1294 2753 
L 1863 2753 
Q 2328 2753 2575 2939 
Q 2822 3125 2822 3475 
Q 2822 3834 2567 4026 
Q 2313 4219 1838 4219 
Q 1578 4219 1281 4162 
Q 984 4106 628 3988 
L 628 4550 
Q 988 4650 1302 4700 
Q 1616 4750 1894 4750 
Q 2613 4750 3031 4423 
Q 3450 4097 3450 3541 
Q 3450 3153 3228 2886 
Q 3006 2619 2597 2516 
z
" transform="scale(0.015625)"/>
       </defs>
       <use xlink:href="#DejaVuSans-31"/>
       <use xlink:href="#DejaVuSans-33" x="63.623047"/>
       <use xlink:href="#DejaVuSans-30" x="127.246094"/>
      </g>
     </g>
    </g>
    <g id="text_8">
     <!-- Strain(%) -->
     <g transform="translate(202.061563 316.706687) scale(0.1 -0.1)">
      <defs>
       <path id="DejaVuSans-53" d="M 3425 4513 
L 3425 3897 
Q 3066 4069 2747 4153 
Q 2428 4238 2131 4238 
Q 1616 4238 1336 4038 
Q 1056 3838 1056 3469 
Q 1056 3159 1242 3001 
Q 1428 2844 1947 2747 
L 2328 2669 
Q 3034 2534 3370 2195 
Q 3706 1856 3706 1288 
Q 3706 609 3251 259 
Q 2797 -91 1919 -91 
Q 1588 -91 1214 -16 
Q 841 59 441 206 
L 441 856 
Q 825 641 1194 531 
Q 1563 422 1919 422 
Q 2459 422 2753 634 
Q 3047 847 3047 1241 
Q 3047 1584 2836 1778 
Q 2625 1972 2144 2069 
L 1759 2144 
Q 1053 2284 737 2584 
Q 422 2884 422 3419 
Q 422 4038 858 4394 
Q 1294 4750 2059 4750 
Q 2388 4750 2728 4690 
Q 3069 4631 3425 4513 
z
" transform="scale(0.015625)"/>
       <path id="DejaVuSans-74" d="M 1172 4494 
L 1172 3500 
L 2356 3500 
L 2356 3053 
L 1172 3053 
L 1172 1153 
Q 1172 725 1289 603 
Q 1406 481 1766 481 
L 2356 481 
L 2356 0 
L 1766 0 
Q 1100 0 847 248 
Q 594 497 594 1153 
L 594 3053 
L 172 3053 
L 172 3500 
L 594 3500 
L 594 4494 
L 1172 4494 
z
" transform="scale(0.015625)"/>
       <path id="DejaVuSans-72" d="M 2631 2963 
Q 2534 3019 2420 3045 
Q 2306 3072 2169 3072 
Q 1681 3072 1420 2755 
Q 1159 2438 1159 1844 
L 1159 0 
L 581 0 
L 581 3500 
L 1159 3500 
L 1159 2956 
Q 1341 3275 1631 3429 
Q 1922 3584 2338 3584 
Q 2397 3584 2469 3576 
Q 2541 3569 2628 3553 
L 2631 2963 
z
" transform="scale(0.015625)"/>
       <path id="DejaVuSans-61" d="M 2194 1759 
Q 1497 1759 1228 1600 
Q 959 1441 959 1056 
Q 959 750 1161 570 
Q 1363 391 1709 391 
Q 2188 391 2477 730 
Q 2766 1069 2766 1631 
L 2766 1759 
L 2194 1759 
z
M 3341 1997 
L 3341 0 
L 2766 0 
L 2766 531 
Q 2569 213 2275 61 
Q 1981 -91 1556 -91 
Q 1019 -91 701 211 
Q 384 513 384 1019 
Q 384 1609 779 1909 
Q 1175 2209 1959 2209 
L 2766 2209 
L 2766 2266 
Q 2766 2663 2505 2880 
Q 2244 3097 1772 3097 
Q 1472 3097 1187 3025 
Q 903 2953 641 2809 
L 641 3341 
Q 956 3463 1253 3523 
Q 1550 3584 1831 3584 
Q 2591 3584 2966 3190 
Q 3341 2797 3341 1997 
z
" transform="scale(0.015625)"/>
       <path id="DejaVuSans-69" d="M 603 3500 
L 1178 3500 
L 1178 0 
L 603 0 
L 603 3500 
z
M 603 4863 
L 1178 4863 
L 1178 4134 
L 603 4134 
L 603 4863 
z
" transform="scale(0.015625)"/>
       <path id="DejaVuSans-6e" d="M 3513 2113 
L 3513 0 
L 2938 0 
L 2938 2094 
Q 2938 2591 2744 2837 
Q 2550 3084 2163 3084 
Q 1697 3084 1428 2787 
Q 1159 2491 1159 1978 
L 1159 0 
L 581 0 
L 581 3500 
L 1159 3500 
L 1159 2956 
Q 1366 3272 1645 3428 
Q 1925 3584 2291 3584 
Q 2894 3584 3203 3211 
Q 3513 2838 3513 2113 
z
" transform="scale(0.015625)"/>
       <path id="DejaVuSans-28" d="M 1984 4856 
Q 1566 4138 1362 3434 
Q 1159 2731 1159 2009 
Q 1159 1288 1364 580 
Q 1569 -128 1984 -844 
L 1484 -844 
Q 1016 -109 783 600 
Q 550 1309 550 2009 
Q 550 2706 781 3412 
Q 1013 4119 1484 4856 
L 1984 4856 
z
" transform="scale(0.015625)"/>
       <path id="DejaVuSans-25" d="M 4653 2053 
Q 4381 2053 4226 1822 
Q 4072 1591 4072 1178 
Q 4072 772 4226 539 
Q 4381 306 4653 306 
Q 4919 306 5073 539 
Q 5228 772 5228 1178 
Q 5228 1588 5073 1820 
Q 4919 2053 4653 2053 
z
M 4653 2450 
Q 5147 2450 5437 2106 
Q 5728 1763 5728 1178 
Q 5728 594 5436 251 
Q 5144 -91 4653 -91 
Q 4153 -91 3862 251 
Q 3572 594 3572 1178 
Q 3572 1766 3864 2108 
Q 4156 2450 4653 2450 
z
M 1428 4353 
Q 1159 4353 1004 4120 
Q 850 3888 850 3481 
Q 850 3069 1003 2837 
Q 1156 2606 1428 2606 
Q 1700 2606 1854 2837 
Q 2009 3069 2009 3481 
Q 2009 3884 1853 4118 
Q 1697 4353 1428 4353 
z
M 4250 4750 
L 4750 4750 
L 1831 -91 
L 1331 -91 
L 4250 4750 
z
M 1428 4750 
Q 1922 4750 2215 4408 
Q 2509 4066 2509 3481 
Q 2509 2891 2217 2550 
Q 1925 2209 1428 2209 
Q 931 2209 642 2551 
Q 353 2894 353 3481 
Q 353 4063 643 4406 
Q 934 4750 1428 4750 
z
" transform="scale(0.015625)"/>
       <path id="DejaVuSans-29" d="M 513 4856 
L 1013 4856 
Q 1481 4119 1714 3412 
Q 1947 2706 1947 2009 
Q 1947 1309 1714 600 
Q 1481 -109 1013 -844 
L 513 -844 
Q 928 -128 1133 580 
Q 1338 1288 1338 2009 
Q 1338 2731 1133 3434 
Q 928 4138 513 4856 
z
" transform="scale(0.015625)"/>
      </defs>
      <use xlink:href="#DejaVuSans-53"/>
      <use xlink:href="#DejaVuSans-74" x="63.476562"/>
      <use xlink:href="#DejaVuSans-72" x="102.685547"/>
      <use xlink:href="#DejaVuSans-61" x="143.798828"/>
      <use xlink:href="#DejaVuSans-69" x="205.078125"/>
      <use xlink:href="#DejaVuSans-6e" x="232.861328"/>
      <use xlink:href="#DejaVuSans-28" x="296.240234"/>
      <use xlink:href="#DejaVuSans-25" x="335.253906"/>
      <use xlink:href="#DejaVuSans-29" x="430.273438"/>
     </g>
    </g>
   </g>
   <g id="matplotlib.axis_2">
    <g id="ytick_1">
     <g id="line2d_8">
      <defs>
       <path id="m523aff8c9f" d="M 0 0 
L -3.5 0 
" style="stroke: #000000; stroke-width: 0.8"/>
      </defs>
      <g>
       <use xlink:href="#m523aff8c9f" x="46.965625" y="288.430125" style="stroke: #000000; stroke-width: 0.8"/>
      </g>
     </g>
     <g id="text_9">
      <!-- 0 -->
      <g transform="translate(33.603125 292.229344) scale(0.1 -0.1)">
       <use xlink:href="#DejaVuSans-30"/>
      </g>
     </g>
    </g>
    <g id="ytick_2">
     <g id="line2d_9">
      <g>
       <use xlink:href="#m523aff8c9f" x="46.965625" y="250.414125" style="stroke: #000000; stroke-width: 0.8"/>
      </g>
     </g>
     <g id="text_10">
      <!-- 100 -->
      <g transform="translate(20.878125 254.213344) scale(0.1 -0.1)">
       <use xlink:href="#DejaVuSans-31"/>
       <use xlink:href="#DejaVuSans-30" x="63.623047"/>
       <use xlink:href="#DejaVuSans-30" x="127.246094"/>
      </g>
     </g>
    </g>
    <g id="ytick_3">
     <g id="line2d_10">
      <g>
       <use xlink:href="#m523aff8c9f" x="46.965625" y="212.398125" style="stroke: #000000; stroke-width: 0.8"/>
      </g>
     </g>
     <g id="text_11">
      <!-- 200 -->
      <g transform="translate(20.878125 216.197344) scale(0.1 -0.1)">
       <use xlink:href="#DejaVuSans-32"/>
       <use xlink:href="#DejaVuSans-30" x="63.623047"/>
       <use xlink:href="#DejaVuSans-30" x="127.246094"/>
      </g>
     </g>
    </g>
    <g id="ytick_4">
     <g id="line2d_11">
      <g>
       <use xlink:href="#m523aff8c9f" x="46.965625" y="174.382125" style="stroke: #000000; stroke-width: 0.8"/>
      </g>
     </g>
     <g id="text_12">
      <!-- 300 -->
      <g transform="translate(20.878125 178.181344) scale(0.1 -0.1)">
       <use xlink:href="#DejaVuSans-33"/>
       <use xlink:href="#DejaVuSans-30" x="63.623047"/>
       <use xlink:href="#DejaVuSans-30" x="127.246094"/>
      </g>
     </g>
    </g>
    <g id="ytick_5">
     <g id="line2d_12">
      <g>
       <use xlink:href="#m523aff8c9f" x="46.965625" y="136.366125" style="stroke: #000000; stroke-width: 0.8"/>
      </g>
     </g>
     <g id="text_13">
      <!-- 400 -->
      <g transform="translate(20.878125 140.165344) scale(0.1 -0.1)">
       <defs>
        <path id="DejaVuSans-34" d="M 2419 4116 
L 825 1625 
L 2419 1625 
L 2419 4116 
z
M 2253 4666 
L 3047 4666 
L 3047 1625 
L 3713 1625 
L 3713 1100 
L 3047 1100 
L 3047 0 
L 2419 0 
L 2419 1100 
L 313 1100 
L 313 1709 
L 2253 4666 
z
" transform="scale(0.015625)"/>
       </defs>
       <use xlink:href="#DejaVuSans-34"/>
       <use xlink:href="#DejaVuSans-30" x="63.623047"/>
       <use xlink:href="#DejaVuSans-30" x="127.246094"/>
      </g>
     </g>
    </g>
    <g id="ytick_6">
     <g id="line2d_13">
      <g>
       <use xlink:href="#m523aff8c9f" x="46.965625" y="98.350125" style="stroke: #000000; stroke-width: 0.8"/>
      </g>
     </g>
     <g id="text_14">
      <!-- 500 -->
      <g transform="translate(20.878125 102.149344) scale(0.1 -0.1)">
       <use xlink:href="#DejaVuSans-35"/>
       <use xlink:href="#DejaVuSans-30" x="63.623047"/>
       <use xlink:href="#DejaVuSans-30" x="127.246094"/>
      </g>
     </g>
    </g>
    <g id="ytick_7">
     <g id="line2d_14">
      <g>
       <use xlink:href="#m523aff8c9f" x="46.965625" y="60.334125" style="stroke: #000000; stroke-width: 0.8"/>
      </g>
     </g>
     <g id="text_15">
      <!-- 600 -->
      <g transform="translate(20.878125 64.133344) scale(0.1 -0.1)">
       <defs>
        <path id="DejaVuSans-36" d="M 2113 2584 
Q 1688 2584 1439 2293 
Q 1191 2003 1191 1497 
Q 1191 994 1439 701 
Q 1688 409 2113 409 
Q 2538 409 2786 701 
Q 3034 994 3034 1497 
Q 3034 2003 2786 2293 
Q 2538 2584 2113 2584 
z
M 3366 4563 
L 3366 3988 
Q 3128 4100 2886 4159 
Q 2644 4219 2406 4219 
Q 1781 4219 1451 3797 
Q 1122 3375 1075 2522 
Q 1259 2794 1537 2939 
Q 1816 3084 2150 3084 
Q 2853 3084 3261 2657 
Q 3669 2231 3669 1497 
Q 3669 778 3244 343 
Q 2819 -91 2113 -91 
Q 1303 -91 875 529 
Q 447 1150 447 2328 
Q 447 3434 972 4092 
Q 1497 4750 2381 4750 
Q 2619 4750 2861 4703 
Q 3103 4656 3366 4563 
z
" transform="scale(0.015625)"/>
       </defs>
       <use xlink:href="#DejaVuSans-36"/>
       <use xlink:href="#DejaVuSans-30" x="63.623047"/>
       <use xlink:href="#DejaVuSans-30" x="127.246094"/>
      </g>
     </g>
    </g>
    <g id="ytick_8">
     <g id="line2d_15">
      <g>
       <use xlink:href="#m523aff8c9f" x="46.965625" y="22.318125" style="stroke: #000000; stroke-width: 0.8"/>
      </g>
     </g>
     <g id="text_16">
      <!-- 700 -->
      <g transform="translate(20.878125 26.117344) scale(0.1 -0.1)">
       <defs>
        <path id="DejaVuSans-37" d="M 525 4666 
L 3525 4666 
L 3525 4397 
L 1831 0 
L 1172 0 
L 2766 4134 
L 525 4134 
L 525 4666 
z
" transform="scale(0.015625)"/>
       </defs>
       <use xlink:href="#DejaVuSans-37"/>
       <use xlink:href="#DejaVuSans-30" x="63.623047"/>
       <use xlink:href="#DejaVuSans-30" x="127.246094"/>
      </g>
     </g>
    </g>
    <g id="text_17">
     <!-- Stress(MPa) -->
     <g transform="translate(14.798438 184.806937) rotate(-90) scale(0.1 -0.1)">
      <defs>
       <path id="DejaVuSans-65" d="M 3597 1894 
L 3597 1613 
L 953 1613 
Q 991 1019 1311 708 
Q 1631 397 2203 397 
Q 2534 397 2845 478 
Q 3156 559 3463 722 
L 3463 178 
Q 3153 47 2828 -22 
Q 2503 -91 2169 -91 
Q 1331 -91 842 396 
Q 353 884 353 1716 
Q 353 2575 817 3079 
Q 1281 3584 2069 3584 
Q 2775 3584 3186 3129 
Q 3597 2675 3597 1894 
z
M 3022 2063 
Q 3016 2534 2758 2815 
Q 2500 3097 2075 3097 
Q 1594 3097 1305 2825 
Q 1016 2553 972 2059 
L 3022 2063 
z
" transform="scale(0.015625)"/>
       <path id="DejaVuSans-73" d="M 2834 3397 
L 2834 2853 
Q 2591 2978 2328 3040 
Q 2066 3103 1784 3103 
Q 1356 3103 1142 2972 
Q 928 2841 928 2578 
Q 928 2378 1081 2264 
Q 1234 2150 1697 2047 
L 1894 2003 
Q 2506 1872 2764 1633 
Q 3022 1394 3022 966 
Q 3022 478 2636 193 
Q 2250 -91 1575 -91 
Q 1294 -91 989 -36 
Q 684 19 347 128 
L 347 722 
Q 666 556 975 473 
Q 1284 391 1588 391 
Q 1994 391 2212 530 
Q 2431 669 2431 922 
Q 2431 1156 2273 1281 
Q 2116 1406 1581 1522 
L 1381 1569 
Q 847 1681 609 1914 
Q 372 2147 372 2553 
Q 372 3047 722 3315 
Q 1072 3584 1716 3584 
Q 2034 3584 2315 3537 
Q 2597 3491 2834 3397 
z
" transform="scale(0.015625)"/>
       <path id="DejaVuSans-4d" d="M 628 4666 
L 1569 4666 
L 2759 1491 
L 3956 4666 
L 4897 4666 
L 4897 0 
L 4281 0 
L 4281 4097 
L 3078 897 
L 2444 897 
L 1241 4097 
L 1241 0 
L 628 0 
L 628 4666 
z
" transform="scale(0.015625)"/>
       <path id="DejaVuSans-50" d="M 1259 4147 
L 1259 2394 
L 2053 2394 
Q 2494 2394 2734 2622 
Q 2975 2850 2975 3272 
Q 2975 3691 2734 3919 
Q 2494 4147 2053 4147 
L 1259 4147 
z
M 628 4666 
L 2053 4666 
Q 2838 4666 3239 4311 
Q 3641 3956 3641 3272 
Q 3641 2581 3239 2228 
Q 2838 1875 2053 1875 
L 1259 1875 
L 1259 0 
L 628 0 
L 628 4666 
z
" transform="scale(0.015625)"/>
      </defs>
      <use xlink:href="#DejaVuSans-53"/>
      <use xlink:href="#DejaVuSans-74" x="63.476562"/>
      <use xlink:href="#DejaVuSans-72" x="102.685547"/>
      <use xlink:href="#DejaVuSans-65" x="141.548828"/>
      <use xlink:href="#DejaVuSans-73" x="203.072266"/>
      <use xlink:href="#DejaVuSans-73" x="255.171875"/>
      <use xlink:href="#DejaVuSans-28" x="307.271484"/>
      <use xlink:href="#DejaVuSans-4d" x="346.285156"/>
      <use xlink:href="#DejaVuSans-50" x="432.564453"/>
      <use xlink:href="#DejaVuSans-61" x="488.367188"/>
      <use xlink:href="#DejaVuSans-29" x="549.646484"/>
     </g>
    </g>
   </g>
   <g id="line2d_16">
    <path d="M 48.15207 288.430125 
L 51.408945 296.530908 
L 54.665819 285.202095 
L 57.922805 290.687208 
L 61.17968 267.906329 
L 64.436666 213.443286 
L 67.693428 237.60398 
L 70.950415 254.462369 
L 74.20729 246.404701 
L 77.464164 245.821248 
L 80.721149 272.642823 
L 83.978024 223.527133 
L 87.235011 224.051102 
L 90.491886 276.411252 
L 93.748871 235.422928 
L 97.005635 211.415614 
L 100.26262 191.891355 
L 103.519495 216.082743 
L 106.776484 245.189188 
L 110.033354 176.146286 
L 113.290344 217.673881 
L 116.547218 198.261084 
L 119.804203 212.640598 
L 123.060963 208.201218 
L 126.317952 189.004132 
L 129.574827 192.104283 
L 132.831816 166.738218 
L 136.088691 162.999545 
L 139.345672 194.266369 
L 142.602546 174.067916 
L 145.859536 169.30536 
L 149.11641 200.221478 
L 152.373285 178.504391 
L 155.630159 170.117575 
L 158.887149 224.935526 
L 162.144023 207.323487 
L 165.400898 150.932402 
L 168.657879 166.66183 
L 171.914753 212.275848 
L 175.171743 189.738392 
L 178.428617 152.14479 
L 181.685492 151.269745 
L 184.942366 218.208834 
L 188.199347 158.525769 
L 191.456222 207.740352 
L 194.713211 167.628993 
L 197.970086 198.749389 
L 201.227075 178.05062 
L 204.483941 194.61336 
L 207.74093 222.633445 
L 210.99769 183.942783 
L 214.254679 221.650362 
L 217.511563 185.148226 
L 220.768535 222.425648 
L 224.025418 164.954835 
L 227.282407 176.065259 
L 230.539273 191.261694 
L 233.796263 245.79463 
L 237.053022 177.250936 
L 240.310012 130.021195 
L 243.566895 154.593341 
L 246.823867 162.296461 
L 250.08075 154.494118 
L 253.33774 154.530204 
L 256.594606 126.997579 
L 259.851489 144.503154 
L 263.108478 171.071567 
L 266.365238 166.514303 
L 269.622228 184.775118 
L 272.879093 185.551985 
L 276.136083 143.800155 
L 279.392948 168.958497 
L 282.649938 138.333071 
L 285.906821 179.417857 
L 289.163793 156.919146 
L 292.420677 167.574897 
L 295.677542 122.208033 
L 298.934426 212.582621 
L 302.191415 170.222934 
L 305.448281 151.245181 
L 308.70527 146.993245 
L 311.962154 135.545884 
L 315.219125 113.174872 
L 318.476009 105.272777 
L 321.732875 137.174269 
L 324.989758 155.118103 
L 328.246747 174.016645 
L 331.503613 134.590318 
L 334.760603 133.184585 
L 338.017486 168.74431 
L 341.274458 125.562648 
L 344.531341 143.692626 
L 347.788207 162.61765 
L 351.045073 110.791588 
L 354.301974 194.408993 
L 357.558946 211.233551 
L 360.815811 146.787011 
L 364.072818 175.978885 
L 367.329684 124.782931 
L 370.586656 157.833123 
L 373.843557 141.42722 
L 377.100529 141.922873 
L 380.357289 132.874794 
L 383.614296 108.690851 
L 386.871161 124.563065 
L 390.128133 144.513447 
L 393.384999 179.485057 
L 396.642006 135.671779 
L 399.898872 149.130765 
L 403.155879 118.798795 
L 406.412745 160.342044 
L 409.66961 116.483644 
L 412.926476 174.032071 
L 416.183483 126.140589 
L 419.440349 150.865152 
L 421.829375 118.23282 
L 421.829375 118.23282 
" clip-path="url(#p64360efcec)" style="fill: none; stroke: #1f77b4; stroke-width: 1.5; stroke-linecap: square"/>
   </g>
   <g id="line2d_17">
    <path d="M 48.15207 288.430125 
L 51.266294 266.857697 
L 54.380518 273.18733 
L 57.494852 269.391269 
L 60.609076 252.351424 
L 63.723409 266.167775 
L 66.837742 254.290081 
L 69.951966 281.552595 
L 73.0663 227.701544 
L 76.180524 250.769259 
L 79.294748 203.646011 
L 82.409082 203.895657 
L 85.523304 196.697873 
L 88.637749 188.056014 
L 91.751973 221.662794 
L 94.866196 248.926961 
L 97.980531 195.336645 
L 101.094755 229.419886 
L 104.209089 217.843348 
L 107.323313 169.931436 
L 110.437536 233.356182 
L 113.551977 169.230868 
L 116.666201 192.594432 
L 119.780535 144.955816 
L 126.008987 231.761421 
L 129.123321 204.763462 
L 132.237541 200.507373 
L 135.351875 204.495141 
L 138.466209 242.995467 
L 141.580429 214.702737 
L 144.694763 212.55586 
L 147.808991 246.322646 
L 150.923211 188.382856 
L 154.037545 188.8827 
L 157.151879 200.729386 
L 160.266214 153.887153 
L 163.380442 224.574113 
L 166.494661 199.525879 
L 169.608996 169.606155 
L 172.723224 227.906872 
L 175.837549 185.035516 
L 178.951884 170.257449 
L 182.066112 238.96482 
L 185.180446 149.311844 
L 188.294665 217.04719 
L 191.408894 238.391138 
L 194.523228 147.58347 
L 197.637447 204.875462 
L 200.751888 181.709103 
L 203.866116 169.973198 
L 206.980344 195.759512 
L 210.094679 124.328019 
L 213.208889 147.388135 
L 216.323223 182.719345 
L 219.437452 162.747759 
L 222.551786 177.872699 
L 225.66612 142.923485 
L 228.780349 186.084562 
L 231.894683 185.182235 
L 235.008911 158.687041 
L 238.123122 154.739403 
L 241.237456 140.742436 
L 244.35179 154.094885 
L 247.466018 131.905979 
L 250.580353 153.293579 
L 253.694581 170.813757 
L 256.808915 174.319371 
L 259.923126 139.657171 
L 263.037354 157.000532 
L 266.151795 215.774071 
L 269.266023 131.379053 
L 272.380357 138.515006 
L 275.494585 160.407327 
L 278.608814 138.840681 
L 281.723148 120.105077 
L 284.837358 113.266031 
L 287.951799 177.023255 
L 291.066027 137.665757 
L 294.180255 157.219544 
L 297.29459 173.851669 
L 300.408818 145.588056 
L 303.523152 131.894666 
L 306.637363 168.77466 
L 309.751591 167.339692 
L 312.866031 229.090596 
L 315.980259 150.590836 
L 319.094488 179.27918 
L 322.208822 135.176024 
L 325.32305 180.589172 
L 328.437367 185.744527 
L 331.551595 136.053829 
L 334.665929 183.352408 
L 337.780264 80.753621 
L 340.894492 125.754421 
L 344.008826 162.646891 
L 347.123037 165.72998 
L 350.237265 115.266776 
L 353.351599 117.424376 
L 356.465934 134.545777 
L 359.580268 150.320284 
L 362.694496 143.867776 
L 365.808724 122.54371 
L 368.923059 128.552267 
L 372.037287 101.090411 
L 375.151515 121.564299 
L 378.265956 160.196259 
L 381.380184 113.071537 
L 384.494518 150.832497 
L 387.608711 157.736688 
L 390.722939 156.700952 
L 393.837274 145.023535 
L 396.951502 109.404416 
L 400.065942 144.123067 
L 403.18017 144.168595 
L 406.294399 131.748098 
L 409.408733 165.174903 
L 412.522961 152.389106 
L 415.637296 110.809025 
L 418.751524 147.066269 
L 421.829375 122.245074 
L 421.829375 122.245074 
" clip-path="url(#p64360efcec)" style="fill: none; stroke: #ff7f0e; stroke-width: 1.5; stroke-linecap: square"/>
   </g>
   <g id="line2d_18">
    <path d="M 48.15207 288.430125 
L 51.294427 262.394893 
L 54.436784 313.395826 
L 57.57936 267.666056 
L 60.721826 298.887571 
L 63.864293 233.64623 
L 67.006649 261.403187 
L 70.149116 273.320087 
L 73.291583 281.721179 
L 76.434049 239.542749 
L 79.576405 236.355908 
L 82.718872 237.471453 
L 85.861339 259.071327 
L 89.003805 208.046814 
L 92.146272 236.72287 
L 95.288628 173.319689 
L 98.431095 258.042797 
L 101.573562 205.813519 
L 104.716028 234.718182 
L 107.858384 211.773512 
L 111.000851 221.422962 
L 114.143318 232.030932 
L 117.285784 216.641215 
L 120.428362 191.61347 
L 123.570713 216.041441 
L 126.713184 146.872332 
L 129.855647 205.173724 
L 132.998118 212.207574 
L 136.140474 185.038908 
L 139.282936 165.858837 
L 142.425407 169.109716 
L 145.56787 219.696556 
L 148.710341 167.280389 
L 151.852697 209.65028 
L 154.995159 160.62341 
L 158.13763 150.192751 
L 161.280092 151.507929 
L 164.422449 154.109741 
L 167.56492 207.875798 
L 170.707382 145.198365 
L 173.849853 169.842538 
L 176.992209 162.417966 
L 180.134672 153.15345 
L 183.277143 145.349634 
L 186.41972 144.923784 
L 189.562182 142.687574 
L 192.704538 154.945301 
L 195.847009 139.831627 
L 198.98948 174.772565 
L 202.131943 187.620096 
L 205.274299 98.635193 
L 208.416761 145.006856 
L 211.559223 171.818753 
L 214.701703 164.110603 
L 217.844165 191.084995 
L 220.986522 156.597043 
L 224.128984 197.44409 
L 227.271446 161.992935 
L 230.413908 156.293327 
L 233.556282 158.735065 
L 236.698745 113.990024 
L 239.841207 143.204175 
L 242.983669 127.355751 
L 246.126025 190.639439 
L 249.268505 128.428348 
L 252.411073 102.728612 
L 255.553536 192.85423 
L 258.695998 114.714481 
L 261.838354 123.090966 
L 264.980834 146.847516 
L 268.123296 121.268212 
L 271.265759 153.502217 
L 274.408115 141.596564 
L 277.550577 127.459149 
L 280.693057 159.968493 
L 283.835519 134.615579 
L 286.977981 120.843316 
L 290.120338 151.142835 
L 293.2628 105.363272 
L 296.40528 135.215667 
L 299.547742 154.691084 
L 302.690098 97.285363 
L 305.83256 131.32954 
L 308.975023 124.134186 
L 312.117503 134.12878 
L 315.260071 107.371268 
L 318.402427 126.155901 
L 321.544889 100.43143 
L 324.687369 98.420822 
L 327.829832 119.253378 
L 330.972188 145.009426 
L 334.11465 114.686911 
L 337.257112 124.679001 
L 340.399592 123.752213 
L 343.541948 140.813418 
L 346.684411 85.253121 
L 349.826891 124.272 
L 352.969335 140.099172 
L 356.111815 121.821879 
L 359.254154 122.335142 
L 362.396634 147.242707 
L 365.539113 162.78769 
L 368.681558 133.598563 
L 371.823932 95.709693 
L 374.966376 153.052088 
L 378.108856 115.129405 
L 381.251442 184.893624 
L 384.393887 82.249028 
L 387.536261 154.102815 
L 390.678705 144.692165 
L 393.821185 125.843322 
L 396.963665 119.876828 
L 400.106004 157.953136 
L 403.248484 118.910427 
L 406.390928 146.843354 
L 409.533408 159.981899 
L 412.675888 218.338329 
L 415.818227 195.693757 
L 418.960707 203.509071 
L 421.829375 167.27681 
L 421.829375 167.27681 
" clip-path="url(#p64360efcec)" style="fill: none; stroke: #2ca02c; stroke-width: 1.5; stroke-linecap: square"/>
   </g>
   <g id="patch_3">
    <path d="M 46.965625 288.430125 
L 46.965625 22.318125 
" style="fill: none; stroke: #000000; stroke-width: 0.8; stroke-linejoin: miter; stroke-linecap: square"/>
   </g>
   <g id="patch_4">
    <path d="M 404.085625 288.430125 
L 404.085625 22.318125 
" style="fill: none; stroke: #000000; stroke-width: 0.8; stroke-linejoin: miter; stroke-linecap: square"/>
   </g>
   <g id="patch_5">
    <path d="M 46.965625 288.430125 
L 404.085625 288.430125 
" style="fill: none; stroke: #000000; stroke-width: 0.8; stroke-linejoin: miter; stroke-linecap: square"/>
   </g>
   <g id="patch_6">
    <path d="M 46.965625 22.318125 
L 404.085625 22.318125 
" style="fill: none; stroke: #000000; stroke-width: 0.8; stroke-linejoin: miter; stroke-linecap: square"/>
   </g>
   <g id="text_18">
    <!-- Stress-Strain Curve -->
    <g transform="translate(167.542188 16.318125) scale(0.12 -0.12)">
     <defs>
      <path id="DejaVuSans-2d" d="M 313 2009 
L 1997 2009 
L 1997 1497 
L 313 1497 
L 313 2009 
z
" transform="scale(0.015625)"/>
      <path id="DejaVuSans-20" transform="scale(0.015625)"/>
      <path id="DejaVuSans-43" d="M 4122 4306 
L 4122 3641 
Q 3803 3938 3442 4084 
Q 3081 4231 2675 4231 
Q 1875 4231 1450 3742 
Q 1025 3253 1025 2328 
Q 1025 1406 1450 917 
Q 1875 428 2675 428 
Q 3081 428 3442 575 
Q 3803 722 4122 1019 
L 4122 359 
Q 3791 134 3420 21 
Q 3050 -91 2638 -91 
Q 1578 -91 968 557 
Q 359 1206 359 2328 
Q 359 3453 968 4101 
Q 1578 4750 2638 4750 
Q 3056 4750 3426 4639 
Q 3797 4528 4122 4306 
z
" transform="scale(0.015625)"/>
      <path id="DejaVuSans-75" d="M 544 1381 
L 544 3500 
L 1119 3500 
L 1119 1403 
Q 1119 906 1312 657 
Q 1506 409 1894 409 
Q 2359 409 2629 706 
Q 2900 1003 2900 1516 
L 2900 3500 
L 3475 3500 
L 3475 0 
L 2900 0 
L 2900 538 
Q 2691 219 2414 64 
Q 2138 -91 1772 -91 
Q 1169 -91 856 284 
Q 544 659 544 1381 
z
M 1991 3584 
L 1991 3584 
z
" transform="scale(0.015625)"/>
      <path id="DejaVuSans-76" d="M 191 3500 
L 800 3500 
L 1894 563 
L 2988 3500 
L 3597 3500 
L 2284 0 
L 1503 0 
L 191 3500 
z
" transform="scale(0.015625)"/>
     </defs>
     <use xlink:href="#DejaVuSans-53"/>
     <use xlink:href="#DejaVuSans-74" x="63.476562"/>
     <use xlink:href="#DejaVuSans-72" x="102.685547"/>
     <use xlink:href="#DejaVuSans-65" x="141.548828"/>
     <use xlink:href="#DejaVuSans-73" x="203.072266"/>
     <use xlink:href="#DejaVuSans-73" x="255.171875"/>
     <use xlink:href="#DejaVuSans-2d" x="307.271484"/>
     <use xlink:href="#DejaVuSans-53" x="343.355469"/>
     <use xlink:href="#DejaVuSans-74" x="406.832031"/>
     <use xlink:href="#DejaVuSans-72" x="446.041016"/>
     <use xlink:href="#DejaVuSans-61" x="487.154297"/>
     <use xlink:href="#DejaVuSans-69" x="548.433594"/>
     <use xlink:href="#DejaVuSans-6e" x="576.216797"/>
     <use xlink:href="#DejaVuSans-20" x="639.595703"/>
     <use xlink:href="#DejaVuSans-43" x="671.382812"/>
     <use xlink:href="#DejaVuSans-75" x="741.207031"/>
     <use xlink:href="#DejaVuSans-72" x="804.585938"/>
     <use xlink:href="#DejaVuSans-76" x="845.699219"/>
     <use xlink:href="#DejaVuSans-65" x="904.878906"/>
    </g>
   </g>
   <g id="legend_1">
    <g id="patch_7">
     <path d="M 326.32 75.186875 
L 397.085625 75.186875 
Q 399.085625 75.186875 399.085625 73.186875 
L 399.085625 29.318125 
Q 399.085625 27.318125 397.085625 27.318125 
L 326.32 27.318125 
Q 324.32 27.318125 324.32 29.318125 
L 324.32 73.186875 
Q 324.32 75.186875 326.32 75.186875 
z
" style="fill: #ffffff; opacity: 0.8; stroke: #cccccc; stroke-linejoin: miter"/>
    </g>
    <g id="line2d_19">
     <path d="M 328.32 35.416562 
L 338.32 35.416562 
L 348.32 35.416562 
" style="fill: none; stroke: #1f77b4; stroke-width: 1.5; stroke-linecap: square"/>
    </g>
    <g id="text_19">
     <!-- FS1M_X -->
     <g transform="translate(356.32 38.916562) scale(0.1 -0.1)">
      <defs>
       <path id="DejaVuSans-46" d="M 628 4666 
L 3309 4666 
L 3309 4134 
L 1259 4134 
L 1259 2759 
L 3109 2759 
L 3109 2228 
L 1259 2228 
L 1259 0 
L 628 0 
L 628 4666 
z
" transform="scale(0.015625)"/>
       <path id="DejaVuSans-5f" d="M 3263 -1063 
L 3263 -1509 
L -63 -1509 
L -63 -1063 
L 3263 -1063 
z
" transform="scale(0.015625)"/>
       <path id="DejaVuSans-58" d="M 403 4666 
L 1081 4666 
L 2241 2931 
L 3406 4666 
L 4084 4666 
L 2584 2425 
L 4184 0 
L 3506 0 
L 2194 1984 
L 872 0 
L 191 0 
L 1856 2491 
L 403 4666 
z
" transform="scale(0.015625)"/>
      </defs>
      <use xlink:href="#DejaVuSans-46"/>
      <use xlink:href="#DejaVuSans-53" x="55.769531"/>
      <use xlink:href="#DejaVuSans-31" x="119.246094"/>
      <use xlink:href="#DejaVuSans-4d" x="182.869141"/>
      <use xlink:href="#DejaVuSans-5f" x="269.148438"/>
      <use xlink:href="#DejaVuSans-58" x="319.148438"/>
     </g>
    </g>
    <g id="line2d_20">
     <path d="M 328.32 50.372813 
L 338.32 50.372813 
L 348.32 50.372813 
" style="fill: none; stroke: #ff7f0e; stroke-width: 1.5; stroke-linecap: square"/>
    </g>
    <g id="text_20">
     <!-- FS1M_Y -->
     <g transform="translate(356.32 53.872813) scale(0.1 -0.1)">
      <defs>
       <path id="DejaVuSans-59" d="M -13 4666 
L 666 4666 
L 1959 2747 
L 3244 4666 
L 3922 4666 
L 2272 2222 
L 2272 0 
L 1638 0 
L 1638 2222 
L -13 4666 
z
" transform="scale(0.015625)"/>
      </defs>
      <use xlink:href="#DejaVuSans-46"/>
      <use xlink:href="#DejaVuSans-53" x="55.769531"/>
      <use xlink:href="#DejaVuSans-31" x="119.246094"/>
      <use xlink:href="#DejaVuSans-4d" x="182.869141"/>
      <use xlink:href="#DejaVuSans-5f" x="269.148438"/>
      <use xlink:href="#DejaVuSans-59" x="319.148438"/>
     </g>
    </g>
    <g id="line2d_21">
     <path d="M 328.32 65.329063 
L 338.32 65.329063 
L 348.32 65.329063 
" style="fill: none; stroke: #2ca02c; stroke-width: 1.5; stroke-linecap: square"/>
    </g>
    <g id="text_21">
     <!-- FS1M_Z -->
     <g transform="translate(356.32 68.829063) scale(0.1 -0.1)">
      <defs>
       <path id="DejaVuSans-5a" d="M 359 4666 
L 4025 4666 
L 4025 4184 
L 1075 531 
L 4097 531 
L 4097 0 
L 288 0 
L 288 481 
L 3238 4134 
L 359 4134 
L 359 4666 
z
" transform="scale(0.015625)"/>
      </defs>
      <use xlink:href="#DejaVuSans-46"/>
      <use xlink:href="#DejaVuSans-53" x="55.769531"/>
      <use xlink:href="#DejaVuSans-31" x="119.246094"/>
      <use xlink:href="#DejaVuSans-4d" x="182.869141"/>
      <use xlink:href="#DejaVuSans-5f" x="269.148438"/>
      <use xlink:href="#DejaVuSans-5a" x="319.148438"/>
     </g>
    </g>
   </g>
  </g>
 </g>
 <defs>
  <clipPath id="p64360efcec">
   <rect x="46.965625" y="22.318125" width="357.12" height="266.112"/>
  </clipPath>
 </defs>
</svg>
