<?xml version="1.0" encoding="utf-8" standalone="no"?>
<!DOCTYPE svg PUBLIC "-//W3C//DTD SVG 1.1//EN"
  "http://www.w3.org/Graphics/SVG/1.1/DTD/svg11.dtd">
<svg xmlns:xlink="http://www.w3.org/1999/xlink" width="427.191875pt" height="325.986375pt" viewBox="0 0 427.191875 325.986375" xmlns="http://www.w3.org/2000/svg" version="1.1">
 <metadata>
  <rdf:RDF xmlns:dc="http://purl.org/dc/elements/1.1/" xmlns:cc="http://creativecommons.org/ns#" xmlns:rdf="http://www.w3.org/1999/02/22-rdf-syntax-ns#">
   <cc:Work>
    <dc:type rdf:resource="http://purl.org/dc/dcmitype/StillImage"/>
    <dc:date>2025-01-20T15:37:56.639995</dc:date>
    <dc:format>image/svg+xml</dc:format>
    <dc:creator>
     <cc:Agent>
      <dc:title>Matplotlib v3.9.0, https://matplotlib.org/</dc:title>
     </cc:Agent>
    </dc:creator>
   </cc:Work>
  </rdf:RDF>
 </metadata>
 <defs>
  <style type="text/css">*{stroke-linejoin: round; stroke-linecap: butt}</style>
 </defs>
 <g id="figure_1">
  <g id="patch_1">
   <path d="M 0 325.986375 
L 427.191875 325.986375 
L 427.191875 0 
L 0 0 
z
" style="fill: #ffffff"/>
  </g>
  <g id="axes_1">
   <g id="patch_2">
    <path d="M 53.328125 288.430125 
L 410.448125 288.430125 
L 410.448125 22.318125 
L 53.328125 22.318125 
z
" style="fill: #ffffff"/>
   </g>
   <g id="matplotlib.axis_1">
    <g id="xtick_1">
     <g id="line2d_1">
      <defs>
       <path id="mbbc3a0768b" d="M 0 0 
L 0 3.5 
" style="stroke: #000000; stroke-width: 0.8"/>
      </defs>
      <g>
       <use xlink:href="#mbbc3a0768b" x="55.546262" y="288.430125" style="stroke: #000000; stroke-width: 0.8"/>
      </g>
     </g>
     <g id="text_1">
      <!-- 100 -->
      <g transform="translate(46.002512 303.028562) scale(0.1 -0.1)">
       <defs>
        <path id="DejaVuSans-31" d="M 794 531 
L 1825 531 
L 1825 4091 
L 703 3866 
L 703 4441 
L 1819 4666 
L 2450 4666 
L 2450 531 
L 3481 531 
L 3481 0 
L 794 0 
L 794 531 
z
" transform="scale(0.015625)"/>
        <path id="DejaVuSans-30" d="M 2034 4250 
Q 1547 4250 1301 3770 
Q 1056 3291 1056 2328 
Q 1056 1369 1301 889 
Q 1547 409 2034 409 
Q 2525 409 2770 889 
Q 3016 1369 3016 2328 
Q 3016 3291 2770 3770 
Q 2525 4250 2034 4250 
z
M 2034 4750 
Q 2819 4750 3233 4129 
Q 3647 3509 3647 2328 
Q 3647 1150 3233 529 
Q 2819 -91 2034 -91 
Q 1250 -91 836 529 
Q 422 1150 422 2328 
Q 422 3509 836 4129 
Q 1250 4750 2034 4750 
z
" transform="scale(0.015625)"/>
       </defs>
       <use xlink:href="#DejaVuSans-31"/>
       <use xlink:href="#DejaVuSans-30" x="63.623047"/>
       <use xlink:href="#DejaVuSans-30" x="127.246094"/>
      </g>
     </g>
    </g>
    <g id="xtick_2">
     <g id="line2d_2">
      <g>
       <use xlink:href="#mbbc3a0768b" x="99.908995" y="288.430125" style="stroke: #000000; stroke-width: 0.8"/>
      </g>
     </g>
     <g id="text_2">
      <!-- 120 -->
      <g transform="translate(90.365245 303.028562) scale(0.1 -0.1)">
       <defs>
        <path id="DejaVuSans-32" d="M 1228 531 
L 3431 531 
L 3431 0 
L 469 0 
L 469 531 
Q 828 903 1448 1529 
Q 2069 2156 2228 2338 
Q 2531 2678 2651 2914 
Q 2772 3150 2772 3378 
Q 2772 3750 2511 3984 
Q 2250 4219 1831 4219 
Q 1534 4219 1204 4116 
Q 875 4013 500 3803 
L 500 4441 
Q 881 4594 1212 4672 
Q 1544 4750 1819 4750 
Q 2544 4750 2975 4387 
Q 3406 4025 3406 3419 
Q 3406 3131 3298 2873 
Q 3191 2616 2906 2266 
Q 2828 2175 2409 1742 
Q 1991 1309 1228 531 
z
" transform="scale(0.015625)"/>
       </defs>
       <use xlink:href="#DejaVuSans-31"/>
       <use xlink:href="#DejaVuSans-32" x="63.623047"/>
       <use xlink:href="#DejaVuSans-30" x="127.246094"/>
      </g>
     </g>
    </g>
    <g id="xtick_3">
     <g id="line2d_3">
      <g>
       <use xlink:href="#mbbc3a0768b" x="144.271727" y="288.430125" style="stroke: #000000; stroke-width: 0.8"/>
      </g>
     </g>
     <g id="text_3">
      <!-- 140 -->
      <g transform="translate(134.727977 303.028562) scale(0.1 -0.1)">
       <defs>
        <path id="DejaVuSans-34" d="M 2419 4116 
L 825 1625 
L 2419 1625 
L 2419 4116 
z
M 2253 4666 
L 3047 4666 
L 3047 1625 
L 3713 1625 
L 3713 1100 
L 3047 1100 
L 3047 0 
L 2419 0 
L 2419 1100 
L 313 1100 
L 313 1709 
L 2253 4666 
z
" transform="scale(0.015625)"/>
       </defs>
       <use xlink:href="#DejaVuSans-31"/>
       <use xlink:href="#DejaVuSans-34" x="63.623047"/>
       <use xlink:href="#DejaVuSans-30" x="127.246094"/>
      </g>
     </g>
    </g>
    <g id="xtick_4">
     <g id="line2d_4">
      <g>
       <use xlink:href="#mbbc3a0768b" x="188.63446" y="288.430125" style="stroke: #000000; stroke-width: 0.8"/>
      </g>
     </g>
     <g id="text_4">
      <!-- 160 -->
      <g transform="translate(179.09071 303.028562) scale(0.1 -0.1)">
       <defs>
        <path id="DejaVuSans-36" d="M 2113 2584 
Q 1688 2584 1439 2293 
Q 1191 2003 1191 1497 
Q 1191 994 1439 701 
Q 1688 409 2113 409 
Q 2538 409 2786 701 
Q 3034 994 3034 1497 
Q 3034 2003 2786 2293 
Q 2538 2584 2113 2584 
z
M 3366 4563 
L 3366 3988 
Q 3128 4100 2886 4159 
Q 2644 4219 2406 4219 
Q 1781 4219 1451 3797 
Q 1122 3375 1075 2522 
Q 1259 2794 1537 2939 
Q 1816 3084 2150 3084 
Q 2853 3084 3261 2657 
Q 3669 2231 3669 1497 
Q 3669 778 3244 343 
Q 2819 -91 2113 -91 
Q 1303 -91 875 529 
Q 447 1150 447 2328 
Q 447 3434 972 4092 
Q 1497 4750 2381 4750 
Q 2619 4750 2861 4703 
Q 3103 4656 3366 4563 
z
" transform="scale(0.015625)"/>
       </defs>
       <use xlink:href="#DejaVuSans-31"/>
       <use xlink:href="#DejaVuSans-36" x="63.623047"/>
       <use xlink:href="#DejaVuSans-30" x="127.246094"/>
      </g>
     </g>
    </g>
    <g id="xtick_5">
     <g id="line2d_5">
      <g>
       <use xlink:href="#mbbc3a0768b" x="232.997193" y="288.430125" style="stroke: #000000; stroke-width: 0.8"/>
      </g>
     </g>
     <g id="text_5">
      <!-- 180 -->
      <g transform="translate(223.453443 303.028562) scale(0.1 -0.1)">
       <defs>
        <path id="DejaVuSans-38" d="M 2034 2216 
Q 1584 2216 1326 1975 
Q 1069 1734 1069 1313 
Q 1069 891 1326 650 
Q 1584 409 2034 409 
Q 2484 409 2743 651 
Q 3003 894 3003 1313 
Q 3003 1734 2745 1975 
Q 2488 2216 2034 2216 
z
M 1403 2484 
Q 997 2584 770 2862 
Q 544 3141 544 3541 
Q 544 4100 942 4425 
Q 1341 4750 2034 4750 
Q 2731 4750 3128 4425 
Q 3525 4100 3525 3541 
Q 3525 3141 3298 2862 
Q 3072 2584 2669 2484 
Q 3125 2378 3379 2068 
Q 3634 1759 3634 1313 
Q 3634 634 3220 271 
Q 2806 -91 2034 -91 
Q 1263 -91 848 271 
Q 434 634 434 1313 
Q 434 1759 690 2068 
Q 947 2378 1403 2484 
z
M 1172 3481 
Q 1172 3119 1398 2916 
Q 1625 2713 2034 2713 
Q 2441 2713 2670 2916 
Q 2900 3119 2900 3481 
Q 2900 3844 2670 4047 
Q 2441 4250 2034 4250 
Q 1625 4250 1398 4047 
Q 1172 3844 1172 3481 
z
" transform="scale(0.015625)"/>
       </defs>
       <use xlink:href="#DejaVuSans-31"/>
       <use xlink:href="#DejaVuSans-38" x="63.623047"/>
       <use xlink:href="#DejaVuSans-30" x="127.246094"/>
      </g>
     </g>
    </g>
    <g id="xtick_6">
     <g id="line2d_6">
      <g>
       <use xlink:href="#mbbc3a0768b" x="277.359926" y="288.430125" style="stroke: #000000; stroke-width: 0.8"/>
      </g>
     </g>
     <g id="text_6">
      <!-- 200 -->
      <g transform="translate(267.816176 303.028562) scale(0.1 -0.1)">
       <use xlink:href="#DejaVuSans-32"/>
       <use xlink:href="#DejaVuSans-30" x="63.623047"/>
       <use xlink:href="#DejaVuSans-30" x="127.246094"/>
      </g>
     </g>
    </g>
    <g id="xtick_7">
     <g id="line2d_7">
      <g>
       <use xlink:href="#mbbc3a0768b" x="321.722659" y="288.430125" style="stroke: #000000; stroke-width: 0.8"/>
      </g>
     </g>
     <g id="text_7">
      <!-- 220 -->
      <g transform="translate(312.178909 303.028562) scale(0.1 -0.1)">
       <use xlink:href="#DejaVuSans-32"/>
       <use xlink:href="#DejaVuSans-32" x="63.623047"/>
       <use xlink:href="#DejaVuSans-30" x="127.246094"/>
      </g>
     </g>
    </g>
    <g id="xtick_8">
     <g id="line2d_8">
      <g>
       <use xlink:href="#mbbc3a0768b" x="366.085392" y="288.430125" style="stroke: #000000; stroke-width: 0.8"/>
      </g>
     </g>
     <g id="text_8">
      <!-- 240 -->
      <g transform="translate(356.541642 303.028562) scale(0.1 -0.1)">
       <use xlink:href="#DejaVuSans-32"/>
       <use xlink:href="#DejaVuSans-34" x="63.623047"/>
       <use xlink:href="#DejaVuSans-30" x="127.246094"/>
      </g>
     </g>
    </g>
    <g id="xtick_9">
     <g id="line2d_9">
      <g>
       <use xlink:href="#mbbc3a0768b" x="410.448125" y="288.430125" style="stroke: #000000; stroke-width: 0.8"/>
      </g>
     </g>
     <g id="text_9">
      <!-- 260 -->
      <g transform="translate(400.904375 303.028562) scale(0.1 -0.1)">
       <use xlink:href="#DejaVuSans-32"/>
       <use xlink:href="#DejaVuSans-36" x="63.623047"/>
       <use xlink:href="#DejaVuSans-30" x="127.246094"/>
      </g>
     </g>
    </g>
    <g id="text_10">
     <!-- Strain(%) -->
     <g transform="translate(208.424063 316.706687) scale(0.1 -0.1)">
      <defs>
       <path id="DejaVuSans-53" d="M 3425 4513 
L 3425 3897 
Q 3066 4069 2747 4153 
Q 2428 4238 2131 4238 
Q 1616 4238 1336 4038 
Q 1056 3838 1056 3469 
Q 1056 3159 1242 3001 
Q 1428 2844 1947 2747 
L 2328 2669 
Q 3034 2534 3370 2195 
Q 3706 1856 3706 1288 
Q 3706 609 3251 259 
Q 2797 -91 1919 -91 
Q 1588 -91 1214 -16 
Q 841 59 441 206 
L 441 856 
Q 825 641 1194 531 
Q 1563 422 1919 422 
Q 2459 422 2753 634 
Q 3047 847 3047 1241 
Q 3047 1584 2836 1778 
Q 2625 1972 2144 2069 
L 1759 2144 
Q 1053 2284 737 2584 
Q 422 2884 422 3419 
Q 422 4038 858 4394 
Q 1294 4750 2059 4750 
Q 2388 4750 2728 4690 
Q 3069 4631 3425 4513 
z
" transform="scale(0.015625)"/>
       <path id="DejaVuSans-74" d="M 1172 4494 
L 1172 3500 
L 2356 3500 
L 2356 3053 
L 1172 3053 
L 1172 1153 
Q 1172 725 1289 603 
Q 1406 481 1766 481 
L 2356 481 
L 2356 0 
L 1766 0 
Q 1100 0 847 248 
Q 594 497 594 1153 
L 594 3053 
L 172 3053 
L 172 3500 
L 594 3500 
L 594 4494 
L 1172 4494 
z
" transform="scale(0.015625)"/>
       <path id="DejaVuSans-72" d="M 2631 2963 
Q 2534 3019 2420 3045 
Q 2306 3072 2169 3072 
Q 1681 3072 1420 2755 
Q 1159 2438 1159 1844 
L 1159 0 
L 581 0 
L 581 3500 
L 1159 3500 
L 1159 2956 
Q 1341 3275 1631 3429 
Q 1922 3584 2338 3584 
Q 2397 3584 2469 3576 
Q 2541 3569 2628 3553 
L 2631 2963 
z
" transform="scale(0.015625)"/>
       <path id="DejaVuSans-61" d="M 2194 1759 
Q 1497 1759 1228 1600 
Q 959 1441 959 1056 
Q 959 750 1161 570 
Q 1363 391 1709 391 
Q 2188 391 2477 730 
Q 2766 1069 2766 1631 
L 2766 1759 
L 2194 1759 
z
M 3341 1997 
L 3341 0 
L 2766 0 
L 2766 531 
Q 2569 213 2275 61 
Q 1981 -91 1556 -91 
Q 1019 -91 701 211 
Q 384 513 384 1019 
Q 384 1609 779 1909 
Q 1175 2209 1959 2209 
L 2766 2209 
L 2766 2266 
Q 2766 2663 2505 2880 
Q 2244 3097 1772 3097 
Q 1472 3097 1187 3025 
Q 903 2953 641 2809 
L 641 3341 
Q 956 3463 1253 3523 
Q 1550 3584 1831 3584 
Q 2591 3584 2966 3190 
Q 3341 2797 3341 1997 
z
" transform="scale(0.015625)"/>
       <path id="DejaVuSans-69" d="M 603 3500 
L 1178 3500 
L 1178 0 
L 603 0 
L 603 3500 
z
M 603 4863 
L 1178 4863 
L 1178 4134 
L 603 4134 
L 603 4863 
z
" transform="scale(0.015625)"/>
       <path id="DejaVuSans-6e" d="M 3513 2113 
L 3513 0 
L 2938 0 
L 2938 2094 
Q 2938 2591 2744 2837 
Q 2550 3084 2163 3084 
Q 1697 3084 1428 2787 
Q 1159 2491 1159 1978 
L 1159 0 
L 581 0 
L 581 3500 
L 1159 3500 
L 1159 2956 
Q 1366 3272 1645 3428 
Q 1925 3584 2291 3584 
Q 2894 3584 3203 3211 
Q 3513 2838 3513 2113 
z
" transform="scale(0.015625)"/>
       <path id="DejaVuSans-28" d="M 1984 4856 
Q 1566 4138 1362 3434 
Q 1159 2731 1159 2009 
Q 1159 1288 1364 580 
Q 1569 -128 1984 -844 
L 1484 -844 
Q 1016 -109 783 600 
Q 550 1309 550 2009 
Q 550 2706 781 3412 
Q 1013 4119 1484 4856 
L 1984 4856 
z
" transform="scale(0.015625)"/>
       <path id="DejaVuSans-25" d="M 4653 2053 
Q 4381 2053 4226 1822 
Q 4072 1591 4072 1178 
Q 4072 772 4226 539 
Q 4381 306 4653 306 
Q 4919 306 5073 539 
Q 5228 772 5228 1178 
Q 5228 1588 5073 1820 
Q 4919 2053 4653 2053 
z
M 4653 2450 
Q 5147 2450 5437 2106 
Q 5728 1763 5728 1178 
Q 5728 594 5436 251 
Q 5144 -91 4653 -91 
Q 4153 -91 3862 251 
Q 3572 594 3572 1178 
Q 3572 1766 3864 2108 
Q 4156 2450 4653 2450 
z
M 1428 4353 
Q 1159 4353 1004 4120 
Q 850 3888 850 3481 
Q 850 3069 1003 2837 
Q 1156 2606 1428 2606 
Q 1700 2606 1854 2837 
Q 2009 3069 2009 3481 
Q 2009 3884 1853 4118 
Q 1697 4353 1428 4353 
z
M 4250 4750 
L 4750 4750 
L 1831 -91 
L 1331 -91 
L 4250 4750 
z
M 1428 4750 
Q 1922 4750 2215 4408 
Q 2509 4066 2509 3481 
Q 2509 2891 2217 2550 
Q 1925 2209 1428 2209 
Q 931 2209 642 2551 
Q 353 2894 353 3481 
Q 353 4063 643 4406 
Q 934 4750 1428 4750 
z
" transform="scale(0.015625)"/>
       <path id="DejaVuSans-29" d="M 513 4856 
L 1013 4856 
Q 1481 4119 1714 3412 
Q 1947 2706 1947 2009 
Q 1947 1309 1714 600 
Q 1481 -109 1013 -844 
L 513 -844 
Q 928 -128 1133 580 
Q 1338 1288 1338 2009 
Q 1338 2731 1133 3434 
Q 928 4138 513 4856 
z
" transform="scale(0.015625)"/>
      </defs>
      <use xlink:href="#DejaVuSans-53"/>
      <use xlink:href="#DejaVuSans-74" x="63.476562"/>
      <use xlink:href="#DejaVuSans-72" x="102.685547"/>
      <use xlink:href="#DejaVuSans-61" x="143.798828"/>
      <use xlink:href="#DejaVuSans-69" x="205.078125"/>
      <use xlink:href="#DejaVuSans-6e" x="232.861328"/>
      <use xlink:href="#DejaVuSans-28" x="296.240234"/>
      <use xlink:href="#DejaVuSans-25" x="335.253906"/>
      <use xlink:href="#DejaVuSans-29" x="430.273438"/>
     </g>
    </g>
   </g>
   <g id="matplotlib.axis_2">
    <g id="ytick_1">
     <g id="line2d_10">
      <defs>
       <path id="mb371470383" d="M 0 0 
L -3.5 0 
" style="stroke: #000000; stroke-width: 0.8"/>
      </defs>
      <g>
       <use xlink:href="#mb371470383" x="53.328125" y="288.430125" style="stroke: #000000; stroke-width: 0.8"/>
      </g>
     </g>
     <g id="text_11">
      <!-- 0 -->
      <g transform="translate(39.965625 292.229344) scale(0.1 -0.1)">
       <use xlink:href="#DejaVuSans-30"/>
      </g>
     </g>
    </g>
    <g id="ytick_2">
     <g id="line2d_11">
      <g>
       <use xlink:href="#mb371470383" x="53.328125" y="252.948525" style="stroke: #000000; stroke-width: 0.8"/>
      </g>
     </g>
     <g id="text_12">
      <!-- 200 -->
      <g transform="translate(27.240625 256.747744) scale(0.1 -0.1)">
       <use xlink:href="#DejaVuSans-32"/>
       <use xlink:href="#DejaVuSans-30" x="63.623047"/>
       <use xlink:href="#DejaVuSans-30" x="127.246094"/>
      </g>
     </g>
    </g>
    <g id="ytick_3">
     <g id="line2d_12">
      <g>
       <use xlink:href="#mb371470383" x="53.328125" y="217.466925" style="stroke: #000000; stroke-width: 0.8"/>
      </g>
     </g>
     <g id="text_13">
      <!-- 400 -->
      <g transform="translate(27.240625 221.266144) scale(0.1 -0.1)">
       <use xlink:href="#DejaVuSans-34"/>
       <use xlink:href="#DejaVuSans-30" x="63.623047"/>
       <use xlink:href="#DejaVuSans-30" x="127.246094"/>
      </g>
     </g>
    </g>
    <g id="ytick_4">
     <g id="line2d_13">
      <g>
       <use xlink:href="#mb371470383" x="53.328125" y="181.985325" style="stroke: #000000; stroke-width: 0.8"/>
      </g>
     </g>
     <g id="text_14">
      <!-- 600 -->
      <g transform="translate(27.240625 185.784544) scale(0.1 -0.1)">
       <use xlink:href="#DejaVuSans-36"/>
       <use xlink:href="#DejaVuSans-30" x="63.623047"/>
       <use xlink:href="#DejaVuSans-30" x="127.246094"/>
      </g>
     </g>
    </g>
    <g id="ytick_5">
     <g id="line2d_14">
      <g>
       <use xlink:href="#mb371470383" x="53.328125" y="146.503725" style="stroke: #000000; stroke-width: 0.8"/>
      </g>
     </g>
     <g id="text_15">
      <!-- 800 -->
      <g transform="translate(27.240625 150.302944) scale(0.1 -0.1)">
       <use xlink:href="#DejaVuSans-38"/>
       <use xlink:href="#DejaVuSans-30" x="63.623047"/>
       <use xlink:href="#DejaVuSans-30" x="127.246094"/>
      </g>
     </g>
    </g>
    <g id="ytick_6">
     <g id="line2d_15">
      <g>
       <use xlink:href="#mb371470383" x="53.328125" y="111.022125" style="stroke: #000000; stroke-width: 0.8"/>
      </g>
     </g>
     <g id="text_16">
      <!-- 1000 -->
      <g transform="translate(20.878125 114.821344) scale(0.1 -0.1)">
       <use xlink:href="#DejaVuSans-31"/>
       <use xlink:href="#DejaVuSans-30" x="63.623047"/>
       <use xlink:href="#DejaVuSans-30" x="127.246094"/>
       <use xlink:href="#DejaVuSans-30" x="190.869141"/>
      </g>
     </g>
    </g>
    <g id="ytick_7">
     <g id="line2d_16">
      <g>
       <use xlink:href="#mb371470383" x="53.328125" y="75.540525" style="stroke: #000000; stroke-width: 0.8"/>
      </g>
     </g>
     <g id="text_17">
      <!-- 1200 -->
      <g transform="translate(20.878125 79.339744) scale(0.1 -0.1)">
       <use xlink:href="#DejaVuSans-31"/>
       <use xlink:href="#DejaVuSans-32" x="63.623047"/>
       <use xlink:href="#DejaVuSans-30" x="127.246094"/>
       <use xlink:href="#DejaVuSans-30" x="190.869141"/>
      </g>
     </g>
    </g>
    <g id="ytick_8">
     <g id="line2d_17">
      <g>
       <use xlink:href="#mb371470383" x="53.328125" y="40.058925" style="stroke: #000000; stroke-width: 0.8"/>
      </g>
     </g>
     <g id="text_18">
      <!-- 1400 -->
      <g transform="translate(20.878125 43.858144) scale(0.1 -0.1)">
       <use xlink:href="#DejaVuSans-31"/>
       <use xlink:href="#DejaVuSans-34" x="63.623047"/>
       <use xlink:href="#DejaVuSans-30" x="127.246094"/>
       <use xlink:href="#DejaVuSans-30" x="190.869141"/>
      </g>
     </g>
    </g>
    <g id="text_19">
     <!-- Stress(MPa) -->
     <g transform="translate(14.798438 184.806937) rotate(-90) scale(0.1 -0.1)">
      <defs>
       <path id="DejaVuSans-65" d="M 3597 1894 
L 3597 1613 
L 953 1613 
Q 991 1019 1311 708 
Q 1631 397 2203 397 
Q 2534 397 2845 478 
Q 3156 559 3463 722 
L 3463 178 
Q 3153 47 2828 -22 
Q 2503 -91 2169 -91 
Q 1331 -91 842 396 
Q 353 884 353 1716 
Q 353 2575 817 3079 
Q 1281 3584 2069 3584 
Q 2775 3584 3186 3129 
Q 3597 2675 3597 1894 
z
M 3022 2063 
Q 3016 2534 2758 2815 
Q 2500 3097 2075 3097 
Q 1594 3097 1305 2825 
Q 1016 2553 972 2059 
L 3022 2063 
z
" transform="scale(0.015625)"/>
       <path id="DejaVuSans-73" d="M 2834 3397 
L 2834 2853 
Q 2591 2978 2328 3040 
Q 2066 3103 1784 3103 
Q 1356 3103 1142 2972 
Q 928 2841 928 2578 
Q 928 2378 1081 2264 
Q 1234 2150 1697 2047 
L 1894 2003 
Q 2506 1872 2764 1633 
Q 3022 1394 3022 966 
Q 3022 478 2636 193 
Q 2250 -91 1575 -91 
Q 1294 -91 989 -36 
Q 684 19 347 128 
L 347 722 
Q 666 556 975 473 
Q 1284 391 1588 391 
Q 1994 391 2212 530 
Q 2431 669 2431 922 
Q 2431 1156 2273 1281 
Q 2116 1406 1581 1522 
L 1381 1569 
Q 847 1681 609 1914 
Q 372 2147 372 2553 
Q 372 3047 722 3315 
Q 1072 3584 1716 3584 
Q 2034 3584 2315 3537 
Q 2597 3491 2834 3397 
z
" transform="scale(0.015625)"/>
       <path id="DejaVuSans-4d" d="M 628 4666 
L 1569 4666 
L 2759 1491 
L 3956 4666 
L 4897 4666 
L 4897 0 
L 4281 0 
L 4281 4097 
L 3078 897 
L 2444 897 
L 1241 4097 
L 1241 0 
L 628 0 
L 628 4666 
z
" transform="scale(0.015625)"/>
       <path id="DejaVuSans-50" d="M 1259 4147 
L 1259 2394 
L 2053 2394 
Q 2494 2394 2734 2622 
Q 2975 2850 2975 3272 
Q 2975 3691 2734 3919 
Q 2494 4147 2053 4147 
L 1259 4147 
z
M 628 4666 
L 2053 4666 
Q 2838 4666 3239 4311 
Q 3641 3956 3641 3272 
Q 3641 2581 3239 2228 
Q 2838 1875 2053 1875 
L 1259 1875 
L 1259 0 
L 628 0 
L 628 4666 
z
" transform="scale(0.015625)"/>
      </defs>
      <use xlink:href="#DejaVuSans-53"/>
      <use xlink:href="#DejaVuSans-74" x="63.476562"/>
      <use xlink:href="#DejaVuSans-72" x="102.685547"/>
      <use xlink:href="#DejaVuSans-65" x="141.548828"/>
      <use xlink:href="#DejaVuSans-73" x="203.072266"/>
      <use xlink:href="#DejaVuSans-73" x="255.171875"/>
      <use xlink:href="#DejaVuSans-28" x="307.271484"/>
      <use xlink:href="#DejaVuSans-4d" x="346.285156"/>
      <use xlink:href="#DejaVuSans-50" x="432.564453"/>
      <use xlink:href="#DejaVuSans-61" x="488.367188"/>
      <use xlink:href="#DejaVuSans-29" x="549.646484"/>
     </g>
    </g>
   </g>
   <g id="line2d_18">
    <path d="M 55.546262 288.430125 
L 57.076974 270.193888 
L 58.607687 289.638118 
L 60.138423 256.408891 
L 61.669136 271.467265 
L 63.199896 255.778601 
L 64.730608 236.616104 
L 66.261344 253.784757 
L 67.792057 231.214867 
L 69.322793 232.45942 
L 70.853506 235.386356 
L 72.384218 215.427655 
L 73.914954 258.472991 
L 75.445667 233.161977 
L 76.976402 221.927552 
L 78.507116 240.097968 
L 80.037851 211.093029 
L 81.568565 226.666801 
L 83.0993 232.452638 
L 86.160751 222.327401 
L 87.691463 214.379571 
L 89.222198 207.490451 
L 90.75291 199.416911 
L 92.283645 214.915209 
L 93.814361 226.151042 
L 95.345096 221.978031 
L 96.875808 221.138629 
L 98.40652 235.950224 
L 99.937255 216.591349 
L 101.467971 240.757273 
L 102.998706 224.649542 
L 104.529418 220.274061 
L 106.06018 225.048449 
L 107.590892 209.705232 
L 109.121627 228.410542 
L 110.652339 241.291431 
L 112.183074 230.482949 
L 113.71379 229.27821 
L 115.244525 207.505054 
L 116.77524 238.417818 
L 118.305975 208.217084 
L 119.836684 226.149068 
L 121.367419 214.528331 
L 122.898135 227.209812 
L 124.42885 199.072131 
L 125.959585 217.732111 
L 127.490294 219.98924 
L 129.021029 224.27243 
L 130.551745 232.444698 
L 132.08248 222.258115 
L 133.613195 215.402624 
L 135.14393 212.654933 
L 136.674639 229.353178 
L 138.205381 218.204248 
L 139.73609 202.658036 
L 141.266825 203.157806 
L 142.79754 197.716538 
L 144.328276 222.419408 
L 145.858991 202.262214 
L 147.389746 203.734453 
L 148.920461 230.247469 
L 150.451197 208.888419 
L 151.981912 195.716817 
L 153.512621 184.8304 
L 155.043356 200.916106 
L 156.574071 196.749867 
L 158.104806 205.038233 
L 159.635522 191.01902 
L 161.166257 202.852152 
L 162.696966 188.887345 
L 164.227708 206.334578 
L 165.758416 192.595476 
L 167.289158 208.766408 
L 168.81986 186.506793 
L 170.350602 174.481158 
L 171.881318 196.352186 
L 173.412046 204.595562 
L 176.473503 186.158119 
L 178.004219 188.11853 
L 179.534921 179.528075 
L 181.065663 202.94298 
L 182.596378 181.460156 
L 184.127107 191.492659 
L 185.657822 192.212618 
L 187.188577 176.107485 
L 188.719292 166.804383 
L 190.250034 183.010978 
L 193.311478 164.846589 
L 194.842194 190.822068 
L 196.372922 206.941171 
L 197.903638 181.757965 
L 199.434379 196.580461 
L 200.965095 190.676413 
L 202.495823 185.307121 
L 204.026539 162.605118 
L 205.557254 200.064127 
L 207.087983 194.807498 
L 208.618698 172.403828 
L 210.14944 174.018325 
L 211.680155 168.149535 
L 213.210884 169.654592 
L 214.741599 181.234029 
L 216.272328 167.006253 
L 217.803043 151.463781 
L 219.333785 140.895658 
L 220.8645 160.867778 
L 222.395229 165.274049 
L 223.925944 150.839176 
L 225.456686 182.3919 
L 226.987388 155.607829 
L 228.518157 145.311775 
L 230.048859 174.616898 
L 231.579574 151.755149 
L 233.110316 165.276456 
L 234.641005 143.087784 
L 236.171733 147.051984 
L 237.702475 146.290608 
L 239.233217 146.374074 
L 240.763906 162.097838 
L 242.294635 146.573695 
L 243.825376 152.881724 
L 245.356105 132.361618 
L 246.886794 102.844785 
L 248.417575 127.271193 
L 249.948264 88.711339 
L 251.479006 108.823513 
L 253.009748 80.966877 
L 254.540477 91.733501 
L 256.071218 96.980652 
L 257.601907 85.324896 
L 259.132636 61.511546 
L 260.663378 62.621476 
L 262.194067 56.909898 
L 263.724795 55.99414 
L 265.255537 66.914894 
L 266.786279 98.840861 
L 268.316968 106.421985 
L 269.847696 85.160568 
L 271.378438 83.03585 
L 272.909167 74.203143 
L 274.439856 80.751733 
L 275.970598 63.654606 
L 277.501339 43.610583 
L 279.032081 39.318154 
L 280.876436 -1 
M 283.192858 -1 
L 283.624227 11.693581 
L 284.275358 -1 
M 286.121775 -1 
L 286.685658 9.001289 
L 287.070679 -1 
L 287.070679 -1 
" clip-path="url(#p3987c64630)" style="fill: none; stroke: #1f77b4; stroke-width: 1.5; stroke-linecap: square"/>
   </g>
   <g id="line2d_19">
    <path d="M 55.546262 288.430125 
L 56.94925 280.929409 
L 58.352262 267.771376 
L 59.755272 284.532598 
L 61.158284 259.558646 
L 62.561272 253.105523 
L 63.964283 235.082904 
L 65.367272 249.779402 
L 66.770283 243.366512 
L 68.173294 229.068116 
L 69.576306 233.634698 
L 70.979317 254.697033 
L 72.382283 238.969993 
L 73.785294 243.467073 
L 75.188305 244.989034 
L 76.591316 227.242841 
L 77.994327 239.92666 
L 79.397339 240.072196 
L 80.800327 222.96123 
L 82.203316 244.484842 
L 83.606327 210.556378 
L 85.00934 236.479513 
L 86.412349 231.633125 
L 87.815361 222.358447 
L 89.218348 238.454806 
L 90.621337 233.215043 
L 92.024349 223.035627 
L 93.427359 246.119251 
L 94.830371 238.220256 
L 96.233361 237.183985 
L 97.63637 231.657836 
L 99.039382 230.672203 
L 100.442372 234.673619 
L 101.845381 240.679071 
L 103.248394 237.420092 
L 104.651383 254.693655 
L 106.054392 235.017989 
L 107.457405 238.677686 
L 108.860414 235.321254 
L 110.263403 223.678735 
L 111.666393 239.810025 
L 113.069405 220.800213 
L 114.472418 219.404099 
L 115.875424 218.882146 
L 117.278436 230.741404 
L 118.681422 217.682572 
L 120.084415 216.449442 
L 121.487427 221.746794 
L 122.890433 222.803941 
L 124.293446 233.328042 
L 125.696458 213.895003 
L 127.099471 207.444693 
L 128.502437 231.222132 
L 131.308456 218.947854 
L 132.711468 229.130512 
L 134.114481 226.595712 
L 135.517467 240.987602 
L 136.920479 236.985935 
L 138.323472 211.74735 
L 139.726478 224.696454 
L 141.129491 213.166835 
L 142.532503 219.376141 
L 143.935489 213.298602 
L 145.338502 240.753666 
L 146.741514 213.203518 
L 148.1445 211.35848 
L 149.547513 237.366761 
L 150.950499 232.365861 
L 152.353511 207.630704 
L 153.756524 225.714574 
L 155.159537 213.795802 
L 156.562523 205.582331 
L 157.965535 230.77871 
L 159.368521 231.787626 
L 160.771534 242.896743 
L 162.174546 216.733191 
L 163.577559 240.205495 
L 164.980571 214.449649 
L 166.383531 206.177904 
L 167.78655 207.879946 
L 169.189563 208.699903 
L 170.592562 206.953116 
L 171.995575 199.733814 
L 173.398587 210.595842 
L 174.801573 223.994738 
L 176.204572 206.248682 
L 177.607572 196.378084 
L 179.010584 194.84023 
L 180.413597 189.772594 
L 181.816609 201.709337 
L 183.219595 236.978987 
L 184.622608 203.411842 
L 186.025594 204.467935 
L 187.428607 194.063006 
L 188.831619 204.461788 
L 190.234605 207.364937 
L 191.637618 221.345581 
L 193.04063 205.279016 
L 194.443616 224.455073 
L 195.846629 199.42657 
L 197.249641 230.086231 
L 198.652627 214.986951 
L 200.05564 215.081539 
L 201.458653 205.92812 
L 202.861665 198.915644 
L 204.264651 197.003289 
L 205.667637 214.557304 
L 207.07065 212.719472 
L 208.473662 218.151496 
L 209.876675 246.140701 
L 211.279687 231.308004 
L 212.6827 221.12603 
L 214.08566 223.83396 
L 215.488672 207.798782 
L 216.891685 212.271829 
L 218.294697 196.61281 
L 219.69771 213.898293 
L 221.100722 222.424527 
L 222.503682 216.016086 
L 223.906694 225.782791 
L 225.309707 225.037548 
L 226.712719 217.408665 
L 228.115732 224.528909 
L 229.518745 239.287275 
L 230.921757 194.673446 
L 232.324717 225.36605 
L 233.727729 225.05451 
L 235.130742 242.53568 
L 236.533754 212.978935 
L 237.936714 229.32152 
L 239.339779 236.033842 
L 240.742739 235.374572 
L 242.145752 232.171578 
L 243.548764 235.049373 
L 244.951777 242.811863 
L 246.354789 238.703743 
L 247.757749 224.547232 
L 249.160761 242.637727 
L 250.563774 234.006197 
L 251.966786 217.388833 
L 253.369799 236.784181 
L 254.772811 238.263221 
L 256.175771 235.445562 
L 257.578784 222.336306 
L 258.981796 235.970822 
L 260.384809 229.297182 
L 261.787821 236.700501 
L 263.190834 240.804254 
L 264.593846 227.760709 
L 265.996806 223.685296 
L 267.399818 203.959518 
L 268.802831 205.013291 
L 270.205843 208.490355 
L 271.608856 201.096449 
L 273.011816 203.880084 
L 274.414828 213.637161 
L 275.817841 225.788991 
L 277.220853 188.398799 
L 278.623866 216.626227 
L 280.026839 197.425425 
L 281.429891 214.37357 
L 282.832864 205.138199 
L 284.235863 213.140738 
L 285.638862 202.856887 
L 287.041835 204.588698 
L 288.444887 215.636551 
L 289.84786 196.275694 
L 291.250912 200.116984 
L 292.653885 215.533517 
L 294.056885 215.164901 
L 295.45991 202.211228 
L 296.862883 210.96412 
L 298.265935 204.36293 
L 299.668882 219.174486 
L 301.07196 230.895535 
L 302.474907 214.704601 
L 303.87788 213.171722 
L 305.280932 218.460491 
L 306.683905 207.577243 
L 308.086957 229.927874 
L 309.48993 221.065616 
L 310.892982 210.637443 
L 312.295955 216.184745 
L 313.698928 203.813811 
L 315.10198 221.891322 
L 316.504926 207.161854 
L 317.908005 216.275476 
L 319.310952 204.189298 
L 320.713977 203.967565 
L 322.116977 205.957155 
L 323.519949 211.447105 
L 324.923002 203.634697 
L 326.325974 224.995248 
L 327.728974 233.302796 
L 329.132 228.485109 
L 330.534999 234.985412 
L 331.938025 218.791133 
L 333.340971 229.244029 
L 334.743997 240.611086 
L 336.146996 234.027261 
L 336.146996 234.027261 
" clip-path="url(#p3987c64630)" style="fill: none; stroke: #ff7f0e; stroke-width: 1.5; stroke-linecap: square"/>
   </g>
   <g id="line2d_20">
    <path d="M 55.546262 288.430125 
L 57.358497 287.0984 
L 59.170733 262.302454 
L 60.982968 250.71504 
L 62.795204 251.194209 
L 64.607439 247.824237 
L 66.4197 240.781994 
L 68.231936 217.875521 
L 70.044172 206.422902 
L 71.856406 239.473749 
L 73.668669 209.289112 
L 75.480877 230.397075 
L 77.293139 218.845829 
L 79.105374 226.549165 
L 82.729846 213.679793 
L 84.542105 210.566688 
L 86.354341 207.167047 
L 88.166604 222.408234 
L 89.978813 204.692315 
L 91.791049 210.595213 
L 93.603309 208.241834 
L 95.415545 219.086761 
L 97.227781 213.556353 
L 99.040017 210.625096 
L 100.85228 219.798333 
L 102.664512 213.185863 
L 104.476748 200.095497 
L 106.288984 222.478817 
L 108.101247 220.448141 
L 109.913453 222.406772 
L 111.725689 196.946463 
L 113.537949 231.244956 
L 115.350188 219.676342 
L 117.162421 235.467104 
L 118.97466 237.455255 
L 120.786919 228.670871 
L 122.599152 233.507737 
L 124.411392 230.167928 
L 126.223624 225.638333 
L 128.03589 223.830688 
L 129.848123 219.816584 
L 131.660356 238.330318 
L 133.472595 204.103246 
L 135.284828 230.805593 
L 137.097094 211.622987 
L 138.9093 239.318316 
L 140.721559 243.726299 
L 142.533799 206.8451 
L 144.346058 211.64322 
L 146.158271 207.951532 
L 147.97053 213.179305 
L 149.782763 215.230199 
L 151.595029 209.906087 
L 153.407235 202.970259 
L 155.219468 209.871855 
L 157.031734 221.453096 
L 158.843966 226.865339 
L 160.656206 210.859379 
L 162.468439 208.043137 
L 166.092937 223.550438 
L 167.90517 232.129572 
L 169.717403 226.59376 
L 171.529662 240.676111 
L 173.341882 227.637693 
L 175.154114 229.435908 
L 176.966374 221.248751 
L 178.778606 232.947876 
L 180.590839 209.332949 
L 182.403085 213.61465 
L 184.215344 232.886097 
L 186.027577 227.912239 
L 187.83981 209.584888 
L 191.464315 225.153439 
L 193.276548 218.328246 
L 195.088781 209.933201 
L 196.901014 198.302461 
L 198.713246 216.632667 
L 200.525519 224.503123 
L 202.337725 226.529999 
L 204.149984 226.133017 
L 205.962217 215.076521 
L 207.774476 208.928219 
L 209.586696 189.843574 
L 211.398955 202.594024 
L 213.211188 185.309668 
L 215.023447 190.003446 
L 216.835653 196.217628 
L 218.647899 189.106106 
L 220.460159 216.554462 
L 222.272391 201.301691 
L 224.084624 236.803413 
L 225.896857 209.023868 
L 227.70913 207.370189 
L 229.521336 211.629526 
L 231.333595 207.349186 
L 233.145828 195.245913 
L 234.958087 220.956727 
L 236.770307 197.790056 
L 238.582566 191.957511 
L 240.394799 211.665997 
L 244.019264 234.093926 
L 245.831497 220.988307 
L 247.643769 229.010879 
L 249.456002 225.299596 
L 251.268235 216.90114 
L 253.080468 210.19929 
L 254.892727 218.082861 
L 256.704973 206.082434 
L 258.517206 192.233414 
L 260.329439 185.829352 
L 262.141671 201.625953 
L 263.953931 203.164976 
L 265.76615 210.898524 
L 267.578409 199.183607 
L 269.390642 201.054616 
L 271.202901 213.070412 
L 273.015108 213.994143 
L 274.827407 189.212525 
L 276.639586 205.667705 
L 278.451859 198.408446 
L 280.264105 200.212564 
L 282.076351 211.83196 
L 283.88857 219.409709 
L 285.700816 189.900975 
L 287.513036 193.651749 
L 289.325282 203.174386 
L 291.137528 185.708624 
L 294.762047 211.818231 
L 296.574213 209.596491 
L 298.386512 207.876845 
L 300.198758 230.380545 
L 302.010978 206.494382 
L 303.823171 198.087547 
L 305.635443 214.400538 
L 307.447689 203.537125 
L 309.259988 177.947223 
L 311.072155 220.064679 
L 312.884401 198.013976 
L 314.696673 193.591103 
L 316.508919 201.530668 
L 318.321112 201.961478 
L 320.133385 208.353165 
L 321.945631 197.535177 
L 323.757903 208.631798 
L 325.570096 229.79623 
L 327.382342 207.899239 
L 329.194615 224.757607 
L 331.006808 203.414112 
L 332.819027 213.302539 
L 334.631326 204.244475 
L 336.443572 210.835919 
L 338.255792 211.703954 
L 340.068038 212.749499 
L 341.880257 224.799926 
L 343.692556 234.719849 
L 345.504749 197.800704 
L 347.316969 214.714688 
L 349.129268 196.413878 
L 350.941435 202.453307 
L 352.753681 203.028958 
L 354.56598 197.853552 
L 356.378199 215.638117 
L 358.190445 221.977009 
L 360.002665 197.691212 
L 361.814911 217.555132 
L 363.62721 206.329621 
L 365.439376 219.253524 
L 367.251622 211.753092 
L 369.063895 225.685408 
L 370.876088 217.027261 
L 372.688387 193.342657 
L 374.500606 220.072482 
L 376.312852 196.019628 
L 378.125072 218.329918 
L 379.937318 208.205033 
L 381.749564 212.722545 
L 383.561836 212.524456 
L 385.374029 202.707739 
L 387.186302 219.78494 
L 388.998548 197.770218 
L 390.810741 198.299347 
L 392.623013 231.574458 
L 394.435259 212.214705 
L 396.247479 231.57978 
L 398.059725 190.938741 
L 399.871971 203.628181 
L 401.684243 209.134372 
L 403.496489 195.43954 
L 405.308656 203.094336 
L 407.120955 194.604289 
L 408.933201 191.656118 
L 410.745368 212.640394 
L 412.557667 218.222645 
L 414.369886 211.575613 
L 416.182185 210.023163 
L 417.994378 221.34031 
L 417.994378 221.34031 
" clip-path="url(#p3987c64630)" style="fill: none; stroke: #2ca02c; stroke-width: 1.5; stroke-linecap: square"/>
   </g>
   <g id="patch_3">
    <path d="M 53.328125 288.430125 
L 53.328125 22.318125 
" style="fill: none; stroke: #000000; stroke-width: 0.8; stroke-linejoin: miter; stroke-linecap: square"/>
   </g>
   <g id="patch_4">
    <path d="M 410.448125 288.430125 
L 410.448125 22.318125 
" style="fill: none; stroke: #000000; stroke-width: 0.8; stroke-linejoin: miter; stroke-linecap: square"/>
   </g>
   <g id="patch_5">
    <path d="M 53.328125 288.430125 
L 410.448125 288.430125 
" style="fill: none; stroke: #000000; stroke-width: 0.8; stroke-linejoin: miter; stroke-linecap: square"/>
   </g>
   <g id="patch_6">
    <path d="M 53.328125 22.318125 
L 410.448125 22.318125 
" style="fill: none; stroke: #000000; stroke-width: 0.8; stroke-linejoin: miter; stroke-linecap: square"/>
   </g>
   <g id="text_20">
    <!-- Stress-Strain Curve -->
    <g transform="translate(173.904688 16.318125) scale(0.12 -0.12)">
     <defs>
      <path id="DejaVuSans-2d" d="M 313 2009 
L 1997 2009 
L 1997 1497 
L 313 1497 
L 313 2009 
z
" transform="scale(0.015625)"/>
      <path id="DejaVuSans-20" transform="scale(0.015625)"/>
      <path id="DejaVuSans-43" d="M 4122 4306 
L 4122 3641 
Q 3803 3938 3442 4084 
Q 3081 4231 2675 4231 
Q 1875 4231 1450 3742 
Q 1025 3253 1025 2328 
Q 1025 1406 1450 917 
Q 1875 428 2675 428 
Q 3081 428 3442 575 
Q 3803 722 4122 1019 
L 4122 359 
Q 3791 134 3420 21 
Q 3050 -91 2638 -91 
Q 1578 -91 968 557 
Q 359 1206 359 2328 
Q 359 3453 968 4101 
Q 1578 4750 2638 4750 
Q 3056 4750 3426 4639 
Q 3797 4528 4122 4306 
z
" transform="scale(0.015625)"/>
      <path id="DejaVuSans-75" d="M 544 1381 
L 544 3500 
L 1119 3500 
L 1119 1403 
Q 1119 906 1312 657 
Q 1506 409 1894 409 
Q 2359 409 2629 706 
Q 2900 1003 2900 1516 
L 2900 3500 
L 3475 3500 
L 3475 0 
L 2900 0 
L 2900 538 
Q 2691 219 2414 64 
Q 2138 -91 1772 -91 
Q 1169 -91 856 284 
Q 544 659 544 1381 
z
M 1991 3584 
L 1991 3584 
z
" transform="scale(0.015625)"/>
      <path id="DejaVuSans-76" d="M 191 3500 
L 800 3500 
L 1894 563 
L 2988 3500 
L 3597 3500 
L 2284 0 
L 1503 0 
L 191 3500 
z
" transform="scale(0.015625)"/>
     </defs>
     <use xlink:href="#DejaVuSans-53"/>
     <use xlink:href="#DejaVuSans-74" x="63.476562"/>
     <use xlink:href="#DejaVuSans-72" x="102.685547"/>
     <use xlink:href="#DejaVuSans-65" x="141.548828"/>
     <use xlink:href="#DejaVuSans-73" x="203.072266"/>
     <use xlink:href="#DejaVuSans-73" x="255.171875"/>
     <use xlink:href="#DejaVuSans-2d" x="307.271484"/>
     <use xlink:href="#DejaVuSans-53" x="343.355469"/>
     <use xlink:href="#DejaVuSans-74" x="406.832031"/>
     <use xlink:href="#DejaVuSans-72" x="446.041016"/>
     <use xlink:href="#DejaVuSans-61" x="487.154297"/>
     <use xlink:href="#DejaVuSans-69" x="548.433594"/>
     <use xlink:href="#DejaVuSans-6e" x="576.216797"/>
     <use xlink:href="#DejaVuSans-20" x="639.595703"/>
     <use xlink:href="#DejaVuSans-43" x="671.382812"/>
     <use xlink:href="#DejaVuSans-75" x="741.207031"/>
     <use xlink:href="#DejaVuSans-72" x="804.585938"/>
     <use xlink:href="#DejaVuSans-76" x="845.699219"/>
     <use xlink:href="#DejaVuSans-65" x="904.878906"/>
    </g>
   </g>
   <g id="legend_1">
    <g id="patch_7">
     <path d="M 340.987188 101.798075 
L 403.448125 101.798075 
Q 405.448125 101.798075 405.448125 99.798075 
L 405.448125 55.929325 
Q 405.448125 53.929325 403.448125 53.929325 
L 340.987188 53.929325 
Q 338.987188 53.929325 338.987188 55.929325 
L 338.987188 99.798075 
Q 338.987188 101.798075 340.987188 101.798075 
z
" style="fill: #ffffff; opacity: 0.8; stroke: #cccccc; stroke-linejoin: miter"/>
    </g>
    <g id="line2d_21">
     <path d="M 342.987188 62.027762 
L 352.987188 62.027762 
L 362.987188 62.027762 
" style="fill: none; stroke: #1f77b4; stroke-width: 1.5; stroke-linecap: square"/>
    </g>
    <g id="text_21">
     <!-- IS1I_X -->
     <g transform="translate(370.987188 65.527762) scale(0.1 -0.1)">
      <defs>
       <path id="DejaVuSans-49" d="M 628 4666 
L 1259 4666 
L 1259 0 
L 628 0 
L 628 4666 
z
" transform="scale(0.015625)"/>
       <path id="DejaVuSans-5f" d="M 3263 -1063 
L 3263 -1509 
L -63 -1509 
L -63 -1063 
L 3263 -1063 
z
" transform="scale(0.015625)"/>
       <path id="DejaVuSans-58" d="M 403 4666 
L 1081 4666 
L 2241 2931 
L 3406 4666 
L 4084 4666 
L 2584 2425 
L 4184 0 
L 3506 0 
L 2194 1984 
L 872 0 
L 191 0 
L 1856 2491 
L 403 4666 
z
" transform="scale(0.015625)"/>
      </defs>
      <use xlink:href="#DejaVuSans-49"/>
      <use xlink:href="#DejaVuSans-53" x="29.492188"/>
      <use xlink:href="#DejaVuSans-31" x="92.96875"/>
      <use xlink:href="#DejaVuSans-49" x="156.591797"/>
      <use xlink:href="#DejaVuSans-5f" x="186.083984"/>
      <use xlink:href="#DejaVuSans-58" x="236.083984"/>
     </g>
    </g>
    <g id="line2d_22">
     <path d="M 342.987188 76.984012 
L 352.987188 76.984012 
L 362.987188 76.984012 
" style="fill: none; stroke: #ff7f0e; stroke-width: 1.5; stroke-linecap: square"/>
    </g>
    <g id="text_22">
     <!-- IS1I_Y -->
     <g transform="translate(370.987188 80.484012) scale(0.1 -0.1)">
      <defs>
       <path id="DejaVuSans-59" d="M -13 4666 
L 666 4666 
L 1959 2747 
L 3244 4666 
L 3922 4666 
L 2272 2222 
L 2272 0 
L 1638 0 
L 1638 2222 
L -13 4666 
z
" transform="scale(0.015625)"/>
      </defs>
      <use xlink:href="#DejaVuSans-49"/>
      <use xlink:href="#DejaVuSans-53" x="29.492188"/>
      <use xlink:href="#DejaVuSans-31" x="92.96875"/>
      <use xlink:href="#DejaVuSans-49" x="156.591797"/>
      <use xlink:href="#DejaVuSans-5f" x="186.083984"/>
      <use xlink:href="#DejaVuSans-59" x="236.083984"/>
     </g>
    </g>
    <g id="line2d_23">
     <path d="M 342.987188 91.940262 
L 352.987188 91.940262 
L 362.987188 91.940262 
" style="fill: none; stroke: #2ca02c; stroke-width: 1.5; stroke-linecap: square"/>
    </g>
    <g id="text_23">
     <!-- IS1I_Z -->
     <g transform="translate(370.987188 95.440262) scale(0.1 -0.1)">
      <defs>
       <path id="DejaVuSans-5a" d="M 359 4666 
L 4025 4666 
L 4025 4184 
L 1075 531 
L 4097 531 
L 4097 0 
L 288 0 
L 288 481 
L 3238 4134 
L 359 4134 
L 359 4666 
z
" transform="scale(0.015625)"/>
      </defs>
      <use xlink:href="#DejaVuSans-49"/>
      <use xlink:href="#DejaVuSans-53" x="29.492188"/>
      <use xlink:href="#DejaVuSans-31" x="92.96875"/>
      <use xlink:href="#DejaVuSans-49" x="156.591797"/>
      <use xlink:href="#DejaVuSans-5f" x="186.083984"/>
      <use xlink:href="#DejaVuSans-5a" x="236.083984"/>
     </g>
    </g>
   </g>
  </g>
 </g>
 <defs>
  <clipPath id="p3987c64630">
   <rect x="53.328125" y="22.318125" width="357.12" height="266.112"/>
  </clipPath>
 </defs>
</svg>
