<?xml version="1.0" encoding="utf-8" standalone="no"?>
<!DOCTYPE svg PUBLIC "-//W3C//DTD SVG 1.1//EN"
  "http://www.w3.org/Graphics/SVG/1.1/DTD/svg11.dtd">
<svg xmlns:xlink="http://www.w3.org/1999/xlink" width="427.191875pt" height="325.986375pt" viewBox="0 0 427.191875 325.986375" xmlns="http://www.w3.org/2000/svg" version="1.1">
 <metadata>
  <rdf:RDF xmlns:dc="http://purl.org/dc/elements/1.1/" xmlns:cc="http://creativecommons.org/ns#" xmlns:rdf="http://www.w3.org/1999/02/22-rdf-syntax-ns#">
   <cc:Work>
    <dc:type rdf:resource="http://purl.org/dc/dcmitype/StillImage"/>
    <dc:date>2025-01-20T15:41:44.012077</dc:date>
    <dc:format>image/svg+xml</dc:format>
    <dc:creator>
     <cc:Agent>
      <dc:title>Matplotlib v3.9.0, https://matplotlib.org/</dc:title>
     </cc:Agent>
    </dc:creator>
   </cc:Work>
  </rdf:RDF>
 </metadata>
 <defs>
  <style type="text/css">*{stroke-linejoin: round; stroke-linecap: butt}</style>
 </defs>
 <g id="figure_1">
  <g id="patch_1">
   <path d="M 0 325.986375 
L 427.191875 325.986375 
L 427.191875 0 
L 0 0 
z
" style="fill: #ffffff"/>
  </g>
  <g id="axes_1">
   <g id="patch_2">
    <path d="M 53.328125 288.430125 
L 410.448125 288.430125 
L 410.448125 22.318125 
L 53.328125 22.318125 
z
" style="fill: #ffffff"/>
   </g>
   <g id="matplotlib.axis_1">
    <g id="xtick_1">
     <g id="line2d_1">
      <defs>
       <path id="mdfe4e50b87" d="M 0 0 
L 0 3.5 
" style="stroke: #000000; stroke-width: 0.8"/>
      </defs>
      <g>
       <use xlink:href="#mdfe4e50b87" x="55.546262" y="288.430125" style="stroke: #000000; stroke-width: 0.8"/>
      </g>
     </g>
     <g id="text_1">
      <!-- 100 -->
      <g transform="translate(46.002512 303.028562) scale(0.1 -0.1)">
       <defs>
        <path id="DejaVuSans-31" d="M 794 531 
L 1825 531 
L 1825 4091 
L 703 3866 
L 703 4441 
L 1819 4666 
L 2450 4666 
L 2450 531 
L 3481 531 
L 3481 0 
L 794 0 
L 794 531 
z
" transform="scale(0.015625)"/>
        <path id="DejaVuSans-30" d="M 2034 4250 
Q 1547 4250 1301 3770 
Q 1056 3291 1056 2328 
Q 1056 1369 1301 889 
Q 1547 409 2034 409 
Q 2525 409 2770 889 
Q 3016 1369 3016 2328 
Q 3016 3291 2770 3770 
Q 2525 4250 2034 4250 
z
M 2034 4750 
Q 2819 4750 3233 4129 
Q 3647 3509 3647 2328 
Q 3647 1150 3233 529 
Q 2819 -91 2034 -91 
Q 1250 -91 836 529 
Q 422 1150 422 2328 
Q 422 3509 836 4129 
Q 1250 4750 2034 4750 
z
" transform="scale(0.015625)"/>
       </defs>
       <use xlink:href="#DejaVuSans-31"/>
       <use xlink:href="#DejaVuSans-30" x="63.623047"/>
       <use xlink:href="#DejaVuSans-30" x="127.246094"/>
      </g>
     </g>
    </g>
    <g id="xtick_2">
     <g id="line2d_2">
      <g>
       <use xlink:href="#mdfe4e50b87" x="99.908995" y="288.430125" style="stroke: #000000; stroke-width: 0.8"/>
      </g>
     </g>
     <g id="text_2">
      <!-- 120 -->
      <g transform="translate(90.365245 303.028562) scale(0.1 -0.1)">
       <defs>
        <path id="DejaVuSans-32" d="M 1228 531 
L 3431 531 
L 3431 0 
L 469 0 
L 469 531 
Q 828 903 1448 1529 
Q 2069 2156 2228 2338 
Q 2531 2678 2651 2914 
Q 2772 3150 2772 3378 
Q 2772 3750 2511 3984 
Q 2250 4219 1831 4219 
Q 1534 4219 1204 4116 
Q 875 4013 500 3803 
L 500 4441 
Q 881 4594 1212 4672 
Q 1544 4750 1819 4750 
Q 2544 4750 2975 4387 
Q 3406 4025 3406 3419 
Q 3406 3131 3298 2873 
Q 3191 2616 2906 2266 
Q 2828 2175 2409 1742 
Q 1991 1309 1228 531 
z
" transform="scale(0.015625)"/>
       </defs>
       <use xlink:href="#DejaVuSans-31"/>
       <use xlink:href="#DejaVuSans-32" x="63.623047"/>
       <use xlink:href="#DejaVuSans-30" x="127.246094"/>
      </g>
     </g>
    </g>
    <g id="xtick_3">
     <g id="line2d_3">
      <g>
       <use xlink:href="#mdfe4e50b87" x="144.271727" y="288.430125" style="stroke: #000000; stroke-width: 0.8"/>
      </g>
     </g>
     <g id="text_3">
      <!-- 140 -->
      <g transform="translate(134.727977 303.028562) scale(0.1 -0.1)">
       <defs>
        <path id="DejaVuSans-34" d="M 2419 4116 
L 825 1625 
L 2419 1625 
L 2419 4116 
z
M 2253 4666 
L 3047 4666 
L 3047 1625 
L 3713 1625 
L 3713 1100 
L 3047 1100 
L 3047 0 
L 2419 0 
L 2419 1100 
L 313 1100 
L 313 1709 
L 2253 4666 
z
" transform="scale(0.015625)"/>
       </defs>
       <use xlink:href="#DejaVuSans-31"/>
       <use xlink:href="#DejaVuSans-34" x="63.623047"/>
       <use xlink:href="#DejaVuSans-30" x="127.246094"/>
      </g>
     </g>
    </g>
    <g id="xtick_4">
     <g id="line2d_4">
      <g>
       <use xlink:href="#mdfe4e50b87" x="188.63446" y="288.430125" style="stroke: #000000; stroke-width: 0.8"/>
      </g>
     </g>
     <g id="text_4">
      <!-- 160 -->
      <g transform="translate(179.09071 303.028562) scale(0.1 -0.1)">
       <defs>
        <path id="DejaVuSans-36" d="M 2113 2584 
Q 1688 2584 1439 2293 
Q 1191 2003 1191 1497 
Q 1191 994 1439 701 
Q 1688 409 2113 409 
Q 2538 409 2786 701 
Q 3034 994 3034 1497 
Q 3034 2003 2786 2293 
Q 2538 2584 2113 2584 
z
M 3366 4563 
L 3366 3988 
Q 3128 4100 2886 4159 
Q 2644 4219 2406 4219 
Q 1781 4219 1451 3797 
Q 1122 3375 1075 2522 
Q 1259 2794 1537 2939 
Q 1816 3084 2150 3084 
Q 2853 3084 3261 2657 
Q 3669 2231 3669 1497 
Q 3669 778 3244 343 
Q 2819 -91 2113 -91 
Q 1303 -91 875 529 
Q 447 1150 447 2328 
Q 447 3434 972 4092 
Q 1497 4750 2381 4750 
Q 2619 4750 2861 4703 
Q 3103 4656 3366 4563 
z
" transform="scale(0.015625)"/>
       </defs>
       <use xlink:href="#DejaVuSans-31"/>
       <use xlink:href="#DejaVuSans-36" x="63.623047"/>
       <use xlink:href="#DejaVuSans-30" x="127.246094"/>
      </g>
     </g>
    </g>
    <g id="xtick_5">
     <g id="line2d_5">
      <g>
       <use xlink:href="#mdfe4e50b87" x="232.997193" y="288.430125" style="stroke: #000000; stroke-width: 0.8"/>
      </g>
     </g>
     <g id="text_5">
      <!-- 180 -->
      <g transform="translate(223.453443 303.028562) scale(0.1 -0.1)">
       <defs>
        <path id="DejaVuSans-38" d="M 2034 2216 
Q 1584 2216 1326 1975 
Q 1069 1734 1069 1313 
Q 1069 891 1326 650 
Q 1584 409 2034 409 
Q 2484 409 2743 651 
Q 3003 894 3003 1313 
Q 3003 1734 2745 1975 
Q 2488 2216 2034 2216 
z
M 1403 2484 
Q 997 2584 770 2862 
Q 544 3141 544 3541 
Q 544 4100 942 4425 
Q 1341 4750 2034 4750 
Q 2731 4750 3128 4425 
Q 3525 4100 3525 3541 
Q 3525 3141 3298 2862 
Q 3072 2584 2669 2484 
Q 3125 2378 3379 2068 
Q 3634 1759 3634 1313 
Q 3634 634 3220 271 
Q 2806 -91 2034 -91 
Q 1263 -91 848 271 
Q 434 634 434 1313 
Q 434 1759 690 2068 
Q 947 2378 1403 2484 
z
M 1172 3481 
Q 1172 3119 1398 2916 
Q 1625 2713 2034 2713 
Q 2441 2713 2670 2916 
Q 2900 3119 2900 3481 
Q 2900 3844 2670 4047 
Q 2441 4250 2034 4250 
Q 1625 4250 1398 4047 
Q 1172 3844 1172 3481 
z
" transform="scale(0.015625)"/>
       </defs>
       <use xlink:href="#DejaVuSans-31"/>
       <use xlink:href="#DejaVuSans-38" x="63.623047"/>
       <use xlink:href="#DejaVuSans-30" x="127.246094"/>
      </g>
     </g>
    </g>
    <g id="xtick_6">
     <g id="line2d_6">
      <g>
       <use xlink:href="#mdfe4e50b87" x="277.359926" y="288.430125" style="stroke: #000000; stroke-width: 0.8"/>
      </g>
     </g>
     <g id="text_6">
      <!-- 200 -->
      <g transform="translate(267.816176 303.028562) scale(0.1 -0.1)">
       <use xlink:href="#DejaVuSans-32"/>
       <use xlink:href="#DejaVuSans-30" x="63.623047"/>
       <use xlink:href="#DejaVuSans-30" x="127.246094"/>
      </g>
     </g>
    </g>
    <g id="xtick_7">
     <g id="line2d_7">
      <g>
       <use xlink:href="#mdfe4e50b87" x="321.722659" y="288.430125" style="stroke: #000000; stroke-width: 0.8"/>
      </g>
     </g>
     <g id="text_7">
      <!-- 220 -->
      <g transform="translate(312.178909 303.028562) scale(0.1 -0.1)">
       <use xlink:href="#DejaVuSans-32"/>
       <use xlink:href="#DejaVuSans-32" x="63.623047"/>
       <use xlink:href="#DejaVuSans-30" x="127.246094"/>
      </g>
     </g>
    </g>
    <g id="xtick_8">
     <g id="line2d_8">
      <g>
       <use xlink:href="#mdfe4e50b87" x="366.085392" y="288.430125" style="stroke: #000000; stroke-width: 0.8"/>
      </g>
     </g>
     <g id="text_8">
      <!-- 240 -->
      <g transform="translate(356.541642 303.028562) scale(0.1 -0.1)">
       <use xlink:href="#DejaVuSans-32"/>
       <use xlink:href="#DejaVuSans-34" x="63.623047"/>
       <use xlink:href="#DejaVuSans-30" x="127.246094"/>
      </g>
     </g>
    </g>
    <g id="xtick_9">
     <g id="line2d_9">
      <g>
       <use xlink:href="#mdfe4e50b87" x="410.448125" y="288.430125" style="stroke: #000000; stroke-width: 0.8"/>
      </g>
     </g>
     <g id="text_9">
      <!-- 260 -->
      <g transform="translate(400.904375 303.028562) scale(0.1 -0.1)">
       <use xlink:href="#DejaVuSans-32"/>
       <use xlink:href="#DejaVuSans-36" x="63.623047"/>
       <use xlink:href="#DejaVuSans-30" x="127.246094"/>
      </g>
     </g>
    </g>
    <g id="text_10">
     <!-- Strain(%) -->
     <g transform="translate(208.424063 316.706687) scale(0.1 -0.1)">
      <defs>
       <path id="DejaVuSans-53" d="M 3425 4513 
L 3425 3897 
Q 3066 4069 2747 4153 
Q 2428 4238 2131 4238 
Q 1616 4238 1336 4038 
Q 1056 3838 1056 3469 
Q 1056 3159 1242 3001 
Q 1428 2844 1947 2747 
L 2328 2669 
Q 3034 2534 3370 2195 
Q 3706 1856 3706 1288 
Q 3706 609 3251 259 
Q 2797 -91 1919 -91 
Q 1588 -91 1214 -16 
Q 841 59 441 206 
L 441 856 
Q 825 641 1194 531 
Q 1563 422 1919 422 
Q 2459 422 2753 634 
Q 3047 847 3047 1241 
Q 3047 1584 2836 1778 
Q 2625 1972 2144 2069 
L 1759 2144 
Q 1053 2284 737 2584 
Q 422 2884 422 3419 
Q 422 4038 858 4394 
Q 1294 4750 2059 4750 
Q 2388 4750 2728 4690 
Q 3069 4631 3425 4513 
z
" transform="scale(0.015625)"/>
       <path id="DejaVuSans-74" d="M 1172 4494 
L 1172 3500 
L 2356 3500 
L 2356 3053 
L 1172 3053 
L 1172 1153 
Q 1172 725 1289 603 
Q 1406 481 1766 481 
L 2356 481 
L 2356 0 
L 1766 0 
Q 1100 0 847 248 
Q 594 497 594 1153 
L 594 3053 
L 172 3053 
L 172 3500 
L 594 3500 
L 594 4494 
L 1172 4494 
z
" transform="scale(0.015625)"/>
       <path id="DejaVuSans-72" d="M 2631 2963 
Q 2534 3019 2420 3045 
Q 2306 3072 2169 3072 
Q 1681 3072 1420 2755 
Q 1159 2438 1159 1844 
L 1159 0 
L 581 0 
L 581 3500 
L 1159 3500 
L 1159 2956 
Q 1341 3275 1631 3429 
Q 1922 3584 2338 3584 
Q 2397 3584 2469 3576 
Q 2541 3569 2628 3553 
L 2631 2963 
z
" transform="scale(0.015625)"/>
       <path id="DejaVuSans-61" d="M 2194 1759 
Q 1497 1759 1228 1600 
Q 959 1441 959 1056 
Q 959 750 1161 570 
Q 1363 391 1709 391 
Q 2188 391 2477 730 
Q 2766 1069 2766 1631 
L 2766 1759 
L 2194 1759 
z
M 3341 1997 
L 3341 0 
L 2766 0 
L 2766 531 
Q 2569 213 2275 61 
Q 1981 -91 1556 -91 
Q 1019 -91 701 211 
Q 384 513 384 1019 
Q 384 1609 779 1909 
Q 1175 2209 1959 2209 
L 2766 2209 
L 2766 2266 
Q 2766 2663 2505 2880 
Q 2244 3097 1772 3097 
Q 1472 3097 1187 3025 
Q 903 2953 641 2809 
L 641 3341 
Q 956 3463 1253 3523 
Q 1550 3584 1831 3584 
Q 2591 3584 2966 3190 
Q 3341 2797 3341 1997 
z
" transform="scale(0.015625)"/>
       <path id="DejaVuSans-69" d="M 603 3500 
L 1178 3500 
L 1178 0 
L 603 0 
L 603 3500 
z
M 603 4863 
L 1178 4863 
L 1178 4134 
L 603 4134 
L 603 4863 
z
" transform="scale(0.015625)"/>
       <path id="DejaVuSans-6e" d="M 3513 2113 
L 3513 0 
L 2938 0 
L 2938 2094 
Q 2938 2591 2744 2837 
Q 2550 3084 2163 3084 
Q 1697 3084 1428 2787 
Q 1159 2491 1159 1978 
L 1159 0 
L 581 0 
L 581 3500 
L 1159 3500 
L 1159 2956 
Q 1366 3272 1645 3428 
Q 1925 3584 2291 3584 
Q 2894 3584 3203 3211 
Q 3513 2838 3513 2113 
z
" transform="scale(0.015625)"/>
       <path id="DejaVuSans-28" d="M 1984 4856 
Q 1566 4138 1362 3434 
Q 1159 2731 1159 2009 
Q 1159 1288 1364 580 
Q 1569 -128 1984 -844 
L 1484 -844 
Q 1016 -109 783 600 
Q 550 1309 550 2009 
Q 550 2706 781 3412 
Q 1013 4119 1484 4856 
L 1984 4856 
z
" transform="scale(0.015625)"/>
       <path id="DejaVuSans-25" d="M 4653 2053 
Q 4381 2053 4226 1822 
Q 4072 1591 4072 1178 
Q 4072 772 4226 539 
Q 4381 306 4653 306 
Q 4919 306 5073 539 
Q 5228 772 5228 1178 
Q 5228 1588 5073 1820 
Q 4919 2053 4653 2053 
z
M 4653 2450 
Q 5147 2450 5437 2106 
Q 5728 1763 5728 1178 
Q 5728 594 5436 251 
Q 5144 -91 4653 -91 
Q 4153 -91 3862 251 
Q 3572 594 3572 1178 
Q 3572 1766 3864 2108 
Q 4156 2450 4653 2450 
z
M 1428 4353 
Q 1159 4353 1004 4120 
Q 850 3888 850 3481 
Q 850 3069 1003 2837 
Q 1156 2606 1428 2606 
Q 1700 2606 1854 2837 
Q 2009 3069 2009 3481 
Q 2009 3884 1853 4118 
Q 1697 4353 1428 4353 
z
M 4250 4750 
L 4750 4750 
L 1831 -91 
L 1331 -91 
L 4250 4750 
z
M 1428 4750 
Q 1922 4750 2215 4408 
Q 2509 4066 2509 3481 
Q 2509 2891 2217 2550 
Q 1925 2209 1428 2209 
Q 931 2209 642 2551 
Q 353 2894 353 3481 
Q 353 4063 643 4406 
Q 934 4750 1428 4750 
z
" transform="scale(0.015625)"/>
       <path id="DejaVuSans-29" d="M 513 4856 
L 1013 4856 
Q 1481 4119 1714 3412 
Q 1947 2706 1947 2009 
Q 1947 1309 1714 600 
Q 1481 -109 1013 -844 
L 513 -844 
Q 928 -128 1133 580 
Q 1338 1288 1338 2009 
Q 1338 2731 1133 3434 
Q 928 4138 513 4856 
z
" transform="scale(0.015625)"/>
      </defs>
      <use xlink:href="#DejaVuSans-53"/>
      <use xlink:href="#DejaVuSans-74" x="63.476562"/>
      <use xlink:href="#DejaVuSans-72" x="102.685547"/>
      <use xlink:href="#DejaVuSans-61" x="143.798828"/>
      <use xlink:href="#DejaVuSans-69" x="205.078125"/>
      <use xlink:href="#DejaVuSans-6e" x="232.861328"/>
      <use xlink:href="#DejaVuSans-28" x="296.240234"/>
      <use xlink:href="#DejaVuSans-25" x="335.253906"/>
      <use xlink:href="#DejaVuSans-29" x="430.273438"/>
     </g>
    </g>
   </g>
   <g id="matplotlib.axis_2">
    <g id="ytick_1">
     <g id="line2d_10">
      <defs>
       <path id="md06295537c" d="M 0 0 
L -3.5 0 
" style="stroke: #000000; stroke-width: 0.8"/>
      </defs>
      <g>
       <use xlink:href="#md06295537c" x="53.328125" y="288.430125" style="stroke: #000000; stroke-width: 0.8"/>
      </g>
     </g>
     <g id="text_11">
      <!-- 0 -->
      <g transform="translate(39.965625 292.229344) scale(0.1 -0.1)">
       <use xlink:href="#DejaVuSans-30"/>
      </g>
     </g>
    </g>
    <g id="ytick_2">
     <g id="line2d_11">
      <g>
       <use xlink:href="#md06295537c" x="53.328125" y="252.948525" style="stroke: #000000; stroke-width: 0.8"/>
      </g>
     </g>
     <g id="text_12">
      <!-- 200 -->
      <g transform="translate(27.240625 256.747744) scale(0.1 -0.1)">
       <use xlink:href="#DejaVuSans-32"/>
       <use xlink:href="#DejaVuSans-30" x="63.623047"/>
       <use xlink:href="#DejaVuSans-30" x="127.246094"/>
      </g>
     </g>
    </g>
    <g id="ytick_3">
     <g id="line2d_12">
      <g>
       <use xlink:href="#md06295537c" x="53.328125" y="217.466925" style="stroke: #000000; stroke-width: 0.8"/>
      </g>
     </g>
     <g id="text_13">
      <!-- 400 -->
      <g transform="translate(27.240625 221.266144) scale(0.1 -0.1)">
       <use xlink:href="#DejaVuSans-34"/>
       <use xlink:href="#DejaVuSans-30" x="63.623047"/>
       <use xlink:href="#DejaVuSans-30" x="127.246094"/>
      </g>
     </g>
    </g>
    <g id="ytick_4">
     <g id="line2d_13">
      <g>
       <use xlink:href="#md06295537c" x="53.328125" y="181.985325" style="stroke: #000000; stroke-width: 0.8"/>
      </g>
     </g>
     <g id="text_14">
      <!-- 600 -->
      <g transform="translate(27.240625 185.784544) scale(0.1 -0.1)">
       <use xlink:href="#DejaVuSans-36"/>
       <use xlink:href="#DejaVuSans-30" x="63.623047"/>
       <use xlink:href="#DejaVuSans-30" x="127.246094"/>
      </g>
     </g>
    </g>
    <g id="ytick_5">
     <g id="line2d_14">
      <g>
       <use xlink:href="#md06295537c" x="53.328125" y="146.503725" style="stroke: #000000; stroke-width: 0.8"/>
      </g>
     </g>
     <g id="text_15">
      <!-- 800 -->
      <g transform="translate(27.240625 150.302944) scale(0.1 -0.1)">
       <use xlink:href="#DejaVuSans-38"/>
       <use xlink:href="#DejaVuSans-30" x="63.623047"/>
       <use xlink:href="#DejaVuSans-30" x="127.246094"/>
      </g>
     </g>
    </g>
    <g id="ytick_6">
     <g id="line2d_15">
      <g>
       <use xlink:href="#md06295537c" x="53.328125" y="111.022125" style="stroke: #000000; stroke-width: 0.8"/>
      </g>
     </g>
     <g id="text_16">
      <!-- 1000 -->
      <g transform="translate(20.878125 114.821344) scale(0.1 -0.1)">
       <use xlink:href="#DejaVuSans-31"/>
       <use xlink:href="#DejaVuSans-30" x="63.623047"/>
       <use xlink:href="#DejaVuSans-30" x="127.246094"/>
       <use xlink:href="#DejaVuSans-30" x="190.869141"/>
      </g>
     </g>
    </g>
    <g id="ytick_7">
     <g id="line2d_16">
      <g>
       <use xlink:href="#md06295537c" x="53.328125" y="75.540525" style="stroke: #000000; stroke-width: 0.8"/>
      </g>
     </g>
     <g id="text_17">
      <!-- 1200 -->
      <g transform="translate(20.878125 79.339744) scale(0.1 -0.1)">
       <use xlink:href="#DejaVuSans-31"/>
       <use xlink:href="#DejaVuSans-32" x="63.623047"/>
       <use xlink:href="#DejaVuSans-30" x="127.246094"/>
       <use xlink:href="#DejaVuSans-30" x="190.869141"/>
      </g>
     </g>
    </g>
    <g id="ytick_8">
     <g id="line2d_17">
      <g>
       <use xlink:href="#md06295537c" x="53.328125" y="40.058925" style="stroke: #000000; stroke-width: 0.8"/>
      </g>
     </g>
     <g id="text_18">
      <!-- 1400 -->
      <g transform="translate(20.878125 43.858144) scale(0.1 -0.1)">
       <use xlink:href="#DejaVuSans-31"/>
       <use xlink:href="#DejaVuSans-34" x="63.623047"/>
       <use xlink:href="#DejaVuSans-30" x="127.246094"/>
       <use xlink:href="#DejaVuSans-30" x="190.869141"/>
      </g>
     </g>
    </g>
    <g id="text_19">
     <!-- Stress(MPa) -->
     <g transform="translate(14.798438 184.806937) rotate(-90) scale(0.1 -0.1)">
      <defs>
       <path id="DejaVuSans-65" d="M 3597 1894 
L 3597 1613 
L 953 1613 
Q 991 1019 1311 708 
Q 1631 397 2203 397 
Q 2534 397 2845 478 
Q 3156 559 3463 722 
L 3463 178 
Q 3153 47 2828 -22 
Q 2503 -91 2169 -91 
Q 1331 -91 842 396 
Q 353 884 353 1716 
Q 353 2575 817 3079 
Q 1281 3584 2069 3584 
Q 2775 3584 3186 3129 
Q 3597 2675 3597 1894 
z
M 3022 2063 
Q 3016 2534 2758 2815 
Q 2500 3097 2075 3097 
Q 1594 3097 1305 2825 
Q 1016 2553 972 2059 
L 3022 2063 
z
" transform="scale(0.015625)"/>
       <path id="DejaVuSans-73" d="M 2834 3397 
L 2834 2853 
Q 2591 2978 2328 3040 
Q 2066 3103 1784 3103 
Q 1356 3103 1142 2972 
Q 928 2841 928 2578 
Q 928 2378 1081 2264 
Q 1234 2150 1697 2047 
L 1894 2003 
Q 2506 1872 2764 1633 
Q 3022 1394 3022 966 
Q 3022 478 2636 193 
Q 2250 -91 1575 -91 
Q 1294 -91 989 -36 
Q 684 19 347 128 
L 347 722 
Q 666 556 975 473 
Q 1284 391 1588 391 
Q 1994 391 2212 530 
Q 2431 669 2431 922 
Q 2431 1156 2273 1281 
Q 2116 1406 1581 1522 
L 1381 1569 
Q 847 1681 609 1914 
Q 372 2147 372 2553 
Q 372 3047 722 3315 
Q 1072 3584 1716 3584 
Q 2034 3584 2315 3537 
Q 2597 3491 2834 3397 
z
" transform="scale(0.015625)"/>
       <path id="DejaVuSans-4d" d="M 628 4666 
L 1569 4666 
L 2759 1491 
L 3956 4666 
L 4897 4666 
L 4897 0 
L 4281 0 
L 4281 4097 
L 3078 897 
L 2444 897 
L 1241 4097 
L 1241 0 
L 628 0 
L 628 4666 
z
" transform="scale(0.015625)"/>
       <path id="DejaVuSans-50" d="M 1259 4147 
L 1259 2394 
L 2053 2394 
Q 2494 2394 2734 2622 
Q 2975 2850 2975 3272 
Q 2975 3691 2734 3919 
Q 2494 4147 2053 4147 
L 1259 4147 
z
M 628 4666 
L 2053 4666 
Q 2838 4666 3239 4311 
Q 3641 3956 3641 3272 
Q 3641 2581 3239 2228 
Q 2838 1875 2053 1875 
L 1259 1875 
L 1259 0 
L 628 0 
L 628 4666 
z
" transform="scale(0.015625)"/>
      </defs>
      <use xlink:href="#DejaVuSans-53"/>
      <use xlink:href="#DejaVuSans-74" x="63.476562"/>
      <use xlink:href="#DejaVuSans-72" x="102.685547"/>
      <use xlink:href="#DejaVuSans-65" x="141.548828"/>
      <use xlink:href="#DejaVuSans-73" x="203.072266"/>
      <use xlink:href="#DejaVuSans-73" x="255.171875"/>
      <use xlink:href="#DejaVuSans-28" x="307.271484"/>
      <use xlink:href="#DejaVuSans-4d" x="346.285156"/>
      <use xlink:href="#DejaVuSans-50" x="432.564453"/>
      <use xlink:href="#DejaVuSans-61" x="488.367188"/>
      <use xlink:href="#DejaVuSans-29" x="549.646484"/>
     </g>
    </g>
   </g>
   <g id="line2d_18">
    <path d="M 55.546262 288.430125 
L 56.894198 315.52654 
L 58.242157 268.339722 
L 59.590093 262.313678 
L 60.938052 260.506934 
L 62.285989 259.469288 
L 63.633947 269.031265 
L 64.981883 260.226642 
L 66.329842 252.367451 
L 67.677779 263.444064 
L 69.025716 252.419309 
L 70.373674 248.809175 
L 71.721632 231.650647 
L 73.069592 243.186844 
L 74.417528 234.805231 
L 75.765486 233.327031 
L 77.113423 226.152782 
L 78.46136 227.346681 
L 79.809318 222.356448 
L 81.157254 213.067067 
L 82.505212 228.898488 
L 83.853149 229.028555 
L 85.201109 216.916143 
L 86.549045 240.03325 
L 87.896982 230.033355 
L 89.244939 226.352699 
L 90.592875 240.876705 
L 91.940835 241.526421 
L 93.288772 217.46633 
L 94.636731 228.854386 
L 95.984668 212.993852 
L 97.332605 222.31919 
L 98.680584 217.010977 
L 100.028521 222.154053 
L 101.376481 222.112774 
L 102.724417 213.579641 
L 104.072374 217.173773 
L 105.42031 238.519848 
L 106.768247 230.485995 
L 108.116207 231.005094 
L 109.464143 184.215396 
L 110.8121 197.125137 
L 112.160036 191.860288 
L 113.507996 205.924319 
L 116.203869 201.075112 
L 117.551829 182.198826 
L 118.899763 198.377325 
L 120.247722 210.06533 
L 121.595662 228.654917 
L 122.943615 214.7462 
L 125.639535 222.739999 
L 126.987475 201.896935 
L 128.335408 198.473887 
L 129.683368 191.994313 
L 131.031301 211.771911 
L 132.379261 185.948089 
L 133.727201 205.816675 
L 135.075154 200.820389 
L 136.423094 203.795968 
L 137.771027 188.64747 
L 139.118987 188.230436 
L 140.466927 159.177735 
L 141.814887 176.68657 
L 143.16282 198.791733 
L 144.51078 206.93024 
L 145.858713 200.7314 
L 147.206653 227.610354 
L 148.554613 192.838106 
L 149.902546 186.982257 
L 151.250506 217.617343 
L 152.598446 204.996999 
L 153.946426 215.291938 
L 155.294359 177.170331 
L 156.642299 160.559437 
L 157.990252 206.602999 
L 159.338192 195.435521 
L 160.686152 177.420389 
L 162.034085 172.896213 
L 163.382045 159.79845 
L 164.729985 160.824882 
L 166.077918 177.586246 
L 167.425878 178.405897 
L 168.773811 178.980598 
L 170.121771 157.117731 
L 171.469704 147.256358 
L 172.817664 149.443798 
L 174.165597 162.847386 
L 175.513544 137.32467 
L 176.861504 146.01487 
L 178.209437 151.97235 
L 179.557397 155.965387 
L 180.90533 147.987556 
L 182.253316 123.821915 
L 183.60125 154.921532 
L 184.949209 130.597817 
L 186.297143 134.510651 
L 187.645076 117.064238 
L 188.993036 133.891607 
L 190.340969 136.098142 
L 191.688929 141.496672 
L 193.036875 138.775451 
L 194.384822 128.867812 
L 195.732769 97.553654 
L 197.080702 99.591491 
L 198.428662 101.386165 
L 199.776595 108.69229 
L 202.472488 144.955652 
L 203.820474 137.749474 
L 205.168381 136.034691 
L 206.516341 137.498333 
L 207.864301 113.626187 
L 209.212221 133.563724 
L 210.560181 139.716451 
L 211.90814 124.298103 
L 213.2561 101.656504 
L 214.604007 102.329386 
L 215.951967 81.169908 
L 217.299927 91.948261 
L 218.647847 89.487227 
L 219.995793 95.331728 
L 221.343753 72.282946 
L 222.691713 55.570204 
L 224.039672 53.144754 
L 225.387593 43.687608 
L 226.735552 28.704713 
L 228.083512 61.134813 
L 229.431419 82.04761 
L 230.779379 62.331845 
L 232.127339 53.58146 
L 233.475298 61.830618 
L 234.823205 30.045208 
L 236.171165 32.757509 
L 237.519125 18.217557 
L 239.009122 -1 
M 243.837324 -1 
L 244.258831 0.778305 
L 244.457809 -1 
L 244.457809 -1 
" clip-path="url(#p1fa0d4ee9e)" style="fill: none; stroke: #1f77b4; stroke-width: 1.5; stroke-linecap: square"/>
   </g>
   <g id="line2d_19">
    <path d="M 55.546262 288.430125 
L 57.347819 290.414011 
L 59.149376 264.804846 
L 60.950933 273.000817 
L 62.752491 253.858268 
L 64.554022 236.561742 
L 66.355605 250.209058 
L 68.157163 248.597413 
L 69.958694 237.65119 
L 71.760251 249.25732 
L 73.561809 249.205351 
L 75.363392 241.301807 
L 77.164922 221.013225 
L 78.966481 236.181594 
L 80.768038 243.134685 
L 82.56957 224.003481 
L 84.371126 212.077773 
L 86.172709 219.408552 
L 87.974266 206.628362 
L 89.7758 236.453577 
L 91.577356 224.44407 
L 93.378913 226.240021 
L 95.180496 213.388664 
L 96.982027 205.894465 
L 98.783583 239.88269 
L 100.585143 219.895699 
L 102.3867 245.173073 
L 104.18823 209.244903 
L 105.989814 225.543459 
L 107.79137 221.202113 
L 109.59293 218.582459 
L 111.394461 244.49402 
L 113.196017 241.442886 
L 114.9976 214.167895 
L 116.799131 222.457601 
L 118.600687 211.666818 
L 120.402244 211.458225 
L 122.203801 209.166755 
L 124.005338 198.566695 
L 125.806921 220.270303 
L 127.608478 201.980922 
L 129.410034 220.082206 
L 131.211565 216.602514 
L 133.013121 220.024224 
L 134.814705 206.439729 
L 136.616261 233.213032 
L 138.417792 215.288705 
L 140.219348 221.799968 
L 142.020905 219.565163 
L 143.822468 219.188432 
L 145.624025 207.175579 
L 147.425582 222.200864 
L 149.227139 225.317007 
L 151.028669 223.5384 
L 154.631809 240.869874 
L 156.433365 233.450127 
L 158.234896 236.122255 
L 160.036452 234.610042 
L 161.838009 219.801715 
L 163.639573 223.729142 
L 165.441129 217.159006 
L 167.242686 211.580428 
L 169.044236 212.719664 
L 170.845799 214.552945 
L 172.647336 228.082909 
L 174.448913 231.005498 
L 176.250476 214.35808 
L 178.052026 182.89172 
L 179.853563 208.086836 
L 181.655113 208.842285 
L 183.456677 214.79349 
L 185.258227 215.844974 
L 187.05979 220.646448 
L 188.86134 230.116003 
L 190.662904 208.158503 
L 192.46444 216.737489 
L 194.265991 200.181843 
L 196.06758 224.434139 
L 197.86913 229.639958 
L 199.670667 225.937102 
L 201.472217 230.344543 
L 203.273781 238.28953 
L 205.075357 247.783612 
L 208.678444 207.847169 
L 210.480008 196.776054 
L 212.281571 215.259855 
L 214.083095 217.207957 
L 215.884684 221.540996 
L 217.686235 209.635603 
L 219.487771 205.488314 
L 221.289322 222.841405 
L 223.090885 229.195933 
L 224.892461 221.559032 
L 226.693998 212.185261 
L 228.495548 209.25894 
L 230.297112 229.792239 
L 232.098675 210.172697 
L 233.900199 205.278995 
L 235.701789 207.210205 
L 237.503339 207.58409 
L 239.304902 213.523527 
L 241.106426 200.816544 
L 242.907989 231.821385 
L 244.709566 223.625286 
L 246.511129 231.626986 
L 248.312653 222.999681 
L 250.114216 227.609383 
L 251.915779 210.147759 
L 255.518893 221.222794 
L 257.320443 212.024159 
L 259.122006 229.574826 
L 260.92353 198.320397 
L 262.725093 223.97456 
L 264.52667 223.008394 
L 266.328233 210.722937 
L 268.129757 206.452721 
L 269.93132 225.398408 
L 271.732883 224.519242 
L 273.534433 217.348881 
L 275.33597 218.957465 
L 277.137547 219.691514 
L 278.939137 245.154329 
L 280.740674 192.864456 
L 282.542184 213.261894 
L 284.343774 221.13151 
L 286.145311 200.940442 
L 287.946848 205.349601 
L 289.748437 200.316299 
L 291.550001 191.303019 
L 293.351538 191.186587 
L 295.153074 226.283436 
L 296.954664 204.821198 
L 298.756175 211.007004 
L 300.557764 214.258565 
L 304.160891 210.466155 
L 305.962402 222.951626 
L 307.763939 210.173244 
L 309.565581 228.079841 
L 311.367118 207.462633 
L 313.168655 192.07485 
L 314.970218 223.593816 
L 316.771755 226.422715 
L 318.573292 209.912199 
L 320.374882 207.740804 
L 322.176392 229.37291 
L 323.977982 235.429836 
L 325.779519 231.196542 
L 327.581056 236.07025 
L 329.382699 233.943225 
L 331.184209 239.719744 
L 332.985746 220.244183 
L 334.787336 234.182679 
L 336.588873 243.282177 
L 338.390436 235.699569 
L 340.191973 248.117016 
L 341.99351 227.304551 
L 343.795099 244.136514 
L 345.596636 215.070956 
L 347.398147 232.455855 
L 349.199789 258.932424 
L 351.001326 239.234493 
L 352.802863 249.285678 
L 354.604427 281.0101 
L 356.405963 283.174064 
L 358.207553 265.558079 
L 360.00909 277.782026 
L 361.810601 257.534618 
L 363.61219 253.30175 
L 365.413727 260.602888 
L 367.215264 274.187699 
L 369.016907 261.303614 
L 370.818417 254.418186 
L 372.620007 259.385604 
L 374.421544 286.529091 
L 376.223081 267.374628 
L 378.024644 265.548065 
L 379.826181 275.92118 
L 381.627718 264.230463 
L 383.429308 278.593901 
L 385.230845 275.516772 
L 387.032355 292.909384 
L 388.833998 265.909427 
L 390.635535 281.346519 
L 392.437124 262.209445 
L 394.238635 275.817291 
L 396.040172 269.201218 
L 397.841761 288.763921 
L 399.643298 273.441187 
L 401.444809 287.57041 
L 403.246399 269.385993 
L 405.047935 272.937328 
L 406.849525 276.054969 
L 408.651115 289.377769 
L 410.452625 282.200902 
L 412.254215 285.975168 
L 414.055752 287.971154 
L 415.857289 290.283723 
L 415.857289 290.283723 
" clip-path="url(#p1fa0d4ee9e)" style="fill: none; stroke: #ff7f0e; stroke-width: 1.5; stroke-linecap: square"/>
   </g>
   <g id="line2d_20">
    <path d="M 55.546262 288.430125 
L 57.157746 289.739637 
L 58.769231 262.612549 
L 60.380715 275.89359 
L 61.9922 253.818115 
L 63.603684 242.60681 
L 65.215194 262.816061 
L 66.826654 247.21229 
L 68.438138 254.679593 
L 70.049647 244.36064 
L 71.661107 244.559062 
L 73.272592 254.215656 
L 74.884102 264.808758 
L 76.495562 247.511928 
L 78.107047 245.272505 
L 79.718555 228.93664 
L 81.330015 255.035513 
L 82.9415 233.793443 
L 84.553009 232.545353 
L 86.164469 223.200036 
L 87.775979 219.321722 
L 89.387439 229.261877 
L 90.998922 234.634806 
L 92.610432 200.014808 
L 94.221892 228.280557 
L 95.833375 222.151953 
L 97.444885 232.599088 
L 99.056345 231.50623 
L 100.667832 221.403132 
L 102.279338 218.82434 
L 103.890798 246.984101 
L 105.502285 228.932418 
L 107.113794 235.831823 
L 108.725254 250.608415 
L 110.336764 226.336689 
L 111.948247 223.587566 
L 113.559704 232.558276 
L 115.171214 210.665812 
L 116.782677 226.123212 
L 118.39416 235.619158 
L 120.00567 230.73151 
L 121.617133 236.817277 
L 123.228617 237.167676 
L 124.840126 230.451211 
L 126.451583 229.378336 
L 128.063066 241.638663 
L 129.674576 236.295141 
L 131.286039 252.369785 
L 132.897523 254.084259 
L 134.509032 263.126046 
L 136.120489 228.307175 
L 137.731999 243.616926 
L 139.343482 230.256652 
L 140.954945 229.319747 
L 142.566455 234.938649 
L 144.177938 244.014169 
L 145.789402 235.110599 
L 147.400911 212.148403 
L 149.012368 238.212562 
L 150.623851 223.014665 
L 152.235361 236.938073 
L 153.846824 229.009312 
L 155.458307 239.483131 
L 157.069817 228.318929 
L 158.681274 236.517437 
L 160.292784 214.249571 
L 161.904267 217.672419 
L 163.51573 230.659224 
L 165.12724 215.857895 
L 166.738723 244.920756 
L 168.35018 239.561071 
L 169.96169 222.222595 
L 171.573173 220.311748 
L 173.184643 205.665969 
L 174.796152 218.272033 
L 176.407636 204.94029 
L 178.019092 208.769782 
L 179.630602 204.52041 
L 181.242059 226.48555 
L 182.853569 228.040603 
L 184.465052 214.614074 
L 186.076509 234.12567 
L 187.688018 219.713055 
L 189.299501 229.049343 
L 190.910971 244.462726 
L 192.522481 231.030973 
L 194.133964 225.10603 
L 195.745421 225.193592 
L 197.356931 204.764905 
L 198.968414 242.514604 
L 200.579871 228.078652 
L 202.191381 204.193353 
L 203.802864 209.180722 
L 205.41436 222.095434 
L 207.025843 225.946641 
L 208.637327 217.206302 
L 210.24881 225.175492 
L 211.860293 218.264066 
L 213.47175 213.07088 
L 215.08326 212.055337 
L 216.694743 208.328411 
L 218.3062 212.292354 
L 219.917709 221.804741 
L 221.529206 212.913308 
L 223.140662 218.925753 
L 224.752172 228.789024 
L 226.363655 218.712947 
L 227.975139 203.324613 
L 229.586622 215.212189 
L 231.198105 224.528429 
L 232.809588 211.948869 
L 234.421071 220.307677 
L 236.032555 211.718037 
L 237.644051 206.590094 
L 239.255534 228.42299 
L 240.866991 238.809781 
L 242.478501 237.537676 
L 244.089958 227.56595 
L 245.701467 224.772537 
L 247.312977 235.103147 
L 248.924434 239.807218 
L 250.535904 217.121178 
L 252.147413 211.361339 
L 253.75887 222.549151 
L 255.37038 195.934949 
L 256.981889 220.38549 
L 258.593346 194.294687 
L 260.204856 220.223929 
L 261.816313 232.121831 
L 263.427769 214.690924 
L 265.039279 218.302814 
L 266.650749 211.230235 
L 268.262259 215.041883 
L 269.873716 220.272451 
L 271.485225 197.104843 
L 273.096735 214.235738 
L 274.708192 221.907667 
L 276.319648 207.736039 
L 277.931158 209.073456 
L 279.542628 242.237218 
L 281.154125 205.016212 
L 282.765647 223.46847 
L 284.377091 204.809033 
L 285.988561 227.894486 
L 287.600058 205.080351 
L 289.21158 231.41099 
L 290.82305 229.9177 
L 292.434547 213.469591 
L 294.046017 206.705829 
L 295.65746 230.242158 
L 297.268983 228.952876 
L 298.88048 199.759505 
L 300.49195 211.280857 
L 302.103446 205.966913 
L 303.714916 209.296116 
L 305.326386 209.969927 
L 306.937883 202.640234 
L 308.549379 221.233572 
L 310.160849 226.557272 
L 311.772372 227.975992 
L 313.383816 219.621051 
L 314.995286 212.759434 
L 316.606835 225.850284 
L 318.218305 214.749509 
L 319.829748 217.924777 
L 321.441218 207.831133 
L 323.052741 210.060634 
L 324.664185 213.640937 
L 326.275708 214.880525 
L 327.887204 224.23357 
L 329.498674 219.03313 
L 331.110118 221.97834 
L 332.721641 216.639804 
L 334.333137 219.329546 
L 337.556104 204.626566 
L 339.167574 215.332275 
L 340.779044 218.793334 
L 342.39054 205.935224 
L 344.002063 205.088372 
L 345.613506 190.330085 
L 347.225029 221.38686 
L 348.836473 194.424781 
L 350.447943 216.661524 
L 352.059439 227.65386 
L 353.670962 218.790743 
L 355.282432 209.099194 
L 356.893929 226.634533 
L 358.505399 200.371361 
L 360.116842 207.943806 
L 361.728418 218.464876 
L 363.339862 201.759825 
L 364.951332 218.621787 
L 366.562828 226.816534 
L 368.174298 207.854959 
L 369.785768 205.123643 
L 371.397317 220.185589 
L 373.008787 198.114014 
L 374.620231 223.688029 
L 376.231754 217.492361 
L 377.843197 203.37912 
L 377.843197 203.37912 
" clip-path="url(#p1fa0d4ee9e)" style="fill: none; stroke: #2ca02c; stroke-width: 1.5; stroke-linecap: square"/>
   </g>
   <g id="patch_3">
    <path d="M 53.328125 288.430125 
L 53.328125 22.318125 
" style="fill: none; stroke: #000000; stroke-width: 0.8; stroke-linejoin: miter; stroke-linecap: square"/>
   </g>
   <g id="patch_4">
    <path d="M 410.448125 288.430125 
L 410.448125 22.318125 
" style="fill: none; stroke: #000000; stroke-width: 0.8; stroke-linejoin: miter; stroke-linecap: square"/>
   </g>
   <g id="patch_5">
    <path d="M 53.328125 288.430125 
L 410.448125 288.430125 
" style="fill: none; stroke: #000000; stroke-width: 0.8; stroke-linejoin: miter; stroke-linecap: square"/>
   </g>
   <g id="patch_6">
    <path d="M 53.328125 22.318125 
L 410.448125 22.318125 
" style="fill: none; stroke: #000000; stroke-width: 0.8; stroke-linejoin: miter; stroke-linecap: square"/>
   </g>
   <g id="text_20">
    <!-- Stress-Strain Curve -->
    <g transform="translate(173.904688 16.318125) scale(0.12 -0.12)">
     <defs>
      <path id="DejaVuSans-2d" d="M 313 2009 
L 1997 2009 
L 1997 1497 
L 313 1497 
L 313 2009 
z
" transform="scale(0.015625)"/>
      <path id="DejaVuSans-20" transform="scale(0.015625)"/>
      <path id="DejaVuSans-43" d="M 4122 4306 
L 4122 3641 
Q 3803 3938 3442 4084 
Q 3081 4231 2675 4231 
Q 1875 4231 1450 3742 
Q 1025 3253 1025 2328 
Q 1025 1406 1450 917 
Q 1875 428 2675 428 
Q 3081 428 3442 575 
Q 3803 722 4122 1019 
L 4122 359 
Q 3791 134 3420 21 
Q 3050 -91 2638 -91 
Q 1578 -91 968 557 
Q 359 1206 359 2328 
Q 359 3453 968 4101 
Q 1578 4750 2638 4750 
Q 3056 4750 3426 4639 
Q 3797 4528 4122 4306 
z
" transform="scale(0.015625)"/>
      <path id="DejaVuSans-75" d="M 544 1381 
L 544 3500 
L 1119 3500 
L 1119 1403 
Q 1119 906 1312 657 
Q 1506 409 1894 409 
Q 2359 409 2629 706 
Q 2900 1003 2900 1516 
L 2900 3500 
L 3475 3500 
L 3475 0 
L 2900 0 
L 2900 538 
Q 2691 219 2414 64 
Q 2138 -91 1772 -91 
Q 1169 -91 856 284 
Q 544 659 544 1381 
z
M 1991 3584 
L 1991 3584 
z
" transform="scale(0.015625)"/>
      <path id="DejaVuSans-76" d="M 191 3500 
L 800 3500 
L 1894 563 
L 2988 3500 
L 3597 3500 
L 2284 0 
L 1503 0 
L 191 3500 
z
" transform="scale(0.015625)"/>
     </defs>
     <use xlink:href="#DejaVuSans-53"/>
     <use xlink:href="#DejaVuSans-74" x="63.476562"/>
     <use xlink:href="#DejaVuSans-72" x="102.685547"/>
     <use xlink:href="#DejaVuSans-65" x="141.548828"/>
     <use xlink:href="#DejaVuSans-73" x="203.072266"/>
     <use xlink:href="#DejaVuSans-73" x="255.171875"/>
     <use xlink:href="#DejaVuSans-2d" x="307.271484"/>
     <use xlink:href="#DejaVuSans-53" x="343.355469"/>
     <use xlink:href="#DejaVuSans-74" x="406.832031"/>
     <use xlink:href="#DejaVuSans-72" x="446.041016"/>
     <use xlink:href="#DejaVuSans-61" x="487.154297"/>
     <use xlink:href="#DejaVuSans-69" x="548.433594"/>
     <use xlink:href="#DejaVuSans-6e" x="576.216797"/>
     <use xlink:href="#DejaVuSans-20" x="639.595703"/>
     <use xlink:href="#DejaVuSans-43" x="671.382812"/>
     <use xlink:href="#DejaVuSans-75" x="741.207031"/>
     <use xlink:href="#DejaVuSans-72" x="804.585938"/>
     <use xlink:href="#DejaVuSans-76" x="845.699219"/>
     <use xlink:href="#DejaVuSans-65" x="904.878906"/>
    </g>
   </g>
   <g id="legend_1">
    <g id="patch_7">
     <path d="M 335.309063 101.798075 
L 403.448125 101.798075 
Q 405.448125 101.798075 405.448125 99.798075 
L 405.448125 55.929325 
Q 405.448125 53.929325 403.448125 53.929325 
L 335.309063 53.929325 
Q 333.309063 53.929325 333.309063 55.929325 
L 333.309063 99.798075 
Q 333.309063 101.798075 335.309063 101.798075 
z
" style="fill: #ffffff; opacity: 0.8; stroke: #cccccc; stroke-linejoin: miter"/>
    </g>
    <g id="line2d_21">
     <path d="M 337.309063 62.027762 
L 347.309063 62.027762 
L 357.309063 62.027762 
" style="fill: none; stroke: #1f77b4; stroke-width: 1.5; stroke-linecap: square"/>
    </g>
    <g id="text_21">
     <!-- IS1M_X -->
     <g transform="translate(365.309063 65.527762) scale(0.1 -0.1)">
      <defs>
       <path id="DejaVuSans-49" d="M 628 4666 
L 1259 4666 
L 1259 0 
L 628 0 
L 628 4666 
z
" transform="scale(0.015625)"/>
       <path id="DejaVuSans-5f" d="M 3263 -1063 
L 3263 -1509 
L -63 -1509 
L -63 -1063 
L 3263 -1063 
z
" transform="scale(0.015625)"/>
       <path id="DejaVuSans-58" d="M 403 4666 
L 1081 4666 
L 2241 2931 
L 3406 4666 
L 4084 4666 
L 2584 2425 
L 4184 0 
L 3506 0 
L 2194 1984 
L 872 0 
L 191 0 
L 1856 2491 
L 403 4666 
z
" transform="scale(0.015625)"/>
      </defs>
      <use xlink:href="#DejaVuSans-49"/>
      <use xlink:href="#DejaVuSans-53" x="29.492188"/>
      <use xlink:href="#DejaVuSans-31" x="92.96875"/>
      <use xlink:href="#DejaVuSans-4d" x="156.591797"/>
      <use xlink:href="#DejaVuSans-5f" x="242.871094"/>
      <use xlink:href="#DejaVuSans-58" x="292.871094"/>
     </g>
    </g>
    <g id="line2d_22">
     <path d="M 337.309063 76.984012 
L 347.309063 76.984012 
L 357.309063 76.984012 
" style="fill: none; stroke: #ff7f0e; stroke-width: 1.5; stroke-linecap: square"/>
    </g>
    <g id="text_22">
     <!-- IS1M_Y -->
     <g transform="translate(365.309063 80.484012) scale(0.1 -0.1)">
      <defs>
       <path id="DejaVuSans-59" d="M -13 4666 
L 666 4666 
L 1959 2747 
L 3244 4666 
L 3922 4666 
L 2272 2222 
L 2272 0 
L 1638 0 
L 1638 2222 
L -13 4666 
z
" transform="scale(0.015625)"/>
      </defs>
      <use xlink:href="#DejaVuSans-49"/>
      <use xlink:href="#DejaVuSans-53" x="29.492188"/>
      <use xlink:href="#DejaVuSans-31" x="92.96875"/>
      <use xlink:href="#DejaVuSans-4d" x="156.591797"/>
      <use xlink:href="#DejaVuSans-5f" x="242.871094"/>
      <use xlink:href="#DejaVuSans-59" x="292.871094"/>
     </g>
    </g>
    <g id="line2d_23">
     <path d="M 337.309063 91.940262 
L 347.309063 91.940262 
L 357.309063 91.940262 
" style="fill: none; stroke: #2ca02c; stroke-width: 1.5; stroke-linecap: square"/>
    </g>
    <g id="text_23">
     <!-- IS1M_Z -->
     <g transform="translate(365.309063 95.440262) scale(0.1 -0.1)">
      <defs>
       <path id="DejaVuSans-5a" d="M 359 4666 
L 4025 4666 
L 4025 4184 
L 1075 531 
L 4097 531 
L 4097 0 
L 288 0 
L 288 481 
L 3238 4134 
L 359 4134 
L 359 4666 
z
" transform="scale(0.015625)"/>
      </defs>
      <use xlink:href="#DejaVuSans-49"/>
      <use xlink:href="#DejaVuSans-53" x="29.492188"/>
      <use xlink:href="#DejaVuSans-31" x="92.96875"/>
      <use xlink:href="#DejaVuSans-4d" x="156.591797"/>
      <use xlink:href="#DejaVuSans-5f" x="242.871094"/>
      <use xlink:href="#DejaVuSans-5a" x="292.871094"/>
     </g>
    </g>
   </g>
  </g>
 </g>
 <defs>
  <clipPath id="p1fa0d4ee9e">
   <rect x="53.328125" y="22.318125" width="357.12" height="266.112"/>
  </clipPath>
 </defs>
</svg>
