<?xml version="1.0" encoding="utf-8" standalone="no"?>
<!DOCTYPE svg PUBLIC "-//W3C//DTD SVG 1.1//EN"
  "http://www.w3.org/Graphics/SVG/1.1/DTD/svg11.dtd">
<svg xmlns:xlink="http://www.w3.org/1999/xlink" width="414.466875pt" height="310.86825pt" viewBox="0 0 414.466875 310.86825" xmlns="http://www.w3.org/2000/svg" version="1.1">
 <metadata>
  <rdf:RDF xmlns:dc="http://purl.org/dc/elements/1.1/" xmlns:cc="http://creativecommons.org/ns#" xmlns:rdf="http://www.w3.org/1999/02/22-rdf-syntax-ns#">
   <cc:Work>
    <dc:type rdf:resource="http://purl.org/dc/dcmitype/StillImage"/>
    <dc:date>2025-01-20T16:13:08.385961</dc:date>
    <dc:format>image/svg+xml</dc:format>
    <dc:creator>
     <cc:Agent>
      <dc:title>Matplotlib v3.9.0, https://matplotlib.org/</dc:title>
     </cc:Agent>
    </dc:creator>
   </cc:Work>
  </rdf:RDF>
 </metadata>
 <defs>
  <style type="text/css">*{stroke-linejoin: round; stroke-linecap: butt}</style>
 </defs>
 <g id="figure_1">
  <g id="patch_1">
   <path d="M 0 310.86825 
L 414.466875 310.86825 
L 414.466875 0 
L 0 0 
z
" style="fill: #ffffff"/>
  </g>
  <g id="axes_1">
   <g id="patch_2">
    <path d="M 40.603125 273.312 
L 397.723125 273.312 
L 397.723125 7.2 
L 40.603125 7.2 
z
" style="fill: #ffffff"/>
   </g>
   <g id="matplotlib.axis_1">
    <g id="xtick_1">
     <g id="line2d_1">
      <defs>
       <path id="m093ee6232a" d="M 0 0 
L 0 3.5 
" style="stroke: #000000; stroke-width: 0.8"/>
      </defs>
      <g>
       <use xlink:href="#m093ee6232a" x="42.821262" y="273.312" style="stroke: #000000; stroke-width: 0.8"/>
      </g>
     </g>
     <g id="text_1">
      <!-- 100 -->
      <g transform="translate(33.277512 287.910437) scale(0.1 -0.1)">
       <defs>
        <path id="DejaVuSans-31" d="M 794 531 
L 1825 531 
L 1825 4091 
L 703 3866 
L 703 4441 
L 1819 4666 
L 2450 4666 
L 2450 531 
L 3481 531 
L 3481 0 
L 794 0 
L 794 531 
z
" transform="scale(0.015625)"/>
        <path id="DejaVuSans-30" d="M 2034 4250 
Q 1547 4250 1301 3770 
Q 1056 3291 1056 2328 
Q 1056 1369 1301 889 
Q 1547 409 2034 409 
Q 2525 409 2770 889 
Q 3016 1369 3016 2328 
Q 3016 3291 2770 3770 
Q 2525 4250 2034 4250 
z
M 2034 4750 
Q 2819 4750 3233 4129 
Q 3647 3509 3647 2328 
Q 3647 1150 3233 529 
Q 2819 -91 2034 -91 
Q 1250 -91 836 529 
Q 422 1150 422 2328 
Q 422 3509 836 4129 
Q 1250 4750 2034 4750 
z
" transform="scale(0.015625)"/>
       </defs>
       <use xlink:href="#DejaVuSans-31"/>
       <use xlink:href="#DejaVuSans-30" x="63.623047"/>
       <use xlink:href="#DejaVuSans-30" x="127.246094"/>
      </g>
     </g>
    </g>
    <g id="xtick_2">
     <g id="line2d_2">
      <g>
       <use xlink:href="#m093ee6232a" x="87.183995" y="273.312" style="stroke: #000000; stroke-width: 0.8"/>
      </g>
     </g>
     <g id="text_2">
      <!-- 120 -->
      <g transform="translate(77.640245 287.910437) scale(0.1 -0.1)">
       <defs>
        <path id="DejaVuSans-32" d="M 1228 531 
L 3431 531 
L 3431 0 
L 469 0 
L 469 531 
Q 828 903 1448 1529 
Q 2069 2156 2228 2338 
Q 2531 2678 2651 2914 
Q 2772 3150 2772 3378 
Q 2772 3750 2511 3984 
Q 2250 4219 1831 4219 
Q 1534 4219 1204 4116 
Q 875 4013 500 3803 
L 500 4441 
Q 881 4594 1212 4672 
Q 1544 4750 1819 4750 
Q 2544 4750 2975 4387 
Q 3406 4025 3406 3419 
Q 3406 3131 3298 2873 
Q 3191 2616 2906 2266 
Q 2828 2175 2409 1742 
Q 1991 1309 1228 531 
z
" transform="scale(0.015625)"/>
       </defs>
       <use xlink:href="#DejaVuSans-31"/>
       <use xlink:href="#DejaVuSans-32" x="63.623047"/>
       <use xlink:href="#DejaVuSans-30" x="127.246094"/>
      </g>
     </g>
    </g>
    <g id="xtick_3">
     <g id="line2d_3">
      <g>
       <use xlink:href="#m093ee6232a" x="131.546727" y="273.312" style="stroke: #000000; stroke-width: 0.8"/>
      </g>
     </g>
     <g id="text_3">
      <!-- 140 -->
      <g transform="translate(122.002977 287.910437) scale(0.1 -0.1)">
       <defs>
        <path id="DejaVuSans-34" d="M 2419 4116 
L 825 1625 
L 2419 1625 
L 2419 4116 
z
M 2253 4666 
L 3047 4666 
L 3047 1625 
L 3713 1625 
L 3713 1100 
L 3047 1100 
L 3047 0 
L 2419 0 
L 2419 1100 
L 313 1100 
L 313 1709 
L 2253 4666 
z
" transform="scale(0.015625)"/>
       </defs>
       <use xlink:href="#DejaVuSans-31"/>
       <use xlink:href="#DejaVuSans-34" x="63.623047"/>
       <use xlink:href="#DejaVuSans-30" x="127.246094"/>
      </g>
     </g>
    </g>
    <g id="xtick_4">
     <g id="line2d_4">
      <g>
       <use xlink:href="#m093ee6232a" x="175.90946" y="273.312" style="stroke: #000000; stroke-width: 0.8"/>
      </g>
     </g>
     <g id="text_4">
      <!-- 160 -->
      <g transform="translate(166.36571 287.910437) scale(0.1 -0.1)">
       <defs>
        <path id="DejaVuSans-36" d="M 2113 2584 
Q 1688 2584 1439 2293 
Q 1191 2003 1191 1497 
Q 1191 994 1439 701 
Q 1688 409 2113 409 
Q 2538 409 2786 701 
Q 3034 994 3034 1497 
Q 3034 2003 2786 2293 
Q 2538 2584 2113 2584 
z
M 3366 4563 
L 3366 3988 
Q 3128 4100 2886 4159 
Q 2644 4219 2406 4219 
Q 1781 4219 1451 3797 
Q 1122 3375 1075 2522 
Q 1259 2794 1537 2939 
Q 1816 3084 2150 3084 
Q 2853 3084 3261 2657 
Q 3669 2231 3669 1497 
Q 3669 778 3244 343 
Q 2819 -91 2113 -91 
Q 1303 -91 875 529 
Q 447 1150 447 2328 
Q 447 3434 972 4092 
Q 1497 4750 2381 4750 
Q 2619 4750 2861 4703 
Q 3103 4656 3366 4563 
z
" transform="scale(0.015625)"/>
       </defs>
       <use xlink:href="#DejaVuSans-31"/>
       <use xlink:href="#DejaVuSans-36" x="63.623047"/>
       <use xlink:href="#DejaVuSans-30" x="127.246094"/>
      </g>
     </g>
    </g>
    <g id="xtick_5">
     <g id="line2d_5">
      <g>
       <use xlink:href="#m093ee6232a" x="220.272193" y="273.312" style="stroke: #000000; stroke-width: 0.8"/>
      </g>
     </g>
     <g id="text_5">
      <!-- 180 -->
      <g transform="translate(210.728443 287.910437) scale(0.1 -0.1)">
       <defs>
        <path id="DejaVuSans-38" d="M 2034 2216 
Q 1584 2216 1326 1975 
Q 1069 1734 1069 1313 
Q 1069 891 1326 650 
Q 1584 409 2034 409 
Q 2484 409 2743 651 
Q 3003 894 3003 1313 
Q 3003 1734 2745 1975 
Q 2488 2216 2034 2216 
z
M 1403 2484 
Q 997 2584 770 2862 
Q 544 3141 544 3541 
Q 544 4100 942 4425 
Q 1341 4750 2034 4750 
Q 2731 4750 3128 4425 
Q 3525 4100 3525 3541 
Q 3525 3141 3298 2862 
Q 3072 2584 2669 2484 
Q 3125 2378 3379 2068 
Q 3634 1759 3634 1313 
Q 3634 634 3220 271 
Q 2806 -91 2034 -91 
Q 1263 -91 848 271 
Q 434 634 434 1313 
Q 434 1759 690 2068 
Q 947 2378 1403 2484 
z
M 1172 3481 
Q 1172 3119 1398 2916 
Q 1625 2713 2034 2713 
Q 2441 2713 2670 2916 
Q 2900 3119 2900 3481 
Q 2900 3844 2670 4047 
Q 2441 4250 2034 4250 
Q 1625 4250 1398 4047 
Q 1172 3844 1172 3481 
z
" transform="scale(0.015625)"/>
       </defs>
       <use xlink:href="#DejaVuSans-31"/>
       <use xlink:href="#DejaVuSans-38" x="63.623047"/>
       <use xlink:href="#DejaVuSans-30" x="127.246094"/>
      </g>
     </g>
    </g>
    <g id="xtick_6">
     <g id="line2d_6">
      <g>
       <use xlink:href="#m093ee6232a" x="264.634926" y="273.312" style="stroke: #000000; stroke-width: 0.8"/>
      </g>
     </g>
     <g id="text_6">
      <!-- 200 -->
      <g transform="translate(255.091176 287.910437) scale(0.1 -0.1)">
       <use xlink:href="#DejaVuSans-32"/>
       <use xlink:href="#DejaVuSans-30" x="63.623047"/>
       <use xlink:href="#DejaVuSans-30" x="127.246094"/>
      </g>
     </g>
    </g>
    <g id="xtick_7">
     <g id="line2d_7">
      <g>
       <use xlink:href="#m093ee6232a" x="308.997659" y="273.312" style="stroke: #000000; stroke-width: 0.8"/>
      </g>
     </g>
     <g id="text_7">
      <!-- 220 -->
      <g transform="translate(299.453909 287.910437) scale(0.1 -0.1)">
       <use xlink:href="#DejaVuSans-32"/>
       <use xlink:href="#DejaVuSans-32" x="63.623047"/>
       <use xlink:href="#DejaVuSans-30" x="127.246094"/>
      </g>
     </g>
    </g>
    <g id="xtick_8">
     <g id="line2d_8">
      <g>
       <use xlink:href="#m093ee6232a" x="353.360392" y="273.312" style="stroke: #000000; stroke-width: 0.8"/>
      </g>
     </g>
     <g id="text_8">
      <!-- 240 -->
      <g transform="translate(343.816642 287.910437) scale(0.1 -0.1)">
       <use xlink:href="#DejaVuSans-32"/>
       <use xlink:href="#DejaVuSans-34" x="63.623047"/>
       <use xlink:href="#DejaVuSans-30" x="127.246094"/>
      </g>
     </g>
    </g>
    <g id="xtick_9">
     <g id="line2d_9">
      <g>
       <use xlink:href="#m093ee6232a" x="397.723125" y="273.312" style="stroke: #000000; stroke-width: 0.8"/>
      </g>
     </g>
     <g id="text_9">
      <!-- 260 -->
      <g transform="translate(388.179375 287.910437) scale(0.1 -0.1)">
       <use xlink:href="#DejaVuSans-32"/>
       <use xlink:href="#DejaVuSans-36" x="63.623047"/>
       <use xlink:href="#DejaVuSans-30" x="127.246094"/>
      </g>
     </g>
    </g>
    <g id="text_10">
     <!-- Strain(%) -->
     <g transform="translate(195.699062 301.588562) scale(0.1 -0.1)">
      <defs>
       <path id="DejaVuSans-53" d="M 3425 4513 
L 3425 3897 
Q 3066 4069 2747 4153 
Q 2428 4238 2131 4238 
Q 1616 4238 1336 4038 
Q 1056 3838 1056 3469 
Q 1056 3159 1242 3001 
Q 1428 2844 1947 2747 
L 2328 2669 
Q 3034 2534 3370 2195 
Q 3706 1856 3706 1288 
Q 3706 609 3251 259 
Q 2797 -91 1919 -91 
Q 1588 -91 1214 -16 
Q 841 59 441 206 
L 441 856 
Q 825 641 1194 531 
Q 1563 422 1919 422 
Q 2459 422 2753 634 
Q 3047 847 3047 1241 
Q 3047 1584 2836 1778 
Q 2625 1972 2144 2069 
L 1759 2144 
Q 1053 2284 737 2584 
Q 422 2884 422 3419 
Q 422 4038 858 4394 
Q 1294 4750 2059 4750 
Q 2388 4750 2728 4690 
Q 3069 4631 3425 4513 
z
" transform="scale(0.015625)"/>
       <path id="DejaVuSans-74" d="M 1172 4494 
L 1172 3500 
L 2356 3500 
L 2356 3053 
L 1172 3053 
L 1172 1153 
Q 1172 725 1289 603 
Q 1406 481 1766 481 
L 2356 481 
L 2356 0 
L 1766 0 
Q 1100 0 847 248 
Q 594 497 594 1153 
L 594 3053 
L 172 3053 
L 172 3500 
L 594 3500 
L 594 4494 
L 1172 4494 
z
" transform="scale(0.015625)"/>
       <path id="DejaVuSans-72" d="M 2631 2963 
Q 2534 3019 2420 3045 
Q 2306 3072 2169 3072 
Q 1681 3072 1420 2755 
Q 1159 2438 1159 1844 
L 1159 0 
L 581 0 
L 581 3500 
L 1159 3500 
L 1159 2956 
Q 1341 3275 1631 3429 
Q 1922 3584 2338 3584 
Q 2397 3584 2469 3576 
Q 2541 3569 2628 3553 
L 2631 2963 
z
" transform="scale(0.015625)"/>
       <path id="DejaVuSans-61" d="M 2194 1759 
Q 1497 1759 1228 1600 
Q 959 1441 959 1056 
Q 959 750 1161 570 
Q 1363 391 1709 391 
Q 2188 391 2477 730 
Q 2766 1069 2766 1631 
L 2766 1759 
L 2194 1759 
z
M 3341 1997 
L 3341 0 
L 2766 0 
L 2766 531 
Q 2569 213 2275 61 
Q 1981 -91 1556 -91 
Q 1019 -91 701 211 
Q 384 513 384 1019 
Q 384 1609 779 1909 
Q 1175 2209 1959 2209 
L 2766 2209 
L 2766 2266 
Q 2766 2663 2505 2880 
Q 2244 3097 1772 3097 
Q 1472 3097 1187 3025 
Q 903 2953 641 2809 
L 641 3341 
Q 956 3463 1253 3523 
Q 1550 3584 1831 3584 
Q 2591 3584 2966 3190 
Q 3341 2797 3341 1997 
z
" transform="scale(0.015625)"/>
       <path id="DejaVuSans-69" d="M 603 3500 
L 1178 3500 
L 1178 0 
L 603 0 
L 603 3500 
z
M 603 4863 
L 1178 4863 
L 1178 4134 
L 603 4134 
L 603 4863 
z
" transform="scale(0.015625)"/>
       <path id="DejaVuSans-6e" d="M 3513 2113 
L 3513 0 
L 2938 0 
L 2938 2094 
Q 2938 2591 2744 2837 
Q 2550 3084 2163 3084 
Q 1697 3084 1428 2787 
Q 1159 2491 1159 1978 
L 1159 0 
L 581 0 
L 581 3500 
L 1159 3500 
L 1159 2956 
Q 1366 3272 1645 3428 
Q 1925 3584 2291 3584 
Q 2894 3584 3203 3211 
Q 3513 2838 3513 2113 
z
" transform="scale(0.015625)"/>
       <path id="DejaVuSans-28" d="M 1984 4856 
Q 1566 4138 1362 3434 
Q 1159 2731 1159 2009 
Q 1159 1288 1364 580 
Q 1569 -128 1984 -844 
L 1484 -844 
Q 1016 -109 783 600 
Q 550 1309 550 2009 
Q 550 2706 781 3412 
Q 1013 4119 1484 4856 
L 1984 4856 
z
" transform="scale(0.015625)"/>
       <path id="DejaVuSans-25" d="M 4653 2053 
Q 4381 2053 4226 1822 
Q 4072 1591 4072 1178 
Q 4072 772 4226 539 
Q 4381 306 4653 306 
Q 4919 306 5073 539 
Q 5228 772 5228 1178 
Q 5228 1588 5073 1820 
Q 4919 2053 4653 2053 
z
M 4653 2450 
Q 5147 2450 5437 2106 
Q 5728 1763 5728 1178 
Q 5728 594 5436 251 
Q 5144 -91 4653 -91 
Q 4153 -91 3862 251 
Q 3572 594 3572 1178 
Q 3572 1766 3864 2108 
Q 4156 2450 4653 2450 
z
M 1428 4353 
Q 1159 4353 1004 4120 
Q 850 3888 850 3481 
Q 850 3069 1003 2837 
Q 1156 2606 1428 2606 
Q 1700 2606 1854 2837 
Q 2009 3069 2009 3481 
Q 2009 3884 1853 4118 
Q 1697 4353 1428 4353 
z
M 4250 4750 
L 4750 4750 
L 1831 -91 
L 1331 -91 
L 4250 4750 
z
M 1428 4750 
Q 1922 4750 2215 4408 
Q 2509 4066 2509 3481 
Q 2509 2891 2217 2550 
Q 1925 2209 1428 2209 
Q 931 2209 642 2551 
Q 353 2894 353 3481 
Q 353 4063 643 4406 
Q 934 4750 1428 4750 
z
" transform="scale(0.015625)"/>
       <path id="DejaVuSans-29" d="M 513 4856 
L 1013 4856 
Q 1481 4119 1714 3412 
Q 1947 2706 1947 2009 
Q 1947 1309 1714 600 
Q 1481 -109 1013 -844 
L 513 -844 
Q 928 -128 1133 580 
Q 1338 1288 1338 2009 
Q 1338 2731 1133 3434 
Q 928 4138 513 4856 
z
" transform="scale(0.015625)"/>
      </defs>
      <use xlink:href="#DejaVuSans-53"/>
      <use xlink:href="#DejaVuSans-74" x="63.476562"/>
      <use xlink:href="#DejaVuSans-72" x="102.685547"/>
      <use xlink:href="#DejaVuSans-61" x="143.798828"/>
      <use xlink:href="#DejaVuSans-69" x="205.078125"/>
      <use xlink:href="#DejaVuSans-6e" x="232.861328"/>
      <use xlink:href="#DejaVuSans-28" x="296.240234"/>
      <use xlink:href="#DejaVuSans-25" x="335.253906"/>
      <use xlink:href="#DejaVuSans-29" x="430.273438"/>
     </g>
    </g>
   </g>
   <g id="matplotlib.axis_2">
    <g id="ytick_1">
     <g id="line2d_10">
      <defs>
       <path id="m22d3d392fb" d="M 0 0 
L -3.5 0 
" style="stroke: #000000; stroke-width: 0.8"/>
      </defs>
      <g>
       <use xlink:href="#m22d3d392fb" x="40.603125" y="261.216" style="stroke: #000000; stroke-width: 0.8"/>
      </g>
     </g>
     <g id="text_11">
      <!-- 40 -->
      <g transform="translate(20.878125 265.015219) scale(0.1 -0.1)">
       <use xlink:href="#DejaVuSans-34"/>
       <use xlink:href="#DejaVuSans-30" x="63.623047"/>
      </g>
     </g>
    </g>
    <g id="ytick_2">
     <g id="line2d_11">
      <g>
       <use xlink:href="#m22d3d392fb" x="40.603125" y="212.832" style="stroke: #000000; stroke-width: 0.8"/>
      </g>
     </g>
     <g id="text_12">
      <!-- 50 -->
      <g transform="translate(20.878125 216.631219) scale(0.1 -0.1)">
       <defs>
        <path id="DejaVuSans-35" d="M 691 4666 
L 3169 4666 
L 3169 4134 
L 1269 4134 
L 1269 2991 
Q 1406 3038 1543 3061 
Q 1681 3084 1819 3084 
Q 2600 3084 3056 2656 
Q 3513 2228 3513 1497 
Q 3513 744 3044 326 
Q 2575 -91 1722 -91 
Q 1428 -91 1123 -41 
Q 819 9 494 109 
L 494 744 
Q 775 591 1075 516 
Q 1375 441 1709 441 
Q 2250 441 2565 725 
Q 2881 1009 2881 1497 
Q 2881 1984 2565 2268 
Q 2250 2553 1709 2553 
Q 1456 2553 1204 2497 
Q 953 2441 691 2322 
L 691 4666 
z
" transform="scale(0.015625)"/>
       </defs>
       <use xlink:href="#DejaVuSans-35"/>
       <use xlink:href="#DejaVuSans-30" x="63.623047"/>
      </g>
     </g>
    </g>
    <g id="ytick_3">
     <g id="line2d_12">
      <g>
       <use xlink:href="#m22d3d392fb" x="40.603125" y="164.448" style="stroke: #000000; stroke-width: 0.8"/>
      </g>
     </g>
     <g id="text_13">
      <!-- 60 -->
      <g transform="translate(20.878125 168.247219) scale(0.1 -0.1)">
       <use xlink:href="#DejaVuSans-36"/>
       <use xlink:href="#DejaVuSans-30" x="63.623047"/>
      </g>
     </g>
    </g>
    <g id="ytick_4">
     <g id="line2d_13">
      <g>
       <use xlink:href="#m22d3d392fb" x="40.603125" y="116.064" style="stroke: #000000; stroke-width: 0.8"/>
      </g>
     </g>
     <g id="text_14">
      <!-- 70 -->
      <g transform="translate(20.878125 119.863219) scale(0.1 -0.1)">
       <defs>
        <path id="DejaVuSans-37" d="M 525 4666 
L 3525 4666 
L 3525 4397 
L 1831 0 
L 1172 0 
L 2766 4134 
L 525 4134 
L 525 4666 
z
" transform="scale(0.015625)"/>
       </defs>
       <use xlink:href="#DejaVuSans-37"/>
       <use xlink:href="#DejaVuSans-30" x="63.623047"/>
      </g>
     </g>
    </g>
    <g id="ytick_5">
     <g id="line2d_14">
      <g>
       <use xlink:href="#m22d3d392fb" x="40.603125" y="67.68" style="stroke: #000000; stroke-width: 0.8"/>
      </g>
     </g>
     <g id="text_15">
      <!-- 80 -->
      <g transform="translate(20.878125 71.479219) scale(0.1 -0.1)">
       <use xlink:href="#DejaVuSans-38"/>
       <use xlink:href="#DejaVuSans-30" x="63.623047"/>
      </g>
     </g>
    </g>
    <g id="ytick_6">
     <g id="line2d_15">
      <g>
       <use xlink:href="#m22d3d392fb" x="40.603125" y="19.296" style="stroke: #000000; stroke-width: 0.8"/>
      </g>
     </g>
     <g id="text_16">
      <!-- 90 -->
      <g transform="translate(20.878125 23.095219) scale(0.1 -0.1)">
       <defs>
        <path id="DejaVuSans-39" d="M 703 97 
L 703 672 
Q 941 559 1184 500 
Q 1428 441 1663 441 
Q 2288 441 2617 861 
Q 2947 1281 2994 2138 
Q 2813 1869 2534 1725 
Q 2256 1581 1919 1581 
Q 1219 1581 811 2004 
Q 403 2428 403 3163 
Q 403 3881 828 4315 
Q 1253 4750 1959 4750 
Q 2769 4750 3195 4129 
Q 3622 3509 3622 2328 
Q 3622 1225 3098 567 
Q 2575 -91 1691 -91 
Q 1453 -91 1209 -44 
Q 966 3 703 97 
z
M 1959 2075 
Q 2384 2075 2632 2365 
Q 2881 2656 2881 3163 
Q 2881 3666 2632 3958 
Q 2384 4250 1959 4250 
Q 1534 4250 1286 3958 
Q 1038 3666 1038 3163 
Q 1038 2656 1286 2365 
Q 1534 2075 1959 2075 
z
" transform="scale(0.015625)"/>
       </defs>
       <use xlink:href="#DejaVuSans-39"/>
       <use xlink:href="#DejaVuSans-30" x="63.623047"/>
      </g>
     </g>
    </g>
    <g id="text_17">
     <!-- Hydrogen Bonds -->
     <g transform="translate(14.798438 181.598187) rotate(-90) scale(0.1 -0.1)">
      <defs>
       <path id="DejaVuSans-48" d="M 628 4666 
L 1259 4666 
L 1259 2753 
L 3553 2753 
L 3553 4666 
L 4184 4666 
L 4184 0 
L 3553 0 
L 3553 2222 
L 1259 2222 
L 1259 0 
L 628 0 
L 628 4666 
z
" transform="scale(0.015625)"/>
       <path id="DejaVuSans-79" d="M 2059 -325 
Q 1816 -950 1584 -1140 
Q 1353 -1331 966 -1331 
L 506 -1331 
L 506 -850 
L 844 -850 
Q 1081 -850 1212 -737 
Q 1344 -625 1503 -206 
L 1606 56 
L 191 3500 
L 800 3500 
L 1894 763 
L 2988 3500 
L 3597 3500 
L 2059 -325 
z
" transform="scale(0.015625)"/>
       <path id="DejaVuSans-64" d="M 2906 2969 
L 2906 4863 
L 3481 4863 
L 3481 0 
L 2906 0 
L 2906 525 
Q 2725 213 2448 61 
Q 2172 -91 1784 -91 
Q 1150 -91 751 415 
Q 353 922 353 1747 
Q 353 2572 751 3078 
Q 1150 3584 1784 3584 
Q 2172 3584 2448 3432 
Q 2725 3281 2906 2969 
z
M 947 1747 
Q 947 1113 1208 752 
Q 1469 391 1925 391 
Q 2381 391 2643 752 
Q 2906 1113 2906 1747 
Q 2906 2381 2643 2742 
Q 2381 3103 1925 3103 
Q 1469 3103 1208 2742 
Q 947 2381 947 1747 
z
" transform="scale(0.015625)"/>
       <path id="DejaVuSans-6f" d="M 1959 3097 
Q 1497 3097 1228 2736 
Q 959 2375 959 1747 
Q 959 1119 1226 758 
Q 1494 397 1959 397 
Q 2419 397 2687 759 
Q 2956 1122 2956 1747 
Q 2956 2369 2687 2733 
Q 2419 3097 1959 3097 
z
M 1959 3584 
Q 2709 3584 3137 3096 
Q 3566 2609 3566 1747 
Q 3566 888 3137 398 
Q 2709 -91 1959 -91 
Q 1206 -91 779 398 
Q 353 888 353 1747 
Q 353 2609 779 3096 
Q 1206 3584 1959 3584 
z
" transform="scale(0.015625)"/>
       <path id="DejaVuSans-67" d="M 2906 1791 
Q 2906 2416 2648 2759 
Q 2391 3103 1925 3103 
Q 1463 3103 1205 2759 
Q 947 2416 947 1791 
Q 947 1169 1205 825 
Q 1463 481 1925 481 
Q 2391 481 2648 825 
Q 2906 1169 2906 1791 
z
M 3481 434 
Q 3481 -459 3084 -895 
Q 2688 -1331 1869 -1331 
Q 1566 -1331 1297 -1286 
Q 1028 -1241 775 -1147 
L 775 -588 
Q 1028 -725 1275 -790 
Q 1522 -856 1778 -856 
Q 2344 -856 2625 -561 
Q 2906 -266 2906 331 
L 2906 616 
Q 2728 306 2450 153 
Q 2172 0 1784 0 
Q 1141 0 747 490 
Q 353 981 353 1791 
Q 353 2603 747 3093 
Q 1141 3584 1784 3584 
Q 2172 3584 2450 3431 
Q 2728 3278 2906 2969 
L 2906 3500 
L 3481 3500 
L 3481 434 
z
" transform="scale(0.015625)"/>
       <path id="DejaVuSans-65" d="M 3597 1894 
L 3597 1613 
L 953 1613 
Q 991 1019 1311 708 
Q 1631 397 2203 397 
Q 2534 397 2845 478 
Q 3156 559 3463 722 
L 3463 178 
Q 3153 47 2828 -22 
Q 2503 -91 2169 -91 
Q 1331 -91 842 396 
Q 353 884 353 1716 
Q 353 2575 817 3079 
Q 1281 3584 2069 3584 
Q 2775 3584 3186 3129 
Q 3597 2675 3597 1894 
z
M 3022 2063 
Q 3016 2534 2758 2815 
Q 2500 3097 2075 3097 
Q 1594 3097 1305 2825 
Q 1016 2553 972 2059 
L 3022 2063 
z
" transform="scale(0.015625)"/>
       <path id="DejaVuSans-20" transform="scale(0.015625)"/>
       <path id="DejaVuSans-42" d="M 1259 2228 
L 1259 519 
L 2272 519 
Q 2781 519 3026 730 
Q 3272 941 3272 1375 
Q 3272 1813 3026 2020 
Q 2781 2228 2272 2228 
L 1259 2228 
z
M 1259 4147 
L 1259 2741 
L 2194 2741 
Q 2656 2741 2882 2914 
Q 3109 3088 3109 3444 
Q 3109 3797 2882 3972 
Q 2656 4147 2194 4147 
L 1259 4147 
z
M 628 4666 
L 2241 4666 
Q 2963 4666 3353 4366 
Q 3744 4066 3744 3513 
Q 3744 3084 3544 2831 
Q 3344 2578 2956 2516 
Q 3422 2416 3680 2098 
Q 3938 1781 3938 1306 
Q 3938 681 3513 340 
Q 3088 0 2303 0 
L 628 0 
L 628 4666 
z
" transform="scale(0.015625)"/>
       <path id="DejaVuSans-73" d="M 2834 3397 
L 2834 2853 
Q 2591 2978 2328 3040 
Q 2066 3103 1784 3103 
Q 1356 3103 1142 2972 
Q 928 2841 928 2578 
Q 928 2378 1081 2264 
Q 1234 2150 1697 2047 
L 1894 2003 
Q 2506 1872 2764 1633 
Q 3022 1394 3022 966 
Q 3022 478 2636 193 
Q 2250 -91 1575 -91 
Q 1294 -91 989 -36 
Q 684 19 347 128 
L 347 722 
Q 666 556 975 473 
Q 1284 391 1588 391 
Q 1994 391 2212 530 
Q 2431 669 2431 922 
Q 2431 1156 2273 1281 
Q 2116 1406 1581 1522 
L 1381 1569 
Q 847 1681 609 1914 
Q 372 2147 372 2553 
Q 372 3047 722 3315 
Q 1072 3584 1716 3584 
Q 2034 3584 2315 3537 
Q 2597 3491 2834 3397 
z
" transform="scale(0.015625)"/>
      </defs>
      <use xlink:href="#DejaVuSans-48"/>
      <use xlink:href="#DejaVuSans-79" x="75.195312"/>
      <use xlink:href="#DejaVuSans-64" x="134.375"/>
      <use xlink:href="#DejaVuSans-72" x="197.851562"/>
      <use xlink:href="#DejaVuSans-6f" x="236.714844"/>
      <use xlink:href="#DejaVuSans-67" x="297.896484"/>
      <use xlink:href="#DejaVuSans-65" x="361.373047"/>
      <use xlink:href="#DejaVuSans-6e" x="422.896484"/>
      <use xlink:href="#DejaVuSans-20" x="486.275391"/>
      <use xlink:href="#DejaVuSans-42" x="518.0625"/>
      <use xlink:href="#DejaVuSans-6f" x="586.666016"/>
      <use xlink:href="#DejaVuSans-6e" x="647.847656"/>
      <use xlink:href="#DejaVuSans-64" x="711.226562"/>
      <use xlink:href="#DejaVuSans-73" x="774.703125"/>
     </g>
    </g>
   </g>
   <g id="line2d_16">
    <path d="M 42.821262 164.448 
L 44.169209 174.1248 
L 45.517157 203.1552 
L 46.865104 222.5088 
L 48.213051 212.832 
L 49.560999 183.8016 
L 50.908946 188.64 
L 52.256894 178.9632 
L 53.604841 193.4784 
L 54.952789 183.8016 
L 56.300736 183.8016 
L 57.648683 212.832 
L 60.344578 193.4784 
L 61.692526 222.5088 
L 63.040473 178.9632 
L 64.388421 183.8016 
L 65.736368 169.2864 
L 67.084315 183.8016 
L 68.432263 178.9632 
L 69.78021 188.64 
L 71.128158 188.64 
L 72.476105 159.6096 
L 75.172 188.64 
L 76.519947 174.1248 
L 77.867895 178.9632 
L 79.215842 149.9328 
L 80.56379 164.448 
L 81.911737 174.1248 
L 83.259685 164.448 
L 84.607632 212.832 
L 85.955579 183.8016 
L 87.303527 178.9632 
L 88.651474 178.9632 
L 89.999422 164.448 
L 91.347369 159.6096 
L 92.695317 174.1248 
L 94.043264 178.9632 
L 95.391212 164.448 
L 96.739159 159.6096 
L 98.087106 164.448 
L 99.435054 164.448 
L 100.783001 174.1248 
L 103.478896 145.0944 
L 104.826844 140.256 
L 106.174791 159.6096 
L 107.522738 154.7712 
L 108.870686 130.5792 
L 110.218633 135.4176 
L 111.566581 145.0944 
L 112.914528 164.448 
L 114.262476 159.6096 
L 115.610423 145.0944 
L 116.95837 145.0944 
L 118.306318 169.2864 
L 122.35016 140.256 
L 123.698108 135.4176 
L 125.046055 140.256 
L 126.394002 159.6096 
L 127.74195 135.4176 
L 129.089897 140.256 
L 130.437845 116.064 
L 131.785792 116.064 
L 133.13374 120.9024 
L 134.481687 154.7712 
L 135.829634 130.5792 
L 137.177582 120.9024 
L 138.525529 149.9328 
L 139.873477 120.9024 
L 141.221424 174.1248 
L 142.569372 174.1248 
L 143.917319 164.448 
L 145.265266 159.6096 
L 146.613214 159.6096 
L 147.961161 125.7408 
L 150.657056 135.4176 
L 152.005004 125.7408 
L 153.352951 130.5792 
L 154.700899 145.0944 
L 156.048846 125.7408 
L 157.396793 145.0944 
L 158.744741 135.4176 
L 160.092688 87.0336 
L 161.440636 106.3872 
L 162.788583 140.256 
L 164.136531 111.2256 
L 165.484478 106.3872 
L 166.832425 120.9024 
L 169.52832 91.872 
L 170.876268 91.872 
L 172.224215 106.3872 
L 173.572163 116.064 
L 174.92011 87.0336 
L 176.268057 77.3568 
L 177.616005 82.1952 
L 178.963952 101.5488 
L 180.3119 43.488 
L 181.659847 87.0336 
L 183.007795 82.1952 
L 184.355742 58.0032 
L 185.703689 96.7104 
L 187.051637 91.872 
L 188.399584 62.8416 
L 189.747532 135.4176 
L 191.095479 120.9024 
L 192.443427 77.3568 
L 193.791374 101.5488 
L 195.139321 116.064 
L 196.487269 116.064 
L 197.835216 77.3568 
L 199.183164 77.3568 
L 200.531111 101.5488 
L 201.879059 106.3872 
L 203.227006 116.064 
L 204.574954 169.2864 
L 205.922901 101.5488 
L 207.270848 111.2256 
L 208.618796 116.064 
L 209.966743 96.7104 
L 211.314691 72.5184 
L 212.66258 82.1952 
L 214.010528 48.3264 
L 215.358475 58.0032 
L 216.706423 62.8416 
L 218.05437 96.7104 
L 219.402317 19.296 
L 220.750265 106.3872 
L 222.098212 120.9024 
L 223.44616 82.1952 
L 224.794107 130.5792 
L 227.490002 111.2256 
L 228.837949 67.68 
L 230.185897 87.0336 
L 231.533844 77.3568 
L 232.881792 43.488 
L 234.229739 58.0032 
L 235.577687 53.1648 
L 236.925634 62.8416 
L 238.273582 58.0032 
L 239.621529 72.5184 
L 240.969476 96.7104 
L 242.317424 96.7104 
L 243.665371 77.3568 
L 245.013319 96.7104 
L 246.361266 87.0336 
L 247.709214 58.0032 
L 249.057161 87.0336 
L 250.405108 91.872 
L 251.753056 67.68 
L 253.101003 91.872 
L 254.448951 72.5184 
L 255.796898 72.5184 
L 257.144846 48.3264 
L 258.492793 101.5488 
L 259.84074 72.5184 
L 261.188688 77.3568 
L 262.536635 62.8416 
L 263.884583 62.8416 
L 265.23253 72.5184 
L 266.580478 43.488 
L 267.928425 19.296 
L 269.276372 33.8112 
L 270.62432 67.68 
L 271.972267 38.6496 
L 273.320215 28.9728 
L 274.668162 77.3568 
L 276.01611 67.68 
L 277.364057 111.2256 
L 278.712004 77.3568 
L 280.059952 58.0032 
L 281.407899 43.488 
L 282.755847 87.0336 
L 284.103794 53.1648 
L 285.451742 48.3264 
L 286.799689 82.1952 
L 288.147636 101.5488 
L 289.495584 58.0032 
L 290.843531 67.68 
L 292.191479 91.872 
L 293.539426 101.5488 
L 294.887374 77.3568 
L 296.235321 87.0336 
L 297.583269 82.1952 
L 298.931216 96.7104 
L 300.279163 96.7104 
L 301.627111 77.3568 
L 302.975058 87.0336 
L 304.323006 87.0336 
L 305.670953 125.7408 
L 307.018901 111.2256 
L 308.366848 125.7408 
L 309.714795 62.8416 
L 311.062743 96.7104 
L 312.41069 87.0336 
L 312.41069 87.0336 
" clip-path="url(#p4adb1d311a)" style="fill: none; stroke: #1f77b4; stroke-width: 1.5; stroke-linecap: square"/>
   </g>
   <g id="line2d_17">
    <path d="M 42.821262 164.448 
L 46.424408 174.1248 
L 48.225912 169.2864 
L 50.027485 207.9936 
L 51.829058 193.4784 
L 53.630631 183.8016 
L 55.432136 159.6096 
L 57.233709 193.4784 
L 59.035282 169.2864 
L 60.836855 149.9328 
L 62.63836 140.256 
L 64.439933 164.448 
L 66.241506 193.4784 
L 68.043079 154.7712 
L 69.844583 207.9936 
L 71.646156 174.1248 
L 73.447729 222.5088 
L 75.249303 212.832 
L 77.050807 212.832 
L 78.85238 203.1552 
L 80.653953 203.1552 
L 84.257031 164.448 
L 86.058604 198.3168 
L 87.860177 207.9936 
L 89.661681 203.1552 
L 91.463254 241.8624 
L 93.264828 203.1552 
L 95.066401 188.64 
L 96.867905 188.64 
L 98.669478 212.832 
L 102.272624 212.832 
L 104.074129 174.1248 
L 105.875702 188.64 
L 107.677275 222.5088 
L 109.478848 203.1552 
L 111.280352 212.832 
L 113.081926 237.024 
L 114.883499 203.1552 
L 116.685072 193.4784 
L 118.486576 193.4784 
L 120.288149 154.7712 
L 122.089722 169.2864 
L 123.891295 174.1248 
L 125.6928 183.8016 
L 127.494373 188.64 
L 129.295946 198.3168 
L 131.097451 203.1552 
L 132.899024 183.8016 
L 134.700597 198.3168 
L 136.50217 203.1552 
L 138.303674 212.832 
L 140.105247 169.2864 
L 141.90682 232.1856 
L 143.708393 193.4784 
L 145.509898 178.9632 
L 147.311471 207.9936 
L 149.113044 212.832 
L 150.914617 178.9632 
L 152.716122 198.3168 
L 154.517695 222.5088 
L 156.319268 217.6704 
L 158.120841 203.1552 
L 159.922345 212.832 
L 161.723918 212.832 
L 163.525491 203.1552 
L 165.327064 183.8016 
L 167.128569 237.024 
L 168.930142 237.024 
L 170.731715 183.8016 
L 172.533288 222.5088 
L 174.334793 241.8624 
L 176.136366 217.6704 
L 177.937939 212.832 
L 179.739443 256.3776 
L 181.541016 227.3472 
L 183.342589 193.4784 
L 185.144162 217.6704 
L 186.945667 217.6704 
L 188.74724 232.1856 
L 190.548813 203.1552 
L 192.350386 222.5088 
L 194.151891 203.1552 
L 195.953464 227.3472 
L 197.755037 198.3168 
L 199.55661 203.1552 
L 201.358114 217.6704 
L 203.159687 212.832 
L 204.961261 237.024 
L 206.762834 193.4784 
L 208.564338 237.024 
L 210.365911 178.9632 
L 212.167484 193.4784 
L 213.969057 203.1552 
L 215.770562 217.6704 
L 217.572135 183.8016 
L 219.373708 212.832 
L 221.175281 203.1552 
L 222.976786 217.6704 
L 224.778359 246.7008 
L 226.579932 207.9936 
L 228.381436 198.3168 
L 230.183009 217.6704 
L 231.984582 207.9936 
L 233.786155 203.1552 
L 235.58766 188.64 
L 237.389233 241.8624 
L 239.190806 217.6704 
L 240.992379 227.3472 
L 242.793884 178.9632 
L 244.595457 237.024 
L 246.39703 212.832 
L 248.198603 217.6704 
L 250.000107 203.1552 
L 251.80168 217.6704 
L 253.603253 183.8016 
L 255.404826 217.6704 
L 257.206331 207.9936 
L 259.007904 217.6704 
L 260.809477 203.1552 
L 262.61105 207.9936 
L 264.412555 203.1552 
L 266.214128 212.832 
L 268.015701 212.832 
L 269.817274 207.9936 
L 271.618778 193.4784 
L 273.420351 203.1552 
L 275.221924 203.1552 
L 277.023429 207.9936 
L 278.825002 207.9936 
L 280.626575 212.832 
L 282.428148 203.1552 
L 284.229653 232.1856 
L 287.832799 212.832 
L 289.634372 222.5088 
L 291.435876 207.9936 
L 293.237449 198.3168 
L 295.039022 217.6704 
L 296.840595 207.9936 
L 298.6421 217.6704 
L 300.443673 188.64 
L 302.245246 203.1552 
L 304.046819 183.8016 
L 305.848324 203.1552 
L 307.649897 198.3168 
L 309.45147 198.3168 
L 311.253043 193.4784 
L 313.054547 178.9632 
L 314.85612 193.4784 
L 316.657694 159.6096 
L 318.459267 207.9936 
L 320.260771 174.1248 
L 322.062344 207.9936 
L 325.665422 237.024 
L 327.466995 227.3472 
L 329.268568 198.3168 
L 331.070141 222.5088 
L 332.871645 217.6704 
L 334.673219 232.1856 
L 336.474792 232.1856 
L 338.276365 203.1552 
L 340.077869 232.1856 
L 341.879442 217.6704 
L 343.681015 217.6704 
L 345.482588 203.1552 
L 347.284093 207.9936 
L 349.085666 207.9936 
L 350.887239 212.832 
L 352.688812 188.64 
L 354.490317 212.832 
L 356.29189 222.5088 
L 358.093463 193.4784 
L 359.895036 212.832 
L 361.69654 227.3472 
L 363.498113 222.5088 
L 365.299686 232.1856 
L 367.101259 198.3168 
L 368.902764 193.4784 
L 370.704337 241.8624 
L 372.50591 193.4784 
L 374.307415 237.024 
L 376.108988 241.8624 
L 377.910561 217.6704 
L 379.712134 198.3168 
L 381.513638 188.64 
L 383.315211 174.1248 
L 385.116784 212.832 
L 386.918357 212.832 
L 388.719862 203.1552 
L 390.521435 198.3168 
L 392.323008 198.3168 
L 394.124581 203.1552 
L 395.926086 193.4784 
L 397.727659 212.832 
L 399.529232 198.3168 
L 401.330805 227.3472 
L 403.132309 246.7008 
L 403.132309 246.7008 
" clip-path="url(#p4adb1d311a)" style="fill: none; stroke: #ff7f0e; stroke-width: 1.5; stroke-linecap: square"/>
   </g>
   <g id="line2d_18">
    <path d="M 42.821262 164.448 
L 44.432789 183.8016 
L 46.044253 188.64 
L 47.655716 217.6704 
L 49.267244 169.2864 
L 52.490171 227.3472 
L 54.101699 212.832 
L 55.713162 212.832 
L 57.324626 251.5392 
L 58.936153 193.4784 
L 62.15908 164.448 
L 63.770608 207.9936 
L 65.382072 188.64 
L 66.993535 193.4784 
L 68.605063 174.1248 
L 70.216526 188.64 
L 71.82799 174.1248 
L 73.439517 154.7712 
L 75.050981 169.2864 
L 76.662445 169.2864 
L 78.273972 174.1248 
L 79.885436 174.1248 
L 81.496899 154.7712 
L 83.108427 198.3168 
L 84.71989 178.9632 
L 86.331354 183.8016 
L 87.942882 159.6096 
L 89.554345 154.7712 
L 91.165809 159.6096 
L 92.777336 178.9632 
L 94.3888 207.9936 
L 96.000263 178.9632 
L 97.611791 145.0944 
L 99.223255 145.0944 
L 100.834718 130.5792 
L 102.446246 174.1248 
L 104.057709 154.7712 
L 105.669173 164.448 
L 107.2807 130.5792 
L 108.892164 174.1248 
L 110.503628 145.0944 
L 112.115155 178.9632 
L 113.726619 178.9632 
L 115.338082 188.64 
L 116.94961 164.448 
L 118.561073 178.9632 
L 120.172537 207.9936 
L 121.784065 178.9632 
L 123.395528 193.4784 
L 125.006992 217.6704 
L 126.618519 183.8016 
L 128.229983 212.832 
L 129.841446 183.8016 
L 131.452974 188.64 
L 133.064438 198.3168 
L 134.675901 217.6704 
L 136.287429 198.3168 
L 137.898892 188.64 
L 139.510356 188.64 
L 141.121883 169.2864 
L 142.733347 164.448 
L 144.344811 174.1248 
L 145.956338 188.64 
L 147.567802 188.64 
L 149.179265 178.9632 
L 150.790793 212.832 
L 154.01372 183.8016 
L 155.625248 217.6704 
L 157.236711 188.64 
L 158.848175 207.9936 
L 160.459702 188.64 
L 162.071166 198.3168 
L 163.682629 174.1248 
L 165.294157 164.448 
L 166.905621 178.9632 
L 168.517084 164.448 
L 170.128612 193.4784 
L 171.740075 183.8016 
L 173.351539 198.3168 
L 174.963066 178.9632 
L 176.57453 174.1248 
L 178.185994 164.448 
L 179.797521 207.9936 
L 181.408985 188.64 
L 183.020448 203.1552 
L 184.631976 203.1552 
L 186.243439 183.8016 
L 187.854903 212.832 
L 189.466431 193.4784 
L 191.077894 207.9936 
L 192.689358 193.4784 
L 194.300885 193.4784 
L 195.912349 203.1552 
L 197.523812 203.1552 
L 199.13534 217.6704 
L 200.746804 183.8016 
L 202.358267 222.5088 
L 203.969795 203.1552 
L 205.581258 246.7008 
L 207.192722 222.5088 
L 208.804249 241.8624 
L 210.415713 217.6704 
L 212.027177 198.3168 
L 213.638704 207.9936 
L 215.250168 183.8016 
L 216.861631 193.4784 
L 218.473159 198.3168 
L 220.084622 183.8016 
L 221.696086 217.6704 
L 224.919077 207.9936 
L 226.530541 212.832 
L 228.142068 246.7008 
L 229.753532 217.6704 
L 231.364995 261.216 
L 232.976523 227.3472 
L 234.587987 246.7008 
L 236.19945 246.7008 
L 237.810978 261.216 
L 239.422441 251.5392 
L 241.033905 232.1856 
L 244.256896 212.832 
L 245.86836 193.4784 
L 247.479887 222.5088 
L 249.091351 217.6704 
L 250.702814 232.1856 
L 255.537269 203.1552 
L 257.148797 222.5088 
L 258.76026 227.3472 
L 260.371724 207.9936 
L 261.983251 183.8016 
L 263.594715 227.3472 
L 265.206178 227.3472 
L 266.817706 203.1552 
L 268.42917 207.9936 
L 270.040633 207.9936 
L 271.652161 193.4784 
L 274.875152 212.832 
L 276.486615 241.8624 
L 278.098079 222.5088 
L 279.709607 217.6704 
L 281.32107 217.6704 
L 282.932534 188.64 
L 286.155525 188.64 
L 287.766988 212.832 
L 289.378516 207.9936 
L 290.989979 207.9936 
L 292.601443 198.3168 
L 294.212971 174.1248 
L 295.824434 203.1552 
L 297.435898 193.4784 
L 299.047425 193.4784 
L 300.658889 178.9632 
L 302.270352 203.1552 
L 303.88188 183.8016 
L 305.493344 227.3472 
L 307.104807 193.4784 
L 308.716335 222.5088 
L 310.327798 212.832 
L 311.939262 193.4784 
L 313.550789 212.832 
L 315.162253 188.64 
L 316.773717 193.4784 
L 318.385244 232.1856 
L 321.608171 183.8016 
L 323.219699 198.3168 
L 324.831162 174.1248 
L 326.442626 227.3472 
L 328.054154 227.3472 
L 331.277081 207.9936 
L 332.888608 203.1552 
L 334.500072 222.5088 
L 336.111535 227.3472 
L 337.723063 198.3168 
L 339.334527 193.4784 
L 340.94599 232.1856 
L 342.557518 188.64 
L 344.168981 193.4784 
L 345.780445 222.5088 
L 347.391972 203.1552 
L 349.003436 217.6704 
L 350.6149 227.3472 
L 352.226427 217.6704 
L 353.837891 237.024 
L 355.449354 241.8624 
L 357.060882 217.6704 
L 358.672345 183.8016 
L 360.283809 193.4784 
L 361.895337 237.024 
L 363.5068 203.1552 
L 365.118264 246.7008 
L 365.118264 246.7008 
" clip-path="url(#p4adb1d311a)" style="fill: none; stroke: #2ca02c; stroke-width: 1.5; stroke-linecap: square"/>
   </g>
   <g id="patch_3">
    <path d="M 40.603125 273.312 
L 40.603125 7.2 
" style="fill: none; stroke: #000000; stroke-width: 0.8; stroke-linejoin: miter; stroke-linecap: square"/>
   </g>
   <g id="patch_4">
    <path d="M 397.723125 273.312 
L 397.723125 7.2 
" style="fill: none; stroke: #000000; stroke-width: 0.8; stroke-linejoin: miter; stroke-linecap: square"/>
   </g>
   <g id="patch_5">
    <path d="M 40.603125 273.312 
L 397.723125 273.312 
" style="fill: none; stroke: #000000; stroke-width: 0.8; stroke-linejoin: miter; stroke-linecap: square"/>
   </g>
   <g id="patch_6">
    <path d="M 40.603125 7.2 
L 397.723125 7.2 
" style="fill: none; stroke: #000000; stroke-width: 0.8; stroke-linejoin: miter; stroke-linecap: square"/>
   </g>
   <g id="legend_1">
    <g id="patch_7">
     <path d="M 313.946563 59.234375 
L 390.723125 59.234375 
Q 392.723125 59.234375 392.723125 57.234375 
L 392.723125 14.2 
Q 392.723125 12.2 390.723125 12.2 
L 313.946563 12.2 
Q 311.946563 12.2 311.946563 14.2 
L 311.946563 57.234375 
Q 311.946563 59.234375 313.946563 59.234375 
z
" style="fill: #ffffff; opacity: 0.8; stroke: #cccccc; stroke-linejoin: miter"/>
    </g>
    <g id="line2d_19">
     <path d="M 315.946563 20.298437 
L 325.946563 20.298437 
L 335.946563 20.298437 
" style="fill: none; stroke: #1f77b4; stroke-width: 1.5; stroke-linecap: square"/>
    </g>
    <g id="text_18">
     <!-- X-Length -->
     <g transform="translate(343.946563 23.798437) scale(0.1 -0.1)">
      <defs>
       <path id="DejaVuSans-58" d="M 403 4666 
L 1081 4666 
L 2241 2931 
L 3406 4666 
L 4084 4666 
L 2584 2425 
L 4184 0 
L 3506 0 
L 2194 1984 
L 872 0 
L 191 0 
L 1856 2491 
L 403 4666 
z
" transform="scale(0.015625)"/>
       <path id="DejaVuSans-2d" d="M 313 2009 
L 1997 2009 
L 1997 1497 
L 313 1497 
L 313 2009 
z
" transform="scale(0.015625)"/>
       <path id="DejaVuSans-4c" d="M 628 4666 
L 1259 4666 
L 1259 531 
L 3531 531 
L 3531 0 
L 628 0 
L 628 4666 
z
" transform="scale(0.015625)"/>
       <path id="DejaVuSans-68" d="M 3513 2113 
L 3513 0 
L 2938 0 
L 2938 2094 
Q 2938 2591 2744 2837 
Q 2550 3084 2163 3084 
Q 1697 3084 1428 2787 
Q 1159 2491 1159 1978 
L 1159 0 
L 581 0 
L 581 4863 
L 1159 4863 
L 1159 2956 
Q 1366 3272 1645 3428 
Q 1925 3584 2291 3584 
Q 2894 3584 3203 3211 
Q 3513 2838 3513 2113 
z
" transform="scale(0.015625)"/>
      </defs>
      <use xlink:href="#DejaVuSans-58"/>
      <use xlink:href="#DejaVuSans-2d" x="63.505859"/>
      <use xlink:href="#DejaVuSans-4c" x="99.589844"/>
      <use xlink:href="#DejaVuSans-65" x="153.552734"/>
      <use xlink:href="#DejaVuSans-6e" x="215.076172"/>
      <use xlink:href="#DejaVuSans-67" x="278.455078"/>
      <use xlink:href="#DejaVuSans-74" x="341.931641"/>
      <use xlink:href="#DejaVuSans-68" x="381.140625"/>
     </g>
    </g>
    <g id="line2d_20">
     <path d="M 315.946563 34.976562 
L 325.946563 34.976562 
L 335.946563 34.976562 
" style="fill: none; stroke: #ff7f0e; stroke-width: 1.5; stroke-linecap: square"/>
    </g>
    <g id="text_19">
     <!-- Y-Length -->
     <g transform="translate(343.946563 38.476562) scale(0.1 -0.1)">
      <defs>
       <path id="DejaVuSans-59" d="M -13 4666 
L 666 4666 
L 1959 2747 
L 3244 4666 
L 3922 4666 
L 2272 2222 
L 2272 0 
L 1638 0 
L 1638 2222 
L -13 4666 
z
" transform="scale(0.015625)"/>
      </defs>
      <use xlink:href="#DejaVuSans-59"/>
      <use xlink:href="#DejaVuSans-2d" x="49.208984"/>
      <use xlink:href="#DejaVuSans-4c" x="85.292969"/>
      <use xlink:href="#DejaVuSans-65" x="139.255859"/>
      <use xlink:href="#DejaVuSans-6e" x="200.779297"/>
      <use xlink:href="#DejaVuSans-67" x="264.158203"/>
      <use xlink:href="#DejaVuSans-74" x="327.634766"/>
      <use xlink:href="#DejaVuSans-68" x="366.84375"/>
     </g>
    </g>
    <g id="line2d_21">
     <path d="M 315.946563 49.654687 
L 325.946563 49.654687 
L 335.946563 49.654687 
" style="fill: none; stroke: #2ca02c; stroke-width: 1.5; stroke-linecap: square"/>
    </g>
    <g id="text_20">
     <!-- Z-Length -->
     <g transform="translate(343.946563 53.154687) scale(0.1 -0.1)">
      <defs>
       <path id="DejaVuSans-5a" d="M 359 4666 
L 4025 4666 
L 4025 4184 
L 1075 531 
L 4097 531 
L 4097 0 
L 288 0 
L 288 481 
L 3238 4134 
L 359 4134 
L 359 4666 
z
" transform="scale(0.015625)"/>
      </defs>
      <use xlink:href="#DejaVuSans-5a"/>
      <use xlink:href="#DejaVuSans-2d" x="66.755859"/>
      <use xlink:href="#DejaVuSans-4c" x="102.839844"/>
      <use xlink:href="#DejaVuSans-65" x="156.802734"/>
      <use xlink:href="#DejaVuSans-6e" x="218.326172"/>
      <use xlink:href="#DejaVuSans-67" x="281.705078"/>
      <use xlink:href="#DejaVuSans-74" x="345.181641"/>
      <use xlink:href="#DejaVuSans-68" x="384.390625"/>
     </g>
    </g>
   </g>
  </g>
 </g>
 <defs>
  <clipPath id="p4adb1d311a">
   <rect x="40.603125" y="7.2" width="357.12" height="266.112"/>
  </clipPath>
 </defs>
</svg>
