<?xml version="1.0" encoding="utf-8" standalone="no"?>
<!DOCTYPE svg PUBLIC "-//W3C//DTD SVG 1.1//EN"
  "http://www.w3.org/Graphics/SVG/1.1/DTD/svg11.dtd">
<svg xmlns:xlink="http://www.w3.org/1999/xlink" width="405.846562pt" height="325.986375pt" viewBox="0 0 405.846562 325.986375" xmlns="http://www.w3.org/2000/svg" version="1.1">
 <metadata>
  <rdf:RDF xmlns:dc="http://purl.org/dc/elements/1.1/" xmlns:cc="http://creativecommons.org/ns#" xmlns:rdf="http://www.w3.org/1999/02/22-rdf-syntax-ns#">
   <cc:Work>
    <dc:type rdf:resource="http://purl.org/dc/dcmitype/StillImage"/>
    <dc:date>2025-01-20T15:22:46.313822</dc:date>
    <dc:format>image/svg+xml</dc:format>
    <dc:creator>
     <cc:Agent>
      <dc:title>Matplotlib v3.9.0, https://matplotlib.org/</dc:title>
     </cc:Agent>
    </dc:creator>
   </cc:Work>
  </rdf:RDF>
 </metadata>
 <defs>
  <style type="text/css">*{stroke-linejoin: round; stroke-linecap: butt}</style>
 </defs>
 <g id="figure_1">
  <g id="patch_1">
   <path d="M 0 325.986375 
L 405.846562 325.986375 
L 405.846562 0 
L 0 0 
z
" style="fill: #ffffff"/>
  </g>
  <g id="axes_1">
   <g id="patch_2">
    <path d="M 41.526562 288.430125 
L 398.646563 288.430125 
L 398.646563 22.318125 
L 41.526562 22.318125 
z
" style="fill: #ffffff"/>
   </g>
   <g id="matplotlib.axis_1">
    <g id="xtick_1">
     <g id="line2d_1">
      <defs>
       <path id="m18f2d4ab90" d="M 0 0 
L 0 3.5 
" style="stroke: #000000; stroke-width: 0.8"/>
      </defs>
      <g>
       <use xlink:href="#m18f2d4ab90" x="57.75929" y="288.430125" style="stroke: #000000; stroke-width: 0.8"/>
      </g>
     </g>
     <g id="text_1">
      <!-- 0.0 -->
      <g transform="translate(49.807727 303.028562) scale(0.1 -0.1)">
       <defs>
        <path id="DejaVuSans-30" d="M 2034 4250 
Q 1547 4250 1301 3770 
Q 1056 3291 1056 2328 
Q 1056 1369 1301 889 
Q 1547 409 2034 409 
Q 2525 409 2770 889 
Q 3016 1369 3016 2328 
Q 3016 3291 2770 3770 
Q 2525 4250 2034 4250 
z
M 2034 4750 
Q 2819 4750 3233 4129 
Q 3647 3509 3647 2328 
Q 3647 1150 3233 529 
Q 2819 -91 2034 -91 
Q 1250 -91 836 529 
Q 422 1150 422 2328 
Q 422 3509 836 4129 
Q 1250 4750 2034 4750 
z
" transform="scale(0.015625)"/>
        <path id="DejaVuSans-2e" d="M 684 794 
L 1344 794 
L 1344 0 
L 684 0 
L 684 794 
z
" transform="scale(0.015625)"/>
       </defs>
       <use xlink:href="#DejaVuSans-30"/>
       <use xlink:href="#DejaVuSans-2e" x="63.623047"/>
       <use xlink:href="#DejaVuSans-30" x="95.410156"/>
      </g>
     </g>
    </g>
    <g id="xtick_2">
     <g id="line2d_2">
      <g>
       <use xlink:href="#m18f2d4ab90" x="128.336365" y="288.430125" style="stroke: #000000; stroke-width: 0.8"/>
      </g>
     </g>
     <g id="text_2">
      <!-- 0.2 -->
      <g transform="translate(120.384802 303.028562) scale(0.1 -0.1)">
       <defs>
        <path id="DejaVuSans-32" d="M 1228 531 
L 3431 531 
L 3431 0 
L 469 0 
L 469 531 
Q 828 903 1448 1529 
Q 2069 2156 2228 2338 
Q 2531 2678 2651 2914 
Q 2772 3150 2772 3378 
Q 2772 3750 2511 3984 
Q 2250 4219 1831 4219 
Q 1534 4219 1204 4116 
Q 875 4013 500 3803 
L 500 4441 
Q 881 4594 1212 4672 
Q 1544 4750 1819 4750 
Q 2544 4750 2975 4387 
Q 3406 4025 3406 3419 
Q 3406 3131 3298 2873 
Q 3191 2616 2906 2266 
Q 2828 2175 2409 1742 
Q 1991 1309 1228 531 
z
" transform="scale(0.015625)"/>
       </defs>
       <use xlink:href="#DejaVuSans-30"/>
       <use xlink:href="#DejaVuSans-2e" x="63.623047"/>
       <use xlink:href="#DejaVuSans-32" x="95.410156"/>
      </g>
     </g>
    </g>
    <g id="xtick_3">
     <g id="line2d_3">
      <g>
       <use xlink:href="#m18f2d4ab90" x="198.91344" y="288.430125" style="stroke: #000000; stroke-width: 0.8"/>
      </g>
     </g>
     <g id="text_3">
      <!-- 0.4 -->
      <g transform="translate(190.961877 303.028562) scale(0.1 -0.1)">
       <defs>
        <path id="DejaVuSans-34" d="M 2419 4116 
L 825 1625 
L 2419 1625 
L 2419 4116 
z
M 2253 4666 
L 3047 4666 
L 3047 1625 
L 3713 1625 
L 3713 1100 
L 3047 1100 
L 3047 0 
L 2419 0 
L 2419 1100 
L 313 1100 
L 313 1709 
L 2253 4666 
z
" transform="scale(0.015625)"/>
       </defs>
       <use xlink:href="#DejaVuSans-30"/>
       <use xlink:href="#DejaVuSans-2e" x="63.623047"/>
       <use xlink:href="#DejaVuSans-34" x="95.410156"/>
      </g>
     </g>
    </g>
    <g id="xtick_4">
     <g id="line2d_4">
      <g>
       <use xlink:href="#m18f2d4ab90" x="269.490515" y="288.430125" style="stroke: #000000; stroke-width: 0.8"/>
      </g>
     </g>
     <g id="text_4">
      <!-- 0.6 -->
      <g transform="translate(261.538953 303.028562) scale(0.1 -0.1)">
       <defs>
        <path id="DejaVuSans-36" d="M 2113 2584 
Q 1688 2584 1439 2293 
Q 1191 2003 1191 1497 
Q 1191 994 1439 701 
Q 1688 409 2113 409 
Q 2538 409 2786 701 
Q 3034 994 3034 1497 
Q 3034 2003 2786 2293 
Q 2538 2584 2113 2584 
z
M 3366 4563 
L 3366 3988 
Q 3128 4100 2886 4159 
Q 2644 4219 2406 4219 
Q 1781 4219 1451 3797 
Q 1122 3375 1075 2522 
Q 1259 2794 1537 2939 
Q 1816 3084 2150 3084 
Q 2853 3084 3261 2657 
Q 3669 2231 3669 1497 
Q 3669 778 3244 343 
Q 2819 -91 2113 -91 
Q 1303 -91 875 529 
Q 447 1150 447 2328 
Q 447 3434 972 4092 
Q 1497 4750 2381 4750 
Q 2619 4750 2861 4703 
Q 3103 4656 3366 4563 
z
" transform="scale(0.015625)"/>
       </defs>
       <use xlink:href="#DejaVuSans-30"/>
       <use xlink:href="#DejaVuSans-2e" x="63.623047"/>
       <use xlink:href="#DejaVuSans-36" x="95.410156"/>
      </g>
     </g>
    </g>
    <g id="xtick_5">
     <g id="line2d_5">
      <g>
       <use xlink:href="#m18f2d4ab90" x="340.06759" y="288.430125" style="stroke: #000000; stroke-width: 0.8"/>
      </g>
     </g>
     <g id="text_5">
      <!-- 0.8 -->
      <g transform="translate(332.116028 303.028562) scale(0.1 -0.1)">
       <defs>
        <path id="DejaVuSans-38" d="M 2034 2216 
Q 1584 2216 1326 1975 
Q 1069 1734 1069 1313 
Q 1069 891 1326 650 
Q 1584 409 2034 409 
Q 2484 409 2743 651 
Q 3003 894 3003 1313 
Q 3003 1734 2745 1975 
Q 2488 2216 2034 2216 
z
M 1403 2484 
Q 997 2584 770 2862 
Q 544 3141 544 3541 
Q 544 4100 942 4425 
Q 1341 4750 2034 4750 
Q 2731 4750 3128 4425 
Q 3525 4100 3525 3541 
Q 3525 3141 3298 2862 
Q 3072 2584 2669 2484 
Q 3125 2378 3379 2068 
Q 3634 1759 3634 1313 
Q 3634 634 3220 271 
Q 2806 -91 2034 -91 
Q 1263 -91 848 271 
Q 434 634 434 1313 
Q 434 1759 690 2068 
Q 947 2378 1403 2484 
z
M 1172 3481 
Q 1172 3119 1398 2916 
Q 1625 2713 2034 2713 
Q 2441 2713 2670 2916 
Q 2900 3119 2900 3481 
Q 2900 3844 2670 4047 
Q 2441 4250 2034 4250 
Q 1625 4250 1398 4047 
Q 1172 3844 1172 3481 
z
" transform="scale(0.015625)"/>
       </defs>
       <use xlink:href="#DejaVuSans-30"/>
       <use xlink:href="#DejaVuSans-2e" x="63.623047"/>
       <use xlink:href="#DejaVuSans-38" x="95.410156"/>
      </g>
     </g>
    </g>
    <g id="text_6">
     <!-- Force(nN) -->
     <g transform="translate(195.752969 316.706687) scale(0.1 -0.1)">
      <defs>
       <path id="DejaVuSans-46" d="M 628 4666 
L 3309 4666 
L 3309 4134 
L 1259 4134 
L 1259 2759 
L 3109 2759 
L 3109 2228 
L 1259 2228 
L 1259 0 
L 628 0 
L 628 4666 
z
" transform="scale(0.015625)"/>
       <path id="DejaVuSans-6f" d="M 1959 3097 
Q 1497 3097 1228 2736 
Q 959 2375 959 1747 
Q 959 1119 1226 758 
Q 1494 397 1959 397 
Q 2419 397 2687 759 
Q 2956 1122 2956 1747 
Q 2956 2369 2687 2733 
Q 2419 3097 1959 3097 
z
M 1959 3584 
Q 2709 3584 3137 3096 
Q 3566 2609 3566 1747 
Q 3566 888 3137 398 
Q 2709 -91 1959 -91 
Q 1206 -91 779 398 
Q 353 888 353 1747 
Q 353 2609 779 3096 
Q 1206 3584 1959 3584 
z
" transform="scale(0.015625)"/>
       <path id="DejaVuSans-72" d="M 2631 2963 
Q 2534 3019 2420 3045 
Q 2306 3072 2169 3072 
Q 1681 3072 1420 2755 
Q 1159 2438 1159 1844 
L 1159 0 
L 581 0 
L 581 3500 
L 1159 3500 
L 1159 2956 
Q 1341 3275 1631 3429 
Q 1922 3584 2338 3584 
Q 2397 3584 2469 3576 
Q 2541 3569 2628 3553 
L 2631 2963 
z
" transform="scale(0.015625)"/>
       <path id="DejaVuSans-63" d="M 3122 3366 
L 3122 2828 
Q 2878 2963 2633 3030 
Q 2388 3097 2138 3097 
Q 1578 3097 1268 2742 
Q 959 2388 959 1747 
Q 959 1106 1268 751 
Q 1578 397 2138 397 
Q 2388 397 2633 464 
Q 2878 531 3122 666 
L 3122 134 
Q 2881 22 2623 -34 
Q 2366 -91 2075 -91 
Q 1284 -91 818 406 
Q 353 903 353 1747 
Q 353 2603 823 3093 
Q 1294 3584 2113 3584 
Q 2378 3584 2631 3529 
Q 2884 3475 3122 3366 
z
" transform="scale(0.015625)"/>
       <path id="DejaVuSans-65" d="M 3597 1894 
L 3597 1613 
L 953 1613 
Q 991 1019 1311 708 
Q 1631 397 2203 397 
Q 2534 397 2845 478 
Q 3156 559 3463 722 
L 3463 178 
Q 3153 47 2828 -22 
Q 2503 -91 2169 -91 
Q 1331 -91 842 396 
Q 353 884 353 1716 
Q 353 2575 817 3079 
Q 1281 3584 2069 3584 
Q 2775 3584 3186 3129 
Q 3597 2675 3597 1894 
z
M 3022 2063 
Q 3016 2534 2758 2815 
Q 2500 3097 2075 3097 
Q 1594 3097 1305 2825 
Q 1016 2553 972 2059 
L 3022 2063 
z
" transform="scale(0.015625)"/>
       <path id="DejaVuSans-28" d="M 1984 4856 
Q 1566 4138 1362 3434 
Q 1159 2731 1159 2009 
Q 1159 1288 1364 580 
Q 1569 -128 1984 -844 
L 1484 -844 
Q 1016 -109 783 600 
Q 550 1309 550 2009 
Q 550 2706 781 3412 
Q 1013 4119 1484 4856 
L 1984 4856 
z
" transform="scale(0.015625)"/>
       <path id="DejaVuSans-6e" d="M 3513 2113 
L 3513 0 
L 2938 0 
L 2938 2094 
Q 2938 2591 2744 2837 
Q 2550 3084 2163 3084 
Q 1697 3084 1428 2787 
Q 1159 2491 1159 1978 
L 1159 0 
L 581 0 
L 581 3500 
L 1159 3500 
L 1159 2956 
Q 1366 3272 1645 3428 
Q 1925 3584 2291 3584 
Q 2894 3584 3203 3211 
Q 3513 2838 3513 2113 
z
" transform="scale(0.015625)"/>
       <path id="DejaVuSans-4e" d="M 628 4666 
L 1478 4666 
L 3547 763 
L 3547 4666 
L 4159 4666 
L 4159 0 
L 3309 0 
L 1241 3903 
L 1241 0 
L 628 0 
L 628 4666 
z
" transform="scale(0.015625)"/>
       <path id="DejaVuSans-29" d="M 513 4856 
L 1013 4856 
Q 1481 4119 1714 3412 
Q 1947 2706 1947 2009 
Q 1947 1309 1714 600 
Q 1481 -109 1013 -844 
L 513 -844 
Q 928 -128 1133 580 
Q 1338 1288 1338 2009 
Q 1338 2731 1133 3434 
Q 928 4138 513 4856 
z
" transform="scale(0.015625)"/>
      </defs>
      <use xlink:href="#DejaVuSans-46"/>
      <use xlink:href="#DejaVuSans-6f" x="53.894531"/>
      <use xlink:href="#DejaVuSans-72" x="115.076172"/>
      <use xlink:href="#DejaVuSans-63" x="153.939453"/>
      <use xlink:href="#DejaVuSans-65" x="208.919922"/>
      <use xlink:href="#DejaVuSans-28" x="270.443359"/>
      <use xlink:href="#DejaVuSans-6e" x="309.457031"/>
      <use xlink:href="#DejaVuSans-4e" x="372.835938"/>
      <use xlink:href="#DejaVuSans-29" x="447.640625"/>
     </g>
    </g>
   </g>
   <g id="matplotlib.axis_2">
    <g id="ytick_1">
     <g id="line2d_6">
      <defs>
       <path id="mb5e6525094" d="M 0 0 
L -3.5 0 
" style="stroke: #000000; stroke-width: 0.8"/>
      </defs>
      <g>
       <use xlink:href="#mb5e6525094" x="41.526562" y="276.334125" style="stroke: #000000; stroke-width: 0.8"/>
      </g>
     </g>
     <g id="text_7">
      <!-- 0 -->
      <g transform="translate(28.164062 280.133344) scale(0.1 -0.1)">
       <use xlink:href="#DejaVuSans-30"/>
      </g>
     </g>
    </g>
    <g id="ytick_2">
     <g id="line2d_7">
      <g>
       <use xlink:href="#mb5e6525094" x="41.526562" y="235.348484" style="stroke: #000000; stroke-width: 0.8"/>
      </g>
     </g>
     <g id="text_8">
      <!-- 2 -->
      <g transform="translate(28.164062 239.147703) scale(0.1 -0.1)">
       <use xlink:href="#DejaVuSans-32"/>
      </g>
     </g>
    </g>
    <g id="ytick_3">
     <g id="line2d_8">
      <g>
       <use xlink:href="#mb5e6525094" x="41.526562" y="194.362843" style="stroke: #000000; stroke-width: 0.8"/>
      </g>
     </g>
     <g id="text_9">
      <!-- 4 -->
      <g transform="translate(28.164062 198.162062) scale(0.1 -0.1)">
       <use xlink:href="#DejaVuSans-34"/>
      </g>
     </g>
    </g>
    <g id="ytick_4">
     <g id="line2d_9">
      <g>
       <use xlink:href="#mb5e6525094" x="41.526562" y="153.377202" style="stroke: #000000; stroke-width: 0.8"/>
      </g>
     </g>
     <g id="text_10">
      <!-- 6 -->
      <g transform="translate(28.164062 157.176421) scale(0.1 -0.1)">
       <use xlink:href="#DejaVuSans-36"/>
      </g>
     </g>
    </g>
    <g id="ytick_5">
     <g id="line2d_10">
      <g>
       <use xlink:href="#mb5e6525094" x="41.526562" y="112.391561" style="stroke: #000000; stroke-width: 0.8"/>
      </g>
     </g>
     <g id="text_11">
      <!-- 8 -->
      <g transform="translate(28.164062 116.19078) scale(0.1 -0.1)">
       <use xlink:href="#DejaVuSans-38"/>
      </g>
     </g>
    </g>
    <g id="ytick_6">
     <g id="line2d_11">
      <g>
       <use xlink:href="#mb5e6525094" x="41.526562" y="71.40592" style="stroke: #000000; stroke-width: 0.8"/>
      </g>
     </g>
     <g id="text_12">
      <!-- 10 -->
      <g transform="translate(21.801562 75.205139) scale(0.1 -0.1)">
       <defs>
        <path id="DejaVuSans-31" d="M 794 531 
L 1825 531 
L 1825 4091 
L 703 3866 
L 703 4441 
L 1819 4666 
L 2450 4666 
L 2450 531 
L 3481 531 
L 3481 0 
L 794 0 
L 794 531 
z
" transform="scale(0.015625)"/>
       </defs>
       <use xlink:href="#DejaVuSans-31"/>
       <use xlink:href="#DejaVuSans-30" x="63.623047"/>
      </g>
     </g>
    </g>
    <g id="ytick_7">
     <g id="line2d_12">
      <g>
       <use xlink:href="#mb5e6525094" x="41.526562" y="30.420279" style="stroke: #000000; stroke-width: 0.8"/>
      </g>
     </g>
     <g id="text_13">
      <!-- 12 -->
      <g transform="translate(21.801562 34.219498) scale(0.1 -0.1)">
       <use xlink:href="#DejaVuSans-31"/>
       <use xlink:href="#DejaVuSans-32" x="63.623047"/>
      </g>
     </g>
    </g>
    <g id="text_14">
     <!-- Distance(Å) -->
     <g transform="translate(15.721875 184.5585) rotate(-90) scale(0.1 -0.1)">
      <defs>
       <path id="DejaVuSans-44" d="M 1259 4147 
L 1259 519 
L 2022 519 
Q 2988 519 3436 956 
Q 3884 1394 3884 2338 
Q 3884 3275 3436 3711 
Q 2988 4147 2022 4147 
L 1259 4147 
z
M 628 4666 
L 1925 4666 
Q 3281 4666 3915 4102 
Q 4550 3538 4550 2338 
Q 4550 1131 3912 565 
Q 3275 0 1925 0 
L 628 0 
L 628 4666 
z
" transform="scale(0.015625)"/>
       <path id="DejaVuSans-69" d="M 603 3500 
L 1178 3500 
L 1178 0 
L 603 0 
L 603 3500 
z
M 603 4863 
L 1178 4863 
L 1178 4134 
L 603 4134 
L 603 4863 
z
" transform="scale(0.015625)"/>
       <path id="DejaVuSans-73" d="M 2834 3397 
L 2834 2853 
Q 2591 2978 2328 3040 
Q 2066 3103 1784 3103 
Q 1356 3103 1142 2972 
Q 928 2841 928 2578 
Q 928 2378 1081 2264 
Q 1234 2150 1697 2047 
L 1894 2003 
Q 2506 1872 2764 1633 
Q 3022 1394 3022 966 
Q 3022 478 2636 193 
Q 2250 -91 1575 -91 
Q 1294 -91 989 -36 
Q 684 19 347 128 
L 347 722 
Q 666 556 975 473 
Q 1284 391 1588 391 
Q 1994 391 2212 530 
Q 2431 669 2431 922 
Q 2431 1156 2273 1281 
Q 2116 1406 1581 1522 
L 1381 1569 
Q 847 1681 609 1914 
Q 372 2147 372 2553 
Q 372 3047 722 3315 
Q 1072 3584 1716 3584 
Q 2034 3584 2315 3537 
Q 2597 3491 2834 3397 
z
" transform="scale(0.015625)"/>
       <path id="DejaVuSans-74" d="M 1172 4494 
L 1172 3500 
L 2356 3500 
L 2356 3053 
L 1172 3053 
L 1172 1153 
Q 1172 725 1289 603 
Q 1406 481 1766 481 
L 2356 481 
L 2356 0 
L 1766 0 
Q 1100 0 847 248 
Q 594 497 594 1153 
L 594 3053 
L 172 3053 
L 172 3500 
L 594 3500 
L 594 4494 
L 1172 4494 
z
" transform="scale(0.015625)"/>
       <path id="DejaVuSans-61" d="M 2194 1759 
Q 1497 1759 1228 1600 
Q 959 1441 959 1056 
Q 959 750 1161 570 
Q 1363 391 1709 391 
Q 2188 391 2477 730 
Q 2766 1069 2766 1631 
L 2766 1759 
L 2194 1759 
z
M 3341 1997 
L 3341 0 
L 2766 0 
L 2766 531 
Q 2569 213 2275 61 
Q 1981 -91 1556 -91 
Q 1019 -91 701 211 
Q 384 513 384 1019 
Q 384 1609 779 1909 
Q 1175 2209 1959 2209 
L 2766 2209 
L 2766 2266 
Q 2766 2663 2505 2880 
Q 2244 3097 1772 3097 
Q 1472 3097 1187 3025 
Q 903 2953 641 2809 
L 641 3341 
Q 956 3463 1253 3523 
Q 1550 3584 1831 3584 
Q 2591 3584 2966 3190 
Q 3341 2797 3341 1997 
z
" transform="scale(0.015625)"/>
       <path id="DejaVuSans-c5" d="M 2663 5081 
Q 2663 5278 2523 5417 
Q 2384 5556 2188 5556 
Q 1988 5556 1852 5420 
Q 1716 5284 1716 5081 
Q 1716 4884 1853 4746 
Q 1991 4609 2188 4609 
Q 2384 4609 2523 4746 
Q 2663 4884 2663 5081 
z
M 2188 4044 
L 1338 1722 
L 3041 1722 
L 2188 4044 
z
M 1716 4366 
Q 1525 4494 1428 4673 
Q 1331 4853 1331 5081 
Q 1331 5441 1579 5691 
Q 1828 5941 2188 5941 
Q 2544 5941 2795 5689 
Q 3047 5438 3047 5081 
Q 3047 4863 2948 4678 
Q 2850 4494 2663 4366 
L 4325 0 
L 3669 0 
L 3244 1197 
L 1141 1197 
L 716 0 
L 50 0 
L 1716 4366 
z
" transform="scale(0.015625)"/>
      </defs>
      <use xlink:href="#DejaVuSans-44"/>
      <use xlink:href="#DejaVuSans-69" x="77.001953"/>
      <use xlink:href="#DejaVuSans-73" x="104.785156"/>
      <use xlink:href="#DejaVuSans-74" x="156.884766"/>
      <use xlink:href="#DejaVuSans-61" x="196.09375"/>
      <use xlink:href="#DejaVuSans-6e" x="257.373047"/>
      <use xlink:href="#DejaVuSans-63" x="320.751953"/>
      <use xlink:href="#DejaVuSans-65" x="375.732422"/>
      <use xlink:href="#DejaVuSans-28" x="437.255859"/>
      <use xlink:href="#DejaVuSans-c5" x="476.269531"/>
      <use xlink:href="#DejaVuSans-29" x="544.677734"/>
     </g>
    </g>
   </g>
   <g id="line2d_13">
    <path d="M 57.75929 276.334125 
L 75.403559 275.722004 
L 93.047827 275.012543 
L 110.692096 274.167829 
L 128.336365 273.085398 
L 135.394072 272.532912 
L 142.45178 271.871813 
L 149.509487 271.076897 
L 156.567195 269.8129 
L 163.624902 232.739133 
" clip-path="url(#p77828d9040)" style="fill: none; stroke: #1f77b4; stroke-width: 1.5; stroke-linecap: square"/>
    <defs>
     <path id="m0fd3bee102" d="M 0 -3 
L -0.673542 -0.927051 
L -2.85317 -0.927051 
L -1.089814 0.354102 
L -1.763356 2.427051 
L -0 1.145898 
L 1.763356 2.427051 
L 1.089814 0.354102 
L 2.85317 -0.927051 
L 0.673542 -0.927051 
z
" style="stroke: #1f77b4; stroke-linejoin: bevel"/>
    </defs>
    <g clip-path="url(#p77828d9040)">
     <use xlink:href="#m0fd3bee102" x="57.75929" y="276.334125" style="fill: #1f77b4; stroke: #1f77b4; stroke-linejoin: bevel"/>
     <use xlink:href="#m0fd3bee102" x="75.403559" y="275.722004" style="fill: #1f77b4; stroke: #1f77b4; stroke-linejoin: bevel"/>
     <use xlink:href="#m0fd3bee102" x="93.047827" y="275.012543" style="fill: #1f77b4; stroke: #1f77b4; stroke-linejoin: bevel"/>
     <use xlink:href="#m0fd3bee102" x="110.692096" y="274.167829" style="fill: #1f77b4; stroke: #1f77b4; stroke-linejoin: bevel"/>
     <use xlink:href="#m0fd3bee102" x="128.336365" y="273.085398" style="fill: #1f77b4; stroke: #1f77b4; stroke-linejoin: bevel"/>
     <use xlink:href="#m0fd3bee102" x="135.394072" y="272.532912" style="fill: #1f77b4; stroke: #1f77b4; stroke-linejoin: bevel"/>
     <use xlink:href="#m0fd3bee102" x="142.45178" y="271.871813" style="fill: #1f77b4; stroke: #1f77b4; stroke-linejoin: bevel"/>
     <use xlink:href="#m0fd3bee102" x="149.509487" y="271.076897" style="fill: #1f77b4; stroke: #1f77b4; stroke-linejoin: bevel"/>
     <use xlink:href="#m0fd3bee102" x="156.567195" y="269.8129" style="fill: #1f77b4; stroke: #1f77b4; stroke-linejoin: bevel"/>
     <use xlink:href="#m0fd3bee102" x="163.624902" y="232.739133" style="fill: #1f77b4; stroke: #1f77b4; stroke-linejoin: bevel"/>
    </g>
   </g>
   <g id="line2d_14">
    <path d="M 57.75929 276.334125 
L 75.403559 269.519033 
L 93.047827 265.870081 
L 110.692096 263.974495 
L 128.336365 261.394449 
L 135.394072 260.860816 
L 142.45178 260.100737 
L 149.509487 259.19311 
L 156.567195 258.037725 
L 163.624902 255.378986 
L 170.68261 200.305351 
" clip-path="url(#p77828d9040)" style="fill: none; stroke: #ff7f0e; stroke-width: 1.5; stroke-linecap: square"/>
    <defs>
     <path id="m6e969e7ae1" d="M 0 -3 
L -0.673542 -0.927051 
L -2.85317 -0.927051 
L -1.089814 0.354102 
L -1.763356 2.427051 
L -0 1.145898 
L 1.763356 2.427051 
L 1.089814 0.354102 
L 2.85317 -0.927051 
L 0.673542 -0.927051 
z
" style="stroke: #ff7f0e; stroke-linejoin: bevel"/>
    </defs>
    <g clip-path="url(#p77828d9040)">
     <use xlink:href="#m6e969e7ae1" x="57.75929" y="276.334125" style="fill: #ff7f0e; stroke: #ff7f0e; stroke-linejoin: bevel"/>
     <use xlink:href="#m6e969e7ae1" x="75.403559" y="269.519033" style="fill: #ff7f0e; stroke: #ff7f0e; stroke-linejoin: bevel"/>
     <use xlink:href="#m6e969e7ae1" x="93.047827" y="265.870081" style="fill: #ff7f0e; stroke: #ff7f0e; stroke-linejoin: bevel"/>
     <use xlink:href="#m6e969e7ae1" x="110.692096" y="263.974495" style="fill: #ff7f0e; stroke: #ff7f0e; stroke-linejoin: bevel"/>
     <use xlink:href="#m6e969e7ae1" x="128.336365" y="261.394449" style="fill: #ff7f0e; stroke: #ff7f0e; stroke-linejoin: bevel"/>
     <use xlink:href="#m6e969e7ae1" x="135.394072" y="260.860816" style="fill: #ff7f0e; stroke: #ff7f0e; stroke-linejoin: bevel"/>
     <use xlink:href="#m6e969e7ae1" x="142.45178" y="260.100737" style="fill: #ff7f0e; stroke: #ff7f0e; stroke-linejoin: bevel"/>
     <use xlink:href="#m6e969e7ae1" x="149.509487" y="259.19311" style="fill: #ff7f0e; stroke: #ff7f0e; stroke-linejoin: bevel"/>
     <use xlink:href="#m6e969e7ae1" x="156.567195" y="258.037725" style="fill: #ff7f0e; stroke: #ff7f0e; stroke-linejoin: bevel"/>
     <use xlink:href="#m6e969e7ae1" x="163.624902" y="255.378986" style="fill: #ff7f0e; stroke: #ff7f0e; stroke-linejoin: bevel"/>
     <use xlink:href="#m6e969e7ae1" x="170.68261" y="200.305351" style="fill: #ff7f0e; stroke: #ff7f0e; stroke-linejoin: bevel"/>
    </g>
   </g>
   <g id="line2d_15">
    <path d="M 57.75929 276.334125 
L 75.403559 241.48342 
L 93.047827 226.495995 
L 110.692096 224.660658 
L 128.336365 221.486116 
L 135.394072 220.658206 
L 142.45178 214.474907 
L 149.509487 213.038155 
L 156.567195 199.014303 
L 163.624902 141.996924 
" clip-path="url(#p77828d9040)" style="fill: none; stroke: #2ca02c; stroke-width: 1.5; stroke-linecap: square"/>
    <defs>
     <path id="m9073ba0305" d="M 0 -3 
L -0.673542 -0.927051 
L -2.85317 -0.927051 
L -1.089814 0.354102 
L -1.763356 2.427051 
L -0 1.145898 
L 1.763356 2.427051 
L 1.089814 0.354102 
L 2.85317 -0.927051 
L 0.673542 -0.927051 
z
" style="stroke: #2ca02c; stroke-linejoin: bevel"/>
    </defs>
    <g clip-path="url(#p77828d9040)">
     <use xlink:href="#m9073ba0305" x="57.75929" y="276.334125" style="fill: #2ca02c; stroke: #2ca02c; stroke-linejoin: bevel"/>
     <use xlink:href="#m9073ba0305" x="75.403559" y="241.48342" style="fill: #2ca02c; stroke: #2ca02c; stroke-linejoin: bevel"/>
     <use xlink:href="#m9073ba0305" x="93.047827" y="226.495995" style="fill: #2ca02c; stroke: #2ca02c; stroke-linejoin: bevel"/>
     <use xlink:href="#m9073ba0305" x="110.692096" y="224.660658" style="fill: #2ca02c; stroke: #2ca02c; stroke-linejoin: bevel"/>
     <use xlink:href="#m9073ba0305" x="128.336365" y="221.486116" style="fill: #2ca02c; stroke: #2ca02c; stroke-linejoin: bevel"/>
     <use xlink:href="#m9073ba0305" x="135.394072" y="220.658206" style="fill: #2ca02c; stroke: #2ca02c; stroke-linejoin: bevel"/>
     <use xlink:href="#m9073ba0305" x="142.45178" y="214.474907" style="fill: #2ca02c; stroke: #2ca02c; stroke-linejoin: bevel"/>
     <use xlink:href="#m9073ba0305" x="149.509487" y="213.038155" style="fill: #2ca02c; stroke: #2ca02c; stroke-linejoin: bevel"/>
     <use xlink:href="#m9073ba0305" x="156.567195" y="199.014303" style="fill: #2ca02c; stroke: #2ca02c; stroke-linejoin: bevel"/>
     <use xlink:href="#m9073ba0305" x="163.624902" y="141.996924" style="fill: #2ca02c; stroke: #2ca02c; stroke-linejoin: bevel"/>
    </g>
   </g>
   <g id="line2d_16">
    <path d="M 57.75929 276.334125 
L 75.403559 276.135959 
L 93.047827 275.906645 
L 110.692096 275.683068 
L 128.336365 275.44822 
L 135.394072 275.405185 
L 142.45178 275.255383 
L 149.509487 275.213168 
L 156.567195 275.05107 
L 163.624902 275.008035 
L 170.68261 274.838354 
L 177.740317 274.793885 
L 184.798025 274.615597 
L 191.855732 274.569898 
L 198.91344 274.381569 
L 205.971147 274.334436 
L 213.028855 274.134836 
L 220.086562 274.086268 
L 227.14427 273.873757 
L 234.201978 273.823345 
L 241.259685 273.596079 
L 248.317393 273.448531 
L 255.3751 273.300983 
L 262.432808 273.143598 
L 269.490515 272.980885 
L 276.548223 272.810999 
L 283.60593 272.633531 
L 290.663638 272.448071 
L 297.721345 272.25298 
L 304.779053 272.047642 
L 311.83676 271.830418 
L 318.894468 271.592291 
L 325.952175 271.344738 
L 333.009883 271.076692 
L 340.06759 270.783645 
L 347.125298 270.458219 
L 354.183005 270.087913 
L 361.240713 269.653056 
L 368.29842 269.096881 
L 375.356128 268.257085 
L 382.413835 34.414125 
" clip-path="url(#p77828d9040)" style="fill: none; stroke: #d62728; stroke-width: 1.5; stroke-linecap: square"/>
    <defs>
     <path id="m0c99d5de1b" d="M 0 -3 
L -0.673542 -0.927051 
L -2.85317 -0.927051 
L -1.089814 0.354102 
L -1.763356 2.427051 
L -0 1.145898 
L 1.763356 2.427051 
L 1.089814 0.354102 
L 2.85317 -0.927051 
L 0.673542 -0.927051 
z
" style="stroke: #d62728; stroke-linejoin: bevel"/>
    </defs>
    <g clip-path="url(#p77828d9040)">
     <use xlink:href="#m0c99d5de1b" x="57.75929" y="276.334125" style="fill: #d62728; stroke: #d62728; stroke-linejoin: bevel"/>
     <use xlink:href="#m0c99d5de1b" x="75.403559" y="276.135959" style="fill: #d62728; stroke: #d62728; stroke-linejoin: bevel"/>
     <use xlink:href="#m0c99d5de1b" x="93.047827" y="275.906645" style="fill: #d62728; stroke: #d62728; stroke-linejoin: bevel"/>
     <use xlink:href="#m0c99d5de1b" x="110.692096" y="275.683068" style="fill: #d62728; stroke: #d62728; stroke-linejoin: bevel"/>
     <use xlink:href="#m0c99d5de1b" x="128.336365" y="275.44822" style="fill: #d62728; stroke: #d62728; stroke-linejoin: bevel"/>
     <use xlink:href="#m0c99d5de1b" x="135.394072" y="275.405185" style="fill: #d62728; stroke: #d62728; stroke-linejoin: bevel"/>
     <use xlink:href="#m0c99d5de1b" x="142.45178" y="275.255383" style="fill: #d62728; stroke: #d62728; stroke-linejoin: bevel"/>
     <use xlink:href="#m0c99d5de1b" x="149.509487" y="275.213168" style="fill: #d62728; stroke: #d62728; stroke-linejoin: bevel"/>
     <use xlink:href="#m0c99d5de1b" x="156.567195" y="275.05107" style="fill: #d62728; stroke: #d62728; stroke-linejoin: bevel"/>
     <use xlink:href="#m0c99d5de1b" x="163.624902" y="275.008035" style="fill: #d62728; stroke: #d62728; stroke-linejoin: bevel"/>
     <use xlink:href="#m0c99d5de1b" x="170.68261" y="274.838354" style="fill: #d62728; stroke: #d62728; stroke-linejoin: bevel"/>
     <use xlink:href="#m0c99d5de1b" x="177.740317" y="274.793885" style="fill: #d62728; stroke: #d62728; stroke-linejoin: bevel"/>
     <use xlink:href="#m0c99d5de1b" x="184.798025" y="274.615597" style="fill: #d62728; stroke: #d62728; stroke-linejoin: bevel"/>
     <use xlink:href="#m0c99d5de1b" x="191.855732" y="274.569898" style="fill: #d62728; stroke: #d62728; stroke-linejoin: bevel"/>
     <use xlink:href="#m0c99d5de1b" x="198.91344" y="274.381569" style="fill: #d62728; stroke: #d62728; stroke-linejoin: bevel"/>
     <use xlink:href="#m0c99d5de1b" x="205.971147" y="274.334436" style="fill: #d62728; stroke: #d62728; stroke-linejoin: bevel"/>
     <use xlink:href="#m0c99d5de1b" x="213.028855" y="274.134836" style="fill: #d62728; stroke: #d62728; stroke-linejoin: bevel"/>
     <use xlink:href="#m0c99d5de1b" x="220.086562" y="274.086268" style="fill: #d62728; stroke: #d62728; stroke-linejoin: bevel"/>
     <use xlink:href="#m0c99d5de1b" x="227.14427" y="273.873757" style="fill: #d62728; stroke: #d62728; stroke-linejoin: bevel"/>
     <use xlink:href="#m0c99d5de1b" x="234.201978" y="273.823345" style="fill: #d62728; stroke: #d62728; stroke-linejoin: bevel"/>
     <use xlink:href="#m0c99d5de1b" x="241.259685" y="273.596079" style="fill: #d62728; stroke: #d62728; stroke-linejoin: bevel"/>
     <use xlink:href="#m0c99d5de1b" x="248.317393" y="273.448531" style="fill: #d62728; stroke: #d62728; stroke-linejoin: bevel"/>
     <use xlink:href="#m0c99d5de1b" x="255.3751" y="273.300983" style="fill: #d62728; stroke: #d62728; stroke-linejoin: bevel"/>
     <use xlink:href="#m0c99d5de1b" x="262.432808" y="273.143598" style="fill: #d62728; stroke: #d62728; stroke-linejoin: bevel"/>
     <use xlink:href="#m0c99d5de1b" x="269.490515" y="272.980885" style="fill: #d62728; stroke: #d62728; stroke-linejoin: bevel"/>
     <use xlink:href="#m0c99d5de1b" x="276.548223" y="272.810999" style="fill: #d62728; stroke: #d62728; stroke-linejoin: bevel"/>
     <use xlink:href="#m0c99d5de1b" x="283.60593" y="272.633531" style="fill: #d62728; stroke: #d62728; stroke-linejoin: bevel"/>
     <use xlink:href="#m0c99d5de1b" x="290.663638" y="272.448071" style="fill: #d62728; stroke: #d62728; stroke-linejoin: bevel"/>
     <use xlink:href="#m0c99d5de1b" x="297.721345" y="272.25298" style="fill: #d62728; stroke: #d62728; stroke-linejoin: bevel"/>
     <use xlink:href="#m0c99d5de1b" x="304.779053" y="272.047642" style="fill: #d62728; stroke: #d62728; stroke-linejoin: bevel"/>
     <use xlink:href="#m0c99d5de1b" x="311.83676" y="271.830418" style="fill: #d62728; stroke: #d62728; stroke-linejoin: bevel"/>
     <use xlink:href="#m0c99d5de1b" x="318.894468" y="271.592291" style="fill: #d62728; stroke: #d62728; stroke-linejoin: bevel"/>
     <use xlink:href="#m0c99d5de1b" x="325.952175" y="271.344738" style="fill: #d62728; stroke: #d62728; stroke-linejoin: bevel"/>
     <use xlink:href="#m0c99d5de1b" x="333.009883" y="271.076692" style="fill: #d62728; stroke: #d62728; stroke-linejoin: bevel"/>
     <use xlink:href="#m0c99d5de1b" x="340.06759" y="270.783645" style="fill: #d62728; stroke: #d62728; stroke-linejoin: bevel"/>
     <use xlink:href="#m0c99d5de1b" x="347.125298" y="270.458219" style="fill: #d62728; stroke: #d62728; stroke-linejoin: bevel"/>
     <use xlink:href="#m0c99d5de1b" x="354.183005" y="270.087913" style="fill: #d62728; stroke: #d62728; stroke-linejoin: bevel"/>
     <use xlink:href="#m0c99d5de1b" x="361.240713" y="269.653056" style="fill: #d62728; stroke: #d62728; stroke-linejoin: bevel"/>
     <use xlink:href="#m0c99d5de1b" x="368.29842" y="269.096881" style="fill: #d62728; stroke: #d62728; stroke-linejoin: bevel"/>
     <use xlink:href="#m0c99d5de1b" x="375.356128" y="268.257085" style="fill: #d62728; stroke: #d62728; stroke-linejoin: bevel"/>
     <use xlink:href="#m0c99d5de1b" x="382.413835" y="34.414125" style="fill: #d62728; stroke: #d62728; stroke-linejoin: bevel"/>
    </g>
   </g>
   <g id="line2d_17">
    <path d="M 57.75929 276.334125 
L 75.403559 272.731897 
L 93.047827 269.976227 
L 110.692096 262.715826 
L 128.336365 257.420891 
L 135.394072 77.898046 
" clip-path="url(#p77828d9040)" style="fill: none; stroke: #9467bd; stroke-width: 1.5; stroke-linecap: square"/>
    <defs>
     <path id="m3d181d9017" d="M 0 -3 
L -0.673542 -0.927051 
L -2.85317 -0.927051 
L -1.089814 0.354102 
L -1.763356 2.427051 
L -0 1.145898 
L 1.763356 2.427051 
L 1.089814 0.354102 
L 2.85317 -0.927051 
L 0.673542 -0.927051 
z
" style="stroke: #9467bd; stroke-linejoin: bevel"/>
    </defs>
    <g clip-path="url(#p77828d9040)">
     <use xlink:href="#m3d181d9017" x="57.75929" y="276.334125" style="fill: #9467bd; stroke: #9467bd; stroke-linejoin: bevel"/>
     <use xlink:href="#m3d181d9017" x="75.403559" y="272.731897" style="fill: #9467bd; stroke: #9467bd; stroke-linejoin: bevel"/>
     <use xlink:href="#m3d181d9017" x="93.047827" y="269.976227" style="fill: #9467bd; stroke: #9467bd; stroke-linejoin: bevel"/>
     <use xlink:href="#m3d181d9017" x="110.692096" y="262.715826" style="fill: #9467bd; stroke: #9467bd; stroke-linejoin: bevel"/>
     <use xlink:href="#m3d181d9017" x="128.336365" y="257.420891" style="fill: #9467bd; stroke: #9467bd; stroke-linejoin: bevel"/>
     <use xlink:href="#m3d181d9017" x="135.394072" y="77.898046" style="fill: #9467bd; stroke: #9467bd; stroke-linejoin: bevel"/>
    </g>
   </g>
   <g id="line2d_18">
    <path d="M 57.75929 276.334125 
L 75.403559 275.237349 
L 93.047827 273.889127 
L 110.692096 271.674058 
L 128.336365 264.141717 
L 135.394072 261.022299 
L 142.45178 257.607581 
L 149.509487 239.820222 
L 156.567195 225.91154 
L 163.624902 103.940322 
" clip-path="url(#p77828d9040)" style="fill: none; stroke: #8c564b; stroke-width: 1.5; stroke-linecap: square"/>
    <defs>
     <path id="mdbba15f27e" d="M 0 -3 
L -0.673542 -0.927051 
L -2.85317 -0.927051 
L -1.089814 0.354102 
L -1.763356 2.427051 
L -0 1.145898 
L 1.763356 2.427051 
L 1.089814 0.354102 
L 2.85317 -0.927051 
L 0.673542 -0.927051 
z
" style="stroke: #8c564b; stroke-linejoin: bevel"/>
    </defs>
    <g clip-path="url(#p77828d9040)">
     <use xlink:href="#mdbba15f27e" x="57.75929" y="276.334125" style="fill: #8c564b; stroke: #8c564b; stroke-linejoin: bevel"/>
     <use xlink:href="#mdbba15f27e" x="75.403559" y="275.237349" style="fill: #8c564b; stroke: #8c564b; stroke-linejoin: bevel"/>
     <use xlink:href="#mdbba15f27e" x="93.047827" y="273.889127" style="fill: #8c564b; stroke: #8c564b; stroke-linejoin: bevel"/>
     <use xlink:href="#mdbba15f27e" x="110.692096" y="271.674058" style="fill: #8c564b; stroke: #8c564b; stroke-linejoin: bevel"/>
     <use xlink:href="#mdbba15f27e" x="128.336365" y="264.141717" style="fill: #8c564b; stroke: #8c564b; stroke-linejoin: bevel"/>
     <use xlink:href="#mdbba15f27e" x="135.394072" y="261.022299" style="fill: #8c564b; stroke: #8c564b; stroke-linejoin: bevel"/>
     <use xlink:href="#mdbba15f27e" x="142.45178" y="257.607581" style="fill: #8c564b; stroke: #8c564b; stroke-linejoin: bevel"/>
     <use xlink:href="#mdbba15f27e" x="149.509487" y="239.820222" style="fill: #8c564b; stroke: #8c564b; stroke-linejoin: bevel"/>
     <use xlink:href="#mdbba15f27e" x="156.567195" y="225.91154" style="fill: #8c564b; stroke: #8c564b; stroke-linejoin: bevel"/>
     <use xlink:href="#mdbba15f27e" x="163.624902" y="103.940322" style="fill: #8c564b; stroke: #8c564b; stroke-linejoin: bevel"/>
    </g>
   </g>
   <g id="line2d_19">
    <path d="M 57.75929 276.334125 
L 75.403559 275.925293 
L 93.047827 275.428957 
L 110.692096 274.925039 
L 128.336365 274.396119 
L 135.394072 274.274801 
L 142.45178 274.228283 
L 149.509487 273.676001 
L 156.567195 273.36656 
L 163.624902 273.309385 
L 170.68261 272.770014 
L 177.740317 272.726774 
L 184.798025 272.174082 
L 191.855732 271.733897 
L 198.91344 271.684919 
L 205.971147 271.146982 
L 213.028855 271.095955 
L 220.086562 270.348582 
L 227.14427 269.879296 
L 234.201978 269.518828 
L 241.259685 269.463702 
L 248.317393 268.684975 
L 255.3751 268.054616 
L 262.432808 267.99867 
L 269.490515 267.182031 
L 276.548223 266.408632 
L 283.60593 265.914345 
L 290.663638 265.133364 
L 297.721345 264.361604 
L 304.779053 263.534719 
L 311.83676 262.495118 
L 318.894468 256.433137 
L 325.952175 75.978688 
" clip-path="url(#p77828d9040)" style="fill: none; stroke: #e377c2; stroke-width: 1.5; stroke-linecap: square"/>
    <defs>
     <path id="meaa6bd964f" d="M 0 -3 
L -0.673542 -0.927051 
L -2.85317 -0.927051 
L -1.089814 0.354102 
L -1.763356 2.427051 
L -0 1.145898 
L 1.763356 2.427051 
L 1.089814 0.354102 
L 2.85317 -0.927051 
L 0.673542 -0.927051 
z
" style="stroke: #e377c2; stroke-linejoin: bevel"/>
    </defs>
    <g clip-path="url(#p77828d9040)">
     <use xlink:href="#meaa6bd964f" x="57.75929" y="276.334125" style="fill: #e377c2; stroke: #e377c2; stroke-linejoin: bevel"/>
     <use xlink:href="#meaa6bd964f" x="75.403559" y="275.925293" style="fill: #e377c2; stroke: #e377c2; stroke-linejoin: bevel"/>
     <use xlink:href="#meaa6bd964f" x="93.047827" y="275.428957" style="fill: #e377c2; stroke: #e377c2; stroke-linejoin: bevel"/>
     <use xlink:href="#meaa6bd964f" x="110.692096" y="274.925039" style="fill: #e377c2; stroke: #e377c2; stroke-linejoin: bevel"/>
     <use xlink:href="#meaa6bd964f" x="128.336365" y="274.396119" style="fill: #e377c2; stroke: #e377c2; stroke-linejoin: bevel"/>
     <use xlink:href="#meaa6bd964f" x="135.394072" y="274.274801" style="fill: #e377c2; stroke: #e377c2; stroke-linejoin: bevel"/>
     <use xlink:href="#meaa6bd964f" x="142.45178" y="274.228283" style="fill: #e377c2; stroke: #e377c2; stroke-linejoin: bevel"/>
     <use xlink:href="#meaa6bd964f" x="149.509487" y="273.676001" style="fill: #e377c2; stroke: #e377c2; stroke-linejoin: bevel"/>
     <use xlink:href="#meaa6bd964f" x="156.567195" y="273.36656" style="fill: #e377c2; stroke: #e377c2; stroke-linejoin: bevel"/>
     <use xlink:href="#meaa6bd964f" x="163.624902" y="273.309385" style="fill: #e377c2; stroke: #e377c2; stroke-linejoin: bevel"/>
     <use xlink:href="#meaa6bd964f" x="170.68261" y="272.770014" style="fill: #e377c2; stroke: #e377c2; stroke-linejoin: bevel"/>
     <use xlink:href="#meaa6bd964f" x="177.740317" y="272.726774" style="fill: #e377c2; stroke: #e377c2; stroke-linejoin: bevel"/>
     <use xlink:href="#meaa6bd964f" x="184.798025" y="272.174082" style="fill: #e377c2; stroke: #e377c2; stroke-linejoin: bevel"/>
     <use xlink:href="#meaa6bd964f" x="191.855732" y="271.733897" style="fill: #e377c2; stroke: #e377c2; stroke-linejoin: bevel"/>
     <use xlink:href="#meaa6bd964f" x="198.91344" y="271.684919" style="fill: #e377c2; stroke: #e377c2; stroke-linejoin: bevel"/>
     <use xlink:href="#meaa6bd964f" x="205.971147" y="271.146982" style="fill: #e377c2; stroke: #e377c2; stroke-linejoin: bevel"/>
     <use xlink:href="#meaa6bd964f" x="213.028855" y="271.095955" style="fill: #e377c2; stroke: #e377c2; stroke-linejoin: bevel"/>
     <use xlink:href="#meaa6bd964f" x="220.086562" y="270.348582" style="fill: #e377c2; stroke: #e377c2; stroke-linejoin: bevel"/>
     <use xlink:href="#meaa6bd964f" x="227.14427" y="269.879296" style="fill: #e377c2; stroke: #e377c2; stroke-linejoin: bevel"/>
     <use xlink:href="#meaa6bd964f" x="234.201978" y="269.518828" style="fill: #e377c2; stroke: #e377c2; stroke-linejoin: bevel"/>
     <use xlink:href="#meaa6bd964f" x="241.259685" y="269.463702" style="fill: #e377c2; stroke: #e377c2; stroke-linejoin: bevel"/>
     <use xlink:href="#meaa6bd964f" x="248.317393" y="268.684975" style="fill: #e377c2; stroke: #e377c2; stroke-linejoin: bevel"/>
     <use xlink:href="#meaa6bd964f" x="255.3751" y="268.054616" style="fill: #e377c2; stroke: #e377c2; stroke-linejoin: bevel"/>
     <use xlink:href="#meaa6bd964f" x="262.432808" y="267.99867" style="fill: #e377c2; stroke: #e377c2; stroke-linejoin: bevel"/>
     <use xlink:href="#meaa6bd964f" x="269.490515" y="267.182031" style="fill: #e377c2; stroke: #e377c2; stroke-linejoin: bevel"/>
     <use xlink:href="#meaa6bd964f" x="276.548223" y="266.408632" style="fill: #e377c2; stroke: #e377c2; stroke-linejoin: bevel"/>
     <use xlink:href="#meaa6bd964f" x="283.60593" y="265.914345" style="fill: #e377c2; stroke: #e377c2; stroke-linejoin: bevel"/>
     <use xlink:href="#meaa6bd964f" x="290.663638" y="265.133364" style="fill: #e377c2; stroke: #e377c2; stroke-linejoin: bevel"/>
     <use xlink:href="#meaa6bd964f" x="297.721345" y="264.361604" style="fill: #e377c2; stroke: #e377c2; stroke-linejoin: bevel"/>
     <use xlink:href="#meaa6bd964f" x="304.779053" y="263.534719" style="fill: #e377c2; stroke: #e377c2; stroke-linejoin: bevel"/>
     <use xlink:href="#meaa6bd964f" x="311.83676" y="262.495118" style="fill: #e377c2; stroke: #e377c2; stroke-linejoin: bevel"/>
     <use xlink:href="#meaa6bd964f" x="318.894468" y="256.433137" style="fill: #e377c2; stroke: #e377c2; stroke-linejoin: bevel"/>
     <use xlink:href="#meaa6bd964f" x="325.952175" y="75.978688" style="fill: #e377c2; stroke: #e377c2; stroke-linejoin: bevel"/>
    </g>
   </g>
   <g id="patch_3">
    <path d="M 41.526562 288.430125 
L 41.526562 22.318125 
" style="fill: none; stroke: #000000; stroke-width: 0.8; stroke-linejoin: miter; stroke-linecap: square"/>
   </g>
   <g id="patch_4">
    <path d="M 398.646563 288.430125 
L 398.646563 22.318125 
" style="fill: none; stroke: #000000; stroke-width: 0.8; stroke-linejoin: miter; stroke-linecap: square"/>
   </g>
   <g id="patch_5">
    <path d="M 41.526562 288.430125 
L 398.646562 288.430125 
" style="fill: none; stroke: #000000; stroke-width: 0.8; stroke-linejoin: miter; stroke-linecap: square"/>
   </g>
   <g id="patch_6">
    <path d="M 41.526562 22.318125 
L 398.646562 22.318125 
" style="fill: none; stroke: #000000; stroke-width: 0.8; stroke-linejoin: miter; stroke-linecap: square"/>
   </g>
   <g id="text_15">
    <!-- Distance-Force Relationship -->
    <g transform="translate(136.72125 16.318125) scale(0.12 -0.12)">
     <defs>
      <path id="DejaVuSans-2d" d="M 313 2009 
L 1997 2009 
L 1997 1497 
L 313 1497 
L 313 2009 
z
" transform="scale(0.015625)"/>
      <path id="DejaVuSans-20" transform="scale(0.015625)"/>
      <path id="DejaVuSans-52" d="M 2841 2188 
Q 3044 2119 3236 1894 
Q 3428 1669 3622 1275 
L 4263 0 
L 3584 0 
L 2988 1197 
Q 2756 1666 2539 1819 
Q 2322 1972 1947 1972 
L 1259 1972 
L 1259 0 
L 628 0 
L 628 4666 
L 2053 4666 
Q 2853 4666 3247 4331 
Q 3641 3997 3641 3322 
Q 3641 2881 3436 2590 
Q 3231 2300 2841 2188 
z
M 1259 4147 
L 1259 2491 
L 2053 2491 
Q 2509 2491 2742 2702 
Q 2975 2913 2975 3322 
Q 2975 3731 2742 3939 
Q 2509 4147 2053 4147 
L 1259 4147 
z
" transform="scale(0.015625)"/>
      <path id="DejaVuSans-6c" d="M 603 4863 
L 1178 4863 
L 1178 0 
L 603 0 
L 603 4863 
z
" transform="scale(0.015625)"/>
      <path id="DejaVuSans-68" d="M 3513 2113 
L 3513 0 
L 2938 0 
L 2938 2094 
Q 2938 2591 2744 2837 
Q 2550 3084 2163 3084 
Q 1697 3084 1428 2787 
Q 1159 2491 1159 1978 
L 1159 0 
L 581 0 
L 581 4863 
L 1159 4863 
L 1159 2956 
Q 1366 3272 1645 3428 
Q 1925 3584 2291 3584 
Q 2894 3584 3203 3211 
Q 3513 2838 3513 2113 
z
" transform="scale(0.015625)"/>
      <path id="DejaVuSans-70" d="M 1159 525 
L 1159 -1331 
L 581 -1331 
L 581 3500 
L 1159 3500 
L 1159 2969 
Q 1341 3281 1617 3432 
Q 1894 3584 2278 3584 
Q 2916 3584 3314 3078 
Q 3713 2572 3713 1747 
Q 3713 922 3314 415 
Q 2916 -91 2278 -91 
Q 1894 -91 1617 61 
Q 1341 213 1159 525 
z
M 3116 1747 
Q 3116 2381 2855 2742 
Q 2594 3103 2138 3103 
Q 1681 3103 1420 2742 
Q 1159 2381 1159 1747 
Q 1159 1113 1420 752 
Q 1681 391 2138 391 
Q 2594 391 2855 752 
Q 3116 1113 3116 1747 
z
" transform="scale(0.015625)"/>
     </defs>
     <use xlink:href="#DejaVuSans-44"/>
     <use xlink:href="#DejaVuSans-69" x="77.001953"/>
     <use xlink:href="#DejaVuSans-73" x="104.785156"/>
     <use xlink:href="#DejaVuSans-74" x="156.884766"/>
     <use xlink:href="#DejaVuSans-61" x="196.09375"/>
     <use xlink:href="#DejaVuSans-6e" x="257.373047"/>
     <use xlink:href="#DejaVuSans-63" x="320.751953"/>
     <use xlink:href="#DejaVuSans-65" x="375.732422"/>
     <use xlink:href="#DejaVuSans-2d" x="437.255859"/>
     <use xlink:href="#DejaVuSans-46" x="473.339844"/>
     <use xlink:href="#DejaVuSans-6f" x="527.234375"/>
     <use xlink:href="#DejaVuSans-72" x="588.416016"/>
     <use xlink:href="#DejaVuSans-63" x="627.279297"/>
     <use xlink:href="#DejaVuSans-65" x="682.259766"/>
     <use xlink:href="#DejaVuSans-20" x="743.783203"/>
     <use xlink:href="#DejaVuSans-52" x="775.570312"/>
     <use xlink:href="#DejaVuSans-65" x="840.552734"/>
     <use xlink:href="#DejaVuSans-6c" x="902.076172"/>
     <use xlink:href="#DejaVuSans-61" x="929.859375"/>
     <use xlink:href="#DejaVuSans-74" x="991.138672"/>
     <use xlink:href="#DejaVuSans-69" x="1030.347656"/>
     <use xlink:href="#DejaVuSans-6f" x="1058.130859"/>
     <use xlink:href="#DejaVuSans-6e" x="1119.3125"/>
     <use xlink:href="#DejaVuSans-73" x="1182.691406"/>
     <use xlink:href="#DejaVuSans-68" x="1234.791016"/>
     <use xlink:href="#DejaVuSans-69" x="1298.169922"/>
     <use xlink:href="#DejaVuSans-70" x="1325.953125"/>
    </g>
   </g>
  </g>
 </g>
 <defs>
  <clipPath id="p77828d9040">
   <rect x="41.526562" y="22.318125" width="357.12" height="266.112"/>
  </clipPath>
 </defs>
</svg>
