<?xml version="1.0" encoding="utf-8" standalone="no"?>
<!DOCTYPE svg PUBLIC "-//W3C//DTD SVG 1.1//EN"
  "http://www.w3.org/Graphics/SVG/1.1/DTD/svg11.dtd">
<svg xmlns:xlink="http://www.w3.org/1999/xlink" width="420.829375pt" height="310.86825pt" viewBox="0 0 420.829375 310.86825" xmlns="http://www.w3.org/2000/svg" version="1.1">
 <metadata>
  <rdf:RDF xmlns:dc="http://purl.org/dc/elements/1.1/" xmlns:cc="http://creativecommons.org/ns#" xmlns:rdf="http://www.w3.org/1999/02/22-rdf-syntax-ns#">
   <cc:Work>
    <dc:type rdf:resource="http://purl.org/dc/dcmitype/StillImage"/>
    <dc:date>2025-01-20T16:21:59.682032</dc:date>
    <dc:format>image/svg+xml</dc:format>
    <dc:creator>
     <cc:Agent>
      <dc:title>Matplotlib v3.9.0, https://matplotlib.org/</dc:title>
     </cc:Agent>
    </dc:creator>
   </cc:Work>
  </rdf:RDF>
 </metadata>
 <defs>
  <style type="text/css">*{stroke-linejoin: round; stroke-linecap: butt}</style>
 </defs>
 <g id="figure_1">
  <g id="patch_1">
   <path d="M 0 310.86825 
L 420.829375 310.86825 
L 420.829375 0 
L 0 0 
z
" style="fill: #ffffff"/>
  </g>
  <g id="axes_1">
   <g id="patch_2">
    <path d="M 46.965625 273.312 
L 404.085625 273.312 
L 404.085625 7.2 
L 46.965625 7.2 
z
" style="fill: #ffffff"/>
   </g>
   <g id="matplotlib.axis_1">
    <g id="xtick_1">
     <g id="line2d_1">
      <defs>
       <path id="mfb58f1faf9" d="M 0 0 
L 0 3.5 
" style="stroke: #000000; stroke-width: 0.8"/>
      </defs>
      <g>
       <use xlink:href="#mfb58f1faf9" x="49.91703" y="273.312" style="stroke: #000000; stroke-width: 0.8"/>
      </g>
     </g>
     <g id="text_1">
      <!-- 100 -->
      <g transform="translate(40.37328 287.910438) scale(0.1 -0.1)">
       <defs>
        <path id="DejaVuSans-31" d="M 794 531 
L 1825 531 
L 1825 4091 
L 703 3866 
L 703 4441 
L 1819 4666 
L 2450 4666 
L 2450 531 
L 3481 531 
L 3481 0 
L 794 0 
L 794 531 
z
" transform="scale(0.015625)"/>
        <path id="DejaVuSans-30" d="M 2034 4250 
Q 1547 4250 1301 3770 
Q 1056 3291 1056 2328 
Q 1056 1369 1301 889 
Q 1547 409 2034 409 
Q 2525 409 2770 889 
Q 3016 1369 3016 2328 
Q 3016 3291 2770 3770 
Q 2525 4250 2034 4250 
z
M 2034 4750 
Q 2819 4750 3233 4129 
Q 3647 3509 3647 2328 
Q 3647 1150 3233 529 
Q 2819 -91 2034 -91 
Q 1250 -91 836 529 
Q 422 1150 422 2328 
Q 422 3509 836 4129 
Q 1250 4750 2034 4750 
z
" transform="scale(0.015625)"/>
       </defs>
       <use xlink:href="#DejaVuSans-31"/>
       <use xlink:href="#DejaVuSans-30" x="63.623047"/>
       <use xlink:href="#DejaVuSans-30" x="127.246094"/>
      </g>
     </g>
    </g>
    <g id="xtick_2">
     <g id="line2d_2">
      <g>
       <use xlink:href="#mfb58f1faf9" x="108.945129" y="273.312" style="stroke: #000000; stroke-width: 0.8"/>
      </g>
     </g>
     <g id="text_2">
      <!-- 120 -->
      <g transform="translate(99.401379 287.910438) scale(0.1 -0.1)">
       <defs>
        <path id="DejaVuSans-32" d="M 1228 531 
L 3431 531 
L 3431 0 
L 469 0 
L 469 531 
Q 828 903 1448 1529 
Q 2069 2156 2228 2338 
Q 2531 2678 2651 2914 
Q 2772 3150 2772 3378 
Q 2772 3750 2511 3984 
Q 2250 4219 1831 4219 
Q 1534 4219 1204 4116 
Q 875 4013 500 3803 
L 500 4441 
Q 881 4594 1212 4672 
Q 1544 4750 1819 4750 
Q 2544 4750 2975 4387 
Q 3406 4025 3406 3419 
Q 3406 3131 3298 2873 
Q 3191 2616 2906 2266 
Q 2828 2175 2409 1742 
Q 1991 1309 1228 531 
z
" transform="scale(0.015625)"/>
       </defs>
       <use xlink:href="#DejaVuSans-31"/>
       <use xlink:href="#DejaVuSans-32" x="63.623047"/>
       <use xlink:href="#DejaVuSans-30" x="127.246094"/>
      </g>
     </g>
    </g>
    <g id="xtick_3">
     <g id="line2d_3">
      <g>
       <use xlink:href="#mfb58f1faf9" x="167.973228" y="273.312" style="stroke: #000000; stroke-width: 0.8"/>
      </g>
     </g>
     <g id="text_3">
      <!-- 140 -->
      <g transform="translate(158.429478 287.910438) scale(0.1 -0.1)">
       <defs>
        <path id="DejaVuSans-34" d="M 2419 4116 
L 825 1625 
L 2419 1625 
L 2419 4116 
z
M 2253 4666 
L 3047 4666 
L 3047 1625 
L 3713 1625 
L 3713 1100 
L 3047 1100 
L 3047 0 
L 2419 0 
L 2419 1100 
L 313 1100 
L 313 1709 
L 2253 4666 
z
" transform="scale(0.015625)"/>
       </defs>
       <use xlink:href="#DejaVuSans-31"/>
       <use xlink:href="#DejaVuSans-34" x="63.623047"/>
       <use xlink:href="#DejaVuSans-30" x="127.246094"/>
      </g>
     </g>
    </g>
    <g id="xtick_4">
     <g id="line2d_4">
      <g>
       <use xlink:href="#mfb58f1faf9" x="227.001327" y="273.312" style="stroke: #000000; stroke-width: 0.8"/>
      </g>
     </g>
     <g id="text_4">
      <!-- 160 -->
      <g transform="translate(217.457577 287.910438) scale(0.1 -0.1)">
       <defs>
        <path id="DejaVuSans-36" d="M 2113 2584 
Q 1688 2584 1439 2293 
Q 1191 2003 1191 1497 
Q 1191 994 1439 701 
Q 1688 409 2113 409 
Q 2538 409 2786 701 
Q 3034 994 3034 1497 
Q 3034 2003 2786 2293 
Q 2538 2584 2113 2584 
z
M 3366 4563 
L 3366 3988 
Q 3128 4100 2886 4159 
Q 2644 4219 2406 4219 
Q 1781 4219 1451 3797 
Q 1122 3375 1075 2522 
Q 1259 2794 1537 2939 
Q 1816 3084 2150 3084 
Q 2853 3084 3261 2657 
Q 3669 2231 3669 1497 
Q 3669 778 3244 343 
Q 2819 -91 2113 -91 
Q 1303 -91 875 529 
Q 447 1150 447 2328 
Q 447 3434 972 4092 
Q 1497 4750 2381 4750 
Q 2619 4750 2861 4703 
Q 3103 4656 3366 4563 
z
" transform="scale(0.015625)"/>
       </defs>
       <use xlink:href="#DejaVuSans-31"/>
       <use xlink:href="#DejaVuSans-36" x="63.623047"/>
       <use xlink:href="#DejaVuSans-30" x="127.246094"/>
      </g>
     </g>
    </g>
    <g id="xtick_5">
     <g id="line2d_5">
      <g>
       <use xlink:href="#mfb58f1faf9" x="286.029427" y="273.312" style="stroke: #000000; stroke-width: 0.8"/>
      </g>
     </g>
     <g id="text_5">
      <!-- 180 -->
      <g transform="translate(276.485677 287.910438) scale(0.1 -0.1)">
       <defs>
        <path id="DejaVuSans-38" d="M 2034 2216 
Q 1584 2216 1326 1975 
Q 1069 1734 1069 1313 
Q 1069 891 1326 650 
Q 1584 409 2034 409 
Q 2484 409 2743 651 
Q 3003 894 3003 1313 
Q 3003 1734 2745 1975 
Q 2488 2216 2034 2216 
z
M 1403 2484 
Q 997 2584 770 2862 
Q 544 3141 544 3541 
Q 544 4100 942 4425 
Q 1341 4750 2034 4750 
Q 2731 4750 3128 4425 
Q 3525 4100 3525 3541 
Q 3525 3141 3298 2862 
Q 3072 2584 2669 2484 
Q 3125 2378 3379 2068 
Q 3634 1759 3634 1313 
Q 3634 634 3220 271 
Q 2806 -91 2034 -91 
Q 1263 -91 848 271 
Q 434 634 434 1313 
Q 434 1759 690 2068 
Q 947 2378 1403 2484 
z
M 1172 3481 
Q 1172 3119 1398 2916 
Q 1625 2713 2034 2713 
Q 2441 2713 2670 2916 
Q 2900 3119 2900 3481 
Q 2900 3844 2670 4047 
Q 2441 4250 2034 4250 
Q 1625 4250 1398 4047 
Q 1172 3844 1172 3481 
z
" transform="scale(0.015625)"/>
       </defs>
       <use xlink:href="#DejaVuSans-31"/>
       <use xlink:href="#DejaVuSans-38" x="63.623047"/>
       <use xlink:href="#DejaVuSans-30" x="127.246094"/>
      </g>
     </g>
    </g>
    <g id="xtick_6">
     <g id="line2d_6">
      <g>
       <use xlink:href="#mfb58f1faf9" x="345.057526" y="273.312" style="stroke: #000000; stroke-width: 0.8"/>
      </g>
     </g>
     <g id="text_6">
      <!-- 200 -->
      <g transform="translate(335.513776 287.910438) scale(0.1 -0.1)">
       <use xlink:href="#DejaVuSans-32"/>
       <use xlink:href="#DejaVuSans-30" x="63.623047"/>
       <use xlink:href="#DejaVuSans-30" x="127.246094"/>
      </g>
     </g>
    </g>
    <g id="xtick_7">
     <g id="line2d_7">
      <g>
       <use xlink:href="#mfb58f1faf9" x="404.085625" y="273.312" style="stroke: #000000; stroke-width: 0.8"/>
      </g>
     </g>
     <g id="text_7">
      <!-- 220 -->
      <g transform="translate(394.541875 287.910438) scale(0.1 -0.1)">
       <use xlink:href="#DejaVuSans-32"/>
       <use xlink:href="#DejaVuSans-32" x="63.623047"/>
       <use xlink:href="#DejaVuSans-30" x="127.246094"/>
      </g>
     </g>
    </g>
    <g id="text_8">
     <!-- Strain(%) -->
     <g transform="translate(202.061563 301.588562) scale(0.1 -0.1)">
      <defs>
       <path id="DejaVuSans-53" d="M 3425 4513 
L 3425 3897 
Q 3066 4069 2747 4153 
Q 2428 4238 2131 4238 
Q 1616 4238 1336 4038 
Q 1056 3838 1056 3469 
Q 1056 3159 1242 3001 
Q 1428 2844 1947 2747 
L 2328 2669 
Q 3034 2534 3370 2195 
Q 3706 1856 3706 1288 
Q 3706 609 3251 259 
Q 2797 -91 1919 -91 
Q 1588 -91 1214 -16 
Q 841 59 441 206 
L 441 856 
Q 825 641 1194 531 
Q 1563 422 1919 422 
Q 2459 422 2753 634 
Q 3047 847 3047 1241 
Q 3047 1584 2836 1778 
Q 2625 1972 2144 2069 
L 1759 2144 
Q 1053 2284 737 2584 
Q 422 2884 422 3419 
Q 422 4038 858 4394 
Q 1294 4750 2059 4750 
Q 2388 4750 2728 4690 
Q 3069 4631 3425 4513 
z
" transform="scale(0.015625)"/>
       <path id="DejaVuSans-74" d="M 1172 4494 
L 1172 3500 
L 2356 3500 
L 2356 3053 
L 1172 3053 
L 1172 1153 
Q 1172 725 1289 603 
Q 1406 481 1766 481 
L 2356 481 
L 2356 0 
L 1766 0 
Q 1100 0 847 248 
Q 594 497 594 1153 
L 594 3053 
L 172 3053 
L 172 3500 
L 594 3500 
L 594 4494 
L 1172 4494 
z
" transform="scale(0.015625)"/>
       <path id="DejaVuSans-72" d="M 2631 2963 
Q 2534 3019 2420 3045 
Q 2306 3072 2169 3072 
Q 1681 3072 1420 2755 
Q 1159 2438 1159 1844 
L 1159 0 
L 581 0 
L 581 3500 
L 1159 3500 
L 1159 2956 
Q 1341 3275 1631 3429 
Q 1922 3584 2338 3584 
Q 2397 3584 2469 3576 
Q 2541 3569 2628 3553 
L 2631 2963 
z
" transform="scale(0.015625)"/>
       <path id="DejaVuSans-61" d="M 2194 1759 
Q 1497 1759 1228 1600 
Q 959 1441 959 1056 
Q 959 750 1161 570 
Q 1363 391 1709 391 
Q 2188 391 2477 730 
Q 2766 1069 2766 1631 
L 2766 1759 
L 2194 1759 
z
M 3341 1997 
L 3341 0 
L 2766 0 
L 2766 531 
Q 2569 213 2275 61 
Q 1981 -91 1556 -91 
Q 1019 -91 701 211 
Q 384 513 384 1019 
Q 384 1609 779 1909 
Q 1175 2209 1959 2209 
L 2766 2209 
L 2766 2266 
Q 2766 2663 2505 2880 
Q 2244 3097 1772 3097 
Q 1472 3097 1187 3025 
Q 903 2953 641 2809 
L 641 3341 
Q 956 3463 1253 3523 
Q 1550 3584 1831 3584 
Q 2591 3584 2966 3190 
Q 3341 2797 3341 1997 
z
" transform="scale(0.015625)"/>
       <path id="DejaVuSans-69" d="M 603 3500 
L 1178 3500 
L 1178 0 
L 603 0 
L 603 3500 
z
M 603 4863 
L 1178 4863 
L 1178 4134 
L 603 4134 
L 603 4863 
z
" transform="scale(0.015625)"/>
       <path id="DejaVuSans-6e" d="M 3513 2113 
L 3513 0 
L 2938 0 
L 2938 2094 
Q 2938 2591 2744 2837 
Q 2550 3084 2163 3084 
Q 1697 3084 1428 2787 
Q 1159 2491 1159 1978 
L 1159 0 
L 581 0 
L 581 3500 
L 1159 3500 
L 1159 2956 
Q 1366 3272 1645 3428 
Q 1925 3584 2291 3584 
Q 2894 3584 3203 3211 
Q 3513 2838 3513 2113 
z
" transform="scale(0.015625)"/>
       <path id="DejaVuSans-28" d="M 1984 4856 
Q 1566 4138 1362 3434 
Q 1159 2731 1159 2009 
Q 1159 1288 1364 580 
Q 1569 -128 1984 -844 
L 1484 -844 
Q 1016 -109 783 600 
Q 550 1309 550 2009 
Q 550 2706 781 3412 
Q 1013 4119 1484 4856 
L 1984 4856 
z
" transform="scale(0.015625)"/>
       <path id="DejaVuSans-25" d="M 4653 2053 
Q 4381 2053 4226 1822 
Q 4072 1591 4072 1178 
Q 4072 772 4226 539 
Q 4381 306 4653 306 
Q 4919 306 5073 539 
Q 5228 772 5228 1178 
Q 5228 1588 5073 1820 
Q 4919 2053 4653 2053 
z
M 4653 2450 
Q 5147 2450 5437 2106 
Q 5728 1763 5728 1178 
Q 5728 594 5436 251 
Q 5144 -91 4653 -91 
Q 4153 -91 3862 251 
Q 3572 594 3572 1178 
Q 3572 1766 3864 2108 
Q 4156 2450 4653 2450 
z
M 1428 4353 
Q 1159 4353 1004 4120 
Q 850 3888 850 3481 
Q 850 3069 1003 2837 
Q 1156 2606 1428 2606 
Q 1700 2606 1854 2837 
Q 2009 3069 2009 3481 
Q 2009 3884 1853 4118 
Q 1697 4353 1428 4353 
z
M 4250 4750 
L 4750 4750 
L 1831 -91 
L 1331 -91 
L 4250 4750 
z
M 1428 4750 
Q 1922 4750 2215 4408 
Q 2509 4066 2509 3481 
Q 2509 2891 2217 2550 
Q 1925 2209 1428 2209 
Q 931 2209 642 2551 
Q 353 2894 353 3481 
Q 353 4063 643 4406 
Q 934 4750 1428 4750 
z
" transform="scale(0.015625)"/>
       <path id="DejaVuSans-29" d="M 513 4856 
L 1013 4856 
Q 1481 4119 1714 3412 
Q 1947 2706 1947 2009 
Q 1947 1309 1714 600 
Q 1481 -109 1013 -844 
L 513 -844 
Q 928 -128 1133 580 
Q 1338 1288 1338 2009 
Q 1338 2731 1133 3434 
Q 928 4138 513 4856 
z
" transform="scale(0.015625)"/>
      </defs>
      <use xlink:href="#DejaVuSans-53"/>
      <use xlink:href="#DejaVuSans-74" x="63.476562"/>
      <use xlink:href="#DejaVuSans-72" x="102.685547"/>
      <use xlink:href="#DejaVuSans-61" x="143.798828"/>
      <use xlink:href="#DejaVuSans-69" x="205.078125"/>
      <use xlink:href="#DejaVuSans-6e" x="232.861328"/>
      <use xlink:href="#DejaVuSans-28" x="296.240234"/>
      <use xlink:href="#DejaVuSans-25" x="335.253906"/>
      <use xlink:href="#DejaVuSans-29" x="430.273438"/>
     </g>
    </g>
   </g>
   <g id="matplotlib.axis_2">
    <g id="ytick_1">
     <g id="line2d_8">
      <defs>
       <path id="mb529cab55d" d="M 0 0 
L -3.5 0 
" style="stroke: #000000; stroke-width: 0.8"/>
      </defs>
      <g>
       <use xlink:href="#mb529cab55d" x="46.965625" y="227.459721" style="stroke: #000000; stroke-width: 0.8"/>
      </g>
     </g>
     <g id="text_9">
      <!-- 80 -->
      <g transform="translate(27.240625 231.25894) scale(0.1 -0.1)">
       <use xlink:href="#DejaVuSans-38"/>
       <use xlink:href="#DejaVuSans-30" x="63.623047"/>
      </g>
     </g>
    </g>
    <g id="ytick_2">
     <g id="line2d_9">
      <g>
       <use xlink:href="#mb529cab55d" x="46.965625" y="171.199256" style="stroke: #000000; stroke-width: 0.8"/>
      </g>
     </g>
     <g id="text_10">
      <!-- 90 -->
      <g transform="translate(27.240625 174.998475) scale(0.1 -0.1)">
       <defs>
        <path id="DejaVuSans-39" d="M 703 97 
L 703 672 
Q 941 559 1184 500 
Q 1428 441 1663 441 
Q 2288 441 2617 861 
Q 2947 1281 2994 2138 
Q 2813 1869 2534 1725 
Q 2256 1581 1919 1581 
Q 1219 1581 811 2004 
Q 403 2428 403 3163 
Q 403 3881 828 4315 
Q 1253 4750 1959 4750 
Q 2769 4750 3195 4129 
Q 3622 3509 3622 2328 
Q 3622 1225 3098 567 
Q 2575 -91 1691 -91 
Q 1453 -91 1209 -44 
Q 966 3 703 97 
z
M 1959 2075 
Q 2384 2075 2632 2365 
Q 2881 2656 2881 3163 
Q 2881 3666 2632 3958 
Q 2384 4250 1959 4250 
Q 1534 4250 1286 3958 
Q 1038 3666 1038 3163 
Q 1038 2656 1286 2365 
Q 1534 2075 1959 2075 
z
" transform="scale(0.015625)"/>
       </defs>
       <use xlink:href="#DejaVuSans-39"/>
       <use xlink:href="#DejaVuSans-30" x="63.623047"/>
      </g>
     </g>
    </g>
    <g id="ytick_3">
     <g id="line2d_10">
      <g>
       <use xlink:href="#mb529cab55d" x="46.965625" y="114.938791" style="stroke: #000000; stroke-width: 0.8"/>
      </g>
     </g>
     <g id="text_11">
      <!-- 100 -->
      <g transform="translate(20.878125 118.738009) scale(0.1 -0.1)">
       <use xlink:href="#DejaVuSans-31"/>
       <use xlink:href="#DejaVuSans-30" x="63.623047"/>
       <use xlink:href="#DejaVuSans-30" x="127.246094"/>
      </g>
     </g>
    </g>
    <g id="ytick_4">
     <g id="line2d_11">
      <g>
       <use xlink:href="#mb529cab55d" x="46.965625" y="58.678326" style="stroke: #000000; stroke-width: 0.8"/>
      </g>
     </g>
     <g id="text_12">
      <!-- 110 -->
      <g transform="translate(20.878125 62.477544) scale(0.1 -0.1)">
       <use xlink:href="#DejaVuSans-31"/>
       <use xlink:href="#DejaVuSans-31" x="63.623047"/>
       <use xlink:href="#DejaVuSans-30" x="127.246094"/>
      </g>
     </g>
    </g>
    <g id="text_13">
     <!-- Hydrogen Bonds -->
     <g transform="translate(14.798438 181.598187) rotate(-90) scale(0.1 -0.1)">
      <defs>
       <path id="DejaVuSans-48" d="M 628 4666 
L 1259 4666 
L 1259 2753 
L 3553 2753 
L 3553 4666 
L 4184 4666 
L 4184 0 
L 3553 0 
L 3553 2222 
L 1259 2222 
L 1259 0 
L 628 0 
L 628 4666 
z
" transform="scale(0.015625)"/>
       <path id="DejaVuSans-79" d="M 2059 -325 
Q 1816 -950 1584 -1140 
Q 1353 -1331 966 -1331 
L 506 -1331 
L 506 -850 
L 844 -850 
Q 1081 -850 1212 -737 
Q 1344 -625 1503 -206 
L 1606 56 
L 191 3500 
L 800 3500 
L 1894 763 
L 2988 3500 
L 3597 3500 
L 2059 -325 
z
" transform="scale(0.015625)"/>
       <path id="DejaVuSans-64" d="M 2906 2969 
L 2906 4863 
L 3481 4863 
L 3481 0 
L 2906 0 
L 2906 525 
Q 2725 213 2448 61 
Q 2172 -91 1784 -91 
Q 1150 -91 751 415 
Q 353 922 353 1747 
Q 353 2572 751 3078 
Q 1150 3584 1784 3584 
Q 2172 3584 2448 3432 
Q 2725 3281 2906 2969 
z
M 947 1747 
Q 947 1113 1208 752 
Q 1469 391 1925 391 
Q 2381 391 2643 752 
Q 2906 1113 2906 1747 
Q 2906 2381 2643 2742 
Q 2381 3103 1925 3103 
Q 1469 3103 1208 2742 
Q 947 2381 947 1747 
z
" transform="scale(0.015625)"/>
       <path id="DejaVuSans-6f" d="M 1959 3097 
Q 1497 3097 1228 2736 
Q 959 2375 959 1747 
Q 959 1119 1226 758 
Q 1494 397 1959 397 
Q 2419 397 2687 759 
Q 2956 1122 2956 1747 
Q 2956 2369 2687 2733 
Q 2419 3097 1959 3097 
z
M 1959 3584 
Q 2709 3584 3137 3096 
Q 3566 2609 3566 1747 
Q 3566 888 3137 398 
Q 2709 -91 1959 -91 
Q 1206 -91 779 398 
Q 353 888 353 1747 
Q 353 2609 779 3096 
Q 1206 3584 1959 3584 
z
" transform="scale(0.015625)"/>
       <path id="DejaVuSans-67" d="M 2906 1791 
Q 2906 2416 2648 2759 
Q 2391 3103 1925 3103 
Q 1463 3103 1205 2759 
Q 947 2416 947 1791 
Q 947 1169 1205 825 
Q 1463 481 1925 481 
Q 2391 481 2648 825 
Q 2906 1169 2906 1791 
z
M 3481 434 
Q 3481 -459 3084 -895 
Q 2688 -1331 1869 -1331 
Q 1566 -1331 1297 -1286 
Q 1028 -1241 775 -1147 
L 775 -588 
Q 1028 -725 1275 -790 
Q 1522 -856 1778 -856 
Q 2344 -856 2625 -561 
Q 2906 -266 2906 331 
L 2906 616 
Q 2728 306 2450 153 
Q 2172 0 1784 0 
Q 1141 0 747 490 
Q 353 981 353 1791 
Q 353 2603 747 3093 
Q 1141 3584 1784 3584 
Q 2172 3584 2450 3431 
Q 2728 3278 2906 2969 
L 2906 3500 
L 3481 3500 
L 3481 434 
z
" transform="scale(0.015625)"/>
       <path id="DejaVuSans-65" d="M 3597 1894 
L 3597 1613 
L 953 1613 
Q 991 1019 1311 708 
Q 1631 397 2203 397 
Q 2534 397 2845 478 
Q 3156 559 3463 722 
L 3463 178 
Q 3153 47 2828 -22 
Q 2503 -91 2169 -91 
Q 1331 -91 842 396 
Q 353 884 353 1716 
Q 353 2575 817 3079 
Q 1281 3584 2069 3584 
Q 2775 3584 3186 3129 
Q 3597 2675 3597 1894 
z
M 3022 2063 
Q 3016 2534 2758 2815 
Q 2500 3097 2075 3097 
Q 1594 3097 1305 2825 
Q 1016 2553 972 2059 
L 3022 2063 
z
" transform="scale(0.015625)"/>
       <path id="DejaVuSans-20" transform="scale(0.015625)"/>
       <path id="DejaVuSans-42" d="M 1259 2228 
L 1259 519 
L 2272 519 
Q 2781 519 3026 730 
Q 3272 941 3272 1375 
Q 3272 1813 3026 2020 
Q 2781 2228 2272 2228 
L 1259 2228 
z
M 1259 4147 
L 1259 2741 
L 2194 2741 
Q 2656 2741 2882 2914 
Q 3109 3088 3109 3444 
Q 3109 3797 2882 3972 
Q 2656 4147 2194 4147 
L 1259 4147 
z
M 628 4666 
L 2241 4666 
Q 2963 4666 3353 4366 
Q 3744 4066 3744 3513 
Q 3744 3084 3544 2831 
Q 3344 2578 2956 2516 
Q 3422 2416 3680 2098 
Q 3938 1781 3938 1306 
Q 3938 681 3513 340 
Q 3088 0 2303 0 
L 628 0 
L 628 4666 
z
" transform="scale(0.015625)"/>
       <path id="DejaVuSans-73" d="M 2834 3397 
L 2834 2853 
Q 2591 2978 2328 3040 
Q 2066 3103 1784 3103 
Q 1356 3103 1142 2972 
Q 928 2841 928 2578 
Q 928 2378 1081 2264 
Q 1234 2150 1697 2047 
L 1894 2003 
Q 2506 1872 2764 1633 
Q 3022 1394 3022 966 
Q 3022 478 2636 193 
Q 2250 -91 1575 -91 
Q 1294 -91 989 -36 
Q 684 19 347 128 
L 347 722 
Q 666 556 975 473 
Q 1284 391 1588 391 
Q 1994 391 2212 530 
Q 2431 669 2431 922 
Q 2431 1156 2273 1281 
Q 2116 1406 1581 1522 
L 1381 1569 
Q 847 1681 609 1914 
Q 372 2147 372 2553 
Q 372 3047 722 3315 
Q 1072 3584 1716 3584 
Q 2034 3584 2315 3537 
Q 2597 3491 2834 3397 
z
" transform="scale(0.015625)"/>
      </defs>
      <use xlink:href="#DejaVuSans-48"/>
      <use xlink:href="#DejaVuSans-79" x="75.195312"/>
      <use xlink:href="#DejaVuSans-64" x="134.375"/>
      <use xlink:href="#DejaVuSans-72" x="197.851562"/>
      <use xlink:href="#DejaVuSans-6f" x="236.714844"/>
      <use xlink:href="#DejaVuSans-67" x="297.896484"/>
      <use xlink:href="#DejaVuSans-65" x="361.373047"/>
      <use xlink:href="#DejaVuSans-6e" x="422.896484"/>
      <use xlink:href="#DejaVuSans-20" x="486.275391"/>
      <use xlink:href="#DejaVuSans-42" x="518.0625"/>
      <use xlink:href="#DejaVuSans-6f" x="586.666016"/>
      <use xlink:href="#DejaVuSans-6e" x="647.847656"/>
      <use xlink:href="#DejaVuSans-64" x="711.226562"/>
      <use xlink:href="#DejaVuSans-73" x="774.703125"/>
     </g>
    </g>
   </g>
   <g id="line2d_12">
    <path d="M 49.91703 120.564837 
L 51.760234 92.434605 
L 53.603438 126.190884 
L 55.446642 126.190884 
L 57.289846 131.81693 
L 59.133049 92.434605 
L 60.976253 109.312744 
L 62.819457 69.930419 
L 64.662661 120.564837 
L 66.505865 126.190884 
L 68.349069 92.434605 
L 70.192273 109.312744 
L 72.035477 92.434605 
L 73.878681 109.312744 
L 75.721885 69.930419 
L 77.565088 131.81693 
L 79.408292 92.434605 
L 81.251496 148.69507 
L 84.937904 126.190884 
L 86.781108 137.442977 
L 88.624312 92.434605 
L 90.467516 143.069023 
L 92.31072 131.81693 
L 94.153923 159.947163 
L 95.997127 143.069023 
L 97.840331 120.564837 
L 99.683535 126.190884 
L 101.526739 114.938791 
L 103.369943 137.442977 
L 105.213147 131.81693 
L 107.056351 98.060651 
L 108.899555 98.060651 
L 110.742759 92.434605 
L 112.585962 103.686698 
L 114.429166 98.060651 
L 116.27237 148.69507 
L 118.115574 143.069023 
L 119.958778 159.947163 
L 121.801982 165.573209 
L 123.645186 109.312744 
L 125.48839 120.564837 
L 127.331594 143.069023 
L 129.174798 98.060651 
L 131.018001 86.808558 
L 132.861205 114.938791 
L 134.704409 86.808558 
L 136.547613 69.930419 
L 138.390817 92.434605 
L 140.234021 120.564837 
L 142.077225 131.81693 
L 143.920429 92.434605 
L 145.763633 143.069023 
L 147.606915 114.938791 
L 149.450119 75.556465 
L 151.293322 58.678326 
L 153.136526 86.808558 
L 154.97973 58.678326 
L 156.822934 64.304372 
L 158.666138 64.304372 
L 160.509342 81.182512 
L 162.352546 75.556465 
L 164.19575 98.060651 
L 166.038954 92.434605 
L 167.882157 126.190884 
L 169.725361 98.060651 
L 171.568565 120.564837 
L 173.411769 58.678326 
L 175.254973 103.686698 
L 177.098177 120.564837 
L 178.941381 19.296 
L 180.784585 126.190884 
L 184.470993 92.434605 
L 186.314196 69.930419 
L 188.1574 98.060651 
L 190.000604 103.686698 
L 191.843808 75.556465 
L 195.530216 86.808558 
L 197.37342 41.800186 
L 199.216624 98.060651 
L 202.903032 154.321116 
L 204.746235 86.808558 
L 206.589439 114.938791 
L 208.432643 159.947163 
L 210.275847 120.564837 
L 212.119051 148.69507 
L 213.962255 109.312744 
L 215.805459 126.190884 
L 217.648663 131.81693 
L 219.491867 131.81693 
L 221.335071 159.947163 
L 223.178274 103.686698 
L 225.021478 148.69507 
L 226.864682 137.442977 
L 228.707886 103.686698 
L 230.55109 154.321116 
L 232.394294 159.947163 
L 234.237498 126.190884 
L 236.080702 126.190884 
L 237.923906 159.947163 
L 239.767109 137.442977 
L 241.610313 126.190884 
L 243.453517 165.573209 
L 245.296721 137.442977 
L 247.139925 171.199256 
L 248.983207 176.825302 
L 250.826411 143.069023 
L 252.669615 148.69507 
L 254.512819 182.451349 
L 256.356023 159.947163 
L 258.199227 171.199256 
L 261.885634 171.199256 
L 263.728838 210.581581 
L 265.572042 171.199256 
L 267.415246 171.199256 
L 269.25845 193.703442 
L 271.101654 159.947163 
L 272.944858 199.329488 
L 274.788062 114.938791 
L 276.631266 176.825302 
L 278.474469 199.329488 
L 280.317673 154.321116 
L 282.160877 165.573209 
L 284.004081 148.69507 
L 285.847285 182.451349 
L 287.690489 227.459721 
L 289.533693 227.459721 
L 291.376897 171.199256 
L 293.220101 176.825302 
L 295.063305 176.825302 
L 296.906508 137.442977 
L 298.749712 216.207628 
L 300.592916 148.69507 
L 302.43612 109.312744 
L 304.279324 109.312744 
L 306.122528 154.321116 
L 307.965732 114.938791 
L 309.808936 109.312744 
L 311.65214 114.938791 
L 313.495343 81.182512 
L 315.338547 143.069023 
L 317.181751 126.190884 
L 319.024955 143.069023 
L 320.868159 120.564837 
L 322.711363 81.182512 
L 324.554567 120.564837 
L 326.397771 114.938791 
L 330.084179 114.938791 
L 331.927382 120.564837 
L 333.770586 131.81693 
L 335.61379 86.808558 
L 337.456994 109.312744 
L 339.300198 120.564837 
L 341.143402 120.564837 
L 342.986606 81.182512 
L 344.82981 126.190884 
L 346.673014 131.81693 
L 348.516218 154.321116 
L 350.3595 165.573209 
L 352.202703 143.069023 
L 354.045907 176.825302 
L 355.889111 114.938791 
L 357.732315 143.069023 
L 361.418723 154.321116 
L 363.261927 148.69507 
L 365.105131 137.442977 
L 366.948335 131.81693 
L 368.791539 143.069023 
L 370.634742 137.442977 
L 372.477946 176.825302 
L 374.32115 131.81693 
L 376.164354 159.947163 
L 378.007558 143.069023 
L 379.850762 171.199256 
L 381.693966 131.81693 
L 383.53717 154.321116 
L 385.380374 148.69507 
L 387.223577 171.199256 
L 389.066781 159.947163 
L 390.909985 165.573209 
L 392.753189 154.321116 
L 394.596393 176.825302 
L 396.439597 171.199256 
L 398.282801 188.077395 
L 400.126005 176.825302 
L 401.969209 193.703442 
L 403.812413 165.573209 
L 405.655616 109.312744 
L 409.342024 154.321116 
L 411.185228 148.69507 
L 413.028432 199.329488 
L 414.871636 159.947163 
L 416.71484 204.955535 
L 418.558044 193.703442 
L 418.558044 193.703442 
" clip-path="url(#p2ca826393d)" style="fill: none; stroke: #1f77b4; stroke-width: 1.5; stroke-linecap: square"/>
   </g>
   <g id="line2d_13">
    <path d="M 49.91703 120.564837 
L 51.401456 109.312744 
L 52.885812 75.556465 
L 54.370168 137.442977 
L 55.854524 120.564837 
L 57.338949 86.808558 
L 58.823305 165.573209 
L 60.307661 120.564837 
L 61.792017 103.686698 
L 63.276443 137.442977 
L 64.760799 92.434605 
L 66.245155 126.190884 
L 69.213937 92.434605 
L 70.698293 126.190884 
L 72.182649 143.069023 
L 73.667005 143.069023 
L 75.15143 86.808558 
L 76.635786 165.573209 
L 78.120142 154.321116 
L 79.604498 131.81693 
L 81.088854 159.947163 
L 82.57328 176.825302 
L 84.057636 137.442977 
L 85.541992 131.81693 
L 87.026348 193.703442 
L 88.510773 159.947163 
L 89.995129 75.556465 
L 91.479485 92.434605 
L 92.963841 131.81693 
L 94.448267 109.312744 
L 95.932623 120.564837 
L 97.416979 92.434605 
L 98.901335 98.060651 
L 100.385761 109.312744 
L 101.870117 159.947163 
L 103.354473 126.190884 
L 104.838829 165.573209 
L 106.323254 137.442977 
L 107.80761 137.442977 
L 109.291966 143.069023 
L 110.776322 137.442977 
L 112.260748 143.069023 
L 113.745104 159.947163 
L 115.22946 193.703442 
L 116.713816 165.573209 
L 118.198242 171.199256 
L 119.682598 148.69507 
L 121.166954 143.069023 
L 122.65131 182.451349 
L 124.135735 120.564837 
L 125.620091 204.955535 
L 127.104447 137.442977 
L 128.588803 148.69507 
L 130.073229 182.451349 
L 131.557585 171.199256 
L 133.041941 165.573209 
L 134.526297 165.573209 
L 136.010723 171.199256 
L 137.495079 188.077395 
L 138.979435 199.329488 
L 140.463791 137.442977 
L 141.948216 176.825302 
L 143.432572 148.69507 
L 144.916928 109.312744 
L 149.370066 193.703442 
L 150.854422 148.69507 
L 152.338778 148.69507 
L 153.823204 188.077395 
L 155.30756 154.321116 
L 156.791916 143.069023 
L 158.276272 176.825302 
L 159.760697 182.451349 
L 161.245053 143.069023 
L 162.729409 165.573209 
L 164.213765 165.573209 
L 165.698191 148.69507 
L 167.182547 143.069023 
L 168.666903 159.947163 
L 170.151259 154.321116 
L 171.635685 126.190884 
L 173.120041 137.442977 
L 174.604397 171.199256 
L 176.088752 143.069023 
L 177.573178 126.190884 
L 179.057534 148.69507 
L 180.54189 216.207628 
L 182.026246 137.442977 
L 183.510672 188.077395 
L 184.995028 148.69507 
L 186.479384 171.199256 
L 187.96374 137.442977 
L 189.448165 137.442977 
L 190.932521 182.451349 
L 192.416877 165.573209 
L 193.901233 137.442977 
L 195.385659 143.069023 
L 196.870015 86.808558 
L 198.354371 159.947163 
L 199.838727 159.947163 
L 201.323153 114.938791 
L 202.807509 176.825302 
L 204.291865 154.321116 
L 205.776221 159.947163 
L 207.260646 171.199256 
L 208.745002 137.442977 
L 210.229358 137.442977 
L 211.713714 120.564837 
L 213.19814 193.703442 
L 214.682496 171.199256 
L 216.166852 171.199256 
L 217.651208 176.825302 
L 219.135634 159.947163 
L 220.61999 148.69507 
L 222.104346 154.321116 
L 223.588702 137.442977 
L 225.073127 148.69507 
L 226.557483 148.69507 
L 228.041839 176.825302 
L 229.526195 165.573209 
L 231.010621 159.947163 
L 232.494977 176.825302 
L 233.979333 188.077395 
L 235.463689 143.069023 
L 236.948115 148.69507 
L 238.432471 165.573209 
L 239.916827 165.573209 
L 241.401183 148.69507 
L 242.885608 154.321116 
L 244.369964 176.825302 
L 245.85432 131.81693 
L 247.338676 176.825302 
L 248.823102 126.190884 
L 250.307458 131.81693 
L 251.791814 148.69507 
L 253.27617 120.564837 
L 254.760596 98.060651 
L 256.244952 143.069023 
L 257.729308 131.81693 
L 259.213664 126.190884 
L 260.698089 143.069023 
L 262.182445 98.060651 
L 263.666801 103.686698 
L 265.151157 103.686698 
L 266.635583 114.938791 
L 268.119939 131.81693 
L 269.604295 92.434605 
L 272.573076 103.686698 
L 274.057432 137.442977 
L 275.541788 126.190884 
L 277.026144 131.81693 
L 278.51057 120.564837 
L 279.994926 126.190884 
L 281.479282 182.451349 
L 282.963638 154.321116 
L 284.448064 148.69507 
L 285.93242 98.060651 
L 287.416776 182.451349 
L 290.385557 148.69507 
L 291.869913 165.573209 
L 293.354269 204.955535 
L 294.838625 159.947163 
L 296.323051 159.947163 
L 297.807407 176.825302 
L 300.776119 154.321116 
L 302.260545 126.190884 
L 303.744901 165.573209 
L 305.229257 159.947163 
L 306.713613 210.581581 
L 308.198038 176.825302 
L 309.682394 126.190884 
L 311.16675 171.199256 
L 312.651106 165.573209 
L 314.135532 143.069023 
L 315.619888 188.077395 
L 317.104244 137.442977 
L 318.5886 199.329488 
L 320.073026 233.085767 
L 321.557382 165.573209 
L 323.041738 210.581581 
L 324.526094 193.703442 
L 326.010519 193.703442 
L 327.494875 204.955535 
L 328.979231 204.955535 
L 330.463587 188.077395 
L 331.948013 182.451349 
L 333.432369 221.833674 
L 334.916725 165.573209 
L 336.401081 188.077395 
L 337.885507 227.459721 
L 339.369863 199.329488 
L 340.854219 193.703442 
L 342.338575 216.207628 
L 343.823 176.825302 
L 345.307356 204.955535 
L 346.791712 199.329488 
L 346.791712 199.329488 
" clip-path="url(#p2ca826393d)" style="fill: none; stroke: #ff7f0e; stroke-width: 1.5; stroke-linecap: square"/>
   </g>
   <g id="line2d_14">
    <path d="M 49.91703 120.564837 
L 51.367951 137.442977 
L 52.818873 81.182512 
L 54.269794 81.182512 
L 55.720716 98.060651 
L 57.171637 120.564837 
L 58.622628 86.808558 
L 60.073549 114.938791 
L 61.524471 109.312744 
L 62.975392 109.312744 
L 64.426314 98.060651 
L 65.877235 109.312744 
L 67.328156 64.304372 
L 68.779147 143.069023 
L 70.230068 103.686698 
L 71.68099 120.564837 
L 73.131911 98.060651 
L 74.582833 86.808558 
L 77.484676 86.808558 
L 78.935666 98.060651 
L 80.386587 114.938791 
L 81.837509 75.556465 
L 83.28843 81.182512 
L 84.739352 92.434605 
L 86.190273 98.060651 
L 87.641195 86.808558 
L 89.092185 114.938791 
L 90.543107 131.81693 
L 93.44495 75.556465 
L 94.895871 114.938791 
L 96.346792 131.81693 
L 97.797714 109.312744 
L 99.248704 114.938791 
L 100.699626 92.434605 
L 102.150547 109.312744 
L 103.601469 69.930419 
L 105.05239 98.060651 
L 106.503312 69.930419 
L 107.954233 30.548093 
L 109.405155 75.556465 
L 110.856145 58.678326 
L 112.307066 98.060651 
L 113.757988 109.312744 
L 115.208909 126.190884 
L 116.659831 86.808558 
L 118.110752 114.938791 
L 119.561674 98.060651 
L 121.012664 58.678326 
L 122.463586 109.312744 
L 123.914507 75.556465 
L 125.365428 109.312744 
L 126.81635 86.808558 
L 128.267271 154.321116 
L 129.718193 159.947163 
L 131.169183 103.686698 
L 132.620105 120.564837 
L 134.071026 165.573209 
L 135.521948 64.304372 
L 136.972869 98.060651 
L 138.423791 109.312744 
L 139.874712 114.938791 
L 141.325702 114.938791 
L 142.776624 81.182512 
L 144.227545 103.686698 
L 145.678467 64.304372 
L 147.129388 114.938791 
L 148.58031 120.564837 
L 150.031231 103.686698 
L 151.482222 103.686698 
L 152.933143 92.434605 
L 154.384064 92.434605 
L 155.834986 103.686698 
L 157.285907 98.060651 
L 158.736829 47.426233 
L 160.18775 81.182512 
L 161.638741 58.678326 
L 163.089662 131.81693 
L 164.540584 86.808558 
L 165.991505 36.17414 
L 167.442427 98.060651 
L 168.893348 126.190884 
L 170.344269 69.930419 
L 171.79526 114.938791 
L 173.246181 98.060651 
L 174.697103 92.434605 
L 176.148024 154.321116 
L 177.598946 92.434605 
L 179.049867 36.17414 
L 180.500789 103.686698 
L 181.951779 148.69507 
L 183.4027 75.556465 
L 184.853622 137.442977 
L 186.304543 154.321116 
L 187.755465 109.312744 
L 189.206386 143.069023 
L 190.657308 120.564837 
L 192.108298 86.808558 
L 193.55922 69.930419 
L 195.010141 103.686698 
L 196.461063 103.686698 
L 197.911984 92.434605 
L 199.362905 86.808558 
L 200.813827 86.808558 
L 202.264817 143.069023 
L 203.715739 98.060651 
L 205.16666 109.312744 
L 206.617582 98.060651 
L 208.068503 109.312744 
L 209.519425 98.060651 
L 210.970346 98.060651 
L 212.421336 131.81693 
L 213.872258 98.060651 
L 215.323179 53.052279 
L 216.774101 58.678326 
L 218.225022 137.442977 
L 219.675944 86.808558 
L 221.126865 120.564837 
L 222.577856 103.686698 
L 224.028777 103.686698 
L 225.479699 114.938791 
L 226.93062 58.678326 
L 228.381541 114.938791 
L 229.832463 120.564837 
L 231.283384 143.069023 
L 232.734375 109.312744 
L 234.185296 114.938791 
L 235.636218 81.182512 
L 237.087139 92.434605 
L 238.538061 126.190884 
L 239.988982 126.190884 
L 241.439904 98.060651 
L 242.890894 75.556465 
L 244.341815 81.182512 
L 245.792737 103.686698 
L 247.243658 137.442977 
L 248.69458 131.81693 
L 250.145501 81.182512 
L 251.596423 98.060651 
L 253.047413 69.930419 
L 254.498335 143.069023 
L 255.949256 137.442977 
L 257.400177 126.190884 
L 258.851099 126.190884 
L 260.30202 199.329488 
L 261.752942 120.564837 
L 263.203932 148.69507 
L 264.654854 126.190884 
L 266.105775 148.69507 
L 267.556697 98.060651 
L 269.007618 92.434605 
L 270.45854 143.069023 
L 271.909461 98.060651 
L 273.360451 159.947163 
L 274.811373 126.190884 
L 276.262294 165.573209 
L 277.713216 137.442977 
L 279.164137 148.69507 
L 280.615059 143.069023 
L 282.06598 148.69507 
L 283.516971 221.833674 
L 284.967892 143.069023 
L 286.418813 131.81693 
L 287.869735 188.077395 
L 289.320656 126.190884 
L 290.771578 171.199256 
L 292.222499 143.069023 
L 293.67349 148.69507 
L 295.124411 171.199256 
L 296.575333 199.329488 
L 298.026254 165.573209 
L 299.477176 126.190884 
L 300.928097 154.321116 
L 302.379019 199.329488 
L 303.830009 143.069023 
L 305.28093 154.321116 
L 306.731852 193.703442 
L 308.182773 143.069023 
L 309.633695 165.573209 
L 311.084616 143.069023 
L 312.535538 171.199256 
L 313.986459 188.077395 
L 316.888371 176.825302 
L 318.339292 188.077395 
L 319.790214 137.442977 
L 321.241135 165.573209 
L 322.692057 204.955535 
L 324.142978 182.451349 
L 325.593969 210.581581 
L 327.04489 182.451349 
L 328.495812 182.451349 
L 329.946733 261.216 
L 331.397655 199.329488 
L 332.848576 193.703442 
L 334.299497 182.451349 
L 335.750488 159.947163 
L 337.201409 204.955535 
L 338.652331 193.703442 
L 340.103252 216.207628 
L 340.103252 216.207628 
" clip-path="url(#p2ca826393d)" style="fill: none; stroke: #2ca02c; stroke-width: 1.5; stroke-linecap: square"/>
   </g>
   <g id="patch_3">
    <path d="M 46.965625 273.312 
L 46.965625 7.2 
" style="fill: none; stroke: #000000; stroke-width: 0.8; stroke-linejoin: miter; stroke-linecap: square"/>
   </g>
   <g id="patch_4">
    <path d="M 404.085625 273.312 
L 404.085625 7.2 
" style="fill: none; stroke: #000000; stroke-width: 0.8; stroke-linejoin: miter; stroke-linecap: square"/>
   </g>
   <g id="patch_5">
    <path d="M 46.965625 273.312 
L 404.085625 273.312 
" style="fill: none; stroke: #000000; stroke-width: 0.8; stroke-linejoin: miter; stroke-linecap: square"/>
   </g>
   <g id="patch_6">
    <path d="M 46.965625 7.2 
L 404.085625 7.2 
" style="fill: none; stroke: #000000; stroke-width: 0.8; stroke-linejoin: miter; stroke-linecap: square"/>
   </g>
   <g id="legend_1">
    <g id="patch_7">
     <path d="M 320.309063 59.234375 
L 397.085625 59.234375 
Q 399.085625 59.234375 399.085625 57.234375 
L 399.085625 14.2 
Q 399.085625 12.2 397.085625 12.2 
L 320.309063 12.2 
Q 318.309063 12.2 318.309063 14.2 
L 318.309063 57.234375 
Q 318.309063 59.234375 320.309063 59.234375 
z
" style="fill: #ffffff; opacity: 0.8; stroke: #cccccc; stroke-linejoin: miter"/>
    </g>
    <g id="line2d_15">
     <path d="M 322.309063 20.298438 
L 332.309063 20.298438 
L 342.309063 20.298438 
" style="fill: none; stroke: #1f77b4; stroke-width: 1.5; stroke-linecap: square"/>
    </g>
    <g id="text_14">
     <!-- X-Length -->
     <g transform="translate(350.309063 23.798438) scale(0.1 -0.1)">
      <defs>
       <path id="DejaVuSans-58" d="M 403 4666 
L 1081 4666 
L 2241 2931 
L 3406 4666 
L 4084 4666 
L 2584 2425 
L 4184 0 
L 3506 0 
L 2194 1984 
L 872 0 
L 191 0 
L 1856 2491 
L 403 4666 
z
" transform="scale(0.015625)"/>
       <path id="DejaVuSans-2d" d="M 313 2009 
L 1997 2009 
L 1997 1497 
L 313 1497 
L 313 2009 
z
" transform="scale(0.015625)"/>
       <path id="DejaVuSans-4c" d="M 628 4666 
L 1259 4666 
L 1259 531 
L 3531 531 
L 3531 0 
L 628 0 
L 628 4666 
z
" transform="scale(0.015625)"/>
       <path id="DejaVuSans-68" d="M 3513 2113 
L 3513 0 
L 2938 0 
L 2938 2094 
Q 2938 2591 2744 2837 
Q 2550 3084 2163 3084 
Q 1697 3084 1428 2787 
Q 1159 2491 1159 1978 
L 1159 0 
L 581 0 
L 581 4863 
L 1159 4863 
L 1159 2956 
Q 1366 3272 1645 3428 
Q 1925 3584 2291 3584 
Q 2894 3584 3203 3211 
Q 3513 2838 3513 2113 
z
" transform="scale(0.015625)"/>
      </defs>
      <use xlink:href="#DejaVuSans-58"/>
      <use xlink:href="#DejaVuSans-2d" x="63.505859"/>
      <use xlink:href="#DejaVuSans-4c" x="99.589844"/>
      <use xlink:href="#DejaVuSans-65" x="153.552734"/>
      <use xlink:href="#DejaVuSans-6e" x="215.076172"/>
      <use xlink:href="#DejaVuSans-67" x="278.455078"/>
      <use xlink:href="#DejaVuSans-74" x="341.931641"/>
      <use xlink:href="#DejaVuSans-68" x="381.140625"/>
     </g>
    </g>
    <g id="line2d_16">
     <path d="M 322.309063 34.976563 
L 332.309063 34.976563 
L 342.309063 34.976563 
" style="fill: none; stroke: #ff7f0e; stroke-width: 1.5; stroke-linecap: square"/>
    </g>
    <g id="text_15">
     <!-- Y-Length -->
     <g transform="translate(350.309063 38.476563) scale(0.1 -0.1)">
      <defs>
       <path id="DejaVuSans-59" d="M -13 4666 
L 666 4666 
L 1959 2747 
L 3244 4666 
L 3922 4666 
L 2272 2222 
L 2272 0 
L 1638 0 
L 1638 2222 
L -13 4666 
z
" transform="scale(0.015625)"/>
      </defs>
      <use xlink:href="#DejaVuSans-59"/>
      <use xlink:href="#DejaVuSans-2d" x="49.208984"/>
      <use xlink:href="#DejaVuSans-4c" x="85.292969"/>
      <use xlink:href="#DejaVuSans-65" x="139.255859"/>
      <use xlink:href="#DejaVuSans-6e" x="200.779297"/>
      <use xlink:href="#DejaVuSans-67" x="264.158203"/>
      <use xlink:href="#DejaVuSans-74" x="327.634766"/>
      <use xlink:href="#DejaVuSans-68" x="366.84375"/>
     </g>
    </g>
    <g id="line2d_17">
     <path d="M 322.309063 49.654688 
L 332.309063 49.654688 
L 342.309063 49.654688 
" style="fill: none; stroke: #2ca02c; stroke-width: 1.5; stroke-linecap: square"/>
    </g>
    <g id="text_16">
     <!-- Z-Length -->
     <g transform="translate(350.309063 53.154688) scale(0.1 -0.1)">
      <defs>
       <path id="DejaVuSans-5a" d="M 359 4666 
L 4025 4666 
L 4025 4184 
L 1075 531 
L 4097 531 
L 4097 0 
L 288 0 
L 288 481 
L 3238 4134 
L 359 4134 
L 359 4666 
z
" transform="scale(0.015625)"/>
      </defs>
      <use xlink:href="#DejaVuSans-5a"/>
      <use xlink:href="#DejaVuSans-2d" x="66.755859"/>
      <use xlink:href="#DejaVuSans-4c" x="102.839844"/>
      <use xlink:href="#DejaVuSans-65" x="156.802734"/>
      <use xlink:href="#DejaVuSans-6e" x="218.326172"/>
      <use xlink:href="#DejaVuSans-67" x="281.705078"/>
      <use xlink:href="#DejaVuSans-74" x="345.181641"/>
      <use xlink:href="#DejaVuSans-68" x="384.390625"/>
     </g>
    </g>
   </g>
  </g>
 </g>
 <defs>
  <clipPath id="p2ca826393d">
   <rect x="46.965625" y="7.2" width="357.12" height="266.112"/>
  </clipPath>
 </defs>
</svg>
