<?xml version="1.0" encoding="utf-8" standalone="no"?>
<!DOCTYPE svg PUBLIC "-//W3C//DTD SVG 1.1//EN"
  "http://www.w3.org/Graphics/SVG/1.1/DTD/svg11.dtd">
<svg xmlns:xlink="http://www.w3.org/1999/xlink" width="417.648125pt" height="325.986375pt" viewBox="0 0 417.648125 325.986375" xmlns="http://www.w3.org/2000/svg" version="1.1">
 <metadata>
  <rdf:RDF xmlns:dc="http://purl.org/dc/elements/1.1/" xmlns:cc="http://creativecommons.org/ns#" xmlns:rdf="http://www.w3.org/1999/02/22-rdf-syntax-ns#">
   <cc:Work>
    <dc:type rdf:resource="http://purl.org/dc/dcmitype/StillImage"/>
    <dc:date>2025-01-20T15:54:16.333873</dc:date>
    <dc:format>image/svg+xml</dc:format>
    <dc:creator>
     <cc:Agent>
      <dc:title>Matplotlib v3.9.0, https://matplotlib.org/</dc:title>
     </cc:Agent>
    </dc:creator>
   </cc:Work>
  </rdf:RDF>
 </metadata>
 <defs>
  <style type="text/css">*{stroke-linejoin: round; stroke-linecap: butt}</style>
 </defs>
 <g id="figure_1">
  <g id="patch_1">
   <path d="M 0 325.986375 
L 417.648125 325.986375 
L 417.648125 0 
L 0 0 
z
" style="fill: #ffffff"/>
  </g>
  <g id="axes_1">
   <g id="patch_2">
    <path d="M 53.328125 288.430125 
L 410.448125 288.430125 
L 410.448125 22.318125 
L 53.328125 22.318125 
z
" style="fill: #ffffff"/>
   </g>
   <g id="matplotlib.axis_1">
    <g id="xtick_1">
     <g id="line2d_1">
      <defs>
       <path id="m00e0a607aa" d="M 0 0 
L 0 3.5 
" style="stroke: #000000; stroke-width: 0.8"/>
      </defs>
      <g>
       <use xlink:href="#m00e0a607aa" x="56.545422" y="288.430125" style="stroke: #000000; stroke-width: 0.8"/>
      </g>
     </g>
     <g id="text_1">
      <!-- 100 -->
      <g transform="translate(47.001672 303.028562) scale(0.1 -0.1)">
       <defs>
        <path id="DejaVuSans-31" d="M 794 531 
L 1825 531 
L 1825 4091 
L 703 3866 
L 703 4441 
L 1819 4666 
L 2450 4666 
L 2450 531 
L 3481 531 
L 3481 0 
L 794 0 
L 794 531 
z
" transform="scale(0.015625)"/>
        <path id="DejaVuSans-30" d="M 2034 4250 
Q 1547 4250 1301 3770 
Q 1056 3291 1056 2328 
Q 1056 1369 1301 889 
Q 1547 409 2034 409 
Q 2525 409 2770 889 
Q 3016 1369 3016 2328 
Q 3016 3291 2770 3770 
Q 2525 4250 2034 4250 
z
M 2034 4750 
Q 2819 4750 3233 4129 
Q 3647 3509 3647 2328 
Q 3647 1150 3233 529 
Q 2819 -91 2034 -91 
Q 1250 -91 836 529 
Q 422 1150 422 2328 
Q 422 3509 836 4129 
Q 1250 4750 2034 4750 
z
" transform="scale(0.015625)"/>
       </defs>
       <use xlink:href="#DejaVuSans-31"/>
       <use xlink:href="#DejaVuSans-30" x="63.623047"/>
       <use xlink:href="#DejaVuSans-30" x="127.246094"/>
      </g>
     </g>
    </g>
    <g id="xtick_2">
     <g id="line2d_2">
      <g>
       <use xlink:href="#m00e0a607aa" x="120.891368" y="288.430125" style="stroke: #000000; stroke-width: 0.8"/>
      </g>
     </g>
     <g id="text_2">
      <!-- 120 -->
      <g transform="translate(111.347618 303.028562) scale(0.1 -0.1)">
       <defs>
        <path id="DejaVuSans-32" d="M 1228 531 
L 3431 531 
L 3431 0 
L 469 0 
L 469 531 
Q 828 903 1448 1529 
Q 2069 2156 2228 2338 
Q 2531 2678 2651 2914 
Q 2772 3150 2772 3378 
Q 2772 3750 2511 3984 
Q 2250 4219 1831 4219 
Q 1534 4219 1204 4116 
Q 875 4013 500 3803 
L 500 4441 
Q 881 4594 1212 4672 
Q 1544 4750 1819 4750 
Q 2544 4750 2975 4387 
Q 3406 4025 3406 3419 
Q 3406 3131 3298 2873 
Q 3191 2616 2906 2266 
Q 2828 2175 2409 1742 
Q 1991 1309 1228 531 
z
" transform="scale(0.015625)"/>
       </defs>
       <use xlink:href="#DejaVuSans-31"/>
       <use xlink:href="#DejaVuSans-32" x="63.623047"/>
       <use xlink:href="#DejaVuSans-30" x="127.246094"/>
      </g>
     </g>
    </g>
    <g id="xtick_3">
     <g id="line2d_3">
      <g>
       <use xlink:href="#m00e0a607aa" x="185.237314" y="288.430125" style="stroke: #000000; stroke-width: 0.8"/>
      </g>
     </g>
     <g id="text_3">
      <!-- 140 -->
      <g transform="translate(175.693564 303.028562) scale(0.1 -0.1)">
       <defs>
        <path id="DejaVuSans-34" d="M 2419 4116 
L 825 1625 
L 2419 1625 
L 2419 4116 
z
M 2253 4666 
L 3047 4666 
L 3047 1625 
L 3713 1625 
L 3713 1100 
L 3047 1100 
L 3047 0 
L 2419 0 
L 2419 1100 
L 313 1100 
L 313 1709 
L 2253 4666 
z
" transform="scale(0.015625)"/>
       </defs>
       <use xlink:href="#DejaVuSans-31"/>
       <use xlink:href="#DejaVuSans-34" x="63.623047"/>
       <use xlink:href="#DejaVuSans-30" x="127.246094"/>
      </g>
     </g>
    </g>
    <g id="xtick_4">
     <g id="line2d_4">
      <g>
       <use xlink:href="#m00e0a607aa" x="249.58326" y="288.430125" style="stroke: #000000; stroke-width: 0.8"/>
      </g>
     </g>
     <g id="text_4">
      <!-- 160 -->
      <g transform="translate(240.03951 303.028562) scale(0.1 -0.1)">
       <defs>
        <path id="DejaVuSans-36" d="M 2113 2584 
Q 1688 2584 1439 2293 
Q 1191 2003 1191 1497 
Q 1191 994 1439 701 
Q 1688 409 2113 409 
Q 2538 409 2786 701 
Q 3034 994 3034 1497 
Q 3034 2003 2786 2293 
Q 2538 2584 2113 2584 
z
M 3366 4563 
L 3366 3988 
Q 3128 4100 2886 4159 
Q 2644 4219 2406 4219 
Q 1781 4219 1451 3797 
Q 1122 3375 1075 2522 
Q 1259 2794 1537 2939 
Q 1816 3084 2150 3084 
Q 2853 3084 3261 2657 
Q 3669 2231 3669 1497 
Q 3669 778 3244 343 
Q 2819 -91 2113 -91 
Q 1303 -91 875 529 
Q 447 1150 447 2328 
Q 447 3434 972 4092 
Q 1497 4750 2381 4750 
Q 2619 4750 2861 4703 
Q 3103 4656 3366 4563 
z
" transform="scale(0.015625)"/>
       </defs>
       <use xlink:href="#DejaVuSans-31"/>
       <use xlink:href="#DejaVuSans-36" x="63.623047"/>
       <use xlink:href="#DejaVuSans-30" x="127.246094"/>
      </g>
     </g>
    </g>
    <g id="xtick_5">
     <g id="line2d_5">
      <g>
       <use xlink:href="#m00e0a607aa" x="313.929206" y="288.430125" style="stroke: #000000; stroke-width: 0.8"/>
      </g>
     </g>
     <g id="text_5">
      <!-- 180 -->
      <g transform="translate(304.385456 303.028562) scale(0.1 -0.1)">
       <defs>
        <path id="DejaVuSans-38" d="M 2034 2216 
Q 1584 2216 1326 1975 
Q 1069 1734 1069 1313 
Q 1069 891 1326 650 
Q 1584 409 2034 409 
Q 2484 409 2743 651 
Q 3003 894 3003 1313 
Q 3003 1734 2745 1975 
Q 2488 2216 2034 2216 
z
M 1403 2484 
Q 997 2584 770 2862 
Q 544 3141 544 3541 
Q 544 4100 942 4425 
Q 1341 4750 2034 4750 
Q 2731 4750 3128 4425 
Q 3525 4100 3525 3541 
Q 3525 3141 3298 2862 
Q 3072 2584 2669 2484 
Q 3125 2378 3379 2068 
Q 3634 1759 3634 1313 
Q 3634 634 3220 271 
Q 2806 -91 2034 -91 
Q 1263 -91 848 271 
Q 434 634 434 1313 
Q 434 1759 690 2068 
Q 947 2378 1403 2484 
z
M 1172 3481 
Q 1172 3119 1398 2916 
Q 1625 2713 2034 2713 
Q 2441 2713 2670 2916 
Q 2900 3119 2900 3481 
Q 2900 3844 2670 4047 
Q 2441 4250 2034 4250 
Q 1625 4250 1398 4047 
Q 1172 3844 1172 3481 
z
" transform="scale(0.015625)"/>
       </defs>
       <use xlink:href="#DejaVuSans-31"/>
       <use xlink:href="#DejaVuSans-38" x="63.623047"/>
       <use xlink:href="#DejaVuSans-30" x="127.246094"/>
      </g>
     </g>
    </g>
    <g id="xtick_6">
     <g id="line2d_6">
      <g>
       <use xlink:href="#m00e0a607aa" x="378.275152" y="288.430125" style="stroke: #000000; stroke-width: 0.8"/>
      </g>
     </g>
     <g id="text_6">
      <!-- 200 -->
      <g transform="translate(368.731402 303.028562) scale(0.1 -0.1)">
       <use xlink:href="#DejaVuSans-32"/>
       <use xlink:href="#DejaVuSans-30" x="63.623047"/>
       <use xlink:href="#DejaVuSans-30" x="127.246094"/>
      </g>
     </g>
    </g>
    <g id="text_7">
     <!-- Strain(%) -->
     <g transform="translate(208.424063 316.706687) scale(0.1 -0.1)">
      <defs>
       <path id="DejaVuSans-53" d="M 3425 4513 
L 3425 3897 
Q 3066 4069 2747 4153 
Q 2428 4238 2131 4238 
Q 1616 4238 1336 4038 
Q 1056 3838 1056 3469 
Q 1056 3159 1242 3001 
Q 1428 2844 1947 2747 
L 2328 2669 
Q 3034 2534 3370 2195 
Q 3706 1856 3706 1288 
Q 3706 609 3251 259 
Q 2797 -91 1919 -91 
Q 1588 -91 1214 -16 
Q 841 59 441 206 
L 441 856 
Q 825 641 1194 531 
Q 1563 422 1919 422 
Q 2459 422 2753 634 
Q 3047 847 3047 1241 
Q 3047 1584 2836 1778 
Q 2625 1972 2144 2069 
L 1759 2144 
Q 1053 2284 737 2584 
Q 422 2884 422 3419 
Q 422 4038 858 4394 
Q 1294 4750 2059 4750 
Q 2388 4750 2728 4690 
Q 3069 4631 3425 4513 
z
" transform="scale(0.015625)"/>
       <path id="DejaVuSans-74" d="M 1172 4494 
L 1172 3500 
L 2356 3500 
L 2356 3053 
L 1172 3053 
L 1172 1153 
Q 1172 725 1289 603 
Q 1406 481 1766 481 
L 2356 481 
L 2356 0 
L 1766 0 
Q 1100 0 847 248 
Q 594 497 594 1153 
L 594 3053 
L 172 3053 
L 172 3500 
L 594 3500 
L 594 4494 
L 1172 4494 
z
" transform="scale(0.015625)"/>
       <path id="DejaVuSans-72" d="M 2631 2963 
Q 2534 3019 2420 3045 
Q 2306 3072 2169 3072 
Q 1681 3072 1420 2755 
Q 1159 2438 1159 1844 
L 1159 0 
L 581 0 
L 581 3500 
L 1159 3500 
L 1159 2956 
Q 1341 3275 1631 3429 
Q 1922 3584 2338 3584 
Q 2397 3584 2469 3576 
Q 2541 3569 2628 3553 
L 2631 2963 
z
" transform="scale(0.015625)"/>
       <path id="DejaVuSans-61" d="M 2194 1759 
Q 1497 1759 1228 1600 
Q 959 1441 959 1056 
Q 959 750 1161 570 
Q 1363 391 1709 391 
Q 2188 391 2477 730 
Q 2766 1069 2766 1631 
L 2766 1759 
L 2194 1759 
z
M 3341 1997 
L 3341 0 
L 2766 0 
L 2766 531 
Q 2569 213 2275 61 
Q 1981 -91 1556 -91 
Q 1019 -91 701 211 
Q 384 513 384 1019 
Q 384 1609 779 1909 
Q 1175 2209 1959 2209 
L 2766 2209 
L 2766 2266 
Q 2766 2663 2505 2880 
Q 2244 3097 1772 3097 
Q 1472 3097 1187 3025 
Q 903 2953 641 2809 
L 641 3341 
Q 956 3463 1253 3523 
Q 1550 3584 1831 3584 
Q 2591 3584 2966 3190 
Q 3341 2797 3341 1997 
z
" transform="scale(0.015625)"/>
       <path id="DejaVuSans-69" d="M 603 3500 
L 1178 3500 
L 1178 0 
L 603 0 
L 603 3500 
z
M 603 4863 
L 1178 4863 
L 1178 4134 
L 603 4134 
L 603 4863 
z
" transform="scale(0.015625)"/>
       <path id="DejaVuSans-6e" d="M 3513 2113 
L 3513 0 
L 2938 0 
L 2938 2094 
Q 2938 2591 2744 2837 
Q 2550 3084 2163 3084 
Q 1697 3084 1428 2787 
Q 1159 2491 1159 1978 
L 1159 0 
L 581 0 
L 581 3500 
L 1159 3500 
L 1159 2956 
Q 1366 3272 1645 3428 
Q 1925 3584 2291 3584 
Q 2894 3584 3203 3211 
Q 3513 2838 3513 2113 
z
" transform="scale(0.015625)"/>
       <path id="DejaVuSans-28" d="M 1984 4856 
Q 1566 4138 1362 3434 
Q 1159 2731 1159 2009 
Q 1159 1288 1364 580 
Q 1569 -128 1984 -844 
L 1484 -844 
Q 1016 -109 783 600 
Q 550 1309 550 2009 
Q 550 2706 781 3412 
Q 1013 4119 1484 4856 
L 1984 4856 
z
" transform="scale(0.015625)"/>
       <path id="DejaVuSans-25" d="M 4653 2053 
Q 4381 2053 4226 1822 
Q 4072 1591 4072 1178 
Q 4072 772 4226 539 
Q 4381 306 4653 306 
Q 4919 306 5073 539 
Q 5228 772 5228 1178 
Q 5228 1588 5073 1820 
Q 4919 2053 4653 2053 
z
M 4653 2450 
Q 5147 2450 5437 2106 
Q 5728 1763 5728 1178 
Q 5728 594 5436 251 
Q 5144 -91 4653 -91 
Q 4153 -91 3862 251 
Q 3572 594 3572 1178 
Q 3572 1766 3864 2108 
Q 4156 2450 4653 2450 
z
M 1428 4353 
Q 1159 4353 1004 4120 
Q 850 3888 850 3481 
Q 850 3069 1003 2837 
Q 1156 2606 1428 2606 
Q 1700 2606 1854 2837 
Q 2009 3069 2009 3481 
Q 2009 3884 1853 4118 
Q 1697 4353 1428 4353 
z
M 4250 4750 
L 4750 4750 
L 1831 -91 
L 1331 -91 
L 4250 4750 
z
M 1428 4750 
Q 1922 4750 2215 4408 
Q 2509 4066 2509 3481 
Q 2509 2891 2217 2550 
Q 1925 2209 1428 2209 
Q 931 2209 642 2551 
Q 353 2894 353 3481 
Q 353 4063 643 4406 
Q 934 4750 1428 4750 
z
" transform="scale(0.015625)"/>
       <path id="DejaVuSans-29" d="M 513 4856 
L 1013 4856 
Q 1481 4119 1714 3412 
Q 1947 2706 1947 2009 
Q 1947 1309 1714 600 
Q 1481 -109 1013 -844 
L 513 -844 
Q 928 -128 1133 580 
Q 1338 1288 1338 2009 
Q 1338 2731 1133 3434 
Q 928 4138 513 4856 
z
" transform="scale(0.015625)"/>
      </defs>
      <use xlink:href="#DejaVuSans-53"/>
      <use xlink:href="#DejaVuSans-74" x="63.476562"/>
      <use xlink:href="#DejaVuSans-72" x="102.685547"/>
      <use xlink:href="#DejaVuSans-61" x="143.798828"/>
      <use xlink:href="#DejaVuSans-69" x="205.078125"/>
      <use xlink:href="#DejaVuSans-6e" x="232.861328"/>
      <use xlink:href="#DejaVuSans-28" x="296.240234"/>
      <use xlink:href="#DejaVuSans-25" x="335.253906"/>
      <use xlink:href="#DejaVuSans-29" x="430.273438"/>
     </g>
    </g>
   </g>
   <g id="matplotlib.axis_2">
    <g id="ytick_1">
     <g id="line2d_7">
      <defs>
       <path id="m74d0ee5463" d="M 0 0 
L -3.5 0 
" style="stroke: #000000; stroke-width: 0.8"/>
      </defs>
      <g>
       <use xlink:href="#m74d0ee5463" x="53.328125" y="288.430125" style="stroke: #000000; stroke-width: 0.8"/>
      </g>
     </g>
     <g id="text_8">
      <!-- 0 -->
      <g transform="translate(39.965625 292.229344) scale(0.1 -0.1)">
       <use xlink:href="#DejaVuSans-30"/>
      </g>
     </g>
    </g>
    <g id="ytick_2">
     <g id="line2d_8">
      <g>
       <use xlink:href="#m74d0ee5463" x="53.328125" y="252.948525" style="stroke: #000000; stroke-width: 0.8"/>
      </g>
     </g>
     <g id="text_9">
      <!-- 200 -->
      <g transform="translate(27.240625 256.747744) scale(0.1 -0.1)">
       <use xlink:href="#DejaVuSans-32"/>
       <use xlink:href="#DejaVuSans-30" x="63.623047"/>
       <use xlink:href="#DejaVuSans-30" x="127.246094"/>
      </g>
     </g>
    </g>
    <g id="ytick_3">
     <g id="line2d_9">
      <g>
       <use xlink:href="#m74d0ee5463" x="53.328125" y="217.466925" style="stroke: #000000; stroke-width: 0.8"/>
      </g>
     </g>
     <g id="text_10">
      <!-- 400 -->
      <g transform="translate(27.240625 221.266144) scale(0.1 -0.1)">
       <use xlink:href="#DejaVuSans-34"/>
       <use xlink:href="#DejaVuSans-30" x="63.623047"/>
       <use xlink:href="#DejaVuSans-30" x="127.246094"/>
      </g>
     </g>
    </g>
    <g id="ytick_4">
     <g id="line2d_10">
      <g>
       <use xlink:href="#m74d0ee5463" x="53.328125" y="181.985325" style="stroke: #000000; stroke-width: 0.8"/>
      </g>
     </g>
     <g id="text_11">
      <!-- 600 -->
      <g transform="translate(27.240625 185.784544) scale(0.1 -0.1)">
       <use xlink:href="#DejaVuSans-36"/>
       <use xlink:href="#DejaVuSans-30" x="63.623047"/>
       <use xlink:href="#DejaVuSans-30" x="127.246094"/>
      </g>
     </g>
    </g>
    <g id="ytick_5">
     <g id="line2d_11">
      <g>
       <use xlink:href="#m74d0ee5463" x="53.328125" y="146.503725" style="stroke: #000000; stroke-width: 0.8"/>
      </g>
     </g>
     <g id="text_12">
      <!-- 800 -->
      <g transform="translate(27.240625 150.302944) scale(0.1 -0.1)">
       <use xlink:href="#DejaVuSans-38"/>
       <use xlink:href="#DejaVuSans-30" x="63.623047"/>
       <use xlink:href="#DejaVuSans-30" x="127.246094"/>
      </g>
     </g>
    </g>
    <g id="ytick_6">
     <g id="line2d_12">
      <g>
       <use xlink:href="#m74d0ee5463" x="53.328125" y="111.022125" style="stroke: #000000; stroke-width: 0.8"/>
      </g>
     </g>
     <g id="text_13">
      <!-- 1000 -->
      <g transform="translate(20.878125 114.821344) scale(0.1 -0.1)">
       <use xlink:href="#DejaVuSans-31"/>
       <use xlink:href="#DejaVuSans-30" x="63.623047"/>
       <use xlink:href="#DejaVuSans-30" x="127.246094"/>
       <use xlink:href="#DejaVuSans-30" x="190.869141"/>
      </g>
     </g>
    </g>
    <g id="ytick_7">
     <g id="line2d_13">
      <g>
       <use xlink:href="#m74d0ee5463" x="53.328125" y="75.540525" style="stroke: #000000; stroke-width: 0.8"/>
      </g>
     </g>
     <g id="text_14">
      <!-- 1200 -->
      <g transform="translate(20.878125 79.339744) scale(0.1 -0.1)">
       <use xlink:href="#DejaVuSans-31"/>
       <use xlink:href="#DejaVuSans-32" x="63.623047"/>
       <use xlink:href="#DejaVuSans-30" x="127.246094"/>
       <use xlink:href="#DejaVuSans-30" x="190.869141"/>
      </g>
     </g>
    </g>
    <g id="ytick_8">
     <g id="line2d_14">
      <g>
       <use xlink:href="#m74d0ee5463" x="53.328125" y="40.058925" style="stroke: #000000; stroke-width: 0.8"/>
      </g>
     </g>
     <g id="text_15">
      <!-- 1400 -->
      <g transform="translate(20.878125 43.858144) scale(0.1 -0.1)">
       <use xlink:href="#DejaVuSans-31"/>
       <use xlink:href="#DejaVuSans-34" x="63.623047"/>
       <use xlink:href="#DejaVuSans-30" x="127.246094"/>
       <use xlink:href="#DejaVuSans-30" x="190.869141"/>
      </g>
     </g>
    </g>
    <g id="text_16">
     <!-- Stress(MPa) -->
     <g transform="translate(14.798438 184.806937) rotate(-90) scale(0.1 -0.1)">
      <defs>
       <path id="DejaVuSans-65" d="M 3597 1894 
L 3597 1613 
L 953 1613 
Q 991 1019 1311 708 
Q 1631 397 2203 397 
Q 2534 397 2845 478 
Q 3156 559 3463 722 
L 3463 178 
Q 3153 47 2828 -22 
Q 2503 -91 2169 -91 
Q 1331 -91 842 396 
Q 353 884 353 1716 
Q 353 2575 817 3079 
Q 1281 3584 2069 3584 
Q 2775 3584 3186 3129 
Q 3597 2675 3597 1894 
z
M 3022 2063 
Q 3016 2534 2758 2815 
Q 2500 3097 2075 3097 
Q 1594 3097 1305 2825 
Q 1016 2553 972 2059 
L 3022 2063 
z
" transform="scale(0.015625)"/>
       <path id="DejaVuSans-73" d="M 2834 3397 
L 2834 2853 
Q 2591 2978 2328 3040 
Q 2066 3103 1784 3103 
Q 1356 3103 1142 2972 
Q 928 2841 928 2578 
Q 928 2378 1081 2264 
Q 1234 2150 1697 2047 
L 1894 2003 
Q 2506 1872 2764 1633 
Q 3022 1394 3022 966 
Q 3022 478 2636 193 
Q 2250 -91 1575 -91 
Q 1294 -91 989 -36 
Q 684 19 347 128 
L 347 722 
Q 666 556 975 473 
Q 1284 391 1588 391 
Q 1994 391 2212 530 
Q 2431 669 2431 922 
Q 2431 1156 2273 1281 
Q 2116 1406 1581 1522 
L 1381 1569 
Q 847 1681 609 1914 
Q 372 2147 372 2553 
Q 372 3047 722 3315 
Q 1072 3584 1716 3584 
Q 2034 3584 2315 3537 
Q 2597 3491 2834 3397 
z
" transform="scale(0.015625)"/>
       <path id="DejaVuSans-4d" d="M 628 4666 
L 1569 4666 
L 2759 1491 
L 3956 4666 
L 4897 4666 
L 4897 0 
L 4281 0 
L 4281 4097 
L 3078 897 
L 2444 897 
L 1241 4097 
L 1241 0 
L 628 0 
L 628 4666 
z
" transform="scale(0.015625)"/>
       <path id="DejaVuSans-50" d="M 1259 4147 
L 1259 2394 
L 2053 2394 
Q 2494 2394 2734 2622 
Q 2975 2850 2975 3272 
Q 2975 3691 2734 3919 
Q 2494 4147 2053 4147 
L 1259 4147 
z
M 628 4666 
L 2053 4666 
Q 2838 4666 3239 4311 
Q 3641 3956 3641 3272 
Q 3641 2581 3239 2228 
Q 2838 1875 2053 1875 
L 1259 1875 
L 1259 0 
L 628 0 
L 628 4666 
z
" transform="scale(0.015625)"/>
      </defs>
      <use xlink:href="#DejaVuSans-53"/>
      <use xlink:href="#DejaVuSans-74" x="63.476562"/>
      <use xlink:href="#DejaVuSans-72" x="102.685547"/>
      <use xlink:href="#DejaVuSans-65" x="141.548828"/>
      <use xlink:href="#DejaVuSans-73" x="203.072266"/>
      <use xlink:href="#DejaVuSans-73" x="255.171875"/>
      <use xlink:href="#DejaVuSans-28" x="307.271484"/>
      <use xlink:href="#DejaVuSans-4d" x="346.285156"/>
      <use xlink:href="#DejaVuSans-50" x="432.564453"/>
      <use xlink:href="#DejaVuSans-61" x="488.367188"/>
      <use xlink:href="#DejaVuSans-29" x="549.646484"/>
     </g>
    </g>
   </g>
   <g id="line2d_15">
    <path d="M 56.545422 288.430125 
L 58.554653 286.845136 
L 60.563917 274.519844 
L 62.57318 277.776971 
L 64.582443 270.451958 
L 66.59174 253.857745 
L 68.60097 257.212815 
L 70.610234 246.73378 
L 72.619497 244.953246 
L 74.628761 239.304217 
L 76.637991 239.901783 
L 78.647289 246.350857 
L 80.656518 232.962458 
L 82.665783 229.75178 
L 84.675046 232.051041 
L 86.684309 254.86574 
L 88.69354 234.076336 
L 90.702837 230.661497 
L 92.712066 235.506283 
L 96.730625 222.724245 
L 98.739857 229.828798 
L 100.749156 232.314945 
L 102.758382 214.70529 
L 104.767648 241.636551 
L 106.776913 232.889557 
L 108.786173 235.772538 
L 110.795405 231.317118 
L 112.804703 236.840522 
L 114.81393 248.111592 
L 116.823195 231.159027 
L 118.832461 240.398059 
L 120.841721 244.629635 
L 122.850986 241.584982 
L 124.860251 236.242032 
L 126.869512 242.191687 
L 128.878777 230.546004 
L 130.888042 235.049967 
L 132.897269 236.014992 
L 134.906568 234.772382 
L 136.915799 226.761928 
L 138.925064 228.994631 
L 140.93432 232.609569 
L 142.943585 223.649799 
L 144.952822 224.984507 
L 146.962116 213.761338 
L 148.971342 233.234817 
L 150.980646 231.826298 
L 152.989873 216.693629 
L 154.999138 226.079047 
L 157.008432 215.487263 
L 159.017659 220.155846 
L 161.026924 221.250901 
L 163.036189 233.585256 
L 165.045454 206.555007 
L 167.054681 223.262551 
L 169.063985 207.636899 
L 171.073211 216.5471 
L 173.082505 221.549524 
L 175.091742 219.292866 
L 177.100997 226.856351 
L 179.110263 205.176243 
L 181.119528 198.134457 
L 183.128764 205.85363 
L 185.138058 190.956528 
L 187.147323 185.471301 
L 189.15655 206.505571 
L 191.165844 208.962011 
L 193.17508 196.99114 
L 195.184336 189.372049 
L 197.193601 192.356193 
L 199.202866 200.869817 
L 203.221397 204.865544 
L 205.230624 188.835024 
L 207.239918 205.995756 
L 209.249154 212.501214 
L 211.258419 206.14853 
L 215.27694 211.832213 
L 217.286205 209.90878 
L 219.295461 222.746208 
L 221.304726 206.71325 
L 223.313972 196.186261 
L 225.323256 210.480987 
L 227.332483 205.768577 
L 229.341787 202.134656 
L 231.351013 202.61983 
L 233.360279 205.040288 
L 235.369544 188.154049 
L 237.378809 186.191761 
L 239.388036 204.953044 
L 241.397339 175.051249 
L 243.406604 177.451503 
L 245.415831 177.360334 
L 247.425135 177.923334 
L 249.434362 176.951244 
L 251.443646 179.984422 
L 253.452892 177.157332 
L 255.462138 172.787395 
L 257.471403 177.631816 
L 259.480668 169.449602 
L 261.489895 174.232067 
L 263.499199 182.788446 
L 265.508426 168.721859 
L 267.517691 175.003722 
L 269.526956 178.0583 
L 271.536221 167.510526 
L 273.545486 172.399937 
L 275.554751 169.529134 
L 277.564017 180.238323 
L 279.573282 169.346337 
L 281.582547 171.606177 
L 283.591793 183.30321 
L 285.601058 177.200744 
L 287.610323 185.753774 
L 289.619531 189.14814 
L 291.628854 172.676889 
L 293.638061 163.027381 
L 295.647326 180.991204 
L 297.656572 180.586524 
L 299.665838 181.622753 
L 301.675103 177.075006 
L 303.684368 159.400811 
L 305.693633 170.235637 
L 307.702898 166.574729 
L 309.712164 180.180194 
L 311.721429 149.066728 
L 313.730694 144.51055 
L 315.739882 152.780135 
L 317.749224 149.23361 
L 319.75847 140.970789 
L 321.767735 129.16081 
L 323.776943 158.477252 
L 325.786208 131.865686 
L 327.795531 131.773314 
L 329.804796 146.852089 
L 331.814061 146.91781 
L 333.82325 127.633818 
L 335.832515 148.062242 
L 337.84178 149.933991 
L 339.851122 139.616846 
L 341.860311 137.766093 
L 343.869576 129.218167 
L 345.878841 135.327412 
L 347.888106 142.412747 
L 349.897371 152.61869 
L 351.906636 144.589209 
L 353.915902 143.502564 
L 355.925148 136.572703 
L 357.934355 124.143002 
L 359.94362 121.621642 
L 361.952943 112.601903 
L 363.962208 109.447899 
L 365.971473 116.749873 
L 367.980681 113.810327 
L 369.989927 103.82102 
L 371.999269 110.889461 
L 374.008534 91.649743 
L 376.017723 75.216665 
L 378.026988 73.552204 
L 380.036253 80.505171 
L 382.045499 54.637607 
L 384.054783 58.920517 
L 386.064029 56.769243 
L 388.073314 56.78236 
L 390.08256 45.217204 
L 392.091844 51.864522 
L 394.101013 50.595975 
L 396.110374 23.572442 
L 398.11962 32.828338 
L 400.128905 16.658629 
L 401.656744 -1 
L 401.656744 -1 
" clip-path="url(#pa441a1018a)" style="fill: none; stroke: #1f77b4; stroke-width: 1.5; stroke-linecap: square"/>
   </g>
   <g id="line2d_16">
    <path d="M 56.545422 288.430125 
L 58.163529 263.640521 
L 59.781607 282.537281 
L 63.017821 265.1792 
L 64.635928 260.463854 
L 66.254035 263.381568 
L 67.872113 250.628791 
L 69.49022 246.712445 
L 71.108327 245.007966 
L 72.726434 244.829748 
L 74.344511 243.336606 
L 75.962647 261.329993 
L 77.580726 255.878488 
L 79.198803 235.270206 
L 80.81694 222.753019 
L 82.435017 231.130461 
L 84.053125 224.607854 
L 85.671231 226.707046 
L 87.289337 223.032492 
L 88.907417 212.773942 
L 90.525552 223.593398 
L 92.143631 217.774894 
L 93.761708 223.909039 
L 95.379843 219.441816 
L 96.997923 224.233226 
L 98.616058 212.917681 
L 100.234135 216.630812 
L 101.852241 211.655025 
L 103.470351 229.481054 
L 105.088429 208.739357 
L 106.706535 223.640292 
L 108.324641 229.877111 
L 111.560829 210.369007 
L 113.178963 238.493863 
L 114.797041 222.74096 
L 116.415118 221.656584 
L 118.033252 219.16843 
L 119.651334 193.988123 
L 121.26944 214.416515 
L 122.887546 221.984667 
L 124.505652 202.536786 
L 126.12373 214.440853 
L 127.74184 208.631879 
L 129.359946 207.010069 
L 130.978052 215.137822 
L 132.596158 215.385366 
L 134.214235 217.430463 
L 137.450452 193.540265 
L 139.068525 208.37023 
L 140.686664 198.608177 
L 142.304746 208.06005 
L 143.922847 195.82877 
L 145.540958 195.029618 
L 147.159059 211.088869 
L 148.777141 210.971033 
L 150.395252 205.950112 
L 152.013353 212.168603 
L 153.631435 212.351573 
L 155.249565 204.502765 
L 156.867647 206.874843 
L 158.485758 203.840113 
L 160.103859 211.171465 
L 161.721941 187.273856 
L 163.340042 193.241843 
L 164.958153 204.821121 
L 166.576264 195.789026 
L 168.194365 193.261044 
L 169.812476 199.229314 
L 171.430548 186.255075 
L 173.048687 192.684692 
L 174.666769 189.540914 
L 176.284842 200.44977 
L 177.902981 199.767119 
L 179.521054 217.782838 
L 181.139165 189.426141 
L 182.757275 193.135719 
L 184.375376 185.353767 
L 185.993458 203.938285 
L 187.61156 201.954914 
L 189.22967 178.684215 
L 190.847752 178.960448 
L 192.465882 172.22329 
L 194.083964 192.259464 
L 195.702066 195.938063 
L 197.320176 177.178275 
L 198.938258 199.73474 
L 200.556359 200.981956 
L 202.17447 192.769714 
L 203.792571 194.547996 
L 205.410682 199.701412 
L 207.028793 191.902911 
L 208.646865 201.346998 
L 210.264976 179.445182 
L 211.883077 190.243433 
L 213.501159 172.200791 
L 215.119299 181.853771 
L 216.737371 176.833035 
L 218.355482 170.161438 
L 219.973583 175.038088 
L 221.591684 192.154213 
L 223.209766 179.978996 
L 224.827906 173.510693 
L 226.445988 177.928332 
L 228.06407 184.188663 
L 229.68219 168.99874 
L 231.300272 169.149788 
L 232.918354 196.390432 
L 234.536494 193.299647 
L 236.154576 185.52452 
L 237.772696 192.073457 
L 239.390778 172.650686 
L 241.00886 174.050026 
L 242.626999 176.057801 
L 244.245081 182.165313 
L 245.863144 190.014979 
L 247.481284 179.813446 
L 249.099366 163.184828 
L 250.717505 163.758533 
L 252.335587 157.052062 
L 253.95365 155.376573 
L 255.57179 186.902152 
L 257.189872 199.674381 
L 258.808011 177.906092 
L 260.426093 174.070268 
L 262.044156 158.445885 
L 263.662296 156.806517 
L 265.280435 156.399521 
L 266.898517 149.299086 
L 268.516599 136.137274 
L 270.134662 141.984856 
L 271.752744 143.274951 
L 273.370941 139.927687 
L 274.989023 142.062812 
L 276.607105 155.13093 
L 278.225168 135.767046 
L 279.84325 151.173032 
L 281.461389 148.384993 
L 283.079529 141.843335 
L 284.697611 123.837611 
L 286.315674 129.989178 
L 287.933813 117.26045 
L 289.551895 124.322463 
L 291.170035 106.588455 
L 292.788117 101.486102 
L 294.406179 106.472814 
L 296.024319 117.893674 
L 297.642401 98.977746 
L 299.260483 81.980073 
L 300.878622 87.255861 
L 302.496743 93.237371 
L 304.114825 85.439294 
L 305.732907 94.746065 
L 307.350989 82.75546 
L 308.969071 82.99127 
L 310.587249 67.517776 
L 312.205331 85.734475 
L 313.823413 73.818924 
L 315.441495 50.202623 
L 317.059577 53.361382 
L 318.677697 55.151946 
L 320.295837 31.592559 
L 323.532001 26.18496 
L 325.15014 21.234316 
L 326.768203 11.31477 
L 327.996799 -1 
L 327.996799 -1 
" clip-path="url(#pa441a1018a)" style="fill: none; stroke: #ff7f0e; stroke-width: 1.5; stroke-linecap: square"/>
   </g>
   <g id="line2d_17">
    <path d="M 56.545422 288.430125 
L 58.127036 281.556934 
L 59.708679 280.414233 
L 61.29035 276.948167 
L 62.871964 274.391008 
L 64.453607 264.796204 
L 66.035278 248.491296 
L 67.616893 247.782037 
L 69.198564 242.778008 
L 70.780207 252.451135 
L 72.361849 244.910581 
L 73.943492 244.433921 
L 75.525135 233.074756 
L 77.106776 237.302097 
L 78.68842 239.835486 
L 80.270091 220.983472 
L 81.851706 215.537784 
L 83.433377 224.433912 
L 85.015018 229.168909 
L 86.596634 227.997148 
L 88.178304 229.584639 
L 89.759948 228.544146 
L 91.34159 215.381471 
L 92.923234 224.98482 
L 96.086517 212.253413 
L 97.668188 216.180082 
L 99.249834 215.401283 
L 100.831447 232.349845 
L 102.413118 229.951679 
L 103.994759 232.662917 
L 105.576401 226.389533 
L 107.158047 228.928936 
L 108.739718 228.246644 
L 110.321331 219.15382 
L 111.903001 236.645652 
L 113.484643 230.369027 
L 115.066261 243.315905 
L 116.647931 224.942573 
L 118.229573 241.541755 
L 119.811214 212.44091 
L 121.392856 219.158014 
L 122.974531 213.669439 
L 124.556144 220.530983 
L 126.137786 221.637565 
L 127.719456 215.441969 
L 129.301098 210.427549 
L 130.882745 217.795064 
L 132.464386 198.710778 
L 134.046057 211.974222 
L 135.62767 212.471329 
L 137.209345 219.501936 
L 138.790982 210.535752 
L 140.372599 207.229153 
L 141.954275 213.31089 
L 143.535912 216.842758 
L 145.117558 206.770535 
L 146.699195 193.388363 
L 148.28087 197.209752 
L 149.862488 198.339814 
L 151.444125 207.671326 
L 153.0258 207.77406 
L 154.607408 189.101933 
L 156.189083 201.705575 
L 157.77073 206.513119 
L 159.352367 214.563579 
L 160.934013 217.779769 
L 162.515679 209.305185 
L 164.097297 205.486076 
L 165.678943 202.056905 
L 167.260609 211.359189 
L 168.842227 201.535365 
L 170.423892 194.642515 
L 172.005539 202.83691 
L 173.587185 213.675194 
L 175.168822 191.358765 
L 176.750469 200.263717 
L 178.332105 182.554832 
L 179.913752 189.266254 
L 181.495427 202.925758 
L 183.077035 192.860565 
L 184.658711 188.515429 
L 186.240347 197.311948 
L 187.821965 190.992511 
L 189.40364 193.423677 
L 190.985277 191.604568 
L 192.566924 192.302704 
L 194.148561 204.289718 
L 195.730236 190.751385 
L 197.311854 187.184782 
L 198.893519 191.028776 
L 200.475166 179.71992 
L 202.056774 175.7194 
L 203.638449 176.769914 
L 205.220096 187.012624 
L 206.801733 173.356404 
L 208.383379 195.439027 
L 209.965045 176.692453 
L 211.546691 179.677362 
L 213.128338 161.275748 
L 214.709975 173.551508 
L 216.29165 177.405508 
L 217.873229 176.89659 
L 219.454933 186.482211 
L 221.03658 183.516846 
L 222.618226 189.032493 
L 224.199853 178.197251 
L 225.7815 188.177293 
L 227.363146 186.14483 
L 228.944793 173.860533 
L 230.526439 166.366734 
L 232.108067 170.673365 
L 233.689713 177.223113 
L 235.27136 167.458465 
L 236.853006 153.266198 
L 238.434653 189.4336 
L 240.01628 166.248589 
L 241.597926 179.811275 
L 243.179573 164.230929 
L 244.761277 176.513355 
L 246.342866 160.019103 
L 247.924493 147.357541 
L 249.506197 166.48592 
L 251.087786 156.878649 
L 254.251137 155.489264 
L 255.832764 157.443083 
L 257.41441 140.96025 
L 258.996057 136.773816 
L 260.577703 141.775034 
L 262.159407 153.935989 
L 263.740996 134.462008 
L 265.322624 132.907618 
L 266.904328 143.358718 
L 268.485917 134.989638 
L 270.067563 121.850765 
L 271.649248 135.165581 
L 273.230894 131.044199 
L 274.812483 134.328279 
L 276.394187 133.687268 
L 277.975834 127.877172 
L 279.557423 125.130728 
L 281.139108 135.040405 
L 282.720754 111.825755 
L 284.302401 101.751156 
L 285.884047 118.070953 
L 287.465693 96.83729 
L 289.047321 98.912827 
L 290.629025 93.481326 
L 292.210614 89.914183 
L 293.79226 89.933192 
L 295.373964 77.783784 
L 296.955534 54.785101 
L 298.53718 70.291577 
L 300.118885 68.858083 
L 301.700531 46.455493 
L 303.28212 76.34012 
L 304.863805 63.570813 
L 306.445451 59.685646 
L 308.02704 61.544535 
L 309.608744 59.175738 
L 311.190391 53.514938 
L 312.772018 37.182917 
L 314.353664 23.439995 
L 315.935311 23.603501 
L 317.516957 12.0819 
L 319.060102 -1 
L 319.060102 -1 
" clip-path="url(#pa441a1018a)" style="fill: none; stroke: #2ca02c; stroke-width: 1.5; stroke-linecap: square"/>
   </g>
   <g id="patch_3">
    <path d="M 53.328125 288.430125 
L 53.328125 22.318125 
" style="fill: none; stroke: #000000; stroke-width: 0.8; stroke-linejoin: miter; stroke-linecap: square"/>
   </g>
   <g id="patch_4">
    <path d="M 410.448125 288.430125 
L 410.448125 22.318125 
" style="fill: none; stroke: #000000; stroke-width: 0.8; stroke-linejoin: miter; stroke-linecap: square"/>
   </g>
   <g id="patch_5">
    <path d="M 53.328125 288.430125 
L 410.448125 288.430125 
" style="fill: none; stroke: #000000; stroke-width: 0.8; stroke-linejoin: miter; stroke-linecap: square"/>
   </g>
   <g id="patch_6">
    <path d="M 53.328125 22.318125 
L 410.448125 22.318125 
" style="fill: none; stroke: #000000; stroke-width: 0.8; stroke-linejoin: miter; stroke-linecap: square"/>
   </g>
   <g id="text_17">
    <!-- Stress-Strain Curve -->
    <g transform="translate(173.904688 16.318125) scale(0.12 -0.12)">
     <defs>
      <path id="DejaVuSans-2d" d="M 313 2009 
L 1997 2009 
L 1997 1497 
L 313 1497 
L 313 2009 
z
" transform="scale(0.015625)"/>
      <path id="DejaVuSans-20" transform="scale(0.015625)"/>
      <path id="DejaVuSans-43" d="M 4122 4306 
L 4122 3641 
Q 3803 3938 3442 4084 
Q 3081 4231 2675 4231 
Q 1875 4231 1450 3742 
Q 1025 3253 1025 2328 
Q 1025 1406 1450 917 
Q 1875 428 2675 428 
Q 3081 428 3442 575 
Q 3803 722 4122 1019 
L 4122 359 
Q 3791 134 3420 21 
Q 3050 -91 2638 -91 
Q 1578 -91 968 557 
Q 359 1206 359 2328 
Q 359 3453 968 4101 
Q 1578 4750 2638 4750 
Q 3056 4750 3426 4639 
Q 3797 4528 4122 4306 
z
" transform="scale(0.015625)"/>
      <path id="DejaVuSans-75" d="M 544 1381 
L 544 3500 
L 1119 3500 
L 1119 1403 
Q 1119 906 1312 657 
Q 1506 409 1894 409 
Q 2359 409 2629 706 
Q 2900 1003 2900 1516 
L 2900 3500 
L 3475 3500 
L 3475 0 
L 2900 0 
L 2900 538 
Q 2691 219 2414 64 
Q 2138 -91 1772 -91 
Q 1169 -91 856 284 
Q 544 659 544 1381 
z
M 1991 3584 
L 1991 3584 
z
" transform="scale(0.015625)"/>
      <path id="DejaVuSans-76" d="M 191 3500 
L 800 3500 
L 1894 563 
L 2988 3500 
L 3597 3500 
L 2284 0 
L 1503 0 
L 191 3500 
z
" transform="scale(0.015625)"/>
     </defs>
     <use xlink:href="#DejaVuSans-53"/>
     <use xlink:href="#DejaVuSans-74" x="63.476562"/>
     <use xlink:href="#DejaVuSans-72" x="102.685547"/>
     <use xlink:href="#DejaVuSans-65" x="141.548828"/>
     <use xlink:href="#DejaVuSans-73" x="203.072266"/>
     <use xlink:href="#DejaVuSans-73" x="255.171875"/>
     <use xlink:href="#DejaVuSans-2d" x="307.271484"/>
     <use xlink:href="#DejaVuSans-53" x="343.355469"/>
     <use xlink:href="#DejaVuSans-74" x="406.832031"/>
     <use xlink:href="#DejaVuSans-72" x="446.041016"/>
     <use xlink:href="#DejaVuSans-61" x="487.154297"/>
     <use xlink:href="#DejaVuSans-69" x="548.433594"/>
     <use xlink:href="#DejaVuSans-6e" x="576.216797"/>
     <use xlink:href="#DejaVuSans-20" x="639.595703"/>
     <use xlink:href="#DejaVuSans-43" x="671.382812"/>
     <use xlink:href="#DejaVuSans-75" x="741.207031"/>
     <use xlink:href="#DejaVuSans-72" x="804.585938"/>
     <use xlink:href="#DejaVuSans-76" x="845.699219"/>
     <use xlink:href="#DejaVuSans-65" x="904.878906"/>
    </g>
   </g>
   <g id="legend_1">
    <g id="patch_7">
     <path d="M 87.845375 101.798075 
L 153.464125 101.798075 
Q 155.464125 101.798075 155.464125 99.798075 
L 155.464125 55.929325 
Q 155.464125 53.929325 153.464125 53.929325 
L 87.845375 53.929325 
Q 85.845375 53.929325 85.845375 55.929325 
L 85.845375 99.798075 
Q 85.845375 101.798075 87.845375 101.798075 
z
" style="fill: #ffffff; opacity: 0.8; stroke: #cccccc; stroke-linejoin: miter"/>
    </g>
    <g id="line2d_18">
     <path d="M 89.845375 62.027762 
L 99.845375 62.027762 
L 109.845375 62.027762 
" style="fill: none; stroke: #1f77b4; stroke-width: 1.5; stroke-linecap: square"/>
    </g>
    <g id="text_18">
     <!-- TS1I_X -->
     <g transform="translate(117.845375 65.527762) scale(0.1 -0.1)">
      <defs>
       <path id="DejaVuSans-54" d="M -19 4666 
L 3928 4666 
L 3928 4134 
L 2272 4134 
L 2272 0 
L 1638 0 
L 1638 4134 
L -19 4134 
L -19 4666 
z
" transform="scale(0.015625)"/>
       <path id="DejaVuSans-49" d="M 628 4666 
L 1259 4666 
L 1259 0 
L 628 0 
L 628 4666 
z
" transform="scale(0.015625)"/>
       <path id="DejaVuSans-5f" d="M 3263 -1063 
L 3263 -1509 
L -63 -1509 
L -63 -1063 
L 3263 -1063 
z
" transform="scale(0.015625)"/>
       <path id="DejaVuSans-58" d="M 403 4666 
L 1081 4666 
L 2241 2931 
L 3406 4666 
L 4084 4666 
L 2584 2425 
L 4184 0 
L 3506 0 
L 2194 1984 
L 872 0 
L 191 0 
L 1856 2491 
L 403 4666 
z
" transform="scale(0.015625)"/>
      </defs>
      <use xlink:href="#DejaVuSans-54"/>
      <use xlink:href="#DejaVuSans-53" x="61.083984"/>
      <use xlink:href="#DejaVuSans-31" x="124.560547"/>
      <use xlink:href="#DejaVuSans-49" x="188.183594"/>
      <use xlink:href="#DejaVuSans-5f" x="217.675781"/>
      <use xlink:href="#DejaVuSans-58" x="267.675781"/>
     </g>
    </g>
    <g id="line2d_19">
     <path d="M 89.845375 76.984012 
L 99.845375 76.984012 
L 109.845375 76.984012 
" style="fill: none; stroke: #ff7f0e; stroke-width: 1.5; stroke-linecap: square"/>
    </g>
    <g id="text_19">
     <!-- TS1I_Y -->
     <g transform="translate(117.845375 80.484012) scale(0.1 -0.1)">
      <defs>
       <path id="DejaVuSans-59" d="M -13 4666 
L 666 4666 
L 1959 2747 
L 3244 4666 
L 3922 4666 
L 2272 2222 
L 2272 0 
L 1638 0 
L 1638 2222 
L -13 4666 
z
" transform="scale(0.015625)"/>
      </defs>
      <use xlink:href="#DejaVuSans-54"/>
      <use xlink:href="#DejaVuSans-53" x="61.083984"/>
      <use xlink:href="#DejaVuSans-31" x="124.560547"/>
      <use xlink:href="#DejaVuSans-49" x="188.183594"/>
      <use xlink:href="#DejaVuSans-5f" x="217.675781"/>
      <use xlink:href="#DejaVuSans-59" x="267.675781"/>
     </g>
    </g>
    <g id="line2d_20">
     <path d="M 89.845375 91.940262 
L 99.845375 91.940262 
L 109.845375 91.940262 
" style="fill: none; stroke: #2ca02c; stroke-width: 1.5; stroke-linecap: square"/>
    </g>
    <g id="text_20">
     <!-- TS1I_Z -->
     <g transform="translate(117.845375 95.440262) scale(0.1 -0.1)">
      <defs>
       <path id="DejaVuSans-5a" d="M 359 4666 
L 4025 4666 
L 4025 4184 
L 1075 531 
L 4097 531 
L 4097 0 
L 288 0 
L 288 481 
L 3238 4134 
L 359 4134 
L 359 4666 
z
" transform="scale(0.015625)"/>
      </defs>
      <use xlink:href="#DejaVuSans-54"/>
      <use xlink:href="#DejaVuSans-53" x="61.083984"/>
      <use xlink:href="#DejaVuSans-31" x="124.560547"/>
      <use xlink:href="#DejaVuSans-49" x="188.183594"/>
      <use xlink:href="#DejaVuSans-5f" x="217.675781"/>
      <use xlink:href="#DejaVuSans-5a" x="267.675781"/>
     </g>
    </g>
   </g>
  </g>
 </g>
 <defs>
  <clipPath id="pa441a1018a">
   <rect x="53.328125" y="22.318125" width="357.12" height="266.112"/>
  </clipPath>
 </defs>
</svg>
