<?xml version="1.0" encoding="utf-8" standalone="no"?>
<!DOCTYPE svg PUBLIC "-//W3C//DTD SVG 1.1//EN"
  "http://www.w3.org/Graphics/SVG/1.1/DTD/svg11.dtd">
<svg xmlns:xlink="http://www.w3.org/1999/xlink" width="427.191875pt" height="325.986375pt" viewBox="0 0 427.191875 325.986375" xmlns="http://www.w3.org/2000/svg" version="1.1">
 <metadata>
  <rdf:RDF xmlns:dc="http://purl.org/dc/elements/1.1/" xmlns:cc="http://creativecommons.org/ns#" xmlns:rdf="http://www.w3.org/1999/02/22-rdf-syntax-ns#">
   <cc:Work>
    <dc:type rdf:resource="http://purl.org/dc/dcmitype/StillImage"/>
    <dc:date>2025-01-20T15:53:35.289609</dc:date>
    <dc:format>image/svg+xml</dc:format>
    <dc:creator>
     <cc:Agent>
      <dc:title>Matplotlib v3.9.0, https://matplotlib.org/</dc:title>
     </cc:Agent>
    </dc:creator>
   </cc:Work>
  </rdf:RDF>
 </metadata>
 <defs>
  <style type="text/css">*{stroke-linejoin: round; stroke-linecap: butt}</style>
 </defs>
 <g id="figure_1">
  <g id="patch_1">
   <path d="M 0 325.986375 
L 427.191875 325.986375 
L 427.191875 0 
L 0 0 
z
" style="fill: #ffffff"/>
  </g>
  <g id="axes_1">
   <g id="patch_2">
    <path d="M 53.328125 288.430125 
L 410.448125 288.430125 
L 410.448125 22.318125 
L 53.328125 22.318125 
z
" style="fill: #ffffff"/>
   </g>
   <g id="matplotlib.axis_1">
    <g id="xtick_1">
     <g id="line2d_1">
      <defs>
       <path id="m249e1981b3" d="M 0 0 
L 0 3.5 
" style="stroke: #000000; stroke-width: 0.8"/>
      </defs>
      <g>
       <use xlink:href="#m249e1981b3" x="56.863967" y="288.430125" style="stroke: #000000; stroke-width: 0.8"/>
      </g>
     </g>
     <g id="text_1">
      <!-- 100 -->
      <g transform="translate(47.320217 303.028562) scale(0.1 -0.1)">
       <defs>
        <path id="DejaVuSans-31" d="M 794 531 
L 1825 531 
L 1825 4091 
L 703 3866 
L 703 4441 
L 1819 4666 
L 2450 4666 
L 2450 531 
L 3481 531 
L 3481 0 
L 794 0 
L 794 531 
z
" transform="scale(0.015625)"/>
        <path id="DejaVuSans-30" d="M 2034 4250 
Q 1547 4250 1301 3770 
Q 1056 3291 1056 2328 
Q 1056 1369 1301 889 
Q 1547 409 2034 409 
Q 2525 409 2770 889 
Q 3016 1369 3016 2328 
Q 3016 3291 2770 3770 
Q 2525 4250 2034 4250 
z
M 2034 4750 
Q 2819 4750 3233 4129 
Q 3647 3509 3647 2328 
Q 3647 1150 3233 529 
Q 2819 -91 2034 -91 
Q 1250 -91 836 529 
Q 422 1150 422 2328 
Q 422 3509 836 4129 
Q 1250 4750 2034 4750 
z
" transform="scale(0.015625)"/>
       </defs>
       <use xlink:href="#DejaVuSans-31"/>
       <use xlink:href="#DejaVuSans-30" x="63.623047"/>
       <use xlink:href="#DejaVuSans-30" x="127.246094"/>
      </g>
     </g>
    </g>
    <g id="xtick_2">
     <g id="line2d_2">
      <g>
       <use xlink:href="#m249e1981b3" x="127.580798" y="288.430125" style="stroke: #000000; stroke-width: 0.8"/>
      </g>
     </g>
     <g id="text_2">
      <!-- 120 -->
      <g transform="translate(118.037048 303.028562) scale(0.1 -0.1)">
       <defs>
        <path id="DejaVuSans-32" d="M 1228 531 
L 3431 531 
L 3431 0 
L 469 0 
L 469 531 
Q 828 903 1448 1529 
Q 2069 2156 2228 2338 
Q 2531 2678 2651 2914 
Q 2772 3150 2772 3378 
Q 2772 3750 2511 3984 
Q 2250 4219 1831 4219 
Q 1534 4219 1204 4116 
Q 875 4013 500 3803 
L 500 4441 
Q 881 4594 1212 4672 
Q 1544 4750 1819 4750 
Q 2544 4750 2975 4387 
Q 3406 4025 3406 3419 
Q 3406 3131 3298 2873 
Q 3191 2616 2906 2266 
Q 2828 2175 2409 1742 
Q 1991 1309 1228 531 
z
" transform="scale(0.015625)"/>
       </defs>
       <use xlink:href="#DejaVuSans-31"/>
       <use xlink:href="#DejaVuSans-32" x="63.623047"/>
       <use xlink:href="#DejaVuSans-30" x="127.246094"/>
      </g>
     </g>
    </g>
    <g id="xtick_3">
     <g id="line2d_3">
      <g>
       <use xlink:href="#m249e1981b3" x="198.29763" y="288.430125" style="stroke: #000000; stroke-width: 0.8"/>
      </g>
     </g>
     <g id="text_3">
      <!-- 140 -->
      <g transform="translate(188.75388 303.028562) scale(0.1 -0.1)">
       <defs>
        <path id="DejaVuSans-34" d="M 2419 4116 
L 825 1625 
L 2419 1625 
L 2419 4116 
z
M 2253 4666 
L 3047 4666 
L 3047 1625 
L 3713 1625 
L 3713 1100 
L 3047 1100 
L 3047 0 
L 2419 0 
L 2419 1100 
L 313 1100 
L 313 1709 
L 2253 4666 
z
" transform="scale(0.015625)"/>
       </defs>
       <use xlink:href="#DejaVuSans-31"/>
       <use xlink:href="#DejaVuSans-34" x="63.623047"/>
       <use xlink:href="#DejaVuSans-30" x="127.246094"/>
      </g>
     </g>
    </g>
    <g id="xtick_4">
     <g id="line2d_4">
      <g>
       <use xlink:href="#m249e1981b3" x="269.014462" y="288.430125" style="stroke: #000000; stroke-width: 0.8"/>
      </g>
     </g>
     <g id="text_4">
      <!-- 160 -->
      <g transform="translate(259.470712 303.028562) scale(0.1 -0.1)">
       <defs>
        <path id="DejaVuSans-36" d="M 2113 2584 
Q 1688 2584 1439 2293 
Q 1191 2003 1191 1497 
Q 1191 994 1439 701 
Q 1688 409 2113 409 
Q 2538 409 2786 701 
Q 3034 994 3034 1497 
Q 3034 2003 2786 2293 
Q 2538 2584 2113 2584 
z
M 3366 4563 
L 3366 3988 
Q 3128 4100 2886 4159 
Q 2644 4219 2406 4219 
Q 1781 4219 1451 3797 
Q 1122 3375 1075 2522 
Q 1259 2794 1537 2939 
Q 1816 3084 2150 3084 
Q 2853 3084 3261 2657 
Q 3669 2231 3669 1497 
Q 3669 778 3244 343 
Q 2819 -91 2113 -91 
Q 1303 -91 875 529 
Q 447 1150 447 2328 
Q 447 3434 972 4092 
Q 1497 4750 2381 4750 
Q 2619 4750 2861 4703 
Q 3103 4656 3366 4563 
z
" transform="scale(0.015625)"/>
       </defs>
       <use xlink:href="#DejaVuSans-31"/>
       <use xlink:href="#DejaVuSans-36" x="63.623047"/>
       <use xlink:href="#DejaVuSans-30" x="127.246094"/>
      </g>
     </g>
    </g>
    <g id="xtick_5">
     <g id="line2d_5">
      <g>
       <use xlink:href="#m249e1981b3" x="339.731293" y="288.430125" style="stroke: #000000; stroke-width: 0.8"/>
      </g>
     </g>
     <g id="text_5">
      <!-- 180 -->
      <g transform="translate(330.187543 303.028562) scale(0.1 -0.1)">
       <defs>
        <path id="DejaVuSans-38" d="M 2034 2216 
Q 1584 2216 1326 1975 
Q 1069 1734 1069 1313 
Q 1069 891 1326 650 
Q 1584 409 2034 409 
Q 2484 409 2743 651 
Q 3003 894 3003 1313 
Q 3003 1734 2745 1975 
Q 2488 2216 2034 2216 
z
M 1403 2484 
Q 997 2584 770 2862 
Q 544 3141 544 3541 
Q 544 4100 942 4425 
Q 1341 4750 2034 4750 
Q 2731 4750 3128 4425 
Q 3525 4100 3525 3541 
Q 3525 3141 3298 2862 
Q 3072 2584 2669 2484 
Q 3125 2378 3379 2068 
Q 3634 1759 3634 1313 
Q 3634 634 3220 271 
Q 2806 -91 2034 -91 
Q 1263 -91 848 271 
Q 434 634 434 1313 
Q 434 1759 690 2068 
Q 947 2378 1403 2484 
z
M 1172 3481 
Q 1172 3119 1398 2916 
Q 1625 2713 2034 2713 
Q 2441 2713 2670 2916 
Q 2900 3119 2900 3481 
Q 2900 3844 2670 4047 
Q 2441 4250 2034 4250 
Q 1625 4250 1398 4047 
Q 1172 3844 1172 3481 
z
" transform="scale(0.015625)"/>
       </defs>
       <use xlink:href="#DejaVuSans-31"/>
       <use xlink:href="#DejaVuSans-38" x="63.623047"/>
       <use xlink:href="#DejaVuSans-30" x="127.246094"/>
      </g>
     </g>
    </g>
    <g id="xtick_6">
     <g id="line2d_6">
      <g>
       <use xlink:href="#m249e1981b3" x="410.448125" y="288.430125" style="stroke: #000000; stroke-width: 0.8"/>
      </g>
     </g>
     <g id="text_6">
      <!-- 200 -->
      <g transform="translate(400.904375 303.028562) scale(0.1 -0.1)">
       <use xlink:href="#DejaVuSans-32"/>
       <use xlink:href="#DejaVuSans-30" x="63.623047"/>
       <use xlink:href="#DejaVuSans-30" x="127.246094"/>
      </g>
     </g>
    </g>
    <g id="text_7">
     <!-- Strain(%) -->
     <g transform="translate(208.424063 316.706687) scale(0.1 -0.1)">
      <defs>
       <path id="DejaVuSans-53" d="M 3425 4513 
L 3425 3897 
Q 3066 4069 2747 4153 
Q 2428 4238 2131 4238 
Q 1616 4238 1336 4038 
Q 1056 3838 1056 3469 
Q 1056 3159 1242 3001 
Q 1428 2844 1947 2747 
L 2328 2669 
Q 3034 2534 3370 2195 
Q 3706 1856 3706 1288 
Q 3706 609 3251 259 
Q 2797 -91 1919 -91 
Q 1588 -91 1214 -16 
Q 841 59 441 206 
L 441 856 
Q 825 641 1194 531 
Q 1563 422 1919 422 
Q 2459 422 2753 634 
Q 3047 847 3047 1241 
Q 3047 1584 2836 1778 
Q 2625 1972 2144 2069 
L 1759 2144 
Q 1053 2284 737 2584 
Q 422 2884 422 3419 
Q 422 4038 858 4394 
Q 1294 4750 2059 4750 
Q 2388 4750 2728 4690 
Q 3069 4631 3425 4513 
z
" transform="scale(0.015625)"/>
       <path id="DejaVuSans-74" d="M 1172 4494 
L 1172 3500 
L 2356 3500 
L 2356 3053 
L 1172 3053 
L 1172 1153 
Q 1172 725 1289 603 
Q 1406 481 1766 481 
L 2356 481 
L 2356 0 
L 1766 0 
Q 1100 0 847 248 
Q 594 497 594 1153 
L 594 3053 
L 172 3053 
L 172 3500 
L 594 3500 
L 594 4494 
L 1172 4494 
z
" transform="scale(0.015625)"/>
       <path id="DejaVuSans-72" d="M 2631 2963 
Q 2534 3019 2420 3045 
Q 2306 3072 2169 3072 
Q 1681 3072 1420 2755 
Q 1159 2438 1159 1844 
L 1159 0 
L 581 0 
L 581 3500 
L 1159 3500 
L 1159 2956 
Q 1341 3275 1631 3429 
Q 1922 3584 2338 3584 
Q 2397 3584 2469 3576 
Q 2541 3569 2628 3553 
L 2631 2963 
z
" transform="scale(0.015625)"/>
       <path id="DejaVuSans-61" d="M 2194 1759 
Q 1497 1759 1228 1600 
Q 959 1441 959 1056 
Q 959 750 1161 570 
Q 1363 391 1709 391 
Q 2188 391 2477 730 
Q 2766 1069 2766 1631 
L 2766 1759 
L 2194 1759 
z
M 3341 1997 
L 3341 0 
L 2766 0 
L 2766 531 
Q 2569 213 2275 61 
Q 1981 -91 1556 -91 
Q 1019 -91 701 211 
Q 384 513 384 1019 
Q 384 1609 779 1909 
Q 1175 2209 1959 2209 
L 2766 2209 
L 2766 2266 
Q 2766 2663 2505 2880 
Q 2244 3097 1772 3097 
Q 1472 3097 1187 3025 
Q 903 2953 641 2809 
L 641 3341 
Q 956 3463 1253 3523 
Q 1550 3584 1831 3584 
Q 2591 3584 2966 3190 
Q 3341 2797 3341 1997 
z
" transform="scale(0.015625)"/>
       <path id="DejaVuSans-69" d="M 603 3500 
L 1178 3500 
L 1178 0 
L 603 0 
L 603 3500 
z
M 603 4863 
L 1178 4863 
L 1178 4134 
L 603 4134 
L 603 4863 
z
" transform="scale(0.015625)"/>
       <path id="DejaVuSans-6e" d="M 3513 2113 
L 3513 0 
L 2938 0 
L 2938 2094 
Q 2938 2591 2744 2837 
Q 2550 3084 2163 3084 
Q 1697 3084 1428 2787 
Q 1159 2491 1159 1978 
L 1159 0 
L 581 0 
L 581 3500 
L 1159 3500 
L 1159 2956 
Q 1366 3272 1645 3428 
Q 1925 3584 2291 3584 
Q 2894 3584 3203 3211 
Q 3513 2838 3513 2113 
z
" transform="scale(0.015625)"/>
       <path id="DejaVuSans-28" d="M 1984 4856 
Q 1566 4138 1362 3434 
Q 1159 2731 1159 2009 
Q 1159 1288 1364 580 
Q 1569 -128 1984 -844 
L 1484 -844 
Q 1016 -109 783 600 
Q 550 1309 550 2009 
Q 550 2706 781 3412 
Q 1013 4119 1484 4856 
L 1984 4856 
z
" transform="scale(0.015625)"/>
       <path id="DejaVuSans-25" d="M 4653 2053 
Q 4381 2053 4226 1822 
Q 4072 1591 4072 1178 
Q 4072 772 4226 539 
Q 4381 306 4653 306 
Q 4919 306 5073 539 
Q 5228 772 5228 1178 
Q 5228 1588 5073 1820 
Q 4919 2053 4653 2053 
z
M 4653 2450 
Q 5147 2450 5437 2106 
Q 5728 1763 5728 1178 
Q 5728 594 5436 251 
Q 5144 -91 4653 -91 
Q 4153 -91 3862 251 
Q 3572 594 3572 1178 
Q 3572 1766 3864 2108 
Q 4156 2450 4653 2450 
z
M 1428 4353 
Q 1159 4353 1004 4120 
Q 850 3888 850 3481 
Q 850 3069 1003 2837 
Q 1156 2606 1428 2606 
Q 1700 2606 1854 2837 
Q 2009 3069 2009 3481 
Q 2009 3884 1853 4118 
Q 1697 4353 1428 4353 
z
M 4250 4750 
L 4750 4750 
L 1831 -91 
L 1331 -91 
L 4250 4750 
z
M 1428 4750 
Q 1922 4750 2215 4408 
Q 2509 4066 2509 3481 
Q 2509 2891 2217 2550 
Q 1925 2209 1428 2209 
Q 931 2209 642 2551 
Q 353 2894 353 3481 
Q 353 4063 643 4406 
Q 934 4750 1428 4750 
z
" transform="scale(0.015625)"/>
       <path id="DejaVuSans-29" d="M 513 4856 
L 1013 4856 
Q 1481 4119 1714 3412 
Q 1947 2706 1947 2009 
Q 1947 1309 1714 600 
Q 1481 -109 1013 -844 
L 513 -844 
Q 928 -128 1133 580 
Q 1338 1288 1338 2009 
Q 1338 2731 1133 3434 
Q 928 4138 513 4856 
z
" transform="scale(0.015625)"/>
      </defs>
      <use xlink:href="#DejaVuSans-53"/>
      <use xlink:href="#DejaVuSans-74" x="63.476562"/>
      <use xlink:href="#DejaVuSans-72" x="102.685547"/>
      <use xlink:href="#DejaVuSans-61" x="143.798828"/>
      <use xlink:href="#DejaVuSans-69" x="205.078125"/>
      <use xlink:href="#DejaVuSans-6e" x="232.861328"/>
      <use xlink:href="#DejaVuSans-28" x="296.240234"/>
      <use xlink:href="#DejaVuSans-25" x="335.253906"/>
      <use xlink:href="#DejaVuSans-29" x="430.273438"/>
     </g>
    </g>
   </g>
   <g id="matplotlib.axis_2">
    <g id="ytick_1">
     <g id="line2d_7">
      <defs>
       <path id="m35349cf5a4" d="M 0 0 
L -3.5 0 
" style="stroke: #000000; stroke-width: 0.8"/>
      </defs>
      <g>
       <use xlink:href="#m35349cf5a4" x="53.328125" y="288.430125" style="stroke: #000000; stroke-width: 0.8"/>
      </g>
     </g>
     <g id="text_8">
      <!-- 0 -->
      <g transform="translate(39.965625 292.229344) scale(0.1 -0.1)">
       <use xlink:href="#DejaVuSans-30"/>
      </g>
     </g>
    </g>
    <g id="ytick_2">
     <g id="line2d_8">
      <g>
       <use xlink:href="#m35349cf5a4" x="53.328125" y="252.948525" style="stroke: #000000; stroke-width: 0.8"/>
      </g>
     </g>
     <g id="text_9">
      <!-- 200 -->
      <g transform="translate(27.240625 256.747744) scale(0.1 -0.1)">
       <use xlink:href="#DejaVuSans-32"/>
       <use xlink:href="#DejaVuSans-30" x="63.623047"/>
       <use xlink:href="#DejaVuSans-30" x="127.246094"/>
      </g>
     </g>
    </g>
    <g id="ytick_3">
     <g id="line2d_9">
      <g>
       <use xlink:href="#m35349cf5a4" x="53.328125" y="217.466925" style="stroke: #000000; stroke-width: 0.8"/>
      </g>
     </g>
     <g id="text_10">
      <!-- 400 -->
      <g transform="translate(27.240625 221.266144) scale(0.1 -0.1)">
       <use xlink:href="#DejaVuSans-34"/>
       <use xlink:href="#DejaVuSans-30" x="63.623047"/>
       <use xlink:href="#DejaVuSans-30" x="127.246094"/>
      </g>
     </g>
    </g>
    <g id="ytick_4">
     <g id="line2d_10">
      <g>
       <use xlink:href="#m35349cf5a4" x="53.328125" y="181.985325" style="stroke: #000000; stroke-width: 0.8"/>
      </g>
     </g>
     <g id="text_11">
      <!-- 600 -->
      <g transform="translate(27.240625 185.784544) scale(0.1 -0.1)">
       <use xlink:href="#DejaVuSans-36"/>
       <use xlink:href="#DejaVuSans-30" x="63.623047"/>
       <use xlink:href="#DejaVuSans-30" x="127.246094"/>
      </g>
     </g>
    </g>
    <g id="ytick_5">
     <g id="line2d_11">
      <g>
       <use xlink:href="#m35349cf5a4" x="53.328125" y="146.503725" style="stroke: #000000; stroke-width: 0.8"/>
      </g>
     </g>
     <g id="text_12">
      <!-- 800 -->
      <g transform="translate(27.240625 150.302944) scale(0.1 -0.1)">
       <use xlink:href="#DejaVuSans-38"/>
       <use xlink:href="#DejaVuSans-30" x="63.623047"/>
       <use xlink:href="#DejaVuSans-30" x="127.246094"/>
      </g>
     </g>
    </g>
    <g id="ytick_6">
     <g id="line2d_12">
      <g>
       <use xlink:href="#m35349cf5a4" x="53.328125" y="111.022125" style="stroke: #000000; stroke-width: 0.8"/>
      </g>
     </g>
     <g id="text_13">
      <!-- 1000 -->
      <g transform="translate(20.878125 114.821344) scale(0.1 -0.1)">
       <use xlink:href="#DejaVuSans-31"/>
       <use xlink:href="#DejaVuSans-30" x="63.623047"/>
       <use xlink:href="#DejaVuSans-30" x="127.246094"/>
       <use xlink:href="#DejaVuSans-30" x="190.869141"/>
      </g>
     </g>
    </g>
    <g id="ytick_7">
     <g id="line2d_13">
      <g>
       <use xlink:href="#m35349cf5a4" x="53.328125" y="75.540525" style="stroke: #000000; stroke-width: 0.8"/>
      </g>
     </g>
     <g id="text_14">
      <!-- 1200 -->
      <g transform="translate(20.878125 79.339744) scale(0.1 -0.1)">
       <use xlink:href="#DejaVuSans-31"/>
       <use xlink:href="#DejaVuSans-32" x="63.623047"/>
       <use xlink:href="#DejaVuSans-30" x="127.246094"/>
       <use xlink:href="#DejaVuSans-30" x="190.869141"/>
      </g>
     </g>
    </g>
    <g id="ytick_8">
     <g id="line2d_14">
      <g>
       <use xlink:href="#m35349cf5a4" x="53.328125" y="40.058925" style="stroke: #000000; stroke-width: 0.8"/>
      </g>
     </g>
     <g id="text_15">
      <!-- 1400 -->
      <g transform="translate(20.878125 43.858144) scale(0.1 -0.1)">
       <use xlink:href="#DejaVuSans-31"/>
       <use xlink:href="#DejaVuSans-34" x="63.623047"/>
       <use xlink:href="#DejaVuSans-30" x="127.246094"/>
       <use xlink:href="#DejaVuSans-30" x="190.869141"/>
      </g>
     </g>
    </g>
    <g id="text_16">
     <!-- Stress(MPa) -->
     <g transform="translate(14.798438 184.806937) rotate(-90) scale(0.1 -0.1)">
      <defs>
       <path id="DejaVuSans-65" d="M 3597 1894 
L 3597 1613 
L 953 1613 
Q 991 1019 1311 708 
Q 1631 397 2203 397 
Q 2534 397 2845 478 
Q 3156 559 3463 722 
L 3463 178 
Q 3153 47 2828 -22 
Q 2503 -91 2169 -91 
Q 1331 -91 842 396 
Q 353 884 353 1716 
Q 353 2575 817 3079 
Q 1281 3584 2069 3584 
Q 2775 3584 3186 3129 
Q 3597 2675 3597 1894 
z
M 3022 2063 
Q 3016 2534 2758 2815 
Q 2500 3097 2075 3097 
Q 1594 3097 1305 2825 
Q 1016 2553 972 2059 
L 3022 2063 
z
" transform="scale(0.015625)"/>
       <path id="DejaVuSans-73" d="M 2834 3397 
L 2834 2853 
Q 2591 2978 2328 3040 
Q 2066 3103 1784 3103 
Q 1356 3103 1142 2972 
Q 928 2841 928 2578 
Q 928 2378 1081 2264 
Q 1234 2150 1697 2047 
L 1894 2003 
Q 2506 1872 2764 1633 
Q 3022 1394 3022 966 
Q 3022 478 2636 193 
Q 2250 -91 1575 -91 
Q 1294 -91 989 -36 
Q 684 19 347 128 
L 347 722 
Q 666 556 975 473 
Q 1284 391 1588 391 
Q 1994 391 2212 530 
Q 2431 669 2431 922 
Q 2431 1156 2273 1281 
Q 2116 1406 1581 1522 
L 1381 1569 
Q 847 1681 609 1914 
Q 372 2147 372 2553 
Q 372 3047 722 3315 
Q 1072 3584 1716 3584 
Q 2034 3584 2315 3537 
Q 2597 3491 2834 3397 
z
" transform="scale(0.015625)"/>
       <path id="DejaVuSans-4d" d="M 628 4666 
L 1569 4666 
L 2759 1491 
L 3956 4666 
L 4897 4666 
L 4897 0 
L 4281 0 
L 4281 4097 
L 3078 897 
L 2444 897 
L 1241 4097 
L 1241 0 
L 628 0 
L 628 4666 
z
" transform="scale(0.015625)"/>
       <path id="DejaVuSans-50" d="M 1259 4147 
L 1259 2394 
L 2053 2394 
Q 2494 2394 2734 2622 
Q 2975 2850 2975 3272 
Q 2975 3691 2734 3919 
Q 2494 4147 2053 4147 
L 1259 4147 
z
M 628 4666 
L 2053 4666 
Q 2838 4666 3239 4311 
Q 3641 3956 3641 3272 
Q 3641 2581 3239 2228 
Q 2838 1875 2053 1875 
L 1259 1875 
L 1259 0 
L 628 0 
L 628 4666 
z
" transform="scale(0.015625)"/>
      </defs>
      <use xlink:href="#DejaVuSans-53"/>
      <use xlink:href="#DejaVuSans-74" x="63.476562"/>
      <use xlink:href="#DejaVuSans-72" x="102.685547"/>
      <use xlink:href="#DejaVuSans-65" x="141.548828"/>
      <use xlink:href="#DejaVuSans-73" x="203.072266"/>
      <use xlink:href="#DejaVuSans-73" x="255.171875"/>
      <use xlink:href="#DejaVuSans-28" x="307.271484"/>
      <use xlink:href="#DejaVuSans-4d" x="346.285156"/>
      <use xlink:href="#DejaVuSans-50" x="432.564453"/>
      <use xlink:href="#DejaVuSans-61" x="488.367188"/>
      <use xlink:href="#DejaVuSans-29" x="549.646484"/>
     </g>
    </g>
   </g>
   <g id="line2d_15">
    <path d="M 56.863967 288.430125 
L 58.889194 288.603981 
L 60.914456 277.406245 
L 62.939718 275.790554 
L 64.964946 269.202823 
L 66.990208 274.868201 
L 69.015469 269.128516 
L 71.040732 260.818317 
L 73.065993 247.1192 
L 75.091187 237.166261 
L 77.116449 253.461179 
L 79.14171 255.023507 
L 81.166972 239.065308 
L 83.192233 249.322214 
L 85.217462 226.535339 
L 87.242724 242.880355 
L 89.267985 227.227035 
L 91.293249 220.568491 
L 93.31851 227.583306 
L 95.343702 225.997466 
L 97.368964 222.04608 
L 99.394227 243.94849 
L 101.419486 230.84409 
L 103.44475 220.936631 
L 105.470014 222.725481 
L 107.495241 217.346718 
L 109.520499 208.867485 
L 111.545763 226.993079 
L 113.571027 213.22156 
L 115.596285 220.751715 
L 117.621481 210.643573 
L 119.646744 222.896969 
L 121.672003 200.976235 
L 123.697267 212.732989 
L 125.722531 216.605907 
L 127.747758 209.668315 
L 129.773016 217.707351 
L 131.79828 205.39736 
L 133.823544 200.632595 
L 135.848802 218.606647 
L 137.873998 214.101618 
L 139.899261 201.34235 
L 141.92452 211.965671 
L 143.949784 204.220731 
L 145.975048 205.674375 
L 148.000274 208.932964 
L 150.025533 206.375988 
L 152.050792 196.105385 
L 154.076061 214.571399 
L 156.101319 210.64917 
L 158.126546 217.704542 
L 160.151773 194.924329 
L 162.177032 221.697364 
L 164.202301 194.134666 
L 166.227559 202.608804 
L 168.252786 203.388598 
L 170.278055 205.809159 
L 172.303314 196.731443 
L 174.328572 197.380997 
L 176.353831 194.275345 
L 178.379068 194.419462 
L 180.404295 196.591619 
L 182.429554 191.921012 
L 184.454812 185.260841 
L 186.480081 217.519672 
L 188.505308 209.263691 
L 190.530567 195.173936 
L 192.555825 198.628203 
L 194.581095 208.256863 
L 196.606353 196.005931 
L 198.63158 196.355252 
L 200.656839 182.446315 
L 202.682066 194.493071 
L 204.707335 202.7605 
L 206.732593 187.076607 
L 208.75782 206.439014 
L 210.783079 190.951901 
L 212.808348 198.888801 
L 214.833606 175.165913 
L 216.858865 183.039891 
L 218.884092 182.73697 
L 220.909361 196.555083 
L 222.934619 202.304762 
L 224.959846 196.214736 
L 226.985105 209.194437 
L 229.010332 193.182408 
L 231.035601 200.578118 
L 233.060859 189.489313 
L 235.086129 190.463947 
L 237.111377 182.428688 
L 239.136603 194.632299 
L 241.161873 198.711894 
L 243.187142 194.808672 
L 245.212369 174.580295 
L 247.237617 186.699539 
L 249.262843 189.068142 
L 251.288113 162.744507 
L 253.313382 180.7646 
L 255.33863 168.511408 
L 257.363899 182.740914 
L 259.389126 179.657094 
L 261.414395 171.146758 
L 263.439643 160.076416 
L 265.464912 175.039109 
L 267.490139 162.505027 
L 269.515366 174.881434 
L 271.540635 173.086383 
L 273.565883 179.003886 
L 275.59111 171.425172 
L 277.616421 167.169449 
L 279.641648 177.535375 
L 281.666938 179.874194 
L 283.692165 170.012809 
L 285.717392 163.776638 
L 287.742619 159.420852 
L 289.767909 158.429022 
L 291.793157 164.807837 
L 293.818447 152.3132 
L 295.843674 155.830317 
L 297.868901 153.053468 
L 299.894191 172.010121 
L 301.919418 164.038325 
L 303.944708 146.561436 
L 305.969935 152.742093 
L 307.995183 157.681574 
L 310.02041 152.303363 
L 312.0457 134.266879 
L 314.070927 152.689033 
L 316.096217 149.174908 
L 318.121444 146.681219 
L 320.146671 156.961118 
L 322.171961 137.557215 
L 324.197209 152.659307 
L 326.222436 145.024223 
L 328.247663 139.629729 
L 330.272953 137.849936 
L 332.29818 136.678808 
L 334.323471 136.112426 
L 336.348698 125.819809 
L 338.374009 122.565229 
L 340.399236 126.620739 
L 342.424463 130.386461 
L 344.449753 125.550918 
L 346.474916 103.503065 
L 348.500207 117.994294 
L 350.525434 117.066928 
L 352.550724 113.107868 
L 354.575951 114.213179 
L 356.601262 104.805915 
L 358.626489 101.397796 
L 360.651779 84.132812 
L 362.677006 94.111219 
L 364.702233 88.558326 
L 366.727523 76.971919 
L 368.752687 74.804273 
L 370.777977 80.283836 
L 372.803204 90.7056 
L 374.828515 86.200521 
L 376.853742 74.503746 
L 378.879032 47.206256 
L 380.904259 54.738399 
L 382.929549 39.070267 
L 384.954776 43.636508 
L 386.97994 23.643627 
L 389.00523 11.659104 
L 391.030457 6.605511 
L 393.055768 7.8854 
L 395.080995 2.155158 
L 397.106285 0.370481 
L 397.234395 -1 
L 397.234395 -1 
" clip-path="url(#pcdf49975f0)" style="fill: none; stroke: #1f77b4; stroke-width: 1.5; stroke-linecap: square"/>
   </g>
   <g id="line2d_16">
    <path d="M 56.863967 288.430125 
L 58.865692 285.77538 
L 60.867383 261.996103 
L 62.86904 268.911334 
L 64.870765 256.966179 
L 66.872456 257.331601 
L 68.874148 248.087486 
L 70.875872 249.726218 
L 72.877563 239.1519 
L 74.879288 224.001511 
L 76.880979 242.622523 
L 78.882671 236.878243 
L 82.886086 236.401429 
L 84.887811 235.619912 
L 86.889468 216.854616 
L 88.891159 220.442207 
L 90.892885 237.314395 
L 92.894576 237.305927 
L 94.896267 230.405278 
L 96.897992 225.491744 
L 98.899683 215.765717 
L 100.901409 197.105947 
L 102.9031 221.815557 
L 104.904791 220.528541 
L 106.906514 222.971232 
L 108.908173 199.711058 
L 110.909864 205.21323 
L 112.911587 198.949871 
L 114.913278 208.951784 
L 116.915006 207.862948 
L 118.916697 196.300166 
L 120.918389 226.577781 
L 122.920111 215.767834 
L 124.921802 216.931933 
L 126.923531 214.467684 
L 128.925222 227.695478 
L 130.926913 230.965994 
L 132.928604 233.720445 
L 134.930295 215.905993 
L 136.931986 219.247842 
L 138.933709 215.041413 
L 140.9354 207.850886 
L 142.937128 208.922296 
L 144.938819 213.819258 
L 146.940505 222.152639 
L 148.942233 205.953457 
L 150.943919 212.123392 
L 152.945615 215.410148 
L 154.947343 194.299352 
L 158.950726 208.74003 
L 160.952412 199.157915 
L 162.954108 195.721007 
L 164.955825 195.634244 
L 166.957522 189.349464 
L 168.959208 214.968255 
L 170.960936 207.754629 
L 172.962632 217.699156 
L 174.96435 205.853961 
L 176.966046 215.791155 
L 178.9677 194.669693 
L 180.969428 205.761092 
L 182.971114 198.960661 
L 184.972842 198.537388 
L 186.974539 201.561891 
L 188.976225 188.962124 
L 190.977953 203.237262 
L 192.979638 212.675394 
L 194.981335 199.042048 
L 196.983052 208.268146 
L 198.984749 204.319468 
L 200.986477 202.731601 
L 202.988131 213.061391 
L 204.989827 221.332037 
L 206.991545 213.123832 
L 208.993241 191.021774 
L 210.994927 211.497153 
L 212.996655 202.955732 
L 214.998341 207.414182 
L 217.000069 194.992207 
L 219.001765 190.44457 
L 221.003451 176.396703 
L 223.005179 177.396865 
L 225.006865 187.27952 
L 227.008562 190.391167 
L 229.010247 183.322043 
L 231.011944 194.931635 
L 233.013672 158.352283 
L 235.015358 171.189505 
L 237.017044 160.030859 
L 239.018772 179.715667 
L 241.020458 173.189875 
L 243.022186 179.663207 
L 245.023871 177.888313 
L 247.025578 160.14335 
L 249.027306 172.10191 
L 251.02895 171.676213 
L 253.030636 164.448415 
L 255.032364 176.00165 
L 257.034071 173.882936 
L 259.035778 181.052365 
L 261.037485 170.97178 
L 263.039171 172.466385 
L 265.040899 180.510357 
L 267.042585 157.363463 
L 269.044313 179.075905 
L 271.045977 186.134869 
L 273.047663 188.323086 
L 275.049412 193.15621 
L 277.051119 177.104272 
L 279.052805 189.261245 
L 281.054491 192.965017 
L 283.056177 172.955534 
L 285.057947 182.765202 
L 287.05957 173.397018 
L 289.061256 180.171919 
L 291.063005 164.313487 
L 293.064712 189.751557 
L 295.066398 178.400965 
L 297.068083 177.235522 
L 299.069769 166.187099 
L 301.071539 175.210119 
L 303.073225 171.913581 
L 305.074911 157.256519 
L 307.076618 163.723905 
L 309.078304 157.42028 
L 311.07999 166.45026 
L 313.081676 153.267879 
L 315.083446 136.316867 
L 317.085132 143.305393 
L 319.086818 133.732042 
L 321.088525 140.734199 
L 323.09021 139.378204 
L 325.09196 122.460976 
L 327.093667 132.989978 
L 329.095352 112.753971 
L 331.097038 103.429747 
L 333.098661 113.851035 
L 335.100431 94.100632 
L 337.102117 97.605665 
L 339.103803 123.145622 
L 341.105489 104.80475 
L 343.107196 113.531538 
L 345.108881 110.773442 
L 347.110631 101.933867 
L 349.112338 107.770416 
L 351.114023 85.562896 
L 353.115709 89.372009 
L 355.117395 87.866617 
L 357.119165 74.558214 
L 359.120851 76.158186 
L 361.122537 82.961972 
L 363.124244 56.861713 
L 365.12593 57.855401 
L 367.127679 44.241408 
L 369.129386 45.919158 
L 371.131072 51.149942 
L 373.132758 36.038358 
L 375.134444 49.844194 
L 377.136214 47.032687 
L 379.1379 35.887893 
L 381.139522 15.145388 
L 383.141208 1.906678 
L 385.142915 6.495332 
L 386.063297 -1 
L 386.063297 -1 
" clip-path="url(#pcdf49975f0)" style="fill: none; stroke: #ff7f0e; stroke-width: 1.5; stroke-linecap: square"/>
   </g>
   <g id="line2d_17">
    <path d="M 56.863967 288.430125 
L 58.557166 280.504239 
L 60.250365 280.531702 
L 61.943564 272.288708 
L 63.636764 275.248445 
L 65.329932 273.566398 
L 67.023131 269.283696 
L 68.716362 274.714999 
L 70.409562 263.394578 
L 72.102761 273.810964 
L 73.795961 255.765999 
L 75.48916 257.923503 
L 77.182328 244.860539 
L 78.875527 239.157455 
L 80.568727 247.713398 
L 82.261958 247.230318 
L 83.955157 248.701825 
L 85.648357 226.78319 
L 87.341524 237.584363 
L 89.034724 249.329077 
L 90.727923 243.560665 
L 92.421123 224.790241 
L 94.114322 226.220439 
L 95.807553 233.036489 
L 97.50075 217.854787 
L 99.19392 234.772 
L 100.88712 236.341269 
L 102.580316 234.701742 
L 104.273519 215.326585 
L 105.966715 206.177502 
L 107.659917 218.497156 
L 109.353146 214.078984 
L 111.046316 217.225449 
L 112.739513 217.111046 
L 114.432715 225.240091 
L 116.125912 215.970315 
L 117.819114 229.899493 
L 119.512311 222.645933 
L 121.205481 223.898923 
L 122.898709 227.091022 
L 124.591911 234.593958 
L 126.285108 213.656332 
L 127.97831 220.780735 
L 129.671507 220.715085 
L 131.364709 211.153099 
L 133.057874 220.755064 
L 134.751076 216.825226 
L 136.444305 218.86109 
L 138.137507 206.639621 
L 139.830704 218.625172 
L 141.523906 215.542035 
L 143.217071 207.247977 
L 144.910273 220.12224 
L 146.60347 212.866081 
L 148.296666 214.749157 
L 149.989905 209.61927 
L 151.683102 206.786569 
L 153.376299 210.289465 
L 155.069464 236.386761 
L 156.762671 212.00209 
L 158.455868 212.345816 
L 160.149065 212.354108 
L 161.842262 200.052005 
L 163.53549 198.90823 
L 165.228697 193.781644 
L 166.921863 204.553805 
L 168.615059 177.673531 
L 170.308267 186.933368 
L 172.001463 203.629908 
L 173.69466 202.168033 
L 175.387857 202.849782 
L 177.081054 199.182284 
L 178.774261 188.289802 
L 180.467458 175.334611 
L 182.160655 193.086604 
L 183.853851 194.000055 
L 185.547059 182.442672 
L 187.240255 188.861218 
L 188.933421 180.72223 
L 190.626649 190.155398 
L 192.319856 186.93511 
L 194.013053 182.802835 
L 195.70625 189.462927 
L 197.399447 167.397231 
L 199.092654 168.574473 
L 200.785819 188.89672 
L 202.479016 161.644588 
L 204.172244 155.285897 
L 205.865452 186.865326 
L 207.558648 156.014001 
L 209.251845 174.99295 
L 210.94501 166.374858 
L 212.638218 165.755365 
L 214.331414 170.406689 
L 216.024611 168.712788 
L 217.71784 173.030921 
L 219.411047 169.027921 
L 221.104244 152.846659 
L 222.797409 156.705821 
L 224.490637 188.199323 
L 226.183813 176.724292 
L 227.877041 177.120607 
L 229.570207 182.997766 
L 231.263435 176.778733 
L 232.956611 157.837713 
L 234.649765 183.225914 
L 236.343015 152.487191 
L 238.036243 158.930088 
L 239.729408 163.615158 
L 241.422637 178.781545 
L 243.115802 163.822692 
L 244.808967 169.206914 
L 248.195361 173.838294 
L 249.88861 141.977612 
L 251.581838 153.105992 
L 253.275004 160.190115 
L 254.968169 162.394217 
L 256.661397 159.936427 
L 258.354562 153.357377 
L 260.047791 171.400051 
L 261.740956 159.787384 
L 263.434205 160.891629 
L 265.127434 174.181597 
L 266.820599 161.82417 
L 268.513827 166.994759 
L 270.206992 155.709728 
L 271.900221 148.30276 
L 273.593323 149.687899 
L 275.286551 140.08135 
L 276.979737 118.892175 
L 278.672966 104.742056 
L 280.366194 111.932981 
L 282.059359 117.892173 
L 283.752588 126.081559 
L 285.445753 117.89415 
L 287.138981 118.99488 
L 288.832146 115.056484 
L 290.525375 101.838987 
L 292.218624 100.944176 
L 293.91179 97.930617 
L 295.604955 90.315591 
L 297.29812 81.719174 
L 298.991348 91.490804 
L 300.684513 98.396641 
L 302.377742 79.337534 
L 304.070907 77.257743 
L 305.764156 67.837068 
L 307.457385 66.885973 
L 309.15055 59.68262 
L 310.843778 45.34102 
L 312.536944 41.182336 
L 314.230172 31.855007 
L 315.923337 25.604768 
L 317.616565 25.913793 
L 319.309752 32.194305 
L 321.002917 30.387541 
L 322.696145 10.893031 
L 324.38931 6.486936 
L 326.082539 12.196825 
L 327.298683 -1 
L 327.298683 -1 
" clip-path="url(#pcdf49975f0)" style="fill: none; stroke: #2ca02c; stroke-width: 1.5; stroke-linecap: square"/>
   </g>
   <g id="patch_3">
    <path d="M 53.328125 288.430125 
L 53.328125 22.318125 
" style="fill: none; stroke: #000000; stroke-width: 0.8; stroke-linejoin: miter; stroke-linecap: square"/>
   </g>
   <g id="patch_4">
    <path d="M 410.448125 288.430125 
L 410.448125 22.318125 
" style="fill: none; stroke: #000000; stroke-width: 0.8; stroke-linejoin: miter; stroke-linecap: square"/>
   </g>
   <g id="patch_5">
    <path d="M 53.328125 288.430125 
L 410.448125 288.430125 
" style="fill: none; stroke: #000000; stroke-width: 0.8; stroke-linejoin: miter; stroke-linecap: square"/>
   </g>
   <g id="patch_6">
    <path d="M 53.328125 22.318125 
L 410.448125 22.318125 
" style="fill: none; stroke: #000000; stroke-width: 0.8; stroke-linejoin: miter; stroke-linecap: square"/>
   </g>
   <g id="text_17">
    <!-- Stress-Strain Curve -->
    <g transform="translate(173.904688 16.318125) scale(0.12 -0.12)">
     <defs>
      <path id="DejaVuSans-2d" d="M 313 2009 
L 1997 2009 
L 1997 1497 
L 313 1497 
L 313 2009 
z
" transform="scale(0.015625)"/>
      <path id="DejaVuSans-20" transform="scale(0.015625)"/>
      <path id="DejaVuSans-43" d="M 4122 4306 
L 4122 3641 
Q 3803 3938 3442 4084 
Q 3081 4231 2675 4231 
Q 1875 4231 1450 3742 
Q 1025 3253 1025 2328 
Q 1025 1406 1450 917 
Q 1875 428 2675 428 
Q 3081 428 3442 575 
Q 3803 722 4122 1019 
L 4122 359 
Q 3791 134 3420 21 
Q 3050 -91 2638 -91 
Q 1578 -91 968 557 
Q 359 1206 359 2328 
Q 359 3453 968 4101 
Q 1578 4750 2638 4750 
Q 3056 4750 3426 4639 
Q 3797 4528 4122 4306 
z
" transform="scale(0.015625)"/>
      <path id="DejaVuSans-75" d="M 544 1381 
L 544 3500 
L 1119 3500 
L 1119 1403 
Q 1119 906 1312 657 
Q 1506 409 1894 409 
Q 2359 409 2629 706 
Q 2900 1003 2900 1516 
L 2900 3500 
L 3475 3500 
L 3475 0 
L 2900 0 
L 2900 538 
Q 2691 219 2414 64 
Q 2138 -91 1772 -91 
Q 1169 -91 856 284 
Q 544 659 544 1381 
z
M 1991 3584 
L 1991 3584 
z
" transform="scale(0.015625)"/>
      <path id="DejaVuSans-76" d="M 191 3500 
L 800 3500 
L 1894 563 
L 2988 3500 
L 3597 3500 
L 2284 0 
L 1503 0 
L 191 3500 
z
" transform="scale(0.015625)"/>
     </defs>
     <use xlink:href="#DejaVuSans-53"/>
     <use xlink:href="#DejaVuSans-74" x="63.476562"/>
     <use xlink:href="#DejaVuSans-72" x="102.685547"/>
     <use xlink:href="#DejaVuSans-65" x="141.548828"/>
     <use xlink:href="#DejaVuSans-73" x="203.072266"/>
     <use xlink:href="#DejaVuSans-73" x="255.171875"/>
     <use xlink:href="#DejaVuSans-2d" x="307.271484"/>
     <use xlink:href="#DejaVuSans-53" x="343.355469"/>
     <use xlink:href="#DejaVuSans-74" x="406.832031"/>
     <use xlink:href="#DejaVuSans-72" x="446.041016"/>
     <use xlink:href="#DejaVuSans-61" x="487.154297"/>
     <use xlink:href="#DejaVuSans-69" x="548.433594"/>
     <use xlink:href="#DejaVuSans-6e" x="576.216797"/>
     <use xlink:href="#DejaVuSans-20" x="639.595703"/>
     <use xlink:href="#DejaVuSans-43" x="671.382812"/>
     <use xlink:href="#DejaVuSans-75" x="741.207031"/>
     <use xlink:href="#DejaVuSans-72" x="804.585938"/>
     <use xlink:href="#DejaVuSans-76" x="845.699219"/>
     <use xlink:href="#DejaVuSans-65" x="904.878906"/>
    </g>
   </g>
   <g id="legend_1">
    <g id="patch_7">
     <path d="M 82.16725 101.798075 
L 153.464125 101.798075 
Q 155.464125 101.798075 155.464125 99.798075 
L 155.464125 55.929325 
Q 155.464125 53.929325 153.464125 53.929325 
L 82.16725 53.929325 
Q 80.16725 53.929325 80.16725 55.929325 
L 80.16725 99.798075 
Q 80.16725 101.798075 82.16725 101.798075 
z
" style="fill: #ffffff; opacity: 0.8; stroke: #cccccc; stroke-linejoin: miter"/>
    </g>
    <g id="line2d_18">
     <path d="M 84.16725 62.027762 
L 94.16725 62.027762 
L 104.16725 62.027762 
" style="fill: none; stroke: #1f77b4; stroke-width: 1.5; stroke-linecap: square"/>
    </g>
    <g id="text_18">
     <!-- TS1M_X -->
     <g transform="translate(112.16725 65.527762) scale(0.1 -0.1)">
      <defs>
       <path id="DejaVuSans-54" d="M -19 4666 
L 3928 4666 
L 3928 4134 
L 2272 4134 
L 2272 0 
L 1638 0 
L 1638 4134 
L -19 4134 
L -19 4666 
z
" transform="scale(0.015625)"/>
       <path id="DejaVuSans-5f" d="M 3263 -1063 
L 3263 -1509 
L -63 -1509 
L -63 -1063 
L 3263 -1063 
z
" transform="scale(0.015625)"/>
       <path id="DejaVuSans-58" d="M 403 4666 
L 1081 4666 
L 2241 2931 
L 3406 4666 
L 4084 4666 
L 2584 2425 
L 4184 0 
L 3506 0 
L 2194 1984 
L 872 0 
L 191 0 
L 1856 2491 
L 403 4666 
z
" transform="scale(0.015625)"/>
      </defs>
      <use xlink:href="#DejaVuSans-54"/>
      <use xlink:href="#DejaVuSans-53" x="61.083984"/>
      <use xlink:href="#DejaVuSans-31" x="124.560547"/>
      <use xlink:href="#DejaVuSans-4d" x="188.183594"/>
      <use xlink:href="#DejaVuSans-5f" x="274.462891"/>
      <use xlink:href="#DejaVuSans-58" x="324.462891"/>
     </g>
    </g>
    <g id="line2d_19">
     <path d="M 84.16725 76.984012 
L 94.16725 76.984012 
L 104.16725 76.984012 
" style="fill: none; stroke: #ff7f0e; stroke-width: 1.5; stroke-linecap: square"/>
    </g>
    <g id="text_19">
     <!-- TS1M_Y -->
     <g transform="translate(112.16725 80.484012) scale(0.1 -0.1)">
      <defs>
       <path id="DejaVuSans-59" d="M -13 4666 
L 666 4666 
L 1959 2747 
L 3244 4666 
L 3922 4666 
L 2272 2222 
L 2272 0 
L 1638 0 
L 1638 2222 
L -13 4666 
z
" transform="scale(0.015625)"/>
      </defs>
      <use xlink:href="#DejaVuSans-54"/>
      <use xlink:href="#DejaVuSans-53" x="61.083984"/>
      <use xlink:href="#DejaVuSans-31" x="124.560547"/>
      <use xlink:href="#DejaVuSans-4d" x="188.183594"/>
      <use xlink:href="#DejaVuSans-5f" x="274.462891"/>
      <use xlink:href="#DejaVuSans-59" x="324.462891"/>
     </g>
    </g>
    <g id="line2d_20">
     <path d="M 84.16725 91.940262 
L 94.16725 91.940262 
L 104.16725 91.940262 
" style="fill: none; stroke: #2ca02c; stroke-width: 1.5; stroke-linecap: square"/>
    </g>
    <g id="text_20">
     <!-- TS1M_Z -->
     <g transform="translate(112.16725 95.440262) scale(0.1 -0.1)">
      <defs>
       <path id="DejaVuSans-5a" d="M 359 4666 
L 4025 4666 
L 4025 4184 
L 1075 531 
L 4097 531 
L 4097 0 
L 288 0 
L 288 481 
L 3238 4134 
L 359 4134 
L 359 4666 
z
" transform="scale(0.015625)"/>
      </defs>
      <use xlink:href="#DejaVuSans-54"/>
      <use xlink:href="#DejaVuSans-53" x="61.083984"/>
      <use xlink:href="#DejaVuSans-31" x="124.560547"/>
      <use xlink:href="#DejaVuSans-4d" x="188.183594"/>
      <use xlink:href="#DejaVuSans-5f" x="274.462891"/>
      <use xlink:href="#DejaVuSans-5a" x="324.462891"/>
     </g>
    </g>
   </g>
  </g>
 </g>
 <defs>
  <clipPath id="pcdf49975f0">
   <rect x="53.328125" y="22.318125" width="357.12" height="266.112"/>
  </clipPath>
 </defs>
</svg>
