<?xml version="1.0" encoding="utf-8" standalone="no"?>
<!DOCTYPE svg PUBLIC "-//W3C//DTD SVG 1.1//EN"
  "http://www.w3.org/Graphics/SVG/1.1/DTD/svg11.dtd">
<svg xmlns:xlink="http://www.w3.org/1999/xlink" width="411.285625pt" height="310.86825pt" viewBox="0 0 411.285625 310.86825" xmlns="http://www.w3.org/2000/svg" version="1.1">
 <metadata>
  <rdf:RDF xmlns:dc="http://purl.org/dc/elements/1.1/" xmlns:cc="http://creativecommons.org/ns#" xmlns:rdf="http://www.w3.org/1999/02/22-rdf-syntax-ns#">
   <cc:Work>
    <dc:type rdf:resource="http://purl.org/dc/dcmitype/StillImage"/>
    <dc:date>2025-01-20T16:20:55.669466</dc:date>
    <dc:format>image/svg+xml</dc:format>
    <dc:creator>
     <cc:Agent>
      <dc:title>Matplotlib v3.9.0, https://matplotlib.org/</dc:title>
     </cc:Agent>
    </dc:creator>
   </cc:Work>
  </rdf:RDF>
 </metadata>
 <defs>
  <style type="text/css">*{stroke-linejoin: round; stroke-linecap: butt}</style>
 </defs>
 <g id="figure_1">
  <g id="patch_1">
   <path d="M 0 310.86825 
L 411.285625 310.86825 
L 411.285625 0 
L 0 0 
z
" style="fill: #ffffff"/>
  </g>
  <g id="axes_1">
   <g id="patch_2">
    <path d="M 46.965625 273.312 
L 404.085625 273.312 
L 404.085625 7.2 
L 46.965625 7.2 
z
" style="fill: #ffffff"/>
   </g>
   <g id="matplotlib.axis_1">
    <g id="xtick_1">
     <g id="line2d_1">
      <defs>
       <path id="m415ad80b95" d="M 0 0 
L 0 3.5 
" style="stroke: #000000; stroke-width: 0.8"/>
      </defs>
      <g>
       <use xlink:href="#m415ad80b95" x="50.125979" y="273.312" style="stroke: #000000; stroke-width: 0.8"/>
      </g>
     </g>
     <g id="text_1">
      <!-- 100 -->
      <g transform="translate(40.582229 287.910437) scale(0.1 -0.1)">
       <defs>
        <path id="DejaVuSans-31" d="M 794 531 
L 1825 531 
L 1825 4091 
L 703 3866 
L 703 4441 
L 1819 4666 
L 2450 4666 
L 2450 531 
L 3481 531 
L 3481 0 
L 794 0 
L 794 531 
z
" transform="scale(0.015625)"/>
        <path id="DejaVuSans-30" d="M 2034 4250 
Q 1547 4250 1301 3770 
Q 1056 3291 1056 2328 
Q 1056 1369 1301 889 
Q 1547 409 2034 409 
Q 2525 409 2770 889 
Q 3016 1369 3016 2328 
Q 3016 3291 2770 3770 
Q 2525 4250 2034 4250 
z
M 2034 4750 
Q 2819 4750 3233 4129 
Q 3647 3509 3647 2328 
Q 3647 1150 3233 529 
Q 2819 -91 2034 -91 
Q 1250 -91 836 529 
Q 422 1150 422 2328 
Q 422 3509 836 4129 
Q 1250 4750 2034 4750 
z
" transform="scale(0.015625)"/>
       </defs>
       <use xlink:href="#DejaVuSans-31"/>
       <use xlink:href="#DejaVuSans-30" x="63.623047"/>
       <use xlink:href="#DejaVuSans-30" x="127.246094"/>
      </g>
     </g>
    </g>
    <g id="xtick_2">
     <g id="line2d_2">
      <g>
       <use xlink:href="#m415ad80b95" x="113.333059" y="273.312" style="stroke: #000000; stroke-width: 0.8"/>
      </g>
     </g>
     <g id="text_2">
      <!-- 120 -->
      <g transform="translate(103.789309 287.910437) scale(0.1 -0.1)">
       <defs>
        <path id="DejaVuSans-32" d="M 1228 531 
L 3431 531 
L 3431 0 
L 469 0 
L 469 531 
Q 828 903 1448 1529 
Q 2069 2156 2228 2338 
Q 2531 2678 2651 2914 
Q 2772 3150 2772 3378 
Q 2772 3750 2511 3984 
Q 2250 4219 1831 4219 
Q 1534 4219 1204 4116 
Q 875 4013 500 3803 
L 500 4441 
Q 881 4594 1212 4672 
Q 1544 4750 1819 4750 
Q 2544 4750 2975 4387 
Q 3406 4025 3406 3419 
Q 3406 3131 3298 2873 
Q 3191 2616 2906 2266 
Q 2828 2175 2409 1742 
Q 1991 1309 1228 531 
z
" transform="scale(0.015625)"/>
       </defs>
       <use xlink:href="#DejaVuSans-31"/>
       <use xlink:href="#DejaVuSans-32" x="63.623047"/>
       <use xlink:href="#DejaVuSans-30" x="127.246094"/>
      </g>
     </g>
    </g>
    <g id="xtick_3">
     <g id="line2d_3">
      <g>
       <use xlink:href="#m415ad80b95" x="176.540138" y="273.312" style="stroke: #000000; stroke-width: 0.8"/>
      </g>
     </g>
     <g id="text_3">
      <!-- 140 -->
      <g transform="translate(166.996388 287.910437) scale(0.1 -0.1)">
       <defs>
        <path id="DejaVuSans-34" d="M 2419 4116 
L 825 1625 
L 2419 1625 
L 2419 4116 
z
M 2253 4666 
L 3047 4666 
L 3047 1625 
L 3713 1625 
L 3713 1100 
L 3047 1100 
L 3047 0 
L 2419 0 
L 2419 1100 
L 313 1100 
L 313 1709 
L 2253 4666 
z
" transform="scale(0.015625)"/>
       </defs>
       <use xlink:href="#DejaVuSans-31"/>
       <use xlink:href="#DejaVuSans-34" x="63.623047"/>
       <use xlink:href="#DejaVuSans-30" x="127.246094"/>
      </g>
     </g>
    </g>
    <g id="xtick_4">
     <g id="line2d_4">
      <g>
       <use xlink:href="#m415ad80b95" x="239.747218" y="273.312" style="stroke: #000000; stroke-width: 0.8"/>
      </g>
     </g>
     <g id="text_4">
      <!-- 160 -->
      <g transform="translate(230.203468 287.910437) scale(0.1 -0.1)">
       <defs>
        <path id="DejaVuSans-36" d="M 2113 2584 
Q 1688 2584 1439 2293 
Q 1191 2003 1191 1497 
Q 1191 994 1439 701 
Q 1688 409 2113 409 
Q 2538 409 2786 701 
Q 3034 994 3034 1497 
Q 3034 2003 2786 2293 
Q 2538 2584 2113 2584 
z
M 3366 4563 
L 3366 3988 
Q 3128 4100 2886 4159 
Q 2644 4219 2406 4219 
Q 1781 4219 1451 3797 
Q 1122 3375 1075 2522 
Q 1259 2794 1537 2939 
Q 1816 3084 2150 3084 
Q 2853 3084 3261 2657 
Q 3669 2231 3669 1497 
Q 3669 778 3244 343 
Q 2819 -91 2113 -91 
Q 1303 -91 875 529 
Q 447 1150 447 2328 
Q 447 3434 972 4092 
Q 1497 4750 2381 4750 
Q 2619 4750 2861 4703 
Q 3103 4656 3366 4563 
z
" transform="scale(0.015625)"/>
       </defs>
       <use xlink:href="#DejaVuSans-31"/>
       <use xlink:href="#DejaVuSans-36" x="63.623047"/>
       <use xlink:href="#DejaVuSans-30" x="127.246094"/>
      </g>
     </g>
    </g>
    <g id="xtick_5">
     <g id="line2d_5">
      <g>
       <use xlink:href="#m415ad80b95" x="302.954298" y="273.312" style="stroke: #000000; stroke-width: 0.8"/>
      </g>
     </g>
     <g id="text_5">
      <!-- 180 -->
      <g transform="translate(293.410548 287.910437) scale(0.1 -0.1)">
       <defs>
        <path id="DejaVuSans-38" d="M 2034 2216 
Q 1584 2216 1326 1975 
Q 1069 1734 1069 1313 
Q 1069 891 1326 650 
Q 1584 409 2034 409 
Q 2484 409 2743 651 
Q 3003 894 3003 1313 
Q 3003 1734 2745 1975 
Q 2488 2216 2034 2216 
z
M 1403 2484 
Q 997 2584 770 2862 
Q 544 3141 544 3541 
Q 544 4100 942 4425 
Q 1341 4750 2034 4750 
Q 2731 4750 3128 4425 
Q 3525 4100 3525 3541 
Q 3525 3141 3298 2862 
Q 3072 2584 2669 2484 
Q 3125 2378 3379 2068 
Q 3634 1759 3634 1313 
Q 3634 634 3220 271 
Q 2806 -91 2034 -91 
Q 1263 -91 848 271 
Q 434 634 434 1313 
Q 434 1759 690 2068 
Q 947 2378 1403 2484 
z
M 1172 3481 
Q 1172 3119 1398 2916 
Q 1625 2713 2034 2713 
Q 2441 2713 2670 2916 
Q 2900 3119 2900 3481 
Q 2900 3844 2670 4047 
Q 2441 4250 2034 4250 
Q 1625 4250 1398 4047 
Q 1172 3844 1172 3481 
z
" transform="scale(0.015625)"/>
       </defs>
       <use xlink:href="#DejaVuSans-31"/>
       <use xlink:href="#DejaVuSans-38" x="63.623047"/>
       <use xlink:href="#DejaVuSans-30" x="127.246094"/>
      </g>
     </g>
    </g>
    <g id="xtick_6">
     <g id="line2d_6">
      <g>
       <use xlink:href="#m415ad80b95" x="366.161377" y="273.312" style="stroke: #000000; stroke-width: 0.8"/>
      </g>
     </g>
     <g id="text_6">
      <!-- 200 -->
      <g transform="translate(356.617627 287.910437) scale(0.1 -0.1)">
       <use xlink:href="#DejaVuSans-32"/>
       <use xlink:href="#DejaVuSans-30" x="63.623047"/>
       <use xlink:href="#DejaVuSans-30" x="127.246094"/>
      </g>
     </g>
    </g>
    <g id="text_7">
     <!-- Strain(%) -->
     <g transform="translate(202.061563 301.588562) scale(0.1 -0.1)">
      <defs>
       <path id="DejaVuSans-53" d="M 3425 4513 
L 3425 3897 
Q 3066 4069 2747 4153 
Q 2428 4238 2131 4238 
Q 1616 4238 1336 4038 
Q 1056 3838 1056 3469 
Q 1056 3159 1242 3001 
Q 1428 2844 1947 2747 
L 2328 2669 
Q 3034 2534 3370 2195 
Q 3706 1856 3706 1288 
Q 3706 609 3251 259 
Q 2797 -91 1919 -91 
Q 1588 -91 1214 -16 
Q 841 59 441 206 
L 441 856 
Q 825 641 1194 531 
Q 1563 422 1919 422 
Q 2459 422 2753 634 
Q 3047 847 3047 1241 
Q 3047 1584 2836 1778 
Q 2625 1972 2144 2069 
L 1759 2144 
Q 1053 2284 737 2584 
Q 422 2884 422 3419 
Q 422 4038 858 4394 
Q 1294 4750 2059 4750 
Q 2388 4750 2728 4690 
Q 3069 4631 3425 4513 
z
" transform="scale(0.015625)"/>
       <path id="DejaVuSans-74" d="M 1172 4494 
L 1172 3500 
L 2356 3500 
L 2356 3053 
L 1172 3053 
L 1172 1153 
Q 1172 725 1289 603 
Q 1406 481 1766 481 
L 2356 481 
L 2356 0 
L 1766 0 
Q 1100 0 847 248 
Q 594 497 594 1153 
L 594 3053 
L 172 3053 
L 172 3500 
L 594 3500 
L 594 4494 
L 1172 4494 
z
" transform="scale(0.015625)"/>
       <path id="DejaVuSans-72" d="M 2631 2963 
Q 2534 3019 2420 3045 
Q 2306 3072 2169 3072 
Q 1681 3072 1420 2755 
Q 1159 2438 1159 1844 
L 1159 0 
L 581 0 
L 581 3500 
L 1159 3500 
L 1159 2956 
Q 1341 3275 1631 3429 
Q 1922 3584 2338 3584 
Q 2397 3584 2469 3576 
Q 2541 3569 2628 3553 
L 2631 2963 
z
" transform="scale(0.015625)"/>
       <path id="DejaVuSans-61" d="M 2194 1759 
Q 1497 1759 1228 1600 
Q 959 1441 959 1056 
Q 959 750 1161 570 
Q 1363 391 1709 391 
Q 2188 391 2477 730 
Q 2766 1069 2766 1631 
L 2766 1759 
L 2194 1759 
z
M 3341 1997 
L 3341 0 
L 2766 0 
L 2766 531 
Q 2569 213 2275 61 
Q 1981 -91 1556 -91 
Q 1019 -91 701 211 
Q 384 513 384 1019 
Q 384 1609 779 1909 
Q 1175 2209 1959 2209 
L 2766 2209 
L 2766 2266 
Q 2766 2663 2505 2880 
Q 2244 3097 1772 3097 
Q 1472 3097 1187 3025 
Q 903 2953 641 2809 
L 641 3341 
Q 956 3463 1253 3523 
Q 1550 3584 1831 3584 
Q 2591 3584 2966 3190 
Q 3341 2797 3341 1997 
z
" transform="scale(0.015625)"/>
       <path id="DejaVuSans-69" d="M 603 3500 
L 1178 3500 
L 1178 0 
L 603 0 
L 603 3500 
z
M 603 4863 
L 1178 4863 
L 1178 4134 
L 603 4134 
L 603 4863 
z
" transform="scale(0.015625)"/>
       <path id="DejaVuSans-6e" d="M 3513 2113 
L 3513 0 
L 2938 0 
L 2938 2094 
Q 2938 2591 2744 2837 
Q 2550 3084 2163 3084 
Q 1697 3084 1428 2787 
Q 1159 2491 1159 1978 
L 1159 0 
L 581 0 
L 581 3500 
L 1159 3500 
L 1159 2956 
Q 1366 3272 1645 3428 
Q 1925 3584 2291 3584 
Q 2894 3584 3203 3211 
Q 3513 2838 3513 2113 
z
" transform="scale(0.015625)"/>
       <path id="DejaVuSans-28" d="M 1984 4856 
Q 1566 4138 1362 3434 
Q 1159 2731 1159 2009 
Q 1159 1288 1364 580 
Q 1569 -128 1984 -844 
L 1484 -844 
Q 1016 -109 783 600 
Q 550 1309 550 2009 
Q 550 2706 781 3412 
Q 1013 4119 1484 4856 
L 1984 4856 
z
" transform="scale(0.015625)"/>
       <path id="DejaVuSans-25" d="M 4653 2053 
Q 4381 2053 4226 1822 
Q 4072 1591 4072 1178 
Q 4072 772 4226 539 
Q 4381 306 4653 306 
Q 4919 306 5073 539 
Q 5228 772 5228 1178 
Q 5228 1588 5073 1820 
Q 4919 2053 4653 2053 
z
M 4653 2450 
Q 5147 2450 5437 2106 
Q 5728 1763 5728 1178 
Q 5728 594 5436 251 
Q 5144 -91 4653 -91 
Q 4153 -91 3862 251 
Q 3572 594 3572 1178 
Q 3572 1766 3864 2108 
Q 4156 2450 4653 2450 
z
M 1428 4353 
Q 1159 4353 1004 4120 
Q 850 3888 850 3481 
Q 850 3069 1003 2837 
Q 1156 2606 1428 2606 
Q 1700 2606 1854 2837 
Q 2009 3069 2009 3481 
Q 2009 3884 1853 4118 
Q 1697 4353 1428 4353 
z
M 4250 4750 
L 4750 4750 
L 1831 -91 
L 1331 -91 
L 4250 4750 
z
M 1428 4750 
Q 1922 4750 2215 4408 
Q 2509 4066 2509 3481 
Q 2509 2891 2217 2550 
Q 1925 2209 1428 2209 
Q 931 2209 642 2551 
Q 353 2894 353 3481 
Q 353 4063 643 4406 
Q 934 4750 1428 4750 
z
" transform="scale(0.015625)"/>
       <path id="DejaVuSans-29" d="M 513 4856 
L 1013 4856 
Q 1481 4119 1714 3412 
Q 1947 2706 1947 2009 
Q 1947 1309 1714 600 
Q 1481 -109 1013 -844 
L 513 -844 
Q 928 -128 1133 580 
Q 1338 1288 1338 2009 
Q 1338 2731 1133 3434 
Q 928 4138 513 4856 
z
" transform="scale(0.015625)"/>
      </defs>
      <use xlink:href="#DejaVuSans-53"/>
      <use xlink:href="#DejaVuSans-74" x="63.476562"/>
      <use xlink:href="#DejaVuSans-72" x="102.685547"/>
      <use xlink:href="#DejaVuSans-61" x="143.798828"/>
      <use xlink:href="#DejaVuSans-69" x="205.078125"/>
      <use xlink:href="#DejaVuSans-6e" x="232.861328"/>
      <use xlink:href="#DejaVuSans-28" x="296.240234"/>
      <use xlink:href="#DejaVuSans-25" x="335.253906"/>
      <use xlink:href="#DejaVuSans-29" x="430.273438"/>
     </g>
    </g>
   </g>
   <g id="matplotlib.axis_2">
    <g id="ytick_1">
     <g id="line2d_7">
      <defs>
       <path id="m77099be0cd" d="M 0 0 
L -3.5 0 
" style="stroke: #000000; stroke-width: 0.8"/>
      </defs>
      <g>
       <use xlink:href="#m77099be0cd" x="46.965625" y="242.117053" style="stroke: #000000; stroke-width: 0.8"/>
      </g>
     </g>
     <g id="text_8">
      <!-- 80 -->
      <g transform="translate(27.240625 245.916271) scale(0.1 -0.1)">
       <use xlink:href="#DejaVuSans-38"/>
       <use xlink:href="#DejaVuSans-30" x="63.623047"/>
      </g>
     </g>
    </g>
    <g id="ytick_2">
     <g id="line2d_8">
      <g>
       <use xlink:href="#m77099be0cd" x="46.965625" y="210.285474" style="stroke: #000000; stroke-width: 0.8"/>
      </g>
     </g>
     <g id="text_9">
      <!-- 85 -->
      <g transform="translate(27.240625 214.084692) scale(0.1 -0.1)">
       <defs>
        <path id="DejaVuSans-35" d="M 691 4666 
L 3169 4666 
L 3169 4134 
L 1269 4134 
L 1269 2991 
Q 1406 3038 1543 3061 
Q 1681 3084 1819 3084 
Q 2600 3084 3056 2656 
Q 3513 2228 3513 1497 
Q 3513 744 3044 326 
Q 2575 -91 1722 -91 
Q 1428 -91 1123 -41 
Q 819 9 494 109 
L 494 744 
Q 775 591 1075 516 
Q 1375 441 1709 441 
Q 2250 441 2565 725 
Q 2881 1009 2881 1497 
Q 2881 1984 2565 2268 
Q 2250 2553 1709 2553 
Q 1456 2553 1204 2497 
Q 953 2441 691 2322 
L 691 4666 
z
" transform="scale(0.015625)"/>
       </defs>
       <use xlink:href="#DejaVuSans-38"/>
       <use xlink:href="#DejaVuSans-35" x="63.623047"/>
      </g>
     </g>
    </g>
    <g id="ytick_3">
     <g id="line2d_9">
      <g>
       <use xlink:href="#m77099be0cd" x="46.965625" y="178.453895" style="stroke: #000000; stroke-width: 0.8"/>
      </g>
     </g>
     <g id="text_10">
      <!-- 90 -->
      <g transform="translate(27.240625 182.253113) scale(0.1 -0.1)">
       <defs>
        <path id="DejaVuSans-39" d="M 703 97 
L 703 672 
Q 941 559 1184 500 
Q 1428 441 1663 441 
Q 2288 441 2617 861 
Q 2947 1281 2994 2138 
Q 2813 1869 2534 1725 
Q 2256 1581 1919 1581 
Q 1219 1581 811 2004 
Q 403 2428 403 3163 
Q 403 3881 828 4315 
Q 1253 4750 1959 4750 
Q 2769 4750 3195 4129 
Q 3622 3509 3622 2328 
Q 3622 1225 3098 567 
Q 2575 -91 1691 -91 
Q 1453 -91 1209 -44 
Q 966 3 703 97 
z
M 1959 2075 
Q 2384 2075 2632 2365 
Q 2881 2656 2881 3163 
Q 2881 3666 2632 3958 
Q 2384 4250 1959 4250 
Q 1534 4250 1286 3958 
Q 1038 3666 1038 3163 
Q 1038 2656 1286 2365 
Q 1534 2075 1959 2075 
z
" transform="scale(0.015625)"/>
       </defs>
       <use xlink:href="#DejaVuSans-39"/>
       <use xlink:href="#DejaVuSans-30" x="63.623047"/>
      </g>
     </g>
    </g>
    <g id="ytick_4">
     <g id="line2d_10">
      <g>
       <use xlink:href="#m77099be0cd" x="46.965625" y="146.622316" style="stroke: #000000; stroke-width: 0.8"/>
      </g>
     </g>
     <g id="text_11">
      <!-- 95 -->
      <g transform="translate(27.240625 150.421535) scale(0.1 -0.1)">
       <use xlink:href="#DejaVuSans-39"/>
       <use xlink:href="#DejaVuSans-35" x="63.623047"/>
      </g>
     </g>
    </g>
    <g id="ytick_5">
     <g id="line2d_11">
      <g>
       <use xlink:href="#m77099be0cd" x="46.965625" y="114.790737" style="stroke: #000000; stroke-width: 0.8"/>
      </g>
     </g>
     <g id="text_12">
      <!-- 100 -->
      <g transform="translate(20.878125 118.589956) scale(0.1 -0.1)">
       <use xlink:href="#DejaVuSans-31"/>
       <use xlink:href="#DejaVuSans-30" x="63.623047"/>
       <use xlink:href="#DejaVuSans-30" x="127.246094"/>
      </g>
     </g>
    </g>
    <g id="ytick_6">
     <g id="line2d_12">
      <g>
       <use xlink:href="#m77099be0cd" x="46.965625" y="82.959158" style="stroke: #000000; stroke-width: 0.8"/>
      </g>
     </g>
     <g id="text_13">
      <!-- 105 -->
      <g transform="translate(20.878125 86.758377) scale(0.1 -0.1)">
       <use xlink:href="#DejaVuSans-31"/>
       <use xlink:href="#DejaVuSans-30" x="63.623047"/>
       <use xlink:href="#DejaVuSans-35" x="127.246094"/>
      </g>
     </g>
    </g>
    <g id="ytick_7">
     <g id="line2d_13">
      <g>
       <use xlink:href="#m77099be0cd" x="46.965625" y="51.127579" style="stroke: #000000; stroke-width: 0.8"/>
      </g>
     </g>
     <g id="text_14">
      <!-- 110 -->
      <g transform="translate(20.878125 54.926798) scale(0.1 -0.1)">
       <use xlink:href="#DejaVuSans-31"/>
       <use xlink:href="#DejaVuSans-31" x="63.623047"/>
       <use xlink:href="#DejaVuSans-30" x="127.246094"/>
      </g>
     </g>
    </g>
    <g id="ytick_8">
     <g id="line2d_14">
      <g>
       <use xlink:href="#m77099be0cd" x="46.965625" y="19.296" style="stroke: #000000; stroke-width: 0.8"/>
      </g>
     </g>
     <g id="text_15">
      <!-- 115 -->
      <g transform="translate(20.878125 23.095219) scale(0.1 -0.1)">
       <use xlink:href="#DejaVuSans-31"/>
       <use xlink:href="#DejaVuSans-31" x="63.623047"/>
       <use xlink:href="#DejaVuSans-35" x="127.246094"/>
      </g>
     </g>
    </g>
    <g id="text_16">
     <!-- Hydrogen Bonds -->
     <g transform="translate(14.798438 181.598187) rotate(-90) scale(0.1 -0.1)">
      <defs>
       <path id="DejaVuSans-48" d="M 628 4666 
L 1259 4666 
L 1259 2753 
L 3553 2753 
L 3553 4666 
L 4184 4666 
L 4184 0 
L 3553 0 
L 3553 2222 
L 1259 2222 
L 1259 0 
L 628 0 
L 628 4666 
z
" transform="scale(0.015625)"/>
       <path id="DejaVuSans-79" d="M 2059 -325 
Q 1816 -950 1584 -1140 
Q 1353 -1331 966 -1331 
L 506 -1331 
L 506 -850 
L 844 -850 
Q 1081 -850 1212 -737 
Q 1344 -625 1503 -206 
L 1606 56 
L 191 3500 
L 800 3500 
L 1894 763 
L 2988 3500 
L 3597 3500 
L 2059 -325 
z
" transform="scale(0.015625)"/>
       <path id="DejaVuSans-64" d="M 2906 2969 
L 2906 4863 
L 3481 4863 
L 3481 0 
L 2906 0 
L 2906 525 
Q 2725 213 2448 61 
Q 2172 -91 1784 -91 
Q 1150 -91 751 415 
Q 353 922 353 1747 
Q 353 2572 751 3078 
Q 1150 3584 1784 3584 
Q 2172 3584 2448 3432 
Q 2725 3281 2906 2969 
z
M 947 1747 
Q 947 1113 1208 752 
Q 1469 391 1925 391 
Q 2381 391 2643 752 
Q 2906 1113 2906 1747 
Q 2906 2381 2643 2742 
Q 2381 3103 1925 3103 
Q 1469 3103 1208 2742 
Q 947 2381 947 1747 
z
" transform="scale(0.015625)"/>
       <path id="DejaVuSans-6f" d="M 1959 3097 
Q 1497 3097 1228 2736 
Q 959 2375 959 1747 
Q 959 1119 1226 758 
Q 1494 397 1959 397 
Q 2419 397 2687 759 
Q 2956 1122 2956 1747 
Q 2956 2369 2687 2733 
Q 2419 3097 1959 3097 
z
M 1959 3584 
Q 2709 3584 3137 3096 
Q 3566 2609 3566 1747 
Q 3566 888 3137 398 
Q 2709 -91 1959 -91 
Q 1206 -91 779 398 
Q 353 888 353 1747 
Q 353 2609 779 3096 
Q 1206 3584 1959 3584 
z
" transform="scale(0.015625)"/>
       <path id="DejaVuSans-67" d="M 2906 1791 
Q 2906 2416 2648 2759 
Q 2391 3103 1925 3103 
Q 1463 3103 1205 2759 
Q 947 2416 947 1791 
Q 947 1169 1205 825 
Q 1463 481 1925 481 
Q 2391 481 2648 825 
Q 2906 1169 2906 1791 
z
M 3481 434 
Q 3481 -459 3084 -895 
Q 2688 -1331 1869 -1331 
Q 1566 -1331 1297 -1286 
Q 1028 -1241 775 -1147 
L 775 -588 
Q 1028 -725 1275 -790 
Q 1522 -856 1778 -856 
Q 2344 -856 2625 -561 
Q 2906 -266 2906 331 
L 2906 616 
Q 2728 306 2450 153 
Q 2172 0 1784 0 
Q 1141 0 747 490 
Q 353 981 353 1791 
Q 353 2603 747 3093 
Q 1141 3584 1784 3584 
Q 2172 3584 2450 3431 
Q 2728 3278 2906 2969 
L 2906 3500 
L 3481 3500 
L 3481 434 
z
" transform="scale(0.015625)"/>
       <path id="DejaVuSans-65" d="M 3597 1894 
L 3597 1613 
L 953 1613 
Q 991 1019 1311 708 
Q 1631 397 2203 397 
Q 2534 397 2845 478 
Q 3156 559 3463 722 
L 3463 178 
Q 3153 47 2828 -22 
Q 2503 -91 2169 -91 
Q 1331 -91 842 396 
Q 353 884 353 1716 
Q 353 2575 817 3079 
Q 1281 3584 2069 3584 
Q 2775 3584 3186 3129 
Q 3597 2675 3597 1894 
z
M 3022 2063 
Q 3016 2534 2758 2815 
Q 2500 3097 2075 3097 
Q 1594 3097 1305 2825 
Q 1016 2553 972 2059 
L 3022 2063 
z
" transform="scale(0.015625)"/>
       <path id="DejaVuSans-20" transform="scale(0.015625)"/>
       <path id="DejaVuSans-42" d="M 1259 2228 
L 1259 519 
L 2272 519 
Q 2781 519 3026 730 
Q 3272 941 3272 1375 
Q 3272 1813 3026 2020 
Q 2781 2228 2272 2228 
L 1259 2228 
z
M 1259 4147 
L 1259 2741 
L 2194 2741 
Q 2656 2741 2882 2914 
Q 3109 3088 3109 3444 
Q 3109 3797 2882 3972 
Q 2656 4147 2194 4147 
L 1259 4147 
z
M 628 4666 
L 2241 4666 
Q 2963 4666 3353 4366 
Q 3744 4066 3744 3513 
Q 3744 3084 3544 2831 
Q 3344 2578 2956 2516 
Q 3422 2416 3680 2098 
Q 3938 1781 3938 1306 
Q 3938 681 3513 340 
Q 3088 0 2303 0 
L 628 0 
L 628 4666 
z
" transform="scale(0.015625)"/>
       <path id="DejaVuSans-73" d="M 2834 3397 
L 2834 2853 
Q 2591 2978 2328 3040 
Q 2066 3103 1784 3103 
Q 1356 3103 1142 2972 
Q 928 2841 928 2578 
Q 928 2378 1081 2264 
Q 1234 2150 1697 2047 
L 1894 2003 
Q 2506 1872 2764 1633 
Q 3022 1394 3022 966 
Q 3022 478 2636 193 
Q 2250 -91 1575 -91 
Q 1294 -91 989 -36 
Q 684 19 347 128 
L 347 722 
Q 666 556 975 473 
Q 1284 391 1588 391 
Q 1994 391 2212 530 
Q 2431 669 2431 922 
Q 2431 1156 2273 1281 
Q 2116 1406 1581 1522 
L 1381 1569 
Q 847 1681 609 1914 
Q 372 2147 372 2553 
Q 372 3047 722 3315 
Q 1072 3584 1716 3584 
Q 2034 3584 2315 3537 
Q 2597 3491 2834 3397 
z
" transform="scale(0.015625)"/>
      </defs>
      <use xlink:href="#DejaVuSans-48"/>
      <use xlink:href="#DejaVuSans-79" x="75.195312"/>
      <use xlink:href="#DejaVuSans-64" x="134.375"/>
      <use xlink:href="#DejaVuSans-72" x="197.851562"/>
      <use xlink:href="#DejaVuSans-6f" x="236.714844"/>
      <use xlink:href="#DejaVuSans-67" x="297.896484"/>
      <use xlink:href="#DejaVuSans-65" x="361.373047"/>
      <use xlink:href="#DejaVuSans-6e" x="422.896484"/>
      <use xlink:href="#DejaVuSans-20" x="486.275391"/>
      <use xlink:href="#DejaVuSans-42" x="518.0625"/>
      <use xlink:href="#DejaVuSans-6f" x="586.666016"/>
      <use xlink:href="#DejaVuSans-6e" x="647.847656"/>
      <use xlink:href="#DejaVuSans-64" x="711.226562"/>
      <use xlink:href="#DejaVuSans-73" x="774.703125"/>
     </g>
    </g>
   </g>
   <g id="line2d_15">
    <path d="M 50.125979 102.058105 
L 51.936191 146.622316 
L 53.746322 140.256 
L 55.556534 152.988632 
L 57.366666 108.424421 
L 60.987089 95.691789 
L 62.79722 184.820211 
L 64.607432 146.622316 
L 66.417564 114.790737 
L 68.227775 197.552842 
L 70.037987 159.354947 
L 71.848119 172.087579 
L 73.65833 172.087579 
L 75.468542 178.453895 
L 77.278674 114.790737 
L 79.088885 133.889684 
L 82.709228 121.157053 
L 84.51944 165.721263 
L 86.329572 57.493895 
L 88.139783 146.622316 
L 89.949915 102.058105 
L 91.760127 159.354947 
L 93.570338 152.988632 
L 95.38047 89.325474 
L 97.190681 152.988632 
L 100.811025 127.523368 
L 102.621236 152.988632 
L 106.24158 114.790737 
L 108.051791 102.058105 
L 109.861923 114.790737 
L 111.672134 121.157053 
L 113.482266 133.889684 
L 115.292478 140.256 
L 117.102689 152.988632 
L 118.912821 108.424421 
L 122.533244 146.622316 
L 124.343376 102.058105 
L 126.153588 178.453895 
L 127.963719 127.523368 
L 129.773931 114.790737 
L 133.394274 165.721263 
L 135.204486 121.157053 
L 137.014617 152.988632 
L 138.824829 146.622316 
L 140.635041 121.157053 
L 142.445172 159.354947 
L 144.255384 133.889684 
L 146.065595 114.790737 
L 147.875727 108.424421 
L 151.496071 146.622316 
L 153.306282 159.354947 
L 155.116494 127.523368 
L 156.926625 114.790737 
L 158.736837 121.157053 
L 160.547048 108.424421 
L 162.35718 114.790737 
L 164.167392 172.087579 
L 165.977524 140.256 
L 167.787735 165.721263 
L 169.597947 133.889684 
L 171.408078 146.622316 
L 173.21829 152.988632 
L 175.028422 172.087579 
L 176.838633 197.552842 
L 178.648845 184.820211 
L 180.458977 165.721263 
L 182.269188 178.453895 
L 184.0794 89.325474 
L 185.889532 159.354947 
L 189.509875 172.087579 
L 191.320086 108.424421 
L 193.130298 121.157053 
L 194.94043 89.325474 
L 196.750641 159.354947 
L 198.560773 108.424421 
L 200.370985 140.256 
L 202.181196 140.256 
L 203.991328 152.988632 
L 205.801539 146.622316 
L 207.611751 121.157053 
L 209.421883 152.988632 
L 213.042226 127.523368 
L 214.852438 133.889684 
L 216.662649 133.889684 
L 218.472781 108.424421 
L 220.282992 159.354947 
L 222.093124 95.691789 
L 223.903336 95.691789 
L 225.713547 159.354947 
L 227.523679 102.058105 
L 229.333891 133.889684 
L 231.144102 178.453895 
L 232.954234 146.622316 
L 234.764446 121.157053 
L 236.574577 152.988632 
L 238.384789 108.424421 
L 240.195 114.790737 
L 242.005132 57.493895 
L 243.815344 172.087579 
L 245.625475 133.889684 
L 247.435687 102.058105 
L 249.245899 108.424421 
L 251.05603 95.691789 
L 252.866242 114.790737 
L 254.676453 159.354947 
L 256.486585 146.622316 
L 258.296797 197.552842 
L 260.106929 121.157053 
L 261.91714 102.058105 
L 263.727352 152.988632 
L 265.537483 178.453895 
L 267.347695 114.790737 
L 269.157827 172.087579 
L 272.77825 172.087579 
L 274.588382 165.721263 
L 276.398593 140.256 
L 278.208805 152.988632 
L 280.018936 159.354947 
L 281.829148 172.087579 
L 283.63928 152.988632 
L 285.449491 216.651789 
L 287.259703 172.087579 
L 289.069835 216.651789 
L 290.880046 146.622316 
L 292.690178 159.354947 
L 294.500389 121.157053 
L 296.310601 146.622316 
L 298.120733 146.622316 
L 299.930944 178.453895 
L 301.741156 133.889684 
L 303.551288 133.889684 
L 307.171631 159.354947 
L 308.981843 133.889684 
L 310.792054 95.691789 
L 312.602186 133.889684 
L 314.412397 197.552842 
L 316.222529 121.157053 
L 318.032741 95.691789 
L 319.842952 89.325474 
L 321.653084 152.988632 
L 323.463296 133.889684 
L 325.273507 133.889684 
L 327.083639 114.790737 
L 328.89385 121.157053 
L 330.703982 114.790737 
L 332.514194 140.256 
L 334.324405 127.523368 
L 336.134537 172.087579 
L 337.944749 108.424421 
L 339.75488 197.552842 
L 341.565092 121.157053 
L 343.375303 140.256 
L 345.185435 140.256 
L 346.995647 95.691789 
L 348.805858 140.256 
L 350.61599 140.256 
L 352.426202 146.622316 
L 354.236333 159.354947 
L 356.046545 140.256 
L 357.856757 114.790737 
L 359.666888 108.424421 
L 361.4771 152.988632 
L 363.287311 121.157053 
L 365.097443 140.256 
L 368.717786 114.790737 
L 370.527998 121.157053 
L 372.33821 114.790737 
L 374.148341 133.889684 
L 375.958553 127.523368 
L 377.768685 127.523368 
L 379.578896 70.226526 
L 381.389108 146.622316 
L 383.19924 127.523368 
L 385.009451 140.256 
L 386.819663 76.592842 
L 388.629794 82.959158 
L 392.250138 121.157053 
L 394.060349 38.394947 
L 395.870561 51.127579 
L 397.680693 38.394947 
L 399.490904 76.592842 
L 401.301036 32.028632 
L 403.111247 25.662316 
L 404.921459 32.028632 
L 408.541802 82.959158 
L 410.352014 76.592842 
L 412.162146 57.493895 
L 412.162146 57.493895 
" clip-path="url(#p07519715ca)" style="fill: none; stroke: #1f77b4; stroke-width: 1.5; stroke-linecap: square"/>
   </g>
   <g id="line2d_16">
    <path d="M 50.125979 102.058105 
L 51.915042 152.988632 
L 53.704183 178.453895 
L 55.493325 133.889684 
L 57.282467 140.256 
L 59.071609 159.354947 
L 60.860751 165.721263 
L 62.649892 114.790737 
L 64.438955 152.988632 
L 66.228097 127.523368 
L 68.017239 165.721263 
L 69.806381 152.988632 
L 71.595522 121.157053 
L 73.384664 159.354947 
L 75.173806 133.889684 
L 76.962948 197.552842 
L 78.75201 140.256 
L 80.541152 191.186526 
L 82.330294 203.919158 
L 84.119436 191.186526 
L 85.908578 146.622316 
L 87.69772 197.552842 
L 89.486861 197.552842 
L 91.275924 216.651789 
L 93.065066 191.186526 
L 94.854208 216.651789 
L 96.643349 223.018105 
L 98.432491 210.285474 
L 100.221633 261.216 
L 102.010775 235.750737 
L 103.799837 165.721263 
L 105.588979 165.721263 
L 107.378121 223.018105 
L 109.167263 159.354947 
L 110.956405 197.552842 
L 112.745547 165.721263 
L 114.534688 172.087579 
L 116.323751 159.354947 
L 118.112893 178.453895 
L 119.902035 203.919158 
L 121.691176 172.087579 
L 123.480318 203.919158 
L 125.26946 159.354947 
L 127.058602 133.889684 
L 128.847744 210.285474 
L 130.636806 184.820211 
L 132.425948 203.919158 
L 134.21509 165.721263 
L 136.004232 210.285474 
L 137.793374 165.721263 
L 139.582515 203.919158 
L 141.371657 197.552842 
L 143.16072 235.750737 
L 144.949862 203.919158 
L 146.739003 184.820211 
L 148.528145 229.384421 
L 150.317287 133.889684 
L 152.106429 165.721263 
L 153.895571 235.750737 
L 155.684633 140.256 
L 157.473775 191.186526 
L 159.262917 191.186526 
L 161.052059 210.285474 
L 162.841201 146.622316 
L 164.630342 152.988632 
L 166.419484 191.186526 
L 168.208626 216.651789 
L 169.997689 216.651789 
L 171.78683 235.750737 
L 173.575972 172.087579 
L 175.365114 172.087579 
L 178.943398 210.285474 
L 180.73254 197.552842 
L 182.521602 229.384421 
L 184.310744 254.849684 
L 186.099886 197.552842 
L 187.889028 146.622316 
L 189.678169 191.186526 
L 191.467311 121.157053 
L 193.256453 159.354947 
L 195.045516 165.721263 
L 198.623799 165.721263 
L 200.412941 203.919158 
L 202.202083 165.721263 
L 203.991225 191.186526 
L 205.780367 184.820211 
L 207.569429 223.018105 
L 209.358571 178.453895 
L 211.147713 216.651789 
L 212.936855 172.087579 
L 214.725997 203.919158 
L 216.515138 172.087579 
L 218.30428 184.820211 
L 220.093422 172.087579 
L 221.882485 127.523368 
L 223.671626 178.453895 
L 225.460768 197.552842 
L 227.24991 172.087579 
L 229.039052 165.721263 
L 230.828194 114.790737 
L 232.617336 184.820211 
L 234.406398 191.186526 
L 236.19554 172.087579 
L 237.984682 178.453895 
L 239.773824 165.721263 
L 241.562965 197.552842 
L 243.352107 178.453895 
L 245.141249 184.820211 
L 246.930312 242.117053 
L 248.719453 165.721263 
L 250.508595 216.651789 
L 252.297737 191.186526 
L 254.086879 127.523368 
L 255.876021 165.721263 
L 257.665163 159.354947 
L 259.454304 165.721263 
L 261.243367 165.721263 
L 263.032509 146.622316 
L 264.821651 133.889684 
L 266.610792 89.325474 
L 268.399934 133.889684 
L 270.189076 127.523368 
L 271.978218 146.622316 
L 273.76728 178.453895 
L 275.556422 95.691789 
L 277.345564 114.790737 
L 279.134706 146.622316 
L 280.923848 127.523368 
L 282.71299 140.256 
L 284.502131 121.157053 
L 286.291194 114.790737 
L 288.080336 133.889684 
L 289.869478 184.820211 
L 291.658619 172.087579 
L 293.447761 127.523368 
L 295.236903 108.424421 
L 297.026045 146.622316 
L 298.815107 133.889684 
L 300.604249 146.622316 
L 302.393391 191.186526 
L 304.182533 152.988632 
L 305.971675 184.820211 
L 307.760817 127.523368 
L 309.549958 197.552842 
L 311.3391 197.552842 
L 313.128163 159.354947 
L 314.917305 165.721263 
L 316.706446 184.820211 
L 318.495588 165.721263 
L 322.073872 178.453895 
L 323.863014 191.186526 
L 325.652076 159.354947 
L 327.441218 197.552842 
L 329.23036 172.087579 
L 331.019502 114.790737 
L 332.808644 140.256 
L 334.597785 159.354947 
L 336.386927 108.424421 
L 338.17599 146.622316 
L 339.965132 165.721263 
L 341.754274 114.790737 
L 343.543415 165.721263 
L 345.332557 114.790737 
L 347.121699 121.157053 
L 348.910841 159.354947 
L 350.699983 172.087579 
L 352.489045 191.186526 
L 354.278187 133.889684 
L 356.067329 210.285474 
L 357.856471 210.285474 
L 359.645613 248.483368 
L 361.434754 159.354947 
L 365.012959 133.889684 
L 366.802101 191.186526 
L 368.591242 216.651789 
L 370.380384 210.285474 
L 372.169526 216.651789 
L 373.958668 159.354947 
L 375.74781 235.750737 
L 377.536872 223.018105 
L 379.326014 172.087579 
L 381.115156 203.919158 
L 382.904298 146.622316 
L 384.69344 191.186526 
L 386.482581 203.919158 
L 388.271723 152.988632 
L 390.060786 184.820211 
L 391.849928 223.018105 
L 393.639069 159.354947 
L 395.428211 121.157053 
L 397.217353 197.552842 
L 399.006495 216.651789 
L 400.795637 216.651789 
L 402.584779 172.087579 
L 404.373841 216.651789 
L 406.162983 146.622316 
L 407.952125 114.790737 
L 407.952125 114.790737 
" clip-path="url(#p07519715ca)" style="fill: none; stroke: #ff7f0e; stroke-width: 1.5; stroke-linecap: square"/>
   </g>
   <g id="line2d_17">
    <path d="M 50.125979 102.058105 
L 51.639352 197.552842 
L 53.152724 127.523368 
L 54.66617 70.226526 
L 56.179543 140.256 
L 57.692915 165.721263 
L 59.206288 127.523368 
L 60.719733 108.424421 
L 62.233106 102.058105 
L 63.746479 121.157053 
L 65.259852 152.988632 
L 66.773224 165.721263 
L 68.28667 152.988632 
L 69.800042 159.354947 
L 71.313415 184.820211 
L 72.826788 159.354947 
L 75.853606 95.691789 
L 77.366979 133.889684 
L 78.880351 140.256 
L 80.393797 95.691789 
L 81.90717 102.058105 
L 83.420542 89.325474 
L 84.933915 95.691789 
L 86.44736 133.889684 
L 87.960733 146.622316 
L 89.474106 114.790737 
L 90.987479 70.226526 
L 92.500851 63.860211 
L 94.014297 89.325474 
L 95.527669 127.523368 
L 97.041042 127.523368 
L 98.554415 146.622316 
L 100.06786 146.622316 
L 101.581233 108.424421 
L 103.094606 114.790737 
L 104.607978 133.889684 
L 106.121424 95.691789 
L 107.634797 63.860211 
L 109.148169 82.959158 
L 110.661542 152.988632 
L 112.174987 121.157053 
L 113.68836 165.721263 
L 116.715106 114.790737 
L 118.228551 51.127579 
L 121.255296 114.790737 
L 122.768669 127.523368 
L 124.282042 127.523368 
L 125.795487 165.721263 
L 127.30886 159.354947 
L 128.822233 102.058105 
L 130.335605 146.622316 
L 131.849051 159.354947 
L 133.362424 184.820211 
L 134.875796 133.889684 
L 136.389169 108.424421 
L 137.902615 140.256 
L 139.415987 146.622316 
L 140.92936 102.058105 
L 142.442733 197.552842 
L 143.956178 146.622316 
L 145.469551 140.256 
L 146.982923 165.721263 
L 148.496296 165.721263 
L 150.009669 140.256 
L 151.523114 152.988632 
L 153.036487 152.988632 
L 154.54986 203.919158 
L 156.063232 121.157053 
L 157.576678 152.988632 
L 159.090051 165.721263 
L 160.603423 165.721263 
L 162.116796 140.256 
L 163.630242 140.256 
L 165.143614 191.186526 
L 166.656987 140.256 
L 168.17036 133.889684 
L 169.683805 191.186526 
L 171.197178 152.988632 
L 172.710551 70.226526 
L 174.223923 140.256 
L 177.250741 152.988632 
L 178.764114 127.523368 
L 180.277487 121.157053 
L 181.790859 152.988632 
L 183.304305 178.453895 
L 184.817678 184.820211 
L 186.33105 127.523368 
L 187.844423 102.058105 
L 189.357869 108.424421 
L 190.871241 57.493895 
L 192.384614 63.860211 
L 193.897987 63.860211 
L 195.411432 114.790737 
L 196.924805 108.424421 
L 198.438178 108.424421 
L 199.95155 114.790737 
L 201.464923 19.296 
L 202.978368 63.860211 
L 204.491741 82.959158 
L 206.005114 95.691789 
L 207.518487 114.790737 
L 209.031932 51.127579 
L 210.545305 114.790737 
L 212.058677 76.592842 
L 213.57205 89.325474 
L 215.085496 76.592842 
L 216.598868 102.058105 
L 218.112241 82.959158 
L 219.625614 102.058105 
L 221.139059 70.226526 
L 222.652432 108.424421 
L 224.165805 70.226526 
L 225.679177 57.493895 
L 227.19255 121.157053 
L 228.705995 165.721263 
L 230.219368 108.424421 
L 231.732741 108.424421 
L 233.246114 133.889684 
L 234.759559 140.256 
L 236.272932 70.226526 
L 237.786304 127.523368 
L 239.299677 114.790737 
L 240.813123 82.959158 
L 242.326495 121.157053 
L 243.839868 140.256 
L 245.353241 76.592842 
L 246.866686 51.127579 
L 248.380059 159.354947 
L 249.893432 108.424421 
L 251.406804 82.959158 
L 252.920177 89.325474 
L 254.433622 133.889684 
L 255.946995 121.157053 
L 257.460368 146.622316 
L 258.973741 82.959158 
L 260.487186 70.226526 
L 262.000559 70.226526 
L 263.513931 146.622316 
L 265.027304 95.691789 
L 266.54075 108.424421 
L 268.054122 70.226526 
L 269.567495 82.959158 
L 271.080868 114.790737 
L 272.594313 82.959158 
L 274.107686 108.424421 
L 275.621059 57.493895 
L 277.134431 70.226526 
L 278.647804 95.691789 
L 280.161249 102.058105 
L 281.674622 89.325474 
L 283.187995 127.523368 
L 284.701368 102.058105 
L 286.214813 63.860211 
L 287.728186 89.325474 
L 289.241558 51.127579 
L 290.754931 57.493895 
L 293.781749 121.157053 
L 295.295122 140.256 
L 296.808495 70.226526 
L 298.32194 89.325474 
L 299.835313 57.493895 
L 301.348686 95.691789 
L 302.862058 121.157053 
L 304.375431 76.592842 
L 305.888877 82.959158 
L 307.402249 114.790737 
L 308.915622 121.157053 
L 310.428995 63.860211 
L 311.94244 140.256 
L 313.455813 108.424421 
L 314.969185 44.761263 
L 316.482558 102.058105 
L 317.996004 127.523368 
L 319.509376 114.790737 
L 321.022749 127.523368 
L 322.536122 82.959158 
L 324.049567 159.354947 
L 325.56294 133.889684 
L 327.076313 140.256 
L 328.589685 127.523368 
L 330.103131 152.988632 
L 331.616504 114.790737 
L 333.129876 133.889684 
L 334.643249 89.325474 
L 336.156622 95.691789 
L 337.670067 127.523368 
L 339.18344 133.889684 
L 340.696813 76.592842 
L 342.210185 108.424421 
L 343.723631 82.959158 
L 345.237003 89.325474 
L 346.750376 172.087579 
L 348.263749 114.790737 
L 349.777194 89.325474 
L 351.290567 127.523368 
L 352.80394 140.256 
L 352.80394 140.256 
" clip-path="url(#p07519715ca)" style="fill: none; stroke: #2ca02c; stroke-width: 1.5; stroke-linecap: square"/>
   </g>
   <g id="patch_3">
    <path d="M 46.965625 273.312 
L 46.965625 7.2 
" style="fill: none; stroke: #000000; stroke-width: 0.8; stroke-linejoin: miter; stroke-linecap: square"/>
   </g>
   <g id="patch_4">
    <path d="M 404.085625 273.312 
L 404.085625 7.2 
" style="fill: none; stroke: #000000; stroke-width: 0.8; stroke-linejoin: miter; stroke-linecap: square"/>
   </g>
   <g id="patch_5">
    <path d="M 46.965625 273.312 
L 404.085625 273.312 
" style="fill: none; stroke: #000000; stroke-width: 0.8; stroke-linejoin: miter; stroke-linecap: square"/>
   </g>
   <g id="patch_6">
    <path d="M 46.965625 7.2 
L 404.085625 7.2 
" style="fill: none; stroke: #000000; stroke-width: 0.8; stroke-linejoin: miter; stroke-linecap: square"/>
   </g>
   <g id="legend_1">
    <g id="patch_7">
     <path d="M 187.137344 268.312 
L 263.913906 268.312 
Q 265.913906 268.312 265.913906 266.312 
L 265.913906 223.277625 
Q 265.913906 221.277625 263.913906 221.277625 
L 187.137344 221.277625 
Q 185.137344 221.277625 185.137344 223.277625 
L 185.137344 266.312 
Q 185.137344 268.312 187.137344 268.312 
z
" style="fill: #ffffff; opacity: 0.8; stroke: #cccccc; stroke-linejoin: miter"/>
    </g>
    <g id="line2d_18">
     <path d="M 189.137344 229.376062 
L 199.137344 229.376062 
L 209.137344 229.376062 
" style="fill: none; stroke: #1f77b4; stroke-width: 1.5; stroke-linecap: square"/>
    </g>
    <g id="text_17">
     <!-- X-Length -->
     <g transform="translate(217.137344 232.876062) scale(0.1 -0.1)">
      <defs>
       <path id="DejaVuSans-58" d="M 403 4666 
L 1081 4666 
L 2241 2931 
L 3406 4666 
L 4084 4666 
L 2584 2425 
L 4184 0 
L 3506 0 
L 2194 1984 
L 872 0 
L 191 0 
L 1856 2491 
L 403 4666 
z
" transform="scale(0.015625)"/>
       <path id="DejaVuSans-2d" d="M 313 2009 
L 1997 2009 
L 1997 1497 
L 313 1497 
L 313 2009 
z
" transform="scale(0.015625)"/>
       <path id="DejaVuSans-4c" d="M 628 4666 
L 1259 4666 
L 1259 531 
L 3531 531 
L 3531 0 
L 628 0 
L 628 4666 
z
" transform="scale(0.015625)"/>
       <path id="DejaVuSans-68" d="M 3513 2113 
L 3513 0 
L 2938 0 
L 2938 2094 
Q 2938 2591 2744 2837 
Q 2550 3084 2163 3084 
Q 1697 3084 1428 2787 
Q 1159 2491 1159 1978 
L 1159 0 
L 581 0 
L 581 4863 
L 1159 4863 
L 1159 2956 
Q 1366 3272 1645 3428 
Q 1925 3584 2291 3584 
Q 2894 3584 3203 3211 
Q 3513 2838 3513 2113 
z
" transform="scale(0.015625)"/>
      </defs>
      <use xlink:href="#DejaVuSans-58"/>
      <use xlink:href="#DejaVuSans-2d" x="63.505859"/>
      <use xlink:href="#DejaVuSans-4c" x="99.589844"/>
      <use xlink:href="#DejaVuSans-65" x="153.552734"/>
      <use xlink:href="#DejaVuSans-6e" x="215.076172"/>
      <use xlink:href="#DejaVuSans-67" x="278.455078"/>
      <use xlink:href="#DejaVuSans-74" x="341.931641"/>
      <use xlink:href="#DejaVuSans-68" x="381.140625"/>
     </g>
    </g>
    <g id="line2d_19">
     <path d="M 189.137344 244.054187 
L 199.137344 244.054187 
L 209.137344 244.054187 
" style="fill: none; stroke: #ff7f0e; stroke-width: 1.5; stroke-linecap: square"/>
    </g>
    <g id="text_18">
     <!-- Y-Length -->
     <g transform="translate(217.137344 247.554187) scale(0.1 -0.1)">
      <defs>
       <path id="DejaVuSans-59" d="M -13 4666 
L 666 4666 
L 1959 2747 
L 3244 4666 
L 3922 4666 
L 2272 2222 
L 2272 0 
L 1638 0 
L 1638 2222 
L -13 4666 
z
" transform="scale(0.015625)"/>
      </defs>
      <use xlink:href="#DejaVuSans-59"/>
      <use xlink:href="#DejaVuSans-2d" x="49.208984"/>
      <use xlink:href="#DejaVuSans-4c" x="85.292969"/>
      <use xlink:href="#DejaVuSans-65" x="139.255859"/>
      <use xlink:href="#DejaVuSans-6e" x="200.779297"/>
      <use xlink:href="#DejaVuSans-67" x="264.158203"/>
      <use xlink:href="#DejaVuSans-74" x="327.634766"/>
      <use xlink:href="#DejaVuSans-68" x="366.84375"/>
     </g>
    </g>
    <g id="line2d_20">
     <path d="M 189.137344 258.732312 
L 199.137344 258.732312 
L 209.137344 258.732312 
" style="fill: none; stroke: #2ca02c; stroke-width: 1.5; stroke-linecap: square"/>
    </g>
    <g id="text_19">
     <!-- Z-Length -->
     <g transform="translate(217.137344 262.232312) scale(0.1 -0.1)">
      <defs>
       <path id="DejaVuSans-5a" d="M 359 4666 
L 4025 4666 
L 4025 4184 
L 1075 531 
L 4097 531 
L 4097 0 
L 288 0 
L 288 481 
L 3238 4134 
L 359 4134 
L 359 4666 
z
" transform="scale(0.015625)"/>
      </defs>
      <use xlink:href="#DejaVuSans-5a"/>
      <use xlink:href="#DejaVuSans-2d" x="66.755859"/>
      <use xlink:href="#DejaVuSans-4c" x="102.839844"/>
      <use xlink:href="#DejaVuSans-65" x="156.802734"/>
      <use xlink:href="#DejaVuSans-6e" x="218.326172"/>
      <use xlink:href="#DejaVuSans-67" x="281.705078"/>
      <use xlink:href="#DejaVuSans-74" x="345.181641"/>
      <use xlink:href="#DejaVuSans-68" x="384.390625"/>
     </g>
    </g>
   </g>
  </g>
 </g>
 <defs>
  <clipPath id="p07519715ca">
   <rect x="46.965625" y="7.2" width="357.12" height="266.112"/>
  </clipPath>
 </defs>
</svg>
