<?xml version="1.0" encoding="utf-8" standalone="no"?>
<!DOCTYPE svg PUBLIC "-//W3C//DTD SVG 1.1//EN"
  "http://www.w3.org/Graphics/SVG/1.1/DTD/svg11.dtd">
<svg xmlns:xlink="http://www.w3.org/1999/xlink" width="506.928125pt" height="392.514375pt" viewBox="0 0 506.928125 392.514375" xmlns="http://www.w3.org/2000/svg" version="1.1">
 <metadata>
  <rdf:RDF xmlns:dc="http://purl.org/dc/elements/1.1/" xmlns:cc="http://creativecommons.org/ns#" xmlns:rdf="http://www.w3.org/1999/02/22-rdf-syntax-ns#">
   <cc:Work>
    <dc:type rdf:resource="http://purl.org/dc/dcmitype/StillImage"/>
    <dc:date>2025-11-12T10:30:43.265194</dc:date>
    <dc:format>image/svg+xml</dc:format>
    <dc:creator>
     <cc:Agent>
      <dc:title>Matplotlib v3.9.0, https://matplotlib.org/</dc:title>
     </cc:Agent>
    </dc:creator>
   </cc:Work>
  </rdf:RDF>
 </metadata>
 <defs>
  <style type="text/css">*{stroke-linejoin: round; stroke-linecap: butt}</style>
 </defs>
 <g id="figure_1">
  <g id="patch_1">
   <path d="M 0 392.514375 
L 506.928125 392.514375 
L 506.928125 0 
L 0 0 
z
" style="fill: #ffffff"/>
  </g>
  <g id="axes_1">
   <g id="patch_2">
    <path d="M 53.328125 354.958125 
L 499.728125 354.958125 
L 499.728125 22.318125 
L 53.328125 22.318125 
z
" style="fill: #ffffff"/>
   </g>
   <g id="matplotlib.axis_1">
    <g id="xtick_1">
     <g id="line2d_1">
      <defs>
       <path id="m125ee413f3" d="M 0 0 
L 0 3.5 
" style="stroke: #000000; stroke-width: 0.8"/>
      </defs>
      <g>
       <use xlink:href="#m125ee413f3" x="73.619034" y="354.958125" style="stroke: #000000; stroke-width: 0.8"/>
      </g>
     </g>
     <g id="text_1">
      <!-- 0 -->
      <g transform="translate(70.437784 369.556562) scale(0.1 -0.1)">
       <defs>
        <path id="DejaVuSans-30" d="M 2034 4250 
Q 1547 4250 1301 3770 
Q 1056 3291 1056 2328 
Q 1056 1369 1301 889 
Q 1547 409 2034 409 
Q 2525 409 2770 889 
Q 3016 1369 3016 2328 
Q 3016 3291 2770 3770 
Q 2525 4250 2034 4250 
z
M 2034 4750 
Q 2819 4750 3233 4129 
Q 3647 3509 3647 2328 
Q 3647 1150 3233 529 
Q 2819 -91 2034 -91 
Q 1250 -91 836 529 
Q 422 1150 422 2328 
Q 422 3509 836 4129 
Q 1250 4750 2034 4750 
z
" transform="scale(0.015625)"/>
       </defs>
       <use xlink:href="#DejaVuSans-30"/>
      </g>
     </g>
    </g>
    <g id="xtick_2">
     <g id="line2d_2">
      <g>
       <use xlink:href="#m125ee413f3" x="132.385883" y="354.958125" style="stroke: #000000; stroke-width: 0.8"/>
      </g>
     </g>
     <g id="text_2">
      <!-- 50 -->
      <g transform="translate(126.023383 369.556562) scale(0.1 -0.1)">
       <defs>
        <path id="DejaVuSans-35" d="M 691 4666 
L 3169 4666 
L 3169 4134 
L 1269 4134 
L 1269 2991 
Q 1406 3038 1543 3061 
Q 1681 3084 1819 3084 
Q 2600 3084 3056 2656 
Q 3513 2228 3513 1497 
Q 3513 744 3044 326 
Q 2575 -91 1722 -91 
Q 1428 -91 1123 -41 
Q 819 9 494 109 
L 494 744 
Q 775 591 1075 516 
Q 1375 441 1709 441 
Q 2250 441 2565 725 
Q 2881 1009 2881 1497 
Q 2881 1984 2565 2268 
Q 2250 2553 1709 2553 
Q 1456 2553 1204 2497 
Q 953 2441 691 2322 
L 691 4666 
z
" transform="scale(0.015625)"/>
       </defs>
       <use xlink:href="#DejaVuSans-35"/>
       <use xlink:href="#DejaVuSans-30" x="63.623047"/>
      </g>
     </g>
    </g>
    <g id="xtick_3">
     <g id="line2d_3">
      <g>
       <use xlink:href="#m125ee413f3" x="191.152731" y="354.958125" style="stroke: #000000; stroke-width: 0.8"/>
      </g>
     </g>
     <g id="text_3">
      <!-- 100 -->
      <g transform="translate(181.608981 369.556562) scale(0.1 -0.1)">
       <defs>
        <path id="DejaVuSans-31" d="M 794 531 
L 1825 531 
L 1825 4091 
L 703 3866 
L 703 4441 
L 1819 4666 
L 2450 4666 
L 2450 531 
L 3481 531 
L 3481 0 
L 794 0 
L 794 531 
z
" transform="scale(0.015625)"/>
       </defs>
       <use xlink:href="#DejaVuSans-31"/>
       <use xlink:href="#DejaVuSans-30" x="63.623047"/>
       <use xlink:href="#DejaVuSans-30" x="127.246094"/>
      </g>
     </g>
    </g>
    <g id="xtick_4">
     <g id="line2d_4">
      <g>
       <use xlink:href="#m125ee413f3" x="249.91958" y="354.958125" style="stroke: #000000; stroke-width: 0.8"/>
      </g>
     </g>
     <g id="text_4">
      <!-- 150 -->
      <g transform="translate(240.37583 369.556562) scale(0.1 -0.1)">
       <use xlink:href="#DejaVuSans-31"/>
       <use xlink:href="#DejaVuSans-35" x="63.623047"/>
       <use xlink:href="#DejaVuSans-30" x="127.246094"/>
      </g>
     </g>
    </g>
    <g id="xtick_5">
     <g id="line2d_5">
      <g>
       <use xlink:href="#m125ee413f3" x="308.686429" y="354.958125" style="stroke: #000000; stroke-width: 0.8"/>
      </g>
     </g>
     <g id="text_5">
      <!-- 200 -->
      <g transform="translate(299.142679 369.556562) scale(0.1 -0.1)">
       <defs>
        <path id="DejaVuSans-32" d="M 1228 531 
L 3431 531 
L 3431 0 
L 469 0 
L 469 531 
Q 828 903 1448 1529 
Q 2069 2156 2228 2338 
Q 2531 2678 2651 2914 
Q 2772 3150 2772 3378 
Q 2772 3750 2511 3984 
Q 2250 4219 1831 4219 
Q 1534 4219 1204 4116 
Q 875 4013 500 3803 
L 500 4441 
Q 881 4594 1212 4672 
Q 1544 4750 1819 4750 
Q 2544 4750 2975 4387 
Q 3406 4025 3406 3419 
Q 3406 3131 3298 2873 
Q 3191 2616 2906 2266 
Q 2828 2175 2409 1742 
Q 1991 1309 1228 531 
z
" transform="scale(0.015625)"/>
       </defs>
       <use xlink:href="#DejaVuSans-32"/>
       <use xlink:href="#DejaVuSans-30" x="63.623047"/>
       <use xlink:href="#DejaVuSans-30" x="127.246094"/>
      </g>
     </g>
    </g>
    <g id="xtick_6">
     <g id="line2d_6">
      <g>
       <use xlink:href="#m125ee413f3" x="367.453278" y="354.958125" style="stroke: #000000; stroke-width: 0.8"/>
      </g>
     </g>
     <g id="text_6">
      <!-- 250 -->
      <g transform="translate(357.909528 369.556562) scale(0.1 -0.1)">
       <use xlink:href="#DejaVuSans-32"/>
       <use xlink:href="#DejaVuSans-35" x="63.623047"/>
       <use xlink:href="#DejaVuSans-30" x="127.246094"/>
      </g>
     </g>
    </g>
    <g id="xtick_7">
     <g id="line2d_7">
      <g>
       <use xlink:href="#m125ee413f3" x="426.220126" y="354.958125" style="stroke: #000000; stroke-width: 0.8"/>
      </g>
     </g>
     <g id="text_7">
      <!-- 300 -->
      <g transform="translate(416.676376 369.556562) scale(0.1 -0.1)">
       <defs>
        <path id="DejaVuSans-33" d="M 2597 2516 
Q 3050 2419 3304 2112 
Q 3559 1806 3559 1356 
Q 3559 666 3084 287 
Q 2609 -91 1734 -91 
Q 1441 -91 1130 -33 
Q 819 25 488 141 
L 488 750 
Q 750 597 1062 519 
Q 1375 441 1716 441 
Q 2309 441 2620 675 
Q 2931 909 2931 1356 
Q 2931 1769 2642 2001 
Q 2353 2234 1838 2234 
L 1294 2234 
L 1294 2753 
L 1863 2753 
Q 2328 2753 2575 2939 
Q 2822 3125 2822 3475 
Q 2822 3834 2567 4026 
Q 2313 4219 1838 4219 
Q 1578 4219 1281 4162 
Q 984 4106 628 3988 
L 628 4550 
Q 988 4650 1302 4700 
Q 1616 4750 1894 4750 
Q 2613 4750 3031 4423 
Q 3450 4097 3450 3541 
Q 3450 3153 3228 2886 
Q 3006 2619 2597 2516 
z
" transform="scale(0.015625)"/>
       </defs>
       <use xlink:href="#DejaVuSans-33"/>
       <use xlink:href="#DejaVuSans-30" x="63.623047"/>
       <use xlink:href="#DejaVuSans-30" x="127.246094"/>
      </g>
     </g>
    </g>
    <g id="xtick_8">
     <g id="line2d_8">
      <g>
       <use xlink:href="#m125ee413f3" x="484.986975" y="354.958125" style="stroke: #000000; stroke-width: 0.8"/>
      </g>
     </g>
     <g id="text_8">
      <!-- 350 -->
      <g transform="translate(475.443225 369.556562) scale(0.1 -0.1)">
       <use xlink:href="#DejaVuSans-33"/>
       <use xlink:href="#DejaVuSans-35" x="63.623047"/>
       <use xlink:href="#DejaVuSans-30" x="127.246094"/>
      </g>
     </g>
    </g>
    <g id="text_9">
     <!-- Strain(%) -->
     <g transform="translate(253.064062 383.234687) scale(0.1 -0.1)">
      <defs>
       <path id="DejaVuSans-53" d="M 3425 4513 
L 3425 3897 
Q 3066 4069 2747 4153 
Q 2428 4238 2131 4238 
Q 1616 4238 1336 4038 
Q 1056 3838 1056 3469 
Q 1056 3159 1242 3001 
Q 1428 2844 1947 2747 
L 2328 2669 
Q 3034 2534 3370 2195 
Q 3706 1856 3706 1288 
Q 3706 609 3251 259 
Q 2797 -91 1919 -91 
Q 1588 -91 1214 -16 
Q 841 59 441 206 
L 441 856 
Q 825 641 1194 531 
Q 1563 422 1919 422 
Q 2459 422 2753 634 
Q 3047 847 3047 1241 
Q 3047 1584 2836 1778 
Q 2625 1972 2144 2069 
L 1759 2144 
Q 1053 2284 737 2584 
Q 422 2884 422 3419 
Q 422 4038 858 4394 
Q 1294 4750 2059 4750 
Q 2388 4750 2728 4690 
Q 3069 4631 3425 4513 
z
" transform="scale(0.015625)"/>
       <path id="DejaVuSans-74" d="M 1172 4494 
L 1172 3500 
L 2356 3500 
L 2356 3053 
L 1172 3053 
L 1172 1153 
Q 1172 725 1289 603 
Q 1406 481 1766 481 
L 2356 481 
L 2356 0 
L 1766 0 
Q 1100 0 847 248 
Q 594 497 594 1153 
L 594 3053 
L 172 3053 
L 172 3500 
L 594 3500 
L 594 4494 
L 1172 4494 
z
" transform="scale(0.015625)"/>
       <path id="DejaVuSans-72" d="M 2631 2963 
Q 2534 3019 2420 3045 
Q 2306 3072 2169 3072 
Q 1681 3072 1420 2755 
Q 1159 2438 1159 1844 
L 1159 0 
L 581 0 
L 581 3500 
L 1159 3500 
L 1159 2956 
Q 1341 3275 1631 3429 
Q 1922 3584 2338 3584 
Q 2397 3584 2469 3576 
Q 2541 3569 2628 3553 
L 2631 2963 
z
" transform="scale(0.015625)"/>
       <path id="DejaVuSans-61" d="M 2194 1759 
Q 1497 1759 1228 1600 
Q 959 1441 959 1056 
Q 959 750 1161 570 
Q 1363 391 1709 391 
Q 2188 391 2477 730 
Q 2766 1069 2766 1631 
L 2766 1759 
L 2194 1759 
z
M 3341 1997 
L 3341 0 
L 2766 0 
L 2766 531 
Q 2569 213 2275 61 
Q 1981 -91 1556 -91 
Q 1019 -91 701 211 
Q 384 513 384 1019 
Q 384 1609 779 1909 
Q 1175 2209 1959 2209 
L 2766 2209 
L 2766 2266 
Q 2766 2663 2505 2880 
Q 2244 3097 1772 3097 
Q 1472 3097 1187 3025 
Q 903 2953 641 2809 
L 641 3341 
Q 956 3463 1253 3523 
Q 1550 3584 1831 3584 
Q 2591 3584 2966 3190 
Q 3341 2797 3341 1997 
z
" transform="scale(0.015625)"/>
       <path id="DejaVuSans-69" d="M 603 3500 
L 1178 3500 
L 1178 0 
L 603 0 
L 603 3500 
z
M 603 4863 
L 1178 4863 
L 1178 4134 
L 603 4134 
L 603 4863 
z
" transform="scale(0.015625)"/>
       <path id="DejaVuSans-6e" d="M 3513 2113 
L 3513 0 
L 2938 0 
L 2938 2094 
Q 2938 2591 2744 2837 
Q 2550 3084 2163 3084 
Q 1697 3084 1428 2787 
Q 1159 2491 1159 1978 
L 1159 0 
L 581 0 
L 581 3500 
L 1159 3500 
L 1159 2956 
Q 1366 3272 1645 3428 
Q 1925 3584 2291 3584 
Q 2894 3584 3203 3211 
Q 3513 2838 3513 2113 
z
" transform="scale(0.015625)"/>
       <path id="DejaVuSans-28" d="M 1984 4856 
Q 1566 4138 1362 3434 
Q 1159 2731 1159 2009 
Q 1159 1288 1364 580 
Q 1569 -128 1984 -844 
L 1484 -844 
Q 1016 -109 783 600 
Q 550 1309 550 2009 
Q 550 2706 781 3412 
Q 1013 4119 1484 4856 
L 1984 4856 
z
" transform="scale(0.015625)"/>
       <path id="DejaVuSans-25" d="M 4653 2053 
Q 4381 2053 4226 1822 
Q 4072 1591 4072 1178 
Q 4072 772 4226 539 
Q 4381 306 4653 306 
Q 4919 306 5073 539 
Q 5228 772 5228 1178 
Q 5228 1588 5073 1820 
Q 4919 2053 4653 2053 
z
M 4653 2450 
Q 5147 2450 5437 2106 
Q 5728 1763 5728 1178 
Q 5728 594 5436 251 
Q 5144 -91 4653 -91 
Q 4153 -91 3862 251 
Q 3572 594 3572 1178 
Q 3572 1766 3864 2108 
Q 4156 2450 4653 2450 
z
M 1428 4353 
Q 1159 4353 1004 4120 
Q 850 3888 850 3481 
Q 850 3069 1003 2837 
Q 1156 2606 1428 2606 
Q 1700 2606 1854 2837 
Q 2009 3069 2009 3481 
Q 2009 3884 1853 4118 
Q 1697 4353 1428 4353 
z
M 4250 4750 
L 4750 4750 
L 1831 -91 
L 1331 -91 
L 4250 4750 
z
M 1428 4750 
Q 1922 4750 2215 4408 
Q 2509 4066 2509 3481 
Q 2509 2891 2217 2550 
Q 1925 2209 1428 2209 
Q 931 2209 642 2551 
Q 353 2894 353 3481 
Q 353 4063 643 4406 
Q 934 4750 1428 4750 
z
" transform="scale(0.015625)"/>
       <path id="DejaVuSans-29" d="M 513 4856 
L 1013 4856 
Q 1481 4119 1714 3412 
Q 1947 2706 1947 2009 
Q 1947 1309 1714 600 
Q 1481 -109 1013 -844 
L 513 -844 
Q 928 -128 1133 580 
Q 1338 1288 1338 2009 
Q 1338 2731 1133 3434 
Q 928 4138 513 4856 
z
" transform="scale(0.015625)"/>
      </defs>
      <use xlink:href="#DejaVuSans-53"/>
      <use xlink:href="#DejaVuSans-74" x="63.476562"/>
      <use xlink:href="#DejaVuSans-72" x="102.685547"/>
      <use xlink:href="#DejaVuSans-61" x="143.798828"/>
      <use xlink:href="#DejaVuSans-69" x="205.078125"/>
      <use xlink:href="#DejaVuSans-6e" x="232.861328"/>
      <use xlink:href="#DejaVuSans-28" x="296.240234"/>
      <use xlink:href="#DejaVuSans-25" x="335.253906"/>
      <use xlink:href="#DejaVuSans-29" x="430.273438"/>
     </g>
    </g>
   </g>
   <g id="matplotlib.axis_2">
    <g id="ytick_1">
     <g id="line2d_9">
      <defs>
       <path id="m9b80fdba1c" d="M 0 0 
L -3.5 0 
" style="stroke: #000000; stroke-width: 0.8"/>
      </defs>
      <g>
       <use xlink:href="#m9b80fdba1c" x="53.328125" y="339.838125" style="stroke: #000000; stroke-width: 0.8"/>
      </g>
     </g>
     <g id="text_10">
      <!-- 0 -->
      <g transform="translate(39.965625 343.637344) scale(0.1 -0.1)">
       <use xlink:href="#DejaVuSans-30"/>
      </g>
     </g>
    </g>
    <g id="ytick_2">
     <g id="line2d_10">
      <g>
       <use xlink:href="#m9b80fdba1c" x="53.328125" y="268.934863" style="stroke: #000000; stroke-width: 0.8"/>
      </g>
     </g>
     <g id="text_11">
      <!-- 1000 -->
      <g transform="translate(20.878125 272.734082) scale(0.1 -0.1)">
       <use xlink:href="#DejaVuSans-31"/>
       <use xlink:href="#DejaVuSans-30" x="63.623047"/>
       <use xlink:href="#DejaVuSans-30" x="127.246094"/>
       <use xlink:href="#DejaVuSans-30" x="190.869141"/>
      </g>
     </g>
    </g>
    <g id="ytick_3">
     <g id="line2d_11">
      <g>
       <use xlink:href="#m9b80fdba1c" x="53.328125" y="198.031602" style="stroke: #000000; stroke-width: 0.8"/>
      </g>
     </g>
     <g id="text_12">
      <!-- 2000 -->
      <g transform="translate(20.878125 201.830821) scale(0.1 -0.1)">
       <use xlink:href="#DejaVuSans-32"/>
       <use xlink:href="#DejaVuSans-30" x="63.623047"/>
       <use xlink:href="#DejaVuSans-30" x="127.246094"/>
       <use xlink:href="#DejaVuSans-30" x="190.869141"/>
      </g>
     </g>
    </g>
    <g id="ytick_4">
     <g id="line2d_12">
      <g>
       <use xlink:href="#m9b80fdba1c" x="53.328125" y="127.12834" style="stroke: #000000; stroke-width: 0.8"/>
      </g>
     </g>
     <g id="text_13">
      <!-- 3000 -->
      <g transform="translate(20.878125 130.927559) scale(0.1 -0.1)">
       <use xlink:href="#DejaVuSans-33"/>
       <use xlink:href="#DejaVuSans-30" x="63.623047"/>
       <use xlink:href="#DejaVuSans-30" x="127.246094"/>
       <use xlink:href="#DejaVuSans-30" x="190.869141"/>
      </g>
     </g>
    </g>
    <g id="ytick_5">
     <g id="line2d_13">
      <g>
       <use xlink:href="#m9b80fdba1c" x="53.328125" y="56.225079" style="stroke: #000000; stroke-width: 0.8"/>
      </g>
     </g>
     <g id="text_14">
      <!-- 4000 -->
      <g transform="translate(20.878125 60.024297) scale(0.1 -0.1)">
       <defs>
        <path id="DejaVuSans-34" d="M 2419 4116 
L 825 1625 
L 2419 1625 
L 2419 4116 
z
M 2253 4666 
L 3047 4666 
L 3047 1625 
L 3713 1625 
L 3713 1100 
L 3047 1100 
L 3047 0 
L 2419 0 
L 2419 1100 
L 313 1100 
L 313 1709 
L 2253 4666 
z
" transform="scale(0.015625)"/>
       </defs>
       <use xlink:href="#DejaVuSans-34"/>
       <use xlink:href="#DejaVuSans-30" x="63.623047"/>
       <use xlink:href="#DejaVuSans-30" x="127.246094"/>
       <use xlink:href="#DejaVuSans-30" x="190.869141"/>
      </g>
     </g>
    </g>
    <g id="text_15">
     <!-- Stress(MPa) -->
     <g transform="translate(14.798438 218.070937) rotate(-90) scale(0.1 -0.1)">
      <defs>
       <path id="DejaVuSans-65" d="M 3597 1894 
L 3597 1613 
L 953 1613 
Q 991 1019 1311 708 
Q 1631 397 2203 397 
Q 2534 397 2845 478 
Q 3156 559 3463 722 
L 3463 178 
Q 3153 47 2828 -22 
Q 2503 -91 2169 -91 
Q 1331 -91 842 396 
Q 353 884 353 1716 
Q 353 2575 817 3079 
Q 1281 3584 2069 3584 
Q 2775 3584 3186 3129 
Q 3597 2675 3597 1894 
z
M 3022 2063 
Q 3016 2534 2758 2815 
Q 2500 3097 2075 3097 
Q 1594 3097 1305 2825 
Q 1016 2553 972 2059 
L 3022 2063 
z
" transform="scale(0.015625)"/>
       <path id="DejaVuSans-73" d="M 2834 3397 
L 2834 2853 
Q 2591 2978 2328 3040 
Q 2066 3103 1784 3103 
Q 1356 3103 1142 2972 
Q 928 2841 928 2578 
Q 928 2378 1081 2264 
Q 1234 2150 1697 2047 
L 1894 2003 
Q 2506 1872 2764 1633 
Q 3022 1394 3022 966 
Q 3022 478 2636 193 
Q 2250 -91 1575 -91 
Q 1294 -91 989 -36 
Q 684 19 347 128 
L 347 722 
Q 666 556 975 473 
Q 1284 391 1588 391 
Q 1994 391 2212 530 
Q 2431 669 2431 922 
Q 2431 1156 2273 1281 
Q 2116 1406 1581 1522 
L 1381 1569 
Q 847 1681 609 1914 
Q 372 2147 372 2553 
Q 372 3047 722 3315 
Q 1072 3584 1716 3584 
Q 2034 3584 2315 3537 
Q 2597 3491 2834 3397 
z
" transform="scale(0.015625)"/>
       <path id="DejaVuSans-4d" d="M 628 4666 
L 1569 4666 
L 2759 1491 
L 3956 4666 
L 4897 4666 
L 4897 0 
L 4281 0 
L 4281 4097 
L 3078 897 
L 2444 897 
L 1241 4097 
L 1241 0 
L 628 0 
L 628 4666 
z
" transform="scale(0.015625)"/>
       <path id="DejaVuSans-50" d="M 1259 4147 
L 1259 2394 
L 2053 2394 
Q 2494 2394 2734 2622 
Q 2975 2850 2975 3272 
Q 2975 3691 2734 3919 
Q 2494 4147 2053 4147 
L 1259 4147 
z
M 628 4666 
L 2053 4666 
Q 2838 4666 3239 4311 
Q 3641 3956 3641 3272 
Q 3641 2581 3239 2228 
Q 2838 1875 2053 1875 
L 1259 1875 
L 1259 0 
L 628 0 
L 628 4666 
z
" transform="scale(0.015625)"/>
      </defs>
      <use xlink:href="#DejaVuSans-53"/>
      <use xlink:href="#DejaVuSans-74" x="63.476562"/>
      <use xlink:href="#DejaVuSans-72" x="102.685547"/>
      <use xlink:href="#DejaVuSans-65" x="141.548828"/>
      <use xlink:href="#DejaVuSans-73" x="203.072266"/>
      <use xlink:href="#DejaVuSans-73" x="255.171875"/>
      <use xlink:href="#DejaVuSans-28" x="307.271484"/>
      <use xlink:href="#DejaVuSans-4d" x="346.285156"/>
      <use xlink:href="#DejaVuSans-50" x="432.564453"/>
      <use xlink:href="#DejaVuSans-61" x="488.367188"/>
      <use xlink:href="#DejaVuSans-29" x="549.646484"/>
     </g>
    </g>
   </g>
   <g id="line2d_14">
    <path d="M 73.619034 339.838125 
L 75.273547 335.579249 
L 76.085113 333.010867 
L 76.896679 329.64911 
L 77.708245 330.514738 
L 78.519811 327.059923 
L 79.331377 325.853737 
L 80.142943 320.947085 
L 80.954509 320.213942 
L 81.766075 320.601336 
L 82.577641 319.537539 
L 83.389207 318.870499 
L 84.200773 317.712447 
L 85.823905 313.055442 
L 86.635471 317.917676 
L 87.447037 315.60445 
L 88.258603 315.547196 
L 89.070169 315.954365 
L 89.881735 313.073037 
L 90.693301 313.211259 
L 91.504867 308.770776 
L 92.316433 313.806503 
L 93.127999 311.341044 
L 93.939565 311.415773 
L 94.751131 311.895525 
L 95.562697 313.402766 
L 96.374263 310.05593 
L 97.185829 312.51177 
L 97.997395 308.285808 
L 98.808962 309.518143 
L 99.620528 308.494572 
L 100.432094 308.909516 
L 101.24366 308.092594 
L 102.055226 308.59182 
L 102.866792 310.734743 
L 103.678358 307.89695 
L 104.489924 307.603868 
L 105.30149 307.898046 
L 106.113056 307.334957 
L 106.924622 308.464584 
L 107.736188 306.252431 
L 108.547754 308.081774 
L 109.35932 307.298353 
L 110.170886 310.753398 
L 110.982452 307.264195 
L 111.794018 309.699194 
L 112.605584 309.240092 
L 113.41715 310.551185 
L 115.040282 307.13826 
L 115.851848 308.480225 
L 116.663414 308.447883 
L 117.47498 309.995935 
L 118.286546 310.455221 
L 119.098112 305.860658 
L 119.909678 307.08258 
L 120.721244 305.964109 
L 121.53281 308.28695 
L 122.344376 307.314838 
L 123.155942 302.045524 
L 123.967508 308.291211 
L 124.779074 309.197256 
L 125.59064 310.775183 
L 126.402206 309.714236 
L 127.213772 313.985732 
L 128.025339 310.873345 
L 128.836905 313.199167 
L 129.648471 310.736342 
L 130.460037 314.375512 
L 131.271603 315.172571 
L 132.083169 313.755279 
L 132.894735 310.771464 
L 133.706301 310.215005 
L 134.517867 311.135329 
L 135.329433 311.017984 
L 136.140999 310.419624 
L 136.952565 311.799678 
L 137.764131 308.4132 
L 138.575697 308.424704 
L 139.387263 307.938592 
L 140.198829 308.752132 
L 141.010395 307.42098 
L 141.821961 306.789796 
L 142.633527 308.240693 
L 143.445093 306.822876 
L 144.256659 306.56354 
L 145.068225 309.486233 
L 145.879791 311.112785 
L 146.691357 308.58105 
L 147.502923 308.379769 
L 148.314489 310.512111 
L 149.937621 311.133801 
L 150.749187 307.284222 
L 151.560753 308.733509 
L 152.372319 307.663799 
L 153.183885 307.351715 
L 153.995451 313.276203 
L 154.807017 309.34354 
L 155.618583 309.928531 
L 156.430149 313.817826 
L 157.241716 308.910239 
L 158.053282 314.790754 
L 158.864848 310.446202 
L 159.676414 311.013202 
L 160.48798 309.311109 
L 161.299546 313.532536 
L 162.111112 312.335742 
L 162.922678 309.055463 
L 163.734244 308.736487 
L 164.54581 309.472073 
L 165.357376 309.278298 
L 166.168942 311.175045 
L 166.980508 311.057215 
L 167.792074 310.413392 
L 168.60364 311.85727 
L 169.415206 311.176545 
L 170.226772 311.839774 
L 171.038338 310.604483 
L 171.849904 307.046717 
L 172.66147 310.745464 
L 173.473036 309.145337 
L 174.284602 309.273987 
L 175.096168 308.645231 
L 175.911521 306.610166 
L 176.723087 304.255412 
L 177.534654 304.928979 
L 179.157786 303.858882 
L 179.969352 305.858889 
L 180.780918 303.535127 
L 181.592484 306.923448 
L 182.40405 302.424296 
L 183.215616 299.826237 
L 184.027182 302.237462 
L 184.838748 302.482419 
L 185.650314 303.174984 
L 186.46188 299.526147 
L 187.273446 300.240196 
L 188.085012 302.971169 
L 188.896578 299.964134 
L 189.708144 299.031844 
L 190.51971 301.612479 
L 191.331276 299.796862 
L 192.142842 300.406829 
L 192.954408 297.726278 
L 193.765974 303.105591 
L 194.57754 297.419203 
L 195.389106 301.669389 
L 196.200672 303.636526 
L 197.012238 307.093914 
L 197.823804 298.520962 
L 198.63537 303.967335 
L 199.446936 298.440667 
L 200.258502 295.610305 
L 201.881634 301.288015 
L 202.6932 302.832281 
L 203.504766 300.823939 
L 204.316332 299.945958 
L 205.127898 302.338868 
L 205.939465 303.246809 
L 206.751031 306.816927 
L 207.562597 301.723697 
L 208.374163 305.065829 
L 209.185729 307.670616 
L 209.997295 306.591515 
L 210.808861 304.623432 
L 211.620427 304.799197 
L 212.431993 306.441147 
L 213.243559 304.890818 
L 214.055125 306.018577 
L 214.866691 302.646376 
L 215.678257 302.429887 
L 216.489823 305.260363 
L 217.301389 301.17028 
L 218.112955 299.911495 
L 218.924521 301.86706 
L 219.736087 297.908049 
L 220.547653 298.201585 
L 221.359219 297.547517 
L 222.170785 296.709149 
L 222.982351 295.625467 
L 223.793917 294.987062 
L 224.605483 296.167583 
L 225.417049 297.909634 
L 226.228615 299.319332 
L 227.040181 298.800285 
L 227.851747 299.44716 
L 228.663313 297.434802 
L 229.474879 297.477829 
L 230.286445 298.68846 
L 231.098011 298.431875 
L 231.909577 299.770054 
L 232.721143 298.844798 
L 233.532709 300.82458 
L 234.344275 298.784257 
L 235.967408 296.553151 
L 236.778974 293.827588 
L 237.59054 292.197717 
L 238.402106 293.054703 
L 239.213672 291.274187 
L 240.025238 293.483154 
L 240.836804 291.930259 
L 241.64837 292.789543 
L 242.459936 293.955958 
L 243.271502 289.823379 
L 244.083068 289.229015 
L 244.894634 290.146939 
L 245.7062 289.756358 
L 246.517766 288.656843 
L 247.329332 285.563107 
L 248.140898 286.803588 
L 248.952464 287.213831 
L 249.76403 290.496425 
L 250.575596 288.643205 
L 251.387162 283.849815 
L 252.198728 287.679204 
L 253.010294 285.427175 
L 253.82186 286.158783 
L 254.633426 283.639526 
L 255.444992 291.628041 
L 256.256558 288.417733 
L 257.068124 285.895168 
L 257.87969 289.177826 
L 258.691256 286.538934 
L 259.502822 283.313591 
L 260.314388 284.203693 
L 261.125954 284.790456 
L 261.93752 287.194924 
L 262.749086 285.04613 
L 263.560652 289.984202 
L 264.372219 287.720385 
L 265.183785 288.729632 
L 265.995351 284.859045 
L 266.806917 283.049001 
L 267.618483 282.915125 
L 268.430049 276.50657 
L 269.241615 278.055019 
L 270.053181 279.284038 
L 270.864747 277.406038 
L 271.676313 276.889933 
L 272.487879 278.551654 
L 273.299445 279.158571 
L 274.111011 279.18164 
L 274.922577 281.429379 
L 275.734143 286.814149 
L 276.545709 283.963455 
L 277.357275 279.629241 
L 278.168841 281.405375 
L 278.980407 279.102157 
L 279.791973 285.349093 
L 280.603539 280.564739 
L 281.415105 284.04321 
L 282.226671 290.677349 
L 283.038237 294.316593 
L 283.849803 286.702455 
L 284.661369 288.245083 
L 285.472935 289.076878 
L 286.284501 285.273187 
L 287.096067 285.713652 
L 288.719199 280.522573 
L 289.530765 280.869797 
L 290.342331 280.582071 
L 291.153897 278.085986 
L 291.965463 280.504726 
L 292.777029 280.000338 
L 293.588596 276.71355 
L 294.400162 277.263472 
L 295.211728 277.255131 
L 296.023294 278.240317 
L 296.83486 270.830572 
L 297.646426 274.060134 
L 298.457992 273.244807 
L 299.269558 270.951898 
L 300.081124 272.01527 
L 300.89269 269.234979 
L 301.704256 265.111752 
L 302.515822 266.12066 
L 303.327388 266.258737 
L 304.138954 270.029422 
L 304.95052 265.040108 
L 305.762086 262.55514 
L 306.573652 258.977355 
L 307.385218 261.263042 
L 308.196784 261.22719 
L 309.00835 257.772588 
L 309.819916 256.860205 
L 310.631482 255.684086 
L 311.443048 255.773825 
L 312.254614 254.525903 
L 313.06618 256.236228 
L 313.877746 251.622655 
L 314.689312 259.212516 
L 315.500878 264.469723 
L 316.312444 264.074537 
L 317.12401 264.206906 
L 317.935576 259.983387 
L 318.747142 259.903525 
L 319.558708 258.785391 
L 320.370274 258.681865 
L 321.18184 257.682126 
L 321.993406 261.054625 
L 322.804973 257.709296 
L 323.616539 264.899142 
L 324.428105 259.813354 
L 326.051237 260.702243 
L 326.862803 254.447094 
L 327.674369 254.522219 
L 328.485935 253.485929 
L 329.297501 254.664908 
L 330.109067 251.736143 
L 330.920633 252.501614 
L 331.732199 253.962824 
L 332.543765 249.226416 
L 333.355331 251.074225 
L 334.166897 247.802501 
L 334.978463 248.848767 
L 335.790029 244.629048 
L 336.601595 243.02082 
L 337.413161 242.705691 
L 338.224727 238.182559 
L 339.036293 234.838336 
L 339.847859 230.904623 
L 340.659425 224.515601 
L 341.470991 230.567442 
L 342.282557 224.564737 
L 343.094123 221.928908 
L 343.905689 219.905045 
L 344.717255 216.902292 
L 345.528821 222.170688 
L 346.340387 214.710814 
L 347.151953 211.377404 
L 347.963519 206.265279 
L 348.775085 211.198444 
L 349.586651 209.765099 
L 350.398217 211.387472 
L 351.209783 206.506562 
L 352.02135 205.132599 
L 352.832916 205.228992 
L 353.644482 206.482597 
L 354.456048 202.643185 
L 355.267614 203.430247 
L 356.07918 207.769456 
L 356.890746 202.180187 
L 357.702312 203.365902 
L 358.513878 203.806495 
L 359.325444 203.618672 
L 360.13701 209.722557 
L 360.948576 212.860558 
L 361.760142 207.466132 
L 362.571708 204.244181 
L 363.383274 209.081521 
L 364.19484 210.787843 
L 365.006406 208.818576 
L 365.817972 211.736068 
L 366.629538 206.313564 
L 367.441104 210.396457 
L 368.25267 208.902242 
L 369.064236 202.916978 
L 369.875802 203.303117 
L 370.687368 204.675592 
L 371.498934 203.059033 
L 372.3105 197.67276 
L 373.122066 199.376991 
L 373.933632 198.326205 
L 374.745198 194.810963 
L 375.556764 192.646251 
L 376.36833 188.601539 
L 377.179896 193.606919 
L 377.991462 196.139938 
L 378.803028 190.545671 
L 380.426161 188.493908 
L 381.237727 190.811381 
L 382.049293 194.433297 
L 383.672425 193.47667 
L 385.295557 187.727798 
L 386.107123 181.797662 
L 386.918689 182.064967 
L 387.730255 176.710034 
L 388.541821 179.279816 
L 389.353387 183.829182 
L 390.164953 177.460899 
L 390.976519 173.117685 
L 391.788085 171.705682 
L 392.599651 174.650897 
L 393.411217 172.868708 
L 394.222783 163.750371 
L 395.034349 165.931462 
L 395.845915 157.321324 
L 396.657481 154.987579 
L 397.469047 157.169024 
L 398.280613 147.459744 
L 399.092179 141.291763 
L 399.903745 140.024048 
L 400.715311 137.060469 
L 401.526877 132.580127 
L 402.338443 129.52604 
L 403.150009 124.315608 
L 403.961575 120.064177 
L 404.773141 111.096723 
L 405.584707 111.725706 
L 406.396273 106.749786 
L 407.207839 103.260069 
L 408.830971 82.601446 
L 409.642538 83.150628 
L 410.454104 75.854469 
L 411.26567 66.795833 
L 412.077236 59.307846 
L 413.700368 49.461616 
L 414.511934 48.212691 
L 415.3235 50.893402 
L 416.135066 43.850864 
L 416.946632 47.735335 
L 417.758198 57.86103 
L 418.569764 45.656451 
L 419.38133 39.118249 
L 420.192896 37.991419 
L 421.004462 37.438125 
L 422.627594 73.864392 
L 423.43916 90.551368 
L 424.250726 87.014111 
L 425.062292 87.954997 
L 425.873858 95.443871 
L 426.685424 106.19635 
L 427.49699 124.147993 
L 428.308556 131.560716 
L 429.931688 151.549551 
L 430.743254 150.480861 
L 431.55482 168.030234 
L 432.366386 168.184094 
L 433.177952 169.154192 
L 433.989518 169.353395 
L 434.801084 181.307614 
L 435.61265 185.706417 
L 436.424216 185.661783 
L 437.235782 186.330968 
L 438.047348 181.001596 
L 438.858915 181.732892 
L 439.670481 179.216287 
L 440.482047 174.720559 
L 441.293613 173.368966 
L 442.105179 170.446085 
L 442.916745 168.604657 
L 443.728311 159.943291 
L 444.539877 162.833167 
L 445.351443 154.209664 
L 446.163009 153.052593 
L 446.974575 159.183847 
L 447.786141 161.039704 
L 448.597707 162.571463 
L 449.409273 168.418784 
L 450.220839 172.916638 
L 451.032405 172.005638 
L 451.843971 159.860583 
L 452.655537 161.31371 
L 453.467103 161.517096 
L 454.278669 157.620642 
L 455.090235 160.989327 
L 455.901801 168.760254 
L 456.713367 166.643614 
L 457.524933 164.036962 
L 458.336499 167.595668 
L 459.148065 170.618132 
L 459.959631 166.539245 
L 460.771197 170.955986 
L 461.582763 173.952712 
L 462.394329 164.741705 
L 463.205895 170.565486 
L 464.017461 166.931765 
L 464.829027 167.645158 
L 465.640593 171.686821 
L 466.452159 163.123445 
L 467.263725 168.497983 
L 468.075292 166.113825 
L 468.886858 167.021139 
L 469.698424 173.56434 
L 470.50999 164.86451 
L 471.321556 168.23323 
L 472.133122 162.25254 
L 472.944688 162.546044 
L 473.756254 161.801595 
L 474.56782 165.483814 
L 475.379386 176.658629 
L 476.190952 191.114457 
L 477.814084 203.591233 
L 478.62565 206.601714 
L 479.437216 202.412643 
L 479.437216 202.412643 
" clip-path="url(#pd4fa06b909)" style="fill: none; stroke: #1f77b4; stroke-width: 1.5; stroke-linecap: square"/>
   </g>
   <g id="patch_3">
    <path d="M 53.328125 354.958125 
L 53.328125 22.318125 
" style="fill: none; stroke: #000000; stroke-width: 0.8; stroke-linejoin: miter; stroke-linecap: square"/>
   </g>
   <g id="patch_4">
    <path d="M 499.728125 354.958125 
L 499.728125 22.318125 
" style="fill: none; stroke: #000000; stroke-width: 0.8; stroke-linejoin: miter; stroke-linecap: square"/>
   </g>
   <g id="patch_5">
    <path d="M 53.328125 354.958125 
L 499.728125 354.958125 
" style="fill: none; stroke: #000000; stroke-width: 0.8; stroke-linejoin: miter; stroke-linecap: square"/>
   </g>
   <g id="patch_6">
    <path d="M 53.328125 22.318125 
L 499.728125 22.318125 
" style="fill: none; stroke: #000000; stroke-width: 0.8; stroke-linejoin: miter; stroke-linecap: square"/>
   </g>
   <g id="text_16">
    <!-- NO5M Stress-Strain Curve -->
    <g transform="translate(198.431562 16.318125) scale(0.12 -0.12)">
     <defs>
      <path id="DejaVuSans-4e" d="M 628 4666 
L 1478 4666 
L 3547 763 
L 3547 4666 
L 4159 4666 
L 4159 0 
L 3309 0 
L 1241 3903 
L 1241 0 
L 628 0 
L 628 4666 
z
" transform="scale(0.015625)"/>
      <path id="DejaVuSans-4f" d="M 2522 4238 
Q 1834 4238 1429 3725 
Q 1025 3213 1025 2328 
Q 1025 1447 1429 934 
Q 1834 422 2522 422 
Q 3209 422 3611 934 
Q 4013 1447 4013 2328 
Q 4013 3213 3611 3725 
Q 3209 4238 2522 4238 
z
M 2522 4750 
Q 3503 4750 4090 4092 
Q 4678 3434 4678 2328 
Q 4678 1225 4090 567 
Q 3503 -91 2522 -91 
Q 1538 -91 948 565 
Q 359 1222 359 2328 
Q 359 3434 948 4092 
Q 1538 4750 2522 4750 
z
" transform="scale(0.015625)"/>
      <path id="DejaVuSans-20" transform="scale(0.015625)"/>
      <path id="DejaVuSans-2d" d="M 313 2009 
L 1997 2009 
L 1997 1497 
L 313 1497 
L 313 2009 
z
" transform="scale(0.015625)"/>
      <path id="DejaVuSans-43" d="M 4122 4306 
L 4122 3641 
Q 3803 3938 3442 4084 
Q 3081 4231 2675 4231 
Q 1875 4231 1450 3742 
Q 1025 3253 1025 2328 
Q 1025 1406 1450 917 
Q 1875 428 2675 428 
Q 3081 428 3442 575 
Q 3803 722 4122 1019 
L 4122 359 
Q 3791 134 3420 21 
Q 3050 -91 2638 -91 
Q 1578 -91 968 557 
Q 359 1206 359 2328 
Q 359 3453 968 4101 
Q 1578 4750 2638 4750 
Q 3056 4750 3426 4639 
Q 3797 4528 4122 4306 
z
" transform="scale(0.015625)"/>
      <path id="DejaVuSans-75" d="M 544 1381 
L 544 3500 
L 1119 3500 
L 1119 1403 
Q 1119 906 1312 657 
Q 1506 409 1894 409 
Q 2359 409 2629 706 
Q 2900 1003 2900 1516 
L 2900 3500 
L 3475 3500 
L 3475 0 
L 2900 0 
L 2900 538 
Q 2691 219 2414 64 
Q 2138 -91 1772 -91 
Q 1169 -91 856 284 
Q 544 659 544 1381 
z
M 1991 3584 
L 1991 3584 
z
" transform="scale(0.015625)"/>
      <path id="DejaVuSans-76" d="M 191 3500 
L 800 3500 
L 1894 563 
L 2988 3500 
L 3597 3500 
L 2284 0 
L 1503 0 
L 191 3500 
z
" transform="scale(0.015625)"/>
     </defs>
     <use xlink:href="#DejaVuSans-4e"/>
     <use xlink:href="#DejaVuSans-4f" x="74.804688"/>
     <use xlink:href="#DejaVuSans-35" x="153.515625"/>
     <use xlink:href="#DejaVuSans-4d" x="217.138672"/>
     <use xlink:href="#DejaVuSans-20" x="303.417969"/>
     <use xlink:href="#DejaVuSans-53" x="335.205078"/>
     <use xlink:href="#DejaVuSans-74" x="398.681641"/>
     <use xlink:href="#DejaVuSans-72" x="437.890625"/>
     <use xlink:href="#DejaVuSans-65" x="476.753906"/>
     <use xlink:href="#DejaVuSans-73" x="538.277344"/>
     <use xlink:href="#DejaVuSans-73" x="590.376953"/>
     <use xlink:href="#DejaVuSans-2d" x="642.476562"/>
     <use xlink:href="#DejaVuSans-53" x="678.560547"/>
     <use xlink:href="#DejaVuSans-74" x="742.037109"/>
     <use xlink:href="#DejaVuSans-72" x="781.246094"/>
     <use xlink:href="#DejaVuSans-61" x="822.359375"/>
     <use xlink:href="#DejaVuSans-69" x="883.638672"/>
     <use xlink:href="#DejaVuSans-6e" x="911.421875"/>
     <use xlink:href="#DejaVuSans-20" x="974.800781"/>
     <use xlink:href="#DejaVuSans-43" x="1006.587891"/>
     <use xlink:href="#DejaVuSans-75" x="1076.412109"/>
     <use xlink:href="#DejaVuSans-72" x="1139.791016"/>
     <use xlink:href="#DejaVuSans-76" x="1180.904297"/>
     <use xlink:href="#DejaVuSans-65" x="1240.083984"/>
    </g>
   </g>
  </g>
 </g>
 <defs>
  <clipPath id="pd4fa06b909">
   <rect x="53.328125" y="22.318125" width="446.4" height="332.64"/>
  </clipPath>
 </defs>
</svg>
