<?xml version="1.0" encoding="utf-8" standalone="no"?>
<!DOCTYPE svg PUBLIC "-//W3C//DTD SVG 1.1//EN"
  "http://www.w3.org/Graphics/SVG/1.1/DTD/svg11.dtd">
<svg xmlns:xlink="http://www.w3.org/1999/xlink" width="529.345621pt" height="412.854312pt" viewBox="0 0 529.345621 412.854312" xmlns="http://www.w3.org/2000/svg" version="1.1">
 <metadata>
  <rdf:RDF xmlns:dc="http://purl.org/dc/elements/1.1/" xmlns:cc="http://creativecommons.org/ns#" xmlns:rdf="http://www.w3.org/1999/02/22-rdf-syntax-ns#">
   <cc:Work>
    <dc:type rdf:resource="http://purl.org/dc/dcmitype/StillImage"/>
    <dc:date>2025-11-12T10:47:32.282090</dc:date>
    <dc:format>image/svg+xml</dc:format>
    <dc:creator>
     <cc:Agent>
      <dc:title>Matplotlib v3.9.0, https://matplotlib.org/</dc:title>
     </cc:Agent>
    </dc:creator>
   </cc:Work>
  </rdf:RDF>
 </metadata>
 <defs>
  <style type="text/css">*{stroke-linejoin: round; stroke-linecap: butt}</style>
 </defs>
 <g id="figure_1">
  <g id="patch_1">
   <path d="M 0 412.854312 
L 529.345621 412.854312 
L 529.345621 0 
L 0 0 
z
" style="fill: #ffffff"/>
  </g>
  <g id="axes_1">
   <g id="patch_2">
    <path d="M 75.130625 361.300875 
L 521.530625 361.300875 
L 521.530625 28.660875 
L 75.130625 28.660875 
z
" style="fill: #ffffff"/>
   </g>
   <g id="PolyCollection_1">
    <path d="M 75.145025 368.416087 
L 75.145025 375.60446 
L 77.669177 367.011426 
L 80.154884 359.615952 
L 82.640591 353.189869 
L 85.126299 347.649554 
L 87.612006 342.916203 
L 90.097713 338.915647 
L 92.58342 335.57817 
L 95.069127 332.838343 
L 97.554834 330.634847 
L 100.040541 328.910311 
L 102.526248 327.61115 
L 105.011955 326.687402 
L 107.497662 326.092583 
L 109.983369 325.783526 
L 112.469077 325.720243 
L 114.954784 325.865777 
L 117.440491 326.186064 
L 119.926198 326.6498 
L 122.411905 327.228305 
L 124.897612 327.895397 
L 127.383319 328.627267 
L 129.869026 329.402356 
L 132.354733 330.201239 
L 134.84044 331.006511 
L 137.326148 331.802672 
L 139.811855 332.576024 
L 142.297562 333.314561 
L 144.783269 334.007874 
L 147.268976 334.647047 
L 149.754683 335.224563 
L 152.24039 335.734216 
L 154.726097 336.171018 
L 157.211804 336.531114 
L 159.697511 336.811699 
L 162.183219 337.010938 
L 164.668926 337.127889 
L 167.154633 337.162432 
L 169.64034 337.115188 
L 172.126047 336.987462 
L 174.611754 336.781169 
L 177.097461 336.498772 
L 179.583168 336.143223 
L 182.068875 335.717906 
L 184.554582 335.226577 
L 187.04029 334.673313 
L 189.525997 334.062464 
L 192.011704 333.3986 
L 194.497411 332.686468 
L 196.983118 331.930949 
L 199.468825 331.137015 
L 201.959172 330.308117 
L 204.444879 329.452394 
L 206.930586 328.57335 
L 209.416293 327.675958 
L 211.902 326.765104 
L 214.387708 325.845567 
L 216.873415 324.921988 
L 219.359122 323.998848 
L 221.844829 323.080442 
L 224.330536 322.170863 
L 226.816243 321.27398 
L 229.30195 320.393421 
L 231.787657 319.532558 
L 234.273364 318.694495 
L 236.759071 317.882054 
L 239.244779 317.097763 
L 241.730486 316.343853 
L 244.216193 315.622244 
L 246.7019 314.934544 
L 249.187607 314.282042 
L 251.673314 313.665705 
L 254.159021 313.086179 
L 256.644728 312.543786 
L 259.130435 312.038524 
L 261.616142 311.570073 
L 264.101849 311.137797 
L 266.587557 310.740744 
L 269.073264 310.37766 
L 271.558971 310.046987 
L 274.044678 309.746878 
L 276.530385 309.475199 
L 279.016092 309.229545 
L 281.501799 309.007245 
L 283.987506 308.805378 
L 286.473213 308.620779 
L 288.95892 308.45006 
L 291.444628 308.289617 
L 293.930335 308.135645 
L 296.416042 307.984158 
L 298.901749 307.830997 
L 301.387456 307.671853 
L 303.873163 307.502279 
L 306.35887 307.317707 
L 308.844577 307.11347 
L 311.330284 306.884815 
L 313.815991 306.626921 
L 316.301699 306.334923 
L 318.787406 306.003923 
L 321.273113 305.629016 
L 323.75882 305.205304 
L 326.244527 304.727916 
L 328.730234 304.192031 
L 331.215941 303.592893 
L 333.701648 302.925832 
L 336.187355 302.186283 
L 338.673062 301.369805 
L 341.158769 300.472101 
L 343.644477 299.489036 
L 346.130184 298.416655 
L 348.615891 297.251202 
L 351.101598 295.98914 
L 353.587305 294.627165 
L 356.073012 293.162226 
L 358.558719 291.591543 
L 361.044426 289.912618 
L 363.530133 288.123257 
L 366.01584 286.221583 
L 368.501548 284.20605 
L 370.987255 282.075458 
L 373.472962 279.828967 
L 375.958669 277.466108 
L 378.444376 274.986798 
L 380.930083 272.391346 
L 383.41579 269.68047 
L 385.901497 266.8553 
L 388.387204 263.917392 
L 390.872911 260.86873 
L 393.358619 257.711737 
L 395.844326 254.44928 
L 398.330033 251.08467 
L 400.81574 247.62167 
L 403.301447 244.064495 
L 405.787154 240.417812 
L 408.272861 236.686741 
L 410.758568 232.876851 
L 413.244275 228.994162 
L 415.729982 225.04513 
L 418.21569 221.036654 
L 420.701397 216.976056 
L 423.187104 212.871082 
L 425.672811 208.729885 
L 428.158518 204.561014 
L 430.644225 200.373402 
L 433.129932 196.176348 
L 435.615639 191.9795 
L 438.101346 187.792839 
L 440.587053 183.626652 
L 443.07276 179.491514 
L 445.558468 175.398262 
L 448.044175 171.357966 
L 450.529882 167.381904 
L 453.015589 163.481527 
L 455.501296 159.668429 
L 457.987003 155.954313 
L 460.47271 152.35095 
L 462.958417 148.870142 
L 465.444124 145.52368 
L 467.929831 142.323299 
L 470.415539 139.280634 
L 472.901246 136.40717 
L 475.386953 133.71419 
L 477.87266 131.212722 
L 480.358367 128.913484 
L 482.844074 126.826823 
L 485.329781 124.962658 
L 487.815488 123.330411 
L 490.301195 121.938944 
L 492.786902 120.796488 
L 495.27261 119.910571 
L 497.758317 119.287946 
L 500.244024 118.934508 
L 502.729731 118.855218 
L 505.215438 119.054019 
L 507.701145 119.533747 
L 510.186852 120.296042 
L 512.672559 121.341259 
L 515.158266 122.668367 
L 517.643973 124.274855 
L 520.12968 126.156627 
L 522.615388 128.307897 
L 525.101095 130.721083 
L 527.586802 133.38669 
L 530.072509 136.293202 
L 532.558216 139.426956 
L 535.043923 142.772027 
L 537.52963 146.310096 
L 540.015337 150.020325 
L 542.501044 153.879224 
L 544.986751 157.860512 
L 547.472459 161.934983 
L 549.958166 166.070355 
L 552.443873 170.231127 
L 554.92958 174.37843 
L 557.415287 178.469866 
L 559.900994 182.459353 
L 562.386701 186.296964 
L 564.872408 189.928757 
L 567.358115 193.296603 
L 569.843822 196.338018 
L 572.32953 198.985978 
L 572.32953 178.630189 
L 572.32953 178.630189 
L 569.843822 176.53338 
L 567.358115 173.947929 
L 564.872408 170.949873 
L 562.386701 167.610184 
L 559.900994 163.99497 
L 557.415287 160.165667 
L 554.92958 156.179234 
L 552.443873 152.08833 
L 549.958166 147.941499 
L 547.472459 143.783347 
L 544.986751 139.65471 
L 542.501044 135.592825 
L 540.015337 131.631494 
L 537.52963 127.80124 
L 535.043923 124.129465 
L 532.558216 120.6406 
L 530.072509 117.356253 
L 527.586802 114.295353 
L 525.101095 111.474286 
L 522.615388 108.907033 
L 520.12968 106.605304 
L 517.643973 104.578661 
L 515.158266 102.834645 
L 512.672559 101.378897 
L 510.186852 100.215273 
L 507.701145 99.345959 
L 505.215438 98.77158 
L 502.729731 98.491307 
L 500.244024 98.502959 
L 497.758317 98.803102 
L 495.27261 99.387148 
L 492.786902 100.249445 
L 490.301195 101.383367 
L 487.815488 102.781402 
L 485.329781 104.435234 
L 482.844074 106.335822 
L 480.358367 108.473481 
L 477.87266 110.837952 
L 475.386953 113.418474 
L 472.901246 116.203854 
L 470.415539 119.182532 
L 467.929831 122.342642 
L 465.444124 125.67207 
L 462.958417 129.158517 
L 460.47271 132.789549 
L 457.987003 136.552647 
L 455.501296 140.435261 
L 453.015589 144.424853 
L 450.529882 148.508941 
L 448.044175 152.675145 
L 445.558468 156.911218 
L 443.07276 161.205091 
L 440.587053 165.544903 
L 438.101346 169.919035 
L 435.615639 174.316139 
L 433.129932 178.725165 
L 430.644225 183.135389 
L 428.158518 187.536438 
L 425.672811 191.918306 
L 423.187104 196.271378 
L 420.701397 200.586447 
L 418.21569 204.85473 
L 415.729982 209.067881 
L 413.244275 213.218004 
L 410.758568 217.297663 
L 408.272861 221.299892 
L 405.787154 225.2182 
L 403.301447 229.046578 
L 400.81574 232.779504 
L 398.330033 236.411942 
L 395.844326 239.939346 
L 393.358619 243.35766 
L 390.872911 246.663311 
L 388.387204 249.853215 
L 385.901497 252.924763 
L 383.41579 255.875821 
L 380.930083 258.704723 
L 378.444376 261.41026 
L 375.958669 263.991675 
L 373.472962 266.44865 
L 370.987255 268.781294 
L 368.501548 270.990135 
L 366.01584 273.076103 
L 363.530133 275.04052 
L 361.044426 276.885082 
L 358.558719 278.611846 
L 356.073012 280.223212 
L 353.587305 281.721908 
L 351.101598 283.110971 
L 348.615891 284.393732 
L 346.130184 285.573794 
L 343.644477 286.655016 
L 341.158769 287.641491 
L 338.673062 288.537528 
L 336.187355 289.347633 
L 333.701648 290.076486 
L 331.215941 290.728922 
L 328.730234 291.309909 
L 326.244527 291.82453 
L 323.75882 292.277957 
L 321.273113 292.675436 
L 318.787406 293.022261 
L 316.301699 293.323753 
L 313.815991 293.585245 
L 311.330284 293.812052 
L 308.844577 294.009459 
L 306.35887 294.182694 
L 303.873163 294.336912 
L 301.387456 294.477173 
L 298.901749 294.608424 
L 296.416042 294.735478 
L 293.930335 294.862998 
L 291.444628 294.995475 
L 288.95892 295.137216 
L 286.473213 295.292321 
L 283.987506 295.464673 
L 281.501799 295.657915 
L 279.016092 295.875443 
L 276.530385 296.120385 
L 274.044678 296.395594 
L 271.558971 296.703631 
L 269.073264 297.046754 
L 266.587557 297.426911 
L 264.101849 297.845728 
L 261.616142 298.3045 
L 259.130435 298.804184 
L 256.644728 299.345397 
L 254.159021 299.928405 
L 251.673314 300.553124 
L 249.187607 301.219115 
L 246.7019 301.925584 
L 244.216193 302.671385 
L 241.730486 303.455016 
L 239.244779 304.27463 
L 236.759071 305.128032 
L 234.273364 306.012692 
L 231.787657 306.925751 
L 229.30195 307.864029 
L 226.816243 308.824039 
L 224.330536 309.802001 
L 221.844829 310.793852 
L 219.359122 311.795272 
L 216.873415 312.801693 
L 214.387708 313.808328 
L 211.902 314.810189 
L 209.416293 315.802116 
L 206.930586 316.778799 
L 204.444879 317.734812 
L 201.959172 318.664643 
L 199.468825 319.56437 
L 196.983118 320.425049 
L 194.497411 321.242828 
L 192.011704 322.012211 
L 189.525997 322.727805 
L 187.04029 323.38437 
L 184.554582 323.976866 
L 182.068875 324.500503 
L 179.583168 324.950795 
L 177.097461 325.323615 
L 174.611754 325.615255 
L 172.126047 325.822488 
L 169.64034 325.94263 
L 167.154633 325.97361 
L 164.668926 325.914038 
L 162.183219 325.76328 
L 159.697511 325.52153 
L 157.211804 325.189896 
L 154.726097 324.770474 
L 152.24039 324.266441 
L 149.754683 323.682138 
L 147.268976 323.023163 
L 144.783269 322.29647 
L 142.297562 321.510461 
L 139.811855 320.675091 
L 137.326148 319.801974 
L 134.84044 318.904491 
L 132.354733 317.9979 
L 129.869026 317.099454 
L 127.383319 316.228519 
L 124.897612 315.4067 
L 122.411905 314.657962 
L 119.926198 314.008764 
L 117.440491 313.488196 
L 114.954784 313.128109 
L 112.469077 312.963265 
L 109.983369 313.031478 
L 107.497662 313.373767 
L 105.011955 314.034506 
L 102.526248 315.061585 
L 100.040541 316.506572 
L 97.554834 318.424878 
L 95.069127 320.875927 
L 92.58342 323.923333 
L 90.097713 327.635076 
L 87.612006 332.08369 
L 85.126299 337.346444 
L 82.640591 343.50554 
L 80.154884 350.648309 
L 77.669177 358.867409 
L 75.145025 368.416087 
z
" clip-path="url(#p5ee343cf48)" style="fill: #1f77b4; fill-opacity: 0.2"/>
   </g>
   <g id="PolyCollection_2">
    <path d="M 75.145025 357.569593 
L 75.145025 364.116442 
L 78.090523 356.619225 
L 80.993827 350.56693 
L 83.897131 345.672111 
L 86.800435 341.780463 
L 89.703739 338.75197 
L 92.607042 336.460033 
L 95.510346 334.790613 
L 98.41365 333.641417 
L 101.316954 332.921111 
L 104.220258 332.548572 
L 107.123562 332.452156 
L 110.026866 332.569014 
L 112.930169 332.844423 
L 115.833473 333.231157 
L 118.736777 333.688877 
L 121.640081 334.183554 
L 124.543385 334.686921 
L 127.446689 335.175949 
L 130.349993 335.632349 
L 133.253296 336.042098 
L 136.1566 336.394996 
L 139.059904 336.684242 
L 141.963208 336.906037 
L 144.866512 337.059206 
L 147.769816 337.144848 
L 150.67312 337.166006 
L 153.576423 337.127358 
L 156.479727 337.034929 
L 159.383031 336.895824 
L 162.286335 336.717983 
L 165.189639 336.509949 
L 168.092943 336.280664 
L 170.996247 336.039273 
L 173.89955 335.794955 
L 176.802854 335.556764 
L 179.706158 335.333489 
L 182.609462 335.133533 
L 185.512766 334.9648 
L 188.41607 334.834603 
L 191.319374 334.749588 
L 194.222677 334.715659 
L 197.125981 334.737934 
L 200.029285 334.820696 
L 202.932589 334.967372 
L 205.835893 335.18051 
L 208.739197 335.461771 
L 211.642501 335.811937 
L 214.545804 336.230922 
L 217.449108 336.717791 
L 220.352412 337.270794 
L 223.255716 337.8874 
L 226.15902 338.564347 
L 229.062324 339.297691 
L 231.965628 340.082863 
L 234.868931 340.914735 
L 237.772235 341.787691 
L 240.675539 342.695692 
L 243.578843 343.632362 
L 246.482147 344.591063 
L 249.385451 345.564978 
L 252.288755 346.547199 
L 255.192058 347.530809 
L 258.095362 348.508975 
L 260.998666 349.475031 
L 263.90197 350.422568 
L 266.805274 351.345521 
L 269.708578 352.238256 
L 272.611882 353.09565 
L 275.515185 353.913174 
L 278.418489 354.686974 
L 281.321793 355.413943 
L 284.225097 356.091791 
L 287.128401 356.719111 
L 290.031705 357.295442 
L 292.935009 357.821321 
L 295.838312 358.29833 
L 298.741616 358.729141 
L 301.64492 359.117545 
L 304.548224 359.46848 
L 307.451528 359.788046 
L 310.354832 360.083512 
L 313.258136 360.363315 
L 316.161439 360.637045 
L 319.065905 360.915532 
L 321.969208 361.21037 
L 324.872512 361.534524 
L 327.775816 361.901833 
L 330.67912 362.327046 
L 333.582424 362.825733 
L 336.485728 363.414179 
L 336.485728 353.143871 
L 336.485728 353.143871 
L 333.582424 353.334355 
L 330.67912 353.375442 
L 327.775816 353.295905 
L 324.872512 353.119376 
L 321.969208 352.864967 
L 319.065905 352.547833 
L 316.161439 352.179546 
L 313.258136 351.769197 
L 310.354832 351.322958 
L 307.451528 350.845074 
L 304.548224 350.338106 
L 301.64492 349.803277 
L 298.741616 349.240787 
L 295.838312 348.6501 
L 292.935009 348.03019 
L 290.031705 347.379771 
L 287.128401 346.697491 
L 284.225097 345.9821 
L 281.321793 345.232598 
L 278.418489 344.44835 
L 275.515185 343.62919 
L 272.611882 342.77549 
L 269.708578 341.888223 
L 266.805274 340.96899 
L 263.90197 340.020048 
L 260.998666 339.044305 
L 258.095362 338.04531 
L 255.192058 337.027223 
L 252.288755 335.994776 
L 249.385451 334.953218 
L 246.482147 333.908256 
L 243.578843 332.86598 
L 240.675539 331.832783 
L 237.772235 330.815273 
L 234.868931 329.820184 
L 231.965628 328.854275 
L 229.062324 327.924235 
L 226.15902 327.036575 
L 223.255716 326.197531 
L 220.352412 325.41296 
L 217.449108 324.688239 
L 214.545804 324.028173 
L 211.642501 323.436895 
L 208.739197 322.917787 
L 205.835893 322.473396 
L 202.932589 322.105361 
L 200.029285 321.814354 
L 197.125981 321.600024 
L 194.222677 321.460958 
L 191.319374 321.394658 
L 188.41607 321.397518 
L 185.512766 321.464837 
L 182.609462 321.59083 
L 179.706158 321.768669 
L 176.802854 321.990538 
L 173.89955 322.247709 
L 170.996247 322.530642 
L 168.092943 322.829101 
L 165.189639 323.132305 
L 162.286335 323.429097 
L 159.383031 323.708138 
L 156.479727 323.958133 
L 153.576423 324.168087 
L 150.67312 324.327587 
L 147.769816 324.427118 
L 144.866512 324.458412 
L 141.963208 324.414828 
L 139.059904 324.291774 
L 136.1566 324.087158 
L 133.253296 323.801877 
L 130.349993 323.440355 
L 127.446689 323.011108 
L 124.543385 322.527355 
L 121.640081 322.00768 
L 118.736777 321.476724 
L 115.833473 320.96593 
L 112.930169 320.514337 
L 110.026866 320.169411 
L 107.123562 319.987938 
L 104.220258 320.036959 
L 101.316954 320.394752 
L 98.41365 321.151882 
L 95.510346 322.412287 
L 92.607042 324.294431 
L 89.703739 326.932508 
L 86.800435 330.477706 
L 83.897131 335.099525 
L 80.993827 340.987165 
L 78.090523 348.35096 
L 75.145025 357.569593 
z
" clip-path="url(#p5ee343cf48)" style="fill: #ff7f0e; fill-opacity: 0.2"/>
   </g>
   <g id="PolyCollection_3">
    <path d="M 75.145025 357.435182 
L 75.145025 363.067901 
L 77.366345 357.246159 
L 79.543826 352.338661 
L 81.721307 348.142794 
L 83.898788 344.585084 
L 86.076269 341.597488 
L 88.253749 339.117121 
L 90.43123 337.085994 
L 92.608711 335.450754 
L 94.786192 334.162442 
L 96.963673 333.176249 
L 99.141154 332.451287 
L 101.318634 331.950363 
L 103.496115 331.639765 
L 105.673596 331.489052 
L 107.851077 331.470853 
L 110.028558 331.560675 
L 112.206038 331.736712 
L 114.383519 331.979671 
L 116.561 332.272594 
L 118.738481 332.600696 
L 120.915962 332.951203 
L 123.093443 333.313203 
L 125.270923 333.677495 
L 127.448404 334.036455 
L 129.625885 334.383896 
L 131.803366 334.714946 
L 133.980847 335.025923 
L 136.158327 335.314221 
L 138.335808 335.5782 
L 140.513289 335.817079 
L 142.69077 336.030842 
L 144.868251 336.220139 
L 147.045732 336.386203 
L 149.223212 336.530761 
L 151.400693 336.655961 
L 153.578174 336.764295 
L 155.755655 336.858532 
L 157.933136 336.941655 
L 160.110616 337.016798 
L 162.288097 337.087195 
L 164.465578 337.156124 
L 166.643059 337.226868 
L 168.82054 337.302663 
L 170.998021 337.386667 
L 173.175501 337.481918 
L 175.352982 337.59131 
L 177.530463 337.717558 
L 179.707944 337.863177 
L 181.885425 338.030462 
L 184.062905 338.221465 
L 186.240386 338.437986 
L 188.417867 338.681555 
L 190.595348 338.953427 
L 192.772829 339.254573 
L 194.95031 339.585675 
L 197.12779 339.947128 
L 199.305271 340.339035 
L 201.482752 340.761215 
L 203.660233 341.213203 
L 205.837714 341.694262 
L 208.015195 342.203385 
L 210.192675 342.73931 
L 212.370156 343.300531 
L 214.547637 343.885308 
L 216.725118 344.491687 
L 218.902599 345.11751 
L 221.080079 345.760433 
L 223.25727 346.41786 
L 225.434751 347.087307 
L 227.612232 347.7659 
L 229.789712 348.45074 
L 231.967193 349.138842 
L 234.144674 349.827148 
L 236.322155 350.512554 
L 238.499636 351.191929 
L 240.677116 351.862134 
L 242.854597 352.520047 
L 245.032078 353.162579 
L 247.209559 353.786694 
L 249.38704 354.389435 
L 251.564521 354.967934 
L 253.742001 355.519437 
L 255.919482 356.041317 
L 258.096963 356.531093 
L 260.274444 356.986444 
L 262.451925 357.405223 
L 264.629406 357.785468 
L 266.806886 358.125416 
L 268.984367 358.423511 
L 271.161848 358.67841 
L 273.339329 358.888991 
L 275.51681 359.054356 
L 277.69429 359.173833 
L 279.871771 359.246975 
L 282.049252 359.273557 
L 284.226733 359.253573 
L 286.404214 359.187223 
L 288.581695 359.074907 
L 290.759175 358.917211 
L 292.936656 358.714886 
L 295.114137 358.468837 
L 297.291618 358.18009 
L 299.469099 357.849774 
L 301.646579 357.479089 
L 303.82406 357.06927 
L 306.001541 356.621555 
L 308.179022 356.13714 
L 308.179022 345.551419 
L 308.179022 345.551419 
L 306.001541 346.460047 
L 303.82406 347.156617 
L 301.646579 347.674965 
L 299.469099 348.044567 
L 297.291618 348.290919 
L 295.114137 348.435895 
L 292.936656 348.498086 
L 290.759175 348.493118 
L 288.581695 348.433956 
L 286.404214 348.331191 
L 284.226733 348.193304 
L 282.049252 348.02692 
L 279.871771 347.837041 
L 277.69429 347.627269 
L 275.51681 347.400007 
L 273.339329 347.156647 
L 271.161848 346.89775 
L 268.984367 346.623202 
L 266.806886 346.332364 
L 264.629406 346.024206 
L 262.451925 345.697428 
L 260.274444 345.350573 
L 258.096963 344.98212 
L 255.919482 344.590577 
L 253.742001 344.17455 
L 251.564521 343.732815 
L 249.38704 343.264371 
L 247.209559 342.768487 
L 245.032078 342.244739 
L 242.854597 341.693039 
L 240.677116 341.113659 
L 238.499636 340.507236 
L 236.322155 339.874789 
L 234.144674 339.21771 
L 231.967193 338.537759 
L 229.789712 337.837054 
L 227.612232 337.11805 
L 225.434751 336.383516 
L 223.25727 335.636507 
L 221.080079 334.880436 
L 218.902599 334.118632 
L 216.725118 333.354908 
L 214.547637 332.593115 
L 212.370156 331.837204 
L 210.192675 331.091174 
L 208.015195 330.359032 
L 205.837714 329.64474 
L 203.660233 328.952172 
L 201.482752 328.285062 
L 199.305271 327.646959 
L 197.12779 327.041179 
L 194.95031 326.470762 
L 192.772829 325.938424 
L 190.595348 325.446523 
L 188.417867 324.997011 
L 186.240386 324.591409 
L 184.062905 324.230766 
L 181.885425 323.915638 
L 179.707944 323.64606 
L 177.530463 323.421531 
L 175.352982 323.240999 
L 173.175501 323.102855 
L 170.998021 323.004931 
L 168.82054 322.944509 
L 166.643059 322.918327 
L 164.465578 322.92261 
L 162.288097 322.953089 
L 160.110616 323.005043 
L 157.933136 323.073347 
L 155.755655 323.152523 
L 153.578174 323.236809 
L 151.400693 323.320233 
L 149.223212 323.396702 
L 147.045732 323.460097 
L 144.868251 323.504384 
L 142.69077 323.523736 
L 140.513289 323.512667 
L 138.335808 323.466178 
L 136.158327 323.37992 
L 133.980847 323.250366 
L 131.803366 323.075004 
L 129.625885 322.852534 
L 127.448404 322.583094 
L 125.270923 322.268491 
L 123.093443 321.912455 
L 120.915962 321.5209 
L 118.738481 321.102217 
L 116.561 320.667571 
L 114.383519 320.23122 
L 112.206038 319.810858 
L 110.028558 319.427969 
L 107.851077 319.108205 
L 105.673596 318.88178 
L 103.496115 318.783891 
L 101.318634 318.85515 
L 99.141154 319.142045 
L 96.963673 319.697423 
L 94.786192 320.580983 
L 92.608711 321.859811 
L 90.43123 323.608918 
L 88.253749 325.911817 
L 86.076269 328.861114 
L 83.898788 332.559125 
L 81.721307 337.118526 
L 79.543826 342.663013 
L 77.366345 349.328 
L 75.145025 357.435182 
z
" clip-path="url(#p5ee343cf48)" style="fill: #2ca02c; fill-opacity: 0.2"/>
   </g>
   <g id="matplotlib.axis_1">
    <g id="xtick_1">
     <g id="line2d_1">
      <defs>
       <path id="mc2a5242fcc" d="M 0 0 
L 0 3.5 
" style="stroke: #000000; stroke-width: 0.8"/>
      </defs>
      <g>
       <use xlink:href="#mc2a5242fcc" x="75.145025" y="361.300875" style="stroke: #000000; stroke-width: 0.8"/>
      </g>
     </g>
     <g id="text_1">
      <!-- 0 -->
      <g transform="translate(70.140181 381.184937) scale(0.18 -0.18)">
       <defs>
        <path id="ArialMT-30" d="M 266 2259 
Q 266 3072 433 3567 
Q 600 4063 929 4331 
Q 1259 4600 1759 4600 
Q 2128 4600 2406 4451 
Q 2684 4303 2865 4023 
Q 3047 3744 3150 3342 
Q 3253 2941 3253 2259 
Q 3253 1453 3087 958 
Q 2922 463 2592 192 
Q 2263 -78 1759 -78 
Q 1097 -78 719 397 
Q 266 969 266 2259 
z
M 844 2259 
Q 844 1131 1108 757 
Q 1372 384 1759 384 
Q 2147 384 2411 759 
Q 2675 1134 2675 2259 
Q 2675 3391 2411 3762 
Q 2147 4134 1753 4134 
Q 1366 4134 1134 3806 
Q 844 3388 844 2259 
z
" transform="scale(0.015625)"/>
       </defs>
       <use xlink:href="#ArialMT-30"/>
      </g>
     </g>
    </g>
    <g id="xtick_2">
     <g id="line2d_2">
      <g>
       <use xlink:href="#mc2a5242fcc" x="147.142702" y="361.300875" style="stroke: #000000; stroke-width: 0.8"/>
      </g>
     </g>
     <g id="text_2">
      <!-- 50 -->
      <g transform="translate(137.133015 381.184937) scale(0.18 -0.18)">
       <defs>
        <path id="ArialMT-35" d="M 266 1200 
L 856 1250 
Q 922 819 1161 601 
Q 1400 384 1738 384 
Q 2144 384 2425 690 
Q 2706 997 2706 1503 
Q 2706 1984 2436 2262 
Q 2166 2541 1728 2541 
Q 1456 2541 1237 2417 
Q 1019 2294 894 2097 
L 366 2166 
L 809 4519 
L 3088 4519 
L 3088 3981 
L 1259 3981 
L 1013 2750 
Q 1425 3038 1878 3038 
Q 2478 3038 2890 2622 
Q 3303 2206 3303 1553 
Q 3303 931 2941 478 
Q 2500 -78 1738 -78 
Q 1113 -78 717 272 
Q 322 622 266 1200 
z
" transform="scale(0.015625)"/>
       </defs>
       <use xlink:href="#ArialMT-35"/>
       <use xlink:href="#ArialMT-30" x="55.615234"/>
      </g>
     </g>
    </g>
    <g id="xtick_3">
     <g id="line2d_3">
      <g>
       <use xlink:href="#mc2a5242fcc" x="219.14038" y="361.300875" style="stroke: #000000; stroke-width: 0.8"/>
      </g>
     </g>
     <g id="text_3">
      <!-- 100 -->
      <g transform="translate(204.125848 381.184937) scale(0.18 -0.18)">
       <defs>
        <path id="ArialMT-31" d="M 2384 0 
L 1822 0 
L 1822 3584 
Q 1619 3391 1289 3197 
Q 959 3003 697 2906 
L 697 3450 
Q 1169 3672 1522 3987 
Q 1875 4303 2022 4600 
L 2384 4600 
L 2384 0 
z
" transform="scale(0.015625)"/>
       </defs>
       <use xlink:href="#ArialMT-31"/>
       <use xlink:href="#ArialMT-30" x="55.615234"/>
       <use xlink:href="#ArialMT-30" x="111.230469"/>
      </g>
     </g>
    </g>
    <g id="xtick_4">
     <g id="line2d_4">
      <g>
       <use xlink:href="#mc2a5242fcc" x="291.138057" y="361.300875" style="stroke: #000000; stroke-width: 0.8"/>
      </g>
     </g>
     <g id="text_4">
      <!-- 150 -->
      <g transform="translate(276.123526 381.184937) scale(0.18 -0.18)">
       <use xlink:href="#ArialMT-31"/>
       <use xlink:href="#ArialMT-35" x="55.615234"/>
       <use xlink:href="#ArialMT-30" x="111.230469"/>
      </g>
     </g>
    </g>
    <g id="xtick_5">
     <g id="line2d_5">
      <g>
       <use xlink:href="#mc2a5242fcc" x="363.135735" y="361.300875" style="stroke: #000000; stroke-width: 0.8"/>
      </g>
     </g>
     <g id="text_5">
      <!-- 200 -->
      <g transform="translate(348.121203 381.184937) scale(0.18 -0.18)">
       <defs>
        <path id="ArialMT-32" d="M 3222 541 
L 3222 0 
L 194 0 
Q 188 203 259 391 
Q 375 700 629 1000 
Q 884 1300 1366 1694 
Q 2113 2306 2375 2664 
Q 2638 3022 2638 3341 
Q 2638 3675 2398 3904 
Q 2159 4134 1775 4134 
Q 1369 4134 1125 3890 
Q 881 3647 878 3216 
L 300 3275 
Q 359 3922 746 4261 
Q 1134 4600 1788 4600 
Q 2447 4600 2831 4234 
Q 3216 3869 3216 3328 
Q 3216 3053 3103 2787 
Q 2991 2522 2730 2228 
Q 2469 1934 1863 1422 
Q 1356 997 1212 845 
Q 1069 694 975 541 
L 3222 541 
z
" transform="scale(0.015625)"/>
       </defs>
       <use xlink:href="#ArialMT-32"/>
       <use xlink:href="#ArialMT-30" x="55.615234"/>
       <use xlink:href="#ArialMT-30" x="111.230469"/>
      </g>
     </g>
    </g>
    <g id="xtick_6">
     <g id="line2d_6">
      <g>
       <use xlink:href="#mc2a5242fcc" x="435.133412" y="361.300875" style="stroke: #000000; stroke-width: 0.8"/>
      </g>
     </g>
     <g id="text_6">
      <!-- 250 -->
      <g transform="translate(420.118881 381.184937) scale(0.18 -0.18)">
       <use xlink:href="#ArialMT-32"/>
       <use xlink:href="#ArialMT-35" x="55.615234"/>
       <use xlink:href="#ArialMT-30" x="111.230469"/>
      </g>
     </g>
    </g>
    <g id="xtick_7">
     <g id="line2d_7">
      <g>
       <use xlink:href="#mc2a5242fcc" x="507.13109" y="361.300875" style="stroke: #000000; stroke-width: 0.8"/>
      </g>
     </g>
     <g id="text_7">
      <!-- 300 -->
      <g transform="translate(492.116558 381.184937) scale(0.18 -0.18)">
       <defs>
        <path id="ArialMT-33" d="M 269 1209 
L 831 1284 
Q 928 806 1161 595 
Q 1394 384 1728 384 
Q 2125 384 2398 659 
Q 2672 934 2672 1341 
Q 2672 1728 2419 1979 
Q 2166 2231 1775 2231 
Q 1616 2231 1378 2169 
L 1441 2663 
Q 1497 2656 1531 2656 
Q 1891 2656 2178 2843 
Q 2466 3031 2466 3422 
Q 2466 3731 2256 3934 
Q 2047 4138 1716 4138 
Q 1388 4138 1169 3931 
Q 950 3725 888 3313 
L 325 3413 
Q 428 3978 793 4289 
Q 1159 4600 1703 4600 
Q 2078 4600 2393 4439 
Q 2709 4278 2876 4000 
Q 3044 3722 3044 3409 
Q 3044 3113 2884 2869 
Q 2725 2625 2413 2481 
Q 2819 2388 3044 2092 
Q 3269 1797 3269 1353 
Q 3269 753 2831 336 
Q 2394 -81 1725 -81 
Q 1122 -81 723 278 
Q 325 638 269 1209 
z
" transform="scale(0.015625)"/>
       </defs>
       <use xlink:href="#ArialMT-33"/>
       <use xlink:href="#ArialMT-30" x="55.615234"/>
       <use xlink:href="#ArialMT-30" x="111.230469"/>
      </g>
     </g>
    </g>
    <g id="text_8">
     <!-- Strain(%) -->
     <g transform="translate(260.824531 401.865875) scale(0.18 -0.18)">
      <defs>
       <path id="ArialMT-53" d="M 288 1472 
L 859 1522 
Q 900 1178 1048 958 
Q 1197 738 1509 602 
Q 1822 466 2213 466 
Q 2559 466 2825 569 
Q 3091 672 3220 851 
Q 3350 1031 3350 1244 
Q 3350 1459 3225 1620 
Q 3100 1781 2813 1891 
Q 2628 1963 1997 2114 
Q 1366 2266 1113 2400 
Q 784 2572 623 2826 
Q 463 3081 463 3397 
Q 463 3744 659 4045 
Q 856 4347 1234 4503 
Q 1613 4659 2075 4659 
Q 2584 4659 2973 4495 
Q 3363 4331 3572 4012 
Q 3781 3694 3797 3291 
L 3216 3247 
Q 3169 3681 2898 3903 
Q 2628 4125 2100 4125 
Q 1550 4125 1298 3923 
Q 1047 3722 1047 3438 
Q 1047 3191 1225 3031 
Q 1400 2872 2139 2705 
Q 2878 2538 3153 2413 
Q 3553 2228 3743 1945 
Q 3934 1663 3934 1294 
Q 3934 928 3725 604 
Q 3516 281 3123 101 
Q 2731 -78 2241 -78 
Q 1619 -78 1198 103 
Q 778 284 539 648 
Q 300 1013 288 1472 
z
" transform="scale(0.015625)"/>
       <path id="ArialMT-74" d="M 1650 503 
L 1731 6 
Q 1494 -44 1306 -44 
Q 1000 -44 831 53 
Q 663 150 594 308 
Q 525 466 525 972 
L 525 2881 
L 113 2881 
L 113 3319 
L 525 3319 
L 525 4141 
L 1084 4478 
L 1084 3319 
L 1650 3319 
L 1650 2881 
L 1084 2881 
L 1084 941 
Q 1084 700 1114 631 
Q 1144 563 1211 522 
Q 1278 481 1403 481 
Q 1497 481 1650 503 
z
" transform="scale(0.015625)"/>
       <path id="ArialMT-72" d="M 416 0 
L 416 3319 
L 922 3319 
L 922 2816 
Q 1116 3169 1280 3281 
Q 1444 3394 1641 3394 
Q 1925 3394 2219 3213 
L 2025 2691 
Q 1819 2813 1613 2813 
Q 1428 2813 1281 2702 
Q 1134 2591 1072 2394 
Q 978 2094 978 1738 
L 978 0 
L 416 0 
z
" transform="scale(0.015625)"/>
       <path id="ArialMT-61" d="M 2588 409 
Q 2275 144 1986 34 
Q 1697 -75 1366 -75 
Q 819 -75 525 192 
Q 231 459 231 875 
Q 231 1119 342 1320 
Q 453 1522 633 1644 
Q 813 1766 1038 1828 
Q 1203 1872 1538 1913 
Q 2219 1994 2541 2106 
Q 2544 2222 2544 2253 
Q 2544 2597 2384 2738 
Q 2169 2928 1744 2928 
Q 1347 2928 1158 2789 
Q 969 2650 878 2297 
L 328 2372 
Q 403 2725 575 2942 
Q 747 3159 1072 3276 
Q 1397 3394 1825 3394 
Q 2250 3394 2515 3294 
Q 2781 3194 2906 3042 
Q 3031 2891 3081 2659 
Q 3109 2516 3109 2141 
L 3109 1391 
Q 3109 606 3145 398 
Q 3181 191 3288 0 
L 2700 0 
Q 2613 175 2588 409 
z
M 2541 1666 
Q 2234 1541 1622 1453 
Q 1275 1403 1131 1340 
Q 988 1278 909 1158 
Q 831 1038 831 891 
Q 831 666 1001 516 
Q 1172 366 1500 366 
Q 1825 366 2078 508 
Q 2331 650 2450 897 
Q 2541 1088 2541 1459 
L 2541 1666 
z
" transform="scale(0.015625)"/>
       <path id="ArialMT-69" d="M 425 3934 
L 425 4581 
L 988 4581 
L 988 3934 
L 425 3934 
z
M 425 0 
L 425 3319 
L 988 3319 
L 988 0 
L 425 0 
z
" transform="scale(0.015625)"/>
       <path id="ArialMT-6e" d="M 422 0 
L 422 3319 
L 928 3319 
L 928 2847 
Q 1294 3394 1984 3394 
Q 2284 3394 2536 3286 
Q 2788 3178 2913 3003 
Q 3038 2828 3088 2588 
Q 3119 2431 3119 2041 
L 3119 0 
L 2556 0 
L 2556 2019 
Q 2556 2363 2490 2533 
Q 2425 2703 2258 2804 
Q 2091 2906 1866 2906 
Q 1506 2906 1245 2678 
Q 984 2450 984 1813 
L 984 0 
L 422 0 
z
" transform="scale(0.015625)"/>
       <path id="ArialMT-28" d="M 1497 -1347 
Q 1031 -759 709 28 
Q 388 816 388 1659 
Q 388 2403 628 3084 
Q 909 3875 1497 4659 
L 1900 4659 
Q 1522 4009 1400 3731 
Q 1209 3300 1100 2831 
Q 966 2247 966 1656 
Q 966 153 1900 -1347 
L 1497 -1347 
z
" transform="scale(0.015625)"/>
       <path id="ArialMT-25" d="M 372 3481 
Q 372 3972 619 4315 
Q 866 4659 1334 4659 
Q 1766 4659 2048 4351 
Q 2331 4044 2331 3447 
Q 2331 2866 2045 2552 
Q 1759 2238 1341 2238 
Q 925 2238 648 2547 
Q 372 2856 372 3481 
z
M 1350 4272 
Q 1141 4272 1002 4090 
Q 863 3909 863 3425 
Q 863 2984 1003 2804 
Q 1144 2625 1350 2625 
Q 1563 2625 1702 2806 
Q 1841 2988 1841 3469 
Q 1841 3913 1700 4092 
Q 1559 4272 1350 4272 
z
M 1353 -169 
L 3859 4659 
L 4316 4659 
L 1819 -169 
L 1353 -169 
z
M 3334 1075 
Q 3334 1569 3581 1911 
Q 3828 2253 4300 2253 
Q 4731 2253 5014 1945 
Q 5297 1638 5297 1041 
Q 5297 459 5011 145 
Q 4725 -169 4303 -169 
Q 3888 -169 3611 142 
Q 3334 453 3334 1075 
z
M 4316 1866 
Q 4103 1866 3964 1684 
Q 3825 1503 3825 1019 
Q 3825 581 3965 400 
Q 4106 219 4313 219 
Q 4528 219 4667 400 
Q 4806 581 4806 1063 
Q 4806 1506 4665 1686 
Q 4525 1866 4316 1866 
z
" transform="scale(0.015625)"/>
       <path id="ArialMT-29" d="M 791 -1347 
L 388 -1347 
Q 1322 153 1322 1656 
Q 1322 2244 1188 2822 
Q 1081 3291 891 3722 
Q 769 4003 388 4659 
L 791 4659 
Q 1378 3875 1659 3084 
Q 1900 2403 1900 1659 
Q 1900 816 1576 28 
Q 1253 -759 791 -1347 
z
" transform="scale(0.015625)"/>
      </defs>
      <use xlink:href="#ArialMT-53"/>
      <use xlink:href="#ArialMT-74" x="66.699219"/>
      <use xlink:href="#ArialMT-72" x="94.482422"/>
      <use xlink:href="#ArialMT-61" x="127.783203"/>
      <use xlink:href="#ArialMT-69" x="183.398438"/>
      <use xlink:href="#ArialMT-6e" x="205.615234"/>
      <use xlink:href="#ArialMT-28" x="261.230469"/>
      <use xlink:href="#ArialMT-25" x="294.53125"/>
      <use xlink:href="#ArialMT-29" x="383.447266"/>
     </g>
    </g>
   </g>
   <g id="matplotlib.axis_2">
    <g id="ytick_1">
     <g id="line2d_8">
      <defs>
       <path id="mc7c7bc610b" d="M 0 0 
L -3.5 0 
" style="stroke: #000000; stroke-width: 0.8"/>
      </defs>
      <g>
       <use xlink:href="#mc7c7bc610b" x="75.130625" y="361.300875" style="stroke: #000000; stroke-width: 0.8"/>
      </g>
     </g>
     <g id="text_9">
      <!-- 0 -->
      <g transform="translate(58.120938 367.742906) scale(0.18 -0.18)">
       <use xlink:href="#ArialMT-30"/>
      </g>
     </g>
    </g>
    <g id="ytick_2">
     <g id="line2d_9">
      <g>
       <use xlink:href="#mc7c7bc610b" x="75.130625" y="319.720875" style="stroke: #000000; stroke-width: 0.8"/>
      </g>
     </g>
     <g id="text_10">
      <!-- 500 -->
      <g transform="translate(38.101563 326.162906) scale(0.18 -0.18)">
       <use xlink:href="#ArialMT-35"/>
       <use xlink:href="#ArialMT-30" x="55.615234"/>
       <use xlink:href="#ArialMT-30" x="111.230469"/>
      </g>
     </g>
    </g>
    <g id="ytick_3">
     <g id="line2d_10">
      <g>
       <use xlink:href="#mc7c7bc610b" x="75.130625" y="278.140875" style="stroke: #000000; stroke-width: 0.8"/>
      </g>
     </g>
     <g id="text_11">
      <!-- 1000 -->
      <g transform="translate(28.091875 284.582906) scale(0.18 -0.18)">
       <use xlink:href="#ArialMT-31"/>
       <use xlink:href="#ArialMT-30" x="55.615234"/>
       <use xlink:href="#ArialMT-30" x="111.230469"/>
       <use xlink:href="#ArialMT-30" x="166.845703"/>
      </g>
     </g>
    </g>
    <g id="ytick_4">
     <g id="line2d_11">
      <g>
       <use xlink:href="#mc7c7bc610b" x="75.130625" y="236.560875" style="stroke: #000000; stroke-width: 0.8"/>
      </g>
     </g>
     <g id="text_12">
      <!-- 1500 -->
      <g transform="translate(28.091875 243.002906) scale(0.18 -0.18)">
       <use xlink:href="#ArialMT-31"/>
       <use xlink:href="#ArialMT-35" x="55.615234"/>
       <use xlink:href="#ArialMT-30" x="111.230469"/>
       <use xlink:href="#ArialMT-30" x="166.845703"/>
      </g>
     </g>
    </g>
    <g id="ytick_5">
     <g id="line2d_12">
      <g>
       <use xlink:href="#mc7c7bc610b" x="75.130625" y="194.980875" style="stroke: #000000; stroke-width: 0.8"/>
      </g>
     </g>
     <g id="text_13">
      <!-- 2000 -->
      <g transform="translate(28.091875 201.422906) scale(0.18 -0.18)">
       <use xlink:href="#ArialMT-32"/>
       <use xlink:href="#ArialMT-30" x="55.615234"/>
       <use xlink:href="#ArialMT-30" x="111.230469"/>
       <use xlink:href="#ArialMT-30" x="166.845703"/>
      </g>
     </g>
    </g>
    <g id="ytick_6">
     <g id="line2d_13">
      <g>
       <use xlink:href="#mc7c7bc610b" x="75.130625" y="153.400875" style="stroke: #000000; stroke-width: 0.8"/>
      </g>
     </g>
     <g id="text_14">
      <!-- 2500 -->
      <g transform="translate(28.091875 159.842906) scale(0.18 -0.18)">
       <use xlink:href="#ArialMT-32"/>
       <use xlink:href="#ArialMT-35" x="55.615234"/>
       <use xlink:href="#ArialMT-30" x="111.230469"/>
       <use xlink:href="#ArialMT-30" x="166.845703"/>
      </g>
     </g>
    </g>
    <g id="ytick_7">
     <g id="line2d_14">
      <g>
       <use xlink:href="#mc7c7bc610b" x="75.130625" y="111.820875" style="stroke: #000000; stroke-width: 0.8"/>
      </g>
     </g>
     <g id="text_15">
      <!-- 3000 -->
      <g transform="translate(28.091875 118.262906) scale(0.18 -0.18)">
       <use xlink:href="#ArialMT-33"/>
       <use xlink:href="#ArialMT-30" x="55.615234"/>
       <use xlink:href="#ArialMT-30" x="111.230469"/>
       <use xlink:href="#ArialMT-30" x="166.845703"/>
      </g>
     </g>
    </g>
    <g id="ytick_8">
     <g id="line2d_15">
      <g>
       <use xlink:href="#mc7c7bc610b" x="75.130625" y="70.240875" style="stroke: #000000; stroke-width: 0.8"/>
      </g>
     </g>
     <g id="text_16">
      <!-- 3500 -->
      <g transform="translate(28.091875 76.682906) scale(0.18 -0.18)">
       <use xlink:href="#ArialMT-33"/>
       <use xlink:href="#ArialMT-35" x="55.615234"/>
       <use xlink:href="#ArialMT-30" x="111.230469"/>
       <use xlink:href="#ArialMT-30" x="166.845703"/>
      </g>
     </g>
    </g>
    <g id="ytick_9">
     <g id="line2d_16">
      <g>
       <use xlink:href="#mc7c7bc610b" x="75.130625" y="28.660875" style="stroke: #000000; stroke-width: 0.8"/>
      </g>
     </g>
     <g id="text_17">
      <!-- 4000 -->
      <g transform="translate(28.091875 35.102906) scale(0.18 -0.18)">
       <defs>
        <path id="ArialMT-34" d="M 2069 0 
L 2069 1097 
L 81 1097 
L 81 1613 
L 2172 4581 
L 2631 4581 
L 2631 1613 
L 3250 1613 
L 3250 1097 
L 2631 1097 
L 2631 0 
L 2069 0 
z
M 2069 1613 
L 2069 3678 
L 634 1613 
L 2069 1613 
z
" transform="scale(0.015625)"/>
       </defs>
       <use xlink:href="#ArialMT-34"/>
       <use xlink:href="#ArialMT-30" x="55.615234"/>
       <use xlink:href="#ArialMT-30" x="111.230469"/>
       <use xlink:href="#ArialMT-30" x="166.845703"/>
      </g>
     </g>
    </g>
    <g id="text_18">
     <!-- Stress(MPa) -->
     <g transform="translate(20.303438 244.984312) rotate(-90) scale(0.18 -0.18)">
      <defs>
       <path id="ArialMT-65" d="M 2694 1069 
L 3275 997 
Q 3138 488 2766 206 
Q 2394 -75 1816 -75 
Q 1088 -75 661 373 
Q 234 822 234 1631 
Q 234 2469 665 2931 
Q 1097 3394 1784 3394 
Q 2450 3394 2872 2941 
Q 3294 2488 3294 1666 
Q 3294 1616 3291 1516 
L 816 1516 
Q 847 969 1125 678 
Q 1403 388 1819 388 
Q 2128 388 2347 550 
Q 2566 713 2694 1069 
z
M 847 1978 
L 2700 1978 
Q 2663 2397 2488 2606 
Q 2219 2931 1791 2931 
Q 1403 2931 1139 2672 
Q 875 2413 847 1978 
z
" transform="scale(0.015625)"/>
       <path id="ArialMT-73" d="M 197 991 
L 753 1078 
Q 800 744 1014 566 
Q 1228 388 1613 388 
Q 2000 388 2187 545 
Q 2375 703 2375 916 
Q 2375 1106 2209 1216 
Q 2094 1291 1634 1406 
Q 1016 1563 777 1677 
Q 538 1791 414 1992 
Q 291 2194 291 2438 
Q 291 2659 392 2848 
Q 494 3038 669 3163 
Q 800 3259 1026 3326 
Q 1253 3394 1513 3394 
Q 1903 3394 2198 3281 
Q 2494 3169 2634 2976 
Q 2775 2784 2828 2463 
L 2278 2388 
Q 2241 2644 2061 2787 
Q 1881 2931 1553 2931 
Q 1166 2931 1000 2803 
Q 834 2675 834 2503 
Q 834 2394 903 2306 
Q 972 2216 1119 2156 
Q 1203 2125 1616 2013 
Q 2213 1853 2448 1751 
Q 2684 1650 2818 1456 
Q 2953 1263 2953 975 
Q 2953 694 2789 445 
Q 2625 197 2315 61 
Q 2006 -75 1616 -75 
Q 969 -75 630 194 
Q 291 463 197 991 
z
" transform="scale(0.015625)"/>
       <path id="ArialMT-4d" d="M 475 0 
L 475 4581 
L 1388 4581 
L 2472 1338 
Q 2622 884 2691 659 
Q 2769 909 2934 1394 
L 4031 4581 
L 4847 4581 
L 4847 0 
L 4263 0 
L 4263 3834 
L 2931 0 
L 2384 0 
L 1059 3900 
L 1059 0 
L 475 0 
z
" transform="scale(0.015625)"/>
       <path id="ArialMT-50" d="M 494 0 
L 494 4581 
L 2222 4581 
Q 2678 4581 2919 4538 
Q 3256 4481 3484 4323 
Q 3713 4166 3852 3881 
Q 3991 3597 3991 3256 
Q 3991 2672 3619 2267 
Q 3247 1863 2275 1863 
L 1100 1863 
L 1100 0 
L 494 0 
z
M 1100 2403 
L 2284 2403 
Q 2872 2403 3119 2622 
Q 3366 2841 3366 3238 
Q 3366 3525 3220 3729 
Q 3075 3934 2838 4000 
Q 2684 4041 2272 4041 
L 1100 4041 
L 1100 2403 
z
" transform="scale(0.015625)"/>
      </defs>
      <use xlink:href="#ArialMT-53"/>
      <use xlink:href="#ArialMT-74" x="66.699219"/>
      <use xlink:href="#ArialMT-72" x="94.482422"/>
      <use xlink:href="#ArialMT-65" x="127.783203"/>
      <use xlink:href="#ArialMT-73" x="183.398438"/>
      <use xlink:href="#ArialMT-73" x="233.398438"/>
      <use xlink:href="#ArialMT-28" x="283.398438"/>
      <use xlink:href="#ArialMT-4d" x="316.699219"/>
      <use xlink:href="#ArialMT-50" x="400"/>
      <use xlink:href="#ArialMT-61" x="466.699219"/>
      <use xlink:href="#ArialMT-29" x="522.314453"/>
     </g>
    </g>
   </g>
   <g id="line2d_17">
    <path d="M 75.145025 369.923925 
L 77.172036 362.722501 
L 79.160601 356.383251 
L 81.149167 350.713855 
L 83.137733 345.668044 
L 85.126299 341.201675 
L 87.114864 337.272671 
L 89.10343 333.840955 
L 91.091996 330.868392 
L 93.080561 328.318722 
L 95.069127 326.157506 
L 97.057693 324.352066 
L 99.046258 322.871425 
L 101.034824 321.686256 
L 103.02339 320.76882 
L 105.011955 320.092919 
L 107.000521 319.633838 
L 108.989087 319.368295 
L 111.474794 319.275291 
L 113.960501 319.410706 
L 116.943349 319.823169 
L 119.926198 320.453855 
L 123.903329 321.544902 
L 128.874743 323.160765 
L 143.788986 328.162175 
L 148.7604 329.503345 
L 153.234673 330.468402 
L 157.211804 331.108435 
L 161.188936 331.530114 
L 165.166067 331.727479 
L 169.143198 331.70038 
L 173.12033 331.453677 
L 177.097461 330.996494 
L 181.571734 330.246503 
L 186.046007 329.26871 
L 191.017421 327.946848 
L 196.485976 326.252245 
L 202.953455 323.997128 
L 211.404859 320.789558 
L 231.290516 313.143534 
L 238.747637 310.574623 
L 245.210476 308.582245 
L 251.176173 306.965631 
L 257.14187 305.576472 
L 263.107567 304.416674 
L 269.073264 303.476963 
L 275.536102 302.683775 
L 282.993223 302.008453 
L 292.43891 301.397583 
L 309.341719 300.335238 
L 315.804557 299.689126 
L 321.273113 298.935855 
L 326.244527 298.037712 
L 330.7188 297.020844 
L 335.193072 295.776473 
L 339.170204 294.456966 
L 343.147335 292.917385 
L 347.124467 291.140476 
L 351.101598 289.110368 
L 355.078729 286.812765 
L 359.055861 284.235142 
L 363.032992 281.366928 
L 367.010123 278.199682 
L 370.987255 274.727256 
L 374.964386 270.945951 
L 378.941517 266.854653 
L 382.918649 262.454964 
L 386.89578 257.751311 
L 391.370053 252.105636 
L 395.844326 246.099643 
L 400.81574 239.028104 
L 405.787154 231.570925 
L 411.25571 222.97308 
L 417.718548 212.367933 
L 425.672811 198.839672 
L 448.044175 160.473289 
L 453.51273 151.655447 
L 458.484144 144.047007 
L 462.958417 137.615183 
L 466.935549 132.288685 
L 470.415539 127.97038 
L 473.895528 124.005793 
L 476.878377 120.913134 
L 479.861226 118.122848 
L 482.844074 115.653328 
L 485.329781 113.853013 
L 487.815488 112.297021 
L 490.301195 110.994187 
L 492.786902 109.952634 
L 495.27261 109.179708 
L 497.758317 108.681885 
L 499.746882 108.48545 
L 501.735448 108.471 
L 503.724014 108.640437 
L 505.712579 108.995184 
L 507.701145 109.536146 
L 510.186852 110.47471 
L 512.672559 111.704178 
L 515.158266 113.222452 
L 517.643973 115.025813 
L 520.12968 117.108805 
L 521.621105 118.489867 
L 521.621105 118.489867 
" clip-path="url(#p5ee343cf48)" style="fill: none; stroke: #1f77b4; stroke-width: 1.5; stroke-linecap: square"/>
   </g>
   <g id="line2d_18">
    <path d="M 75.145025 358.290538 
L 76.929202 353.23776 
L 78.671184 348.881743 
L 80.413166 345.049444 
L 82.155148 341.697238 
L 83.897131 338.784025 
L 85.639113 336.271129 
L 87.381095 334.122206 
L 89.123078 332.30315 
L 90.86506 330.782 
L 92.607042 329.528853 
L 94.349025 328.515775 
L 96.091007 327.716721 
L 98.41365 326.942589 
L 100.736293 326.453312 
L 103.058936 326.201281 
L 105.96224 326.155094 
L 108.865544 326.339271 
L 112.349509 326.775376 
L 117.575456 327.682792 
L 129.769332 329.88853 
L 134.995279 330.562112 
L 139.640565 330.952131 
L 144.285851 331.137883 
L 149.511798 331.116613 
L 155.318406 330.849225 
L 162.286335 330.284557 
L 184.351444 328.297277 
L 190.158052 328.089761 
L 195.383999 328.110225 
L 200.609946 328.3531 
L 205.835893 328.832683 
L 211.06184 329.552821 
L 216.287787 330.50744 
L 221.513734 331.681407 
L 227.320341 333.214826 
L 233.70761 335.132261 
L 241.836861 337.822229 
L 269.127917 347.094572 
L 276.676507 349.292051 
L 283.644436 351.077492 
L 290.612365 352.618274 
L 297.580295 353.925628 
L 305.128885 355.112614 
L 313.838796 356.250715 
L 324.291852 357.381784 
L 333.582424 358.179302 
L 336.485728 358.367357 
L 336.485728 358.367357 
" clip-path="url(#p5ee343cf48)" style="fill: none; stroke: #ff7f0e; stroke-width: 1.5; stroke-linecap: square"/>
   </g>
   <g id="line2d_19">
    <path d="M 75.145025 357.074629 
L 76.930849 352.110168 
L 78.672834 347.840499 
L 80.414818 344.088755 
L 82.156803 340.81032 
L 83.898788 337.963311 
L 85.640772 335.508458 
L 87.382757 333.409 
L 89.124742 331.630574 
L 90.866726 330.141112 
L 92.608711 328.910744 
L 94.350696 327.911692 
L 96.528177 326.949077 
L 98.705657 326.261571 
L 100.883138 325.807368 
L 103.496115 325.517487 
L 106.109092 325.451631 
L 109.157565 325.590988 
L 113.077031 326.008701 
L 118.738481 326.870293 
L 130.932373 328.787706 
L 137.02932 329.485787 
L 143.126266 329.950685 
L 149.658709 330.221583 
L 158.804128 330.354786 
L 171.869013 330.559626 
L 178.401455 330.888402 
L 184.062905 331.378141 
L 189.724356 332.092834 
L 194.95031 332.966897 
L 200.61176 334.147019 
L 206.27321 335.555744 
L 212.370156 337.295579 
L 219.773591 339.644683 
L 246.338567 348.323014 
L 252.435513 349.93215 
L 257.661467 351.093107 
L 262.887421 352.025875 
L 267.677879 352.667668 
L 272.468336 353.102075 
L 277.69429 353.345726 
L 282.920244 353.366843 
L 288.581695 353.172846 
L 295.549633 352.698889 
L 308.179022 351.548891 
L 309.921007 351.394931 
L 309.921007 351.394931 
" clip-path="url(#p5ee343cf48)" style="fill: none; stroke: #2ca02c; stroke-width: 1.5; stroke-linecap: square"/>
   </g>
   <g id="patch_3">
    <path d="M 75.130625 361.300875 
L 75.130625 28.660875 
" style="fill: none; stroke: #000000; stroke-width: 0.8; stroke-linejoin: miter; stroke-linecap: square"/>
   </g>
   <g id="patch_4">
    <path d="M 521.530625 361.300875 
L 521.530625 28.660875 
" style="fill: none; stroke: #000000; stroke-width: 0.8; stroke-linejoin: miter; stroke-linecap: square"/>
   </g>
   <g id="patch_5">
    <path d="M 75.130625 361.300875 
L 521.530625 361.300875 
" style="fill: none; stroke: #000000; stroke-width: 0.8; stroke-linejoin: miter; stroke-linecap: square"/>
   </g>
   <g id="patch_6">
    <path d="M 75.130625 28.660875 
L 521.530625 28.660875 
" style="fill: none; stroke: #000000; stroke-width: 0.8; stroke-linejoin: miter; stroke-linecap: square"/>
   </g>
   <g id="text_19">
    <!-- NO5M Stress-Strain Curve -->
    <g transform="translate(169.906813 22.660875) scale(0.216 -0.216)">
     <defs>
      <path id="ArialMT-4e" d="M 488 0 
L 488 4581 
L 1109 4581 
L 3516 984 
L 3516 4581 
L 4097 4581 
L 4097 0 
L 3475 0 
L 1069 3600 
L 1069 0 
L 488 0 
z
" transform="scale(0.015625)"/>
      <path id="ArialMT-4f" d="M 309 2231 
Q 309 3372 921 4017 
Q 1534 4663 2503 4663 
Q 3138 4663 3647 4359 
Q 4156 4056 4423 3514 
Q 4691 2972 4691 2284 
Q 4691 1588 4409 1038 
Q 4128 488 3612 205 
Q 3097 -78 2500 -78 
Q 1853 -78 1343 234 
Q 834 547 571 1087 
Q 309 1628 309 2231 
z
M 934 2222 
Q 934 1394 1379 917 
Q 1825 441 2497 441 
Q 3181 441 3623 922 
Q 4066 1403 4066 2288 
Q 4066 2847 3877 3264 
Q 3688 3681 3323 3911 
Q 2959 4141 2506 4141 
Q 1863 4141 1398 3698 
Q 934 3256 934 2222 
z
" transform="scale(0.015625)"/>
      <path id="ArialMT-20" transform="scale(0.015625)"/>
      <path id="ArialMT-2d" d="M 203 1375 
L 203 1941 
L 1931 1941 
L 1931 1375 
L 203 1375 
z
" transform="scale(0.015625)"/>
      <path id="ArialMT-43" d="M 3763 1606 
L 4369 1453 
Q 4178 706 3683 314 
Q 3188 -78 2472 -78 
Q 1731 -78 1267 223 
Q 803 525 561 1097 
Q 319 1669 319 2325 
Q 319 3041 592 3573 
Q 866 4106 1370 4382 
Q 1875 4659 2481 4659 
Q 3169 4659 3637 4309 
Q 4106 3959 4291 3325 
L 3694 3184 
Q 3534 3684 3231 3912 
Q 2928 4141 2469 4141 
Q 1941 4141 1586 3887 
Q 1231 3634 1087 3207 
Q 944 2781 944 2328 
Q 944 1744 1114 1308 
Q 1284 872 1643 656 
Q 2003 441 2422 441 
Q 2931 441 3284 734 
Q 3638 1028 3763 1606 
z
" transform="scale(0.015625)"/>
      <path id="ArialMT-75" d="M 2597 0 
L 2597 488 
Q 2209 -75 1544 -75 
Q 1250 -75 995 37 
Q 741 150 617 320 
Q 494 491 444 738 
Q 409 903 409 1263 
L 409 3319 
L 972 3319 
L 972 1478 
Q 972 1038 1006 884 
Q 1059 663 1231 536 
Q 1403 409 1656 409 
Q 1909 409 2131 539 
Q 2353 669 2445 892 
Q 2538 1116 2538 1541 
L 2538 3319 
L 3100 3319 
L 3100 0 
L 2597 0 
z
" transform="scale(0.015625)"/>
      <path id="ArialMT-76" d="M 1344 0 
L 81 3319 
L 675 3319 
L 1388 1331 
Q 1503 1009 1600 663 
Q 1675 925 1809 1294 
L 2547 3319 
L 3125 3319 
L 1869 0 
L 1344 0 
z
" transform="scale(0.015625)"/>
     </defs>
     <use xlink:href="#ArialMT-4e"/>
     <use xlink:href="#ArialMT-4f" x="72.216797"/>
     <use xlink:href="#ArialMT-35" x="150"/>
     <use xlink:href="#ArialMT-4d" x="205.615234"/>
     <use xlink:href="#ArialMT-20" x="288.916016"/>
     <use xlink:href="#ArialMT-53" x="316.699219"/>
     <use xlink:href="#ArialMT-74" x="383.398438"/>
     <use xlink:href="#ArialMT-72" x="411.181641"/>
     <use xlink:href="#ArialMT-65" x="444.482422"/>
     <use xlink:href="#ArialMT-73" x="500.097656"/>
     <use xlink:href="#ArialMT-73" x="550.097656"/>
     <use xlink:href="#ArialMT-2d" x="600.097656"/>
     <use xlink:href="#ArialMT-53" x="633.398438"/>
     <use xlink:href="#ArialMT-74" x="700.097656"/>
     <use xlink:href="#ArialMT-72" x="727.880859"/>
     <use xlink:href="#ArialMT-61" x="761.181641"/>
     <use xlink:href="#ArialMT-69" x="816.796875"/>
     <use xlink:href="#ArialMT-6e" x="839.013672"/>
     <use xlink:href="#ArialMT-20" x="894.628906"/>
     <use xlink:href="#ArialMT-43" x="922.412109"/>
     <use xlink:href="#ArialMT-75" x="994.628906"/>
     <use xlink:href="#ArialMT-72" x="1050.244141"/>
     <use xlink:href="#ArialMT-76" x="1083.544922"/>
     <use xlink:href="#ArialMT-65" x="1133.544922"/>
    </g>
   </g>
   <g id="legend_1">
    <g id="patch_7">
     <path d="M 87.730625 119.445563 
L 157.337188 119.445563 
Q 160.937188 119.445563 160.937188 115.845563 
L 160.937188 41.260875 
Q 160.937188 37.660875 157.337188 37.660875 
L 87.730625 37.660875 
Q 84.130625 37.660875 84.130625 41.260875 
L 84.130625 115.845563 
Q 84.130625 119.445563 87.730625 119.445563 
z
" style="fill: #ffffff; opacity: 0.8; stroke: #cccccc; stroke-linejoin: miter"/>
    </g>
    <g id="line2d_20">
     <path d="M 91.330625 51.444938 
L 109.330625 51.444938 
L 127.330625 51.444938 
" style="fill: none; stroke: #1f77b4; stroke-width: 1.5; stroke-linecap: square"/>
    </g>
    <g id="text_20">
     <!-- X -->
     <g transform="translate(141.730625 57.744938) scale(0.18 -0.18)">
      <defs>
       <path id="ArialMT-58" d="M 28 0 
L 1800 2388 
L 238 4581 
L 959 4581 
L 1791 3406 
Q 2050 3041 2159 2844 
Q 2313 3094 2522 3366 
L 3444 4581 
L 4103 4581 
L 2494 2422 
L 4228 0 
L 3478 0 
L 2325 1634 
Q 2228 1775 2125 1941 
Q 1972 1691 1906 1597 
L 756 0 
L 28 0 
z
" transform="scale(0.015625)"/>
      </defs>
      <use xlink:href="#ArialMT-58"/>
     </g>
    </g>
    <g id="line2d_21">
     <path d="M 91.330625 76.9065 
L 109.330625 76.9065 
L 127.330625 76.9065 
" style="fill: none; stroke: #ff7f0e; stroke-width: 1.5; stroke-linecap: square"/>
    </g>
    <g id="text_21">
     <!-- Y -->
     <g transform="translate(141.730625 83.2065) scale(0.18 -0.18)">
      <defs>
       <path id="ArialMT-59" d="M 1784 0 
L 1784 1941 
L 19 4581 
L 756 4581 
L 1659 3200 
Q 1909 2813 2125 2425 
Q 2331 2784 2625 3234 
L 3513 4581 
L 4219 4581 
L 2391 1941 
L 2391 0 
L 1784 0 
z
" transform="scale(0.015625)"/>
      </defs>
      <use xlink:href="#ArialMT-59"/>
     </g>
    </g>
    <g id="line2d_22">
     <path d="M 91.330625 102.368063 
L 109.330625 102.368063 
L 127.330625 102.368063 
" style="fill: none; stroke: #2ca02c; stroke-width: 1.5; stroke-linecap: square"/>
    </g>
    <g id="text_22">
     <!-- Z -->
     <g transform="translate(141.730625 108.668063) scale(0.18 -0.18)">
      <defs>
       <path id="ArialMT-5a" d="M 128 0 
L 128 563 
L 2475 3497 
Q 2725 3809 2950 4041 
L 394 4041 
L 394 4581 
L 3675 4581 
L 3675 4041 
L 1103 863 
L 825 541 
L 3750 541 
L 3750 0 
L 128 0 
z
" transform="scale(0.015625)"/>
      </defs>
      <use xlink:href="#ArialMT-5a"/>
     </g>
    </g>
   </g>
  </g>
 </g>
 <defs>
  <clipPath id="p5ee343cf48">
   <rect x="75.130625" y="28.660875" width="446.4" height="332.64"/>
  </clipPath>
 </defs>
</svg>
