<?xml version="1.0" encoding="utf-8" standalone="no"?>
<!DOCTYPE svg PUBLIC "-//W3C//DTD SVG 1.1//EN"
  "http://www.w3.org/Graphics/SVG/1.1/DTD/svg11.dtd">
<svg xmlns:xlink="http://www.w3.org/1999/xlink" width="528.730625pt" height="412.854312pt" viewBox="0 0 528.730625 412.854312" xmlns="http://www.w3.org/2000/svg" version="1.1">
 <metadata>
  <rdf:RDF xmlns:dc="http://purl.org/dc/elements/1.1/" xmlns:cc="http://creativecommons.org/ns#" xmlns:rdf="http://www.w3.org/1999/02/22-rdf-syntax-ns#">
   <cc:Work>
    <dc:type rdf:resource="http://purl.org/dc/dcmitype/StillImage"/>
    <dc:date>2025-11-12T10:35:38.496039</dc:date>
    <dc:format>image/svg+xml</dc:format>
    <dc:creator>
     <cc:Agent>
      <dc:title>Matplotlib v3.9.0, https://matplotlib.org/</dc:title>
     </cc:Agent>
    </dc:creator>
   </cc:Work>
  </rdf:RDF>
 </metadata>
 <defs>
  <style type="text/css">*{stroke-linejoin: round; stroke-linecap: butt}</style>
 </defs>
 <g id="figure_1">
  <g id="patch_1">
   <path d="M 0 412.854312 
L 528.730625 412.854312 
L 528.730625 0 
L 0 0 
z
" style="fill: #ffffff"/>
  </g>
  <g id="axes_1">
   <g id="patch_2">
    <path d="M 75.130625 361.300875 
L 521.530625 361.300875 
L 521.530625 28.660875 
L 75.130625 28.660875 
z
" style="fill: #ffffff"/>
   </g>
   <g id="PolyCollection_1">
    <path d="M 75.144796 368.416087 
L 75.144796 375.60446 
L 77.628884 367.011426 
L 80.075137 359.615952 
L 82.521389 353.189869 
L 84.967642 347.649554 
L 87.413895 342.916203 
L 89.860147 338.915647 
L 92.3064 335.57817 
L 94.752653 332.838343 
L 97.198905 330.634847 
L 99.645158 328.910311 
L 102.091411 327.61115 
L 104.537664 326.687402 
L 106.983916 326.092583 
L 109.430169 325.783526 
L 111.876422 325.720243 
L 114.322674 325.865777 
L 116.768927 326.186064 
L 119.21518 326.6498 
L 121.661432 327.228305 
L 124.107685 327.895397 
L 126.553938 328.627267 
L 129.00019 329.402356 
L 131.446443 330.201239 
L 133.892696 331.006511 
L 136.338948 331.802672 
L 138.785201 332.576024 
L 141.231454 333.314561 
L 143.677706 334.007874 
L 146.123959 334.647047 
L 148.570212 335.224563 
L 151.016464 335.734216 
L 153.462717 336.171018 
L 155.90897 336.531114 
L 158.355223 336.811699 
L 160.801475 337.010938 
L 163.247728 337.127889 
L 165.693981 337.162432 
L 168.140233 337.115188 
L 170.586486 336.987462 
L 173.032739 336.781169 
L 175.478991 336.498772 
L 177.925244 336.143223 
L 180.371497 335.717906 
L 182.817749 335.226577 
L 185.264002 334.673313 
L 187.710255 334.062464 
L 190.156507 333.3986 
L 192.60276 332.686468 
L 195.049013 331.930949 
L 197.495265 331.137015 
L 199.946084 330.308117 
L 202.392337 329.452394 
L 204.83859 328.57335 
L 207.284842 327.675958 
L 209.731095 326.765104 
L 212.177348 325.845567 
L 214.623601 324.921988 
L 217.069853 323.998848 
L 219.516106 323.080442 
L 221.962359 322.170863 
L 224.408611 321.27398 
L 226.854864 320.393421 
L 229.301117 319.532558 
L 231.747369 318.694495 
L 234.193622 317.882054 
L 236.639875 317.097763 
L 239.086127 316.343853 
L 241.53238 315.622244 
L 243.978633 314.934544 
L 246.424885 314.282042 
L 248.871138 313.665705 
L 251.317391 313.086179 
L 253.763643 312.543786 
L 256.209896 312.038524 
L 258.656149 311.570073 
L 261.102401 311.137797 
L 263.548654 310.740744 
L 265.994907 310.37766 
L 268.44116 310.046987 
L 270.887412 309.746878 
L 273.333665 309.475199 
L 275.779918 309.229545 
L 278.22617 309.007245 
L 280.672423 308.805378 
L 283.118676 308.620779 
L 285.564928 308.45006 
L 288.011181 308.289617 
L 290.457434 308.135645 
L 292.903686 307.984158 
L 295.349939 307.830997 
L 297.796192 307.671853 
L 300.242444 307.502279 
L 302.688697 307.317707 
L 305.13495 307.11347 
L 307.581202 306.884815 
L 310.027455 306.626921 
L 312.473708 306.334923 
L 314.91996 306.003923 
L 317.366213 305.629016 
L 319.812466 305.205304 
L 322.258719 304.727916 
L 324.704971 304.192031 
L 327.151224 303.592893 
L 329.597477 302.925832 
L 332.043729 302.186283 
L 334.489982 301.369805 
L 336.936235 300.472101 
L 339.382487 299.489036 
L 341.82874 298.416655 
L 344.274993 297.251202 
L 346.721245 295.98914 
L 349.167498 294.627165 
L 351.613751 293.162226 
L 354.060003 291.591543 
L 356.506256 289.912618 
L 358.952509 288.123257 
L 361.398761 286.221583 
L 363.845014 284.20605 
L 366.291267 282.075458 
L 368.737519 279.828967 
L 371.183772 277.466108 
L 373.630025 274.986798 
L 376.076277 272.391346 
L 378.52253 269.68047 
L 380.968783 266.8553 
L 383.415036 263.917392 
L 385.861288 260.86873 
L 388.307541 257.711737 
L 390.753794 254.44928 
L 393.200046 251.08467 
L 395.646299 247.62167 
L 398.092552 244.064495 
L 400.538804 240.417812 
L 402.985057 236.686741 
L 405.43131 232.876851 
L 407.877562 228.994162 
L 410.323815 225.04513 
L 412.770068 221.036654 
L 415.21632 216.976056 
L 417.662573 212.871082 
L 420.108826 208.729885 
L 422.555078 204.561014 
L 425.001331 200.373402 
L 427.447584 196.176348 
L 429.893836 191.9795 
L 432.340089 187.792839 
L 434.786342 183.626652 
L 437.232595 179.491514 
L 439.678847 175.398262 
L 442.1251 171.357966 
L 444.571353 167.381904 
L 447.017605 163.481527 
L 449.463858 159.668429 
L 451.910111 155.954313 
L 454.356363 152.35095 
L 456.802616 148.870142 
L 459.248869 145.52368 
L 461.695121 142.323299 
L 464.141374 139.280634 
L 466.587627 136.40717 
L 469.033879 133.71419 
L 471.480132 131.212722 
L 473.926385 128.913484 
L 476.372637 126.826823 
L 478.81889 124.962658 
L 481.265143 123.330411 
L 483.711395 121.938944 
L 486.157648 120.796488 
L 488.603901 119.910571 
L 491.050154 119.287946 
L 493.496406 118.934508 
L 495.942659 118.855218 
L 498.388912 119.054019 
L 500.835164 119.533747 
L 503.281417 120.296042 
L 505.72767 121.341259 
L 508.173922 122.668367 
L 510.620175 124.274855 
L 513.066428 126.156627 
L 515.51268 128.307897 
L 517.958933 130.721083 
L 520.405186 133.38669 
L 522.851438 136.293202 
L 525.297691 139.426956 
L 527.743944 142.772027 
L 530.190196 146.310096 
L 532.636449 150.020325 
L 535.082702 153.879224 
L 537.528954 157.860512 
L 539.975207 161.934983 
L 542.42146 166.070355 
L 544.867712 170.231127 
L 547.313965 174.37843 
L 549.760218 178.469866 
L 552.206471 182.459353 
L 554.652723 186.296964 
L 557.098976 189.928757 
L 559.545229 193.296603 
L 561.991481 196.338018 
L 564.437734 198.985978 
L 564.437734 178.630189 
L 564.437734 178.630189 
L 561.991481 176.53338 
L 559.545229 173.947929 
L 557.098976 170.949873 
L 554.652723 167.610184 
L 552.206471 163.99497 
L 549.760218 160.165667 
L 547.313965 156.179234 
L 544.867712 152.08833 
L 542.42146 147.941499 
L 539.975207 143.783347 
L 537.528954 139.65471 
L 535.082702 135.592825 
L 532.636449 131.631494 
L 530.190196 127.80124 
L 527.743944 124.129465 
L 525.297691 120.6406 
L 522.851438 117.356253 
L 520.405186 114.295353 
L 517.958933 111.474286 
L 515.51268 108.907033 
L 513.066428 106.605304 
L 510.620175 104.578661 
L 508.173922 102.834645 
L 505.72767 101.378897 
L 503.281417 100.215273 
L 500.835164 99.345959 
L 498.388912 98.77158 
L 495.942659 98.491307 
L 493.496406 98.502959 
L 491.050154 98.803102 
L 488.603901 99.387148 
L 486.157648 100.249445 
L 483.711395 101.383367 
L 481.265143 102.781402 
L 478.81889 104.435234 
L 476.372637 106.335822 
L 473.926385 108.473481 
L 471.480132 110.837952 
L 469.033879 113.418474 
L 466.587627 116.203854 
L 464.141374 119.182532 
L 461.695121 122.342642 
L 459.248869 125.67207 
L 456.802616 129.158517 
L 454.356363 132.789549 
L 451.910111 136.552647 
L 449.463858 140.435261 
L 447.017605 144.424853 
L 444.571353 148.508941 
L 442.1251 152.675145 
L 439.678847 156.911218 
L 437.232595 161.205091 
L 434.786342 165.544903 
L 432.340089 169.919035 
L 429.893836 174.316139 
L 427.447584 178.725165 
L 425.001331 183.135389 
L 422.555078 187.536438 
L 420.108826 191.918306 
L 417.662573 196.271378 
L 415.21632 200.586447 
L 412.770068 204.85473 
L 410.323815 209.067881 
L 407.877562 213.218004 
L 405.43131 217.297663 
L 402.985057 221.299892 
L 400.538804 225.2182 
L 398.092552 229.046578 
L 395.646299 232.779504 
L 393.200046 236.411942 
L 390.753794 239.939346 
L 388.307541 243.35766 
L 385.861288 246.663311 
L 383.415036 249.853215 
L 380.968783 252.924763 
L 378.52253 255.875821 
L 376.076277 258.704723 
L 373.630025 261.41026 
L 371.183772 263.991675 
L 368.737519 266.44865 
L 366.291267 268.781294 
L 363.845014 270.990135 
L 361.398761 273.076103 
L 358.952509 275.04052 
L 356.506256 276.885082 
L 354.060003 278.611846 
L 351.613751 280.223212 
L 349.167498 281.721908 
L 346.721245 283.110971 
L 344.274993 284.393732 
L 341.82874 285.573794 
L 339.382487 286.655016 
L 336.936235 287.641491 
L 334.489982 288.537528 
L 332.043729 289.347633 
L 329.597477 290.076486 
L 327.151224 290.728922 
L 324.704971 291.309909 
L 322.258719 291.82453 
L 319.812466 292.277957 
L 317.366213 292.675436 
L 314.91996 293.022261 
L 312.473708 293.323753 
L 310.027455 293.585245 
L 307.581202 293.812052 
L 305.13495 294.009459 
L 302.688697 294.182694 
L 300.242444 294.336912 
L 297.796192 294.477173 
L 295.349939 294.608424 
L 292.903686 294.735478 
L 290.457434 294.862998 
L 288.011181 294.995475 
L 285.564928 295.137216 
L 283.118676 295.292321 
L 280.672423 295.464673 
L 278.22617 295.657915 
L 275.779918 295.875443 
L 273.333665 296.120385 
L 270.887412 296.395594 
L 268.44116 296.703631 
L 265.994907 297.046754 
L 263.548654 297.426911 
L 261.102401 297.845728 
L 258.656149 298.3045 
L 256.209896 298.804184 
L 253.763643 299.345397 
L 251.317391 299.928405 
L 248.871138 300.553124 
L 246.424885 301.219115 
L 243.978633 301.925584 
L 241.53238 302.671385 
L 239.086127 303.455016 
L 236.639875 304.27463 
L 234.193622 305.128032 
L 231.747369 306.012692 
L 229.301117 306.925751 
L 226.854864 307.864029 
L 224.408611 308.824039 
L 221.962359 309.802001 
L 219.516106 310.793852 
L 217.069853 311.795272 
L 214.623601 312.801693 
L 212.177348 313.808328 
L 209.731095 314.810189 
L 207.284842 315.802116 
L 204.83859 316.778799 
L 202.392337 317.734812 
L 199.946084 318.664643 
L 197.495265 319.56437 
L 195.049013 320.425049 
L 192.60276 321.242828 
L 190.156507 322.012211 
L 187.710255 322.727805 
L 185.264002 323.38437 
L 182.817749 323.976866 
L 180.371497 324.500503 
L 177.925244 324.950795 
L 175.478991 325.323615 
L 173.032739 325.615255 
L 170.586486 325.822488 
L 168.140233 325.94263 
L 165.693981 325.97361 
L 163.247728 325.914038 
L 160.801475 325.76328 
L 158.355223 325.52153 
L 155.90897 325.189896 
L 153.462717 324.770474 
L 151.016464 324.266441 
L 148.570212 323.682138 
L 146.123959 323.023163 
L 143.677706 322.29647 
L 141.231454 321.510461 
L 138.785201 320.675091 
L 136.338948 319.801974 
L 133.892696 318.904491 
L 131.446443 317.9979 
L 129.00019 317.099454 
L 126.553938 316.228519 
L 124.107685 315.4067 
L 121.661432 314.657962 
L 119.21518 314.008764 
L 116.768927 313.488196 
L 114.322674 313.128109 
L 111.876422 312.963265 
L 109.430169 313.031478 
L 106.983916 313.373767 
L 104.537664 314.034506 
L 102.091411 315.061585 
L 99.645158 316.506572 
L 97.198905 318.424878 
L 94.752653 320.875927 
L 92.3064 323.923333 
L 89.860147 327.635076 
L 87.413895 332.08369 
L 84.967642 337.346444 
L 82.521389 343.50554 
L 80.075137 350.648309 
L 77.628884 358.867409 
L 75.144796 368.416087 
z
" clip-path="url(#p8c7a09c6e9)" style="fill: #1f77b4; fill-opacity: 0.2"/>
   </g>
   <g id="matplotlib.axis_1">
    <g id="xtick_1">
     <g id="line2d_1">
      <defs>
       <path id="m50bf88c44b" d="M 0 0 
L 0 3.5 
" style="stroke: #000000; stroke-width: 0.8"/>
      </defs>
      <g>
       <use xlink:href="#m50bf88c44b" x="75.144796" y="361.300875" style="stroke: #000000; stroke-width: 0.8"/>
      </g>
     </g>
     <g id="text_1">
      <!-- 0 -->
      <g transform="translate(70.139952 381.184937) scale(0.18 -0.18)">
       <defs>
        <path id="ArialMT-30" d="M 266 2259 
Q 266 3072 433 3567 
Q 600 4063 929 4331 
Q 1259 4600 1759 4600 
Q 2128 4600 2406 4451 
Q 2684 4303 2865 4023 
Q 3047 3744 3150 3342 
Q 3253 2941 3253 2259 
Q 3253 1453 3087 958 
Q 2922 463 2592 192 
Q 2263 -78 1759 -78 
Q 1097 -78 719 397 
Q 266 969 266 2259 
z
M 844 2259 
Q 844 1131 1108 757 
Q 1372 384 1759 384 
Q 2147 384 2411 759 
Q 2675 1134 2675 2259 
Q 2675 3391 2411 3762 
Q 2147 4134 1753 4134 
Q 1366 4134 1134 3806 
Q 844 3388 844 2259 
z
" transform="scale(0.015625)"/>
       </defs>
       <use xlink:href="#ArialMT-30"/>
      </g>
     </g>
    </g>
    <g id="xtick_2">
     <g id="line2d_2">
      <g>
       <use xlink:href="#m50bf88c44b" x="145.999689" y="361.300875" style="stroke: #000000; stroke-width: 0.8"/>
      </g>
     </g>
     <g id="text_2">
      <!-- 50 -->
      <g transform="translate(135.990002 381.184937) scale(0.18 -0.18)">
       <defs>
        <path id="ArialMT-35" d="M 266 1200 
L 856 1250 
Q 922 819 1161 601 
Q 1400 384 1738 384 
Q 2144 384 2425 690 
Q 2706 997 2706 1503 
Q 2706 1984 2436 2262 
Q 2166 2541 1728 2541 
Q 1456 2541 1237 2417 
Q 1019 2294 894 2097 
L 366 2166 
L 809 4519 
L 3088 4519 
L 3088 3981 
L 1259 3981 
L 1013 2750 
Q 1425 3038 1878 3038 
Q 2478 3038 2890 2622 
Q 3303 2206 3303 1553 
Q 3303 931 2941 478 
Q 2500 -78 1738 -78 
Q 1113 -78 717 272 
Q 322 622 266 1200 
z
" transform="scale(0.015625)"/>
       </defs>
       <use xlink:href="#ArialMT-35"/>
       <use xlink:href="#ArialMT-30" x="55.615234"/>
      </g>
     </g>
    </g>
    <g id="xtick_3">
     <g id="line2d_3">
      <g>
       <use xlink:href="#m50bf88c44b" x="216.854583" y="361.300875" style="stroke: #000000; stroke-width: 0.8"/>
      </g>
     </g>
     <g id="text_3">
      <!-- 100 -->
      <g transform="translate(201.840052 381.184937) scale(0.18 -0.18)">
       <defs>
        <path id="ArialMT-31" d="M 2384 0 
L 1822 0 
L 1822 3584 
Q 1619 3391 1289 3197 
Q 959 3003 697 2906 
L 697 3450 
Q 1169 3672 1522 3987 
Q 1875 4303 2022 4600 
L 2384 4600 
L 2384 0 
z
" transform="scale(0.015625)"/>
       </defs>
       <use xlink:href="#ArialMT-31"/>
       <use xlink:href="#ArialMT-30" x="55.615234"/>
       <use xlink:href="#ArialMT-30" x="111.230469"/>
      </g>
     </g>
    </g>
    <g id="xtick_4">
     <g id="line2d_4">
      <g>
       <use xlink:href="#m50bf88c44b" x="287.709476" y="361.300875" style="stroke: #000000; stroke-width: 0.8"/>
      </g>
     </g>
     <g id="text_4">
      <!-- 150 -->
      <g transform="translate(272.694945 381.184937) scale(0.18 -0.18)">
       <use xlink:href="#ArialMT-31"/>
       <use xlink:href="#ArialMT-35" x="55.615234"/>
       <use xlink:href="#ArialMT-30" x="111.230469"/>
      </g>
     </g>
    </g>
    <g id="xtick_5">
     <g id="line2d_5">
      <g>
       <use xlink:href="#m50bf88c44b" x="358.56437" y="361.300875" style="stroke: #000000; stroke-width: 0.8"/>
      </g>
     </g>
     <g id="text_5">
      <!-- 200 -->
      <g transform="translate(343.549839 381.184937) scale(0.18 -0.18)">
       <defs>
        <path id="ArialMT-32" d="M 3222 541 
L 3222 0 
L 194 0 
Q 188 203 259 391 
Q 375 700 629 1000 
Q 884 1300 1366 1694 
Q 2113 2306 2375 2664 
Q 2638 3022 2638 3341 
Q 2638 3675 2398 3904 
Q 2159 4134 1775 4134 
Q 1369 4134 1125 3890 
Q 881 3647 878 3216 
L 300 3275 
Q 359 3922 746 4261 
Q 1134 4600 1788 4600 
Q 2447 4600 2831 4234 
Q 3216 3869 3216 3328 
Q 3216 3053 3103 2787 
Q 2991 2522 2730 2228 
Q 2469 1934 1863 1422 
Q 1356 997 1212 845 
Q 1069 694 975 541 
L 3222 541 
z
" transform="scale(0.015625)"/>
       </defs>
       <use xlink:href="#ArialMT-32"/>
       <use xlink:href="#ArialMT-30" x="55.615234"/>
       <use xlink:href="#ArialMT-30" x="111.230469"/>
      </g>
     </g>
    </g>
    <g id="xtick_6">
     <g id="line2d_6">
      <g>
       <use xlink:href="#m50bf88c44b" x="429.419263" y="361.300875" style="stroke: #000000; stroke-width: 0.8"/>
      </g>
     </g>
     <g id="text_6">
      <!-- 250 -->
      <g transform="translate(414.404732 381.184937) scale(0.18 -0.18)">
       <use xlink:href="#ArialMT-32"/>
       <use xlink:href="#ArialMT-35" x="55.615234"/>
       <use xlink:href="#ArialMT-30" x="111.230469"/>
      </g>
     </g>
    </g>
    <g id="xtick_7">
     <g id="line2d_7">
      <g>
       <use xlink:href="#m50bf88c44b" x="500.274157" y="361.300875" style="stroke: #000000; stroke-width: 0.8"/>
      </g>
     </g>
     <g id="text_7">
      <!-- 300 -->
      <g transform="translate(485.259626 381.184937) scale(0.18 -0.18)">
       <defs>
        <path id="ArialMT-33" d="M 269 1209 
L 831 1284 
Q 928 806 1161 595 
Q 1394 384 1728 384 
Q 2125 384 2398 659 
Q 2672 934 2672 1341 
Q 2672 1728 2419 1979 
Q 2166 2231 1775 2231 
Q 1616 2231 1378 2169 
L 1441 2663 
Q 1497 2656 1531 2656 
Q 1891 2656 2178 2843 
Q 2466 3031 2466 3422 
Q 2466 3731 2256 3934 
Q 2047 4138 1716 4138 
Q 1388 4138 1169 3931 
Q 950 3725 888 3313 
L 325 3413 
Q 428 3978 793 4289 
Q 1159 4600 1703 4600 
Q 2078 4600 2393 4439 
Q 2709 4278 2876 4000 
Q 3044 3722 3044 3409 
Q 3044 3113 2884 2869 
Q 2725 2625 2413 2481 
Q 2819 2388 3044 2092 
Q 3269 1797 3269 1353 
Q 3269 753 2831 336 
Q 2394 -81 1725 -81 
Q 1122 -81 723 278 
Q 325 638 269 1209 
z
" transform="scale(0.015625)"/>
       </defs>
       <use xlink:href="#ArialMT-33"/>
       <use xlink:href="#ArialMT-30" x="55.615234"/>
       <use xlink:href="#ArialMT-30" x="111.230469"/>
      </g>
     </g>
    </g>
    <g id="text_8">
     <!-- Strain(%) -->
     <g transform="translate(260.824531 401.865875) scale(0.18 -0.18)">
      <defs>
       <path id="ArialMT-53" d="M 288 1472 
L 859 1522 
Q 900 1178 1048 958 
Q 1197 738 1509 602 
Q 1822 466 2213 466 
Q 2559 466 2825 569 
Q 3091 672 3220 851 
Q 3350 1031 3350 1244 
Q 3350 1459 3225 1620 
Q 3100 1781 2813 1891 
Q 2628 1963 1997 2114 
Q 1366 2266 1113 2400 
Q 784 2572 623 2826 
Q 463 3081 463 3397 
Q 463 3744 659 4045 
Q 856 4347 1234 4503 
Q 1613 4659 2075 4659 
Q 2584 4659 2973 4495 
Q 3363 4331 3572 4012 
Q 3781 3694 3797 3291 
L 3216 3247 
Q 3169 3681 2898 3903 
Q 2628 4125 2100 4125 
Q 1550 4125 1298 3923 
Q 1047 3722 1047 3438 
Q 1047 3191 1225 3031 
Q 1400 2872 2139 2705 
Q 2878 2538 3153 2413 
Q 3553 2228 3743 1945 
Q 3934 1663 3934 1294 
Q 3934 928 3725 604 
Q 3516 281 3123 101 
Q 2731 -78 2241 -78 
Q 1619 -78 1198 103 
Q 778 284 539 648 
Q 300 1013 288 1472 
z
" transform="scale(0.015625)"/>
       <path id="ArialMT-74" d="M 1650 503 
L 1731 6 
Q 1494 -44 1306 -44 
Q 1000 -44 831 53 
Q 663 150 594 308 
Q 525 466 525 972 
L 525 2881 
L 113 2881 
L 113 3319 
L 525 3319 
L 525 4141 
L 1084 4478 
L 1084 3319 
L 1650 3319 
L 1650 2881 
L 1084 2881 
L 1084 941 
Q 1084 700 1114 631 
Q 1144 563 1211 522 
Q 1278 481 1403 481 
Q 1497 481 1650 503 
z
" transform="scale(0.015625)"/>
       <path id="ArialMT-72" d="M 416 0 
L 416 3319 
L 922 3319 
L 922 2816 
Q 1116 3169 1280 3281 
Q 1444 3394 1641 3394 
Q 1925 3394 2219 3213 
L 2025 2691 
Q 1819 2813 1613 2813 
Q 1428 2813 1281 2702 
Q 1134 2591 1072 2394 
Q 978 2094 978 1738 
L 978 0 
L 416 0 
z
" transform="scale(0.015625)"/>
       <path id="ArialMT-61" d="M 2588 409 
Q 2275 144 1986 34 
Q 1697 -75 1366 -75 
Q 819 -75 525 192 
Q 231 459 231 875 
Q 231 1119 342 1320 
Q 453 1522 633 1644 
Q 813 1766 1038 1828 
Q 1203 1872 1538 1913 
Q 2219 1994 2541 2106 
Q 2544 2222 2544 2253 
Q 2544 2597 2384 2738 
Q 2169 2928 1744 2928 
Q 1347 2928 1158 2789 
Q 969 2650 878 2297 
L 328 2372 
Q 403 2725 575 2942 
Q 747 3159 1072 3276 
Q 1397 3394 1825 3394 
Q 2250 3394 2515 3294 
Q 2781 3194 2906 3042 
Q 3031 2891 3081 2659 
Q 3109 2516 3109 2141 
L 3109 1391 
Q 3109 606 3145 398 
Q 3181 191 3288 0 
L 2700 0 
Q 2613 175 2588 409 
z
M 2541 1666 
Q 2234 1541 1622 1453 
Q 1275 1403 1131 1340 
Q 988 1278 909 1158 
Q 831 1038 831 891 
Q 831 666 1001 516 
Q 1172 366 1500 366 
Q 1825 366 2078 508 
Q 2331 650 2450 897 
Q 2541 1088 2541 1459 
L 2541 1666 
z
" transform="scale(0.015625)"/>
       <path id="ArialMT-69" d="M 425 3934 
L 425 4581 
L 988 4581 
L 988 3934 
L 425 3934 
z
M 425 0 
L 425 3319 
L 988 3319 
L 988 0 
L 425 0 
z
" transform="scale(0.015625)"/>
       <path id="ArialMT-6e" d="M 422 0 
L 422 3319 
L 928 3319 
L 928 2847 
Q 1294 3394 1984 3394 
Q 2284 3394 2536 3286 
Q 2788 3178 2913 3003 
Q 3038 2828 3088 2588 
Q 3119 2431 3119 2041 
L 3119 0 
L 2556 0 
L 2556 2019 
Q 2556 2363 2490 2533 
Q 2425 2703 2258 2804 
Q 2091 2906 1866 2906 
Q 1506 2906 1245 2678 
Q 984 2450 984 1813 
L 984 0 
L 422 0 
z
" transform="scale(0.015625)"/>
       <path id="ArialMT-28" d="M 1497 -1347 
Q 1031 -759 709 28 
Q 388 816 388 1659 
Q 388 2403 628 3084 
Q 909 3875 1497 4659 
L 1900 4659 
Q 1522 4009 1400 3731 
Q 1209 3300 1100 2831 
Q 966 2247 966 1656 
Q 966 153 1900 -1347 
L 1497 -1347 
z
" transform="scale(0.015625)"/>
       <path id="ArialMT-25" d="M 372 3481 
Q 372 3972 619 4315 
Q 866 4659 1334 4659 
Q 1766 4659 2048 4351 
Q 2331 4044 2331 3447 
Q 2331 2866 2045 2552 
Q 1759 2238 1341 2238 
Q 925 2238 648 2547 
Q 372 2856 372 3481 
z
M 1350 4272 
Q 1141 4272 1002 4090 
Q 863 3909 863 3425 
Q 863 2984 1003 2804 
Q 1144 2625 1350 2625 
Q 1563 2625 1702 2806 
Q 1841 2988 1841 3469 
Q 1841 3913 1700 4092 
Q 1559 4272 1350 4272 
z
M 1353 -169 
L 3859 4659 
L 4316 4659 
L 1819 -169 
L 1353 -169 
z
M 3334 1075 
Q 3334 1569 3581 1911 
Q 3828 2253 4300 2253 
Q 4731 2253 5014 1945 
Q 5297 1638 5297 1041 
Q 5297 459 5011 145 
Q 4725 -169 4303 -169 
Q 3888 -169 3611 142 
Q 3334 453 3334 1075 
z
M 4316 1866 
Q 4103 1866 3964 1684 
Q 3825 1503 3825 1019 
Q 3825 581 3965 400 
Q 4106 219 4313 219 
Q 4528 219 4667 400 
Q 4806 581 4806 1063 
Q 4806 1506 4665 1686 
Q 4525 1866 4316 1866 
z
" transform="scale(0.015625)"/>
       <path id="ArialMT-29" d="M 791 -1347 
L 388 -1347 
Q 1322 153 1322 1656 
Q 1322 2244 1188 2822 
Q 1081 3291 891 3722 
Q 769 4003 388 4659 
L 791 4659 
Q 1378 3875 1659 3084 
Q 1900 2403 1900 1659 
Q 1900 816 1576 28 
Q 1253 -759 791 -1347 
z
" transform="scale(0.015625)"/>
      </defs>
      <use xlink:href="#ArialMT-53"/>
      <use xlink:href="#ArialMT-74" x="66.699219"/>
      <use xlink:href="#ArialMT-72" x="94.482422"/>
      <use xlink:href="#ArialMT-61" x="127.783203"/>
      <use xlink:href="#ArialMT-69" x="183.398438"/>
      <use xlink:href="#ArialMT-6e" x="205.615234"/>
      <use xlink:href="#ArialMT-28" x="261.230469"/>
      <use xlink:href="#ArialMT-25" x="294.53125"/>
      <use xlink:href="#ArialMT-29" x="383.447266"/>
     </g>
    </g>
   </g>
   <g id="matplotlib.axis_2">
    <g id="ytick_1">
     <g id="line2d_8">
      <defs>
       <path id="m72461c5b70" d="M 0 0 
L -3.5 0 
" style="stroke: #000000; stroke-width: 0.8"/>
      </defs>
      <g>
       <use xlink:href="#m72461c5b70" x="75.130625" y="361.300875" style="stroke: #000000; stroke-width: 0.8"/>
      </g>
     </g>
     <g id="text_9">
      <!-- 0 -->
      <g transform="translate(58.120938 367.742906) scale(0.18 -0.18)">
       <use xlink:href="#ArialMT-30"/>
      </g>
     </g>
    </g>
    <g id="ytick_2">
     <g id="line2d_9">
      <g>
       <use xlink:href="#m72461c5b70" x="75.130625" y="319.720875" style="stroke: #000000; stroke-width: 0.8"/>
      </g>
     </g>
     <g id="text_10">
      <!-- 500 -->
      <g transform="translate(38.101563 326.162906) scale(0.18 -0.18)">
       <use xlink:href="#ArialMT-35"/>
       <use xlink:href="#ArialMT-30" x="55.615234"/>
       <use xlink:href="#ArialMT-30" x="111.230469"/>
      </g>
     </g>
    </g>
    <g id="ytick_3">
     <g id="line2d_10">
      <g>
       <use xlink:href="#m72461c5b70" x="75.130625" y="278.140875" style="stroke: #000000; stroke-width: 0.8"/>
      </g>
     </g>
     <g id="text_11">
      <!-- 1000 -->
      <g transform="translate(28.091875 284.582906) scale(0.18 -0.18)">
       <use xlink:href="#ArialMT-31"/>
       <use xlink:href="#ArialMT-30" x="55.615234"/>
       <use xlink:href="#ArialMT-30" x="111.230469"/>
       <use xlink:href="#ArialMT-30" x="166.845703"/>
      </g>
     </g>
    </g>
    <g id="ytick_4">
     <g id="line2d_11">
      <g>
       <use xlink:href="#m72461c5b70" x="75.130625" y="236.560875" style="stroke: #000000; stroke-width: 0.8"/>
      </g>
     </g>
     <g id="text_12">
      <!-- 1500 -->
      <g transform="translate(28.091875 243.002906) scale(0.18 -0.18)">
       <use xlink:href="#ArialMT-31"/>
       <use xlink:href="#ArialMT-35" x="55.615234"/>
       <use xlink:href="#ArialMT-30" x="111.230469"/>
       <use xlink:href="#ArialMT-30" x="166.845703"/>
      </g>
     </g>
    </g>
    <g id="ytick_5">
     <g id="line2d_12">
      <g>
       <use xlink:href="#m72461c5b70" x="75.130625" y="194.980875" style="stroke: #000000; stroke-width: 0.8"/>
      </g>
     </g>
     <g id="text_13">
      <!-- 2000 -->
      <g transform="translate(28.091875 201.422906) scale(0.18 -0.18)">
       <use xlink:href="#ArialMT-32"/>
       <use xlink:href="#ArialMT-30" x="55.615234"/>
       <use xlink:href="#ArialMT-30" x="111.230469"/>
       <use xlink:href="#ArialMT-30" x="166.845703"/>
      </g>
     </g>
    </g>
    <g id="ytick_6">
     <g id="line2d_13">
      <g>
       <use xlink:href="#m72461c5b70" x="75.130625" y="153.400875" style="stroke: #000000; stroke-width: 0.8"/>
      </g>
     </g>
     <g id="text_14">
      <!-- 2500 -->
      <g transform="translate(28.091875 159.842906) scale(0.18 -0.18)">
       <use xlink:href="#ArialMT-32"/>
       <use xlink:href="#ArialMT-35" x="55.615234"/>
       <use xlink:href="#ArialMT-30" x="111.230469"/>
       <use xlink:href="#ArialMT-30" x="166.845703"/>
      </g>
     </g>
    </g>
    <g id="ytick_7">
     <g id="line2d_14">
      <g>
       <use xlink:href="#m72461c5b70" x="75.130625" y="111.820875" style="stroke: #000000; stroke-width: 0.8"/>
      </g>
     </g>
     <g id="text_15">
      <!-- 3000 -->
      <g transform="translate(28.091875 118.262906) scale(0.18 -0.18)">
       <use xlink:href="#ArialMT-33"/>
       <use xlink:href="#ArialMT-30" x="55.615234"/>
       <use xlink:href="#ArialMT-30" x="111.230469"/>
       <use xlink:href="#ArialMT-30" x="166.845703"/>
      </g>
     </g>
    </g>
    <g id="ytick_8">
     <g id="line2d_15">
      <g>
       <use xlink:href="#m72461c5b70" x="75.130625" y="70.240875" style="stroke: #000000; stroke-width: 0.8"/>
      </g>
     </g>
     <g id="text_16">
      <!-- 3500 -->
      <g transform="translate(28.091875 76.682906) scale(0.18 -0.18)">
       <use xlink:href="#ArialMT-33"/>
       <use xlink:href="#ArialMT-35" x="55.615234"/>
       <use xlink:href="#ArialMT-30" x="111.230469"/>
       <use xlink:href="#ArialMT-30" x="166.845703"/>
      </g>
     </g>
    </g>
    <g id="ytick_9">
     <g id="line2d_16">
      <g>
       <use xlink:href="#m72461c5b70" x="75.130625" y="28.660875" style="stroke: #000000; stroke-width: 0.8"/>
      </g>
     </g>
     <g id="text_17">
      <!-- 4000 -->
      <g transform="translate(28.091875 35.102906) scale(0.18 -0.18)">
       <defs>
        <path id="ArialMT-34" d="M 2069 0 
L 2069 1097 
L 81 1097 
L 81 1613 
L 2172 4581 
L 2631 4581 
L 2631 1613 
L 3250 1613 
L 3250 1097 
L 2631 1097 
L 2631 0 
L 2069 0 
z
M 2069 1613 
L 2069 3678 
L 634 1613 
L 2069 1613 
z
" transform="scale(0.015625)"/>
       </defs>
       <use xlink:href="#ArialMT-34"/>
       <use xlink:href="#ArialMT-30" x="55.615234"/>
       <use xlink:href="#ArialMT-30" x="111.230469"/>
       <use xlink:href="#ArialMT-30" x="166.845703"/>
      </g>
     </g>
    </g>
    <g id="text_18">
     <!-- Stress(MPa) -->
     <g transform="translate(20.303438 244.984312) rotate(-90) scale(0.18 -0.18)">
      <defs>
       <path id="ArialMT-65" d="M 2694 1069 
L 3275 997 
Q 3138 488 2766 206 
Q 2394 -75 1816 -75 
Q 1088 -75 661 373 
Q 234 822 234 1631 
Q 234 2469 665 2931 
Q 1097 3394 1784 3394 
Q 2450 3394 2872 2941 
Q 3294 2488 3294 1666 
Q 3294 1616 3291 1516 
L 816 1516 
Q 847 969 1125 678 
Q 1403 388 1819 388 
Q 2128 388 2347 550 
Q 2566 713 2694 1069 
z
M 847 1978 
L 2700 1978 
Q 2663 2397 2488 2606 
Q 2219 2931 1791 2931 
Q 1403 2931 1139 2672 
Q 875 2413 847 1978 
z
" transform="scale(0.015625)"/>
       <path id="ArialMT-73" d="M 197 991 
L 753 1078 
Q 800 744 1014 566 
Q 1228 388 1613 388 
Q 2000 388 2187 545 
Q 2375 703 2375 916 
Q 2375 1106 2209 1216 
Q 2094 1291 1634 1406 
Q 1016 1563 777 1677 
Q 538 1791 414 1992 
Q 291 2194 291 2438 
Q 291 2659 392 2848 
Q 494 3038 669 3163 
Q 800 3259 1026 3326 
Q 1253 3394 1513 3394 
Q 1903 3394 2198 3281 
Q 2494 3169 2634 2976 
Q 2775 2784 2828 2463 
L 2278 2388 
Q 2241 2644 2061 2787 
Q 1881 2931 1553 2931 
Q 1166 2931 1000 2803 
Q 834 2675 834 2503 
Q 834 2394 903 2306 
Q 972 2216 1119 2156 
Q 1203 2125 1616 2013 
Q 2213 1853 2448 1751 
Q 2684 1650 2818 1456 
Q 2953 1263 2953 975 
Q 2953 694 2789 445 
Q 2625 197 2315 61 
Q 2006 -75 1616 -75 
Q 969 -75 630 194 
Q 291 463 197 991 
z
" transform="scale(0.015625)"/>
       <path id="ArialMT-4d" d="M 475 0 
L 475 4581 
L 1388 4581 
L 2472 1338 
Q 2622 884 2691 659 
Q 2769 909 2934 1394 
L 4031 4581 
L 4847 4581 
L 4847 0 
L 4263 0 
L 4263 3834 
L 2931 0 
L 2384 0 
L 1059 3900 
L 1059 0 
L 475 0 
z
" transform="scale(0.015625)"/>
       <path id="ArialMT-50" d="M 494 0 
L 494 4581 
L 2222 4581 
Q 2678 4581 2919 4538 
Q 3256 4481 3484 4323 
Q 3713 4166 3852 3881 
Q 3991 3597 3991 3256 
Q 3991 2672 3619 2267 
Q 3247 1863 2275 1863 
L 1100 1863 
L 1100 0 
L 494 0 
z
M 1100 2403 
L 2284 2403 
Q 2872 2403 3119 2622 
Q 3366 2841 3366 3238 
Q 3366 3525 3220 3729 
Q 3075 3934 2838 4000 
Q 2684 4041 2272 4041 
L 1100 4041 
L 1100 2403 
z
" transform="scale(0.015625)"/>
      </defs>
      <use xlink:href="#ArialMT-53"/>
      <use xlink:href="#ArialMT-74" x="66.699219"/>
      <use xlink:href="#ArialMT-72" x="94.482422"/>
      <use xlink:href="#ArialMT-65" x="127.783203"/>
      <use xlink:href="#ArialMT-73" x="183.398438"/>
      <use xlink:href="#ArialMT-73" x="233.398438"/>
      <use xlink:href="#ArialMT-28" x="283.398438"/>
      <use xlink:href="#ArialMT-4d" x="316.699219"/>
      <use xlink:href="#ArialMT-50" x="400"/>
      <use xlink:href="#ArialMT-61" x="466.699219"/>
      <use xlink:href="#ArialMT-29" x="522.314453"/>
     </g>
    </g>
   </g>
   <g id="line2d_17">
    <path d="M 75.144796 369.923925 
L 77.139633 362.722501 
L 79.096636 356.383251 
L 81.053638 350.713855 
L 83.01064 345.668044 
L 84.967642 341.201675 
L 86.924644 337.272671 
L 88.881646 333.840955 
L 90.838649 330.868392 
L 92.795651 328.318722 
L 94.752653 326.157506 
L 96.709655 324.352066 
L 98.666657 322.871425 
L 100.623659 321.686256 
L 102.580661 320.76882 
L 104.537664 320.092919 
L 106.494666 319.633838 
L 108.451668 319.368295 
L 110.897921 319.275291 
L 113.344173 319.410706 
L 116.279676 319.823169 
L 119.21518 320.453855 
L 123.129184 321.544902 
L 128.021689 323.160765 
L 142.699205 328.162175 
L 147.591711 329.503345 
L 151.994966 330.468402 
L 155.90897 331.108435 
L 159.822974 331.530114 
L 163.736978 331.727479 
L 167.650983 331.70038 
L 171.564987 331.453677 
L 175.478991 330.996494 
L 179.882246 330.246503 
L 184.285501 329.26871 
L 189.178006 327.946848 
L 194.559762 326.252245 
L 200.924586 323.997128 
L 209.241845 320.789558 
L 228.811866 313.143534 
L 236.150624 310.574623 
L 242.510881 308.582245 
L 248.381888 306.965631 
L 254.252894 305.576472 
L 260.1239 304.416674 
L 265.994907 303.476963 
L 272.355164 302.683775 
L 279.693922 302.008453 
L 288.989682 301.397583 
L 305.6242 300.335238 
L 311.984457 299.689126 
L 317.366213 298.935855 
L 322.258719 298.037712 
L 326.661973 297.020844 
L 331.065228 295.776473 
L 334.979232 294.456966 
L 338.893237 292.917385 
L 342.807241 291.140476 
L 346.721245 289.110368 
L 350.63525 286.812765 
L 354.549254 284.235142 
L 358.463258 281.366928 
L 362.377262 278.199682 
L 366.291267 274.727256 
L 370.205271 270.945951 
L 374.119275 266.854653 
L 378.03328 262.454964 
L 382.436534 257.142316 
L 386.839789 251.455775 
L 391.243044 245.410886 
L 396.135549 238.299105 
L 401.028055 230.805552 
L 406.409811 222.173067 
L 412.770068 211.535553 
L 420.598076 197.982409 
L 441.635849 161.293945 
L 447.506856 151.655447 
L 452.399361 144.047007 
L 456.802616 137.615183 
L 460.71662 132.288685 
L 464.141374 127.97038 
L 467.566128 124.005793 
L 470.501631 120.913134 
L 473.437134 118.122848 
L 476.372637 115.653328 
L 478.81889 113.853013 
L 481.265143 112.297021 
L 483.711395 110.994187 
L 486.157648 109.952634 
L 488.603901 109.179708 
L 491.050154 108.681885 
L 493.007156 108.48545 
L 494.964158 108.471 
L 496.92116 108.640437 
L 498.878162 108.995184 
L 500.835164 109.536146 
L 503.281417 110.47471 
L 505.72767 111.704178 
L 508.173922 113.222452 
L 510.620175 115.025813 
L 513.066428 117.108805 
L 515.51268 119.464128 
L 518.448184 122.636799 
L 521.383687 126.168177 
L 521.872937 126.789955 
L 521.872937 126.789955 
" clip-path="url(#p8c7a09c6e9)" style="fill: none; stroke: #1f77b4; stroke-width: 1.5; stroke-linecap: square"/>
   </g>
   <g id="patch_3">
    <path d="M 75.130625 361.300875 
L 75.130625 28.660875 
" style="fill: none; stroke: #000000; stroke-width: 0.8; stroke-linejoin: miter; stroke-linecap: square"/>
   </g>
   <g id="patch_4">
    <path d="M 521.530625 361.300875 
L 521.530625 28.660875 
" style="fill: none; stroke: #000000; stroke-width: 0.8; stroke-linejoin: miter; stroke-linecap: square"/>
   </g>
   <g id="patch_5">
    <path d="M 75.130625 361.300875 
L 521.530625 361.300875 
" style="fill: none; stroke: #000000; stroke-width: 0.8; stroke-linejoin: miter; stroke-linecap: square"/>
   </g>
   <g id="patch_6">
    <path d="M 75.130625 28.660875 
L 521.530625 28.660875 
" style="fill: none; stroke: #000000; stroke-width: 0.8; stroke-linejoin: miter; stroke-linecap: square"/>
   </g>
   <g id="text_19">
    <!-- NO5M Stress-Strain Curve -->
    <g transform="translate(169.906813 22.660875) scale(0.216 -0.216)">
     <defs>
      <path id="ArialMT-4e" d="M 488 0 
L 488 4581 
L 1109 4581 
L 3516 984 
L 3516 4581 
L 4097 4581 
L 4097 0 
L 3475 0 
L 1069 3600 
L 1069 0 
L 488 0 
z
" transform="scale(0.015625)"/>
      <path id="ArialMT-4f" d="M 309 2231 
Q 309 3372 921 4017 
Q 1534 4663 2503 4663 
Q 3138 4663 3647 4359 
Q 4156 4056 4423 3514 
Q 4691 2972 4691 2284 
Q 4691 1588 4409 1038 
Q 4128 488 3612 205 
Q 3097 -78 2500 -78 
Q 1853 -78 1343 234 
Q 834 547 571 1087 
Q 309 1628 309 2231 
z
M 934 2222 
Q 934 1394 1379 917 
Q 1825 441 2497 441 
Q 3181 441 3623 922 
Q 4066 1403 4066 2288 
Q 4066 2847 3877 3264 
Q 3688 3681 3323 3911 
Q 2959 4141 2506 4141 
Q 1863 4141 1398 3698 
Q 934 3256 934 2222 
z
" transform="scale(0.015625)"/>
      <path id="ArialMT-20" transform="scale(0.015625)"/>
      <path id="ArialMT-2d" d="M 203 1375 
L 203 1941 
L 1931 1941 
L 1931 1375 
L 203 1375 
z
" transform="scale(0.015625)"/>
      <path id="ArialMT-43" d="M 3763 1606 
L 4369 1453 
Q 4178 706 3683 314 
Q 3188 -78 2472 -78 
Q 1731 -78 1267 223 
Q 803 525 561 1097 
Q 319 1669 319 2325 
Q 319 3041 592 3573 
Q 866 4106 1370 4382 
Q 1875 4659 2481 4659 
Q 3169 4659 3637 4309 
Q 4106 3959 4291 3325 
L 3694 3184 
Q 3534 3684 3231 3912 
Q 2928 4141 2469 4141 
Q 1941 4141 1586 3887 
Q 1231 3634 1087 3207 
Q 944 2781 944 2328 
Q 944 1744 1114 1308 
Q 1284 872 1643 656 
Q 2003 441 2422 441 
Q 2931 441 3284 734 
Q 3638 1028 3763 1606 
z
" transform="scale(0.015625)"/>
      <path id="ArialMT-75" d="M 2597 0 
L 2597 488 
Q 2209 -75 1544 -75 
Q 1250 -75 995 37 
Q 741 150 617 320 
Q 494 491 444 738 
Q 409 903 409 1263 
L 409 3319 
L 972 3319 
L 972 1478 
Q 972 1038 1006 884 
Q 1059 663 1231 536 
Q 1403 409 1656 409 
Q 1909 409 2131 539 
Q 2353 669 2445 892 
Q 2538 1116 2538 1541 
L 2538 3319 
L 3100 3319 
L 3100 0 
L 2597 0 
z
" transform="scale(0.015625)"/>
      <path id="ArialMT-76" d="M 1344 0 
L 81 3319 
L 675 3319 
L 1388 1331 
Q 1503 1009 1600 663 
Q 1675 925 1809 1294 
L 2547 3319 
L 3125 3319 
L 1869 0 
L 1344 0 
z
" transform="scale(0.015625)"/>
     </defs>
     <use xlink:href="#ArialMT-4e"/>
     <use xlink:href="#ArialMT-4f" x="72.216797"/>
     <use xlink:href="#ArialMT-35" x="150"/>
     <use xlink:href="#ArialMT-4d" x="205.615234"/>
     <use xlink:href="#ArialMT-20" x="288.916016"/>
     <use xlink:href="#ArialMT-53" x="316.699219"/>
     <use xlink:href="#ArialMT-74" x="383.398438"/>
     <use xlink:href="#ArialMT-72" x="411.181641"/>
     <use xlink:href="#ArialMT-65" x="444.482422"/>
     <use xlink:href="#ArialMT-73" x="500.097656"/>
     <use xlink:href="#ArialMT-73" x="550.097656"/>
     <use xlink:href="#ArialMT-2d" x="600.097656"/>
     <use xlink:href="#ArialMT-53" x="633.398438"/>
     <use xlink:href="#ArialMT-74" x="700.097656"/>
     <use xlink:href="#ArialMT-72" x="727.880859"/>
     <use xlink:href="#ArialMT-61" x="761.181641"/>
     <use xlink:href="#ArialMT-69" x="816.796875"/>
     <use xlink:href="#ArialMT-6e" x="839.013672"/>
     <use xlink:href="#ArialMT-20" x="894.628906"/>
     <use xlink:href="#ArialMT-43" x="922.412109"/>
     <use xlink:href="#ArialMT-75" x="994.628906"/>
     <use xlink:href="#ArialMT-72" x="1050.244141"/>
     <use xlink:href="#ArialMT-76" x="1083.544922"/>
     <use xlink:href="#ArialMT-65" x="1133.544922"/>
    </g>
   </g>
  </g>
 </g>
 <defs>
  <clipPath id="p8c7a09c6e9">
   <rect x="75.130625" y="28.660875" width="446.4" height="332.64"/>
  </clipPath>
 </defs>
</svg>
