<?xml version="1.0" encoding="utf-8" standalone="no"?>
<!DOCTYPE svg PUBLIC "-//W3C//DTD SVG 1.1//EN"
  "http://www.w3.org/Graphics/SVG/1.1/DTD/svg11.dtd">
<svg xmlns:xlink="http://www.w3.org/1999/xlink" width="342.893437pt" height="346.771437pt" viewBox="0 0 342.893437 346.771437" xmlns="http://www.w3.org/2000/svg" version="1.1">
 <metadata>
  <rdf:RDF xmlns:dc="http://purl.org/dc/elements/1.1/" xmlns:cc="http://creativecommons.org/ns#" xmlns:rdf="http://www.w3.org/1999/02/22-rdf-syntax-ns#">
   <cc:Work>
    <dc:type rdf:resource="http://purl.org/dc/dcmitype/StillImage"/>
    <dc:date>2025-11-12T11:58:15.867742</dc:date>
    <dc:format>image/svg+xml</dc:format>
    <dc:creator>
     <cc:Agent>
      <dc:title>Matplotlib v3.9.0, https://matplotlib.org/</dc:title>
     </cc:Agent>
    </dc:creator>
   </cc:Work>
  </rdf:RDF>
 </metadata>
 <defs>
  <style type="text/css">*{stroke-linejoin: round; stroke-linecap: butt}</style>
 </defs>
 <g id="figure_1">
  <g id="patch_1">
   <path d="M 0 346.771437 
L 342.893437 346.771437 
L 342.893437 0 
L 0 0 
z
" style="fill: #ffffff"/>
  </g>
  <g id="axes_1">
   <g id="patch_2">
    <path d="M 56.693438 164.029875 
L 335.693438 164.029875 
L 335.693438 25.429875 
L 56.693438 25.429875 
z
" style="fill: #ffffff"/>
   </g>
   <g id="matplotlib.axis_1">
    <g id="xtick_1">
     <g id="line2d_1">
      <defs>
       <path id="m1cc6a80d73" d="M 0 0 
L 0 3.5 
" style="stroke: #000000; stroke-width: 0.8"/>
      </defs>
      <g>
       <use xlink:href="#m1cc6a80d73" x="69.375256" y="164.029875" style="stroke: #000000; stroke-width: 0.8"/>
      </g>
     </g>
    </g>
    <g id="xtick_2">
     <g id="line2d_2">
      <g>
       <use xlink:href="#m1cc6a80d73" x="123.340439" y="164.029875" style="stroke: #000000; stroke-width: 0.8"/>
      </g>
     </g>
    </g>
    <g id="xtick_3">
     <g id="line2d_3">
      <g>
       <use xlink:href="#m1cc6a80d73" x="177.305623" y="164.029875" style="stroke: #000000; stroke-width: 0.8"/>
      </g>
     </g>
    </g>
    <g id="xtick_4">
     <g id="line2d_4">
      <g>
       <use xlink:href="#m1cc6a80d73" x="231.270807" y="164.029875" style="stroke: #000000; stroke-width: 0.8"/>
      </g>
     </g>
    </g>
    <g id="xtick_5">
     <g id="line2d_5">
      <g>
       <use xlink:href="#m1cc6a80d73" x="285.235991" y="164.029875" style="stroke: #000000; stroke-width: 0.8"/>
      </g>
     </g>
    </g>
   </g>
   <g id="matplotlib.axis_2">
    <g id="ytick_1">
     <g id="line2d_6">
      <defs>
       <path id="m2ad836566e" d="M 0 0 
L -3.5 0 
" style="stroke: #000000; stroke-width: 0.8"/>
      </defs>
      <g>
       <use xlink:href="#m2ad836566e" x="56.693438" y="157.729875" style="stroke: #000000; stroke-width: 0.8"/>
      </g>
     </g>
     <g id="text_1">
      <!-- 0 -->
      <g transform="translate(41.908125 162.740344) scale(0.14 -0.14)">
       <defs>
        <path id="ArialMT-30" d="M 266 2259 
Q 266 3072 433 3567 
Q 600 4063 929 4331 
Q 1259 4600 1759 4600 
Q 2128 4600 2406 4451 
Q 2684 4303 2865 4023 
Q 3047 3744 3150 3342 
Q 3253 2941 3253 2259 
Q 3253 1453 3087 958 
Q 2922 463 2592 192 
Q 2263 -78 1759 -78 
Q 1097 -78 719 397 
Q 266 969 266 2259 
z
M 844 2259 
Q 844 1131 1108 757 
Q 1372 384 1759 384 
Q 2147 384 2411 759 
Q 2675 1134 2675 2259 
Q 2675 3391 2411 3762 
Q 2147 4134 1753 4134 
Q 1366 4134 1134 3806 
Q 844 3388 844 2259 
z
" transform="scale(0.015625)"/>
       </defs>
       <use xlink:href="#ArialMT-30"/>
      </g>
     </g>
    </g>
    <g id="ytick_2">
     <g id="line2d_7">
      <g>
       <use xlink:href="#m2ad836566e" x="56.693438" y="126.229875" style="stroke: #000000; stroke-width: 0.8"/>
      </g>
     </g>
     <g id="text_2">
      <!-- 1 -->
      <g transform="translate(41.908125 131.240344) scale(0.14 -0.14)">
       <defs>
        <path id="ArialMT-31" d="M 2384 0 
L 1822 0 
L 1822 3584 
Q 1619 3391 1289 3197 
Q 959 3003 697 2906 
L 697 3450 
Q 1169 3672 1522 3987 
Q 1875 4303 2022 4600 
L 2384 4600 
L 2384 0 
z
" transform="scale(0.015625)"/>
       </defs>
       <use xlink:href="#ArialMT-31"/>
      </g>
     </g>
    </g>
    <g id="ytick_3">
     <g id="line2d_8">
      <g>
       <use xlink:href="#m2ad836566e" x="56.693438" y="94.729875" style="stroke: #000000; stroke-width: 0.8"/>
      </g>
     </g>
     <g id="text_3">
      <!-- 2 -->
      <g transform="translate(41.908125 99.740344) scale(0.14 -0.14)">
       <defs>
        <path id="ArialMT-32" d="M 3222 541 
L 3222 0 
L 194 0 
Q 188 203 259 391 
Q 375 700 629 1000 
Q 884 1300 1366 1694 
Q 2113 2306 2375 2664 
Q 2638 3022 2638 3341 
Q 2638 3675 2398 3904 
Q 2159 4134 1775 4134 
Q 1369 4134 1125 3890 
Q 881 3647 878 3216 
L 300 3275 
Q 359 3922 746 4261 
Q 1134 4600 1788 4600 
Q 2447 4600 2831 4234 
Q 3216 3869 3216 3328 
Q 3216 3053 3103 2787 
Q 2991 2522 2730 2228 
Q 2469 1934 1863 1422 
Q 1356 997 1212 845 
Q 1069 694 975 541 
L 3222 541 
z
" transform="scale(0.015625)"/>
       </defs>
       <use xlink:href="#ArialMT-32"/>
      </g>
     </g>
    </g>
    <g id="ytick_4">
     <g id="line2d_9">
      <g>
       <use xlink:href="#m2ad836566e" x="56.693438" y="63.229875" style="stroke: #000000; stroke-width: 0.8"/>
      </g>
     </g>
     <g id="text_4">
      <!-- 3 -->
      <g transform="translate(41.908125 68.240344) scale(0.14 -0.14)">
       <defs>
        <path id="ArialMT-33" d="M 269 1209 
L 831 1284 
Q 928 806 1161 595 
Q 1394 384 1728 384 
Q 2125 384 2398 659 
Q 2672 934 2672 1341 
Q 2672 1728 2419 1979 
Q 2166 2231 1775 2231 
Q 1616 2231 1378 2169 
L 1441 2663 
Q 1497 2656 1531 2656 
Q 1891 2656 2178 2843 
Q 2466 3031 2466 3422 
Q 2466 3731 2256 3934 
Q 2047 4138 1716 4138 
Q 1388 4138 1169 3931 
Q 950 3725 888 3313 
L 325 3413 
Q 428 3978 793 4289 
Q 1159 4600 1703 4600 
Q 2078 4600 2393 4439 
Q 2709 4278 2876 4000 
Q 3044 3722 3044 3409 
Q 3044 3113 2884 2869 
Q 2725 2625 2413 2481 
Q 2819 2388 3044 2092 
Q 3269 1797 3269 1353 
Q 3269 753 2831 336 
Q 2394 -81 1725 -81 
Q 1122 -81 723 278 
Q 325 638 269 1209 
z
" transform="scale(0.015625)"/>
       </defs>
       <use xlink:href="#ArialMT-33"/>
      </g>
     </g>
    </g>
    <g id="ytick_5">
     <g id="line2d_10">
      <g>
       <use xlink:href="#m2ad836566e" x="56.693438" y="31.729875" style="stroke: #000000; stroke-width: 0.8"/>
      </g>
     </g>
     <g id="text_5">
      <!-- 4 -->
      <g transform="translate(41.908125 36.740344) scale(0.14 -0.14)">
       <defs>
        <path id="ArialMT-34" d="M 2069 0 
L 2069 1097 
L 81 1097 
L 81 1613 
L 2172 4581 
L 2631 4581 
L 2631 1613 
L 3250 1613 
L 3250 1097 
L 2631 1097 
L 2631 0 
L 2069 0 
z
M 2069 1613 
L 2069 3678 
L 634 1613 
L 2069 1613 
z
" transform="scale(0.015625)"/>
       </defs>
       <use xlink:href="#ArialMT-34"/>
      </g>
     </g>
    </g>
    <g id="text_6">
     <!-- Hydrogen Bonds -->
     <g transform="translate(34.961562 146.871125) rotate(-90) scale(0.14 -0.14)">
      <defs>
       <path id="ArialMT-48" d="M 513 0 
L 513 4581 
L 1119 4581 
L 1119 2700 
L 3500 2700 
L 3500 4581 
L 4106 4581 
L 4106 0 
L 3500 0 
L 3500 2159 
L 1119 2159 
L 1119 0 
L 513 0 
z
" transform="scale(0.015625)"/>
       <path id="ArialMT-79" d="M 397 -1278 
L 334 -750 
Q 519 -800 656 -800 
Q 844 -800 956 -737 
Q 1069 -675 1141 -563 
Q 1194 -478 1313 -144 
Q 1328 -97 1363 -6 
L 103 3319 
L 709 3319 
L 1400 1397 
Q 1534 1031 1641 628 
Q 1738 1016 1872 1384 
L 2581 3319 
L 3144 3319 
L 1881 -56 
Q 1678 -603 1566 -809 
Q 1416 -1088 1222 -1217 
Q 1028 -1347 759 -1347 
Q 597 -1347 397 -1278 
z
" transform="scale(0.015625)"/>
       <path id="ArialMT-64" d="M 2575 0 
L 2575 419 
Q 2259 -75 1647 -75 
Q 1250 -75 917 144 
Q 584 363 401 755 
Q 219 1147 219 1656 
Q 219 2153 384 2558 
Q 550 2963 881 3178 
Q 1213 3394 1622 3394 
Q 1922 3394 2156 3267 
Q 2391 3141 2538 2938 
L 2538 4581 
L 3097 4581 
L 3097 0 
L 2575 0 
z
M 797 1656 
Q 797 1019 1065 703 
Q 1334 388 1700 388 
Q 2069 388 2326 689 
Q 2584 991 2584 1609 
Q 2584 2291 2321 2609 
Q 2059 2928 1675 2928 
Q 1300 2928 1048 2622 
Q 797 2316 797 1656 
z
" transform="scale(0.015625)"/>
       <path id="ArialMT-72" d="M 416 0 
L 416 3319 
L 922 3319 
L 922 2816 
Q 1116 3169 1280 3281 
Q 1444 3394 1641 3394 
Q 1925 3394 2219 3213 
L 2025 2691 
Q 1819 2813 1613 2813 
Q 1428 2813 1281 2702 
Q 1134 2591 1072 2394 
Q 978 2094 978 1738 
L 978 0 
L 416 0 
z
" transform="scale(0.015625)"/>
       <path id="ArialMT-6f" d="M 213 1659 
Q 213 2581 725 3025 
Q 1153 3394 1769 3394 
Q 2453 3394 2887 2945 
Q 3322 2497 3322 1706 
Q 3322 1066 3130 698 
Q 2938 331 2570 128 
Q 2203 -75 1769 -75 
Q 1072 -75 642 372 
Q 213 819 213 1659 
z
M 791 1659 
Q 791 1022 1069 705 
Q 1347 388 1769 388 
Q 2188 388 2466 706 
Q 2744 1025 2744 1678 
Q 2744 2294 2464 2611 
Q 2184 2928 1769 2928 
Q 1347 2928 1069 2612 
Q 791 2297 791 1659 
z
" transform="scale(0.015625)"/>
       <path id="ArialMT-67" d="M 319 -275 
L 866 -356 
Q 900 -609 1056 -725 
Q 1266 -881 1628 -881 
Q 2019 -881 2231 -725 
Q 2444 -569 2519 -288 
Q 2563 -116 2559 434 
Q 2191 0 1641 0 
Q 956 0 581 494 
Q 206 988 206 1678 
Q 206 2153 378 2554 
Q 550 2956 876 3175 
Q 1203 3394 1644 3394 
Q 2231 3394 2613 2919 
L 2613 3319 
L 3131 3319 
L 3131 450 
Q 3131 -325 2973 -648 
Q 2816 -972 2473 -1159 
Q 2131 -1347 1631 -1347 
Q 1038 -1347 672 -1080 
Q 306 -813 319 -275 
z
M 784 1719 
Q 784 1066 1043 766 
Q 1303 466 1694 466 
Q 2081 466 2343 764 
Q 2606 1063 2606 1700 
Q 2606 2309 2336 2618 
Q 2066 2928 1684 2928 
Q 1309 2928 1046 2623 
Q 784 2319 784 1719 
z
" transform="scale(0.015625)"/>
       <path id="ArialMT-65" d="M 2694 1069 
L 3275 997 
Q 3138 488 2766 206 
Q 2394 -75 1816 -75 
Q 1088 -75 661 373 
Q 234 822 234 1631 
Q 234 2469 665 2931 
Q 1097 3394 1784 3394 
Q 2450 3394 2872 2941 
Q 3294 2488 3294 1666 
Q 3294 1616 3291 1516 
L 816 1516 
Q 847 969 1125 678 
Q 1403 388 1819 388 
Q 2128 388 2347 550 
Q 2566 713 2694 1069 
z
M 847 1978 
L 2700 1978 
Q 2663 2397 2488 2606 
Q 2219 2931 1791 2931 
Q 1403 2931 1139 2672 
Q 875 2413 847 1978 
z
" transform="scale(0.015625)"/>
       <path id="ArialMT-6e" d="M 422 0 
L 422 3319 
L 928 3319 
L 928 2847 
Q 1294 3394 1984 3394 
Q 2284 3394 2536 3286 
Q 2788 3178 2913 3003 
Q 3038 2828 3088 2588 
Q 3119 2431 3119 2041 
L 3119 0 
L 2556 0 
L 2556 2019 
Q 2556 2363 2490 2533 
Q 2425 2703 2258 2804 
Q 2091 2906 1866 2906 
Q 1506 2906 1245 2678 
Q 984 2450 984 1813 
L 984 0 
L 422 0 
z
" transform="scale(0.015625)"/>
       <path id="ArialMT-20" transform="scale(0.015625)"/>
       <path id="ArialMT-42" d="M 469 0 
L 469 4581 
L 2188 4581 
Q 2713 4581 3030 4442 
Q 3347 4303 3526 4014 
Q 3706 3725 3706 3409 
Q 3706 3116 3547 2856 
Q 3388 2597 3066 2438 
Q 3481 2316 3704 2022 
Q 3928 1728 3928 1328 
Q 3928 1006 3792 729 
Q 3656 453 3456 303 
Q 3256 153 2954 76 
Q 2653 0 2216 0 
L 469 0 
z
M 1075 2656 
L 2066 2656 
Q 2469 2656 2644 2709 
Q 2875 2778 2992 2937 
Q 3109 3097 3109 3338 
Q 3109 3566 3000 3739 
Q 2891 3913 2687 3977 
Q 2484 4041 1991 4041 
L 1075 4041 
L 1075 2656 
z
M 1075 541 
L 2216 541 
Q 2509 541 2628 563 
Q 2838 600 2978 687 
Q 3119 775 3209 942 
Q 3300 1109 3300 1328 
Q 3300 1584 3169 1773 
Q 3038 1963 2805 2039 
Q 2572 2116 2134 2116 
L 1075 2116 
L 1075 541 
z
" transform="scale(0.015625)"/>
       <path id="ArialMT-73" d="M 197 991 
L 753 1078 
Q 800 744 1014 566 
Q 1228 388 1613 388 
Q 2000 388 2187 545 
Q 2375 703 2375 916 
Q 2375 1106 2209 1216 
Q 2094 1291 1634 1406 
Q 1016 1563 777 1677 
Q 538 1791 414 1992 
Q 291 2194 291 2438 
Q 291 2659 392 2848 
Q 494 3038 669 3163 
Q 800 3259 1026 3326 
Q 1253 3394 1513 3394 
Q 1903 3394 2198 3281 
Q 2494 3169 2634 2976 
Q 2775 2784 2828 2463 
L 2278 2388 
Q 2241 2644 2061 2787 
Q 1881 2931 1553 2931 
Q 1166 2931 1000 2803 
Q 834 2675 834 2503 
Q 834 2394 903 2306 
Q 972 2216 1119 2156 
Q 1203 2125 1616 2013 
Q 2213 1853 2448 1751 
Q 2684 1650 2818 1456 
Q 2953 1263 2953 975 
Q 2953 694 2789 445 
Q 2625 197 2315 61 
Q 2006 -75 1616 -75 
Q 969 -75 630 194 
Q 291 463 197 991 
z
" transform="scale(0.015625)"/>
      </defs>
      <use xlink:href="#ArialMT-48"/>
      <use xlink:href="#ArialMT-79" x="72.216797"/>
      <use xlink:href="#ArialMT-64" x="122.216797"/>
      <use xlink:href="#ArialMT-72" x="177.832031"/>
      <use xlink:href="#ArialMT-6f" x="211.132812"/>
      <use xlink:href="#ArialMT-67" x="266.748047"/>
      <use xlink:href="#ArialMT-65" x="322.363281"/>
      <use xlink:href="#ArialMT-6e" x="377.978516"/>
      <use xlink:href="#ArialMT-20" x="433.59375"/>
      <use xlink:href="#ArialMT-42" x="461.376953"/>
      <use xlink:href="#ArialMT-6f" x="528.076172"/>
      <use xlink:href="#ArialMT-6e" x="583.691406"/>
      <use xlink:href="#ArialMT-64" x="639.306641"/>
      <use xlink:href="#ArialMT-73" x="694.921875"/>
     </g>
    </g>
   </g>
   <g id="line2d_11">
    <path d="M 69.375256 31.729875 
L 74.771774 31.729875 
L 80.168292 31.729875 
L 85.564811 31.729875 
L 90.961329 31.729875 
L 96.357848 31.729875 
L 101.754366 31.729875 
L 107.150884 31.729875 
L 112.547403 31.729875 
L 117.943921 31.729875 
L 123.340439 31.729875 
L 128.736958 31.729875 
L 134.133476 31.729875 
L 139.529995 31.729875 
L 144.926513 31.729875 
L 150.323031 31.729875 
L 155.71955 63.229875 
L 161.116068 63.229875 
L 166.512586 63.229875 
L 171.909105 63.229875 
L 177.305623 63.229875 
L 182.702142 63.229875 
L 188.09866 63.229875 
L 193.495178 63.229875 
L 198.891697 63.229875 
L 204.288215 63.229875 
L 209.684733 63.229875 
L 215.081252 63.229875 
L 220.47777 94.729875 
L 225.874289 94.729875 
L 231.270807 94.729875 
L 236.667325 94.729875 
L 242.063844 94.729875 
L 247.460362 94.729875 
L 252.85688 94.729875 
L 258.253399 94.729875 
L 263.649917 94.729875 
L 269.046436 157.729875 
L 274.442954 157.729875 
L 279.839472 126.229875 
L 285.235991 157.729875 
L 290.632509 126.229875 
L 296.029027 126.229875 
L 301.425546 94.729875 
L 306.822064 126.229875 
L 312.218583 157.729875 
L 317.615101 157.729875 
L 323.011619 157.729875 
" clip-path="url(#peac36bca08)" style="fill: none; stroke: #1f77b4; stroke-width: 1.5; stroke-linecap: square"/>
    <defs>
     <path id="ma1e57f67d1" d="M 0 -3 
L -0.673542 -0.927051 
L -2.85317 -0.927051 
L -1.089814 0.354102 
L -1.763356 2.427051 
L -0 1.145898 
L 1.763356 2.427051 
L 1.089814 0.354102 
L 2.85317 -0.927051 
L 0.673542 -0.927051 
z
" style="stroke: #1f77b4; stroke-linejoin: bevel"/>
    </defs>
    <g clip-path="url(#peac36bca08)">
     <use xlink:href="#ma1e57f67d1" x="69.375256" y="31.729875" style="fill: #1f77b4; stroke: #1f77b4; stroke-linejoin: bevel"/>
     <use xlink:href="#ma1e57f67d1" x="74.771774" y="31.729875" style="fill: #1f77b4; stroke: #1f77b4; stroke-linejoin: bevel"/>
     <use xlink:href="#ma1e57f67d1" x="80.168292" y="31.729875" style="fill: #1f77b4; stroke: #1f77b4; stroke-linejoin: bevel"/>
     <use xlink:href="#ma1e57f67d1" x="85.564811" y="31.729875" style="fill: #1f77b4; stroke: #1f77b4; stroke-linejoin: bevel"/>
     <use xlink:href="#ma1e57f67d1" x="90.961329" y="31.729875" style="fill: #1f77b4; stroke: #1f77b4; stroke-linejoin: bevel"/>
     <use xlink:href="#ma1e57f67d1" x="96.357848" y="31.729875" style="fill: #1f77b4; stroke: #1f77b4; stroke-linejoin: bevel"/>
     <use xlink:href="#ma1e57f67d1" x="101.754366" y="31.729875" style="fill: #1f77b4; stroke: #1f77b4; stroke-linejoin: bevel"/>
     <use xlink:href="#ma1e57f67d1" x="107.150884" y="31.729875" style="fill: #1f77b4; stroke: #1f77b4; stroke-linejoin: bevel"/>
     <use xlink:href="#ma1e57f67d1" x="112.547403" y="31.729875" style="fill: #1f77b4; stroke: #1f77b4; stroke-linejoin: bevel"/>
     <use xlink:href="#ma1e57f67d1" x="117.943921" y="31.729875" style="fill: #1f77b4; stroke: #1f77b4; stroke-linejoin: bevel"/>
     <use xlink:href="#ma1e57f67d1" x="123.340439" y="31.729875" style="fill: #1f77b4; stroke: #1f77b4; stroke-linejoin: bevel"/>
     <use xlink:href="#ma1e57f67d1" x="128.736958" y="31.729875" style="fill: #1f77b4; stroke: #1f77b4; stroke-linejoin: bevel"/>
     <use xlink:href="#ma1e57f67d1" x="134.133476" y="31.729875" style="fill: #1f77b4; stroke: #1f77b4; stroke-linejoin: bevel"/>
     <use xlink:href="#ma1e57f67d1" x="139.529995" y="31.729875" style="fill: #1f77b4; stroke: #1f77b4; stroke-linejoin: bevel"/>
     <use xlink:href="#ma1e57f67d1" x="144.926513" y="31.729875" style="fill: #1f77b4; stroke: #1f77b4; stroke-linejoin: bevel"/>
     <use xlink:href="#ma1e57f67d1" x="150.323031" y="31.729875" style="fill: #1f77b4; stroke: #1f77b4; stroke-linejoin: bevel"/>
     <use xlink:href="#ma1e57f67d1" x="155.71955" y="63.229875" style="fill: #1f77b4; stroke: #1f77b4; stroke-linejoin: bevel"/>
     <use xlink:href="#ma1e57f67d1" x="161.116068" y="63.229875" style="fill: #1f77b4; stroke: #1f77b4; stroke-linejoin: bevel"/>
     <use xlink:href="#ma1e57f67d1" x="166.512586" y="63.229875" style="fill: #1f77b4; stroke: #1f77b4; stroke-linejoin: bevel"/>
     <use xlink:href="#ma1e57f67d1" x="171.909105" y="63.229875" style="fill: #1f77b4; stroke: #1f77b4; stroke-linejoin: bevel"/>
     <use xlink:href="#ma1e57f67d1" x="177.305623" y="63.229875" style="fill: #1f77b4; stroke: #1f77b4; stroke-linejoin: bevel"/>
     <use xlink:href="#ma1e57f67d1" x="182.702142" y="63.229875" style="fill: #1f77b4; stroke: #1f77b4; stroke-linejoin: bevel"/>
     <use xlink:href="#ma1e57f67d1" x="188.09866" y="63.229875" style="fill: #1f77b4; stroke: #1f77b4; stroke-linejoin: bevel"/>
     <use xlink:href="#ma1e57f67d1" x="193.495178" y="63.229875" style="fill: #1f77b4; stroke: #1f77b4; stroke-linejoin: bevel"/>
     <use xlink:href="#ma1e57f67d1" x="198.891697" y="63.229875" style="fill: #1f77b4; stroke: #1f77b4; stroke-linejoin: bevel"/>
     <use xlink:href="#ma1e57f67d1" x="204.288215" y="63.229875" style="fill: #1f77b4; stroke: #1f77b4; stroke-linejoin: bevel"/>
     <use xlink:href="#ma1e57f67d1" x="209.684733" y="63.229875" style="fill: #1f77b4; stroke: #1f77b4; stroke-linejoin: bevel"/>
     <use xlink:href="#ma1e57f67d1" x="215.081252" y="63.229875" style="fill: #1f77b4; stroke: #1f77b4; stroke-linejoin: bevel"/>
     <use xlink:href="#ma1e57f67d1" x="220.47777" y="94.729875" style="fill: #1f77b4; stroke: #1f77b4; stroke-linejoin: bevel"/>
     <use xlink:href="#ma1e57f67d1" x="225.874289" y="94.729875" style="fill: #1f77b4; stroke: #1f77b4; stroke-linejoin: bevel"/>
     <use xlink:href="#ma1e57f67d1" x="231.270807" y="94.729875" style="fill: #1f77b4; stroke: #1f77b4; stroke-linejoin: bevel"/>
     <use xlink:href="#ma1e57f67d1" x="236.667325" y="94.729875" style="fill: #1f77b4; stroke: #1f77b4; stroke-linejoin: bevel"/>
     <use xlink:href="#ma1e57f67d1" x="242.063844" y="94.729875" style="fill: #1f77b4; stroke: #1f77b4; stroke-linejoin: bevel"/>
     <use xlink:href="#ma1e57f67d1" x="247.460362" y="94.729875" style="fill: #1f77b4; stroke: #1f77b4; stroke-linejoin: bevel"/>
     <use xlink:href="#ma1e57f67d1" x="252.85688" y="94.729875" style="fill: #1f77b4; stroke: #1f77b4; stroke-linejoin: bevel"/>
     <use xlink:href="#ma1e57f67d1" x="258.253399" y="94.729875" style="fill: #1f77b4; stroke: #1f77b4; stroke-linejoin: bevel"/>
     <use xlink:href="#ma1e57f67d1" x="263.649917" y="94.729875" style="fill: #1f77b4; stroke: #1f77b4; stroke-linejoin: bevel"/>
     <use xlink:href="#ma1e57f67d1" x="269.046436" y="157.729875" style="fill: #1f77b4; stroke: #1f77b4; stroke-linejoin: bevel"/>
     <use xlink:href="#ma1e57f67d1" x="274.442954" y="157.729875" style="fill: #1f77b4; stroke: #1f77b4; stroke-linejoin: bevel"/>
     <use xlink:href="#ma1e57f67d1" x="279.839472" y="126.229875" style="fill: #1f77b4; stroke: #1f77b4; stroke-linejoin: bevel"/>
     <use xlink:href="#ma1e57f67d1" x="285.235991" y="157.729875" style="fill: #1f77b4; stroke: #1f77b4; stroke-linejoin: bevel"/>
     <use xlink:href="#ma1e57f67d1" x="290.632509" y="126.229875" style="fill: #1f77b4; stroke: #1f77b4; stroke-linejoin: bevel"/>
     <use xlink:href="#ma1e57f67d1" x="296.029027" y="126.229875" style="fill: #1f77b4; stroke: #1f77b4; stroke-linejoin: bevel"/>
     <use xlink:href="#ma1e57f67d1" x="301.425546" y="94.729875" style="fill: #1f77b4; stroke: #1f77b4; stroke-linejoin: bevel"/>
     <use xlink:href="#ma1e57f67d1" x="306.822064" y="126.229875" style="fill: #1f77b4; stroke: #1f77b4; stroke-linejoin: bevel"/>
     <use xlink:href="#ma1e57f67d1" x="312.218583" y="157.729875" style="fill: #1f77b4; stroke: #1f77b4; stroke-linejoin: bevel"/>
     <use xlink:href="#ma1e57f67d1" x="317.615101" y="157.729875" style="fill: #1f77b4; stroke: #1f77b4; stroke-linejoin: bevel"/>
     <use xlink:href="#ma1e57f67d1" x="323.011619" y="157.729875" style="fill: #1f77b4; stroke: #1f77b4; stroke-linejoin: bevel"/>
    </g>
   </g>
   <g id="patch_3">
    <path d="M 56.693438 164.029875 
L 56.693438 25.429875 
" style="fill: none; stroke: #000000; stroke-width: 0.8; stroke-linejoin: miter; stroke-linecap: square"/>
   </g>
   <g id="patch_4">
    <path d="M 335.693438 164.029875 
L 335.693438 25.429875 
" style="fill: none; stroke: #000000; stroke-width: 0.8; stroke-linejoin: miter; stroke-linecap: square"/>
   </g>
   <g id="patch_5">
    <path d="M 56.693438 164.029875 
L 335.693438 164.029875 
" style="fill: none; stroke: #000000; stroke-width: 0.8; stroke-linejoin: miter; stroke-linecap: square"/>
   </g>
   <g id="patch_6">
    <path d="M 56.693438 25.429875 
L 335.693438 25.429875 
" style="fill: none; stroke: #000000; stroke-width: 0.8; stroke-linejoin: miter; stroke-linecap: square"/>
   </g>
   <g id="text_7">
    <!-- Polymer Chain Index Figures -->
    <g transform="translate(87.885938 19.429875) scale(0.168 -0.168)">
     <defs>
      <path id="ArialMT-50" d="M 494 0 
L 494 4581 
L 2222 4581 
Q 2678 4581 2919 4538 
Q 3256 4481 3484 4323 
Q 3713 4166 3852 3881 
Q 3991 3597 3991 3256 
Q 3991 2672 3619 2267 
Q 3247 1863 2275 1863 
L 1100 1863 
L 1100 0 
L 494 0 
z
M 1100 2403 
L 2284 2403 
Q 2872 2403 3119 2622 
Q 3366 2841 3366 3238 
Q 3366 3525 3220 3729 
Q 3075 3934 2838 4000 
Q 2684 4041 2272 4041 
L 1100 4041 
L 1100 2403 
z
" transform="scale(0.015625)"/>
      <path id="ArialMT-6c" d="M 409 0 
L 409 4581 
L 972 4581 
L 972 0 
L 409 0 
z
" transform="scale(0.015625)"/>
      <path id="ArialMT-6d" d="M 422 0 
L 422 3319 
L 925 3319 
L 925 2853 
Q 1081 3097 1340 3245 
Q 1600 3394 1931 3394 
Q 2300 3394 2536 3241 
Q 2772 3088 2869 2813 
Q 3263 3394 3894 3394 
Q 4388 3394 4653 3120 
Q 4919 2847 4919 2278 
L 4919 0 
L 4359 0 
L 4359 2091 
Q 4359 2428 4304 2576 
Q 4250 2725 4106 2815 
Q 3963 2906 3769 2906 
Q 3419 2906 3187 2673 
Q 2956 2441 2956 1928 
L 2956 0 
L 2394 0 
L 2394 2156 
Q 2394 2531 2256 2718 
Q 2119 2906 1806 2906 
Q 1569 2906 1367 2781 
Q 1166 2656 1075 2415 
Q 984 2175 984 1722 
L 984 0 
L 422 0 
z
" transform="scale(0.015625)"/>
      <path id="ArialMT-43" d="M 3763 1606 
L 4369 1453 
Q 4178 706 3683 314 
Q 3188 -78 2472 -78 
Q 1731 -78 1267 223 
Q 803 525 561 1097 
Q 319 1669 319 2325 
Q 319 3041 592 3573 
Q 866 4106 1370 4382 
Q 1875 4659 2481 4659 
Q 3169 4659 3637 4309 
Q 4106 3959 4291 3325 
L 3694 3184 
Q 3534 3684 3231 3912 
Q 2928 4141 2469 4141 
Q 1941 4141 1586 3887 
Q 1231 3634 1087 3207 
Q 944 2781 944 2328 
Q 944 1744 1114 1308 
Q 1284 872 1643 656 
Q 2003 441 2422 441 
Q 2931 441 3284 734 
Q 3638 1028 3763 1606 
z
" transform="scale(0.015625)"/>
      <path id="ArialMT-68" d="M 422 0 
L 422 4581 
L 984 4581 
L 984 2938 
Q 1378 3394 1978 3394 
Q 2347 3394 2619 3248 
Q 2891 3103 3008 2847 
Q 3125 2591 3125 2103 
L 3125 0 
L 2563 0 
L 2563 2103 
Q 2563 2525 2380 2717 
Q 2197 2909 1863 2909 
Q 1613 2909 1392 2779 
Q 1172 2650 1078 2428 
Q 984 2206 984 1816 
L 984 0 
L 422 0 
z
" transform="scale(0.015625)"/>
      <path id="ArialMT-61" d="M 2588 409 
Q 2275 144 1986 34 
Q 1697 -75 1366 -75 
Q 819 -75 525 192 
Q 231 459 231 875 
Q 231 1119 342 1320 
Q 453 1522 633 1644 
Q 813 1766 1038 1828 
Q 1203 1872 1538 1913 
Q 2219 1994 2541 2106 
Q 2544 2222 2544 2253 
Q 2544 2597 2384 2738 
Q 2169 2928 1744 2928 
Q 1347 2928 1158 2789 
Q 969 2650 878 2297 
L 328 2372 
Q 403 2725 575 2942 
Q 747 3159 1072 3276 
Q 1397 3394 1825 3394 
Q 2250 3394 2515 3294 
Q 2781 3194 2906 3042 
Q 3031 2891 3081 2659 
Q 3109 2516 3109 2141 
L 3109 1391 
Q 3109 606 3145 398 
Q 3181 191 3288 0 
L 2700 0 
Q 2613 175 2588 409 
z
M 2541 1666 
Q 2234 1541 1622 1453 
Q 1275 1403 1131 1340 
Q 988 1278 909 1158 
Q 831 1038 831 891 
Q 831 666 1001 516 
Q 1172 366 1500 366 
Q 1825 366 2078 508 
Q 2331 650 2450 897 
Q 2541 1088 2541 1459 
L 2541 1666 
z
" transform="scale(0.015625)"/>
      <path id="ArialMT-69" d="M 425 3934 
L 425 4581 
L 988 4581 
L 988 3934 
L 425 3934 
z
M 425 0 
L 425 3319 
L 988 3319 
L 988 0 
L 425 0 
z
" transform="scale(0.015625)"/>
      <path id="ArialMT-49" d="M 597 0 
L 597 4581 
L 1203 4581 
L 1203 0 
L 597 0 
z
" transform="scale(0.015625)"/>
      <path id="ArialMT-78" d="M 47 0 
L 1259 1725 
L 138 3319 
L 841 3319 
L 1350 2541 
Q 1494 2319 1581 2169 
Q 1719 2375 1834 2534 
L 2394 3319 
L 3066 3319 
L 1919 1756 
L 3153 0 
L 2463 0 
L 1781 1031 
L 1600 1309 
L 728 0 
L 47 0 
z
" transform="scale(0.015625)"/>
      <path id="ArialMT-46" d="M 525 0 
L 525 4581 
L 3616 4581 
L 3616 4041 
L 1131 4041 
L 1131 2622 
L 3281 2622 
L 3281 2081 
L 1131 2081 
L 1131 0 
L 525 0 
z
" transform="scale(0.015625)"/>
      <path id="ArialMT-75" d="M 2597 0 
L 2597 488 
Q 2209 -75 1544 -75 
Q 1250 -75 995 37 
Q 741 150 617 320 
Q 494 491 444 738 
Q 409 903 409 1263 
L 409 3319 
L 972 3319 
L 972 1478 
Q 972 1038 1006 884 
Q 1059 663 1231 536 
Q 1403 409 1656 409 
Q 1909 409 2131 539 
Q 2353 669 2445 892 
Q 2538 1116 2538 1541 
L 2538 3319 
L 3100 3319 
L 3100 0 
L 2597 0 
z
" transform="scale(0.015625)"/>
     </defs>
     <use xlink:href="#ArialMT-50"/>
     <use xlink:href="#ArialMT-6f" x="66.699219"/>
     <use xlink:href="#ArialMT-6c" x="122.314453"/>
     <use xlink:href="#ArialMT-79" x="144.53125"/>
     <use xlink:href="#ArialMT-6d" x="194.53125"/>
     <use xlink:href="#ArialMT-65" x="277.832031"/>
     <use xlink:href="#ArialMT-72" x="333.447266"/>
     <use xlink:href="#ArialMT-20" x="366.748047"/>
     <use xlink:href="#ArialMT-43" x="394.53125"/>
     <use xlink:href="#ArialMT-68" x="466.748047"/>
     <use xlink:href="#ArialMT-61" x="522.363281"/>
     <use xlink:href="#ArialMT-69" x="577.978516"/>
     <use xlink:href="#ArialMT-6e" x="600.195312"/>
     <use xlink:href="#ArialMT-20" x="655.810547"/>
     <use xlink:href="#ArialMT-49" x="683.59375"/>
     <use xlink:href="#ArialMT-6e" x="711.376953"/>
     <use xlink:href="#ArialMT-64" x="766.992188"/>
     <use xlink:href="#ArialMT-65" x="822.607422"/>
     <use xlink:href="#ArialMT-78" x="878.222656"/>
     <use xlink:href="#ArialMT-20" x="928.222656"/>
     <use xlink:href="#ArialMT-46" x="956.005859"/>
     <use xlink:href="#ArialMT-69" x="1017.089844"/>
     <use xlink:href="#ArialMT-67" x="1039.306641"/>
     <use xlink:href="#ArialMT-75" x="1094.921875"/>
     <use xlink:href="#ArialMT-72" x="1150.537109"/>
     <use xlink:href="#ArialMT-65" x="1183.837891"/>
     <use xlink:href="#ArialMT-73" x="1239.453125"/>
    </g>
   </g>
  </g>
  <g id="axes_2">
   <g id="patch_7">
    <path d="M 56.693438 302.629875 
L 335.693438 302.629875 
L 335.693438 164.029875 
L 56.693438 164.029875 
z
" style="fill: #ffffff"/>
   </g>
   <g id="matplotlib.axis_3">
    <g id="xtick_6">
     <g id="line2d_12">
      <g>
       <use xlink:href="#m1cc6a80d73" x="69.375256" y="302.629875" style="stroke: #000000; stroke-width: 0.8"/>
      </g>
     </g>
     <g id="text_8">
      <!-- 0.0 -->
      <g transform="translate(59.645256 319.650812) scale(0.14 -0.14)">
       <defs>
        <path id="ArialMT-2e" d="M 581 0 
L 581 641 
L 1222 641 
L 1222 0 
L 581 0 
z
" transform="scale(0.015625)"/>
       </defs>
       <use xlink:href="#ArialMT-30"/>
       <use xlink:href="#ArialMT-2e" x="55.615234"/>
       <use xlink:href="#ArialMT-30" x="83.398438"/>
      </g>
     </g>
    </g>
    <g id="xtick_7">
     <g id="line2d_13">
      <g>
       <use xlink:href="#m1cc6a80d73" x="123.340439" y="302.629875" style="stroke: #000000; stroke-width: 0.8"/>
      </g>
     </g>
     <g id="text_9">
      <!-- 0.2 -->
      <g transform="translate(113.610439 319.650812) scale(0.14 -0.14)">
       <use xlink:href="#ArialMT-30"/>
       <use xlink:href="#ArialMT-2e" x="55.615234"/>
       <use xlink:href="#ArialMT-32" x="83.398438"/>
      </g>
     </g>
    </g>
    <g id="xtick_8">
     <g id="line2d_14">
      <g>
       <use xlink:href="#m1cc6a80d73" x="177.305623" y="302.629875" style="stroke: #000000; stroke-width: 0.8"/>
      </g>
     </g>
     <g id="text_10">
      <!-- 0.4 -->
      <g transform="translate(167.575623 319.650812) scale(0.14 -0.14)">
       <use xlink:href="#ArialMT-30"/>
       <use xlink:href="#ArialMT-2e" x="55.615234"/>
       <use xlink:href="#ArialMT-34" x="83.398438"/>
      </g>
     </g>
    </g>
    <g id="xtick_9">
     <g id="line2d_15">
      <g>
       <use xlink:href="#m1cc6a80d73" x="231.270807" y="302.629875" style="stroke: #000000; stroke-width: 0.8"/>
      </g>
     </g>
     <g id="text_11">
      <!-- 0.6 -->
      <g transform="translate(221.540807 319.650812) scale(0.14 -0.14)">
       <defs>
        <path id="ArialMT-36" d="M 3184 3459 
L 2625 3416 
Q 2550 3747 2413 3897 
Q 2184 4138 1850 4138 
Q 1581 4138 1378 3988 
Q 1113 3794 959 3422 
Q 806 3050 800 2363 
Q 1003 2672 1297 2822 
Q 1591 2972 1913 2972 
Q 2475 2972 2870 2558 
Q 3266 2144 3266 1488 
Q 3266 1056 3080 686 
Q 2894 316 2569 119 
Q 2244 -78 1831 -78 
Q 1128 -78 684 439 
Q 241 956 241 2144 
Q 241 3472 731 4075 
Q 1159 4600 1884 4600 
Q 2425 4600 2770 4297 
Q 3116 3994 3184 3459 
z
M 888 1484 
Q 888 1194 1011 928 
Q 1134 663 1356 523 
Q 1578 384 1822 384 
Q 2178 384 2434 671 
Q 2691 959 2691 1453 
Q 2691 1928 2437 2201 
Q 2184 2475 1800 2475 
Q 1419 2475 1153 2201 
Q 888 1928 888 1484 
z
" transform="scale(0.015625)"/>
       </defs>
       <use xlink:href="#ArialMT-30"/>
       <use xlink:href="#ArialMT-2e" x="55.615234"/>
       <use xlink:href="#ArialMT-36" x="83.398438"/>
      </g>
     </g>
    </g>
    <g id="xtick_10">
     <g id="line2d_16">
      <g>
       <use xlink:href="#m1cc6a80d73" x="285.235991" y="302.629875" style="stroke: #000000; stroke-width: 0.8"/>
      </g>
     </g>
     <g id="text_12">
      <!-- 0.8 -->
      <g transform="translate(275.505991 319.650812) scale(0.14 -0.14)">
       <defs>
        <path id="ArialMT-38" d="M 1131 2484 
Q 781 2613 612 2850 
Q 444 3088 444 3419 
Q 444 3919 803 4259 
Q 1163 4600 1759 4600 
Q 2359 4600 2725 4251 
Q 3091 3903 3091 3403 
Q 3091 3084 2923 2848 
Q 2756 2613 2416 2484 
Q 2838 2347 3058 2040 
Q 3278 1734 3278 1309 
Q 3278 722 2862 322 
Q 2447 -78 1769 -78 
Q 1091 -78 675 323 
Q 259 725 259 1325 
Q 259 1772 486 2073 
Q 713 2375 1131 2484 
z
M 1019 3438 
Q 1019 3113 1228 2906 
Q 1438 2700 1772 2700 
Q 2097 2700 2305 2904 
Q 2513 3109 2513 3406 
Q 2513 3716 2298 3927 
Q 2084 4138 1766 4138 
Q 1444 4138 1231 3931 
Q 1019 3725 1019 3438 
z
M 838 1322 
Q 838 1081 952 856 
Q 1066 631 1291 507 
Q 1516 384 1775 384 
Q 2178 384 2440 643 
Q 2703 903 2703 1303 
Q 2703 1709 2433 1975 
Q 2163 2241 1756 2241 
Q 1359 2241 1098 1978 
Q 838 1716 838 1322 
z
" transform="scale(0.015625)"/>
       </defs>
       <use xlink:href="#ArialMT-30"/>
       <use xlink:href="#ArialMT-2e" x="55.615234"/>
       <use xlink:href="#ArialMT-38" x="83.398438"/>
      </g>
     </g>
    </g>
    <g id="text_13">
     <!-- Force(nN) -->
     <g transform="translate(164.692344 336.624875) scale(0.14 -0.14)">
      <defs>
       <path id="ArialMT-63" d="M 2588 1216 
L 3141 1144 
Q 3050 572 2676 248 
Q 2303 -75 1759 -75 
Q 1078 -75 664 370 
Q 250 816 250 1647 
Q 250 2184 428 2587 
Q 606 2991 970 3192 
Q 1334 3394 1763 3394 
Q 2303 3394 2647 3120 
Q 2991 2847 3088 2344 
L 2541 2259 
Q 2463 2594 2264 2762 
Q 2066 2931 1784 2931 
Q 1359 2931 1093 2626 
Q 828 2322 828 1663 
Q 828 994 1084 691 
Q 1341 388 1753 388 
Q 2084 388 2306 591 
Q 2528 794 2588 1216 
z
" transform="scale(0.015625)"/>
       <path id="ArialMT-28" d="M 1497 -1347 
Q 1031 -759 709 28 
Q 388 816 388 1659 
Q 388 2403 628 3084 
Q 909 3875 1497 4659 
L 1900 4659 
Q 1522 4009 1400 3731 
Q 1209 3300 1100 2831 
Q 966 2247 966 1656 
Q 966 153 1900 -1347 
L 1497 -1347 
z
" transform="scale(0.015625)"/>
       <path id="ArialMT-4e" d="M 488 0 
L 488 4581 
L 1109 4581 
L 3516 984 
L 3516 4581 
L 4097 4581 
L 4097 0 
L 3475 0 
L 1069 3600 
L 1069 0 
L 488 0 
z
" transform="scale(0.015625)"/>
       <path id="ArialMT-29" d="M 791 -1347 
L 388 -1347 
Q 1322 153 1322 1656 
Q 1322 2244 1188 2822 
Q 1081 3291 891 3722 
Q 769 4003 388 4659 
L 791 4659 
Q 1378 3875 1659 3084 
Q 1900 2403 1900 1659 
Q 1900 816 1576 28 
Q 1253 -759 791 -1347 
z
" transform="scale(0.015625)"/>
      </defs>
      <use xlink:href="#ArialMT-46"/>
      <use xlink:href="#ArialMT-6f" x="61.083984"/>
      <use xlink:href="#ArialMT-72" x="116.699219"/>
      <use xlink:href="#ArialMT-63" x="150"/>
      <use xlink:href="#ArialMT-65" x="200"/>
      <use xlink:href="#ArialMT-28" x="255.615234"/>
      <use xlink:href="#ArialMT-6e" x="288.916016"/>
      <use xlink:href="#ArialMT-4e" x="344.53125"/>
      <use xlink:href="#ArialMT-29" x="416.748047"/>
     </g>
    </g>
   </g>
   <g id="matplotlib.axis_4">
    <g id="ytick_6">
     <g id="line2d_17">
      <g>
       <use xlink:href="#m2ad836566e" x="56.693438" y="296.329875" style="stroke: #000000; stroke-width: 0.8"/>
      </g>
     </g>
     <g id="text_14">
      <!-- 0 -->
      <g transform="translate(41.908125 301.340344) scale(0.14 -0.14)">
       <use xlink:href="#ArialMT-30"/>
      </g>
     </g>
    </g>
    <g id="ytick_7">
     <g id="line2d_18">
      <g>
       <use xlink:href="#m2ad836566e" x="56.693438" y="239.94728" style="stroke: #000000; stroke-width: 0.8"/>
      </g>
     </g>
     <g id="text_15">
      <!-- 50 -->
      <g transform="translate(34.122813 244.957749) scale(0.14 -0.14)">
       <defs>
        <path id="ArialMT-35" d="M 266 1200 
L 856 1250 
Q 922 819 1161 601 
Q 1400 384 1738 384 
Q 2144 384 2425 690 
Q 2706 997 2706 1503 
Q 2706 1984 2436 2262 
Q 2166 2541 1728 2541 
Q 1456 2541 1237 2417 
Q 1019 2294 894 2097 
L 366 2166 
L 809 4519 
L 3088 4519 
L 3088 3981 
L 1259 3981 
L 1013 2750 
Q 1425 3038 1878 3038 
Q 2478 3038 2890 2622 
Q 3303 2206 3303 1553 
Q 3303 931 2941 478 
Q 2500 -78 1738 -78 
Q 1113 -78 717 272 
Q 322 622 266 1200 
z
" transform="scale(0.015625)"/>
       </defs>
       <use xlink:href="#ArialMT-35"/>
       <use xlink:href="#ArialMT-30" x="55.615234"/>
      </g>
     </g>
    </g>
    <g id="ytick_8">
     <g id="line2d_19">
      <g>
       <use xlink:href="#m2ad836566e" x="56.693438" y="183.564686" style="stroke: #000000; stroke-width: 0.8"/>
      </g>
     </g>
     <g id="text_16">
      <!-- 100 -->
      <g transform="translate(26.3375 188.575154) scale(0.14 -0.14)">
       <use xlink:href="#ArialMT-31"/>
       <use xlink:href="#ArialMT-30" x="55.615234"/>
       <use xlink:href="#ArialMT-30" x="111.230469"/>
      </g>
     </g>
    </g>
    <g id="text_17">
     <!-- Distance(Å) -->
     <g transform="translate(19.390938 269.893937) rotate(-90) scale(0.14 -0.14)">
      <defs>
       <path id="ArialMT-44" d="M 494 0 
L 494 4581 
L 2072 4581 
Q 2606 4581 2888 4516 
Q 3281 4425 3559 4188 
Q 3922 3881 4101 3404 
Q 4281 2928 4281 2316 
Q 4281 1794 4159 1391 
Q 4038 988 3847 723 
Q 3656 459 3429 307 
Q 3203 156 2883 78 
Q 2563 0 2147 0 
L 494 0 
z
M 1100 541 
L 2078 541 
Q 2531 541 2789 625 
Q 3047 709 3200 863 
Q 3416 1078 3536 1442 
Q 3656 1806 3656 2325 
Q 3656 3044 3420 3430 
Q 3184 3816 2847 3947 
Q 2603 4041 2063 4041 
L 1100 4041 
L 1100 541 
z
" transform="scale(0.015625)"/>
       <path id="ArialMT-74" d="M 1650 503 
L 1731 6 
Q 1494 -44 1306 -44 
Q 1000 -44 831 53 
Q 663 150 594 308 
Q 525 466 525 972 
L 525 2881 
L 113 2881 
L 113 3319 
L 525 3319 
L 525 4141 
L 1084 4478 
L 1084 3319 
L 1650 3319 
L 1650 2881 
L 1084 2881 
L 1084 941 
Q 1084 700 1114 631 
Q 1144 563 1211 522 
Q 1278 481 1403 481 
Q 1497 481 1650 503 
z
" transform="scale(0.015625)"/>
       <path id="ArialMT-c5" d="M -9 0 
L 1750 4581 
L 2403 4581 
L 4278 0 
L 3588 0 
L 3053 1388 
L 1138 1388 
L 634 0 
L -9 0 
z
M 1313 1881 
L 2866 1881 
L 2388 3150 
Q 2169 3728 2063 4100 
Q 1975 3659 1816 3225 
L 1313 1881 
z
M 1506 5013 
Q 1506 5241 1673 5407 
Q 1841 5573 2069 5573 
Q 2300 5573 2465 5405 
Q 2631 5238 2631 5001 
Q 2631 4760 2465 4594 
Q 2300 4429 2072 4429 
Q 1838 4429 1672 4596 
Q 1506 4763 1506 5013 
z
M 1744 5010 
Q 1744 4863 1842 4763 
Q 1941 4663 2075 4663 
Q 2209 4663 2307 4763 
Q 2406 4863 2406 5004 
Q 2406 5145 2309 5245 
Q 2213 5345 2075 5345 
Q 1941 5345 1842 5246 
Q 1744 5148 1744 5010 
z
" transform="scale(0.015625)"/>
      </defs>
      <use xlink:href="#ArialMT-44"/>
      <use xlink:href="#ArialMT-69" x="72.216797"/>
      <use xlink:href="#ArialMT-73" x="94.433594"/>
      <use xlink:href="#ArialMT-74" x="144.433594"/>
      <use xlink:href="#ArialMT-61" x="172.216797"/>
      <use xlink:href="#ArialMT-6e" x="227.832031"/>
      <use xlink:href="#ArialMT-63" x="283.447266"/>
      <use xlink:href="#ArialMT-65" x="333.447266"/>
      <use xlink:href="#ArialMT-28" x="389.0625"/>
      <use xlink:href="#ArialMT-c5" x="422.363281"/>
      <use xlink:href="#ArialMT-29" x="489.0625"/>
     </g>
    </g>
   </g>
   <g id="line2d_20">
    <path d="M 69.375256 296.329875 
L 74.771774 289.164256 
L 80.168292 285.812457 
L 85.564811 284.201584 
L 90.961329 282.879164 
L 96.357848 281.563522 
L 101.754366 281.111773 
L 107.150884 280.708795 
L 112.547403 280.309155 
L 117.943921 280.017105 
L 123.340439 279.258139 
L 128.736958 278.997403 
L 134.133476 277.79271 
L 139.529995 277.574645 
L 144.926513 277.357211 
L 150.323031 277.148009 
L 155.71955 276.573797 
L 161.116068 275.922736 
L 166.512586 275.794387 
L 171.909105 275.522781 
L 177.305623 274.674211 
L 182.702142 274.595546 
L 188.09866 273.594902 
L 193.495178 273.487741 
L 198.891697 273.422506 
L 204.288215 273.340673 
L 209.684733 273.184955 
L 215.081252 273.117014 
L 220.47777 272.842093 
L 225.874289 271.026246 
L 231.270807 270.964834 
L 236.667325 269.874835 
L 242.063844 269.811866 
L 247.460362 269.75492 
L 252.85688 269.688276 
L 258.253399 269.617741 
L 263.649917 269.548064 
L 269.046436 263.300286 
L 274.442954 261.095501 
L 279.839472 255.245885 
L 285.235991 252.2124 
L 290.632509 248.045321 
L 296.029027 238.106682 
L 301.425546 230.467483 
L 306.822064 221.492253 
L 312.218583 214.9409 
L 317.615101 199.555184 
L 323.011619 170.329875 
" clip-path="url(#p788aadb4aa)" style="fill: none; stroke: #ff0000; stroke-width: 1.5; stroke-linecap: square"/>
    <defs>
     <path id="m84e574bb46" d="M 0 -3 
L -0.673542 -0.927051 
L -2.85317 -0.927051 
L -1.089814 0.354102 
L -1.763356 2.427051 
L -0 1.145898 
L 1.763356 2.427051 
L 1.089814 0.354102 
L 2.85317 -0.927051 
L 0.673542 -0.927051 
z
" style="stroke: #ff0000; stroke-linejoin: bevel"/>
    </defs>
    <g clip-path="url(#p788aadb4aa)">
     <use xlink:href="#m84e574bb46" x="69.375256" y="296.329875" style="fill: #ff0000; stroke: #ff0000; stroke-linejoin: bevel"/>
     <use xlink:href="#m84e574bb46" x="74.771774" y="289.164256" style="fill: #ff0000; stroke: #ff0000; stroke-linejoin: bevel"/>
     <use xlink:href="#m84e574bb46" x="80.168292" y="285.812457" style="fill: #ff0000; stroke: #ff0000; stroke-linejoin: bevel"/>
     <use xlink:href="#m84e574bb46" x="85.564811" y="284.201584" style="fill: #ff0000; stroke: #ff0000; stroke-linejoin: bevel"/>
     <use xlink:href="#m84e574bb46" x="90.961329" y="282.879164" style="fill: #ff0000; stroke: #ff0000; stroke-linejoin: bevel"/>
     <use xlink:href="#m84e574bb46" x="96.357848" y="281.563522" style="fill: #ff0000; stroke: #ff0000; stroke-linejoin: bevel"/>
     <use xlink:href="#m84e574bb46" x="101.754366" y="281.111773" style="fill: #ff0000; stroke: #ff0000; stroke-linejoin: bevel"/>
     <use xlink:href="#m84e574bb46" x="107.150884" y="280.708795" style="fill: #ff0000; stroke: #ff0000; stroke-linejoin: bevel"/>
     <use xlink:href="#m84e574bb46" x="112.547403" y="280.309155" style="fill: #ff0000; stroke: #ff0000; stroke-linejoin: bevel"/>
     <use xlink:href="#m84e574bb46" x="117.943921" y="280.017105" style="fill: #ff0000; stroke: #ff0000; stroke-linejoin: bevel"/>
     <use xlink:href="#m84e574bb46" x="123.340439" y="279.258139" style="fill: #ff0000; stroke: #ff0000; stroke-linejoin: bevel"/>
     <use xlink:href="#m84e574bb46" x="128.736958" y="278.997403" style="fill: #ff0000; stroke: #ff0000; stroke-linejoin: bevel"/>
     <use xlink:href="#m84e574bb46" x="134.133476" y="277.79271" style="fill: #ff0000; stroke: #ff0000; stroke-linejoin: bevel"/>
     <use xlink:href="#m84e574bb46" x="139.529995" y="277.574645" style="fill: #ff0000; stroke: #ff0000; stroke-linejoin: bevel"/>
     <use xlink:href="#m84e574bb46" x="144.926513" y="277.357211" style="fill: #ff0000; stroke: #ff0000; stroke-linejoin: bevel"/>
     <use xlink:href="#m84e574bb46" x="150.323031" y="277.148009" style="fill: #ff0000; stroke: #ff0000; stroke-linejoin: bevel"/>
     <use xlink:href="#m84e574bb46" x="155.71955" y="276.573797" style="fill: #ff0000; stroke: #ff0000; stroke-linejoin: bevel"/>
     <use xlink:href="#m84e574bb46" x="161.116068" y="275.922736" style="fill: #ff0000; stroke: #ff0000; stroke-linejoin: bevel"/>
     <use xlink:href="#m84e574bb46" x="166.512586" y="275.794387" style="fill: #ff0000; stroke: #ff0000; stroke-linejoin: bevel"/>
     <use xlink:href="#m84e574bb46" x="171.909105" y="275.522781" style="fill: #ff0000; stroke: #ff0000; stroke-linejoin: bevel"/>
     <use xlink:href="#m84e574bb46" x="177.305623" y="274.674211" style="fill: #ff0000; stroke: #ff0000; stroke-linejoin: bevel"/>
     <use xlink:href="#m84e574bb46" x="182.702142" y="274.595546" style="fill: #ff0000; stroke: #ff0000; stroke-linejoin: bevel"/>
     <use xlink:href="#m84e574bb46" x="188.09866" y="273.594902" style="fill: #ff0000; stroke: #ff0000; stroke-linejoin: bevel"/>
     <use xlink:href="#m84e574bb46" x="193.495178" y="273.487741" style="fill: #ff0000; stroke: #ff0000; stroke-linejoin: bevel"/>
     <use xlink:href="#m84e574bb46" x="198.891697" y="273.422506" style="fill: #ff0000; stroke: #ff0000; stroke-linejoin: bevel"/>
     <use xlink:href="#m84e574bb46" x="204.288215" y="273.340673" style="fill: #ff0000; stroke: #ff0000; stroke-linejoin: bevel"/>
     <use xlink:href="#m84e574bb46" x="209.684733" y="273.184955" style="fill: #ff0000; stroke: #ff0000; stroke-linejoin: bevel"/>
     <use xlink:href="#m84e574bb46" x="215.081252" y="273.117014" style="fill: #ff0000; stroke: #ff0000; stroke-linejoin: bevel"/>
     <use xlink:href="#m84e574bb46" x="220.47777" y="272.842093" style="fill: #ff0000; stroke: #ff0000; stroke-linejoin: bevel"/>
     <use xlink:href="#m84e574bb46" x="225.874289" y="271.026246" style="fill: #ff0000; stroke: #ff0000; stroke-linejoin: bevel"/>
     <use xlink:href="#m84e574bb46" x="231.270807" y="270.964834" style="fill: #ff0000; stroke: #ff0000; stroke-linejoin: bevel"/>
     <use xlink:href="#m84e574bb46" x="236.667325" y="269.874835" style="fill: #ff0000; stroke: #ff0000; stroke-linejoin: bevel"/>
     <use xlink:href="#m84e574bb46" x="242.063844" y="269.811866" style="fill: #ff0000; stroke: #ff0000; stroke-linejoin: bevel"/>
     <use xlink:href="#m84e574bb46" x="247.460362" y="269.75492" style="fill: #ff0000; stroke: #ff0000; stroke-linejoin: bevel"/>
     <use xlink:href="#m84e574bb46" x="252.85688" y="269.688276" style="fill: #ff0000; stroke: #ff0000; stroke-linejoin: bevel"/>
     <use xlink:href="#m84e574bb46" x="258.253399" y="269.617741" style="fill: #ff0000; stroke: #ff0000; stroke-linejoin: bevel"/>
     <use xlink:href="#m84e574bb46" x="263.649917" y="269.548064" style="fill: #ff0000; stroke: #ff0000; stroke-linejoin: bevel"/>
     <use xlink:href="#m84e574bb46" x="269.046436" y="263.300286" style="fill: #ff0000; stroke: #ff0000; stroke-linejoin: bevel"/>
     <use xlink:href="#m84e574bb46" x="274.442954" y="261.095501" style="fill: #ff0000; stroke: #ff0000; stroke-linejoin: bevel"/>
     <use xlink:href="#m84e574bb46" x="279.839472" y="255.245885" style="fill: #ff0000; stroke: #ff0000; stroke-linejoin: bevel"/>
     <use xlink:href="#m84e574bb46" x="285.235991" y="252.2124" style="fill: #ff0000; stroke: #ff0000; stroke-linejoin: bevel"/>
     <use xlink:href="#m84e574bb46" x="290.632509" y="248.045321" style="fill: #ff0000; stroke: #ff0000; stroke-linejoin: bevel"/>
     <use xlink:href="#m84e574bb46" x="296.029027" y="238.106682" style="fill: #ff0000; stroke: #ff0000; stroke-linejoin: bevel"/>
     <use xlink:href="#m84e574bb46" x="301.425546" y="230.467483" style="fill: #ff0000; stroke: #ff0000; stroke-linejoin: bevel"/>
     <use xlink:href="#m84e574bb46" x="306.822064" y="221.492253" style="fill: #ff0000; stroke: #ff0000; stroke-linejoin: bevel"/>
     <use xlink:href="#m84e574bb46" x="312.218583" y="214.9409" style="fill: #ff0000; stroke: #ff0000; stroke-linejoin: bevel"/>
     <use xlink:href="#m84e574bb46" x="317.615101" y="199.555184" style="fill: #ff0000; stroke: #ff0000; stroke-linejoin: bevel"/>
     <use xlink:href="#m84e574bb46" x="323.011619" y="170.329875" style="fill: #ff0000; stroke: #ff0000; stroke-linejoin: bevel"/>
    </g>
   </g>
   <g id="patch_8">
    <path d="M 56.693438 302.629875 
L 56.693438 164.029875 
" style="fill: none; stroke: #000000; stroke-width: 0.8; stroke-linejoin: miter; stroke-linecap: square"/>
   </g>
   <g id="patch_9">
    <path d="M 335.693438 302.629875 
L 335.693438 164.029875 
" style="fill: none; stroke: #000000; stroke-width: 0.8; stroke-linejoin: miter; stroke-linecap: square"/>
   </g>
   <g id="patch_10">
    <path d="M 56.693438 302.629875 
L 335.693438 302.629875 
" style="fill: none; stroke: #000000; stroke-width: 0.8; stroke-linejoin: miter; stroke-linecap: square"/>
   </g>
   <g id="patch_11">
    <path d="M 56.693438 164.029875 
L 335.693438 164.029875 
" style="fill: none; stroke: #000000; stroke-width: 0.8; stroke-linejoin: miter; stroke-linecap: square"/>
   </g>
  </g>
 </g>
 <defs>
  <clipPath id="peac36bca08">
   <rect x="56.693438" y="25.429875" width="279" height="138.6"/>
  </clipPath>
  <clipPath id="p788aadb4aa">
   <rect x="56.693438" y="164.029875" width="279" height="138.6"/>
  </clipPath>
 </defs>
</svg>
