<?xml version="1.0" encoding="utf-8" standalone="no"?>
<!DOCTYPE svg PUBLIC "-//W3C//DTD SVG 1.1//EN"
  "http://www.w3.org/Graphics/SVG/1.1/DTD/svg11.dtd">
<svg xmlns:xlink="http://www.w3.org/1999/xlink" width="533.735469pt" height="412.854312pt" viewBox="0 0 533.735469 412.854312" xmlns="http://www.w3.org/2000/svg" version="1.1">
 <metadata>
  <rdf:RDF xmlns:dc="http://purl.org/dc/elements/1.1/" xmlns:cc="http://creativecommons.org/ns#" xmlns:rdf="http://www.w3.org/1999/02/22-rdf-syntax-ns#">
   <cc:Work>
    <dc:type rdf:resource="http://purl.org/dc/dcmitype/StillImage"/>
    <dc:date>2025-01-22T19:42:29.963283</dc:date>
    <dc:format>image/svg+xml</dc:format>
    <dc:creator>
     <cc:Agent>
      <dc:title>Matplotlib v3.9.0, https://matplotlib.org/</dc:title>
     </cc:Agent>
    </dc:creator>
   </cc:Work>
  </rdf:RDF>
 </metadata>
 <defs>
  <style type="text/css">*{stroke-linejoin: round; stroke-linecap: butt}</style>
 </defs>
 <g id="figure_1">
  <g id="patch_1">
   <path d="M 0 412.854312 
L 533.735469 412.854312 
L 533.735469 0 
L 0 0 
z
" style="fill: #ffffff"/>
  </g>
  <g id="axes_1">
   <g id="patch_2">
    <path d="M 65.120937 361.300875 
L 511.520937 361.300875 
L 511.520937 28.660875 
L 65.120937 28.660875 
z
" style="fill: #ffffff"/>
   </g>
   <g id="PolyCollection_1">
    <path d="M 66.603994 308.065767 
L 66.603994 394.445939 
L 116.107201 346.422118 
L 165.610562 308.517731 
L 215.113775 279.407862 
L 264.616976 257.846389 
L 314.120343 242.666412 
L 363.623556 232.780326 
L 413.126923 227.179506 
L 462.630135 224.934577 
L 512.133326 225.195253 
L 561.636693 227.190431 
L 611.139927 230.228132 
L 660.643118 233.695538 
L 710.146485 237.058991 
L 759.649675 239.863945 
L 809.153042 241.735042 
L 858.656277 242.376039 
L 908.159511 241.569862 
L 957.662834 239.178572 
L 1007.166069 235.143393 
L 1056.669392 229.484672 
L 1106.172626 222.30194 
L 1155.675861 213.773845 
L 1205.179184 204.158175 
L 1254.682595 193.791879 
L 1304.185564 183.091174 
L 1353.688976 172.55112 
L 1403.192299 162.746228 
L 1452.695356 154.330067 
L 1502.198768 148.035229 
L 1551.702091 144.67363 
L 1601.205502 145.136254 
L 1650.70856 150.393195 
L 1700.211971 161.493816 
L 1749.715206 179.566461 
L 1799.218263 205.818626 
L 1848.721675 241.537364 
L 1898.225086 288.088406 
L 1947.728144 346.916319 
L 1997.231378 419.545832 
L 2046.73479 507.580418 
L 2046.73479 2156.989647 
L 2046.73479 2156.989647 
L 1997.231378 1805.321718 
L 1947.728144 1498.468125 
L 1898.225086 1232.614497 
L 1848.721675 1004.107807 
L 1799.218263 809.463207 
L 1749.715206 645.35841 
L 1700.211971 508.63171 
L 1650.70856 396.287122 
L 1601.205502 305.493002 
L 1551.702091 233.57884 
L 1502.198768 178.039751 
L 1452.695356 136.533376 
L 1403.192299 106.881375 
L 1353.688976 87.068267 
L 1304.185564 75.242671 
L 1254.682595 69.716626 
L 1205.179184 68.965544 
L 1155.675861 71.628528 
L 1106.172626 76.508134 
L 1056.669392 82.570474 
L 1007.166069 88.9452 
L 957.662834 94.925459 
L 908.159511 99.967972 
L 858.656277 103.692955 
L 809.153042 105.884181 
L 759.649675 106.488943 
L 710.146485 105.618066 
L 660.643118 103.5459 
L 611.139927 100.710349 
L 561.636693 97.71282 
L 512.133326 95.318259 
L 462.630135 94.45516 
L 413.126923 96.215523 
L 363.623556 101.854912 
L 314.120343 112.792365 
L 264.616976 130.610563 
L 215.113775 157.055522 
L 165.610562 194.03696 
L 116.107201 243.628234 
L 66.603994 308.065767 
z
" clip-path="url(#p75026286f8)" style="fill: #1f77b4; fill-opacity: 0.2"/>
   </g>
   <g id="PolyCollection_2">
    <path d="M 66.603994 261.736615 
L 66.603994 371.080702 
L 116.107201 336.310733 
L 165.610562 308.46083 
L 215.113775 286.617698 
L 264.616976 269.923407 
L 314.120343 257.575704 
L 363.623556 248.828082 
L 413.126923 242.989524 
L 462.630135 239.424732 
L 512.133326 237.553979 
L 561.636693 236.853184 
L 611.139927 236.853899 
L 660.643118 237.143296 
L 710.146485 237.364176 
L 759.649675 237.214966 
L 809.153042 236.449718 
L 858.656277 234.878119 
L 908.159511 232.365476 
L 957.662834 228.832716 
L 1007.166069 224.256416 
L 1056.669392 218.668747 
L 1106.172626 212.157548 
L 1155.675861 204.86625 
L 1205.179184 196.993911 
L 1254.682595 188.795226 
L 1304.185564 180.580607 
L 1353.688976 172.71586 
L 1403.192299 165.622653 
L 1452.695356 159.778204 
L 1502.198768 155.715277 
L 1551.702091 154.022384 
L 1601.205502 155.343609 
L 1650.70856 160.378627 
L 1700.211971 169.882851 
L 1749.715206 184.66717 
L 1799.218263 205.598117 
L 1848.721675 233.598169 
L 1898.225086 269.645058 
L 1947.728144 314.77191 
L 1997.231378 370.068258 
L 2046.73479 436.678943 
L 2046.73479 404.898653 
L 2046.73479 404.898653 
L 1997.231378 314.87109 
L 1947.728144 239.705397 
L 1898.225086 177.922797 
L 1848.721675 128.114917 
L 1799.218263 88.945301 
L 1749.715206 59.148035 
L 1700.211971 37.527517 
L 1650.70856 22.959441 
L 1601.205502 14.390391 
L 1551.702091 10.837546 
L 1502.198768 11.38913 
L 1452.695356 15.204139 
L 1403.192299 21.512367 
L 1353.688976 29.614583 
L 1304.185564 38.882318 
L 1254.682595 48.757858 
L 1205.179184 58.754618 
L 1155.675861 68.45658 
L 1106.172626 77.518678 
L 1056.669392 85.666716 
L 1007.166069 92.697335 
L 957.662834 98.477989 
L 908.159511 102.947024 
L 858.656277 106.113598 
L 809.153042 108.057741 
L 759.649675 108.930324 
L 710.146485 108.95306 
L 660.643118 108.418512 
L 611.139927 107.690098 
L 561.636693 107.202074 
L 512.133326 107.45955 
L 462.630135 109.038476 
L 413.126923 112.585656 
L 363.623556 118.81876 
L 314.120343 128.526249 
L 264.616976 142.567531 
L 215.113775 161.872708 
L 165.610562 187.442862 
L 116.107201 220.349987 
L 66.603994 261.736615 
z
" clip-path="url(#p75026286f8)" style="fill: #ff7f0e; fill-opacity: 0.2"/>
   </g>
   <g id="PolyCollection_3">
    <path d="M 66.603994 295.10358 
L 66.603994 399.757865 
L 116.107201 364.292794 
L 165.610562 334.694533 
L 215.113775 310.336462 
L 264.616976 290.622856 
L 314.120343 274.989209 
L 363.623556 262.902343 
L 413.126923 253.860071 
L 462.630135 247.391518 
L 512.133326 243.056895 
L 561.636693 240.44761 
L 611.139927 239.186272 
L 660.643118 238.926637 
L 710.146485 239.353646 
L 759.649675 240.183411 
L 809.153042 241.163226 
L 858.656277 242.071546 
L 908.159511 242.718014 
L 957.662834 242.94344 
L 1007.166069 242.61981 
L 1056.669392 241.650284 
L 1106.172626 239.969201 
L 1155.675861 237.54207 
L 1205.179184 234.365568 
L 1254.682595 230.467552 
L 1304.185564 225.907102 
L 1353.688976 220.774346 
L 1403.192299 215.190716 
L 1452.695356 209.308792 
L 1502.198768 203.312232 
L 1551.702091 197.415996 
L 1601.205502 191.866143 
L 1650.70856 186.939975 
L 1700.211971 182.945852 
L 1749.715206 180.223425 
L 1799.218263 179.143456 
L 1848.721675 180.107898 
L 1898.225086 183.549894 
L 1947.728144 189.933693 
L 1997.231378 199.754824 
L 2046.73479 213.539975 
L 2046.73479 59.136213 
L 2046.73479 59.136213 
L 1997.231378 46.455486 
L 1947.728144 38.313635 
L 1898.225086 34.05968 
L 1848.721675 33.082424 
L 1799.218263 34.8105 
L 1749.715206 38.712229 
L 1700.211971 44.29577 
L 1650.70856 51.10903 
L 1601.205502 58.739587 
L 1551.702091 66.81497 
L 1502.198768 75.002298 
L 1452.695356 83.00855 
L 1403.192299 90.580374 
L 1353.688976 97.504349 
L 1304.185564 103.606692 
L 1254.682595 108.75336 
L 1205.179184 112.850225 
L 1155.675861 115.842775 
L 1106.172626 117.716326 
L 1056.669392 118.49596 
L 1007.166069 118.246515 
L 957.662834 117.072599 
L 908.159511 115.118578 
L 858.656277 112.568596 
L 809.153042 109.646552 
L 759.649675 106.616104 
L 710.146485 103.780703 
L 660.643118 101.483529 
L 611.139927 100.10756 
L 561.636693 100.075515 
L 512.133326 101.849896 
L 462.630135 105.932948 
L 413.126923 112.866699 
L 363.623556 123.232976 
L 314.120343 137.653268 
L 264.616976 156.788989 
L 215.113775 181.341098 
L 165.610562 212.050508 
L 116.107201 249.697952 
L 66.603994 295.10358 
z
" clip-path="url(#p75026286f8)" style="fill: #2ca02c; fill-opacity: 0.2"/>
   </g>
   <g id="matplotlib.axis_1">
    <g id="xtick_1">
     <g id="line2d_1">
      <defs>
       <path id="m9e4b7d86b8" d="M 0 0 
L 0 3.5 
" style="stroke: #000000; stroke-width: 0.8"/>
      </defs>
      <g>
       <use xlink:href="#m9e4b7d86b8" x="66.603994" y="361.300875" style="stroke: #000000; stroke-width: 0.8"/>
      </g>
     </g>
     <g id="text_1">
      <!-- 100 -->
      <g transform="translate(51.589463 381.184937) scale(0.18 -0.18)">
       <defs>
        <path id="ArialMT-31" d="M 2384 0 
L 1822 0 
L 1822 3584 
Q 1619 3391 1289 3197 
Q 959 3003 697 2906 
L 697 3450 
Q 1169 3672 1522 3987 
Q 1875 4303 2022 4600 
L 2384 4600 
L 2384 0 
z
" transform="scale(0.015625)"/>
        <path id="ArialMT-30" d="M 266 2259 
Q 266 3072 433 3567 
Q 600 4063 929 4331 
Q 1259 4600 1759 4600 
Q 2128 4600 2406 4451 
Q 2684 4303 2865 4023 
Q 3047 3744 3150 3342 
Q 3253 2941 3253 2259 
Q 3253 1453 3087 958 
Q 2922 463 2592 192 
Q 2263 -78 1759 -78 
Q 1097 -78 719 397 
Q 266 969 266 2259 
z
M 844 2259 
Q 844 1131 1108 757 
Q 1372 384 1759 384 
Q 2147 384 2411 759 
Q 2675 1134 2675 2259 
Q 2675 3391 2411 3762 
Q 2147 4134 1753 4134 
Q 1366 4134 1134 3806 
Q 844 3388 844 2259 
z
" transform="scale(0.015625)"/>
       </defs>
       <use xlink:href="#ArialMT-31"/>
       <use xlink:href="#ArialMT-30" x="55.615234"/>
       <use xlink:href="#ArialMT-30" x="111.230469"/>
      </g>
     </g>
    </g>
    <g id="xtick_2">
     <g id="line2d_2">
      <g>
       <use xlink:href="#m9e4b7d86b8" x="140.756818" y="361.300875" style="stroke: #000000; stroke-width: 0.8"/>
      </g>
     </g>
     <g id="text_2">
      <!-- 105 -->
      <g transform="translate(125.742287 381.184937) scale(0.18 -0.18)">
       <defs>
        <path id="ArialMT-35" d="M 266 1200 
L 856 1250 
Q 922 819 1161 601 
Q 1400 384 1738 384 
Q 2144 384 2425 690 
Q 2706 997 2706 1503 
Q 2706 1984 2436 2262 
Q 2166 2541 1728 2541 
Q 1456 2541 1237 2417 
Q 1019 2294 894 2097 
L 366 2166 
L 809 4519 
L 3088 4519 
L 3088 3981 
L 1259 3981 
L 1013 2750 
Q 1425 3038 1878 3038 
Q 2478 3038 2890 2622 
Q 3303 2206 3303 1553 
Q 3303 931 2941 478 
Q 2500 -78 1738 -78 
Q 1113 -78 717 272 
Q 322 622 266 1200 
z
" transform="scale(0.015625)"/>
       </defs>
       <use xlink:href="#ArialMT-31"/>
       <use xlink:href="#ArialMT-30" x="55.615234"/>
       <use xlink:href="#ArialMT-35" x="111.230469"/>
      </g>
     </g>
    </g>
    <g id="xtick_3">
     <g id="line2d_3">
      <g>
       <use xlink:href="#m9e4b7d86b8" x="214.909642" y="361.300875" style="stroke: #000000; stroke-width: 0.8"/>
      </g>
     </g>
     <g id="text_3">
      <!-- 110 -->
      <g transform="translate(200.558861 381.184937) scale(0.18 -0.18)">
       <use xlink:href="#ArialMT-31"/>
       <use xlink:href="#ArialMT-31" x="48.240234"/>
       <use xlink:href="#ArialMT-30" x="103.855469"/>
      </g>
     </g>
    </g>
    <g id="xtick_4">
     <g id="line2d_4">
      <g>
       <use xlink:href="#m9e4b7d86b8" x="289.062466" y="361.300875" style="stroke: #000000; stroke-width: 0.8"/>
      </g>
     </g>
     <g id="text_4">
      <!-- 115 -->
      <g transform="translate(274.711684 381.184937) scale(0.18 -0.18)">
       <use xlink:href="#ArialMT-31"/>
       <use xlink:href="#ArialMT-31" x="48.240234"/>
       <use xlink:href="#ArialMT-35" x="103.855469"/>
      </g>
     </g>
    </g>
    <g id="xtick_5">
     <g id="line2d_5">
      <g>
       <use xlink:href="#m9e4b7d86b8" x="363.21529" y="361.300875" style="stroke: #000000; stroke-width: 0.8"/>
      </g>
     </g>
     <g id="text_5">
      <!-- 120 -->
      <g transform="translate(348.200758 381.184937) scale(0.18 -0.18)">
       <defs>
        <path id="ArialMT-32" d="M 3222 541 
L 3222 0 
L 194 0 
Q 188 203 259 391 
Q 375 700 629 1000 
Q 884 1300 1366 1694 
Q 2113 2306 2375 2664 
Q 2638 3022 2638 3341 
Q 2638 3675 2398 3904 
Q 2159 4134 1775 4134 
Q 1369 4134 1125 3890 
Q 881 3647 878 3216 
L 300 3275 
Q 359 3922 746 4261 
Q 1134 4600 1788 4600 
Q 2447 4600 2831 4234 
Q 3216 3869 3216 3328 
Q 3216 3053 3103 2787 
Q 2991 2522 2730 2228 
Q 2469 1934 1863 1422 
Q 1356 997 1212 845 
Q 1069 694 975 541 
L 3222 541 
z
" transform="scale(0.015625)"/>
       </defs>
       <use xlink:href="#ArialMT-31"/>
       <use xlink:href="#ArialMT-32" x="55.615234"/>
       <use xlink:href="#ArialMT-30" x="111.230469"/>
      </g>
     </g>
    </g>
    <g id="xtick_6">
     <g id="line2d_6">
      <g>
       <use xlink:href="#m9e4b7d86b8" x="437.368114" y="361.300875" style="stroke: #000000; stroke-width: 0.8"/>
      </g>
     </g>
     <g id="text_6">
      <!-- 125 -->
      <g transform="translate(422.353582 381.184937) scale(0.18 -0.18)">
       <use xlink:href="#ArialMT-31"/>
       <use xlink:href="#ArialMT-32" x="55.615234"/>
       <use xlink:href="#ArialMT-35" x="111.230469"/>
      </g>
     </g>
    </g>
    <g id="xtick_7">
     <g id="line2d_7">
      <g>
       <use xlink:href="#m9e4b7d86b8" x="511.520938" y="361.300875" style="stroke: #000000; stroke-width: 0.8"/>
      </g>
     </g>
     <g id="text_7">
      <!-- 130 -->
      <g transform="translate(496.506406 381.184937) scale(0.18 -0.18)">
       <defs>
        <path id="ArialMT-33" d="M 269 1209 
L 831 1284 
Q 928 806 1161 595 
Q 1394 384 1728 384 
Q 2125 384 2398 659 
Q 2672 934 2672 1341 
Q 2672 1728 2419 1979 
Q 2166 2231 1775 2231 
Q 1616 2231 1378 2169 
L 1441 2663 
Q 1497 2656 1531 2656 
Q 1891 2656 2178 2843 
Q 2466 3031 2466 3422 
Q 2466 3731 2256 3934 
Q 2047 4138 1716 4138 
Q 1388 4138 1169 3931 
Q 950 3725 888 3313 
L 325 3413 
Q 428 3978 793 4289 
Q 1159 4600 1703 4600 
Q 2078 4600 2393 4439 
Q 2709 4278 2876 4000 
Q 3044 3722 3044 3409 
Q 3044 3113 2884 2869 
Q 2725 2625 2413 2481 
Q 2819 2388 3044 2092 
Q 3269 1797 3269 1353 
Q 3269 753 2831 336 
Q 2394 -81 1725 -81 
Q 1122 -81 723 278 
Q 325 638 269 1209 
z
" transform="scale(0.015625)"/>
       </defs>
       <use xlink:href="#ArialMT-31"/>
       <use xlink:href="#ArialMT-33" x="55.615234"/>
       <use xlink:href="#ArialMT-30" x="111.230469"/>
      </g>
     </g>
    </g>
    <g id="text_8">
     <!-- Strain(%) -->
     <g transform="translate(250.814844 401.865875) scale(0.18 -0.18)">
      <defs>
       <path id="ArialMT-53" d="M 288 1472 
L 859 1522 
Q 900 1178 1048 958 
Q 1197 738 1509 602 
Q 1822 466 2213 466 
Q 2559 466 2825 569 
Q 3091 672 3220 851 
Q 3350 1031 3350 1244 
Q 3350 1459 3225 1620 
Q 3100 1781 2813 1891 
Q 2628 1963 1997 2114 
Q 1366 2266 1113 2400 
Q 784 2572 623 2826 
Q 463 3081 463 3397 
Q 463 3744 659 4045 
Q 856 4347 1234 4503 
Q 1613 4659 2075 4659 
Q 2584 4659 2973 4495 
Q 3363 4331 3572 4012 
Q 3781 3694 3797 3291 
L 3216 3247 
Q 3169 3681 2898 3903 
Q 2628 4125 2100 4125 
Q 1550 4125 1298 3923 
Q 1047 3722 1047 3438 
Q 1047 3191 1225 3031 
Q 1400 2872 2139 2705 
Q 2878 2538 3153 2413 
Q 3553 2228 3743 1945 
Q 3934 1663 3934 1294 
Q 3934 928 3725 604 
Q 3516 281 3123 101 
Q 2731 -78 2241 -78 
Q 1619 -78 1198 103 
Q 778 284 539 648 
Q 300 1013 288 1472 
z
" transform="scale(0.015625)"/>
       <path id="ArialMT-74" d="M 1650 503 
L 1731 6 
Q 1494 -44 1306 -44 
Q 1000 -44 831 53 
Q 663 150 594 308 
Q 525 466 525 972 
L 525 2881 
L 113 2881 
L 113 3319 
L 525 3319 
L 525 4141 
L 1084 4478 
L 1084 3319 
L 1650 3319 
L 1650 2881 
L 1084 2881 
L 1084 941 
Q 1084 700 1114 631 
Q 1144 563 1211 522 
Q 1278 481 1403 481 
Q 1497 481 1650 503 
z
" transform="scale(0.015625)"/>
       <path id="ArialMT-72" d="M 416 0 
L 416 3319 
L 922 3319 
L 922 2816 
Q 1116 3169 1280 3281 
Q 1444 3394 1641 3394 
Q 1925 3394 2219 3213 
L 2025 2691 
Q 1819 2813 1613 2813 
Q 1428 2813 1281 2702 
Q 1134 2591 1072 2394 
Q 978 2094 978 1738 
L 978 0 
L 416 0 
z
" transform="scale(0.015625)"/>
       <path id="ArialMT-61" d="M 2588 409 
Q 2275 144 1986 34 
Q 1697 -75 1366 -75 
Q 819 -75 525 192 
Q 231 459 231 875 
Q 231 1119 342 1320 
Q 453 1522 633 1644 
Q 813 1766 1038 1828 
Q 1203 1872 1538 1913 
Q 2219 1994 2541 2106 
Q 2544 2222 2544 2253 
Q 2544 2597 2384 2738 
Q 2169 2928 1744 2928 
Q 1347 2928 1158 2789 
Q 969 2650 878 2297 
L 328 2372 
Q 403 2725 575 2942 
Q 747 3159 1072 3276 
Q 1397 3394 1825 3394 
Q 2250 3394 2515 3294 
Q 2781 3194 2906 3042 
Q 3031 2891 3081 2659 
Q 3109 2516 3109 2141 
L 3109 1391 
Q 3109 606 3145 398 
Q 3181 191 3288 0 
L 2700 0 
Q 2613 175 2588 409 
z
M 2541 1666 
Q 2234 1541 1622 1453 
Q 1275 1403 1131 1340 
Q 988 1278 909 1158 
Q 831 1038 831 891 
Q 831 666 1001 516 
Q 1172 366 1500 366 
Q 1825 366 2078 508 
Q 2331 650 2450 897 
Q 2541 1088 2541 1459 
L 2541 1666 
z
" transform="scale(0.015625)"/>
       <path id="ArialMT-69" d="M 425 3934 
L 425 4581 
L 988 4581 
L 988 3934 
L 425 3934 
z
M 425 0 
L 425 3319 
L 988 3319 
L 988 0 
L 425 0 
z
" transform="scale(0.015625)"/>
       <path id="ArialMT-6e" d="M 422 0 
L 422 3319 
L 928 3319 
L 928 2847 
Q 1294 3394 1984 3394 
Q 2284 3394 2536 3286 
Q 2788 3178 2913 3003 
Q 3038 2828 3088 2588 
Q 3119 2431 3119 2041 
L 3119 0 
L 2556 0 
L 2556 2019 
Q 2556 2363 2490 2533 
Q 2425 2703 2258 2804 
Q 2091 2906 1866 2906 
Q 1506 2906 1245 2678 
Q 984 2450 984 1813 
L 984 0 
L 422 0 
z
" transform="scale(0.015625)"/>
       <path id="ArialMT-28" d="M 1497 -1347 
Q 1031 -759 709 28 
Q 388 816 388 1659 
Q 388 2403 628 3084 
Q 909 3875 1497 4659 
L 1900 4659 
Q 1522 4009 1400 3731 
Q 1209 3300 1100 2831 
Q 966 2247 966 1656 
Q 966 153 1900 -1347 
L 1497 -1347 
z
" transform="scale(0.015625)"/>
       <path id="ArialMT-25" d="M 372 3481 
Q 372 3972 619 4315 
Q 866 4659 1334 4659 
Q 1766 4659 2048 4351 
Q 2331 4044 2331 3447 
Q 2331 2866 2045 2552 
Q 1759 2238 1341 2238 
Q 925 2238 648 2547 
Q 372 2856 372 3481 
z
M 1350 4272 
Q 1141 4272 1002 4090 
Q 863 3909 863 3425 
Q 863 2984 1003 2804 
Q 1144 2625 1350 2625 
Q 1563 2625 1702 2806 
Q 1841 2988 1841 3469 
Q 1841 3913 1700 4092 
Q 1559 4272 1350 4272 
z
M 1353 -169 
L 3859 4659 
L 4316 4659 
L 1819 -169 
L 1353 -169 
z
M 3334 1075 
Q 3334 1569 3581 1911 
Q 3828 2253 4300 2253 
Q 4731 2253 5014 1945 
Q 5297 1638 5297 1041 
Q 5297 459 5011 145 
Q 4725 -169 4303 -169 
Q 3888 -169 3611 142 
Q 3334 453 3334 1075 
z
M 4316 1866 
Q 4103 1866 3964 1684 
Q 3825 1503 3825 1019 
Q 3825 581 3965 400 
Q 4106 219 4313 219 
Q 4528 219 4667 400 
Q 4806 581 4806 1063 
Q 4806 1506 4665 1686 
Q 4525 1866 4316 1866 
z
" transform="scale(0.015625)"/>
       <path id="ArialMT-29" d="M 791 -1347 
L 388 -1347 
Q 1322 153 1322 1656 
Q 1322 2244 1188 2822 
Q 1081 3291 891 3722 
Q 769 4003 388 4659 
L 791 4659 
Q 1378 3875 1659 3084 
Q 1900 2403 1900 1659 
Q 1900 816 1576 28 
Q 1253 -759 791 -1347 
z
" transform="scale(0.015625)"/>
      </defs>
      <use xlink:href="#ArialMT-53"/>
      <use xlink:href="#ArialMT-74" x="66.699219"/>
      <use xlink:href="#ArialMT-72" x="94.482422"/>
      <use xlink:href="#ArialMT-61" x="127.783203"/>
      <use xlink:href="#ArialMT-69" x="183.398438"/>
      <use xlink:href="#ArialMT-6e" x="205.615234"/>
      <use xlink:href="#ArialMT-28" x="261.230469"/>
      <use xlink:href="#ArialMT-25" x="294.53125"/>
      <use xlink:href="#ArialMT-29" x="383.447266"/>
     </g>
    </g>
   </g>
   <g id="matplotlib.axis_2">
    <g id="ytick_1">
     <g id="line2d_8">
      <defs>
       <path id="mddaf61d2d8" d="M 0 0 
L -3.5 0 
" style="stroke: #000000; stroke-width: 0.8"/>
      </defs>
      <g>
       <use xlink:href="#mddaf61d2d8" x="65.120937" y="361.300875" style="stroke: #000000; stroke-width: 0.8"/>
      </g>
     </g>
     <g id="text_9">
      <!-- 0 -->
      <g transform="translate(48.11125 367.742906) scale(0.18 -0.18)">
       <use xlink:href="#ArialMT-30"/>
      </g>
     </g>
    </g>
    <g id="ytick_2">
     <g id="line2d_9">
      <g>
       <use xlink:href="#mddaf61d2d8" x="65.120937" y="313.780875" style="stroke: #000000; stroke-width: 0.8"/>
      </g>
     </g>
     <g id="text_10">
      <!-- 100 -->
      <g transform="translate(28.091875 320.222906) scale(0.18 -0.18)">
       <use xlink:href="#ArialMT-31"/>
       <use xlink:href="#ArialMT-30" x="55.615234"/>
       <use xlink:href="#ArialMT-30" x="111.230469"/>
      </g>
     </g>
    </g>
    <g id="ytick_3">
     <g id="line2d_10">
      <g>
       <use xlink:href="#mddaf61d2d8" x="65.120937" y="266.260875" style="stroke: #000000; stroke-width: 0.8"/>
      </g>
     </g>
     <g id="text_11">
      <!-- 200 -->
      <g transform="translate(28.091875 272.702906) scale(0.18 -0.18)">
       <use xlink:href="#ArialMT-32"/>
       <use xlink:href="#ArialMT-30" x="55.615234"/>
       <use xlink:href="#ArialMT-30" x="111.230469"/>
      </g>
     </g>
    </g>
    <g id="ytick_4">
     <g id="line2d_11">
      <g>
       <use xlink:href="#mddaf61d2d8" x="65.120937" y="218.740875" style="stroke: #000000; stroke-width: 0.8"/>
      </g>
     </g>
     <g id="text_12">
      <!-- 300 -->
      <g transform="translate(28.091875 225.182906) scale(0.18 -0.18)">
       <use xlink:href="#ArialMT-33"/>
       <use xlink:href="#ArialMT-30" x="55.615234"/>
       <use xlink:href="#ArialMT-30" x="111.230469"/>
      </g>
     </g>
    </g>
    <g id="ytick_5">
     <g id="line2d_12">
      <g>
       <use xlink:href="#mddaf61d2d8" x="65.120937" y="171.220875" style="stroke: #000000; stroke-width: 0.8"/>
      </g>
     </g>
     <g id="text_13">
      <!-- 400 -->
      <g transform="translate(28.091875 177.662906) scale(0.18 -0.18)">
       <defs>
        <path id="ArialMT-34" d="M 2069 0 
L 2069 1097 
L 81 1097 
L 81 1613 
L 2172 4581 
L 2631 4581 
L 2631 1613 
L 3250 1613 
L 3250 1097 
L 2631 1097 
L 2631 0 
L 2069 0 
z
M 2069 1613 
L 2069 3678 
L 634 1613 
L 2069 1613 
z
" transform="scale(0.015625)"/>
       </defs>
       <use xlink:href="#ArialMT-34"/>
       <use xlink:href="#ArialMT-30" x="55.615234"/>
       <use xlink:href="#ArialMT-30" x="111.230469"/>
      </g>
     </g>
    </g>
    <g id="ytick_6">
     <g id="line2d_13">
      <g>
       <use xlink:href="#mddaf61d2d8" x="65.120937" y="123.700875" style="stroke: #000000; stroke-width: 0.8"/>
      </g>
     </g>
     <g id="text_14">
      <!-- 500 -->
      <g transform="translate(28.091875 130.142906) scale(0.18 -0.18)">
       <use xlink:href="#ArialMT-35"/>
       <use xlink:href="#ArialMT-30" x="55.615234"/>
       <use xlink:href="#ArialMT-30" x="111.230469"/>
      </g>
     </g>
    </g>
    <g id="ytick_7">
     <g id="line2d_14">
      <g>
       <use xlink:href="#mddaf61d2d8" x="65.120937" y="76.180875" style="stroke: #000000; stroke-width: 0.8"/>
      </g>
     </g>
     <g id="text_15">
      <!-- 600 -->
      <g transform="translate(28.091875 82.622906) scale(0.18 -0.18)">
       <defs>
        <path id="ArialMT-36" d="M 3184 3459 
L 2625 3416 
Q 2550 3747 2413 3897 
Q 2184 4138 1850 4138 
Q 1581 4138 1378 3988 
Q 1113 3794 959 3422 
Q 806 3050 800 2363 
Q 1003 2672 1297 2822 
Q 1591 2972 1913 2972 
Q 2475 2972 2870 2558 
Q 3266 2144 3266 1488 
Q 3266 1056 3080 686 
Q 2894 316 2569 119 
Q 2244 -78 1831 -78 
Q 1128 -78 684 439 
Q 241 956 241 2144 
Q 241 3472 731 4075 
Q 1159 4600 1884 4600 
Q 2425 4600 2770 4297 
Q 3116 3994 3184 3459 
z
M 888 1484 
Q 888 1194 1011 928 
Q 1134 663 1356 523 
Q 1578 384 1822 384 
Q 2178 384 2434 671 
Q 2691 959 2691 1453 
Q 2691 1928 2437 2201 
Q 2184 2475 1800 2475 
Q 1419 2475 1153 2201 
Q 888 1928 888 1484 
z
" transform="scale(0.015625)"/>
       </defs>
       <use xlink:href="#ArialMT-36"/>
       <use xlink:href="#ArialMT-30" x="55.615234"/>
       <use xlink:href="#ArialMT-30" x="111.230469"/>
      </g>
     </g>
    </g>
    <g id="ytick_8">
     <g id="line2d_15">
      <g>
       <use xlink:href="#mddaf61d2d8" x="65.120937" y="28.660875" style="stroke: #000000; stroke-width: 0.8"/>
      </g>
     </g>
     <g id="text_16">
      <!-- 700 -->
      <g transform="translate(28.091875 35.102906) scale(0.18 -0.18)">
       <defs>
        <path id="ArialMT-37" d="M 303 3981 
L 303 4522 
L 3269 4522 
L 3269 4084 
Q 2831 3619 2401 2847 
Q 1972 2075 1738 1259 
Q 1569 684 1522 0 
L 944 0 
Q 953 541 1156 1306 
Q 1359 2072 1739 2783 
Q 2119 3494 2547 3981 
L 303 3981 
z
" transform="scale(0.015625)"/>
       </defs>
       <use xlink:href="#ArialMT-37"/>
       <use xlink:href="#ArialMT-30" x="55.615234"/>
       <use xlink:href="#ArialMT-30" x="111.230469"/>
      </g>
     </g>
    </g>
    <g id="text_17">
     <!-- Stress(MPa) -->
     <g transform="translate(20.303437 244.984312) rotate(-90) scale(0.18 -0.18)">
      <defs>
       <path id="ArialMT-65" d="M 2694 1069 
L 3275 997 
Q 3138 488 2766 206 
Q 2394 -75 1816 -75 
Q 1088 -75 661 373 
Q 234 822 234 1631 
Q 234 2469 665 2931 
Q 1097 3394 1784 3394 
Q 2450 3394 2872 2941 
Q 3294 2488 3294 1666 
Q 3294 1616 3291 1516 
L 816 1516 
Q 847 969 1125 678 
Q 1403 388 1819 388 
Q 2128 388 2347 550 
Q 2566 713 2694 1069 
z
M 847 1978 
L 2700 1978 
Q 2663 2397 2488 2606 
Q 2219 2931 1791 2931 
Q 1403 2931 1139 2672 
Q 875 2413 847 1978 
z
" transform="scale(0.015625)"/>
       <path id="ArialMT-73" d="M 197 991 
L 753 1078 
Q 800 744 1014 566 
Q 1228 388 1613 388 
Q 2000 388 2187 545 
Q 2375 703 2375 916 
Q 2375 1106 2209 1216 
Q 2094 1291 1634 1406 
Q 1016 1563 777 1677 
Q 538 1791 414 1992 
Q 291 2194 291 2438 
Q 291 2659 392 2848 
Q 494 3038 669 3163 
Q 800 3259 1026 3326 
Q 1253 3394 1513 3394 
Q 1903 3394 2198 3281 
Q 2494 3169 2634 2976 
Q 2775 2784 2828 2463 
L 2278 2388 
Q 2241 2644 2061 2787 
Q 1881 2931 1553 2931 
Q 1166 2931 1000 2803 
Q 834 2675 834 2503 
Q 834 2394 903 2306 
Q 972 2216 1119 2156 
Q 1203 2125 1616 2013 
Q 2213 1853 2448 1751 
Q 2684 1650 2818 1456 
Q 2953 1263 2953 975 
Q 2953 694 2789 445 
Q 2625 197 2315 61 
Q 2006 -75 1616 -75 
Q 969 -75 630 194 
Q 291 463 197 991 
z
" transform="scale(0.015625)"/>
       <path id="ArialMT-4d" d="M 475 0 
L 475 4581 
L 1388 4581 
L 2472 1338 
Q 2622 884 2691 659 
Q 2769 909 2934 1394 
L 4031 4581 
L 4847 4581 
L 4847 0 
L 4263 0 
L 4263 3834 
L 2931 0 
L 2384 0 
L 1059 3900 
L 1059 0 
L 475 0 
z
" transform="scale(0.015625)"/>
       <path id="ArialMT-50" d="M 494 0 
L 494 4581 
L 2222 4581 
Q 2678 4581 2919 4538 
Q 3256 4481 3484 4323 
Q 3713 4166 3852 3881 
Q 3991 3597 3991 3256 
Q 3991 2672 3619 2267 
Q 3247 1863 2275 1863 
L 1100 1863 
L 1100 0 
L 494 0 
z
M 1100 2403 
L 2284 2403 
Q 2872 2403 3119 2622 
Q 3366 2841 3366 3238 
Q 3366 3525 3220 3729 
Q 3075 3934 2838 4000 
Q 2684 4041 2272 4041 
L 1100 4041 
L 1100 2403 
z
" transform="scale(0.015625)"/>
      </defs>
      <use xlink:href="#ArialMT-53"/>
      <use xlink:href="#ArialMT-74" x="66.699219"/>
      <use xlink:href="#ArialMT-72" x="94.482422"/>
      <use xlink:href="#ArialMT-65" x="127.783203"/>
      <use xlink:href="#ArialMT-73" x="183.398438"/>
      <use xlink:href="#ArialMT-73" x="233.398438"/>
      <use xlink:href="#ArialMT-28" x="283.398438"/>
      <use xlink:href="#ArialMT-4d" x="316.699219"/>
      <use xlink:href="#ArialMT-50" x="400"/>
      <use xlink:href="#ArialMT-61" x="466.699219"/>
      <use xlink:href="#ArialMT-29" x="522.314453"/>
     </g>
    </g>
   </g>
   <g id="line2d_16">
    <path d="M 66.603994 349.899766 
L 75.158316 338.427491 
L 83.712638 327.43896 
L 92.266841 316.921851 
L 100.821165 306.863559 
L 109.375486 297.252071 
L 117.929926 288.075243 
L 126.484131 279.321575 
L 135.038452 270.978978 
L 143.592773 263.035999 
L 152.146978 255.481314 
L 160.701421 248.30334 
L 169.255737 241.491261 
L 177.810063 235.033978 
L 186.364268 228.920752 
L 194.918595 223.140722 
L 203.473032 217.683373 
L 212.027348 212.538462 
L 220.581553 207.69573 
L 229.135879 203.144952 
L 237.690206 198.876253 
L 246.244521 194.879842 
L 254.798848 191.146059 
L 263.353164 187.665412 
L 271.907479 184.428545 
L 280.461817 181.426243 
L 289.016022 178.6495 
L 297.570448 176.089295 
L 306.124786 173.736966 
L 314.679101 171.583877 
L 323.233306 169.62158 
L 331.787622 167.841709 
L 340.34207 166.236097 
L 351.747831 164.352581 
L 363.153482 162.746071 
L 374.559244 161.398401 
L 385.965005 160.291921 
L 397.370767 159.409431 
L 408.776528 158.734201 
L 420.18229 158.249967 
L 434.439497 157.889242 
L 448.696594 157.772479 
L 462.95389 157.870996 
L 480.062432 158.234691 
L 497.171196 158.823386 
L 517.131163 159.737257 
L 534.735469 160.697719 
L 534.735469 160.697719 
" clip-path="url(#p75026286f8)" style="fill: none; stroke: #1f77b4; stroke-width: 1.5; stroke-linecap: square"/>
   </g>
   <g id="line2d_17">
    <path d="M 66.603994 305.761097 
L 75.089574 299.208402 
L 83.575154 292.893099 
L 92.060876 286.809741 
L 100.546457 280.953235 
L 109.03218 275.318146 
L 117.517758 269.899474 
L 126.00334 264.691984 
L 134.488921 259.690597 
L 142.974646 254.890203 
L 151.460222 250.285992 
L 159.945947 245.872879 
L 168.431522 241.64615 
L 176.917109 237.600903 
L 185.402829 233.732321 
L 193.888405 230.03582 
L 202.373991 226.506671 
L 210.859711 223.140222 
L 223.588014 218.385878 
L 236.316593 213.972267 
L 249.04504 209.88467 
L 261.773486 206.10844 
L 274.501778 202.629289 
L 287.230357 199.43304 
L 299.958804 196.506011 
L 312.68725 193.834646 
L 325.415697 191.40569 
L 338.144121 189.206162 
L 350.872568 187.223338 
L 363.601015 185.444776 
L 376.329461 183.858296 
L 389.057886 182.451993 
L 406.029192 180.837103 
L 423.000498 179.495011 
L 439.971672 178.399726 
L 456.942978 177.526081 
L 473.914285 176.849786 
L 495.128296 176.2463 
L 516.34244 175.87066 
L 534.735469 175.697627 
L 534.735469 175.697627 
" clip-path="url(#p75026286f8)" style="fill: none; stroke: #ff7f0e; stroke-width: 1.5; stroke-linecap: square"/>
   </g>
   <g id="line2d_18">
    <path d="M 66.603994 324.356928 
L 76.504635 316.691438 
L 86.405277 309.288854 
L 96.306076 302.143649 
L 106.206717 295.250684 
L 116.107201 288.604631 
L 126.007842 282.200015 
L 135.908644 276.031627 
L 145.809285 270.094502 
L 155.709927 264.383419 
L 165.610562 258.893316 
L 175.511209 253.619165 
L 185.411845 248.55601 
L 195.312492 243.698922 
L 205.213294 239.042966 
L 215.113775 234.583542 
L 225.014422 230.315657 
L 234.915058 226.234672 
L 244.815859 222.335849 
L 254.716506 218.614694 
L 264.616976 215.066635 
L 274.517778 211.686974 
L 284.418425 208.47141 
L 294.319072 205.415467 
L 309.170108 201.121273 
L 324.02099 197.161898 
L 338.871872 193.523001 
L 353.723064 190.190473 
L 368.573946 187.150663 
L 383.425004 184.389925 
L 398.275886 181.895039 
L 413.126923 179.652909 
L 427.97796 177.650779 
L 442.828842 175.87613 
L 457.6799 174.316642 
L 472.530782 172.96032 
L 487.381797 171.795355 
L 502.232856 170.810229 
L 522.034149 169.757033 
L 534.735469 169.229123 
L 534.735469 169.229123 
" clip-path="url(#p75026286f8)" style="fill: none; stroke: #2ca02c; stroke-width: 1.5; stroke-linecap: square"/>
   </g>
   <g id="patch_3">
    <path d="M 65.120937 361.300875 
L 65.120937 28.660875 
" style="fill: none; stroke: #000000; stroke-width: 0.8; stroke-linejoin: miter; stroke-linecap: square"/>
   </g>
   <g id="patch_4">
    <path d="M 511.520937 361.300875 
L 511.520937 28.660875 
" style="fill: none; stroke: #000000; stroke-width: 0.8; stroke-linejoin: miter; stroke-linecap: square"/>
   </g>
   <g id="patch_5">
    <path d="M 65.120938 361.300875 
L 511.520938 361.300875 
" style="fill: none; stroke: #000000; stroke-width: 0.8; stroke-linejoin: miter; stroke-linecap: square"/>
   </g>
   <g id="patch_6">
    <path d="M 65.120938 28.660875 
L 511.520938 28.660875 
" style="fill: none; stroke: #000000; stroke-width: 0.8; stroke-linejoin: miter; stroke-linecap: square"/>
   </g>
   <g id="text_18">
    <!-- Stress-Strain Curve -->
    <g transform="translate(194.099375 22.660875) scale(0.216 -0.216)">
     <defs>
      <path id="ArialMT-2d" d="M 203 1375 
L 203 1941 
L 1931 1941 
L 1931 1375 
L 203 1375 
z
" transform="scale(0.015625)"/>
      <path id="ArialMT-20" transform="scale(0.015625)"/>
      <path id="ArialMT-43" d="M 3763 1606 
L 4369 1453 
Q 4178 706 3683 314 
Q 3188 -78 2472 -78 
Q 1731 -78 1267 223 
Q 803 525 561 1097 
Q 319 1669 319 2325 
Q 319 3041 592 3573 
Q 866 4106 1370 4382 
Q 1875 4659 2481 4659 
Q 3169 4659 3637 4309 
Q 4106 3959 4291 3325 
L 3694 3184 
Q 3534 3684 3231 3912 
Q 2928 4141 2469 4141 
Q 1941 4141 1586 3887 
Q 1231 3634 1087 3207 
Q 944 2781 944 2328 
Q 944 1744 1114 1308 
Q 1284 872 1643 656 
Q 2003 441 2422 441 
Q 2931 441 3284 734 
Q 3638 1028 3763 1606 
z
" transform="scale(0.015625)"/>
      <path id="ArialMT-75" d="M 2597 0 
L 2597 488 
Q 2209 -75 1544 -75 
Q 1250 -75 995 37 
Q 741 150 617 320 
Q 494 491 444 738 
Q 409 903 409 1263 
L 409 3319 
L 972 3319 
L 972 1478 
Q 972 1038 1006 884 
Q 1059 663 1231 536 
Q 1403 409 1656 409 
Q 1909 409 2131 539 
Q 2353 669 2445 892 
Q 2538 1116 2538 1541 
L 2538 3319 
L 3100 3319 
L 3100 0 
L 2597 0 
z
" transform="scale(0.015625)"/>
      <path id="ArialMT-76" d="M 1344 0 
L 81 3319 
L 675 3319 
L 1388 1331 
Q 1503 1009 1600 663 
Q 1675 925 1809 1294 
L 2547 3319 
L 3125 3319 
L 1869 0 
L 1344 0 
z
" transform="scale(0.015625)"/>
     </defs>
     <use xlink:href="#ArialMT-53"/>
     <use xlink:href="#ArialMT-74" x="66.699219"/>
     <use xlink:href="#ArialMT-72" x="94.482422"/>
     <use xlink:href="#ArialMT-65" x="127.783203"/>
     <use xlink:href="#ArialMT-73" x="183.398438"/>
     <use xlink:href="#ArialMT-73" x="233.398438"/>
     <use xlink:href="#ArialMT-2d" x="283.398438"/>
     <use xlink:href="#ArialMT-53" x="316.699219"/>
     <use xlink:href="#ArialMT-74" x="383.398438"/>
     <use xlink:href="#ArialMT-72" x="411.181641"/>
     <use xlink:href="#ArialMT-61" x="444.482422"/>
     <use xlink:href="#ArialMT-69" x="500.097656"/>
     <use xlink:href="#ArialMT-6e" x="522.314453"/>
     <use xlink:href="#ArialMT-20" x="577.929688"/>
     <use xlink:href="#ArialMT-43" x="605.712891"/>
     <use xlink:href="#ArialMT-75" x="677.929688"/>
     <use xlink:href="#ArialMT-72" x="733.544922"/>
     <use xlink:href="#ArialMT-76" x="766.845703"/>
     <use xlink:href="#ArialMT-65" x="816.845703"/>
    </g>
   </g>
   <g id="legend_1">
    <g id="patch_7">
     <path d="M 77.720937 120.103687 
L 195.348125 120.103687 
Q 198.948125 120.103687 198.948125 116.503687 
L 198.948125 41.260875 
Q 198.948125 37.660875 195.348125 37.660875 
L 77.720937 37.660875 
Q 74.120937 37.660875 74.120937 41.260875 
L 74.120937 116.503687 
Q 74.120937 120.103687 77.720937 120.103687 
z
" style="fill: #ffffff; opacity: 0.8; stroke: #cccccc; stroke-linejoin: miter"/>
    </g>
    <g id="line2d_19">
     <path d="M 81.320937 51.664313 
L 99.320937 51.664313 
L 117.320937 51.664313 
" style="fill: none; stroke: #1f77b4; stroke-width: 1.5; stroke-linecap: square"/>
    </g>
    <g id="text_19">
     <!-- FS1I_X -->
     <g transform="translate(131.720937 57.964313) scale(0.18 -0.18)">
      <defs>
       <path id="ArialMT-46" d="M 525 0 
L 525 4581 
L 3616 4581 
L 3616 4041 
L 1131 4041 
L 1131 2622 
L 3281 2622 
L 3281 2081 
L 1131 2081 
L 1131 0 
L 525 0 
z
" transform="scale(0.015625)"/>
       <path id="ArialMT-49" d="M 597 0 
L 597 4581 
L 1203 4581 
L 1203 0 
L 597 0 
z
" transform="scale(0.015625)"/>
       <path id="ArialMT-5f" d="M -97 -1272 
L -97 -866 
L 3631 -866 
L 3631 -1272 
L -97 -1272 
z
" transform="scale(0.015625)"/>
       <path id="ArialMT-58" d="M 28 0 
L 1800 2388 
L 238 4581 
L 959 4581 
L 1791 3406 
Q 2050 3041 2159 2844 
Q 2313 3094 2522 3366 
L 3444 4581 
L 4103 4581 
L 2494 2422 
L 4228 0 
L 3478 0 
L 2325 1634 
Q 2228 1775 2125 1941 
Q 1972 1691 1906 1597 
L 756 0 
L 28 0 
z
" transform="scale(0.015625)"/>
      </defs>
      <use xlink:href="#ArialMT-46"/>
      <use xlink:href="#ArialMT-53" x="61.083984"/>
      <use xlink:href="#ArialMT-31" x="127.783203"/>
      <use xlink:href="#ArialMT-49" x="183.398438"/>
      <use xlink:href="#ArialMT-5f" x="211.181641"/>
      <use xlink:href="#ArialMT-58" x="266.796875"/>
     </g>
    </g>
    <g id="line2d_20">
     <path d="M 81.320937 77.34525 
L 99.320937 77.34525 
L 117.320937 77.34525 
" style="fill: none; stroke: #ff7f0e; stroke-width: 1.5; stroke-linecap: square"/>
    </g>
    <g id="text_20">
     <!-- FS1I_Y -->
     <g transform="translate(131.720937 83.64525) scale(0.18 -0.18)">
      <defs>
       <path id="ArialMT-59" d="M 1784 0 
L 1784 1941 
L 19 4581 
L 756 4581 
L 1659 3200 
Q 1909 2813 2125 2425 
Q 2331 2784 2625 3234 
L 3513 4581 
L 4219 4581 
L 2391 1941 
L 2391 0 
L 1784 0 
z
" transform="scale(0.015625)"/>
      </defs>
      <use xlink:href="#ArialMT-46"/>
      <use xlink:href="#ArialMT-53" x="61.083984"/>
      <use xlink:href="#ArialMT-31" x="127.783203"/>
      <use xlink:href="#ArialMT-49" x="183.398438"/>
      <use xlink:href="#ArialMT-5f" x="211.181641"/>
      <use xlink:href="#ArialMT-59" x="266.796875"/>
     </g>
    </g>
    <g id="line2d_21">
     <path d="M 81.320937 103.026188 
L 99.320937 103.026188 
L 117.320937 103.026188 
" style="fill: none; stroke: #2ca02c; stroke-width: 1.5; stroke-linecap: square"/>
    </g>
    <g id="text_21">
     <!-- FS1I_Z -->
     <g transform="translate(131.720937 109.326188) scale(0.18 -0.18)">
      <defs>
       <path id="ArialMT-5a" d="M 128 0 
L 128 563 
L 2475 3497 
Q 2725 3809 2950 4041 
L 394 4041 
L 394 4581 
L 3675 4581 
L 3675 4041 
L 1103 863 
L 825 541 
L 3750 541 
L 3750 0 
L 128 0 
z
" transform="scale(0.015625)"/>
      </defs>
      <use xlink:href="#ArialMT-46"/>
      <use xlink:href="#ArialMT-53" x="61.083984"/>
      <use xlink:href="#ArialMT-31" x="127.783203"/>
      <use xlink:href="#ArialMT-49" x="183.398438"/>
      <use xlink:href="#ArialMT-5f" x="211.181641"/>
      <use xlink:href="#ArialMT-5a" x="266.796875"/>
     </g>
    </g>
   </g>
  </g>
 </g>
 <defs>
  <clipPath id="p75026286f8">
   <rect x="65.120937" y="28.660875" width="446.4" height="332.64"/>
  </clipPath>
 </defs>
</svg>
