<?xml version="1.0" encoding="utf-8" standalone="no"?>
<!DOCTYPE svg PUBLIC "-//W3C//DTD SVG 1.1//EN"
  "http://www.w3.org/Graphics/SVG/1.1/DTD/svg11.dtd">
<svg xmlns:xlink="http://www.w3.org/1999/xlink" width="533.516094pt" height="413.117563pt" viewBox="0 0 533.516094 413.117563" xmlns="http://www.w3.org/2000/svg" version="1.1">
 <metadata>
  <rdf:RDF xmlns:dc="http://purl.org/dc/elements/1.1/" xmlns:cc="http://creativecommons.org/ns#" xmlns:rdf="http://www.w3.org/1999/02/22-rdf-syntax-ns#">
   <cc:Work>
    <dc:type rdf:resource="http://purl.org/dc/dcmitype/StillImage"/>
    <dc:date>2025-05-27T07:41:47.727879</dc:date>
    <dc:format>image/svg+xml</dc:format>
    <dc:creator>
     <cc:Agent>
      <dc:title>Matplotlib v3.9.0, https://matplotlib.org/</dc:title>
     </cc:Agent>
    </dc:creator>
   </cc:Work>
  </rdf:RDF>
 </metadata>
 <defs>
  <style type="text/css">*{stroke-linejoin: round; stroke-linecap: butt}</style>
 </defs>
 <g id="figure_1">
  <g id="patch_1">
   <path d="M 0 413.117563 
L 533.516094 413.117563 
L 533.516094 0 
L 0 0 
z
" style="fill: #ffffff"/>
  </g>
  <g id="axes_1">
   <g id="patch_2">
    <path d="M 64.901562 361.564125 
L 511.301562 361.564125 
L 511.301562 28.924125 
L 64.901562 28.924125 
z
" style="fill: #ffffff"/>
   </g>
   <g id="PolyCollection_1">
    <path d="M 66.384619 129.737792 
L 66.384619 246.932241 
L 80.641741 264.674436 
L 94.898864 276.822461 
L 109.156294 284.256906 
L 123.413417 287.77607 
L 137.670539 288.101262 
L 151.927661 285.880327 
L 166.184784 281.692004 
L 180.442215 276.049838 
L 194.699337 269.406638 
L 208.956459 262.157567 
L 223.213581 254.644338 
L 237.471012 247.158575 
L 251.728135 239.94598 
L 265.985257 233.208769 
L 280.242379 227.109641 
L 294.499501 221.774817 
L 308.756932 217.297061 
L 323.014055 213.739043 
L 337.271177 211.135647 
L 351.528299 209.497171 
L 365.78573 208.811897 
L 380.042852 209.048711 
L 394.299975 210.159483 
L 408.557097 212.081523 
L 422.814528 214.739882 
L 437.07165 218.049265 
L 451.328772 221.916438 
L 465.585895 226.241958 
L 479.843017 230.922074 
L 494.100448 235.85057 
L 508.35757 240.919979 
L 522.614692 246.02375 
L 536.871815 251.057256 
L 551.129246 255.919321 
L 565.386368 260.513025 
L 579.64349 264.747447 
L 593.900612 268.538251 
L 608.157735 271.808692 
L 622.415166 274.490473 
L 636.672288 276.524216 
L 650.92941 277.860404 
L 665.186533 278.459619 
L 679.443963 278.292976 
L 693.701086 277.34243 
L 707.958208 275.600925 
L 722.21533 273.072462 
L 736.472453 269.772059 
L 750.729883 265.725521 
L 764.987006 260.969553 
L 779.244128 255.550883 
L 793.50125 249.526143 
L 807.758681 242.961079 
L 822.015804 235.930464 
L 836.272926 228.516472 
L 850.530048 220.808367 
L 864.787479 212.901205 
L 879.044601 204.895446 
L 893.301724 196.894732 
L 907.558846 189.005272 
L 921.815968 181.334282 
L 936.073399 173.98832 
L 950.330521 167.072308 
L 964.587644 160.686868 
L 978.844766 154.927141 
L 993.102197 149.88061 
L 1007.359319 145.625487 
L 1021.616441 142.227931 
L 1035.873564 139.740262 
L 1050.130686 138.198501 
L 1064.388117 137.619931 
L 1078.645239 138.000565 
L 1092.902361 139.312426 
L 1107.159484 141.50085 
L 1121.416915 144.481678 
L 1135.674037 148.13801 
L 1149.931159 152.317517 
L 1164.188281 156.829028 
L 1178.445404 161.439295 
L 1192.702835 165.869704 
L 1206.959957 169.792399 
L 1206.959957 59.83034 
L 1206.959957 59.83034 
L 1192.702835 62.556373 
L 1178.445404 63.462554 
L 1164.188281 63.04771 
L 1149.931159 61.746723 
L 1135.674037 59.934741 
L 1121.416915 57.931403 
L 1107.159484 56.004863 
L 1092.902361 54.375889 
L 1078.645239 53.221418 
L 1064.388117 52.678415 
L 1050.130686 52.847399 
L 1035.873564 53.795845 
L 1021.616441 55.56151 
L 1007.359319 58.155615 
L 993.102197 61.565901 
L 978.844766 65.759645 
L 964.587644 70.686095 
L 950.330521 76.279681 
L 936.073399 82.462228 
L 921.815968 89.145604 
L 907.558846 96.233436 
L 893.301724 103.624147 
L 879.044601 111.212437 
L 864.787479 118.891341 
L 850.530048 126.554189 
L 836.272926 134.095612 
L 822.015804 141.414082 
L 807.758681 148.412661 
L 793.50125 155.000599 
L 779.244128 161.093935 
L 764.987006 166.617394 
L 750.729883 171.504718 
L 736.472453 175.699684 
L 722.21533 179.156417 
L 707.958208 181.840467 
L 693.701086 183.728845 
L 679.443963 184.8104 
L 665.186533 185.085973 
L 650.92941 184.568425 
L 636.672288 183.282571 
L 622.415166 181.264927 
L 608.157735 178.563304 
L 593.900612 175.236588 
L 579.64349 171.353786 
L 565.386368 166.993526 
L 551.129246 162.243149 
L 536.871815 157.197624 
L 522.614692 151.958888 
L 508.35757 146.63396 
L 494.100448 141.334014 
L 479.843017 136.17269 
L 465.585895 131.264925 
L 451.328772 126.724551 
L 437.07165 122.662884 
L 422.814528 119.186632 
L 408.557097 116.395725 
L 394.299975 114.381311 
L 380.042852 113.223025 
L 365.78573 112.986761 
L 351.528299 113.722014 
L 337.271177 115.459055 
L 323.014055 118.206162 
L 308.756932 121.946581 
L 294.499501 126.635528 
L 280.242379 132.196515 
L 265.985257 138.518591 
L 251.728135 145.452461 
L 237.471012 152.806952 
L 223.213581 160.345431 
L 208.956459 167.781269 
L 194.699337 174.774832 
L 180.442215 180.928695 
L 166.184784 185.783646 
L 151.927661 188.813907 
L 137.670539 189.423278 
L 123.413417 186.94005 
L 109.156294 180.612364 
L 94.898864 169.603039 
L 80.641741 152.985608 
L 66.384619 129.737792 
z
" clip-path="url(#peb88a57412)" style="fill: #1f77b4; fill-opacity: 0.2"/>
   </g>
   <g id="PolyCollection_2">
    <path d="M 66.384619 142.455685 
L 66.384619 267.978738 
L 87.598677 272.444819 
L 108.812734 276.067128 
L 130.026792 278.969162 
L 151.24085 281.263005 
L 172.454908 283.049945 
L 193.668965 284.421082 
L 214.883023 285.457918 
L 236.097081 286.232922 
L 257.311139 286.810101 
L 278.525197 287.24553 
L 299.739254 287.58789 
L 320.953312 287.878973 
L 342.16737 288.154185 
L 363.381428 288.44302 
L 384.595485 288.769533 
L 405.809543 289.152787 
L 427.023601 289.607291 
L 448.237659 290.143418 
L 469.451716 290.767809 
L 490.666148 291.48378 
L 511.880206 292.291638 
L 533.094264 293.189121 
L 554.308321 294.171691 
L 575.522379 295.23287 
L 596.736437 296.364558 
L 617.950495 297.557329 
L 639.164552 298.800709 
L 660.37861 300.083448 
L 681.592668 301.39377 
L 702.806726 302.719604 
L 724.020783 304.048814 
L 745.234841 305.369394 
L 766.448899 306.669666 
L 787.662957 307.93845 
L 808.877014 309.165224 
L 830.091072 310.340271 
L 851.30513 311.454802 
L 872.519188 312.501075 
L 893.733246 313.472487 
L 914.947303 314.363661 
L 936.161361 315.170513 
L 957.375419 315.890301 
L 978.589851 316.521673 
L 999.803908 317.064646 
L 1021.017966 317.520678 
L 1042.232024 317.892612 
L 1063.446082 318.184664 
L 1084.660139 318.40238 
L 1105.874197 318.552586 
L 1127.088255 318.64331 
L 1148.302313 318.6837 
L 1169.51637 318.683922 
L 1190.730428 318.655042 
L 1211.944486 318.608895 
L 1233.158544 318.557935 
L 1254.372601 318.515073 
L 1275.586659 318.493501 
L 1296.800717 318.506494 
L 1318.014775 318.567205 
L 1339.228832 318.688437 
L 1360.44289 318.882405 
L 1381.656948 319.160482 
L 1402.871006 319.532926 
L 1424.085063 320.008596 
L 1445.299121 320.594651 
L 1466.513553 321.296244 
L 1487.727611 322.116144 
L 1508.941669 323.054456 
L 1530.155726 324.108219 
L 1551.369784 325.271031 
L 1572.583842 326.532662 
L 1593.7979 327.878645 
L 1615.011957 329.289847 
L 1636.226015 330.742037 
L 1657.440073 332.205425 
L 1678.654131 333.644195 
L 1699.868188 335.01602 
L 1721.082246 336.27156 
L 1742.296304 337.353947 
L 1763.510362 338.198252 
L 1763.510362 241.903235 
L 1763.510362 241.903235 
L 1742.296304 241.605443 
L 1721.082246 240.889244 
L 1699.868188 239.86326 
L 1678.654131 238.622195 
L 1657.440073 237.247784 
L 1636.226015 235.809725 
L 1615.011957 234.366571 
L 1593.7979 232.966604 
L 1572.583842 231.648672 
L 1551.369784 230.443002 
L 1530.155726 229.371986 
L 1508.941669 228.450929 
L 1487.727611 227.688781 
L 1466.513553 227.088829 
L 1445.299121 226.649364 
L 1424.085063 226.364343 
L 1402.871006 226.223957 
L 1381.656948 226.215247 
L 1360.44289 226.322647 
L 1339.228832 226.528508 
L 1318.014775 226.813599 
L 1296.800717 227.157567 
L 1275.586659 227.539381 
L 1254.372601 227.937741 
L 1233.158544 228.331457 
L 1211.944486 228.699805 
L 1190.730428 229.022849 
L 1169.51637 229.281735 
L 1148.302313 229.45896 
L 1127.088255 229.538608 
L 1105.874197 229.506562 
L 1084.660139 229.35068 
L 1063.446082 229.060948 
L 1042.232024 228.629608 
L 1021.017966 228.051244 
L 999.803908 227.322854 
L 978.589851 226.443885 
L 957.375419 225.41622 
L 936.161361 224.244238 
L 914.947303 222.934647 
L 893.733246 221.496487 
L 872.519188 219.940996 
L 851.30513 218.281484 
L 830.091072 216.533162 
L 808.877014 214.712953 
L 787.662957 212.839271 
L 766.448899 210.931767 
L 745.234841 209.011057 
L 724.020783 207.098407 
L 702.806726 205.215403 
L 681.592668 203.383582 
L 660.37861 201.624041 
L 639.164552 199.957015 
L 617.950495 198.401422 
L 596.736437 196.974389 
L 575.522379 195.690741 
L 554.308321 194.562464 
L 533.094264 193.598137 
L 511.880206 192.802344 
L 490.666148 192.175043 
L 469.451716 191.710915 
L 448.237659 191.398706 
L 427.023601 191.220475 
L 405.809543 191.15089 
L 384.595485 191.156447 
L 363.381428 191.194682 
L 342.16737 191.213344 
L 320.953312 191.149539 
L 299.739254 190.928855 
L 278.525197 190.464447 
L 257.311139 189.6561 
L 236.097081 188.389262 
L 214.883023 186.534045 
L 193.668965 183.944206 
L 172.454908 180.456088 
L 151.24085 175.887538 
L 130.026792 170.036801 
L 108.812734 162.681375 
L 87.598677 153.576845 
L 66.384619 142.455685 
z
" clip-path="url(#peb88a57412)" style="fill: #ff7f0e; fill-opacity: 0.2"/>
   </g>
   <g id="PolyCollection_3">
    <path d="M 66.384619 119.021895 
L 66.384619 247.097419 
L 91.136221 266.960379 
L 115.887822 283.067832 
L 140.639424 295.854509 
L 165.391433 305.721684 
L 190.143034 313.038242 
L 214.894636 318.143267 
L 239.646237 321.346946 
L 264.397839 322.932288 
L 289.14944 323.156638 
L 313.901042 322.253133 
L 338.652643 320.432127 
L 363.404245 317.882571 
L 388.155846 314.773352 
L 412.907448 311.254593 
L 437.659457 307.458846 
L 462.411058 303.502562 
L 487.16266 299.486891 
L 511.914261 295.499064 
L 536.665863 291.613425 
L 561.417464 287.892485 
L 586.169066 284.387931 
L 610.920668 281.141601 
L 635.672269 278.186409 
L 660.423871 275.547237 
L 685.175472 273.241781 
L 709.927074 271.281356 
L 734.679083 269.671642 
L 759.430684 268.413505 
L 784.182286 267.503524 
L 808.933887 266.934742 
L 833.685489 266.697243 
L 858.43709 266.778706 
L 883.188692 267.164932 
L 907.940293 267.840315 
L 932.691895 268.788287 
L 957.443496 269.991706 
L 982.195098 271.433218 
L 1006.947107 273.095599 
L 1031.698708 274.961912 
L 1056.45031 277.015907 
L 1081.201911 279.242108 
L 1105.953513 281.625983 
L 1130.705115 284.154059 
L 1155.456716 286.813986 
L 1180.208318 289.594568 
L 1204.959919 292.485747 
L 1229.711521 295.478549 
L 1254.463122 298.564987 
L 1279.215131 301.737979 
L 1303.966733 304.990958 
L 1328.718334 308.317969 
L 1353.469936 311.713199 
L 1378.221537 315.17073 
L 1402.973139 318.684195 
L 1427.72474 322.246396 
L 1452.476342 325.848882 
L 1477.227943 329.481481 
L 1501.979545 333.131795 
L 1526.731146 336.784654 
L 1551.482748 340.421529 
L 1576.234757 344.019958 
L 1600.986359 347.552644 
L 1625.73796 350.987097 
L 1650.489562 354.284645 
L 1675.241163 357.399701 
L 1699.992765 360.278928 
L 1724.744366 362.860367 
L 1749.495968 365.072514 
L 1774.247569 366.833372 
L 1798.999171 368.049445 
L 1823.750772 368.614705 
L 1848.502781 368.409497 
L 1873.254383 367.299445 
L 1898.005984 365.134274 
L 1922.757586 361.746605 
L 1947.509187 356.950711 
L 1972.260789 350.541237 
L 1997.01239 342.29187 
L 2021.763992 331.953974 
L 2046.515593 319.255178 
L 2046.515593 218.924953 
L 2046.515593 218.924953 
L 2021.763992 233.792844 
L 1997.01239 245.811879 
L 1972.260789 255.333686 
L 1947.509187 262.67766 
L 1922.757586 268.132919 
L 1898.005984 271.960196 
L 1873.254383 274.39368 
L 1848.502781 275.642796 
L 1823.750772 275.893931 
L 1798.999171 275.312095 
L 1774.247569 274.042558 
L 1749.495968 272.212372 
L 1724.744366 269.931878 
L 1699.992765 267.296149 
L 1675.241163 264.386366 
L 1650.489562 261.271151 
L 1625.73796 258.007829 
L 1600.986359 254.643643 
L 1576.234757 251.216905 
L 1551.482748 247.758039 
L 1526.731146 244.290846 
L 1501.979545 240.833149 
L 1477.227943 237.39794 
L 1452.476342 233.994198 
L 1427.72474 230.6277 
L 1402.973139 227.30177 
L 1378.221537 224.017984 
L 1353.469936 220.776805 
L 1328.718334 217.578169 
L 1303.966733 214.42201 
L 1279.215131 211.308732 
L 1254.463122 208.239567 
L 1229.711521 205.217132 
L 1204.959919 202.245429 
L 1180.208318 199.330282 
L 1155.456716 196.479474 
L 1130.705115 193.702873 
L 1105.953513 191.012503 
L 1081.201911 188.422553 
L 1056.45031 185.949335 
L 1031.698708 183.611186 
L 1006.947107 181.428303 
L 982.195098 179.422499 
L 957.443496 177.617062 
L 932.691895 176.036221 
L 907.940293 174.704902 
L 883.188692 173.648242 
L 858.43709 172.891093 
L 833.685489 172.457464 
L 808.933887 172.369903 
L 784.182286 172.648827 
L 759.430684 173.311792 
L 734.679083 174.372708 
L 709.927074 175.841023 
L 685.175472 177.720717 
L 660.423871 180.009492 
L 635.672269 182.697666 
L 610.920668 185.767124 
L 586.169066 189.190187 
L 561.417464 192.928429 
L 536.665863 196.931432 
L 511.914261 201.135488 
L 487.16266 205.46224 
L 462.411058 209.817268 
L 437.659457 214.088622 
L 412.907448 218.145353 
L 388.155846 221.835666 
L 363.404245 224.985683 
L 338.652643 227.397468 
L 313.901042 228.847341 
L 289.14944 229.084066 
L 264.397839 227.826975 
L 239.646237 224.764049 
L 214.894636 219.549926 
L 190.143034 211.803861 
L 165.391433 201.107629 
L 140.639424 187.003108 
L 115.887822 168.991042 
L 91.136221 146.527397 
L 66.384619 119.021895 
z
" clip-path="url(#peb88a57412)" style="fill: #2ca02c; fill-opacity: 0.2"/>
   </g>
   <g id="matplotlib.axis_1">
    <g id="xtick_1">
     <g id="line2d_1">
      <defs>
       <path id="m314b1b54d6" d="M 0 0 
L 0 3.5 
" style="stroke: #000000; stroke-width: 0.8"/>
      </defs>
      <g>
       <use xlink:href="#m314b1b54d6" x="66.384619" y="361.564125" style="stroke: #000000; stroke-width: 0.8"/>
      </g>
     </g>
     <g id="text_1">
      <!-- 100 -->
      <g transform="translate(51.370088 381.448188) scale(0.18 -0.18)">
       <defs>
        <path id="ArialMT-31" d="M 2384 0 
L 1822 0 
L 1822 3584 
Q 1619 3391 1289 3197 
Q 959 3003 697 2906 
L 697 3450 
Q 1169 3672 1522 3987 
Q 1875 4303 2022 4600 
L 2384 4600 
L 2384 0 
z
" transform="scale(0.015625)"/>
        <path id="ArialMT-30" d="M 266 2259 
Q 266 3072 433 3567 
Q 600 4063 929 4331 
Q 1259 4600 1759 4600 
Q 2128 4600 2406 4451 
Q 2684 4303 2865 4023 
Q 3047 3744 3150 3342 
Q 3253 2941 3253 2259 
Q 3253 1453 3087 958 
Q 2922 463 2592 192 
Q 2263 -78 1759 -78 
Q 1097 -78 719 397 
Q 266 969 266 2259 
z
M 844 2259 
Q 844 1131 1108 757 
Q 1372 384 1759 384 
Q 2147 384 2411 759 
Q 2675 1134 2675 2259 
Q 2675 3391 2411 3762 
Q 2147 4134 1753 4134 
Q 1366 4134 1134 3806 
Q 844 3388 844 2259 
z
" transform="scale(0.015625)"/>
       </defs>
       <use xlink:href="#ArialMT-31"/>
       <use xlink:href="#ArialMT-30" x="55.615234"/>
       <use xlink:href="#ArialMT-30" x="111.230469"/>
      </g>
     </g>
    </g>
    <g id="xtick_2">
     <g id="line2d_2">
      <g>
       <use xlink:href="#m314b1b54d6" x="140.537443" y="361.564125" style="stroke: #000000; stroke-width: 0.8"/>
      </g>
     </g>
     <g id="text_2">
      <!-- 105 -->
      <g transform="translate(125.522912 381.448188) scale(0.18 -0.18)">
       <defs>
        <path id="ArialMT-35" d="M 266 1200 
L 856 1250 
Q 922 819 1161 601 
Q 1400 384 1738 384 
Q 2144 384 2425 690 
Q 2706 997 2706 1503 
Q 2706 1984 2436 2262 
Q 2166 2541 1728 2541 
Q 1456 2541 1237 2417 
Q 1019 2294 894 2097 
L 366 2166 
L 809 4519 
L 3088 4519 
L 3088 3981 
L 1259 3981 
L 1013 2750 
Q 1425 3038 1878 3038 
Q 2478 3038 2890 2622 
Q 3303 2206 3303 1553 
Q 3303 931 2941 478 
Q 2500 -78 1738 -78 
Q 1113 -78 717 272 
Q 322 622 266 1200 
z
" transform="scale(0.015625)"/>
       </defs>
       <use xlink:href="#ArialMT-31"/>
       <use xlink:href="#ArialMT-30" x="55.615234"/>
       <use xlink:href="#ArialMT-35" x="111.230469"/>
      </g>
     </g>
    </g>
    <g id="xtick_3">
     <g id="line2d_3">
      <g>
       <use xlink:href="#m314b1b54d6" x="214.690267" y="361.564125" style="stroke: #000000; stroke-width: 0.8"/>
      </g>
     </g>
     <g id="text_3">
      <!-- 110 -->
      <g transform="translate(200.339486 381.448188) scale(0.18 -0.18)">
       <use xlink:href="#ArialMT-31"/>
       <use xlink:href="#ArialMT-31" x="48.240234"/>
       <use xlink:href="#ArialMT-30" x="103.855469"/>
      </g>
     </g>
    </g>
    <g id="xtick_4">
     <g id="line2d_4">
      <g>
       <use xlink:href="#m314b1b54d6" x="288.843091" y="361.564125" style="stroke: #000000; stroke-width: 0.8"/>
      </g>
     </g>
     <g id="text_4">
      <!-- 115 -->
      <g transform="translate(274.492309 381.448188) scale(0.18 -0.18)">
       <use xlink:href="#ArialMT-31"/>
       <use xlink:href="#ArialMT-31" x="48.240234"/>
       <use xlink:href="#ArialMT-35" x="103.855469"/>
      </g>
     </g>
    </g>
    <g id="xtick_5">
     <g id="line2d_5">
      <g>
       <use xlink:href="#m314b1b54d6" x="362.995915" y="361.564125" style="stroke: #000000; stroke-width: 0.8"/>
      </g>
     </g>
     <g id="text_5">
      <!-- 120 -->
      <g transform="translate(347.981383 381.448188) scale(0.18 -0.18)">
       <defs>
        <path id="ArialMT-32" d="M 3222 541 
L 3222 0 
L 194 0 
Q 188 203 259 391 
Q 375 700 629 1000 
Q 884 1300 1366 1694 
Q 2113 2306 2375 2664 
Q 2638 3022 2638 3341 
Q 2638 3675 2398 3904 
Q 2159 4134 1775 4134 
Q 1369 4134 1125 3890 
Q 881 3647 878 3216 
L 300 3275 
Q 359 3922 746 4261 
Q 1134 4600 1788 4600 
Q 2447 4600 2831 4234 
Q 3216 3869 3216 3328 
Q 3216 3053 3103 2787 
Q 2991 2522 2730 2228 
Q 2469 1934 1863 1422 
Q 1356 997 1212 845 
Q 1069 694 975 541 
L 3222 541 
z
" transform="scale(0.015625)"/>
       </defs>
       <use xlink:href="#ArialMT-31"/>
       <use xlink:href="#ArialMT-32" x="55.615234"/>
       <use xlink:href="#ArialMT-30" x="111.230469"/>
      </g>
     </g>
    </g>
    <g id="xtick_6">
     <g id="line2d_6">
      <g>
       <use xlink:href="#m314b1b54d6" x="437.148739" y="361.564125" style="stroke: #000000; stroke-width: 0.8"/>
      </g>
     </g>
     <g id="text_6">
      <!-- 125 -->
      <g transform="translate(422.134207 381.448188) scale(0.18 -0.18)">
       <use xlink:href="#ArialMT-31"/>
       <use xlink:href="#ArialMT-32" x="55.615234"/>
       <use xlink:href="#ArialMT-35" x="111.230469"/>
      </g>
     </g>
    </g>
    <g id="xtick_7">
     <g id="line2d_7">
      <g>
       <use xlink:href="#m314b1b54d6" x="511.301563" y="361.564125" style="stroke: #000000; stroke-width: 0.8"/>
      </g>
     </g>
     <g id="text_7">
      <!-- 130 -->
      <g transform="translate(496.287031 381.448188) scale(0.18 -0.18)">
       <defs>
        <path id="ArialMT-33" d="M 269 1209 
L 831 1284 
Q 928 806 1161 595 
Q 1394 384 1728 384 
Q 2125 384 2398 659 
Q 2672 934 2672 1341 
Q 2672 1728 2419 1979 
Q 2166 2231 1775 2231 
Q 1616 2231 1378 2169 
L 1441 2663 
Q 1497 2656 1531 2656 
Q 1891 2656 2178 2843 
Q 2466 3031 2466 3422 
Q 2466 3731 2256 3934 
Q 2047 4138 1716 4138 
Q 1388 4138 1169 3931 
Q 950 3725 888 3313 
L 325 3413 
Q 428 3978 793 4289 
Q 1159 4600 1703 4600 
Q 2078 4600 2393 4439 
Q 2709 4278 2876 4000 
Q 3044 3722 3044 3409 
Q 3044 3113 2884 2869 
Q 2725 2625 2413 2481 
Q 2819 2388 3044 2092 
Q 3269 1797 3269 1353 
Q 3269 753 2831 336 
Q 2394 -81 1725 -81 
Q 1122 -81 723 278 
Q 325 638 269 1209 
z
" transform="scale(0.015625)"/>
       </defs>
       <use xlink:href="#ArialMT-31"/>
       <use xlink:href="#ArialMT-33" x="55.615234"/>
       <use xlink:href="#ArialMT-30" x="111.230469"/>
      </g>
     </g>
    </g>
    <g id="text_8">
     <!-- Strain(%) -->
     <g transform="translate(250.595469 402.129125) scale(0.18 -0.18)">
      <defs>
       <path id="ArialMT-53" d="M 288 1472 
L 859 1522 
Q 900 1178 1048 958 
Q 1197 738 1509 602 
Q 1822 466 2213 466 
Q 2559 466 2825 569 
Q 3091 672 3220 851 
Q 3350 1031 3350 1244 
Q 3350 1459 3225 1620 
Q 3100 1781 2813 1891 
Q 2628 1963 1997 2114 
Q 1366 2266 1113 2400 
Q 784 2572 623 2826 
Q 463 3081 463 3397 
Q 463 3744 659 4045 
Q 856 4347 1234 4503 
Q 1613 4659 2075 4659 
Q 2584 4659 2973 4495 
Q 3363 4331 3572 4012 
Q 3781 3694 3797 3291 
L 3216 3247 
Q 3169 3681 2898 3903 
Q 2628 4125 2100 4125 
Q 1550 4125 1298 3923 
Q 1047 3722 1047 3438 
Q 1047 3191 1225 3031 
Q 1400 2872 2139 2705 
Q 2878 2538 3153 2413 
Q 3553 2228 3743 1945 
Q 3934 1663 3934 1294 
Q 3934 928 3725 604 
Q 3516 281 3123 101 
Q 2731 -78 2241 -78 
Q 1619 -78 1198 103 
Q 778 284 539 648 
Q 300 1013 288 1472 
z
" transform="scale(0.015625)"/>
       <path id="ArialMT-74" d="M 1650 503 
L 1731 6 
Q 1494 -44 1306 -44 
Q 1000 -44 831 53 
Q 663 150 594 308 
Q 525 466 525 972 
L 525 2881 
L 113 2881 
L 113 3319 
L 525 3319 
L 525 4141 
L 1084 4478 
L 1084 3319 
L 1650 3319 
L 1650 2881 
L 1084 2881 
L 1084 941 
Q 1084 700 1114 631 
Q 1144 563 1211 522 
Q 1278 481 1403 481 
Q 1497 481 1650 503 
z
" transform="scale(0.015625)"/>
       <path id="ArialMT-72" d="M 416 0 
L 416 3319 
L 922 3319 
L 922 2816 
Q 1116 3169 1280 3281 
Q 1444 3394 1641 3394 
Q 1925 3394 2219 3213 
L 2025 2691 
Q 1819 2813 1613 2813 
Q 1428 2813 1281 2702 
Q 1134 2591 1072 2394 
Q 978 2094 978 1738 
L 978 0 
L 416 0 
z
" transform="scale(0.015625)"/>
       <path id="ArialMT-61" d="M 2588 409 
Q 2275 144 1986 34 
Q 1697 -75 1366 -75 
Q 819 -75 525 192 
Q 231 459 231 875 
Q 231 1119 342 1320 
Q 453 1522 633 1644 
Q 813 1766 1038 1828 
Q 1203 1872 1538 1913 
Q 2219 1994 2541 2106 
Q 2544 2222 2544 2253 
Q 2544 2597 2384 2738 
Q 2169 2928 1744 2928 
Q 1347 2928 1158 2789 
Q 969 2650 878 2297 
L 328 2372 
Q 403 2725 575 2942 
Q 747 3159 1072 3276 
Q 1397 3394 1825 3394 
Q 2250 3394 2515 3294 
Q 2781 3194 2906 3042 
Q 3031 2891 3081 2659 
Q 3109 2516 3109 2141 
L 3109 1391 
Q 3109 606 3145 398 
Q 3181 191 3288 0 
L 2700 0 
Q 2613 175 2588 409 
z
M 2541 1666 
Q 2234 1541 1622 1453 
Q 1275 1403 1131 1340 
Q 988 1278 909 1158 
Q 831 1038 831 891 
Q 831 666 1001 516 
Q 1172 366 1500 366 
Q 1825 366 2078 508 
Q 2331 650 2450 897 
Q 2541 1088 2541 1459 
L 2541 1666 
z
" transform="scale(0.015625)"/>
       <path id="ArialMT-69" d="M 425 3934 
L 425 4581 
L 988 4581 
L 988 3934 
L 425 3934 
z
M 425 0 
L 425 3319 
L 988 3319 
L 988 0 
L 425 0 
z
" transform="scale(0.015625)"/>
       <path id="ArialMT-6e" d="M 422 0 
L 422 3319 
L 928 3319 
L 928 2847 
Q 1294 3394 1984 3394 
Q 2284 3394 2536 3286 
Q 2788 3178 2913 3003 
Q 3038 2828 3088 2588 
Q 3119 2431 3119 2041 
L 3119 0 
L 2556 0 
L 2556 2019 
Q 2556 2363 2490 2533 
Q 2425 2703 2258 2804 
Q 2091 2906 1866 2906 
Q 1506 2906 1245 2678 
Q 984 2450 984 1813 
L 984 0 
L 422 0 
z
" transform="scale(0.015625)"/>
       <path id="ArialMT-28" d="M 1497 -1347 
Q 1031 -759 709 28 
Q 388 816 388 1659 
Q 388 2403 628 3084 
Q 909 3875 1497 4659 
L 1900 4659 
Q 1522 4009 1400 3731 
Q 1209 3300 1100 2831 
Q 966 2247 966 1656 
Q 966 153 1900 -1347 
L 1497 -1347 
z
" transform="scale(0.015625)"/>
       <path id="ArialMT-25" d="M 372 3481 
Q 372 3972 619 4315 
Q 866 4659 1334 4659 
Q 1766 4659 2048 4351 
Q 2331 4044 2331 3447 
Q 2331 2866 2045 2552 
Q 1759 2238 1341 2238 
Q 925 2238 648 2547 
Q 372 2856 372 3481 
z
M 1350 4272 
Q 1141 4272 1002 4090 
Q 863 3909 863 3425 
Q 863 2984 1003 2804 
Q 1144 2625 1350 2625 
Q 1563 2625 1702 2806 
Q 1841 2988 1841 3469 
Q 1841 3913 1700 4092 
Q 1559 4272 1350 4272 
z
M 1353 -169 
L 3859 4659 
L 4316 4659 
L 1819 -169 
L 1353 -169 
z
M 3334 1075 
Q 3334 1569 3581 1911 
Q 3828 2253 4300 2253 
Q 4731 2253 5014 1945 
Q 5297 1638 5297 1041 
Q 5297 459 5011 145 
Q 4725 -169 4303 -169 
Q 3888 -169 3611 142 
Q 3334 453 3334 1075 
z
M 4316 1866 
Q 4103 1866 3964 1684 
Q 3825 1503 3825 1019 
Q 3825 581 3965 400 
Q 4106 219 4313 219 
Q 4528 219 4667 400 
Q 4806 581 4806 1063 
Q 4806 1506 4665 1686 
Q 4525 1866 4316 1866 
z
" transform="scale(0.015625)"/>
       <path id="ArialMT-29" d="M 791 -1347 
L 388 -1347 
Q 1322 153 1322 1656 
Q 1322 2244 1188 2822 
Q 1081 3291 891 3722 
Q 769 4003 388 4659 
L 791 4659 
Q 1378 3875 1659 3084 
Q 1900 2403 1900 1659 
Q 1900 816 1576 28 
Q 1253 -759 791 -1347 
z
" transform="scale(0.015625)"/>
      </defs>
      <use xlink:href="#ArialMT-53"/>
      <use xlink:href="#ArialMT-74" x="66.699219"/>
      <use xlink:href="#ArialMT-72" x="94.482422"/>
      <use xlink:href="#ArialMT-61" x="127.783203"/>
      <use xlink:href="#ArialMT-69" x="183.398438"/>
      <use xlink:href="#ArialMT-6e" x="205.615234"/>
      <use xlink:href="#ArialMT-28" x="261.230469"/>
      <use xlink:href="#ArialMT-25" x="294.53125"/>
      <use xlink:href="#ArialMT-29" x="383.447266"/>
     </g>
    </g>
   </g>
   <g id="matplotlib.axis_2">
    <g id="ytick_1">
     <g id="line2d_8">
      <defs>
       <path id="mddd90590f1" d="M 0 0 
L -3.5 0 
" style="stroke: #000000; stroke-width: 0.8"/>
      </defs>
      <g>
       <use xlink:href="#mddd90590f1" x="64.901562" y="361.564125" style="stroke: #000000; stroke-width: 0.8"/>
      </g>
     </g>
     <g id="text_9">
      <!-- 80 -->
      <g transform="translate(37.882188 368.006156) scale(0.18 -0.18)">
       <defs>
        <path id="ArialMT-38" d="M 1131 2484 
Q 781 2613 612 2850 
Q 444 3088 444 3419 
Q 444 3919 803 4259 
Q 1163 4600 1759 4600 
Q 2359 4600 2725 4251 
Q 3091 3903 3091 3403 
Q 3091 3084 2923 2848 
Q 2756 2613 2416 2484 
Q 2838 2347 3058 2040 
Q 3278 1734 3278 1309 
Q 3278 722 2862 322 
Q 2447 -78 1769 -78 
Q 1091 -78 675 323 
Q 259 725 259 1325 
Q 259 1772 486 2073 
Q 713 2375 1131 2484 
z
M 1019 3438 
Q 1019 3113 1228 2906 
Q 1438 2700 1772 2700 
Q 2097 2700 2305 2904 
Q 2513 3109 2513 3406 
Q 2513 3716 2298 3927 
Q 2084 4138 1766 4138 
Q 1444 4138 1231 3931 
Q 1019 3725 1019 3438 
z
M 838 1322 
Q 838 1081 952 856 
Q 1066 631 1291 507 
Q 1516 384 1775 384 
Q 2178 384 2440 643 
Q 2703 903 2703 1303 
Q 2703 1709 2433 1975 
Q 2163 2241 1756 2241 
Q 1359 2241 1098 1978 
Q 838 1716 838 1322 
z
" transform="scale(0.015625)"/>
       </defs>
       <use xlink:href="#ArialMT-38"/>
       <use xlink:href="#ArialMT-30" x="55.615234"/>
      </g>
     </g>
    </g>
    <g id="ytick_2">
     <g id="line2d_9">
      <g>
       <use xlink:href="#mddd90590f1" x="64.901562" y="314.044125" style="stroke: #000000; stroke-width: 0.8"/>
      </g>
     </g>
     <g id="text_10">
      <!-- 85 -->
      <g transform="translate(37.882188 320.486156) scale(0.18 -0.18)">
       <use xlink:href="#ArialMT-38"/>
       <use xlink:href="#ArialMT-35" x="55.615234"/>
      </g>
     </g>
    </g>
    <g id="ytick_3">
     <g id="line2d_10">
      <g>
       <use xlink:href="#mddd90590f1" x="64.901562" y="266.524125" style="stroke: #000000; stroke-width: 0.8"/>
      </g>
     </g>
     <g id="text_11">
      <!-- 90 -->
      <g transform="translate(37.882188 272.966156) scale(0.18 -0.18)">
       <defs>
        <path id="ArialMT-39" d="M 350 1059 
L 891 1109 
Q 959 728 1153 556 
Q 1347 384 1650 384 
Q 1909 384 2104 503 
Q 2300 622 2425 820 
Q 2550 1019 2634 1356 
Q 2719 1694 2719 2044 
Q 2719 2081 2716 2156 
Q 2547 1888 2255 1720 
Q 1963 1553 1622 1553 
Q 1053 1553 659 1965 
Q 266 2378 266 3053 
Q 266 3750 677 4175 
Q 1088 4600 1706 4600 
Q 2153 4600 2523 4359 
Q 2894 4119 3086 3673 
Q 3278 3228 3278 2384 
Q 3278 1506 3087 986 
Q 2897 466 2520 194 
Q 2144 -78 1638 -78 
Q 1100 -78 759 220 
Q 419 519 350 1059 
z
M 2653 3081 
Q 2653 3566 2395 3850 
Q 2138 4134 1775 4134 
Q 1400 4134 1122 3828 
Q 844 3522 844 3034 
Q 844 2597 1108 2323 
Q 1372 2050 1759 2050 
Q 2150 2050 2401 2323 
Q 2653 2597 2653 3081 
z
" transform="scale(0.015625)"/>
       </defs>
       <use xlink:href="#ArialMT-39"/>
       <use xlink:href="#ArialMT-30" x="55.615234"/>
      </g>
     </g>
    </g>
    <g id="ytick_4">
     <g id="line2d_11">
      <g>
       <use xlink:href="#mddd90590f1" x="64.901562" y="219.004125" style="stroke: #000000; stroke-width: 0.8"/>
      </g>
     </g>
     <g id="text_12">
      <!-- 95 -->
      <g transform="translate(37.882188 225.446156) scale(0.18 -0.18)">
       <use xlink:href="#ArialMT-39"/>
       <use xlink:href="#ArialMT-35" x="55.615234"/>
      </g>
     </g>
    </g>
    <g id="ytick_5">
     <g id="line2d_12">
      <g>
       <use xlink:href="#mddd90590f1" x="64.901562" y="171.484125" style="stroke: #000000; stroke-width: 0.8"/>
      </g>
     </g>
     <g id="text_13">
      <!-- 100 -->
      <g transform="translate(27.8725 177.926156) scale(0.18 -0.18)">
       <use xlink:href="#ArialMT-31"/>
       <use xlink:href="#ArialMT-30" x="55.615234"/>
       <use xlink:href="#ArialMT-30" x="111.230469"/>
      </g>
     </g>
    </g>
    <g id="ytick_6">
     <g id="line2d_13">
      <g>
       <use xlink:href="#mddd90590f1" x="64.901562" y="123.964125" style="stroke: #000000; stroke-width: 0.8"/>
      </g>
     </g>
     <g id="text_14">
      <!-- 105 -->
      <g transform="translate(27.8725 130.406156) scale(0.18 -0.18)">
       <use xlink:href="#ArialMT-31"/>
       <use xlink:href="#ArialMT-30" x="55.615234"/>
       <use xlink:href="#ArialMT-35" x="111.230469"/>
      </g>
     </g>
    </g>
    <g id="ytick_7">
     <g id="line2d_14">
      <g>
       <use xlink:href="#mddd90590f1" x="64.901562" y="76.444125" style="stroke: #000000; stroke-width: 0.8"/>
      </g>
     </g>
     <g id="text_15">
      <!-- 110 -->
      <g transform="translate(29.2 82.886156) scale(0.18 -0.18)">
       <use xlink:href="#ArialMT-31"/>
       <use xlink:href="#ArialMT-31" x="48.240234"/>
       <use xlink:href="#ArialMT-30" x="103.855469"/>
      </g>
     </g>
    </g>
    <g id="ytick_8">
     <g id="line2d_15">
      <g>
       <use xlink:href="#mddd90590f1" x="64.901562" y="28.924125" style="stroke: #000000; stroke-width: 0.8"/>
      </g>
     </g>
     <g id="text_16">
      <!-- 115 -->
      <g transform="translate(29.2 35.366156) scale(0.18 -0.18)">
       <use xlink:href="#ArialMT-31"/>
       <use xlink:href="#ArialMT-31" x="48.240234"/>
       <use xlink:href="#ArialMT-35" x="103.855469"/>
      </g>
     </g>
    </g>
    <g id="text_17">
     <!-- Hydrogen Bonds -->
     <g transform="translate(20.084062 262.282875) rotate(-90) scale(0.18 -0.18)">
      <defs>
       <path id="ArialMT-48" d="M 513 0 
L 513 4581 
L 1119 4581 
L 1119 2700 
L 3500 2700 
L 3500 4581 
L 4106 4581 
L 4106 0 
L 3500 0 
L 3500 2159 
L 1119 2159 
L 1119 0 
L 513 0 
z
" transform="scale(0.015625)"/>
       <path id="ArialMT-79" d="M 397 -1278 
L 334 -750 
Q 519 -800 656 -800 
Q 844 -800 956 -737 
Q 1069 -675 1141 -563 
Q 1194 -478 1313 -144 
Q 1328 -97 1363 -6 
L 103 3319 
L 709 3319 
L 1400 1397 
Q 1534 1031 1641 628 
Q 1738 1016 1872 1384 
L 2581 3319 
L 3144 3319 
L 1881 -56 
Q 1678 -603 1566 -809 
Q 1416 -1088 1222 -1217 
Q 1028 -1347 759 -1347 
Q 597 -1347 397 -1278 
z
" transform="scale(0.015625)"/>
       <path id="ArialMT-64" d="M 2575 0 
L 2575 419 
Q 2259 -75 1647 -75 
Q 1250 -75 917 144 
Q 584 363 401 755 
Q 219 1147 219 1656 
Q 219 2153 384 2558 
Q 550 2963 881 3178 
Q 1213 3394 1622 3394 
Q 1922 3394 2156 3267 
Q 2391 3141 2538 2938 
L 2538 4581 
L 3097 4581 
L 3097 0 
L 2575 0 
z
M 797 1656 
Q 797 1019 1065 703 
Q 1334 388 1700 388 
Q 2069 388 2326 689 
Q 2584 991 2584 1609 
Q 2584 2291 2321 2609 
Q 2059 2928 1675 2928 
Q 1300 2928 1048 2622 
Q 797 2316 797 1656 
z
" transform="scale(0.015625)"/>
       <path id="ArialMT-6f" d="M 213 1659 
Q 213 2581 725 3025 
Q 1153 3394 1769 3394 
Q 2453 3394 2887 2945 
Q 3322 2497 3322 1706 
Q 3322 1066 3130 698 
Q 2938 331 2570 128 
Q 2203 -75 1769 -75 
Q 1072 -75 642 372 
Q 213 819 213 1659 
z
M 791 1659 
Q 791 1022 1069 705 
Q 1347 388 1769 388 
Q 2188 388 2466 706 
Q 2744 1025 2744 1678 
Q 2744 2294 2464 2611 
Q 2184 2928 1769 2928 
Q 1347 2928 1069 2612 
Q 791 2297 791 1659 
z
" transform="scale(0.015625)"/>
       <path id="ArialMT-67" d="M 319 -275 
L 866 -356 
Q 900 -609 1056 -725 
Q 1266 -881 1628 -881 
Q 2019 -881 2231 -725 
Q 2444 -569 2519 -288 
Q 2563 -116 2559 434 
Q 2191 0 1641 0 
Q 956 0 581 494 
Q 206 988 206 1678 
Q 206 2153 378 2554 
Q 550 2956 876 3175 
Q 1203 3394 1644 3394 
Q 2231 3394 2613 2919 
L 2613 3319 
L 3131 3319 
L 3131 450 
Q 3131 -325 2973 -648 
Q 2816 -972 2473 -1159 
Q 2131 -1347 1631 -1347 
Q 1038 -1347 672 -1080 
Q 306 -813 319 -275 
z
M 784 1719 
Q 784 1066 1043 766 
Q 1303 466 1694 466 
Q 2081 466 2343 764 
Q 2606 1063 2606 1700 
Q 2606 2309 2336 2618 
Q 2066 2928 1684 2928 
Q 1309 2928 1046 2623 
Q 784 2319 784 1719 
z
" transform="scale(0.015625)"/>
       <path id="ArialMT-65" d="M 2694 1069 
L 3275 997 
Q 3138 488 2766 206 
Q 2394 -75 1816 -75 
Q 1088 -75 661 373 
Q 234 822 234 1631 
Q 234 2469 665 2931 
Q 1097 3394 1784 3394 
Q 2450 3394 2872 2941 
Q 3294 2488 3294 1666 
Q 3294 1616 3291 1516 
L 816 1516 
Q 847 969 1125 678 
Q 1403 388 1819 388 
Q 2128 388 2347 550 
Q 2566 713 2694 1069 
z
M 847 1978 
L 2700 1978 
Q 2663 2397 2488 2606 
Q 2219 2931 1791 2931 
Q 1403 2931 1139 2672 
Q 875 2413 847 1978 
z
" transform="scale(0.015625)"/>
       <path id="ArialMT-20" transform="scale(0.015625)"/>
       <path id="ArialMT-42" d="M 469 0 
L 469 4581 
L 2188 4581 
Q 2713 4581 3030 4442 
Q 3347 4303 3526 4014 
Q 3706 3725 3706 3409 
Q 3706 3116 3547 2856 
Q 3388 2597 3066 2438 
Q 3481 2316 3704 2022 
Q 3928 1728 3928 1328 
Q 3928 1006 3792 729 
Q 3656 453 3456 303 
Q 3256 153 2954 76 
Q 2653 0 2216 0 
L 469 0 
z
M 1075 2656 
L 2066 2656 
Q 2469 2656 2644 2709 
Q 2875 2778 2992 2937 
Q 3109 3097 3109 3338 
Q 3109 3566 3000 3739 
Q 2891 3913 2687 3977 
Q 2484 4041 1991 4041 
L 1075 4041 
L 1075 2656 
z
M 1075 541 
L 2216 541 
Q 2509 541 2628 563 
Q 2838 600 2978 687 
Q 3119 775 3209 942 
Q 3300 1109 3300 1328 
Q 3300 1584 3169 1773 
Q 3038 1963 2805 2039 
Q 2572 2116 2134 2116 
L 1075 2116 
L 1075 541 
z
" transform="scale(0.015625)"/>
       <path id="ArialMT-73" d="M 197 991 
L 753 1078 
Q 800 744 1014 566 
Q 1228 388 1613 388 
Q 2000 388 2187 545 
Q 2375 703 2375 916 
Q 2375 1106 2209 1216 
Q 2094 1291 1634 1406 
Q 1016 1563 777 1677 
Q 538 1791 414 1992 
Q 291 2194 291 2438 
Q 291 2659 392 2848 
Q 494 3038 669 3163 
Q 800 3259 1026 3326 
Q 1253 3394 1513 3394 
Q 1903 3394 2198 3281 
Q 2494 3169 2634 2976 
Q 2775 2784 2828 2463 
L 2278 2388 
Q 2241 2644 2061 2787 
Q 1881 2931 1553 2931 
Q 1166 2931 1000 2803 
Q 834 2675 834 2503 
Q 834 2394 903 2306 
Q 972 2216 1119 2156 
Q 1203 2125 1616 2013 
Q 2213 1853 2448 1751 
Q 2684 1650 2818 1456 
Q 2953 1263 2953 975 
Q 2953 694 2789 445 
Q 2625 197 2315 61 
Q 2006 -75 1616 -75 
Q 969 -75 630 194 
Q 291 463 197 991 
z
" transform="scale(0.015625)"/>
      </defs>
      <use xlink:href="#ArialMT-48"/>
      <use xlink:href="#ArialMT-79" x="72.216797"/>
      <use xlink:href="#ArialMT-64" x="122.216797"/>
      <use xlink:href="#ArialMT-72" x="177.832031"/>
      <use xlink:href="#ArialMT-6f" x="211.132812"/>
      <use xlink:href="#ArialMT-67" x="266.748047"/>
      <use xlink:href="#ArialMT-65" x="322.363281"/>
      <use xlink:href="#ArialMT-6e" x="377.978516"/>
      <use xlink:href="#ArialMT-20" x="433.59375"/>
      <use xlink:href="#ArialMT-42" x="461.376953"/>
      <use xlink:href="#ArialMT-6f" x="528.076172"/>
      <use xlink:href="#ArialMT-6e" x="583.691406"/>
      <use xlink:href="#ArialMT-64" x="639.306641"/>
      <use xlink:href="#ArialMT-73" x="694.921875"/>
     </g>
    </g>
   </g>
   <g id="line2d_16">
    <path d="M 66.384619 201.498123 
L 69.236043 205.469417 
L 72.087468 209.182231 
L 74.938892 212.644777 
L 77.790317 215.865118 
L 80.641741 218.851164 
L 83.493166 221.610675 
L 86.34459 224.151267 
L 89.196015 226.480408 
L 92.047439 228.605422 
L 94.898864 230.53349 
L 97.750288 232.271654 
L 100.601712 233.826814 
L 103.453137 235.205734 
L 106.304561 236.415039 
L 109.156294 237.461326 
L 112.007719 238.350727 
L 114.859143 239.089591 
L 117.710568 239.684013 
L 120.561992 240.13996 
L 123.413417 240.463271 
L 126.264841 240.65966 
L 129.116266 240.734716 
L 134.819115 240.542569 
L 140.521963 239.929106 
L 146.224812 238.934704 
L 151.927661 237.597888 
L 157.63051 235.95537 
L 163.333359 234.042104 
L 169.036208 231.89132 
L 174.739366 229.534442 
L 183.293639 225.678158 
L 191.847912 221.519754 
L 203.25361 215.653865 
L 223.213581 205.008318 
L 237.471012 197.492094 
L 248.87671 191.724681 
L 257.430983 187.61197 
L 265.985257 183.7238 
L 274.53953 180.09243 
L 283.093804 176.745214 
L 291.648077 173.704858 
L 300.202659 170.989588 
L 308.756932 168.61378 
L 314.459781 167.223674 
L 320.16263 165.991177 
L 325.865479 164.917738 
L 331.568328 164.004144 
L 337.271177 163.250552 
L 342.974026 162.656521 
L 348.676875 162.221039 
L 354.379724 161.942552 
L 360.082881 161.81899 
L 365.78573 161.847812 
L 374.340003 162.170036 
L 382.894277 162.816258 
L 391.44855 163.772528 
L 400.002824 165.023099 
L 408.557097 166.550618 
L 417.11137 168.336302 
L 425.665952 170.360201 
L 434.220226 172.60106 
L 442.774499 175.036929 
L 454.180197 178.548658 
L 465.585895 182.310967 
L 479.843017 187.279598 
L 499.803297 194.530528 
L 528.317541 204.929694 
L 534.516094 207.122626 
L 534.516094 207.122626 
" clip-path="url(#peb88a57412)" style="fill: none; stroke: #1f77b4; stroke-width: 1.5; stroke-linecap: square"/>
   </g>
   <g id="line2d_17">
    <path d="M 66.384619 217.726804 
L 74.870092 219.627474 
L 87.598677 222.19399 
L 100.326887 224.44618 
L 113.055471 226.413252 
L 125.784056 228.122575 
L 138.512266 229.599958 
L 151.24085 230.869806 
L 163.96906 231.954877 
L 180.940381 233.151083 
L 197.911702 234.10368 
L 214.883023 234.855443 
L 236.097081 235.571506 
L 261.553875 236.190875 
L 295.496518 236.771416 
L 384.595485 238.158663 
L 418.538127 238.958824 
L 448.237659 239.864228 
L 477.937564 240.980502 
L 507.637095 242.311671 
L 534.516094 243.69601 
L 534.516094 243.69601 
" clip-path="url(#peb88a57412)" style="fill: none; stroke: #ff7f0e; stroke-width: 1.5; stroke-linecap: square"/>
   </g>
   <g id="line2d_18">
    <path d="M 66.384619 189.312673 
L 71.334939 194.415981 
L 76.28526 199.317181 
L 81.23558 204.021158 
L 86.1859 208.532718 
L 91.136221 212.856594 
L 96.086541 216.997438 
L 101.036861 220.959831 
L 105.987181 224.748276 
L 110.937502 228.367205 
L 115.887822 231.820975 
L 120.838142 235.113871 
L 125.788463 238.250106 
L 130.738783 241.233824 
L 135.689103 244.069096 
L 140.639424 246.759927 
L 145.589744 249.31025 
L 150.540472 251.724126 
L 155.490792 254.004956 
L 160.441112 256.156679 
L 165.391433 258.18296 
L 175.292073 261.873545 
L 185.192714 265.104759 
L 195.093354 267.903645 
L 204.993995 270.296259 
L 214.894636 272.307698 
L 224.795276 273.962114 
L 234.695917 275.282743 
L 244.596557 276.291921 
L 254.497198 277.011107 
L 264.397839 277.460907 
L 274.298479 277.661089 
L 284.19912 277.630607 
L 294.09976 277.387619 
L 304.000401 276.949511 
L 313.901042 276.332911 
L 323.801682 275.553714 
L 338.652643 274.113056 
L 353.503604 272.388839 
L 368.354565 270.425974 
L 383.205526 268.266123 
L 403.006807 265.146094 
L 427.758409 260.975371 
L 467.361379 254.004414 
L 506.963941 247.078685 
L 534.516094 242.486991 
L 534.516094 242.486991 
" clip-path="url(#peb88a57412)" style="fill: none; stroke: #2ca02c; stroke-width: 1.5; stroke-linecap: square"/>
   </g>
   <g id="patch_3">
    <path d="M 64.901562 361.564125 
L 64.901562 28.924125 
" style="fill: none; stroke: #000000; stroke-width: 0.8; stroke-linejoin: miter; stroke-linecap: square"/>
   </g>
   <g id="patch_4">
    <path d="M 511.301562 361.564125 
L 511.301562 28.924125 
" style="fill: none; stroke: #000000; stroke-width: 0.8; stroke-linejoin: miter; stroke-linecap: square"/>
   </g>
   <g id="patch_5">
    <path d="M 64.901562 361.564125 
L 511.301563 361.564125 
" style="fill: none; stroke: #000000; stroke-width: 0.8; stroke-linejoin: miter; stroke-linecap: square"/>
   </g>
   <g id="patch_6">
    <path d="M 64.901562 28.924125 
L 511.301563 28.924125 
" style="fill: none; stroke: #000000; stroke-width: 0.8; stroke-linejoin: miter; stroke-linecap: square"/>
   </g>
   <g id="text_18">
    <!-- Change of Hydrogen Bonds Number -->
    <g transform="translate(113.409875 22.924125) scale(0.216 -0.216)">
     <defs>
      <path id="ArialMT-43" d="M 3763 1606 
L 4369 1453 
Q 4178 706 3683 314 
Q 3188 -78 2472 -78 
Q 1731 -78 1267 223 
Q 803 525 561 1097 
Q 319 1669 319 2325 
Q 319 3041 592 3573 
Q 866 4106 1370 4382 
Q 1875 4659 2481 4659 
Q 3169 4659 3637 4309 
Q 4106 3959 4291 3325 
L 3694 3184 
Q 3534 3684 3231 3912 
Q 2928 4141 2469 4141 
Q 1941 4141 1586 3887 
Q 1231 3634 1087 3207 
Q 944 2781 944 2328 
Q 944 1744 1114 1308 
Q 1284 872 1643 656 
Q 2003 441 2422 441 
Q 2931 441 3284 734 
Q 3638 1028 3763 1606 
z
" transform="scale(0.015625)"/>
      <path id="ArialMT-68" d="M 422 0 
L 422 4581 
L 984 4581 
L 984 2938 
Q 1378 3394 1978 3394 
Q 2347 3394 2619 3248 
Q 2891 3103 3008 2847 
Q 3125 2591 3125 2103 
L 3125 0 
L 2563 0 
L 2563 2103 
Q 2563 2525 2380 2717 
Q 2197 2909 1863 2909 
Q 1613 2909 1392 2779 
Q 1172 2650 1078 2428 
Q 984 2206 984 1816 
L 984 0 
L 422 0 
z
" transform="scale(0.015625)"/>
      <path id="ArialMT-66" d="M 556 0 
L 556 2881 
L 59 2881 
L 59 3319 
L 556 3319 
L 556 3672 
Q 556 4006 616 4169 
Q 697 4388 901 4523 
Q 1106 4659 1475 4659 
Q 1713 4659 2000 4603 
L 1916 4113 
Q 1741 4144 1584 4144 
Q 1328 4144 1222 4034 
Q 1116 3925 1116 3625 
L 1116 3319 
L 1763 3319 
L 1763 2881 
L 1116 2881 
L 1116 0 
L 556 0 
z
" transform="scale(0.015625)"/>
      <path id="ArialMT-4e" d="M 488 0 
L 488 4581 
L 1109 4581 
L 3516 984 
L 3516 4581 
L 4097 4581 
L 4097 0 
L 3475 0 
L 1069 3600 
L 1069 0 
L 488 0 
z
" transform="scale(0.015625)"/>
      <path id="ArialMT-75" d="M 2597 0 
L 2597 488 
Q 2209 -75 1544 -75 
Q 1250 -75 995 37 
Q 741 150 617 320 
Q 494 491 444 738 
Q 409 903 409 1263 
L 409 3319 
L 972 3319 
L 972 1478 
Q 972 1038 1006 884 
Q 1059 663 1231 536 
Q 1403 409 1656 409 
Q 1909 409 2131 539 
Q 2353 669 2445 892 
Q 2538 1116 2538 1541 
L 2538 3319 
L 3100 3319 
L 3100 0 
L 2597 0 
z
" transform="scale(0.015625)"/>
      <path id="ArialMT-6d" d="M 422 0 
L 422 3319 
L 925 3319 
L 925 2853 
Q 1081 3097 1340 3245 
Q 1600 3394 1931 3394 
Q 2300 3394 2536 3241 
Q 2772 3088 2869 2813 
Q 3263 3394 3894 3394 
Q 4388 3394 4653 3120 
Q 4919 2847 4919 2278 
L 4919 0 
L 4359 0 
L 4359 2091 
Q 4359 2428 4304 2576 
Q 4250 2725 4106 2815 
Q 3963 2906 3769 2906 
Q 3419 2906 3187 2673 
Q 2956 2441 2956 1928 
L 2956 0 
L 2394 0 
L 2394 2156 
Q 2394 2531 2256 2718 
Q 2119 2906 1806 2906 
Q 1569 2906 1367 2781 
Q 1166 2656 1075 2415 
Q 984 2175 984 1722 
L 984 0 
L 422 0 
z
" transform="scale(0.015625)"/>
      <path id="ArialMT-62" d="M 941 0 
L 419 0 
L 419 4581 
L 981 4581 
L 981 2947 
Q 1338 3394 1891 3394 
Q 2197 3394 2470 3270 
Q 2744 3147 2920 2923 
Q 3097 2700 3197 2384 
Q 3297 2069 3297 1709 
Q 3297 856 2875 390 
Q 2453 -75 1863 -75 
Q 1275 -75 941 416 
L 941 0 
z
M 934 1684 
Q 934 1088 1097 822 
Q 1363 388 1816 388 
Q 2184 388 2453 708 
Q 2722 1028 2722 1663 
Q 2722 2313 2464 2622 
Q 2206 2931 1841 2931 
Q 1472 2931 1203 2611 
Q 934 2291 934 1684 
z
" transform="scale(0.015625)"/>
     </defs>
     <use xlink:href="#ArialMT-43"/>
     <use xlink:href="#ArialMT-68" x="72.216797"/>
     <use xlink:href="#ArialMT-61" x="127.832031"/>
     <use xlink:href="#ArialMT-6e" x="183.447266"/>
     <use xlink:href="#ArialMT-67" x="239.0625"/>
     <use xlink:href="#ArialMT-65" x="294.677734"/>
     <use xlink:href="#ArialMT-20" x="350.292969"/>
     <use xlink:href="#ArialMT-6f" x="378.076172"/>
     <use xlink:href="#ArialMT-66" x="433.691406"/>
     <use xlink:href="#ArialMT-20" x="461.474609"/>
     <use xlink:href="#ArialMT-48" x="489.257812"/>
     <use xlink:href="#ArialMT-79" x="561.474609"/>
     <use xlink:href="#ArialMT-64" x="611.474609"/>
     <use xlink:href="#ArialMT-72" x="667.089844"/>
     <use xlink:href="#ArialMT-6f" x="700.390625"/>
     <use xlink:href="#ArialMT-67" x="756.005859"/>
     <use xlink:href="#ArialMT-65" x="811.621094"/>
     <use xlink:href="#ArialMT-6e" x="867.236328"/>
     <use xlink:href="#ArialMT-20" x="922.851562"/>
     <use xlink:href="#ArialMT-42" x="950.634766"/>
     <use xlink:href="#ArialMT-6f" x="1017.333984"/>
     <use xlink:href="#ArialMT-6e" x="1072.949219"/>
     <use xlink:href="#ArialMT-64" x="1128.564453"/>
     <use xlink:href="#ArialMT-73" x="1184.179688"/>
     <use xlink:href="#ArialMT-20" x="1234.179688"/>
     <use xlink:href="#ArialMT-4e" x="1261.962891"/>
     <use xlink:href="#ArialMT-75" x="1334.179688"/>
     <use xlink:href="#ArialMT-6d" x="1389.794922"/>
     <use xlink:href="#ArialMT-62" x="1473.095703"/>
     <use xlink:href="#ArialMT-65" x="1528.710938"/>
     <use xlink:href="#ArialMT-72" x="1584.326172"/>
    </g>
   </g>
   <g id="legend_1">
    <g id="patch_7">
     <path d="M 77.501562 120.341625 
L 208.150625 120.341625 
Q 211.750625 120.341625 211.750625 116.741625 
L 211.750625 41.524125 
Q 211.750625 37.924125 208.150625 37.924125 
L 77.501562 37.924125 
Q 73.901562 37.924125 73.901562 41.524125 
L 73.901562 116.741625 
Q 73.901562 120.341625 77.501562 120.341625 
z
" style="fill: #ffffff; opacity: 0.8; stroke: #cccccc; stroke-linejoin: miter"/>
    </g>
    <g id="line2d_19">
     <path d="M 81.101562 51.708188 
L 99.101562 51.708188 
L 117.101562 51.708188 
" style="fill: none; stroke: #1f77b4; stroke-width: 1.5; stroke-linecap: square"/>
    </g>
    <g id="text_19">
     <!-- X-Length -->
     <g transform="translate(131.501563 58.008188) scale(0.18 -0.18)">
      <defs>
       <path id="ArialMT-58" d="M 28 0 
L 1800 2388 
L 238 4581 
L 959 4581 
L 1791 3406 
Q 2050 3041 2159 2844 
Q 2313 3094 2522 3366 
L 3444 4581 
L 4103 4581 
L 2494 2422 
L 4228 0 
L 3478 0 
L 2325 1634 
Q 2228 1775 2125 1941 
Q 1972 1691 1906 1597 
L 756 0 
L 28 0 
z
" transform="scale(0.015625)"/>
       <path id="ArialMT-2d" d="M 203 1375 
L 203 1941 
L 1931 1941 
L 1931 1375 
L 203 1375 
z
" transform="scale(0.015625)"/>
       <path id="ArialMT-4c" d="M 469 0 
L 469 4581 
L 1075 4581 
L 1075 541 
L 3331 541 
L 3331 0 
L 469 0 
z
" transform="scale(0.015625)"/>
      </defs>
      <use xlink:href="#ArialMT-58"/>
      <use xlink:href="#ArialMT-2d" x="66.699219"/>
      <use xlink:href="#ArialMT-4c" x="100"/>
      <use xlink:href="#ArialMT-65" x="155.615234"/>
      <use xlink:href="#ArialMT-6e" x="211.230469"/>
      <use xlink:href="#ArialMT-67" x="266.845703"/>
      <use xlink:href="#ArialMT-74" x="322.460938"/>
      <use xlink:href="#ArialMT-68" x="350.244141"/>
     </g>
    </g>
    <g id="line2d_20">
     <path d="M 81.101562 77.380688 
L 99.101562 77.380688 
L 117.101562 77.380688 
" style="fill: none; stroke: #ff7f0e; stroke-width: 1.5; stroke-linecap: square"/>
    </g>
    <g id="text_20">
     <!-- Y-Length -->
     <g transform="translate(131.501563 83.680688) scale(0.18 -0.18)">
      <defs>
       <path id="ArialMT-59" d="M 1784 0 
L 1784 1941 
L 19 4581 
L 756 4581 
L 1659 3200 
Q 1909 2813 2125 2425 
Q 2331 2784 2625 3234 
L 3513 4581 
L 4219 4581 
L 2391 1941 
L 2391 0 
L 1784 0 
z
" transform="scale(0.015625)"/>
      </defs>
      <use xlink:href="#ArialMT-59"/>
      <use xlink:href="#ArialMT-2d" x="57.574219"/>
      <use xlink:href="#ArialMT-4c" x="90.875"/>
      <use xlink:href="#ArialMT-65" x="146.490234"/>
      <use xlink:href="#ArialMT-6e" x="202.105469"/>
      <use xlink:href="#ArialMT-67" x="257.720703"/>
      <use xlink:href="#ArialMT-74" x="313.335938"/>
      <use xlink:href="#ArialMT-68" x="341.119141"/>
     </g>
    </g>
    <g id="line2d_21">
     <path d="M 81.101562 103.053188 
L 99.101562 103.053188 
L 117.101562 103.053188 
" style="fill: none; stroke: #2ca02c; stroke-width: 1.5; stroke-linecap: square"/>
    </g>
    <g id="text_21">
     <!-- Z-Length -->
     <g transform="translate(131.501563 109.353188) scale(0.18 -0.18)">
      <defs>
       <path id="ArialMT-5a" d="M 128 0 
L 128 563 
L 2475 3497 
Q 2725 3809 2950 4041 
L 394 4041 
L 394 4581 
L 3675 4581 
L 3675 4041 
L 1103 863 
L 825 541 
L 3750 541 
L 3750 0 
L 128 0 
z
" transform="scale(0.015625)"/>
      </defs>
      <use xlink:href="#ArialMT-5a"/>
      <use xlink:href="#ArialMT-2d" x="61.083984"/>
      <use xlink:href="#ArialMT-4c" x="94.384766"/>
      <use xlink:href="#ArialMT-65" x="150"/>
      <use xlink:href="#ArialMT-6e" x="205.615234"/>
      <use xlink:href="#ArialMT-67" x="261.230469"/>
      <use xlink:href="#ArialMT-74" x="316.845703"/>
      <use xlink:href="#ArialMT-68" x="344.628906"/>
     </g>
    </g>
   </g>
  </g>
 </g>
 <defs>
  <clipPath id="peb88a57412">
   <rect x="64.901562" y="28.924125" width="446.4" height="332.64"/>
  </clipPath>
 </defs>
</svg>
