<?xml version="1.0" encoding="utf-8" standalone="no"?>
<!DOCTYPE svg PUBLIC "-//W3C//DTD SVG 1.1//EN"
  "http://www.w3.org/Graphics/SVG/1.1/DTD/svg11.dtd">
<svg xmlns:xlink="http://www.w3.org/1999/xlink" width="533.735469pt" height="412.854312pt" viewBox="0 0 533.735469 412.854312" xmlns="http://www.w3.org/2000/svg" version="1.1">
 <metadata>
  <rdf:RDF xmlns:dc="http://purl.org/dc/elements/1.1/" xmlns:cc="http://creativecommons.org/ns#" xmlns:rdf="http://www.w3.org/1999/02/22-rdf-syntax-ns#">
   <cc:Work>
    <dc:type rdf:resource="http://purl.org/dc/dcmitype/StillImage"/>
    <dc:date>2025-01-22T19:48:12.413611</dc:date>
    <dc:format>image/svg+xml</dc:format>
    <dc:creator>
     <cc:Agent>
      <dc:title>Matplotlib v3.9.0, https://matplotlib.org/</dc:title>
     </cc:Agent>
    </dc:creator>
   </cc:Work>
  </rdf:RDF>
 </metadata>
 <defs>
  <style type="text/css">*{stroke-linejoin: round; stroke-linecap: butt}</style>
 </defs>
 <g id="figure_1">
  <g id="patch_1">
   <path d="M 0 412.854312 
L 533.735469 412.854312 
L 533.735469 0 
L 0 0 
z
" style="fill: #ffffff"/>
  </g>
  <g id="axes_1">
   <g id="patch_2">
    <path d="M 65.120937 361.300875 
L 511.520937 361.300875 
L 511.520937 28.660875 
L 65.120937 28.660875 
z
" style="fill: #ffffff"/>
   </g>
   <g id="PolyCollection_1">
    <path d="M 66.603994 268.687193 
L 66.603994 380.070679 
L 116.107201 358.544688 
L 165.610562 338.599975 
L 215.113775 320.25938 
L 264.616976 303.533557 
L 314.120343 288.421158 
L 363.623556 274.908978 
L 413.126923 262.971619 
L 462.630135 252.571837 
L 512.133326 243.660268 
L 561.636693 236.175547 
L 611.139927 230.044378 
L 660.643118 225.181391 
L 710.146485 221.48921 
L 759.649675 218.858493 
L 809.153042 217.167845 
L 858.656277 216.283893 
L 908.159511 216.06124 
L 957.662834 216.342487 
L 1007.166069 216.958225 
L 1056.669392 217.72704 
L 1106.172626 218.455505 
L 1155.675861 218.938188 
L 1205.179184 218.957651 
L 1254.682595 218.284441 
L 1304.185564 216.677118 
L 1353.688976 213.882189 
L 1403.192299 209.634199 
L 1452.695356 203.655698 
L 1502.198768 195.65712 
L 1551.702091 185.337022 
L 1601.205502 172.381861 
L 1650.70856 156.466262 
L 1700.211971 137.252478 
L 1749.715206 114.391167 
L 1799.218263 87.520835 
L 1848.721675 56.267629 
L 1898.225086 20.246168 
L 1947.728144 -20.940796 
L 1997.231378 -67.703246 
L 2046.73479 -120.462817 
L 2046.73479 -219.462286 
L 2046.73479 -219.462286 
L 1997.231378 -173.695235 
L 1947.728144 -132.988823 
L 1898.225086 -97.015998 
L 1848.721675 -65.45625 
L 1799.218263 -37.996553 
L 1749.715206 -14.330614 
L 1700.211971 5.841437 
L 1650.70856 22.812307 
L 1601.205502 36.867724 
L 1551.702091 48.286931 
L 1502.198768 57.341999 
L 1452.695356 64.298301 
L 1403.192299 69.414281 
L 1353.688976 72.941645 
L 1304.185564 75.125153 
L 1254.682595 76.202731 
L 1205.179184 76.405481 
L 1155.675861 75.957629 
L 1106.172626 75.076561 
L 1056.669392 73.972807 
L 1007.166069 72.850047 
L 957.662834 71.905115 
L 908.159511 71.327986 
L 858.656277 71.301791 
L 809.153042 72.002804 
L 759.649675 73.600457 
L 710.146485 76.257313 
L 660.643118 80.129115 
L 611.139927 85.364707 
L 561.636693 92.10613 
L 512.133326 100.488573 
L 462.630135 110.640302 
L 413.126923 122.682818 
L 363.623556 136.73078 
L 314.120343 152.891867 
L 264.616976 171.267095 
L 215.113775 191.950409 
L 165.610562 215.029085 
L 116.107201 240.583562 
L 66.603994 268.687193 
z
" clip-path="url(#p49f0a2bee9)" style="fill: #1f77b4; fill-opacity: 0.2"/>
   </g>
   <g id="PolyCollection_2">
    <path d="M 66.603994 277.523903 
L 66.603994 369.814824 
L 116.107201 347.560725 
L 165.610562 328.163379 
L 215.113775 311.365351 
L 264.616976 296.920458 
L 314.120343 284.593971 
L 363.623556 274.162712 
L 413.126923 265.414789 
L 462.630135 258.149863 
L 512.133326 252.178948 
L 561.636693 247.324495 
L 611.139927 243.42044 
L 660.643118 240.312109 
L 710.146485 237.856257 
L 759.649675 235.921104 
L 809.153042 234.386268 
L 858.656277 233.142825 
L 908.159511 232.093267 
L 957.662834 231.151524 
L 1007.166069 230.24296 
L 1056.669392 229.304368 
L 1106.172626 228.283976 
L 1155.675861 227.141443 
L 1205.179184 225.847859 
L 1254.682595 224.385745 
L 1304.185564 222.749076 
L 1353.688976 220.94321 
L 1403.192299 218.984987 
L 1452.695356 216.902667 
L 1502.198768 214.735911 
L 1551.702091 212.535853 
L 1601.205502 210.365038 
L 1650.70856 208.297466 
L 1700.211971 206.418523 
L 1749.715206 204.825077 
L 1799.218263 203.625403 
L 1848.721675 202.939202 
L 1898.225086 202.897631 
L 1947.728144 203.643257 
L 1997.231378 205.330093 
L 2046.73479 208.12359 
L 2046.73479 536.058916 
L 2046.73479 536.058916 
L 1997.231378 448.430497 
L 1947.728144 373.341714 
L 1898.225086 309.616896 
L 1848.721675 256.13546 
L 1799.218263 211.833524 
L 1749.715206 175.702532 
L 1700.211971 146.788868 
L 1650.70856 124.195007 
L 1601.205502 107.079152 
L 1551.702091 94.654635 
L 1502.198768 86.190773 
L 1452.695356 81.012288 
L 1403.192299 78.499554 
L 1353.688976 78.088468 
L 1304.185564 79.27058 
L 1254.682595 81.592981 
L 1205.179184 84.658419 
L 1155.675861 88.125163 
L 1106.172626 91.707098 
L 1056.669392 95.173704 
L 1007.166069 98.350051 
L 957.662834 101.116784 
L 908.159511 103.410155 
L 858.656277 105.221989 
L 809.153042 106.599714 
L 759.649675 107.646343 
L 710.146485 108.520474 
L 660.643118 109.436304 
L 611.139927 110.663607 
L 561.636693 112.527758 
L 512.133326 115.409723 
L 462.630135 119.746034 
L 413.126923 126.028837 
L 363.623556 134.805891 
L 314.120343 146.680458 
L 264.616976 162.311523 
L 215.113775 182.413479 
L 165.610562 207.756462 
L 116.107201 239.166246 
L 66.603994 277.523903 
z
" clip-path="url(#p49f0a2bee9)" style="fill: #ff7f0e; fill-opacity: 0.2"/>
   </g>
   <g id="PolyCollection_3">
    <path d="M 66.603994 302.893112 
L 66.603994 393.66077 
L 116.107201 353.513373 
L 165.610562 320.656356 
L 215.113775 294.196661 
L 264.616976 273.29269 
L 314.120343 257.154653 
L 363.623556 245.044682 
L 413.126923 236.276482 
L 462.630135 230.215654 
L 512.133326 226.279475 
L 561.636693 223.937005 
L 611.139927 222.709088 
L 660.643118 222.168306 
L 710.146485 221.939007 
L 759.649675 221.697305 
L 809.153042 221.171066 
L 858.656277 220.139926 
L 908.159511 218.435277 
L 957.662834 215.940267 
L 1007.166069 212.58982 
L 1056.669392 208.370598 
L 1106.172626 203.321053 
L 1155.675861 197.531374 
L 1205.179184 191.143506 
L 1254.682595 184.351166 
L 1304.185564 177.399909 
L 1353.688976 170.58685 
L 1403.192299 164.261066 
L 1452.695356 158.823333 
L 1502.198768 154.72611 
L 1551.702091 152.473728 
L 1601.205502 152.622227 
L 1650.70856 155.779389 
L 1700.211971 162.604827 
L 1749.715206 173.809814 
L 1799.218263 190.157384 
L 1848.721675 212.46259 
L 1898.225086 241.591952 
L 1947.728144 278.463553 
L 1997.231378 324.047874 
L 2046.73479 379.366904 
L 2046.73479 578.609257 
L 2046.73479 578.609257 
L 1997.231378 454.416447 
L 1947.728144 350.134534 
L 1898.225086 263.786962 
L 1848.721675 193.491609 
L 1799.218263 137.462917 
L 1749.715206 94.009986 
L 1700.211971 61.536204 
L 1650.70856 38.540664 
L 1601.205502 23.617619 
L 1551.702091 15.455971 
L 1502.198768 12.840026 
L 1452.695356 14.649021 
L 1403.192299 19.857229 
L 1353.688976 27.534096 
L 1304.185564 36.844072 
L 1254.682595 47.04657 
L 1205.179184 57.496364 
L 1155.675861 67.643001 
L 1106.172626 77.031211 
L 1056.669392 85.300808 
L 1007.166069 92.186665 
L 957.662834 97.518689 
L 908.159511 101.221898 
L 858.656277 103.316343 
L 809.153042 103.917167 
L 759.649675 103.234567 
L 710.146485 101.573819 
L 660.643118 99.335249 
L 611.139927 97.014277 
L 561.636693 95.201365 
L 512.133326 94.582054 
L 462.630135 95.936954 
L 413.126923 100.141735 
L 363.623556 108.16717 
L 314.120343 121.079018 
L 264.616976 140.038245 
L 215.113775 166.30067 
L 165.610562 201.217365 
L 116.107201 246.234555 
L 66.603994 302.893112 
z
" clip-path="url(#p49f0a2bee9)" style="fill: #2ca02c; fill-opacity: 0.2"/>
   </g>
   <g id="matplotlib.axis_1">
    <g id="xtick_1">
     <g id="line2d_1">
      <defs>
       <path id="meccae05368" d="M 0 0 
L 0 3.5 
" style="stroke: #000000; stroke-width: 0.8"/>
      </defs>
      <g>
       <use xlink:href="#meccae05368" x="66.603994" y="361.300875" style="stroke: #000000; stroke-width: 0.8"/>
      </g>
     </g>
     <g id="text_1">
      <!-- 100 -->
      <g transform="translate(51.589463 381.184937) scale(0.18 -0.18)">
       <defs>
        <path id="ArialMT-31" d="M 2384 0 
L 1822 0 
L 1822 3584 
Q 1619 3391 1289 3197 
Q 959 3003 697 2906 
L 697 3450 
Q 1169 3672 1522 3987 
Q 1875 4303 2022 4600 
L 2384 4600 
L 2384 0 
z
" transform="scale(0.015625)"/>
        <path id="ArialMT-30" d="M 266 2259 
Q 266 3072 433 3567 
Q 600 4063 929 4331 
Q 1259 4600 1759 4600 
Q 2128 4600 2406 4451 
Q 2684 4303 2865 4023 
Q 3047 3744 3150 3342 
Q 3253 2941 3253 2259 
Q 3253 1453 3087 958 
Q 2922 463 2592 192 
Q 2263 -78 1759 -78 
Q 1097 -78 719 397 
Q 266 969 266 2259 
z
M 844 2259 
Q 844 1131 1108 757 
Q 1372 384 1759 384 
Q 2147 384 2411 759 
Q 2675 1134 2675 2259 
Q 2675 3391 2411 3762 
Q 2147 4134 1753 4134 
Q 1366 4134 1134 3806 
Q 844 3388 844 2259 
z
" transform="scale(0.015625)"/>
       </defs>
       <use xlink:href="#ArialMT-31"/>
       <use xlink:href="#ArialMT-30" x="55.615234"/>
       <use xlink:href="#ArialMT-30" x="111.230469"/>
      </g>
     </g>
    </g>
    <g id="xtick_2">
     <g id="line2d_2">
      <g>
       <use xlink:href="#meccae05368" x="140.756818" y="361.300875" style="stroke: #000000; stroke-width: 0.8"/>
      </g>
     </g>
     <g id="text_2">
      <!-- 105 -->
      <g transform="translate(125.742287 381.184937) scale(0.18 -0.18)">
       <defs>
        <path id="ArialMT-35" d="M 266 1200 
L 856 1250 
Q 922 819 1161 601 
Q 1400 384 1738 384 
Q 2144 384 2425 690 
Q 2706 997 2706 1503 
Q 2706 1984 2436 2262 
Q 2166 2541 1728 2541 
Q 1456 2541 1237 2417 
Q 1019 2294 894 2097 
L 366 2166 
L 809 4519 
L 3088 4519 
L 3088 3981 
L 1259 3981 
L 1013 2750 
Q 1425 3038 1878 3038 
Q 2478 3038 2890 2622 
Q 3303 2206 3303 1553 
Q 3303 931 2941 478 
Q 2500 -78 1738 -78 
Q 1113 -78 717 272 
Q 322 622 266 1200 
z
" transform="scale(0.015625)"/>
       </defs>
       <use xlink:href="#ArialMT-31"/>
       <use xlink:href="#ArialMT-30" x="55.615234"/>
       <use xlink:href="#ArialMT-35" x="111.230469"/>
      </g>
     </g>
    </g>
    <g id="xtick_3">
     <g id="line2d_3">
      <g>
       <use xlink:href="#meccae05368" x="214.909642" y="361.300875" style="stroke: #000000; stroke-width: 0.8"/>
      </g>
     </g>
     <g id="text_3">
      <!-- 110 -->
      <g transform="translate(200.558861 381.184937) scale(0.18 -0.18)">
       <use xlink:href="#ArialMT-31"/>
       <use xlink:href="#ArialMT-31" x="48.240234"/>
       <use xlink:href="#ArialMT-30" x="103.855469"/>
      </g>
     </g>
    </g>
    <g id="xtick_4">
     <g id="line2d_4">
      <g>
       <use xlink:href="#meccae05368" x="289.062466" y="361.300875" style="stroke: #000000; stroke-width: 0.8"/>
      </g>
     </g>
     <g id="text_4">
      <!-- 115 -->
      <g transform="translate(274.711684 381.184937) scale(0.18 -0.18)">
       <use xlink:href="#ArialMT-31"/>
       <use xlink:href="#ArialMT-31" x="48.240234"/>
       <use xlink:href="#ArialMT-35" x="103.855469"/>
      </g>
     </g>
    </g>
    <g id="xtick_5">
     <g id="line2d_5">
      <g>
       <use xlink:href="#meccae05368" x="363.21529" y="361.300875" style="stroke: #000000; stroke-width: 0.8"/>
      </g>
     </g>
     <g id="text_5">
      <!-- 120 -->
      <g transform="translate(348.200758 381.184937) scale(0.18 -0.18)">
       <defs>
        <path id="ArialMT-32" d="M 3222 541 
L 3222 0 
L 194 0 
Q 188 203 259 391 
Q 375 700 629 1000 
Q 884 1300 1366 1694 
Q 2113 2306 2375 2664 
Q 2638 3022 2638 3341 
Q 2638 3675 2398 3904 
Q 2159 4134 1775 4134 
Q 1369 4134 1125 3890 
Q 881 3647 878 3216 
L 300 3275 
Q 359 3922 746 4261 
Q 1134 4600 1788 4600 
Q 2447 4600 2831 4234 
Q 3216 3869 3216 3328 
Q 3216 3053 3103 2787 
Q 2991 2522 2730 2228 
Q 2469 1934 1863 1422 
Q 1356 997 1212 845 
Q 1069 694 975 541 
L 3222 541 
z
" transform="scale(0.015625)"/>
       </defs>
       <use xlink:href="#ArialMT-31"/>
       <use xlink:href="#ArialMT-32" x="55.615234"/>
       <use xlink:href="#ArialMT-30" x="111.230469"/>
      </g>
     </g>
    </g>
    <g id="xtick_6">
     <g id="line2d_6">
      <g>
       <use xlink:href="#meccae05368" x="437.368114" y="361.300875" style="stroke: #000000; stroke-width: 0.8"/>
      </g>
     </g>
     <g id="text_6">
      <!-- 125 -->
      <g transform="translate(422.353582 381.184937) scale(0.18 -0.18)">
       <use xlink:href="#ArialMT-31"/>
       <use xlink:href="#ArialMT-32" x="55.615234"/>
       <use xlink:href="#ArialMT-35" x="111.230469"/>
      </g>
     </g>
    </g>
    <g id="xtick_7">
     <g id="line2d_7">
      <g>
       <use xlink:href="#meccae05368" x="511.520938" y="361.300875" style="stroke: #000000; stroke-width: 0.8"/>
      </g>
     </g>
     <g id="text_7">
      <!-- 130 -->
      <g transform="translate(496.506406 381.184937) scale(0.18 -0.18)">
       <defs>
        <path id="ArialMT-33" d="M 269 1209 
L 831 1284 
Q 928 806 1161 595 
Q 1394 384 1728 384 
Q 2125 384 2398 659 
Q 2672 934 2672 1341 
Q 2672 1728 2419 1979 
Q 2166 2231 1775 2231 
Q 1616 2231 1378 2169 
L 1441 2663 
Q 1497 2656 1531 2656 
Q 1891 2656 2178 2843 
Q 2466 3031 2466 3422 
Q 2466 3731 2256 3934 
Q 2047 4138 1716 4138 
Q 1388 4138 1169 3931 
Q 950 3725 888 3313 
L 325 3413 
Q 428 3978 793 4289 
Q 1159 4600 1703 4600 
Q 2078 4600 2393 4439 
Q 2709 4278 2876 4000 
Q 3044 3722 3044 3409 
Q 3044 3113 2884 2869 
Q 2725 2625 2413 2481 
Q 2819 2388 3044 2092 
Q 3269 1797 3269 1353 
Q 3269 753 2831 336 
Q 2394 -81 1725 -81 
Q 1122 -81 723 278 
Q 325 638 269 1209 
z
" transform="scale(0.015625)"/>
       </defs>
       <use xlink:href="#ArialMT-31"/>
       <use xlink:href="#ArialMT-33" x="55.615234"/>
       <use xlink:href="#ArialMT-30" x="111.230469"/>
      </g>
     </g>
    </g>
    <g id="text_8">
     <!-- Strain(%) -->
     <g transform="translate(250.814844 401.865875) scale(0.18 -0.18)">
      <defs>
       <path id="ArialMT-53" d="M 288 1472 
L 859 1522 
Q 900 1178 1048 958 
Q 1197 738 1509 602 
Q 1822 466 2213 466 
Q 2559 466 2825 569 
Q 3091 672 3220 851 
Q 3350 1031 3350 1244 
Q 3350 1459 3225 1620 
Q 3100 1781 2813 1891 
Q 2628 1963 1997 2114 
Q 1366 2266 1113 2400 
Q 784 2572 623 2826 
Q 463 3081 463 3397 
Q 463 3744 659 4045 
Q 856 4347 1234 4503 
Q 1613 4659 2075 4659 
Q 2584 4659 2973 4495 
Q 3363 4331 3572 4012 
Q 3781 3694 3797 3291 
L 3216 3247 
Q 3169 3681 2898 3903 
Q 2628 4125 2100 4125 
Q 1550 4125 1298 3923 
Q 1047 3722 1047 3438 
Q 1047 3191 1225 3031 
Q 1400 2872 2139 2705 
Q 2878 2538 3153 2413 
Q 3553 2228 3743 1945 
Q 3934 1663 3934 1294 
Q 3934 928 3725 604 
Q 3516 281 3123 101 
Q 2731 -78 2241 -78 
Q 1619 -78 1198 103 
Q 778 284 539 648 
Q 300 1013 288 1472 
z
" transform="scale(0.015625)"/>
       <path id="ArialMT-74" d="M 1650 503 
L 1731 6 
Q 1494 -44 1306 -44 
Q 1000 -44 831 53 
Q 663 150 594 308 
Q 525 466 525 972 
L 525 2881 
L 113 2881 
L 113 3319 
L 525 3319 
L 525 4141 
L 1084 4478 
L 1084 3319 
L 1650 3319 
L 1650 2881 
L 1084 2881 
L 1084 941 
Q 1084 700 1114 631 
Q 1144 563 1211 522 
Q 1278 481 1403 481 
Q 1497 481 1650 503 
z
" transform="scale(0.015625)"/>
       <path id="ArialMT-72" d="M 416 0 
L 416 3319 
L 922 3319 
L 922 2816 
Q 1116 3169 1280 3281 
Q 1444 3394 1641 3394 
Q 1925 3394 2219 3213 
L 2025 2691 
Q 1819 2813 1613 2813 
Q 1428 2813 1281 2702 
Q 1134 2591 1072 2394 
Q 978 2094 978 1738 
L 978 0 
L 416 0 
z
" transform="scale(0.015625)"/>
       <path id="ArialMT-61" d="M 2588 409 
Q 2275 144 1986 34 
Q 1697 -75 1366 -75 
Q 819 -75 525 192 
Q 231 459 231 875 
Q 231 1119 342 1320 
Q 453 1522 633 1644 
Q 813 1766 1038 1828 
Q 1203 1872 1538 1913 
Q 2219 1994 2541 2106 
Q 2544 2222 2544 2253 
Q 2544 2597 2384 2738 
Q 2169 2928 1744 2928 
Q 1347 2928 1158 2789 
Q 969 2650 878 2297 
L 328 2372 
Q 403 2725 575 2942 
Q 747 3159 1072 3276 
Q 1397 3394 1825 3394 
Q 2250 3394 2515 3294 
Q 2781 3194 2906 3042 
Q 3031 2891 3081 2659 
Q 3109 2516 3109 2141 
L 3109 1391 
Q 3109 606 3145 398 
Q 3181 191 3288 0 
L 2700 0 
Q 2613 175 2588 409 
z
M 2541 1666 
Q 2234 1541 1622 1453 
Q 1275 1403 1131 1340 
Q 988 1278 909 1158 
Q 831 1038 831 891 
Q 831 666 1001 516 
Q 1172 366 1500 366 
Q 1825 366 2078 508 
Q 2331 650 2450 897 
Q 2541 1088 2541 1459 
L 2541 1666 
z
" transform="scale(0.015625)"/>
       <path id="ArialMT-69" d="M 425 3934 
L 425 4581 
L 988 4581 
L 988 3934 
L 425 3934 
z
M 425 0 
L 425 3319 
L 988 3319 
L 988 0 
L 425 0 
z
" transform="scale(0.015625)"/>
       <path id="ArialMT-6e" d="M 422 0 
L 422 3319 
L 928 3319 
L 928 2847 
Q 1294 3394 1984 3394 
Q 2284 3394 2536 3286 
Q 2788 3178 2913 3003 
Q 3038 2828 3088 2588 
Q 3119 2431 3119 2041 
L 3119 0 
L 2556 0 
L 2556 2019 
Q 2556 2363 2490 2533 
Q 2425 2703 2258 2804 
Q 2091 2906 1866 2906 
Q 1506 2906 1245 2678 
Q 984 2450 984 1813 
L 984 0 
L 422 0 
z
" transform="scale(0.015625)"/>
       <path id="ArialMT-28" d="M 1497 -1347 
Q 1031 -759 709 28 
Q 388 816 388 1659 
Q 388 2403 628 3084 
Q 909 3875 1497 4659 
L 1900 4659 
Q 1522 4009 1400 3731 
Q 1209 3300 1100 2831 
Q 966 2247 966 1656 
Q 966 153 1900 -1347 
L 1497 -1347 
z
" transform="scale(0.015625)"/>
       <path id="ArialMT-25" d="M 372 3481 
Q 372 3972 619 4315 
Q 866 4659 1334 4659 
Q 1766 4659 2048 4351 
Q 2331 4044 2331 3447 
Q 2331 2866 2045 2552 
Q 1759 2238 1341 2238 
Q 925 2238 648 2547 
Q 372 2856 372 3481 
z
M 1350 4272 
Q 1141 4272 1002 4090 
Q 863 3909 863 3425 
Q 863 2984 1003 2804 
Q 1144 2625 1350 2625 
Q 1563 2625 1702 2806 
Q 1841 2988 1841 3469 
Q 1841 3913 1700 4092 
Q 1559 4272 1350 4272 
z
M 1353 -169 
L 3859 4659 
L 4316 4659 
L 1819 -169 
L 1353 -169 
z
M 3334 1075 
Q 3334 1569 3581 1911 
Q 3828 2253 4300 2253 
Q 4731 2253 5014 1945 
Q 5297 1638 5297 1041 
Q 5297 459 5011 145 
Q 4725 -169 4303 -169 
Q 3888 -169 3611 142 
Q 3334 453 3334 1075 
z
M 4316 1866 
Q 4103 1866 3964 1684 
Q 3825 1503 3825 1019 
Q 3825 581 3965 400 
Q 4106 219 4313 219 
Q 4528 219 4667 400 
Q 4806 581 4806 1063 
Q 4806 1506 4665 1686 
Q 4525 1866 4316 1866 
z
" transform="scale(0.015625)"/>
       <path id="ArialMT-29" d="M 791 -1347 
L 388 -1347 
Q 1322 153 1322 1656 
Q 1322 2244 1188 2822 
Q 1081 3291 891 3722 
Q 769 4003 388 4659 
L 791 4659 
Q 1378 3875 1659 3084 
Q 1900 2403 1900 1659 
Q 1900 816 1576 28 
Q 1253 -759 791 -1347 
z
" transform="scale(0.015625)"/>
      </defs>
      <use xlink:href="#ArialMT-53"/>
      <use xlink:href="#ArialMT-74" x="66.699219"/>
      <use xlink:href="#ArialMT-72" x="94.482422"/>
      <use xlink:href="#ArialMT-61" x="127.783203"/>
      <use xlink:href="#ArialMT-69" x="183.398438"/>
      <use xlink:href="#ArialMT-6e" x="205.615234"/>
      <use xlink:href="#ArialMT-28" x="261.230469"/>
      <use xlink:href="#ArialMT-25" x="294.53125"/>
      <use xlink:href="#ArialMT-29" x="383.447266"/>
     </g>
    </g>
   </g>
   <g id="matplotlib.axis_2">
    <g id="ytick_1">
     <g id="line2d_8">
      <defs>
       <path id="m9c1486415e" d="M 0 0 
L -3.5 0 
" style="stroke: #000000; stroke-width: 0.8"/>
      </defs>
      <g>
       <use xlink:href="#m9c1486415e" x="65.120937" y="361.300875" style="stroke: #000000; stroke-width: 0.8"/>
      </g>
     </g>
     <g id="text_9">
      <!-- 0 -->
      <g transform="translate(48.11125 367.742906) scale(0.18 -0.18)">
       <use xlink:href="#ArialMT-30"/>
      </g>
     </g>
    </g>
    <g id="ytick_2">
     <g id="line2d_9">
      <g>
       <use xlink:href="#m9c1486415e" x="65.120937" y="313.780875" style="stroke: #000000; stroke-width: 0.8"/>
      </g>
     </g>
     <g id="text_10">
      <!-- 100 -->
      <g transform="translate(28.091875 320.222906) scale(0.18 -0.18)">
       <use xlink:href="#ArialMT-31"/>
       <use xlink:href="#ArialMT-30" x="55.615234"/>
       <use xlink:href="#ArialMT-30" x="111.230469"/>
      </g>
     </g>
    </g>
    <g id="ytick_3">
     <g id="line2d_10">
      <g>
       <use xlink:href="#m9c1486415e" x="65.120937" y="266.260875" style="stroke: #000000; stroke-width: 0.8"/>
      </g>
     </g>
     <g id="text_11">
      <!-- 200 -->
      <g transform="translate(28.091875 272.702906) scale(0.18 -0.18)">
       <use xlink:href="#ArialMT-32"/>
       <use xlink:href="#ArialMT-30" x="55.615234"/>
       <use xlink:href="#ArialMT-30" x="111.230469"/>
      </g>
     </g>
    </g>
    <g id="ytick_4">
     <g id="line2d_11">
      <g>
       <use xlink:href="#m9c1486415e" x="65.120937" y="218.740875" style="stroke: #000000; stroke-width: 0.8"/>
      </g>
     </g>
     <g id="text_12">
      <!-- 300 -->
      <g transform="translate(28.091875 225.182906) scale(0.18 -0.18)">
       <use xlink:href="#ArialMT-33"/>
       <use xlink:href="#ArialMT-30" x="55.615234"/>
       <use xlink:href="#ArialMT-30" x="111.230469"/>
      </g>
     </g>
    </g>
    <g id="ytick_5">
     <g id="line2d_12">
      <g>
       <use xlink:href="#m9c1486415e" x="65.120937" y="171.220875" style="stroke: #000000; stroke-width: 0.8"/>
      </g>
     </g>
     <g id="text_13">
      <!-- 400 -->
      <g transform="translate(28.091875 177.662906) scale(0.18 -0.18)">
       <defs>
        <path id="ArialMT-34" d="M 2069 0 
L 2069 1097 
L 81 1097 
L 81 1613 
L 2172 4581 
L 2631 4581 
L 2631 1613 
L 3250 1613 
L 3250 1097 
L 2631 1097 
L 2631 0 
L 2069 0 
z
M 2069 1613 
L 2069 3678 
L 634 1613 
L 2069 1613 
z
" transform="scale(0.015625)"/>
       </defs>
       <use xlink:href="#ArialMT-34"/>
       <use xlink:href="#ArialMT-30" x="55.615234"/>
       <use xlink:href="#ArialMT-30" x="111.230469"/>
      </g>
     </g>
    </g>
    <g id="ytick_6">
     <g id="line2d_13">
      <g>
       <use xlink:href="#m9c1486415e" x="65.120937" y="123.700875" style="stroke: #000000; stroke-width: 0.8"/>
      </g>
     </g>
     <g id="text_14">
      <!-- 500 -->
      <g transform="translate(28.091875 130.142906) scale(0.18 -0.18)">
       <use xlink:href="#ArialMT-35"/>
       <use xlink:href="#ArialMT-30" x="55.615234"/>
       <use xlink:href="#ArialMT-30" x="111.230469"/>
      </g>
     </g>
    </g>
    <g id="ytick_7">
     <g id="line2d_14">
      <g>
       <use xlink:href="#m9c1486415e" x="65.120937" y="76.180875" style="stroke: #000000; stroke-width: 0.8"/>
      </g>
     </g>
     <g id="text_15">
      <!-- 600 -->
      <g transform="translate(28.091875 82.622906) scale(0.18 -0.18)">
       <defs>
        <path id="ArialMT-36" d="M 3184 3459 
L 2625 3416 
Q 2550 3747 2413 3897 
Q 2184 4138 1850 4138 
Q 1581 4138 1378 3988 
Q 1113 3794 959 3422 
Q 806 3050 800 2363 
Q 1003 2672 1297 2822 
Q 1591 2972 1913 2972 
Q 2475 2972 2870 2558 
Q 3266 2144 3266 1488 
Q 3266 1056 3080 686 
Q 2894 316 2569 119 
Q 2244 -78 1831 -78 
Q 1128 -78 684 439 
Q 241 956 241 2144 
Q 241 3472 731 4075 
Q 1159 4600 1884 4600 
Q 2425 4600 2770 4297 
Q 3116 3994 3184 3459 
z
M 888 1484 
Q 888 1194 1011 928 
Q 1134 663 1356 523 
Q 1578 384 1822 384 
Q 2178 384 2434 671 
Q 2691 959 2691 1453 
Q 2691 1928 2437 2201 
Q 2184 2475 1800 2475 
Q 1419 2475 1153 2201 
Q 888 1928 888 1484 
z
" transform="scale(0.015625)"/>
       </defs>
       <use xlink:href="#ArialMT-36"/>
       <use xlink:href="#ArialMT-30" x="55.615234"/>
       <use xlink:href="#ArialMT-30" x="111.230469"/>
      </g>
     </g>
    </g>
    <g id="ytick_8">
     <g id="line2d_15">
      <g>
       <use xlink:href="#m9c1486415e" x="65.120937" y="28.660875" style="stroke: #000000; stroke-width: 0.8"/>
      </g>
     </g>
     <g id="text_16">
      <!-- 700 -->
      <g transform="translate(28.091875 35.102906) scale(0.18 -0.18)">
       <defs>
        <path id="ArialMT-37" d="M 303 3981 
L 303 4522 
L 3269 4522 
L 3269 4084 
Q 2831 3619 2401 2847 
Q 1972 2075 1738 1259 
Q 1569 684 1522 0 
L 944 0 
Q 953 541 1156 1306 
Q 1359 2072 1739 2783 
Q 2119 3494 2547 3981 
L 303 3981 
z
" transform="scale(0.015625)"/>
       </defs>
       <use xlink:href="#ArialMT-37"/>
       <use xlink:href="#ArialMT-30" x="55.615234"/>
       <use xlink:href="#ArialMT-30" x="111.230469"/>
      </g>
     </g>
    </g>
    <g id="text_17">
     <!-- Stress(MPa) -->
     <g transform="translate(20.303437 244.984312) rotate(-90) scale(0.18 -0.18)">
      <defs>
       <path id="ArialMT-65" d="M 2694 1069 
L 3275 997 
Q 3138 488 2766 206 
Q 2394 -75 1816 -75 
Q 1088 -75 661 373 
Q 234 822 234 1631 
Q 234 2469 665 2931 
Q 1097 3394 1784 3394 
Q 2450 3394 2872 2941 
Q 3294 2488 3294 1666 
Q 3294 1616 3291 1516 
L 816 1516 
Q 847 969 1125 678 
Q 1403 388 1819 388 
Q 2128 388 2347 550 
Q 2566 713 2694 1069 
z
M 847 1978 
L 2700 1978 
Q 2663 2397 2488 2606 
Q 2219 2931 1791 2931 
Q 1403 2931 1139 2672 
Q 875 2413 847 1978 
z
" transform="scale(0.015625)"/>
       <path id="ArialMT-73" d="M 197 991 
L 753 1078 
Q 800 744 1014 566 
Q 1228 388 1613 388 
Q 2000 388 2187 545 
Q 2375 703 2375 916 
Q 2375 1106 2209 1216 
Q 2094 1291 1634 1406 
Q 1016 1563 777 1677 
Q 538 1791 414 1992 
Q 291 2194 291 2438 
Q 291 2659 392 2848 
Q 494 3038 669 3163 
Q 800 3259 1026 3326 
Q 1253 3394 1513 3394 
Q 1903 3394 2198 3281 
Q 2494 3169 2634 2976 
Q 2775 2784 2828 2463 
L 2278 2388 
Q 2241 2644 2061 2787 
Q 1881 2931 1553 2931 
Q 1166 2931 1000 2803 
Q 834 2675 834 2503 
Q 834 2394 903 2306 
Q 972 2216 1119 2156 
Q 1203 2125 1616 2013 
Q 2213 1853 2448 1751 
Q 2684 1650 2818 1456 
Q 2953 1263 2953 975 
Q 2953 694 2789 445 
Q 2625 197 2315 61 
Q 2006 -75 1616 -75 
Q 969 -75 630 194 
Q 291 463 197 991 
z
" transform="scale(0.015625)"/>
       <path id="ArialMT-4d" d="M 475 0 
L 475 4581 
L 1388 4581 
L 2472 1338 
Q 2622 884 2691 659 
Q 2769 909 2934 1394 
L 4031 4581 
L 4847 4581 
L 4847 0 
L 4263 0 
L 4263 3834 
L 2931 0 
L 2384 0 
L 1059 3900 
L 1059 0 
L 475 0 
z
" transform="scale(0.015625)"/>
       <path id="ArialMT-50" d="M 494 0 
L 494 4581 
L 2222 4581 
Q 2678 4581 2919 4538 
Q 3256 4481 3484 4323 
Q 3713 4166 3852 3881 
Q 3991 3597 3991 3256 
Q 3991 2672 3619 2267 
Q 3247 1863 2275 1863 
L 1100 1863 
L 1100 0 
L 494 0 
z
M 1100 2403 
L 2284 2403 
Q 2872 2403 3119 2622 
Q 3366 2841 3366 3238 
Q 3366 3525 3220 3729 
Q 3075 3934 2838 4000 
Q 2684 4041 2272 4041 
L 1100 4041 
L 1100 2403 
z
" transform="scale(0.015625)"/>
      </defs>
      <use xlink:href="#ArialMT-53"/>
      <use xlink:href="#ArialMT-74" x="66.699219"/>
      <use xlink:href="#ArialMT-72" x="94.482422"/>
      <use xlink:href="#ArialMT-65" x="127.783203"/>
      <use xlink:href="#ArialMT-73" x="183.398438"/>
      <use xlink:href="#ArialMT-73" x="233.398438"/>
      <use xlink:href="#ArialMT-28" x="283.398438"/>
      <use xlink:href="#ArialMT-4d" x="316.699219"/>
      <use xlink:href="#ArialMT-50" x="400"/>
      <use xlink:href="#ArialMT-61" x="466.699219"/>
      <use xlink:href="#ArialMT-29" x="522.314453"/>
     </g>
    </g>
   </g>
   <g id="line2d_16">
    <path d="M 66.603994 312.942956 
L 82.888506 304.807237 
L 99.173019 296.901952 
L 115.45767 289.226182 
L 131.742181 281.779096 
L 148.026836 274.559489 
L 164.311347 267.566303 
L 180.595996 260.798121 
L 196.880512 254.253646 
L 213.165029 247.931305 
L 229.449678 241.829419 
L 245.734183 235.94635 
L 262.018832 230.280142 
L 278.30336 224.828927 
L 294.587998 219.590551 
L 310.872525 214.562902 
L 327.157163 209.743615 
L 343.441691 205.130348 
L 359.726329 200.720522 
L 376.010834 196.511573 
L 392.295494 192.500686 
L 408.58 188.685088 
L 424.86466 185.061744 
L 441.149165 181.627649 
L 457.43367 178.379585 
L 473.718353 175.314225 
L 494.074073 171.734324 
L 514.429837 168.427718 
L 534.735469 165.394475 
L 534.735469 165.394475 
" clip-path="url(#p49f0a2bee9)" style="fill: none; stroke: #1f77b4; stroke-width: 1.5; stroke-linecap: square"/>
   </g>
   <g id="line2d_17">
    <path d="M 66.603994 309.438887 
L 78.282471 302.835402 
L 89.961084 296.459637 
L 101.639562 290.306346 
L 113.318036 284.370125 
L 124.996652 278.645638 
L 136.675267 273.127755 
L 148.353877 267.811337 
L 160.032355 262.691364 
L 171.710832 257.76276 
L 183.389442 253.020523 
L 198.960837 246.979129 
L 214.532233 241.249068 
L 230.103761 235.819088 
L 245.675023 230.678318 
L 261.246551 225.815779 
L 276.817936 221.220997 
L 292.389342 216.883518 
L 307.960726 212.793148 
L 323.532133 208.939876 
L 339.103649 205.313878 
L 354.674923 201.905634 
L 370.24644 198.705636 
L 385.817846 195.704757 
L 401.389231 192.89398 
L 420.8534 189.634455 
L 440.317702 186.641453 
L 459.782027 183.89874 
L 479.246351 181.39055 
L 498.710498 179.101628 
L 518.174822 177.017143 
L 534.735469 175.394566 
L 534.735469 175.394566 
" clip-path="url(#p49f0a2bee9)" style="fill: none; stroke: #ff7f0e; stroke-width: 1.5; stroke-linecap: square"/>
   </g>
   <g id="line2d_18">
    <path d="M 66.603994 333.217361 
L 74.459886 325.616413 
L 82.316189 318.255318 
L 90.172218 311.129997 
L 98.028384 304.235385 
L 105.884413 297.567081 
L 113.74058 291.120249 
L 121.596746 284.890449 
L 129.452775 278.873268 
L 137.308942 273.064017 
L 145.16497 267.458468 
L 153.021137 262.05203 
L 160.877298 256.840457 
L 168.733465 251.819433 
L 176.589499 246.984775 
L 184.445665 242.332096 
L 192.301832 237.857294 
L 200.157855 233.556306 
L 211.941967 227.421573 
L 223.726223 221.654797 
L 235.510335 216.242671 
L 247.294579 211.171832 
L 259.078835 206.429314 
L 270.862935 202.002366 
L 282.647058 197.878315 
L 294.431292 194.044747 
L 306.215415 190.489556 
L 317.999538 187.200739 
L 329.783904 184.166484 
L 341.568027 181.375372 
L 353.352128 178.816014 
L 365.136383 176.477256 
L 376.920506 174.34825 
L 388.704607 172.418275 
L 400.488995 170.676804 
L 412.273118 169.113648 
L 427.985297 167.289396 
L 443.697519 165.740952 
L 459.409698 164.445732 
L 475.121877 163.38181 
L 490.834232 162.527926 
L 506.546411 161.863514 
L 526.18669 161.269155 
L 534.735469 161.084278 
L 534.735469 161.084278 
" clip-path="url(#p49f0a2bee9)" style="fill: none; stroke: #2ca02c; stroke-width: 1.5; stroke-linecap: square"/>
   </g>
   <g id="patch_3">
    <path d="M 65.120937 361.300875 
L 65.120937 28.660875 
" style="fill: none; stroke: #000000; stroke-width: 0.8; stroke-linejoin: miter; stroke-linecap: square"/>
   </g>
   <g id="patch_4">
    <path d="M 511.520937 361.300875 
L 511.520937 28.660875 
" style="fill: none; stroke: #000000; stroke-width: 0.8; stroke-linejoin: miter; stroke-linecap: square"/>
   </g>
   <g id="patch_5">
    <path d="M 65.120938 361.300875 
L 511.520938 361.300875 
" style="fill: none; stroke: #000000; stroke-width: 0.8; stroke-linejoin: miter; stroke-linecap: square"/>
   </g>
   <g id="patch_6">
    <path d="M 65.120938 28.660875 
L 511.520938 28.660875 
" style="fill: none; stroke: #000000; stroke-width: 0.8; stroke-linejoin: miter; stroke-linecap: square"/>
   </g>
   <g id="text_18">
    <!-- Stress-Strain Curve -->
    <g transform="translate(194.099375 22.660875) scale(0.216 -0.216)">
     <defs>
      <path id="ArialMT-2d" d="M 203 1375 
L 203 1941 
L 1931 1941 
L 1931 1375 
L 203 1375 
z
" transform="scale(0.015625)"/>
      <path id="ArialMT-20" transform="scale(0.015625)"/>
      <path id="ArialMT-43" d="M 3763 1606 
L 4369 1453 
Q 4178 706 3683 314 
Q 3188 -78 2472 -78 
Q 1731 -78 1267 223 
Q 803 525 561 1097 
Q 319 1669 319 2325 
Q 319 3041 592 3573 
Q 866 4106 1370 4382 
Q 1875 4659 2481 4659 
Q 3169 4659 3637 4309 
Q 4106 3959 4291 3325 
L 3694 3184 
Q 3534 3684 3231 3912 
Q 2928 4141 2469 4141 
Q 1941 4141 1586 3887 
Q 1231 3634 1087 3207 
Q 944 2781 944 2328 
Q 944 1744 1114 1308 
Q 1284 872 1643 656 
Q 2003 441 2422 441 
Q 2931 441 3284 734 
Q 3638 1028 3763 1606 
z
" transform="scale(0.015625)"/>
      <path id="ArialMT-75" d="M 2597 0 
L 2597 488 
Q 2209 -75 1544 -75 
Q 1250 -75 995 37 
Q 741 150 617 320 
Q 494 491 444 738 
Q 409 903 409 1263 
L 409 3319 
L 972 3319 
L 972 1478 
Q 972 1038 1006 884 
Q 1059 663 1231 536 
Q 1403 409 1656 409 
Q 1909 409 2131 539 
Q 2353 669 2445 892 
Q 2538 1116 2538 1541 
L 2538 3319 
L 3100 3319 
L 3100 0 
L 2597 0 
z
" transform="scale(0.015625)"/>
      <path id="ArialMT-76" d="M 1344 0 
L 81 3319 
L 675 3319 
L 1388 1331 
Q 1503 1009 1600 663 
Q 1675 925 1809 1294 
L 2547 3319 
L 3125 3319 
L 1869 0 
L 1344 0 
z
" transform="scale(0.015625)"/>
     </defs>
     <use xlink:href="#ArialMT-53"/>
     <use xlink:href="#ArialMT-74" x="66.699219"/>
     <use xlink:href="#ArialMT-72" x="94.482422"/>
     <use xlink:href="#ArialMT-65" x="127.783203"/>
     <use xlink:href="#ArialMT-73" x="183.398438"/>
     <use xlink:href="#ArialMT-73" x="233.398438"/>
     <use xlink:href="#ArialMT-2d" x="283.398438"/>
     <use xlink:href="#ArialMT-53" x="316.699219"/>
     <use xlink:href="#ArialMT-74" x="383.398438"/>
     <use xlink:href="#ArialMT-72" x="411.181641"/>
     <use xlink:href="#ArialMT-61" x="444.482422"/>
     <use xlink:href="#ArialMT-69" x="500.097656"/>
     <use xlink:href="#ArialMT-6e" x="522.314453"/>
     <use xlink:href="#ArialMT-20" x="577.929688"/>
     <use xlink:href="#ArialMT-43" x="605.712891"/>
     <use xlink:href="#ArialMT-75" x="677.929688"/>
     <use xlink:href="#ArialMT-72" x="733.544922"/>
     <use xlink:href="#ArialMT-76" x="766.845703"/>
     <use xlink:href="#ArialMT-65" x="816.845703"/>
    </g>
   </g>
   <g id="legend_1">
    <g id="patch_7">
     <path d="M 77.720937 120.103687 
L 205.340937 120.103687 
Q 208.940937 120.103687 208.940937 116.503687 
L 208.940937 41.260875 
Q 208.940937 37.660875 205.340937 37.660875 
L 77.720937 37.660875 
Q 74.120937 37.660875 74.120937 41.260875 
L 74.120937 116.503687 
Q 74.120937 120.103687 77.720937 120.103687 
z
" style="fill: #ffffff; opacity: 0.8; stroke: #cccccc; stroke-linejoin: miter"/>
    </g>
    <g id="line2d_19">
     <path d="M 81.320937 51.664313 
L 99.320937 51.664313 
L 117.320937 51.664313 
" style="fill: none; stroke: #1f77b4; stroke-width: 1.5; stroke-linecap: square"/>
    </g>
    <g id="text_19">
     <!-- FS1M_X -->
     <g transform="translate(131.720937 57.964313) scale(0.18 -0.18)">
      <defs>
       <path id="ArialMT-46" d="M 525 0 
L 525 4581 
L 3616 4581 
L 3616 4041 
L 1131 4041 
L 1131 2622 
L 3281 2622 
L 3281 2081 
L 1131 2081 
L 1131 0 
L 525 0 
z
" transform="scale(0.015625)"/>
       <path id="ArialMT-5f" d="M -97 -1272 
L -97 -866 
L 3631 -866 
L 3631 -1272 
L -97 -1272 
z
" transform="scale(0.015625)"/>
       <path id="ArialMT-58" d="M 28 0 
L 1800 2388 
L 238 4581 
L 959 4581 
L 1791 3406 
Q 2050 3041 2159 2844 
Q 2313 3094 2522 3366 
L 3444 4581 
L 4103 4581 
L 2494 2422 
L 4228 0 
L 3478 0 
L 2325 1634 
Q 2228 1775 2125 1941 
Q 1972 1691 1906 1597 
L 756 0 
L 28 0 
z
" transform="scale(0.015625)"/>
      </defs>
      <use xlink:href="#ArialMT-46"/>
      <use xlink:href="#ArialMT-53" x="61.083984"/>
      <use xlink:href="#ArialMT-31" x="127.783203"/>
      <use xlink:href="#ArialMT-4d" x="183.398438"/>
      <use xlink:href="#ArialMT-5f" x="266.699219"/>
      <use xlink:href="#ArialMT-58" x="322.314453"/>
     </g>
    </g>
    <g id="line2d_20">
     <path d="M 81.320937 77.34525 
L 99.320937 77.34525 
L 117.320937 77.34525 
" style="fill: none; stroke: #ff7f0e; stroke-width: 1.5; stroke-linecap: square"/>
    </g>
    <g id="text_20">
     <!-- FS1M_Y -->
     <g transform="translate(131.720937 83.64525) scale(0.18 -0.18)">
      <defs>
       <path id="ArialMT-59" d="M 1784 0 
L 1784 1941 
L 19 4581 
L 756 4581 
L 1659 3200 
Q 1909 2813 2125 2425 
Q 2331 2784 2625 3234 
L 3513 4581 
L 4219 4581 
L 2391 1941 
L 2391 0 
L 1784 0 
z
" transform="scale(0.015625)"/>
      </defs>
      <use xlink:href="#ArialMT-46"/>
      <use xlink:href="#ArialMT-53" x="61.083984"/>
      <use xlink:href="#ArialMT-31" x="127.783203"/>
      <use xlink:href="#ArialMT-4d" x="183.398438"/>
      <use xlink:href="#ArialMT-5f" x="266.699219"/>
      <use xlink:href="#ArialMT-59" x="322.314453"/>
     </g>
    </g>
    <g id="line2d_21">
     <path d="M 81.320937 103.026188 
L 99.320937 103.026188 
L 117.320937 103.026188 
" style="fill: none; stroke: #2ca02c; stroke-width: 1.5; stroke-linecap: square"/>
    </g>
    <g id="text_21">
     <!-- FS1M_Z -->
     <g transform="translate(131.720937 109.326188) scale(0.18 -0.18)">
      <defs>
       <path id="ArialMT-5a" d="M 128 0 
L 128 563 
L 2475 3497 
Q 2725 3809 2950 4041 
L 394 4041 
L 394 4581 
L 3675 4581 
L 3675 4041 
L 1103 863 
L 825 541 
L 3750 541 
L 3750 0 
L 128 0 
z
" transform="scale(0.015625)"/>
      </defs>
      <use xlink:href="#ArialMT-46"/>
      <use xlink:href="#ArialMT-53" x="61.083984"/>
      <use xlink:href="#ArialMT-31" x="127.783203"/>
      <use xlink:href="#ArialMT-4d" x="183.398438"/>
      <use xlink:href="#ArialMT-5f" x="266.699219"/>
      <use xlink:href="#ArialMT-5a" x="322.314453"/>
     </g>
    </g>
   </g>
  </g>
 </g>
 <defs>
  <clipPath id="p49f0a2bee9">
   <rect x="65.120937" y="28.660875" width="446.4" height="332.64"/>
  </clipPath>
 </defs>
</svg>
