<?xml version="1.0" encoding="utf-8" standalone="no"?>
<!DOCTYPE svg PUBLIC "-//W3C//DTD SVG 1.1//EN"
  "http://www.w3.org/Graphics/SVG/1.1/DTD/svg11.dtd">
<svg xmlns:xlink="http://www.w3.org/1999/xlink" width="533.516094pt" height="413.117563pt" viewBox="0 0 533.516094 413.117563" xmlns="http://www.w3.org/2000/svg" version="1.1">
 <metadata>
  <rdf:RDF xmlns:dc="http://purl.org/dc/elements/1.1/" xmlns:cc="http://creativecommons.org/ns#" xmlns:rdf="http://www.w3.org/1999/02/22-rdf-syntax-ns#">
   <cc:Work>
    <dc:type rdf:resource="http://purl.org/dc/dcmitype/StillImage"/>
    <dc:date>2025-05-27T07:42:01.062929</dc:date>
    <dc:format>image/svg+xml</dc:format>
    <dc:creator>
     <cc:Agent>
      <dc:title>Matplotlib v3.9.0, https://matplotlib.org/</dc:title>
     </cc:Agent>
    </dc:creator>
   </cc:Work>
  </rdf:RDF>
 </metadata>
 <defs>
  <style type="text/css">*{stroke-linejoin: round; stroke-linecap: butt}</style>
 </defs>
 <g id="figure_1">
  <g id="patch_1">
   <path d="M 0 413.117563 
L 533.516094 413.117563 
L 533.516094 0 
L 0 0 
z
" style="fill: #ffffff"/>
  </g>
  <g id="axes_1">
   <g id="patch_2">
    <path d="M 64.901562 361.564125 
L 511.301562 361.564125 
L 511.301562 28.924125 
L 64.901562 28.924125 
z
" style="fill: #ffffff"/>
   </g>
   <g id="PolyCollection_1">
    <path d="M 66.384619 199.615945 
L 66.384619 328.011036 
L 86.740141 308.201349 
L 107.096029 293.230657 
L 127.451551 282.398414 
L 147.80744 275.067709 
L 168.162962 270.663302 
L 188.51885 268.667052 
L 208.874372 268.615207 
L 229.23026 270.094787 
L 249.585782 272.740424 
L 269.94167 276.231434 
L 290.297559 280.288526 
L 310.653081 284.670968 
L 331.008969 289.174037 
L 351.364491 293.625719 
L 371.720379 297.884694 
L 392.075901 301.837142 
L 412.43179 305.394884 
L 432.787312 308.492439 
L 453.1432 311.085252 
L 473.498722 313.147054 
L 493.85461 314.668132 
L 514.210498 315.653039 
L 534.56602 316.118828 
L 554.921909 316.093206 
L 575.277431 315.612767 
L 595.633319 314.721341 
L 615.988841 313.468513 
L 636.344729 311.908037 
L 656.700251 310.096643 
L 677.056139 308.092541 
L 697.411662 305.954489 
L 717.76755 303.740421 
L 738.123438 301.506702 
L 758.47896 299.307106 
L 778.834848 297.19188 
L 799.19037 295.207283 
L 819.546259 293.394656 
L 839.901781 291.790159 
L 860.257669 290.424057 
L 880.613191 289.320591 
L 900.969079 288.497515 
L 921.324601 287.966072 
L 941.680489 287.730796 
L 962.036378 287.789591 
L 982.3919 288.133782 
L 1002.747788 288.748342 
L 1023.10331 289.612119 
L 1043.459198 290.698296 
L 1063.81472 291.97473 
L 1084.170608 293.404664 
L 1104.526131 294.94719 
L 1124.882019 296.558194 
L 1145.237541 298.190965 
L 1165.593429 299.797346 
L 1185.949317 301.328541 
L 1206.304839 302.736319 
L 1226.660728 303.974277 
L 1247.01625 304.998957 
L 1267.372138 305.771407 
L 1287.72766 306.258504 
L 1308.083548 306.434622 
L 1328.43907 306.283229 
L 1348.794958 305.798647 
L 1369.150481 304.987918 
L 1389.506369 303.872664 
L 1409.861891 302.491222 
L 1430.217779 300.900598 
L 1450.573667 299.178839 
L 1470.929189 297.42726 
L 1491.285077 295.772727 
L 1511.6406 294.370357 
L 1531.996488 293.405854 
L 1552.35201 293.098368 
L 1572.707898 293.703121 
L 1593.06342 295.51428 
L 1613.419308 298.868005 
L 1633.77483 304.145189 
L 1654.130719 311.775092 
L 1674.486607 322.237977 
L 1694.842129 336.068468 
L 1694.842129 228.098852 
L 1694.842129 228.098852 
L 1674.486607 218.923923 
L 1654.130719 212.17606 
L 1633.77483 207.436224 
L 1613.419308 204.330406 
L 1593.06342 202.526811 
L 1572.707898 201.73344 
L 1552.35201 201.695149 
L 1531.996488 202.191201 
L 1511.6406 203.032734 
L 1491.285077 204.060285 
L 1470.929189 205.141552 
L 1450.573667 206.168988 
L 1430.217779 207.057766 
L 1409.861891 207.743539 
L 1389.506369 208.180483 
L 1369.150481 208.339357 
L 1348.794958 208.205592 
L 1328.43907 207.777522 
L 1308.083548 207.064693 
L 1287.72766 206.086172 
L 1267.372138 204.869095 
L 1247.01625 203.447059 
L 1226.660728 201.8589 
L 1206.304839 200.147177 
L 1185.949317 198.357164 
L 1165.593429 196.535456 
L 1145.237541 194.729108 
L 1124.882019 192.984549 
L 1104.526131 191.346566 
L 1084.170608 189.857687 
L 1063.81472 188.557188 
L 1043.459198 187.480624 
L 1023.10331 186.65905 
L 1002.747788 186.118651 
L 982.3919 185.880183 
L 962.036378 185.958695 
L 941.680489 186.363208 
L 921.324601 187.096518 
L 900.969079 188.155054 
L 880.613191 189.528916 
L 860.257669 191.20176 
L 839.901781 193.151118 
L 819.546259 195.348345 
L 799.19037 197.759177 
L 778.834848 200.343767 
L 758.47896 203.057465 
L 738.123438 205.85096 
L 717.76755 208.671254 
L 697.411662 211.461994 
L 677.056139 214.164366 
L 656.700251 216.718073 
L 636.344729 219.061909 
L 615.988841 221.135111 
L 595.633319 222.878091 
L 575.277431 224.233881 
L 554.921909 225.149111 
L 534.56602 225.575505 
L 514.210498 225.471136 
L 493.85461 224.801955 
L 473.498722 223.543319 
L 453.1432 221.681657 
L 432.787312 219.216026 
L 412.43179 216.160152 
L 392.075901 212.543941 
L 371.720379 208.415853 
L 351.364491 203.844407 
L 331.008969 198.920871 
L 310.653081 193.760787 
L 290.297559 188.506929 
L 269.94167 183.330911 
L 249.585782 178.436261 
L 229.23026 174.060609 
L 208.874372 170.478052 
L 188.51885 168.002317 
L 168.162962 166.989013 
L 147.80744 167.838765 
L 127.451551 170.999995 
L 107.096029 176.971741 
L 86.740141 186.307197 
L 66.384619 199.615945 
z
" clip-path="url(#p7df4081492)" style="fill: #1f77b4; fill-opacity: 0.2"/>
   </g>
   <g id="PolyCollection_2">
    <path d="M 66.384619 209.770796 
L 66.384619 338.130393 
L 85.849034 316.279781 
L 105.313092 298.011027 
L 124.777508 282.933091 
L 144.241566 270.683662 
L 163.705981 260.925785 
L 183.170396 253.348464 
L 202.634454 247.664725 
L 222.09887 243.610421 
L 241.562928 240.943842 
L 261.027343 239.444079 
L 280.491401 238.910431 
L 299.955816 239.161184 
L 319.420232 240.032762 
L 338.88429 241.378707 
L 358.348705 243.068876 
L 377.812763 244.988357 
L 397.277178 247.036822 
L 416.741236 249.127388 
L 436.205652 251.186075 
L 455.670067 253.150714 
L 475.134125 254.970267 
L 494.59854 256.604141 
L 514.062598 258.0212 
L 533.527014 259.199257 
L 552.991071 260.124152 
L 572.455487 260.78922 
L 591.919902 261.194476 
L 611.38396 261.346034 
L 630.848376 261.255444 
L 650.312433 260.939069 
L 669.776849 260.41747 
L 689.240907 259.714869 
L 708.705322 258.858515 
L 728.169738 257.878224 
L 747.633795 256.805833 
L 767.098211 255.674628 
L 786.562269 254.519002 
L 806.026684 253.373838 
L 825.4911 252.274208 
L 844.955157 251.254894 
L 864.419573 250.349929 
L 883.883631 249.592346 
L 903.348046 249.013689 
L 922.812104 248.643779 
L 942.276519 248.510315 
L 961.740935 248.638631 
L 981.204993 249.051374 
L 1000.669408 249.768288 
L 1020.133466 250.805912 
L 1039.597881 252.177464 
L 1059.061939 253.89249 
L 1078.526355 255.956887 
L 1097.99077 258.372543 
L 1117.454828 261.137258 
L 1136.919243 264.244811 
L 1156.383301 267.68449 
L 1175.847717 271.44147 
L 1195.311774 275.496249 
L 1214.77619 279.825163 
L 1234.240605 284.399856 
L 1253.704663 289.187492 
L 1273.169079 294.151055 
L 1292.633136 299.248773 
L 1312.097552 304.434902 
L 1331.56161 309.659069 
L 1351.026025 314.867127 
L 1370.490441 320.00061 
L 1389.954498 324.997172 
L 1409.418914 329.791016 
L 1428.882972 334.312449 
L 1448.347387 338.488778 
L 1467.811445 342.243878 
L 1487.27586 345.499047 
L 1506.740276 348.172757 
L 1526.204334 350.181206 
L 1545.668749 351.438673 
L 1565.132807 351.857625 
L 1584.597222 351.349236 
L 1604.061638 349.823662 
L 1623.525696 347.190527 
L 1623.525696 244.156547 
L 1623.525696 244.156547 
L 1604.061638 248.520943 
L 1584.597222 251.510008 
L 1565.132807 253.255784 
L 1545.668749 253.884737 
L 1526.204334 253.517679 
L 1506.740276 252.269729 
L 1487.27586 250.250273 
L 1467.811445 247.563096 
L 1448.347387 244.306388 
L 1428.882972 240.572536 
L 1409.418914 236.448604 
L 1389.954498 232.015828 
L 1370.490441 227.350272 
L 1351.026025 222.522239 
L 1331.56161 217.596929 
L 1312.097552 212.634261 
L 1292.633136 207.688676 
L 1273.169079 202.809862 
L 1253.704663 198.04213 
L 1234.240605 193.425236 
L 1214.77619 188.993791 
L 1195.311774 184.777986 
L 1175.847717 180.803449 
L 1156.383301 177.091177 
L 1136.919243 173.658183 
L 1117.454828 170.517103 
L 1097.99077 167.676856 
L 1078.526355 165.142357 
L 1059.061939 162.915065 
L 1039.597881 160.99299 
L 1020.133466 159.370797 
L 1000.669408 158.040247 
L 981.204993 156.990153 
L 961.740935 156.206803 
L 942.276519 155.674015 
L 922.812104 155.373491 
L 903.348046 155.284982 
L 883.883631 155.386556 
L 864.419573 155.654847 
L 844.955157 156.065334 
L 825.4911 156.592571 
L 806.026684 157.210521 
L 786.562269 157.892777 
L 767.098211 158.612879 
L 747.633795 159.344661 
L 728.169738 160.062459 
L 708.705322 160.74154 
L 689.240907 161.358326 
L 669.776849 161.890772 
L 650.312433 162.31873 
L 630.848376 162.624229 
L 611.38396 162.791892 
L 591.919902 162.809255 
L 572.455487 162.66716 
L 552.991071 162.360124 
L 533.527014 161.886735 
L 514.062598 161.250011 
L 494.59854 160.457867 
L 475.134125 159.523429 
L 455.670067 158.465566 
L 436.205652 157.309182 
L 416.741236 156.085772 
L 397.277178 154.833817 
L 377.812763 153.599148 
L 358.348705 152.435569 
L 338.88429 151.405137 
L 319.420232 150.578803 
L 299.955816 150.036742 
L 280.491401 149.868956 
L 261.027343 150.175693 
L 241.562928 151.067995 
L 222.09887 152.668138 
L 202.634454 155.110297 
L 183.170396 158.540821 
L 163.705981 163.119135 
L 144.241566 169.017889 
L 124.777508 176.423585 
L 105.313092 185.537648 
L 85.849034 196.575962 
L 66.384619 209.770796 
z
" clip-path="url(#p7df4081492)" style="fill: #ff7f0e; fill-opacity: 0.2"/>
   </g>
   <g id="PolyCollection_3">
    <path d="M 66.384619 204.955446 
L 66.384619 323.162724 
L 86.024715 308.488761 
L 105.66517 296.377336 
L 125.305625 286.559976 
L 144.945721 278.788173 
L 164.586176 272.832107 
L 184.226271 268.480566 
L 203.866726 265.539073 
L 223.506822 263.829593 
L 243.147277 263.189167 
L 262.787373 263.469276 
L 282.427828 264.53487 
L 302.068283 266.26353 
L 321.708379 268.544617 
L 341.348834 271.278658 
L 360.98893 274.376277 
L 380.629385 277.757846 
L 400.26948 281.352339 
L 419.909935 285.097128 
L 439.550031 288.936817 
L 459.190486 292.823151 
L 478.830582 296.71386 
L 498.471037 300.572648 
L 518.111492 304.368147 
L 537.751588 308.073614 
L 557.392043 311.666638 
L 577.032139 315.128198 
L 596.672594 318.442749 
L 616.312689 321.597303 
L 635.953144 324.581521 
L 655.59324 327.3869 
L 675.233695 330.006863 
L 694.87415 332.436096 
L 714.514246 334.670428 
L 734.154701 336.706691 
L 753.794797 338.542209 
L 773.435252 340.174902 
L 793.075348 341.602838 
L 812.715803 342.824329 
L 832.355898 343.8376 
L 851.996353 344.640876 
L 871.636809 345.232171 
L 891.276904 345.609328 
L 910.917359 345.770005 
L 930.557455 345.711649 
L 950.19791 345.431563 
L 969.838006 344.926979 
L 989.478461 344.195111 
L 1009.118557 343.233351 
L 1028.759012 342.039308 
L 1048.399467 340.611092 
L 1068.039562 338.947485 
L 1087.680018 337.048057 
L 1107.320113 334.913643 
L 1126.960568 332.546344 
L 1146.600664 329.950151 
L 1166.241119 327.13093 
L 1185.881215 324.097165 
L 1205.52167 320.859931 
L 1225.161766 317.433754 
L 1244.802221 313.836579 
L 1264.442676 310.090668 
L 1284.082771 306.222919 
L 1303.723227 302.265163 
L 1323.363322 298.255212 
L 1343.003777 294.236856 
L 1362.643873 290.26105 
L 1382.284328 286.385959 
L 1401.924424 282.678187 
L 1421.564879 279.2129 
L 1441.205334 276.075019 
L 1460.84543 273.359719 
L 1480.485885 271.173075 
L 1500.125981 269.633169 
L 1519.766436 268.870599 
L 1539.406531 269.029534 
L 1559.046986 270.268485 
L 1578.687082 272.761162 
L 1598.327537 276.697595 
L 1617.967992 282.284817 
L 1637.608088 289.747848 
L 1637.608088 191.613163 
L 1637.608088 191.613163 
L 1617.967992 187.107768 
L 1598.327537 183.51374 
L 1578.687082 180.777021 
L 1559.046986 178.843414 
L 1539.406531 177.658687 
L 1519.766436 177.168926 
L 1500.125981 177.320483 
L 1480.485885 178.060181 
L 1460.84543 179.335455 
L 1441.205334 181.094365 
L 1421.564879 183.285893 
L 1401.924424 185.859848 
L 1382.284328 188.767037 
L 1362.643873 191.959558 
L 1343.003777 195.390509 
L 1323.363322 199.014547 
L 1303.723227 202.787474 
L 1284.082771 206.666849 
L 1264.442676 210.611519 
L 1244.802221 214.582256 
L 1225.161766 218.541329 
L 1205.52167 222.452787 
L 1185.881215 226.282733 
L 1166.241119 229.998885 
L 1146.600664 233.571189 
L 1126.960568 236.971326 
L 1107.320113 240.173277 
L 1087.680018 243.152867 
L 1068.039562 245.888271 
L 1048.399467 248.359608 
L 1028.759012 250.54937 
L 1009.118557 252.442114 
L 989.478461 254.024645 
L 969.838006 255.286089 
L 950.19791 256.217719 
L 930.557455 256.813141 
L 910.917359 257.068165 
L 891.276904 256.980884 
L 871.636809 256.551633 
L 851.996353 255.782965 
L 832.355898 254.679674 
L 812.715803 253.248779 
L 793.075348 251.499395 
L 773.435252 249.442901 
L 753.794797 247.092653 
L 734.154701 244.464246 
L 714.514246 241.575133 
L 694.87415 238.444956 
L 675.233695 235.095084 
L 655.59324 231.548939 
L 635.953144 227.831789 
L 616.312689 223.970462 
L 596.672594 219.993761 
L 577.032139 215.931831 
L 557.392043 211.816661 
L 537.751588 207.681413 
L 518.111492 203.560939 
L 498.471037 199.491086 
L 478.830582 195.509135 
L 459.190486 191.653468 
L 439.550031 187.963261 
L 419.909935 184.478869 
L 400.26948 181.241172 
L 380.629385 178.291974 
L 360.98893 175.673407 
L 341.348834 173.428241 
L 321.708379 171.599375 
L 302.068283 170.230031 
L 282.427828 169.363352 
L 262.787373 169.042459 
L 243.147277 169.310186 
L 223.506822 170.208991 
L 203.866726 171.78074 
L 184.226271 174.066681 
L 164.586176 177.107054 
L 144.945721 180.941256 
L 125.305625 185.607228 
L 105.66517 191.141843 
L 86.024715 197.580164 
L 66.384619 204.955446 
z
" clip-path="url(#p7df4081492)" style="fill: #2ca02c; fill-opacity: 0.2"/>
   </g>
   <g id="matplotlib.axis_1">
    <g id="xtick_1">
     <g id="line2d_1">
      <defs>
       <path id="m576650bc17" d="M 0 0 
L 0 3.5 
" style="stroke: #000000; stroke-width: 0.8"/>
      </defs>
      <g>
       <use xlink:href="#m576650bc17" x="66.384619" y="361.564125" style="stroke: #000000; stroke-width: 0.8"/>
      </g>
     </g>
     <g id="text_1">
      <!-- 100 -->
      <g transform="translate(51.370088 381.448188) scale(0.18 -0.18)">
       <defs>
        <path id="ArialMT-31" d="M 2384 0 
L 1822 0 
L 1822 3584 
Q 1619 3391 1289 3197 
Q 959 3003 697 2906 
L 697 3450 
Q 1169 3672 1522 3987 
Q 1875 4303 2022 4600 
L 2384 4600 
L 2384 0 
z
" transform="scale(0.015625)"/>
        <path id="ArialMT-30" d="M 266 2259 
Q 266 3072 433 3567 
Q 600 4063 929 4331 
Q 1259 4600 1759 4600 
Q 2128 4600 2406 4451 
Q 2684 4303 2865 4023 
Q 3047 3744 3150 3342 
Q 3253 2941 3253 2259 
Q 3253 1453 3087 958 
Q 2922 463 2592 192 
Q 2263 -78 1759 -78 
Q 1097 -78 719 397 
Q 266 969 266 2259 
z
M 844 2259 
Q 844 1131 1108 757 
Q 1372 384 1759 384 
Q 2147 384 2411 759 
Q 2675 1134 2675 2259 
Q 2675 3391 2411 3762 
Q 2147 4134 1753 4134 
Q 1366 4134 1134 3806 
Q 844 3388 844 2259 
z
" transform="scale(0.015625)"/>
       </defs>
       <use xlink:href="#ArialMT-31"/>
       <use xlink:href="#ArialMT-30" x="55.615234"/>
       <use xlink:href="#ArialMT-30" x="111.230469"/>
      </g>
     </g>
    </g>
    <g id="xtick_2">
     <g id="line2d_2">
      <g>
       <use xlink:href="#m576650bc17" x="140.537443" y="361.564125" style="stroke: #000000; stroke-width: 0.8"/>
      </g>
     </g>
     <g id="text_2">
      <!-- 105 -->
      <g transform="translate(125.522912 381.448188) scale(0.18 -0.18)">
       <defs>
        <path id="ArialMT-35" d="M 266 1200 
L 856 1250 
Q 922 819 1161 601 
Q 1400 384 1738 384 
Q 2144 384 2425 690 
Q 2706 997 2706 1503 
Q 2706 1984 2436 2262 
Q 2166 2541 1728 2541 
Q 1456 2541 1237 2417 
Q 1019 2294 894 2097 
L 366 2166 
L 809 4519 
L 3088 4519 
L 3088 3981 
L 1259 3981 
L 1013 2750 
Q 1425 3038 1878 3038 
Q 2478 3038 2890 2622 
Q 3303 2206 3303 1553 
Q 3303 931 2941 478 
Q 2500 -78 1738 -78 
Q 1113 -78 717 272 
Q 322 622 266 1200 
z
" transform="scale(0.015625)"/>
       </defs>
       <use xlink:href="#ArialMT-31"/>
       <use xlink:href="#ArialMT-30" x="55.615234"/>
       <use xlink:href="#ArialMT-35" x="111.230469"/>
      </g>
     </g>
    </g>
    <g id="xtick_3">
     <g id="line2d_3">
      <g>
       <use xlink:href="#m576650bc17" x="214.690267" y="361.564125" style="stroke: #000000; stroke-width: 0.8"/>
      </g>
     </g>
     <g id="text_3">
      <!-- 110 -->
      <g transform="translate(200.339486 381.448188) scale(0.18 -0.18)">
       <use xlink:href="#ArialMT-31"/>
       <use xlink:href="#ArialMT-31" x="48.240234"/>
       <use xlink:href="#ArialMT-30" x="103.855469"/>
      </g>
     </g>
    </g>
    <g id="xtick_4">
     <g id="line2d_4">
      <g>
       <use xlink:href="#m576650bc17" x="288.843091" y="361.564125" style="stroke: #000000; stroke-width: 0.8"/>
      </g>
     </g>
     <g id="text_4">
      <!-- 115 -->
      <g transform="translate(274.492309 381.448188) scale(0.18 -0.18)">
       <use xlink:href="#ArialMT-31"/>
       <use xlink:href="#ArialMT-31" x="48.240234"/>
       <use xlink:href="#ArialMT-35" x="103.855469"/>
      </g>
     </g>
    </g>
    <g id="xtick_5">
     <g id="line2d_5">
      <g>
       <use xlink:href="#m576650bc17" x="362.995915" y="361.564125" style="stroke: #000000; stroke-width: 0.8"/>
      </g>
     </g>
     <g id="text_5">
      <!-- 120 -->
      <g transform="translate(347.981383 381.448188) scale(0.18 -0.18)">
       <defs>
        <path id="ArialMT-32" d="M 3222 541 
L 3222 0 
L 194 0 
Q 188 203 259 391 
Q 375 700 629 1000 
Q 884 1300 1366 1694 
Q 2113 2306 2375 2664 
Q 2638 3022 2638 3341 
Q 2638 3675 2398 3904 
Q 2159 4134 1775 4134 
Q 1369 4134 1125 3890 
Q 881 3647 878 3216 
L 300 3275 
Q 359 3922 746 4261 
Q 1134 4600 1788 4600 
Q 2447 4600 2831 4234 
Q 3216 3869 3216 3328 
Q 3216 3053 3103 2787 
Q 2991 2522 2730 2228 
Q 2469 1934 1863 1422 
Q 1356 997 1212 845 
Q 1069 694 975 541 
L 3222 541 
z
" transform="scale(0.015625)"/>
       </defs>
       <use xlink:href="#ArialMT-31"/>
       <use xlink:href="#ArialMT-32" x="55.615234"/>
       <use xlink:href="#ArialMT-30" x="111.230469"/>
      </g>
     </g>
    </g>
    <g id="xtick_6">
     <g id="line2d_6">
      <g>
       <use xlink:href="#m576650bc17" x="437.148739" y="361.564125" style="stroke: #000000; stroke-width: 0.8"/>
      </g>
     </g>
     <g id="text_6">
      <!-- 125 -->
      <g transform="translate(422.134207 381.448188) scale(0.18 -0.18)">
       <use xlink:href="#ArialMT-31"/>
       <use xlink:href="#ArialMT-32" x="55.615234"/>
       <use xlink:href="#ArialMT-35" x="111.230469"/>
      </g>
     </g>
    </g>
    <g id="xtick_7">
     <g id="line2d_7">
      <g>
       <use xlink:href="#m576650bc17" x="511.301563" y="361.564125" style="stroke: #000000; stroke-width: 0.8"/>
      </g>
     </g>
     <g id="text_7">
      <!-- 130 -->
      <g transform="translate(496.287031 381.448188) scale(0.18 -0.18)">
       <defs>
        <path id="ArialMT-33" d="M 269 1209 
L 831 1284 
Q 928 806 1161 595 
Q 1394 384 1728 384 
Q 2125 384 2398 659 
Q 2672 934 2672 1341 
Q 2672 1728 2419 1979 
Q 2166 2231 1775 2231 
Q 1616 2231 1378 2169 
L 1441 2663 
Q 1497 2656 1531 2656 
Q 1891 2656 2178 2843 
Q 2466 3031 2466 3422 
Q 2466 3731 2256 3934 
Q 2047 4138 1716 4138 
Q 1388 4138 1169 3931 
Q 950 3725 888 3313 
L 325 3413 
Q 428 3978 793 4289 
Q 1159 4600 1703 4600 
Q 2078 4600 2393 4439 
Q 2709 4278 2876 4000 
Q 3044 3722 3044 3409 
Q 3044 3113 2884 2869 
Q 2725 2625 2413 2481 
Q 2819 2388 3044 2092 
Q 3269 1797 3269 1353 
Q 3269 753 2831 336 
Q 2394 -81 1725 -81 
Q 1122 -81 723 278 
Q 325 638 269 1209 
z
" transform="scale(0.015625)"/>
       </defs>
       <use xlink:href="#ArialMT-31"/>
       <use xlink:href="#ArialMT-33" x="55.615234"/>
       <use xlink:href="#ArialMT-30" x="111.230469"/>
      </g>
     </g>
    </g>
    <g id="text_8">
     <!-- Strain(%) -->
     <g transform="translate(250.595469 402.129125) scale(0.18 -0.18)">
      <defs>
       <path id="ArialMT-53" d="M 288 1472 
L 859 1522 
Q 900 1178 1048 958 
Q 1197 738 1509 602 
Q 1822 466 2213 466 
Q 2559 466 2825 569 
Q 3091 672 3220 851 
Q 3350 1031 3350 1244 
Q 3350 1459 3225 1620 
Q 3100 1781 2813 1891 
Q 2628 1963 1997 2114 
Q 1366 2266 1113 2400 
Q 784 2572 623 2826 
Q 463 3081 463 3397 
Q 463 3744 659 4045 
Q 856 4347 1234 4503 
Q 1613 4659 2075 4659 
Q 2584 4659 2973 4495 
Q 3363 4331 3572 4012 
Q 3781 3694 3797 3291 
L 3216 3247 
Q 3169 3681 2898 3903 
Q 2628 4125 2100 4125 
Q 1550 4125 1298 3923 
Q 1047 3722 1047 3438 
Q 1047 3191 1225 3031 
Q 1400 2872 2139 2705 
Q 2878 2538 3153 2413 
Q 3553 2228 3743 1945 
Q 3934 1663 3934 1294 
Q 3934 928 3725 604 
Q 3516 281 3123 101 
Q 2731 -78 2241 -78 
Q 1619 -78 1198 103 
Q 778 284 539 648 
Q 300 1013 288 1472 
z
" transform="scale(0.015625)"/>
       <path id="ArialMT-74" d="M 1650 503 
L 1731 6 
Q 1494 -44 1306 -44 
Q 1000 -44 831 53 
Q 663 150 594 308 
Q 525 466 525 972 
L 525 2881 
L 113 2881 
L 113 3319 
L 525 3319 
L 525 4141 
L 1084 4478 
L 1084 3319 
L 1650 3319 
L 1650 2881 
L 1084 2881 
L 1084 941 
Q 1084 700 1114 631 
Q 1144 563 1211 522 
Q 1278 481 1403 481 
Q 1497 481 1650 503 
z
" transform="scale(0.015625)"/>
       <path id="ArialMT-72" d="M 416 0 
L 416 3319 
L 922 3319 
L 922 2816 
Q 1116 3169 1280 3281 
Q 1444 3394 1641 3394 
Q 1925 3394 2219 3213 
L 2025 2691 
Q 1819 2813 1613 2813 
Q 1428 2813 1281 2702 
Q 1134 2591 1072 2394 
Q 978 2094 978 1738 
L 978 0 
L 416 0 
z
" transform="scale(0.015625)"/>
       <path id="ArialMT-61" d="M 2588 409 
Q 2275 144 1986 34 
Q 1697 -75 1366 -75 
Q 819 -75 525 192 
Q 231 459 231 875 
Q 231 1119 342 1320 
Q 453 1522 633 1644 
Q 813 1766 1038 1828 
Q 1203 1872 1538 1913 
Q 2219 1994 2541 2106 
Q 2544 2222 2544 2253 
Q 2544 2597 2384 2738 
Q 2169 2928 1744 2928 
Q 1347 2928 1158 2789 
Q 969 2650 878 2297 
L 328 2372 
Q 403 2725 575 2942 
Q 747 3159 1072 3276 
Q 1397 3394 1825 3394 
Q 2250 3394 2515 3294 
Q 2781 3194 2906 3042 
Q 3031 2891 3081 2659 
Q 3109 2516 3109 2141 
L 3109 1391 
Q 3109 606 3145 398 
Q 3181 191 3288 0 
L 2700 0 
Q 2613 175 2588 409 
z
M 2541 1666 
Q 2234 1541 1622 1453 
Q 1275 1403 1131 1340 
Q 988 1278 909 1158 
Q 831 1038 831 891 
Q 831 666 1001 516 
Q 1172 366 1500 366 
Q 1825 366 2078 508 
Q 2331 650 2450 897 
Q 2541 1088 2541 1459 
L 2541 1666 
z
" transform="scale(0.015625)"/>
       <path id="ArialMT-69" d="M 425 3934 
L 425 4581 
L 988 4581 
L 988 3934 
L 425 3934 
z
M 425 0 
L 425 3319 
L 988 3319 
L 988 0 
L 425 0 
z
" transform="scale(0.015625)"/>
       <path id="ArialMT-6e" d="M 422 0 
L 422 3319 
L 928 3319 
L 928 2847 
Q 1294 3394 1984 3394 
Q 2284 3394 2536 3286 
Q 2788 3178 2913 3003 
Q 3038 2828 3088 2588 
Q 3119 2431 3119 2041 
L 3119 0 
L 2556 0 
L 2556 2019 
Q 2556 2363 2490 2533 
Q 2425 2703 2258 2804 
Q 2091 2906 1866 2906 
Q 1506 2906 1245 2678 
Q 984 2450 984 1813 
L 984 0 
L 422 0 
z
" transform="scale(0.015625)"/>
       <path id="ArialMT-28" d="M 1497 -1347 
Q 1031 -759 709 28 
Q 388 816 388 1659 
Q 388 2403 628 3084 
Q 909 3875 1497 4659 
L 1900 4659 
Q 1522 4009 1400 3731 
Q 1209 3300 1100 2831 
Q 966 2247 966 1656 
Q 966 153 1900 -1347 
L 1497 -1347 
z
" transform="scale(0.015625)"/>
       <path id="ArialMT-25" d="M 372 3481 
Q 372 3972 619 4315 
Q 866 4659 1334 4659 
Q 1766 4659 2048 4351 
Q 2331 4044 2331 3447 
Q 2331 2866 2045 2552 
Q 1759 2238 1341 2238 
Q 925 2238 648 2547 
Q 372 2856 372 3481 
z
M 1350 4272 
Q 1141 4272 1002 4090 
Q 863 3909 863 3425 
Q 863 2984 1003 2804 
Q 1144 2625 1350 2625 
Q 1563 2625 1702 2806 
Q 1841 2988 1841 3469 
Q 1841 3913 1700 4092 
Q 1559 4272 1350 4272 
z
M 1353 -169 
L 3859 4659 
L 4316 4659 
L 1819 -169 
L 1353 -169 
z
M 3334 1075 
Q 3334 1569 3581 1911 
Q 3828 2253 4300 2253 
Q 4731 2253 5014 1945 
Q 5297 1638 5297 1041 
Q 5297 459 5011 145 
Q 4725 -169 4303 -169 
Q 3888 -169 3611 142 
Q 3334 453 3334 1075 
z
M 4316 1866 
Q 4103 1866 3964 1684 
Q 3825 1503 3825 1019 
Q 3825 581 3965 400 
Q 4106 219 4313 219 
Q 4528 219 4667 400 
Q 4806 581 4806 1063 
Q 4806 1506 4665 1686 
Q 4525 1866 4316 1866 
z
" transform="scale(0.015625)"/>
       <path id="ArialMT-29" d="M 791 -1347 
L 388 -1347 
Q 1322 153 1322 1656 
Q 1322 2244 1188 2822 
Q 1081 3291 891 3722 
Q 769 4003 388 4659 
L 791 4659 
Q 1378 3875 1659 3084 
Q 1900 2403 1900 1659 
Q 1900 816 1576 28 
Q 1253 -759 791 -1347 
z
" transform="scale(0.015625)"/>
      </defs>
      <use xlink:href="#ArialMT-53"/>
      <use xlink:href="#ArialMT-74" x="66.699219"/>
      <use xlink:href="#ArialMT-72" x="94.482422"/>
      <use xlink:href="#ArialMT-61" x="127.783203"/>
      <use xlink:href="#ArialMT-69" x="183.398438"/>
      <use xlink:href="#ArialMT-6e" x="205.615234"/>
      <use xlink:href="#ArialMT-28" x="261.230469"/>
      <use xlink:href="#ArialMT-25" x="294.53125"/>
      <use xlink:href="#ArialMT-29" x="383.447266"/>
     </g>
    </g>
   </g>
   <g id="matplotlib.axis_2">
    <g id="ytick_1">
     <g id="line2d_8">
      <defs>
       <path id="mc51a42a522" d="M 0 0 
L -3.5 0 
" style="stroke: #000000; stroke-width: 0.8"/>
      </defs>
      <g>
       <use xlink:href="#mc51a42a522" x="64.901562" y="361.564125" style="stroke: #000000; stroke-width: 0.8"/>
      </g>
     </g>
     <g id="text_9">
      <!-- 80 -->
      <g transform="translate(37.882188 368.006156) scale(0.18 -0.18)">
       <defs>
        <path id="ArialMT-38" d="M 1131 2484 
Q 781 2613 612 2850 
Q 444 3088 444 3419 
Q 444 3919 803 4259 
Q 1163 4600 1759 4600 
Q 2359 4600 2725 4251 
Q 3091 3903 3091 3403 
Q 3091 3084 2923 2848 
Q 2756 2613 2416 2484 
Q 2838 2347 3058 2040 
Q 3278 1734 3278 1309 
Q 3278 722 2862 322 
Q 2447 -78 1769 -78 
Q 1091 -78 675 323 
Q 259 725 259 1325 
Q 259 1772 486 2073 
Q 713 2375 1131 2484 
z
M 1019 3438 
Q 1019 3113 1228 2906 
Q 1438 2700 1772 2700 
Q 2097 2700 2305 2904 
Q 2513 3109 2513 3406 
Q 2513 3716 2298 3927 
Q 2084 4138 1766 4138 
Q 1444 4138 1231 3931 
Q 1019 3725 1019 3438 
z
M 838 1322 
Q 838 1081 952 856 
Q 1066 631 1291 507 
Q 1516 384 1775 384 
Q 2178 384 2440 643 
Q 2703 903 2703 1303 
Q 2703 1709 2433 1975 
Q 2163 2241 1756 2241 
Q 1359 2241 1098 1978 
Q 838 1716 838 1322 
z
" transform="scale(0.015625)"/>
       </defs>
       <use xlink:href="#ArialMT-38"/>
       <use xlink:href="#ArialMT-30" x="55.615234"/>
      </g>
     </g>
    </g>
    <g id="ytick_2">
     <g id="line2d_9">
      <g>
       <use xlink:href="#mc51a42a522" x="64.901562" y="314.044125" style="stroke: #000000; stroke-width: 0.8"/>
      </g>
     </g>
     <g id="text_10">
      <!-- 85 -->
      <g transform="translate(37.882188 320.486156) scale(0.18 -0.18)">
       <use xlink:href="#ArialMT-38"/>
       <use xlink:href="#ArialMT-35" x="55.615234"/>
      </g>
     </g>
    </g>
    <g id="ytick_3">
     <g id="line2d_10">
      <g>
       <use xlink:href="#mc51a42a522" x="64.901562" y="266.524125" style="stroke: #000000; stroke-width: 0.8"/>
      </g>
     </g>
     <g id="text_11">
      <!-- 90 -->
      <g transform="translate(37.882188 272.966156) scale(0.18 -0.18)">
       <defs>
        <path id="ArialMT-39" d="M 350 1059 
L 891 1109 
Q 959 728 1153 556 
Q 1347 384 1650 384 
Q 1909 384 2104 503 
Q 2300 622 2425 820 
Q 2550 1019 2634 1356 
Q 2719 1694 2719 2044 
Q 2719 2081 2716 2156 
Q 2547 1888 2255 1720 
Q 1963 1553 1622 1553 
Q 1053 1553 659 1965 
Q 266 2378 266 3053 
Q 266 3750 677 4175 
Q 1088 4600 1706 4600 
Q 2153 4600 2523 4359 
Q 2894 4119 3086 3673 
Q 3278 3228 3278 2384 
Q 3278 1506 3087 986 
Q 2897 466 2520 194 
Q 2144 -78 1638 -78 
Q 1100 -78 759 220 
Q 419 519 350 1059 
z
M 2653 3081 
Q 2653 3566 2395 3850 
Q 2138 4134 1775 4134 
Q 1400 4134 1122 3828 
Q 844 3522 844 3034 
Q 844 2597 1108 2323 
Q 1372 2050 1759 2050 
Q 2150 2050 2401 2323 
Q 2653 2597 2653 3081 
z
" transform="scale(0.015625)"/>
       </defs>
       <use xlink:href="#ArialMT-39"/>
       <use xlink:href="#ArialMT-30" x="55.615234"/>
      </g>
     </g>
    </g>
    <g id="ytick_4">
     <g id="line2d_11">
      <g>
       <use xlink:href="#mc51a42a522" x="64.901562" y="219.004125" style="stroke: #000000; stroke-width: 0.8"/>
      </g>
     </g>
     <g id="text_12">
      <!-- 95 -->
      <g transform="translate(37.882188 225.446156) scale(0.18 -0.18)">
       <use xlink:href="#ArialMT-39"/>
       <use xlink:href="#ArialMT-35" x="55.615234"/>
      </g>
     </g>
    </g>
    <g id="ytick_5">
     <g id="line2d_12">
      <g>
       <use xlink:href="#mc51a42a522" x="64.901562" y="171.484125" style="stroke: #000000; stroke-width: 0.8"/>
      </g>
     </g>
     <g id="text_13">
      <!-- 100 -->
      <g transform="translate(27.8725 177.926156) scale(0.18 -0.18)">
       <use xlink:href="#ArialMT-31"/>
       <use xlink:href="#ArialMT-30" x="55.615234"/>
       <use xlink:href="#ArialMT-30" x="111.230469"/>
      </g>
     </g>
    </g>
    <g id="ytick_6">
     <g id="line2d_13">
      <g>
       <use xlink:href="#mc51a42a522" x="64.901562" y="123.964125" style="stroke: #000000; stroke-width: 0.8"/>
      </g>
     </g>
     <g id="text_14">
      <!-- 105 -->
      <g transform="translate(27.8725 130.406156) scale(0.18 -0.18)">
       <use xlink:href="#ArialMT-31"/>
       <use xlink:href="#ArialMT-30" x="55.615234"/>
       <use xlink:href="#ArialMT-35" x="111.230469"/>
      </g>
     </g>
    </g>
    <g id="ytick_7">
     <g id="line2d_14">
      <g>
       <use xlink:href="#mc51a42a522" x="64.901562" y="76.444125" style="stroke: #000000; stroke-width: 0.8"/>
      </g>
     </g>
     <g id="text_15">
      <!-- 110 -->
      <g transform="translate(29.2 82.886156) scale(0.18 -0.18)">
       <use xlink:href="#ArialMT-31"/>
       <use xlink:href="#ArialMT-31" x="48.240234"/>
       <use xlink:href="#ArialMT-30" x="103.855469"/>
      </g>
     </g>
    </g>
    <g id="ytick_8">
     <g id="line2d_15">
      <g>
       <use xlink:href="#mc51a42a522" x="64.901562" y="28.924125" style="stroke: #000000; stroke-width: 0.8"/>
      </g>
     </g>
     <g id="text_16">
      <!-- 115 -->
      <g transform="translate(29.2 35.366156) scale(0.18 -0.18)">
       <use xlink:href="#ArialMT-31"/>
       <use xlink:href="#ArialMT-31" x="48.240234"/>
       <use xlink:href="#ArialMT-35" x="103.855469"/>
      </g>
     </g>
    </g>
    <g id="text_17">
     <!-- Hydrogen Bonds -->
     <g transform="translate(20.084062 262.282875) rotate(-90) scale(0.18 -0.18)">
      <defs>
       <path id="ArialMT-48" d="M 513 0 
L 513 4581 
L 1119 4581 
L 1119 2700 
L 3500 2700 
L 3500 4581 
L 4106 4581 
L 4106 0 
L 3500 0 
L 3500 2159 
L 1119 2159 
L 1119 0 
L 513 0 
z
" transform="scale(0.015625)"/>
       <path id="ArialMT-79" d="M 397 -1278 
L 334 -750 
Q 519 -800 656 -800 
Q 844 -800 956 -737 
Q 1069 -675 1141 -563 
Q 1194 -478 1313 -144 
Q 1328 -97 1363 -6 
L 103 3319 
L 709 3319 
L 1400 1397 
Q 1534 1031 1641 628 
Q 1738 1016 1872 1384 
L 2581 3319 
L 3144 3319 
L 1881 -56 
Q 1678 -603 1566 -809 
Q 1416 -1088 1222 -1217 
Q 1028 -1347 759 -1347 
Q 597 -1347 397 -1278 
z
" transform="scale(0.015625)"/>
       <path id="ArialMT-64" d="M 2575 0 
L 2575 419 
Q 2259 -75 1647 -75 
Q 1250 -75 917 144 
Q 584 363 401 755 
Q 219 1147 219 1656 
Q 219 2153 384 2558 
Q 550 2963 881 3178 
Q 1213 3394 1622 3394 
Q 1922 3394 2156 3267 
Q 2391 3141 2538 2938 
L 2538 4581 
L 3097 4581 
L 3097 0 
L 2575 0 
z
M 797 1656 
Q 797 1019 1065 703 
Q 1334 388 1700 388 
Q 2069 388 2326 689 
Q 2584 991 2584 1609 
Q 2584 2291 2321 2609 
Q 2059 2928 1675 2928 
Q 1300 2928 1048 2622 
Q 797 2316 797 1656 
z
" transform="scale(0.015625)"/>
       <path id="ArialMT-6f" d="M 213 1659 
Q 213 2581 725 3025 
Q 1153 3394 1769 3394 
Q 2453 3394 2887 2945 
Q 3322 2497 3322 1706 
Q 3322 1066 3130 698 
Q 2938 331 2570 128 
Q 2203 -75 1769 -75 
Q 1072 -75 642 372 
Q 213 819 213 1659 
z
M 791 1659 
Q 791 1022 1069 705 
Q 1347 388 1769 388 
Q 2188 388 2466 706 
Q 2744 1025 2744 1678 
Q 2744 2294 2464 2611 
Q 2184 2928 1769 2928 
Q 1347 2928 1069 2612 
Q 791 2297 791 1659 
z
" transform="scale(0.015625)"/>
       <path id="ArialMT-67" d="M 319 -275 
L 866 -356 
Q 900 -609 1056 -725 
Q 1266 -881 1628 -881 
Q 2019 -881 2231 -725 
Q 2444 -569 2519 -288 
Q 2563 -116 2559 434 
Q 2191 0 1641 0 
Q 956 0 581 494 
Q 206 988 206 1678 
Q 206 2153 378 2554 
Q 550 2956 876 3175 
Q 1203 3394 1644 3394 
Q 2231 3394 2613 2919 
L 2613 3319 
L 3131 3319 
L 3131 450 
Q 3131 -325 2973 -648 
Q 2816 -972 2473 -1159 
Q 2131 -1347 1631 -1347 
Q 1038 -1347 672 -1080 
Q 306 -813 319 -275 
z
M 784 1719 
Q 784 1066 1043 766 
Q 1303 466 1694 466 
Q 2081 466 2343 764 
Q 2606 1063 2606 1700 
Q 2606 2309 2336 2618 
Q 2066 2928 1684 2928 
Q 1309 2928 1046 2623 
Q 784 2319 784 1719 
z
" transform="scale(0.015625)"/>
       <path id="ArialMT-65" d="M 2694 1069 
L 3275 997 
Q 3138 488 2766 206 
Q 2394 -75 1816 -75 
Q 1088 -75 661 373 
Q 234 822 234 1631 
Q 234 2469 665 2931 
Q 1097 3394 1784 3394 
Q 2450 3394 2872 2941 
Q 3294 2488 3294 1666 
Q 3294 1616 3291 1516 
L 816 1516 
Q 847 969 1125 678 
Q 1403 388 1819 388 
Q 2128 388 2347 550 
Q 2566 713 2694 1069 
z
M 847 1978 
L 2700 1978 
Q 2663 2397 2488 2606 
Q 2219 2931 1791 2931 
Q 1403 2931 1139 2672 
Q 875 2413 847 1978 
z
" transform="scale(0.015625)"/>
       <path id="ArialMT-20" transform="scale(0.015625)"/>
       <path id="ArialMT-42" d="M 469 0 
L 469 4581 
L 2188 4581 
Q 2713 4581 3030 4442 
Q 3347 4303 3526 4014 
Q 3706 3725 3706 3409 
Q 3706 3116 3547 2856 
Q 3388 2597 3066 2438 
Q 3481 2316 3704 2022 
Q 3928 1728 3928 1328 
Q 3928 1006 3792 729 
Q 3656 453 3456 303 
Q 3256 153 2954 76 
Q 2653 0 2216 0 
L 469 0 
z
M 1075 2656 
L 2066 2656 
Q 2469 2656 2644 2709 
Q 2875 2778 2992 2937 
Q 3109 3097 3109 3338 
Q 3109 3566 3000 3739 
Q 2891 3913 2687 3977 
Q 2484 4041 1991 4041 
L 1075 4041 
L 1075 2656 
z
M 1075 541 
L 2216 541 
Q 2509 541 2628 563 
Q 2838 600 2978 687 
Q 3119 775 3209 942 
Q 3300 1109 3300 1328 
Q 3300 1584 3169 1773 
Q 3038 1963 2805 2039 
Q 2572 2116 2134 2116 
L 1075 2116 
L 1075 541 
z
" transform="scale(0.015625)"/>
       <path id="ArialMT-73" d="M 197 991 
L 753 1078 
Q 800 744 1014 566 
Q 1228 388 1613 388 
Q 2000 388 2187 545 
Q 2375 703 2375 916 
Q 2375 1106 2209 1216 
Q 2094 1291 1634 1406 
Q 1016 1563 777 1677 
Q 538 1791 414 1992 
Q 291 2194 291 2438 
Q 291 2659 392 2848 
Q 494 3038 669 3163 
Q 800 3259 1026 3326 
Q 1253 3394 1513 3394 
Q 1903 3394 2198 3281 
Q 2494 3169 2634 2976 
Q 2775 2784 2828 2463 
L 2278 2388 
Q 2241 2644 2061 2787 
Q 1881 2931 1553 2931 
Q 1166 2931 1000 2803 
Q 834 2675 834 2503 
Q 834 2394 903 2306 
Q 972 2216 1119 2156 
Q 1203 2125 1616 2013 
Q 2213 1853 2448 1751 
Q 2684 1650 2818 1456 
Q 2953 1263 2953 975 
Q 2953 694 2789 445 
Q 2625 197 2315 61 
Q 2006 -75 1616 -75 
Q 969 -75 630 194 
Q 291 463 197 991 
z
" transform="scale(0.015625)"/>
      </defs>
      <use xlink:href="#ArialMT-48"/>
      <use xlink:href="#ArialMT-79" x="72.216797"/>
      <use xlink:href="#ArialMT-64" x="122.216797"/>
      <use xlink:href="#ArialMT-72" x="177.832031"/>
      <use xlink:href="#ArialMT-6f" x="211.132812"/>
      <use xlink:href="#ArialMT-67" x="266.748047"/>
      <use xlink:href="#ArialMT-65" x="322.363281"/>
      <use xlink:href="#ArialMT-6e" x="377.978516"/>
      <use xlink:href="#ArialMT-20" x="433.59375"/>
      <use xlink:href="#ArialMT-42" x="461.376953"/>
      <use xlink:href="#ArialMT-6f" x="528.076172"/>
      <use xlink:href="#ArialMT-6e" x="583.691406"/>
      <use xlink:href="#ArialMT-64" x="639.306641"/>
      <use xlink:href="#ArialMT-73" x="694.921875"/>
     </g>
    </g>
   </g>
   <g id="line2d_16">
    <path d="M 66.384619 281.88425 
L 70.455577 277.095366 
L 74.526901 272.547866 
L 78.597859 268.235576 
L 82.669183 264.150852 
L 86.740141 260.287685 
L 90.811465 256.63876 
L 94.882423 253.198234 
L 98.953747 249.959111 
L 103.024705 246.915714 
L 107.096029 244.061356 
L 111.166987 241.390524 
L 115.238311 238.89683 
L 119.309269 236.574927 
L 123.380593 234.418715 
L 127.451551 232.423011 
L 131.522875 230.581996 
L 135.593833 228.890649 
L 139.665158 227.343421 
L 143.736116 225.935454 
L 147.80744 224.661462 
L 151.878398 223.516745 
L 155.949722 222.496273 
L 160.02068 221.595505 
L 168.162962 220.13434 
L 176.305244 219.097444 
L 184.447526 218.450558 
L 192.589808 218.160932 
L 200.73209 218.197291 
L 208.874372 218.529794 
L 217.016654 219.129999 
L 225.158936 219.970828 
L 233.301218 221.026529 
L 241.4435 222.272642 
L 249.585782 223.685964 
L 261.799388 226.071746 
L 274.012995 228.715371 
L 290.297559 232.532367 
L 310.653081 237.58594 
L 351.364491 247.80875 
L 367.649055 251.691138 
L 383.933619 255.348934 
L 400.218183 258.72784 
L 412.43179 261.052582 
L 424.64503 263.181303 
L 436.858636 265.102634 
L 449.071876 266.807778 
L 461.285482 268.290784 
L 473.498722 269.547951 
L 485.712328 270.578011 
L 497.925934 271.381674 
L 510.139174 271.961602 
L 522.35278 272.32227 
L 534.516094 272.469381 
L 534.516094 272.469381 
" clip-path="url(#p7df4081492)" style="fill: none; stroke: #1f77b4; stroke-width: 1.5; stroke-linecap: square"/>
   </g>
   <g id="line2d_17">
    <path d="M 66.384619 297.376681 
L 74.170385 287.11606 
L 81.956151 277.565244 
L 89.741918 268.691877 
L 97.527326 260.464918 
L 105.313092 252.853151 
L 113.098858 245.827422 
L 120.884625 239.359096 
L 128.670391 233.420422 
L 136.456157 227.984524 
L 144.241566 223.0256 
L 152.027332 218.518018 
L 159.813098 214.437663 
L 167.598864 210.760993 
L 175.38463 207.465259 
L 183.170396 204.528493 
L 190.955805 201.929601 
L 198.741571 199.64789 
L 206.527337 197.663766 
L 214.313104 195.958226 
L 222.09887 194.512974 
L 229.884636 193.310402 
L 237.670044 192.333621 
L 245.455811 191.566271 
L 253.241577 190.992781 
L 261.027343 190.598165 
L 268.813109 190.368053 
L 280.491401 190.301388 
L 292.17005 190.530067 
L 303.848699 191.013037 
L 315.527349 191.712032 
L 331.098523 192.918938 
L 346.670056 194.369828 
L 366.134471 196.421591 
L 397.277178 199.981818 
L 436.205652 204.39538 
L 459.562592 206.802663 
L 479.027008 208.589875 
L 498.491423 210.138733 
L 517.955481 211.423631 
L 534.516094 212.295886 
L 534.516094 212.295886 
" clip-path="url(#p7df4081492)" style="fill: none; stroke: #ff7f0e; stroke-width: 1.5; stroke-linecap: square"/>
   </g>
   <g id="line2d_18">
    <path d="M 66.384619 282.1706 
L 74.240585 275.255825 
L 82.096911 268.80709 
L 89.952878 262.806331 
L 97.809203 257.234864 
L 105.66517 252.075582 
L 113.521136 247.311104 
L 121.377462 242.924617 
L 129.233428 238.900383 
L 137.089754 235.22237 
L 144.945721 231.875715 
L 152.802046 228.845366 
L 160.658013 226.117302 
L 168.513979 223.677518 
L 176.370305 221.512487 
L 184.226271 219.609394 
L 192.082597 217.955458 
L 199.938564 216.538627 
L 207.79453 215.347011 
L 215.650856 214.369141 
L 223.506822 213.594057 
L 231.363148 213.011001 
L 239.219114 212.6097 
L 247.07544 212.380142 
L 254.931407 212.312714 
L 266.715536 212.495293 
L 278.499665 212.991779 
L 290.283794 213.77375 
L 302.068283 214.814352 
L 313.852412 216.088111 
L 325.636542 217.571065 
L 337.420671 219.240592 
L 353.132963 221.720227 
L 368.845255 224.446769 
L 384.557188 227.376869 
L 404.197643 231.265759 
L 427.765902 236.172364 
L 463.118649 243.805223 
L 522.039296 256.547229 
L 534.516094 259.165656 
L 534.516094 259.165656 
" clip-path="url(#p7df4081492)" style="fill: none; stroke: #2ca02c; stroke-width: 1.5; stroke-linecap: square"/>
   </g>
   <g id="patch_3">
    <path d="M 64.901562 361.564125 
L 64.901562 28.924125 
" style="fill: none; stroke: #000000; stroke-width: 0.8; stroke-linejoin: miter; stroke-linecap: square"/>
   </g>
   <g id="patch_4">
    <path d="M 511.301562 361.564125 
L 511.301562 28.924125 
" style="fill: none; stroke: #000000; stroke-width: 0.8; stroke-linejoin: miter; stroke-linecap: square"/>
   </g>
   <g id="patch_5">
    <path d="M 64.901562 361.564125 
L 511.301563 361.564125 
" style="fill: none; stroke: #000000; stroke-width: 0.8; stroke-linejoin: miter; stroke-linecap: square"/>
   </g>
   <g id="patch_6">
    <path d="M 64.901562 28.924125 
L 511.301563 28.924125 
" style="fill: none; stroke: #000000; stroke-width: 0.8; stroke-linejoin: miter; stroke-linecap: square"/>
   </g>
   <g id="text_18">
    <!-- Change of Hydrogen Bonds Number -->
    <g transform="translate(113.409875 22.924125) scale(0.216 -0.216)">
     <defs>
      <path id="ArialMT-43" d="M 3763 1606 
L 4369 1453 
Q 4178 706 3683 314 
Q 3188 -78 2472 -78 
Q 1731 -78 1267 223 
Q 803 525 561 1097 
Q 319 1669 319 2325 
Q 319 3041 592 3573 
Q 866 4106 1370 4382 
Q 1875 4659 2481 4659 
Q 3169 4659 3637 4309 
Q 4106 3959 4291 3325 
L 3694 3184 
Q 3534 3684 3231 3912 
Q 2928 4141 2469 4141 
Q 1941 4141 1586 3887 
Q 1231 3634 1087 3207 
Q 944 2781 944 2328 
Q 944 1744 1114 1308 
Q 1284 872 1643 656 
Q 2003 441 2422 441 
Q 2931 441 3284 734 
Q 3638 1028 3763 1606 
z
" transform="scale(0.015625)"/>
      <path id="ArialMT-68" d="M 422 0 
L 422 4581 
L 984 4581 
L 984 2938 
Q 1378 3394 1978 3394 
Q 2347 3394 2619 3248 
Q 2891 3103 3008 2847 
Q 3125 2591 3125 2103 
L 3125 0 
L 2563 0 
L 2563 2103 
Q 2563 2525 2380 2717 
Q 2197 2909 1863 2909 
Q 1613 2909 1392 2779 
Q 1172 2650 1078 2428 
Q 984 2206 984 1816 
L 984 0 
L 422 0 
z
" transform="scale(0.015625)"/>
      <path id="ArialMT-66" d="M 556 0 
L 556 2881 
L 59 2881 
L 59 3319 
L 556 3319 
L 556 3672 
Q 556 4006 616 4169 
Q 697 4388 901 4523 
Q 1106 4659 1475 4659 
Q 1713 4659 2000 4603 
L 1916 4113 
Q 1741 4144 1584 4144 
Q 1328 4144 1222 4034 
Q 1116 3925 1116 3625 
L 1116 3319 
L 1763 3319 
L 1763 2881 
L 1116 2881 
L 1116 0 
L 556 0 
z
" transform="scale(0.015625)"/>
      <path id="ArialMT-4e" d="M 488 0 
L 488 4581 
L 1109 4581 
L 3516 984 
L 3516 4581 
L 4097 4581 
L 4097 0 
L 3475 0 
L 1069 3600 
L 1069 0 
L 488 0 
z
" transform="scale(0.015625)"/>
      <path id="ArialMT-75" d="M 2597 0 
L 2597 488 
Q 2209 -75 1544 -75 
Q 1250 -75 995 37 
Q 741 150 617 320 
Q 494 491 444 738 
Q 409 903 409 1263 
L 409 3319 
L 972 3319 
L 972 1478 
Q 972 1038 1006 884 
Q 1059 663 1231 536 
Q 1403 409 1656 409 
Q 1909 409 2131 539 
Q 2353 669 2445 892 
Q 2538 1116 2538 1541 
L 2538 3319 
L 3100 3319 
L 3100 0 
L 2597 0 
z
" transform="scale(0.015625)"/>
      <path id="ArialMT-6d" d="M 422 0 
L 422 3319 
L 925 3319 
L 925 2853 
Q 1081 3097 1340 3245 
Q 1600 3394 1931 3394 
Q 2300 3394 2536 3241 
Q 2772 3088 2869 2813 
Q 3263 3394 3894 3394 
Q 4388 3394 4653 3120 
Q 4919 2847 4919 2278 
L 4919 0 
L 4359 0 
L 4359 2091 
Q 4359 2428 4304 2576 
Q 4250 2725 4106 2815 
Q 3963 2906 3769 2906 
Q 3419 2906 3187 2673 
Q 2956 2441 2956 1928 
L 2956 0 
L 2394 0 
L 2394 2156 
Q 2394 2531 2256 2718 
Q 2119 2906 1806 2906 
Q 1569 2906 1367 2781 
Q 1166 2656 1075 2415 
Q 984 2175 984 1722 
L 984 0 
L 422 0 
z
" transform="scale(0.015625)"/>
      <path id="ArialMT-62" d="M 941 0 
L 419 0 
L 419 4581 
L 981 4581 
L 981 2947 
Q 1338 3394 1891 3394 
Q 2197 3394 2470 3270 
Q 2744 3147 2920 2923 
Q 3097 2700 3197 2384 
Q 3297 2069 3297 1709 
Q 3297 856 2875 390 
Q 2453 -75 1863 -75 
Q 1275 -75 941 416 
L 941 0 
z
M 934 1684 
Q 934 1088 1097 822 
Q 1363 388 1816 388 
Q 2184 388 2453 708 
Q 2722 1028 2722 1663 
Q 2722 2313 2464 2622 
Q 2206 2931 1841 2931 
Q 1472 2931 1203 2611 
Q 934 2291 934 1684 
z
" transform="scale(0.015625)"/>
     </defs>
     <use xlink:href="#ArialMT-43"/>
     <use xlink:href="#ArialMT-68" x="72.216797"/>
     <use xlink:href="#ArialMT-61" x="127.832031"/>
     <use xlink:href="#ArialMT-6e" x="183.447266"/>
     <use xlink:href="#ArialMT-67" x="239.0625"/>
     <use xlink:href="#ArialMT-65" x="294.677734"/>
     <use xlink:href="#ArialMT-20" x="350.292969"/>
     <use xlink:href="#ArialMT-6f" x="378.076172"/>
     <use xlink:href="#ArialMT-66" x="433.691406"/>
     <use xlink:href="#ArialMT-20" x="461.474609"/>
     <use xlink:href="#ArialMT-48" x="489.257812"/>
     <use xlink:href="#ArialMT-79" x="561.474609"/>
     <use xlink:href="#ArialMT-64" x="611.474609"/>
     <use xlink:href="#ArialMT-72" x="667.089844"/>
     <use xlink:href="#ArialMT-6f" x="700.390625"/>
     <use xlink:href="#ArialMT-67" x="756.005859"/>
     <use xlink:href="#ArialMT-65" x="811.621094"/>
     <use xlink:href="#ArialMT-6e" x="867.236328"/>
     <use xlink:href="#ArialMT-20" x="922.851562"/>
     <use xlink:href="#ArialMT-42" x="950.634766"/>
     <use xlink:href="#ArialMT-6f" x="1017.333984"/>
     <use xlink:href="#ArialMT-6e" x="1072.949219"/>
     <use xlink:href="#ArialMT-64" x="1128.564453"/>
     <use xlink:href="#ArialMT-73" x="1184.179688"/>
     <use xlink:href="#ArialMT-20" x="1234.179688"/>
     <use xlink:href="#ArialMT-4e" x="1261.962891"/>
     <use xlink:href="#ArialMT-75" x="1334.179688"/>
     <use xlink:href="#ArialMT-6d" x="1389.794922"/>
     <use xlink:href="#ArialMT-62" x="1473.095703"/>
     <use xlink:href="#ArialMT-65" x="1528.710938"/>
     <use xlink:href="#ArialMT-72" x="1584.326172"/>
    </g>
   </g>
   <g id="legend_1">
    <g id="patch_7">
     <path d="M 368.0525 120.341625 
L 498.701563 120.341625 
Q 502.301563 120.341625 502.301563 116.741625 
L 502.301563 41.524125 
Q 502.301563 37.924125 498.701563 37.924125 
L 368.0525 37.924125 
Q 364.4525 37.924125 364.4525 41.524125 
L 364.4525 116.741625 
Q 364.4525 120.341625 368.0525 120.341625 
z
" style="fill: #ffffff; opacity: 0.8; stroke: #cccccc; stroke-linejoin: miter"/>
    </g>
    <g id="line2d_19">
     <path d="M 371.6525 51.708188 
L 389.6525 51.708188 
L 407.6525 51.708188 
" style="fill: none; stroke: #1f77b4; stroke-width: 1.5; stroke-linecap: square"/>
    </g>
    <g id="text_19">
     <!-- X-Length -->
     <g transform="translate(422.0525 58.008188) scale(0.18 -0.18)">
      <defs>
       <path id="ArialMT-58" d="M 28 0 
L 1800 2388 
L 238 4581 
L 959 4581 
L 1791 3406 
Q 2050 3041 2159 2844 
Q 2313 3094 2522 3366 
L 3444 4581 
L 4103 4581 
L 2494 2422 
L 4228 0 
L 3478 0 
L 2325 1634 
Q 2228 1775 2125 1941 
Q 1972 1691 1906 1597 
L 756 0 
L 28 0 
z
" transform="scale(0.015625)"/>
       <path id="ArialMT-2d" d="M 203 1375 
L 203 1941 
L 1931 1941 
L 1931 1375 
L 203 1375 
z
" transform="scale(0.015625)"/>
       <path id="ArialMT-4c" d="M 469 0 
L 469 4581 
L 1075 4581 
L 1075 541 
L 3331 541 
L 3331 0 
L 469 0 
z
" transform="scale(0.015625)"/>
      </defs>
      <use xlink:href="#ArialMT-58"/>
      <use xlink:href="#ArialMT-2d" x="66.699219"/>
      <use xlink:href="#ArialMT-4c" x="100"/>
      <use xlink:href="#ArialMT-65" x="155.615234"/>
      <use xlink:href="#ArialMT-6e" x="211.230469"/>
      <use xlink:href="#ArialMT-67" x="266.845703"/>
      <use xlink:href="#ArialMT-74" x="322.460938"/>
      <use xlink:href="#ArialMT-68" x="350.244141"/>
     </g>
    </g>
    <g id="line2d_20">
     <path d="M 371.6525 77.380688 
L 389.6525 77.380688 
L 407.6525 77.380688 
" style="fill: none; stroke: #ff7f0e; stroke-width: 1.5; stroke-linecap: square"/>
    </g>
    <g id="text_20">
     <!-- Y-Length -->
     <g transform="translate(422.0525 83.680688) scale(0.18 -0.18)">
      <defs>
       <path id="ArialMT-59" d="M 1784 0 
L 1784 1941 
L 19 4581 
L 756 4581 
L 1659 3200 
Q 1909 2813 2125 2425 
Q 2331 2784 2625 3234 
L 3513 4581 
L 4219 4581 
L 2391 1941 
L 2391 0 
L 1784 0 
z
" transform="scale(0.015625)"/>
      </defs>
      <use xlink:href="#ArialMT-59"/>
      <use xlink:href="#ArialMT-2d" x="57.574219"/>
      <use xlink:href="#ArialMT-4c" x="90.875"/>
      <use xlink:href="#ArialMT-65" x="146.490234"/>
      <use xlink:href="#ArialMT-6e" x="202.105469"/>
      <use xlink:href="#ArialMT-67" x="257.720703"/>
      <use xlink:href="#ArialMT-74" x="313.335938"/>
      <use xlink:href="#ArialMT-68" x="341.119141"/>
     </g>
    </g>
    <g id="line2d_21">
     <path d="M 371.6525 103.053188 
L 389.6525 103.053188 
L 407.6525 103.053188 
" style="fill: none; stroke: #2ca02c; stroke-width: 1.5; stroke-linecap: square"/>
    </g>
    <g id="text_21">
     <!-- Z-Length -->
     <g transform="translate(422.0525 109.353188) scale(0.18 -0.18)">
      <defs>
       <path id="ArialMT-5a" d="M 128 0 
L 128 563 
L 2475 3497 
Q 2725 3809 2950 4041 
L 394 4041 
L 394 4581 
L 3675 4581 
L 3675 4041 
L 1103 863 
L 825 541 
L 3750 541 
L 3750 0 
L 128 0 
z
" transform="scale(0.015625)"/>
      </defs>
      <use xlink:href="#ArialMT-5a"/>
      <use xlink:href="#ArialMT-2d" x="61.083984"/>
      <use xlink:href="#ArialMT-4c" x="94.384766"/>
      <use xlink:href="#ArialMT-65" x="150"/>
      <use xlink:href="#ArialMT-6e" x="205.615234"/>
      <use xlink:href="#ArialMT-67" x="261.230469"/>
      <use xlink:href="#ArialMT-74" x="316.845703"/>
      <use xlink:href="#ArialMT-68" x="344.628906"/>
     </g>
    </g>
   </g>
  </g>
 </g>
 <defs>
  <clipPath id="p7df4081492">
   <rect x="64.901562" y="28.924125" width="446.4" height="332.64"/>
  </clipPath>
 </defs>
</svg>
