<?xml version="1.0" encoding="utf-8" standalone="no"?>
<!DOCTYPE svg PUBLIC "-//W3C//DTD SVG 1.1//EN"
  "http://www.w3.org/Graphics/SVG/1.1/DTD/svg11.dtd">
<svg xmlns:xlink="http://www.w3.org/1999/xlink" width="509.815625pt" height="398.563375pt" viewBox="0 0 509.815625 398.563375" xmlns="http://www.w3.org/2000/svg" version="1.1">
 <metadata>
  <rdf:RDF xmlns:dc="http://purl.org/dc/elements/1.1/" xmlns:cc="http://creativecommons.org/ns#" xmlns:rdf="http://www.w3.org/1999/02/22-rdf-syntax-ns#">
   <cc:Work>
    <dc:type rdf:resource="http://purl.org/dc/dcmitype/StillImage"/>
    <dc:date>2025-01-20T22:16:14.223708</dc:date>
    <dc:format>image/svg+xml</dc:format>
    <dc:creator>
     <cc:Agent>
      <dc:title>Matplotlib v3.9.0, https://matplotlib.org/</dc:title>
     </cc:Agent>
    </dc:creator>
   </cc:Work>
  </rdf:RDF>
 </metadata>
 <defs>
  <style type="text/css">*{stroke-linejoin: round; stroke-linecap: butt}</style>
 </defs>
 <g id="figure_1">
  <g id="patch_1">
   <path d="M 0 398.563375 
L 509.815625 398.563375 
L 509.815625 0 
L 0 0 
z
" style="fill: #ffffff"/>
  </g>
  <g id="axes_1">
   <g id="patch_2">
    <path d="M 46.671875 361.300875 
L 493.071875 361.300875 
L 493.071875 28.660875 
L 46.671875 28.660875 
z
" style="fill: #ffffff"/>
   </g>
   <g id="matplotlib.axis_1">
    <g id="xtick_1">
     <g id="line2d_1">
      <defs>
       <path id="m41f6dab308" d="M 0 0 
L 0 3.5 
" style="stroke: #000000; stroke-width: 0.8"/>
      </defs>
      <g>
       <use xlink:href="#m41f6dab308" x="48.154931" y="361.300875" style="stroke: #000000; stroke-width: 0.8"/>
      </g>
     </g>
     <g id="text_1">
      <!-- 100 -->
      <g transform="translate(38.611181 375.899313) scale(0.1 -0.1)">
       <defs>
        <path id="DejaVuSans-31" d="M 794 531 
L 1825 531 
L 1825 4091 
L 703 3866 
L 703 4441 
L 1819 4666 
L 2450 4666 
L 2450 531 
L 3481 531 
L 3481 0 
L 794 0 
L 794 531 
z
" transform="scale(0.015625)"/>
        <path id="DejaVuSans-30" d="M 2034 4250 
Q 1547 4250 1301 3770 
Q 1056 3291 1056 2328 
Q 1056 1369 1301 889 
Q 1547 409 2034 409 
Q 2525 409 2770 889 
Q 3016 1369 3016 2328 
Q 3016 3291 2770 3770 
Q 2525 4250 2034 4250 
z
M 2034 4750 
Q 2819 4750 3233 4129 
Q 3647 3509 3647 2328 
Q 3647 1150 3233 529 
Q 2819 -91 2034 -91 
Q 1250 -91 836 529 
Q 422 1150 422 2328 
Q 422 3509 836 4129 
Q 1250 4750 2034 4750 
z
" transform="scale(0.015625)"/>
       </defs>
       <use xlink:href="#DejaVuSans-31"/>
       <use xlink:href="#DejaVuSans-30" x="63.623047"/>
       <use xlink:href="#DejaVuSans-30" x="127.246094"/>
      </g>
     </g>
    </g>
    <g id="xtick_2">
     <g id="line2d_2">
      <g>
       <use xlink:href="#m41f6dab308" x="122.307755" y="361.300875" style="stroke: #000000; stroke-width: 0.8"/>
      </g>
     </g>
     <g id="text_2">
      <!-- 105 -->
      <g transform="translate(112.764005 375.899313) scale(0.1 -0.1)">
       <defs>
        <path id="DejaVuSans-35" d="M 691 4666 
L 3169 4666 
L 3169 4134 
L 1269 4134 
L 1269 2991 
Q 1406 3038 1543 3061 
Q 1681 3084 1819 3084 
Q 2600 3084 3056 2656 
Q 3513 2228 3513 1497 
Q 3513 744 3044 326 
Q 2575 -91 1722 -91 
Q 1428 -91 1123 -41 
Q 819 9 494 109 
L 494 744 
Q 775 591 1075 516 
Q 1375 441 1709 441 
Q 2250 441 2565 725 
Q 2881 1009 2881 1497 
Q 2881 1984 2565 2268 
Q 2250 2553 1709 2553 
Q 1456 2553 1204 2497 
Q 953 2441 691 2322 
L 691 4666 
z
" transform="scale(0.015625)"/>
       </defs>
       <use xlink:href="#DejaVuSans-31"/>
       <use xlink:href="#DejaVuSans-30" x="63.623047"/>
       <use xlink:href="#DejaVuSans-35" x="127.246094"/>
      </g>
     </g>
    </g>
    <g id="xtick_3">
     <g id="line2d_3">
      <g>
       <use xlink:href="#m41f6dab308" x="196.460579" y="361.300875" style="stroke: #000000; stroke-width: 0.8"/>
      </g>
     </g>
     <g id="text_3">
      <!-- 110 -->
      <g transform="translate(186.916829 375.899313) scale(0.1 -0.1)">
       <use xlink:href="#DejaVuSans-31"/>
       <use xlink:href="#DejaVuSans-31" x="63.623047"/>
       <use xlink:href="#DejaVuSans-30" x="127.246094"/>
      </g>
     </g>
    </g>
    <g id="xtick_4">
     <g id="line2d_4">
      <g>
       <use xlink:href="#m41f6dab308" x="270.613403" y="361.300875" style="stroke: #000000; stroke-width: 0.8"/>
      </g>
     </g>
     <g id="text_4">
      <!-- 115 -->
      <g transform="translate(261.069653 375.899313) scale(0.1 -0.1)">
       <use xlink:href="#DejaVuSans-31"/>
       <use xlink:href="#DejaVuSans-31" x="63.623047"/>
       <use xlink:href="#DejaVuSans-35" x="127.246094"/>
      </g>
     </g>
    </g>
    <g id="xtick_5">
     <g id="line2d_5">
      <g>
       <use xlink:href="#m41f6dab308" x="344.766227" y="361.300875" style="stroke: #000000; stroke-width: 0.8"/>
      </g>
     </g>
     <g id="text_5">
      <!-- 120 -->
      <g transform="translate(335.222477 375.899313) scale(0.1 -0.1)">
       <defs>
        <path id="DejaVuSans-32" d="M 1228 531 
L 3431 531 
L 3431 0 
L 469 0 
L 469 531 
Q 828 903 1448 1529 
Q 2069 2156 2228 2338 
Q 2531 2678 2651 2914 
Q 2772 3150 2772 3378 
Q 2772 3750 2511 3984 
Q 2250 4219 1831 4219 
Q 1534 4219 1204 4116 
Q 875 4013 500 3803 
L 500 4441 
Q 881 4594 1212 4672 
Q 1544 4750 1819 4750 
Q 2544 4750 2975 4387 
Q 3406 4025 3406 3419 
Q 3406 3131 3298 2873 
Q 3191 2616 2906 2266 
Q 2828 2175 2409 1742 
Q 1991 1309 1228 531 
z
" transform="scale(0.015625)"/>
       </defs>
       <use xlink:href="#DejaVuSans-31"/>
       <use xlink:href="#DejaVuSans-32" x="63.623047"/>
       <use xlink:href="#DejaVuSans-30" x="127.246094"/>
      </g>
     </g>
    </g>
    <g id="xtick_6">
     <g id="line2d_6">
      <g>
       <use xlink:href="#m41f6dab308" x="418.919051" y="361.300875" style="stroke: #000000; stroke-width: 0.8"/>
      </g>
     </g>
     <g id="text_6">
      <!-- 125 -->
      <g transform="translate(409.375301 375.899313) scale(0.1 -0.1)">
       <use xlink:href="#DejaVuSans-31"/>
       <use xlink:href="#DejaVuSans-32" x="63.623047"/>
       <use xlink:href="#DejaVuSans-35" x="127.246094"/>
      </g>
     </g>
    </g>
    <g id="xtick_7">
     <g id="line2d_7">
      <g>
       <use xlink:href="#m41f6dab308" x="493.071875" y="361.300875" style="stroke: #000000; stroke-width: 0.8"/>
      </g>
     </g>
     <g id="text_7">
      <!-- 130 -->
      <g transform="translate(483.528125 375.899313) scale(0.1 -0.1)">
       <defs>
        <path id="DejaVuSans-33" d="M 2597 2516 
Q 3050 2419 3304 2112 
Q 3559 1806 3559 1356 
Q 3559 666 3084 287 
Q 2609 -91 1734 -91 
Q 1441 -91 1130 -33 
Q 819 25 488 141 
L 488 750 
Q 750 597 1062 519 
Q 1375 441 1716 441 
Q 2309 441 2620 675 
Q 2931 909 2931 1356 
Q 2931 1769 2642 2001 
Q 2353 2234 1838 2234 
L 1294 2234 
L 1294 2753 
L 1863 2753 
Q 2328 2753 2575 2939 
Q 2822 3125 2822 3475 
Q 2822 3834 2567 4026 
Q 2313 4219 1838 4219 
Q 1578 4219 1281 4162 
Q 984 4106 628 3988 
L 628 4550 
Q 988 4650 1302 4700 
Q 1616 4750 1894 4750 
Q 2613 4750 3031 4423 
Q 3450 4097 3450 3541 
Q 3450 3153 3228 2886 
Q 3006 2619 2597 2516 
z
" transform="scale(0.015625)"/>
       </defs>
       <use xlink:href="#DejaVuSans-31"/>
       <use xlink:href="#DejaVuSans-33" x="63.623047"/>
       <use xlink:href="#DejaVuSans-30" x="127.246094"/>
      </g>
     </g>
    </g>
    <g id="text_8">
     <!-- Strain(%) -->
     <g transform="translate(249.035156 389.258688) scale(0.1 -0.1)">
      <defs>
       <path id="ArialMT-53" d="M 288 1472 
L 859 1522 
Q 900 1178 1048 958 
Q 1197 738 1509 602 
Q 1822 466 2213 466 
Q 2559 466 2825 569 
Q 3091 672 3220 851 
Q 3350 1031 3350 1244 
Q 3350 1459 3225 1620 
Q 3100 1781 2813 1891 
Q 2628 1963 1997 2114 
Q 1366 2266 1113 2400 
Q 784 2572 623 2826 
Q 463 3081 463 3397 
Q 463 3744 659 4045 
Q 856 4347 1234 4503 
Q 1613 4659 2075 4659 
Q 2584 4659 2973 4495 
Q 3363 4331 3572 4012 
Q 3781 3694 3797 3291 
L 3216 3247 
Q 3169 3681 2898 3903 
Q 2628 4125 2100 4125 
Q 1550 4125 1298 3923 
Q 1047 3722 1047 3438 
Q 1047 3191 1225 3031 
Q 1400 2872 2139 2705 
Q 2878 2538 3153 2413 
Q 3553 2228 3743 1945 
Q 3934 1663 3934 1294 
Q 3934 928 3725 604 
Q 3516 281 3123 101 
Q 2731 -78 2241 -78 
Q 1619 -78 1198 103 
Q 778 284 539 648 
Q 300 1013 288 1472 
z
" transform="scale(0.015625)"/>
       <path id="ArialMT-74" d="M 1650 503 
L 1731 6 
Q 1494 -44 1306 -44 
Q 1000 -44 831 53 
Q 663 150 594 308 
Q 525 466 525 972 
L 525 2881 
L 113 2881 
L 113 3319 
L 525 3319 
L 525 4141 
L 1084 4478 
L 1084 3319 
L 1650 3319 
L 1650 2881 
L 1084 2881 
L 1084 941 
Q 1084 700 1114 631 
Q 1144 563 1211 522 
Q 1278 481 1403 481 
Q 1497 481 1650 503 
z
" transform="scale(0.015625)"/>
       <path id="ArialMT-72" d="M 416 0 
L 416 3319 
L 922 3319 
L 922 2816 
Q 1116 3169 1280 3281 
Q 1444 3394 1641 3394 
Q 1925 3394 2219 3213 
L 2025 2691 
Q 1819 2813 1613 2813 
Q 1428 2813 1281 2702 
Q 1134 2591 1072 2394 
Q 978 2094 978 1738 
L 978 0 
L 416 0 
z
" transform="scale(0.015625)"/>
       <path id="ArialMT-61" d="M 2588 409 
Q 2275 144 1986 34 
Q 1697 -75 1366 -75 
Q 819 -75 525 192 
Q 231 459 231 875 
Q 231 1119 342 1320 
Q 453 1522 633 1644 
Q 813 1766 1038 1828 
Q 1203 1872 1538 1913 
Q 2219 1994 2541 2106 
Q 2544 2222 2544 2253 
Q 2544 2597 2384 2738 
Q 2169 2928 1744 2928 
Q 1347 2928 1158 2789 
Q 969 2650 878 2297 
L 328 2372 
Q 403 2725 575 2942 
Q 747 3159 1072 3276 
Q 1397 3394 1825 3394 
Q 2250 3394 2515 3294 
Q 2781 3194 2906 3042 
Q 3031 2891 3081 2659 
Q 3109 2516 3109 2141 
L 3109 1391 
Q 3109 606 3145 398 
Q 3181 191 3288 0 
L 2700 0 
Q 2613 175 2588 409 
z
M 2541 1666 
Q 2234 1541 1622 1453 
Q 1275 1403 1131 1340 
Q 988 1278 909 1158 
Q 831 1038 831 891 
Q 831 666 1001 516 
Q 1172 366 1500 366 
Q 1825 366 2078 508 
Q 2331 650 2450 897 
Q 2541 1088 2541 1459 
L 2541 1666 
z
" transform="scale(0.015625)"/>
       <path id="ArialMT-69" d="M 425 3934 
L 425 4581 
L 988 4581 
L 988 3934 
L 425 3934 
z
M 425 0 
L 425 3319 
L 988 3319 
L 988 0 
L 425 0 
z
" transform="scale(0.015625)"/>
       <path id="ArialMT-6e" d="M 422 0 
L 422 3319 
L 928 3319 
L 928 2847 
Q 1294 3394 1984 3394 
Q 2284 3394 2536 3286 
Q 2788 3178 2913 3003 
Q 3038 2828 3088 2588 
Q 3119 2431 3119 2041 
L 3119 0 
L 2556 0 
L 2556 2019 
Q 2556 2363 2490 2533 
Q 2425 2703 2258 2804 
Q 2091 2906 1866 2906 
Q 1506 2906 1245 2678 
Q 984 2450 984 1813 
L 984 0 
L 422 0 
z
" transform="scale(0.015625)"/>
       <path id="ArialMT-28" d="M 1497 -1347 
Q 1031 -759 709 28 
Q 388 816 388 1659 
Q 388 2403 628 3084 
Q 909 3875 1497 4659 
L 1900 4659 
Q 1522 4009 1400 3731 
Q 1209 3300 1100 2831 
Q 966 2247 966 1656 
Q 966 153 1900 -1347 
L 1497 -1347 
z
" transform="scale(0.015625)"/>
       <path id="ArialMT-25" d="M 372 3481 
Q 372 3972 619 4315 
Q 866 4659 1334 4659 
Q 1766 4659 2048 4351 
Q 2331 4044 2331 3447 
Q 2331 2866 2045 2552 
Q 1759 2238 1341 2238 
Q 925 2238 648 2547 
Q 372 2856 372 3481 
z
M 1350 4272 
Q 1141 4272 1002 4090 
Q 863 3909 863 3425 
Q 863 2984 1003 2804 
Q 1144 2625 1350 2625 
Q 1563 2625 1702 2806 
Q 1841 2988 1841 3469 
Q 1841 3913 1700 4092 
Q 1559 4272 1350 4272 
z
M 1353 -169 
L 3859 4659 
L 4316 4659 
L 1819 -169 
L 1353 -169 
z
M 3334 1075 
Q 3334 1569 3581 1911 
Q 3828 2253 4300 2253 
Q 4731 2253 5014 1945 
Q 5297 1638 5297 1041 
Q 5297 459 5011 145 
Q 4725 -169 4303 -169 
Q 3888 -169 3611 142 
Q 3334 453 3334 1075 
z
M 4316 1866 
Q 4103 1866 3964 1684 
Q 3825 1503 3825 1019 
Q 3825 581 3965 400 
Q 4106 219 4313 219 
Q 4528 219 4667 400 
Q 4806 581 4806 1063 
Q 4806 1506 4665 1686 
Q 4525 1866 4316 1866 
z
" transform="scale(0.015625)"/>
       <path id="ArialMT-29" d="M 791 -1347 
L 388 -1347 
Q 1322 153 1322 1656 
Q 1322 2244 1188 2822 
Q 1081 3291 891 3722 
Q 769 4003 388 4659 
L 791 4659 
Q 1378 3875 1659 3084 
Q 1900 2403 1900 1659 
Q 1900 816 1576 28 
Q 1253 -759 791 -1347 
z
" transform="scale(0.015625)"/>
      </defs>
      <use xlink:href="#ArialMT-53"/>
      <use xlink:href="#ArialMT-74" x="66.699219"/>
      <use xlink:href="#ArialMT-72" x="94.482422"/>
      <use xlink:href="#ArialMT-61" x="127.783203"/>
      <use xlink:href="#ArialMT-69" x="183.398438"/>
      <use xlink:href="#ArialMT-6e" x="205.615234"/>
      <use xlink:href="#ArialMT-28" x="261.230469"/>
      <use xlink:href="#ArialMT-25" x="294.53125"/>
      <use xlink:href="#ArialMT-29" x="383.447266"/>
     </g>
    </g>
   </g>
   <g id="matplotlib.axis_2">
    <g id="ytick_1">
     <g id="line2d_8">
      <defs>
       <path id="m22e42613d0" d="M 0 0 
L -3.5 0 
" style="stroke: #000000; stroke-width: 0.8"/>
      </defs>
      <g>
       <use xlink:href="#m22e42613d0" x="46.671875" y="361.300875" style="stroke: #000000; stroke-width: 0.8"/>
      </g>
     </g>
     <g id="text_9">
      <!-- 0 -->
      <g transform="translate(33.309375 365.100094) scale(0.1 -0.1)">
       <use xlink:href="#DejaVuSans-30"/>
      </g>
     </g>
    </g>
    <g id="ytick_2">
     <g id="line2d_9">
      <g>
       <use xlink:href="#m22e42613d0" x="46.671875" y="313.780875" style="stroke: #000000; stroke-width: 0.8"/>
      </g>
     </g>
     <g id="text_10">
      <!-- 100 -->
      <g transform="translate(20.584375 317.580094) scale(0.1 -0.1)">
       <use xlink:href="#DejaVuSans-31"/>
       <use xlink:href="#DejaVuSans-30" x="63.623047"/>
       <use xlink:href="#DejaVuSans-30" x="127.246094"/>
      </g>
     </g>
    </g>
    <g id="ytick_3">
     <g id="line2d_10">
      <g>
       <use xlink:href="#m22e42613d0" x="46.671875" y="266.260875" style="stroke: #000000; stroke-width: 0.8"/>
      </g>
     </g>
     <g id="text_11">
      <!-- 200 -->
      <g transform="translate(20.584375 270.060094) scale(0.1 -0.1)">
       <use xlink:href="#DejaVuSans-32"/>
       <use xlink:href="#DejaVuSans-30" x="63.623047"/>
       <use xlink:href="#DejaVuSans-30" x="127.246094"/>
      </g>
     </g>
    </g>
    <g id="ytick_4">
     <g id="line2d_11">
      <g>
       <use xlink:href="#m22e42613d0" x="46.671875" y="218.740875" style="stroke: #000000; stroke-width: 0.8"/>
      </g>
     </g>
     <g id="text_12">
      <!-- 300 -->
      <g transform="translate(20.584375 222.540094) scale(0.1 -0.1)">
       <use xlink:href="#DejaVuSans-33"/>
       <use xlink:href="#DejaVuSans-30" x="63.623047"/>
       <use xlink:href="#DejaVuSans-30" x="127.246094"/>
      </g>
     </g>
    </g>
    <g id="ytick_5">
     <g id="line2d_12">
      <g>
       <use xlink:href="#m22e42613d0" x="46.671875" y="171.220875" style="stroke: #000000; stroke-width: 0.8"/>
      </g>
     </g>
     <g id="text_13">
      <!-- 400 -->
      <g transform="translate(20.584375 175.020094) scale(0.1 -0.1)">
       <defs>
        <path id="DejaVuSans-34" d="M 2419 4116 
L 825 1625 
L 2419 1625 
L 2419 4116 
z
M 2253 4666 
L 3047 4666 
L 3047 1625 
L 3713 1625 
L 3713 1100 
L 3047 1100 
L 3047 0 
L 2419 0 
L 2419 1100 
L 313 1100 
L 313 1709 
L 2253 4666 
z
" transform="scale(0.015625)"/>
       </defs>
       <use xlink:href="#DejaVuSans-34"/>
       <use xlink:href="#DejaVuSans-30" x="63.623047"/>
       <use xlink:href="#DejaVuSans-30" x="127.246094"/>
      </g>
     </g>
    </g>
    <g id="ytick_6">
     <g id="line2d_13">
      <g>
       <use xlink:href="#m22e42613d0" x="46.671875" y="123.700875" style="stroke: #000000; stroke-width: 0.8"/>
      </g>
     </g>
     <g id="text_14">
      <!-- 500 -->
      <g transform="translate(20.584375 127.500094) scale(0.1 -0.1)">
       <use xlink:href="#DejaVuSans-35"/>
       <use xlink:href="#DejaVuSans-30" x="63.623047"/>
       <use xlink:href="#DejaVuSans-30" x="127.246094"/>
      </g>
     </g>
    </g>
    <g id="ytick_7">
     <g id="line2d_14">
      <g>
       <use xlink:href="#m22e42613d0" x="46.671875" y="76.180875" style="stroke: #000000; stroke-width: 0.8"/>
      </g>
     </g>
     <g id="text_15">
      <!-- 600 -->
      <g transform="translate(20.584375 79.980094) scale(0.1 -0.1)">
       <defs>
        <path id="DejaVuSans-36" d="M 2113 2584 
Q 1688 2584 1439 2293 
Q 1191 2003 1191 1497 
Q 1191 994 1439 701 
Q 1688 409 2113 409 
Q 2538 409 2786 701 
Q 3034 994 3034 1497 
Q 3034 2003 2786 2293 
Q 2538 2584 2113 2584 
z
M 3366 4563 
L 3366 3988 
Q 3128 4100 2886 4159 
Q 2644 4219 2406 4219 
Q 1781 4219 1451 3797 
Q 1122 3375 1075 2522 
Q 1259 2794 1537 2939 
Q 1816 3084 2150 3084 
Q 2853 3084 3261 2657 
Q 3669 2231 3669 1497 
Q 3669 778 3244 343 
Q 2819 -91 2113 -91 
Q 1303 -91 875 529 
Q 447 1150 447 2328 
Q 447 3434 972 4092 
Q 1497 4750 2381 4750 
Q 2619 4750 2861 4703 
Q 3103 4656 3366 4563 
z
" transform="scale(0.015625)"/>
       </defs>
       <use xlink:href="#DejaVuSans-36"/>
       <use xlink:href="#DejaVuSans-30" x="63.623047"/>
       <use xlink:href="#DejaVuSans-30" x="127.246094"/>
      </g>
     </g>
    </g>
    <g id="ytick_8">
     <g id="line2d_15">
      <g>
       <use xlink:href="#m22e42613d0" x="46.671875" y="28.660875" style="stroke: #000000; stroke-width: 0.8"/>
      </g>
     </g>
     <g id="text_16">
      <!-- 700 -->
      <g transform="translate(20.584375 32.460094) scale(0.1 -0.1)">
       <defs>
        <path id="DejaVuSans-37" d="M 525 4666 
L 3525 4666 
L 3525 4397 
L 1831 0 
L 1172 0 
L 2766 4134 
L 525 4134 
L 525 4666 
z
" transform="scale(0.015625)"/>
       </defs>
       <use xlink:href="#DejaVuSans-37"/>
       <use xlink:href="#DejaVuSans-30" x="63.623047"/>
       <use xlink:href="#DejaVuSans-30" x="127.246094"/>
      </g>
     </g>
    </g>
    <g id="text_17">
     <!-- Stress(MPa) -->
     <g transform="translate(14.479688 222.760562) rotate(-90) scale(0.1 -0.1)">
      <defs>
       <path id="ArialMT-65" d="M 2694 1069 
L 3275 997 
Q 3138 488 2766 206 
Q 2394 -75 1816 -75 
Q 1088 -75 661 373 
Q 234 822 234 1631 
Q 234 2469 665 2931 
Q 1097 3394 1784 3394 
Q 2450 3394 2872 2941 
Q 3294 2488 3294 1666 
Q 3294 1616 3291 1516 
L 816 1516 
Q 847 969 1125 678 
Q 1403 388 1819 388 
Q 2128 388 2347 550 
Q 2566 713 2694 1069 
z
M 847 1978 
L 2700 1978 
Q 2663 2397 2488 2606 
Q 2219 2931 1791 2931 
Q 1403 2931 1139 2672 
Q 875 2413 847 1978 
z
" transform="scale(0.015625)"/>
       <path id="ArialMT-73" d="M 197 991 
L 753 1078 
Q 800 744 1014 566 
Q 1228 388 1613 388 
Q 2000 388 2187 545 
Q 2375 703 2375 916 
Q 2375 1106 2209 1216 
Q 2094 1291 1634 1406 
Q 1016 1563 777 1677 
Q 538 1791 414 1992 
Q 291 2194 291 2438 
Q 291 2659 392 2848 
Q 494 3038 669 3163 
Q 800 3259 1026 3326 
Q 1253 3394 1513 3394 
Q 1903 3394 2198 3281 
Q 2494 3169 2634 2976 
Q 2775 2784 2828 2463 
L 2278 2388 
Q 2241 2644 2061 2787 
Q 1881 2931 1553 2931 
Q 1166 2931 1000 2803 
Q 834 2675 834 2503 
Q 834 2394 903 2306 
Q 972 2216 1119 2156 
Q 1203 2125 1616 2013 
Q 2213 1853 2448 1751 
Q 2684 1650 2818 1456 
Q 2953 1263 2953 975 
Q 2953 694 2789 445 
Q 2625 197 2315 61 
Q 2006 -75 1616 -75 
Q 969 -75 630 194 
Q 291 463 197 991 
z
" transform="scale(0.015625)"/>
       <path id="ArialMT-4d" d="M 475 0 
L 475 4581 
L 1388 4581 
L 2472 1338 
Q 2622 884 2691 659 
Q 2769 909 2934 1394 
L 4031 4581 
L 4847 4581 
L 4847 0 
L 4263 0 
L 4263 3834 
L 2931 0 
L 2384 0 
L 1059 3900 
L 1059 0 
L 475 0 
z
" transform="scale(0.015625)"/>
       <path id="ArialMT-50" d="M 494 0 
L 494 4581 
L 2222 4581 
Q 2678 4581 2919 4538 
Q 3256 4481 3484 4323 
Q 3713 4166 3852 3881 
Q 3991 3597 3991 3256 
Q 3991 2672 3619 2267 
Q 3247 1863 2275 1863 
L 1100 1863 
L 1100 0 
L 494 0 
z
M 1100 2403 
L 2284 2403 
Q 2872 2403 3119 2622 
Q 3366 2841 3366 3238 
Q 3366 3525 3220 3729 
Q 3075 3934 2838 4000 
Q 2684 4041 2272 4041 
L 1100 4041 
L 1100 2403 
z
" transform="scale(0.015625)"/>
      </defs>
      <use xlink:href="#ArialMT-53"/>
      <use xlink:href="#ArialMT-74" x="66.699219"/>
      <use xlink:href="#ArialMT-72" x="94.482422"/>
      <use xlink:href="#ArialMT-65" x="127.783203"/>
      <use xlink:href="#ArialMT-73" x="183.398438"/>
      <use xlink:href="#ArialMT-73" x="233.398438"/>
      <use xlink:href="#ArialMT-28" x="283.398438"/>
      <use xlink:href="#ArialMT-4d" x="316.699219"/>
      <use xlink:href="#ArialMT-50" x="400"/>
      <use xlink:href="#ArialMT-61" x="466.699219"/>
      <use xlink:href="#ArialMT-29" x="522.314453"/>
     </g>
    </g>
   </g>
   <g id="line2d_16">
    <path d="M 48.154931 361.300875 
L 52.226025 371.426854 
L 56.297118 357.265837 
L 60.368351 364.122228 
L 64.439444 335.64613 
L 68.510676 267.567326 
L 72.581629 297.768193 
L 76.652863 318.84118 
L 80.723956 308.769095 
L 84.795049 308.039779 
L 88.866281 341.566747 
L 92.937374 280.172136 
L 97.008608 280.827096 
L 101.079701 346.277284 
L 105.150932 295.041879 
L 109.221887 265.032736 
L 113.293119 240.627412 
L 117.364212 270.866647 
L 121.435449 307.249703 
L 125.506537 220.946077 
L 129.577773 272.85557 
L 133.648867 248.589574 
L 137.720098 266.563966 
L 141.791047 261.014741 
L 145.862284 237.018384 
L 149.933377 240.893572 
L 154.004614 209.185991 
L 158.075708 204.51265 
L 162.146933 243.59618 
L 166.218027 218.348114 
L 170.289263 212.394919 
L 174.360357 251.040067 
L 178.43145 223.893708 
L 182.502543 213.410188 
L 186.57378 281.932626 
L 190.644873 259.917577 
L 194.715966 189.428722 
L 198.787192 209.090507 
L 202.858285 266.108029 
L 206.929522 237.936208 
L 211.000615 190.944206 
L 215.071708 189.850399 
L 219.142802 273.524261 
L 223.214027 198.92043 
L 227.285121 260.438659 
L 231.356357 210.29946 
L 235.427451 249.199955 
L 239.498688 223.326494 
L 243.56977 244.029918 
L 247.641007 279.055025 
L 251.711956 230.691697 
L 255.783193 277.826171 
L 259.854297 232.198501 
L 263.925512 278.795279 
L 267.996616 206.956762 
L 272.067853 220.844792 
L 276.138935 239.840336 
L 280.210172 308.006507 
L 284.281122 222.326889 
L 288.352358 163.289712 
L 292.423463 194.004895 
L 296.494677 203.633795 
L 300.565782 193.880866 
L 304.637018 193.925974 
L 308.708101 159.510193 
L 312.779205 181.392161 
L 316.850442 214.602677 
L 320.921391 208.906097 
L 324.992628 231.732116 
L 329.06371 232.7032 
L 333.134947 180.513413 
L 337.206029 211.96134 
L 341.277266 173.679557 
L 345.34837 225.035539 
L 349.419585 196.912151 
L 353.490689 210.231839 
L 357.561772 153.52326 
L 361.632876 266.491495 
L 365.704113 213.541886 
L 369.775195 189.819695 
L 373.846432 184.504775 
L 377.917536 170.195573 
L 381.988751 142.231809 
L 386.059855 132.35419 
L 390.130937 172.231055 
L 394.202041 194.660847 
L 398.273278 218.284025 
L 402.34436 169.001116 
L 406.415597 167.24395 
L 410.486701 211.693607 
L 414.557916 157.716529 
L 418.62902 180.379002 
L 422.700102 204.035281 
L 426.771185 139.252704 
L 430.842311 243.77446 
L 434.913526 264.805157 
L 438.984608 184.246982 
L 443.055867 220.736825 
L 447.126949 156.741883 
L 451.198164 198.054623 
L 455.26929 177.547244 
L 459.340505 178.16681 
L 463.411454 166.856711 
L 467.482713 136.626782 
L 471.553795 156.46705 
L 475.62501 181.405028 
L 479.696092 225.11954 
L 483.767351 170.352942 
L 487.838433 187.176675 
L 491.909692 149.261713 
L 495.980775 201.190774 
L 500.051857 146.367773 
L 504.122939 218.303307 
L 508.194198 158.438955 
L 510.815625 178.339574 
L 510.815625 178.339574 
" clip-path="url(#pf77f6d619c)" style="fill: none; stroke: #1f77b4; stroke-width: 1.5; stroke-linecap: square"/>
   </g>
   <g id="line2d_17">
    <path d="M 48.154931 361.300875 
L 52.047712 334.33534 
L 55.940492 342.247381 
L 59.833409 337.502305 
L 63.726189 316.202499 
L 67.619105 333.472937 
L 71.512022 318.62582 
L 75.404801 352.703963 
L 79.297719 285.390148 
L 83.190499 314.224793 
L 87.083279 255.320733 
L 90.976197 255.63279 
L 94.868974 246.63556 
L 98.76203 235.833236 
L 102.65481 277.841712 
L 106.547589 311.92192 
L 110.440507 244.934025 
L 114.333287 287.538076 
L 118.226205 273.067404 
L 122.118985 213.177514 
L 126.011764 292.458446 
L 129.904815 212.301803 
L 133.797595 241.506258 
L 137.690512 181.957988 
L 145.476078 290.464995 
L 149.368995 256.717546 
L 153.26177 251.397434 
L 157.154688 256.382144 
L 161.047605 304.507552 
L 164.94038 269.141639 
L 168.833298 266.458043 
L 172.726083 308.666526 
L 176.618857 236.241789 
L 180.511775 236.866594 
L 184.404693 251.674951 
L 188.297611 193.12216 
L 192.190396 281.48086 
L 196.08317 250.170567 
L 199.976088 212.770913 
L 203.868873 285.646808 
L 207.76178 232.057614 
L 211.654698 213.58503 
L 215.547483 299.469244 
L 219.440401 187.403023 
L 223.333176 272.072206 
L 227.225961 298.752141 
L 231.118879 185.242556 
L 235.011653 256.857546 
L 238.904704 227.899597 
L 242.797489 213.229716 
L 246.690274 245.462609 
L 250.583192 156.173242 
L 254.475955 184.998387 
L 258.368873 229.162401 
L 262.261658 204.197918 
L 266.154576 223.104092 
L 270.047494 179.417575 
L 273.940279 233.368921 
L 277.833197 232.241013 
L 281.725983 199.12202 
L 285.618746 194.187473 
L 289.511664 176.691263 
L 293.404582 193.381825 
L 297.297367 165.645692 
L 301.190285 192.380193 
L 305.08307 214.280414 
L 308.975988 218.662432 
L 312.868751 175.334682 
L 316.761536 197.013883 
L 320.654587 270.480807 
L 324.547372 164.987035 
L 328.44029 173.906976 
L 332.333075 201.272377 
L 336.225861 174.31407 
L 340.118779 150.894565 
L 344.011542 142.345757 
L 347.904592 222.042287 
L 351.797377 172.845415 
L 355.690163 197.287649 
L 359.583081 218.077805 
L 363.475866 182.748289 
L 367.368784 165.631551 
L 371.261547 211.731543 
L 375.154332 209.937834 
L 379.047383 287.126464 
L 382.940168 189.001764 
L 386.832953 224.862194 
L 390.725871 169.733248 
L 394.618657 226.499683 
L 398.511552 232.943878 
L 402.404338 170.830506 
L 406.297256 229.953729 
L 410.190173 101.705245 
L 414.082959 157.956245 
L 417.975877 204.071833 
L 421.86864 207.925694 
L 425.761425 144.846688 
L 429.654343 147.543689 
L 433.547261 168.94544 
L 437.440179 188.663574 
L 441.332964 180.597939 
L 445.225749 153.942856 
L 449.118667 161.453553 
L 453.011453 127.126233 
L 456.904238 152.718593 
L 460.797288 201.008543 
L 464.690074 142.10264 
L 468.582991 189.303841 
L 472.475733 197.934078 
L 476.368518 196.639409 
L 480.261436 182.042638 
L 484.154221 137.518738 
L 488.047272 180.917052 
L 491.940057 180.973963 
L 495.832842 165.448341 
L 499.72576 207.231848 
L 503.618545 191.249602 
L 507.511463 139.274501 
L 510.815625 177.743036 
L 510.815625 177.743036 
" clip-path="url(#pf77f6d619c)" style="fill: none; stroke: #ff7f0e; stroke-width: 1.5; stroke-linecap: square"/>
   </g>
   <g id="line2d_18">
    <path d="M 48.154931 361.300875 
L 52.082877 328.756835 
L 56.010823 392.508001 
L 59.939043 335.345788 
L 63.867127 374.372682 
L 67.79521 292.821006 
L 71.723155 327.517203 
L 75.651239 342.413328 
L 79.579322 352.914693 
L 83.507405 300.191655 
L 87.435351 296.208104 
L 91.363434 297.602534 
L 95.291517 324.602378 
L 99.219601 260.821736 
L 103.147684 296.666807 
L 107.075629 217.41283 
L 111.003712 323.316715 
L 114.931796 258.030117 
L 118.859879 294.160946 
L 122.787824 265.480109 
L 126.715908 277.541921 
L 130.643991 290.801884 
L 134.572074 271.564738 
L 138.500296 240.280056 
L 142.428236 270.815019 
L 146.356324 184.353634 
L 150.284402 257.230373 
L 154.212491 266.022687 
L 158.140436 232.061854 
L 162.068514 208.086765 
L 165.996603 212.150364 
L 169.924681 275.383914 
L 173.85277 209.863705 
L 177.780715 262.826069 
L 181.708793 201.542481 
L 185.636882 188.504157 
L 189.564959 190.14813 
L 193.492905 193.400396 
L 197.420993 260.607966 
L 201.349071 182.261174 
L 205.27716 213.066391 
L 209.205105 203.785676 
L 213.133183 192.205031 
L 217.061272 182.450261 
L 220.989493 181.917948 
L 224.917571 179.122686 
L 228.845517 194.444845 
L 232.773605 175.552752 
L 236.701694 219.228925 
L 240.629772 235.288338 
L 244.557717 124.05721 
L 248.485795 182.021789 
L 252.413873 215.53666 
L 256.341973 205.901472 
L 260.270051 239.619462 
L 264.197996 196.509522 
L 268.126074 247.568331 
L 272.054151 203.254387 
L 275.982229 196.129877 
L 279.910197 199.18205 
L 283.838274 143.250748 
L 287.766352 179.768438 
L 291.69443 159.957907 
L 295.622375 239.062518 
L 299.550475 161.298654 
L 303.478686 129.173984 
L 307.406763 241.831007 
L 311.334841 144.15632 
L 315.262786 154.626927 
L 319.190886 184.322614 
L 323.118964 152.348483 
L 327.047042 192.64099 
L 330.974987 177.758923 
L 334.903065 160.087155 
L 338.831165 200.723834 
L 342.759243 169.032692 
L 346.687321 151.817364 
L 350.615266 189.691762 
L 354.543344 132.467309 
L 358.471444 169.782802 
L 362.399521 194.127074 
L 366.327467 122.369922 
L 370.255544 164.925143 
L 374.183622 155.930951 
L 378.111722 168.424193 
L 382.039933 134.977304 
L 385.967878 158.458094 
L 389.895956 126.302506 
L 393.824055 123.789246 
L 397.752133 149.829941 
L 401.680078 182.025001 
L 405.608156 144.121858 
L 409.536234 156.61197 
L 413.464334 155.453486 
L 417.392279 176.779991 
L 421.320357 107.32962 
L 425.248457 156.103219 
L 429.176513 175.887184 
L 433.104613 153.040568 
L 437.032536 153.682146 
L 440.960636 184.816603 
L 444.888736 204.247831 
L 448.816791 167.761422 
L 452.744759 120.400335 
L 456.672814 192.078329 
L 460.600914 144.674975 
L 464.529147 231.880249 
L 468.457202 103.574503 
L 472.38517 193.391738 
L 476.313225 181.628424 
L 480.241325 158.067372 
L 484.169425 150.609254 
L 488.097348 198.204639 
L 492.025448 149.401252 
L 495.953504 184.317411 
L 499.881604 200.740593 
L 503.809704 273.68613 
L 507.737627 245.380415 
L 510.815625 253.035363 
L 510.815625 253.035363 
" clip-path="url(#pf77f6d619c)" style="fill: none; stroke: #2ca02c; stroke-width: 1.5; stroke-linecap: square"/>
   </g>
   <g id="patch_3">
    <path d="M 46.671875 361.300875 
L 46.671875 28.660875 
" style="fill: none; stroke: #000000; stroke-width: 0.8; stroke-linejoin: miter; stroke-linecap: square"/>
   </g>
   <g id="patch_4">
    <path d="M 493.071875 361.300875 
L 493.071875 28.660875 
" style="fill: none; stroke: #000000; stroke-width: 0.8; stroke-linejoin: miter; stroke-linecap: square"/>
   </g>
   <g id="patch_5">
    <path d="M 46.671875 361.300875 
L 493.071875 361.300875 
" style="fill: none; stroke: #000000; stroke-width: 0.8; stroke-linejoin: miter; stroke-linecap: square"/>
   </g>
   <g id="patch_6">
    <path d="M 46.671875 28.660875 
L 493.071875 28.660875 
" style="fill: none; stroke: #000000; stroke-width: 0.8; stroke-linejoin: miter; stroke-linecap: square"/>
   </g>
   <g id="text_18">
    <!-- Stress-Strain Curve -->
    <g transform="translate(175.650312 22.660875) scale(0.216 -0.216)">
     <defs>
      <path id="ArialMT-2d" d="M 203 1375 
L 203 1941 
L 1931 1941 
L 1931 1375 
L 203 1375 
z
" transform="scale(0.015625)"/>
      <path id="ArialMT-20" transform="scale(0.015625)"/>
      <path id="ArialMT-43" d="M 3763 1606 
L 4369 1453 
Q 4178 706 3683 314 
Q 3188 -78 2472 -78 
Q 1731 -78 1267 223 
Q 803 525 561 1097 
Q 319 1669 319 2325 
Q 319 3041 592 3573 
Q 866 4106 1370 4382 
Q 1875 4659 2481 4659 
Q 3169 4659 3637 4309 
Q 4106 3959 4291 3325 
L 3694 3184 
Q 3534 3684 3231 3912 
Q 2928 4141 2469 4141 
Q 1941 4141 1586 3887 
Q 1231 3634 1087 3207 
Q 944 2781 944 2328 
Q 944 1744 1114 1308 
Q 1284 872 1643 656 
Q 2003 441 2422 441 
Q 2931 441 3284 734 
Q 3638 1028 3763 1606 
z
" transform="scale(0.015625)"/>
      <path id="ArialMT-75" d="M 2597 0 
L 2597 488 
Q 2209 -75 1544 -75 
Q 1250 -75 995 37 
Q 741 150 617 320 
Q 494 491 444 738 
Q 409 903 409 1263 
L 409 3319 
L 972 3319 
L 972 1478 
Q 972 1038 1006 884 
Q 1059 663 1231 536 
Q 1403 409 1656 409 
Q 1909 409 2131 539 
Q 2353 669 2445 892 
Q 2538 1116 2538 1541 
L 2538 3319 
L 3100 3319 
L 3100 0 
L 2597 0 
z
" transform="scale(0.015625)"/>
      <path id="ArialMT-76" d="M 1344 0 
L 81 3319 
L 675 3319 
L 1388 1331 
Q 1503 1009 1600 663 
Q 1675 925 1809 1294 
L 2547 3319 
L 3125 3319 
L 1869 0 
L 1344 0 
z
" transform="scale(0.015625)"/>
     </defs>
     <use xlink:href="#ArialMT-53"/>
     <use xlink:href="#ArialMT-74" x="66.699219"/>
     <use xlink:href="#ArialMT-72" x="94.482422"/>
     <use xlink:href="#ArialMT-65" x="127.783203"/>
     <use xlink:href="#ArialMT-73" x="183.398438"/>
     <use xlink:href="#ArialMT-73" x="233.398438"/>
     <use xlink:href="#ArialMT-2d" x="283.398438"/>
     <use xlink:href="#ArialMT-53" x="316.699219"/>
     <use xlink:href="#ArialMT-74" x="383.398438"/>
     <use xlink:href="#ArialMT-72" x="411.181641"/>
     <use xlink:href="#ArialMT-61" x="444.482422"/>
     <use xlink:href="#ArialMT-69" x="500.097656"/>
     <use xlink:href="#ArialMT-6e" x="522.314453"/>
     <use xlink:href="#ArialMT-20" x="577.929688"/>
     <use xlink:href="#ArialMT-43" x="605.712891"/>
     <use xlink:href="#ArialMT-75" x="677.929688"/>
     <use xlink:href="#ArialMT-72" x="733.544922"/>
     <use xlink:href="#ArialMT-76" x="766.845703"/>
     <use xlink:href="#ArialMT-65" x="816.845703"/>
    </g>
   </g>
   <g id="legend_1">
    <g id="patch_7">
     <path d="M 59.271875 120.103687 
L 186.891875 120.103687 
Q 190.491875 120.103687 190.491875 116.503687 
L 190.491875 41.260875 
Q 190.491875 37.660875 186.891875 37.660875 
L 59.271875 37.660875 
Q 55.671875 37.660875 55.671875 41.260875 
L 55.671875 116.503687 
Q 55.671875 120.103687 59.271875 120.103687 
z
" style="fill: #ffffff; opacity: 0.8; stroke: #cccccc; stroke-linejoin: miter"/>
    </g>
    <g id="line2d_19">
     <path d="M 62.871875 51.664312 
L 80.871875 51.664312 
L 98.871875 51.664312 
" style="fill: none; stroke: #1f77b4; stroke-width: 1.5; stroke-linecap: square"/>
    </g>
    <g id="text_19">
     <!-- FS1M_X -->
     <g transform="translate(113.271875 57.964312) scale(0.18 -0.18)">
      <defs>
       <path id="ArialMT-46" d="M 525 0 
L 525 4581 
L 3616 4581 
L 3616 4041 
L 1131 4041 
L 1131 2622 
L 3281 2622 
L 3281 2081 
L 1131 2081 
L 1131 0 
L 525 0 
z
" transform="scale(0.015625)"/>
       <path id="ArialMT-31" d="M 2384 0 
L 1822 0 
L 1822 3584 
Q 1619 3391 1289 3197 
Q 959 3003 697 2906 
L 697 3450 
Q 1169 3672 1522 3987 
Q 1875 4303 2022 4600 
L 2384 4600 
L 2384 0 
z
" transform="scale(0.015625)"/>
       <path id="ArialMT-5f" d="M -97 -1272 
L -97 -866 
L 3631 -866 
L 3631 -1272 
L -97 -1272 
z
" transform="scale(0.015625)"/>
       <path id="ArialMT-58" d="M 28 0 
L 1800 2388 
L 238 4581 
L 959 4581 
L 1791 3406 
Q 2050 3041 2159 2844 
Q 2313 3094 2522 3366 
L 3444 4581 
L 4103 4581 
L 2494 2422 
L 4228 0 
L 3478 0 
L 2325 1634 
Q 2228 1775 2125 1941 
Q 1972 1691 1906 1597 
L 756 0 
L 28 0 
z
" transform="scale(0.015625)"/>
      </defs>
      <use xlink:href="#ArialMT-46"/>
      <use xlink:href="#ArialMT-53" x="61.083984"/>
      <use xlink:href="#ArialMT-31" x="127.783203"/>
      <use xlink:href="#ArialMT-4d" x="183.398438"/>
      <use xlink:href="#ArialMT-5f" x="266.699219"/>
      <use xlink:href="#ArialMT-58" x="322.314453"/>
     </g>
    </g>
    <g id="line2d_20">
     <path d="M 62.871875 77.34525 
L 80.871875 77.34525 
L 98.871875 77.34525 
" style="fill: none; stroke: #ff7f0e; stroke-width: 1.5; stroke-linecap: square"/>
    </g>
    <g id="text_20">
     <!-- FS1M_Y -->
     <g transform="translate(113.271875 83.64525) scale(0.18 -0.18)">
      <defs>
       <path id="ArialMT-59" d="M 1784 0 
L 1784 1941 
L 19 4581 
L 756 4581 
L 1659 3200 
Q 1909 2813 2125 2425 
Q 2331 2784 2625 3234 
L 3513 4581 
L 4219 4581 
L 2391 1941 
L 2391 0 
L 1784 0 
z
" transform="scale(0.015625)"/>
      </defs>
      <use xlink:href="#ArialMT-46"/>
      <use xlink:href="#ArialMT-53" x="61.083984"/>
      <use xlink:href="#ArialMT-31" x="127.783203"/>
      <use xlink:href="#ArialMT-4d" x="183.398438"/>
      <use xlink:href="#ArialMT-5f" x="266.699219"/>
      <use xlink:href="#ArialMT-59" x="322.314453"/>
     </g>
    </g>
    <g id="line2d_21">
     <path d="M 62.871875 103.026187 
L 80.871875 103.026187 
L 98.871875 103.026187 
" style="fill: none; stroke: #2ca02c; stroke-width: 1.5; stroke-linecap: square"/>
    </g>
    <g id="text_21">
     <!-- FS1M_Z -->
     <g transform="translate(113.271875 109.326187) scale(0.18 -0.18)">
      <defs>
       <path id="ArialMT-5a" d="M 128 0 
L 128 563 
L 2475 3497 
Q 2725 3809 2950 4041 
L 394 4041 
L 394 4581 
L 3675 4581 
L 3675 4041 
L 1103 863 
L 825 541 
L 3750 541 
L 3750 0 
L 128 0 
z
" transform="scale(0.015625)"/>
      </defs>
      <use xlink:href="#ArialMT-46"/>
      <use xlink:href="#ArialMT-53" x="61.083984"/>
      <use xlink:href="#ArialMT-31" x="127.783203"/>
      <use xlink:href="#ArialMT-4d" x="183.398438"/>
      <use xlink:href="#ArialMT-5f" x="266.699219"/>
      <use xlink:href="#ArialMT-5a" x="322.314453"/>
     </g>
    </g>
   </g>
  </g>
 </g>
 <defs>
  <clipPath id="pf77f6d619c">
   <rect x="46.671875" y="28.660875" width="446.4" height="332.64"/>
  </clipPath>
 </defs>
</svg>
